<svg xmlns="http://www.w3.org/2000/svg" viewBox="0 0 21.92 20.62"><path d="M21.77 3a.67.67 0 00-.53-.25H5.08L4.48.51A.68.68 0 003.82 0H.61a.69.69 0 000 1.37h2.68l.59 2.22 2.2 8.23.74 2.77a.7.7 0 00.67.51h11a.69.69 0 00.77-.6.7.7 0 00-.6-.77H8.02l-.39-1.42 12.27-.62a.66.66 0 00.64-.56l1.37-7.56a.66.66 0 00-.14-.57zM9.55 8.94a.69.69 0 01-.69.68.67.67 0 01-.68-.68V6.19a.67.67 0 01.67-.69.69.69 0 01.69.69zm4.13 0a.69.69 0 11-1.38 0V6.19a.69.69 0 111.38 0zm4.12 0a.69.69 0 01-.69.68.67.67 0 01-.68-.68V6.19a.67.67 0 01.67-.69.69.69 0 01.69.69zM8.86 20.62a2.06 2.06 0 10-2.06-2.06 2.07 2.07 0 002.06 2.06zm8.25 0a2.06 2.06 0 10-2.06-2.06 2.07 2.07 0 002.06 2.06z"/></svg>