<svg version="1.1" id="Слой_1" xmlns="http://www.w3.org/2000/svg" xmlns:xlink="http://www.w3.org/1999/xlink" x="0" y="0" viewBox="0 0 61 72" xml:space="preserve"><style>.st0{fill:#424242}.st0,.st1,.st2,.st3,.st4{clip-path:url(#SVGID_2_)}.st1{fill:#414141}.st2{fill:#404040}.st3{fill:#3f3f3f}.st4{fill:#3e3e3e}.st5{fill:#3d3d3d}.st5,.st6,.st7,.st8,.st9{clip-path:url(#SVGID_2_)}.st6{fill:#3c3c3c}.st7{fill:#3b3b3b}.st8{fill:#3a3a3a}.st9{fill:#393939}.st10{fill:#383838}.st10,.st11,.st12,.st13,.st14{clip-path:url(#SVGID_2_)}.st11{fill:#363636}.st12{fill:#353535}.st13{fill:#343434}.st14{fill:#333}.st15{fill:#323232}.st15,.st16,.st17{clip-path:url(#SVGID_2_)}.st16{fill:#313131}.st17{fill:#303030}</style><defs><path id="SVGID_1_" d="M54.2 0H9.8C6.5 0 3.9 2.7 3.9 6v6H2.4c-.8 0-1.5.7-1.5 1.5S1.6 15 2.4 15h5.9c.8 0 1.5.7 1.5 1.5S9.1 18 8.3 18h-3c-.8 0-1.5.7-1.5 1.5V27H2.4c-.8 0-1.5.7-1.5 1.5S1.6 30 2.4 30h5.9c.8 0 1.5.7 1.5 1.5S9.1 33 8.3 33h-3c-.8 0-1.5.7-1.5 1.5V42H2.4c-.8 0-1.5.7-1.5 1.5S1.6 45 2.4 45h5.9c.8 0 1.5.7 1.5 1.5S9.1 48 8.3 48h-3c-.8 0-1.5.7-1.5 1.5V57H2.4c-.8 0-1.5.7-1.5 1.5S1.6 60 2.4 60h5.9c.8 0 1.5.7 1.5 1.5S9.1 63 8.3 63h-3c-.8 0-1.5.7-1.5 1.5V66c0 3.3 2.7 6 5.9 6h44.4c3.3 0 5.9-2.7 5.9-6V6c.1-3.3-2.6-6-5.8-6zm-3 47.7c0 1.8-1.5 3.3-3.3 3.3-17.8 0-32.2-14.7-32.2-32.7 0-1.8 1.5-3.3 3.3-3.3h6.3c1.8 0 3.3 1.5 3.3 3.3 0 2.1.3 4.1 1 6.1.4 1.2.1 2.5-.8 3.4l-2.6 3.5c2.2 4.1 4.8 6.8 9 9.1l3.6-2.8c.7-.8 2-1.1 3.2-.7 1.9.6 3.9 1 6 1 1.8 0 3.3 1.5 3.3 3.3l-.1 6.5z"/></defs><clipPath id="SVGID_2_"><use xlink:href="#SVGID_1_" overflow="visible"/></clipPath><path class="st0" d="M15.7 15h35.5v1.5H15.7z"/><path class="st1" d="M15.7 16.5h35.5v2.1H15.7z"/><path class="st2" d="M15.7 18.5h35.5v2.1H15.7z"/><path class="st3" d="M15.7 20.6h35.5v2.1H15.7z"/><path class="st4" d="M15.7 22.6h35.5v2.1H15.7z"/><path class="st5" d="M15.7 24.7h35.5v2.1H15.7z"/><path class="st6" d="M15.7 26.7h35.5v2.1H15.7z"/><path class="st7" d="M15.7 28.8h35.5v2.1H15.7z"/><path class="st8" d="M15.7 30.9h35.5V33H15.7z"/><path class="st9" d="M15.7 32.9h35.5V35H15.7z"/><path class="st10" d="M15.7 35h35.5v2.1H15.7z"/><path class="st11" d="M15.7 37h35.5v2.1H15.7z"/><path class="st12" d="M15.7 39.1h35.5v2.1H15.7z"/><path class="st13" d="M15.7 41.1h35.5v2.1H15.7z"/><path class="st14" d="M15.7 43.2h35.5v2.1H15.7z"/><path class="st15" d="M15.7 45.3h35.5v2.1H15.7z"/><path class="st16" d="M15.7 47.3h35.5v2.1H15.7z"/><path class="st17" d="M15.7 49.4h35.5V51H15.7z"/><path d="M60.1 0H.9h59.2zM.9 0h59.2v2.1H.9z" fill="#494949" clip-path="url(#SVGID_2_)"/><path clip-path="url(#SVGID_2_)" fill="#484848" d="M.9 2.1h59.2v2.1H.9z"/><path clip-path="url(#SVGID_2_)" fill="#474747" d="M.9 4.1h59.2v2.1H.9z"/><path clip-path="url(#SVGID_2_)" fill="#464646" d="M.9 6.2h59.2v2.1H.9z"/><path clip-path="url(#SVGID_2_)" fill="#454545" d="M.9 8.2h59.2v2.1H.9z"/><path clip-path="url(#SVGID_2_)" fill="#444" d="M.9 10.3h59.2v2.1H.9z"/><path clip-path="url(#SVGID_2_)" fill="#434343" d="M.9 12.3h59.2v2.1H.9z"/><path class="st0" d="M.9 14.4h59.2v2.1H.9z"/><path class="st1" d="M.9 16.5h59.2v2.1H.9z"/><path class="st2" d="M.9 18.5h59.2v2.1H.9z"/><path class="st3" d="M.9 20.6h59.2v2.1H.9z"/><path class="st4" d="M.9 22.6h59.2v2.1H.9z"/><path class="st5" d="M.9 24.7h59.2v2.1H.9z"/><path class="st6" d="M.9 26.7h59.2v2.1H.9z"/><path class="st7" d="M.9 28.8h59.2v2.1H.9z"/><path class="st8" d="M.9 30.9h59.2V33H.9z"/><path class="st9" d="M.9 32.9h59.2V35H.9z"/><path class="st10" d="M.9 35h59.2v2.1H.9z"/><path class="st11" d="M.9 37h59.2v2.1H.9z"/><path class="st12" d="M.9 39.1h59.2v2.1H.9z"/><path class="st13" d="M.9 41.1h59.2v2.1H.9z"/><path class="st14" d="M.9 43.2h59.2v2.1H.9z"/><path class="st15" d="M.9 45.3h59.2v2.1H.9z"/><path class="st16" d="M.9 47.3h59.2v2.1H.9z"/><path class="st17" d="M.9 49.4h59.2v2.1H.9z"/><path clip-path="url(#SVGID_2_)" fill="#2f2f2f" d="M.9 51.4h59.2v2.1H.9z"/><path clip-path="url(#SVGID_2_)" fill="#2e2e2e" d="M.9 53.5h59.2v2.1H.9z"/><path clip-path="url(#SVGID_2_)" fill="#2d2d2d" d="M.9 55.5h59.2v2.1H.9z"/><path clip-path="url(#SVGID_2_)" fill="#2c2c2c" d="M.9 57.6h59.2v2.1H.9z"/><path clip-path="url(#SVGID_2_)" fill="#2b2b2b" d="M.9 59.7h59.2v2.1H.9z"/><path clip-path="url(#SVGID_2_)" fill="#2a2a2a" d="M.9 61.7h59.2v2.1H.9z"/><path clip-path="url(#SVGID_2_)" fill="#292929" d="M.9 63.8h59.2v2.1H.9z"/><path clip-path="url(#SVGID_2_)" fill="#282828" d="M.9 65.8h59.2v2.1H.9z"/><path clip-path="url(#SVGID_2_)" fill="#272727" d="M.9 67.9h59.2V70H.9z"/><path d="M.9 69.9h59.2V72H.9zm0 2.1h59.2H.9z" fill="#262626" clip-path="url(#SVGID_2_)"/></svg>