<svg xmlns="http://www.w3.org/2000/svg" viewBox="0 0 30 30"><path class="cls-1" d="M7.86 6.52a1.34 1.34 0 01-1.34 1.34H1.34A1.34 1.34 0 010 6.52V1.34A1.34 1.34 0 011.34 0h5.18a1.34 1.34 0 011.34 1.34zm11.07-5.18A1.34 1.34 0 0017.59 0h-5.18a1.34 1.34 0 00-1.34 1.34v5.18a1.34 1.34 0 001.34 1.34h5.18a1.34 1.34 0 001.34-1.34zm11.07 0A1.34 1.34 0 0028.66 0h-5.18a1.34 1.34 0 00-1.34 1.34v5.18a1.34 1.34 0 001.34 1.34h5.18A1.34 1.34 0 0030 6.52zM18.93 12.41a1.34 1.34 0 00-1.34-1.34h-5.18a1.34 1.34 0 00-1.34 1.34v5.18a1.34 1.34 0 001.34 1.34h5.18a1.34 1.34 0 001.34-1.34zm11.07 0a1.34 1.34 0 00-1.34-1.34h-5.18a1.34 1.34 0 00-1.34 1.34v5.18a1.34 1.34 0 001.34 1.34h5.18A1.34 1.34 0 0030 17.59zm-22.14 0a1.34 1.34 0 00-1.34-1.34H1.34A1.34 1.34 0 000 12.41v5.18a1.34 1.34 0 001.34 1.34h5.18a1.34 1.34 0 001.34-1.34zm9.73 9.73h-5.18a1.34 1.34 0 00-1.34 1.34v5.18A1.34 1.34 0 0012.41 30h5.18a1.34 1.34 0 001.34-1.34v-5.18a1.34 1.34 0 00-1.34-1.34zM23.48 30h5.18A1.34 1.34 0 0030 28.66v-5.18a1.34 1.34 0 00-1.34-1.34h-5.18a1.34 1.34 0 00-1.34 1.34v5.18A1.34 1.34 0 0023.48 30zm-17-7.86H1.34A1.34 1.34 0 000 23.48v5.18A1.34 1.34 0 001.34 30h5.18a1.34 1.34 0 001.34-1.34v-5.18a1.34 1.34 0 00-1.34-1.34z"/></svg>