<svg width="31" height="31" fill="none" xmlns="http://www.w3.org/2000/svg"><path d="M21.765 0H9.235C4.143 0 0 4.143 0 9.235v12.53C0 26.857 4.143 31 9.235 31h12.53C26.857 31 31 26.857 31 21.765V9.235C31 4.143 26.857 0 21.765 0zm6.116 21.765a6.117 6.117 0 01-6.116 6.116H9.235a6.117 6.117 0 01-6.116-6.116V9.235A6.116 6.116 0 019.235 3.12h12.53a6.116 6.116 0 016.116 6.116v12.53z" fill="#EEE"/><path d="M15.5 7.482c-4.421 0-8.018 3.597-8.018 8.018 0 4.421 3.597 8.018 8.018 8.018 4.421 0 8.018-3.597 8.018-8.018 0-4.42-3.597-8.018-8.018-8.018zm0 12.917a4.9 4.9 0 110-9.798 4.9 4.9 0 010 9.798zm8.033-10.935a1.921 1.921 0 100-3.843 1.921 1.921 0 000 3.843z" fill="#EEE"/></svg>