<svg id="Слой_1" data-name="Слой 1" xmlns="http://www.w3.org/2000/svg" viewBox="0 0 19 22"><defs><clipPath id="clip-path"><path fill="none" d="M0 0h19v22H0z"/></clipPath></defs><g clip-path="url(#clip-path)"><path d="M9.66 10.6a5.27 5.27 0 01-3.82-1.55A5.08 5.08 0 014.25 5.3a5 5 0 011.59-3.75A5.27 5.27 0 019.66 0a5.27 5.27 0 013.82 1.55 5 5 0 011.59 3.75 5.07 5.07 0 01-1.59 3.75 5.27 5.27 0 01-3.82 1.55zM.2 16.92a12.64 12.64 0 01.18-1.39 10.6 10.6 0 01.35-1.4 6.54 6.54 0 01.58-1.3 5.11 5.11 0 01.89-1.13 4.08 4.08 0 011.27-.79 4.48 4.48 0 011.62-.28A1.68 1.68 0 016 11c.26.17.57.37.92.58a5.12 5.12 0 001.18.51 4.69 4.69 0 002.9 0 5.12 5.12 0 001.18-.51l.92-.58a1.68 1.68 0 01.88-.36 4.48 4.48 0 011.62.28 4.08 4.08 0 011.27.79 4.8 4.8 0 01.88 1.13 6.59 6.59 0 01.59 1.3 10.6 10.6 0 01.35 1.4 12.64 12.64 0 01.18 1.39c0 .42.05.86.05 1.3A3.64 3.64 0 0117.78 21a4 4 0 01-2.86 1H4.11a4 4 0 01-2.85-1 3.58 3.58 0 01-1.11-2.78c0-.45 0-.88.05-1.3z" fill="#2d2d2d"/></g></svg>