<svg version="1.1" id="Слой_1" xmlns="http://www.w3.org/2000/svg" xmlns:xlink="http://www.w3.org/1999/xlink" x="0" y="0" viewBox="0 0 51 71" xml:space="preserve"><defs><path id="SVGID_1_" d="M17.5 20.8V4.3c.3-.4.5-1 .5-1.6v-.3C18 1 16.8-.2 15.4-.2H9.3C7.8-.2 6.7 1 6.7 2.4v.3c0 .6.2 1.1.5 1.6v16.6C3 22.8.1 27 .1 31.9v37.5c0 .8.7 1.5 1.5 1.5H23c.8 0 1.5-.7 1.5-1.5V31.9c.1-4.9-2.8-9.1-7-11.1z"/></defs><clipPath id="SVGID_2_"><use xlink:href="#SVGID_1_" overflow="visible"/></clipPath><path d="M24.6-.2H.1h24.5zM.1-.2h24.5v2H.1z" clip-path="url(#SVGID_2_)" fill="#494949"/><path clip-path="url(#SVGID_2_)" fill="#484848" d="M.1 1.8h24.5v2H.1z"/><path clip-path="url(#SVGID_2_)" fill="#474747" d="M.1 3.9h24.5v2H.1z"/><path clip-path="url(#SVGID_2_)" fill="#464646" d="M.1 5.9h24.5v2H.1z"/><path clip-path="url(#SVGID_2_)" fill="#454545" d="M.1 7.9h24.5v2H.1z"/><path clip-path="url(#SVGID_2_)" fill="#444" d="M.1 9.9h24.5v2H.1z"/><path clip-path="url(#SVGID_2_)" fill="#434343" d="M.1 12h24.5v2H.1z"/><path clip-path="url(#SVGID_2_)" fill="#424242" d="M.1 14h24.5v2H.1z"/><path clip-path="url(#SVGID_2_)" fill="#414141" d="M.1 16h24.5v2H.1z"/><path clip-path="url(#SVGID_2_)" fill="#404040" d="M.1 18.1h24.5v2H.1z"/><path clip-path="url(#SVGID_2_)" fill="#3f3f3f" d="M.1 20.1h24.5v2H.1z"/><path clip-path="url(#SVGID_2_)" fill="#3e3e3e" d="M.1 22.1h24.5v2H.1z"/><path clip-path="url(#SVGID_2_)" fill="#3d3d3d" d="M.1 24.2h24.5v2H.1z"/><path clip-path="url(#SVGID_2_)" fill="#3c3c3c" d="M.1 26.2h24.5v2H.1z"/><path clip-path="url(#SVGID_2_)" fill="#3b3b3b" d="M.1 28.2h24.5v2H.1z"/><path clip-path="url(#SVGID_2_)" fill="#3a3a3a" d="M.1 30.3h24.5v2H.1z"/><path clip-path="url(#SVGID_2_)" fill="#393939" d="M.1 32.3h24.5v2H.1z"/><path clip-path="url(#SVGID_2_)" fill="#383838" d="M.1 34.3h24.5v2H.1z"/><path clip-path="url(#SVGID_2_)" fill="#363636" d="M.1 36.4h24.5v2H.1z"/><path clip-path="url(#SVGID_2_)" fill="#353535" d="M.1 38.4h24.5v2H.1z"/><path clip-path="url(#SVGID_2_)" fill="#343434" d="M.1 40.4h24.5v2H.1z"/><path clip-path="url(#SVGID_2_)" fill="#333" d="M.1 42.5h24.5v2H.1z"/><path clip-path="url(#SVGID_2_)" fill="#323232" d="M.1 44.5h24.5v2H.1z"/><path clip-path="url(#SVGID_2_)" fill="#313131" d="M.1 46.5h24.5v2H.1z"/><path clip-path="url(#SVGID_2_)" fill="#303030" d="M.1 48.6h24.5v2H.1z"/><path clip-path="url(#SVGID_2_)" fill="#2f2f2f" d="M.1 50.6h24.5v2H.1z"/><path clip-path="url(#SVGID_2_)" fill="#2e2e2e" d="M.1 52.6h24.5v2H.1z"/><path clip-path="url(#SVGID_2_)" fill="#2d2d2d" d="M.1 54.7h24.5v2H.1z"/><path clip-path="url(#SVGID_2_)" fill="#2c2c2c" d="M.1 56.7h24.5v2H.1z"/><path clip-path="url(#SVGID_2_)" fill="#2b2b2b" d="M.1 58.7h24.5v2H.1z"/><path clip-path="url(#SVGID_2_)" fill="#2a2a2a" d="M.1 60.8h24.5v2H.1z"/><path clip-path="url(#SVGID_2_)" fill="#292929" d="M.1 62.8h24.5v2H.1z"/><path clip-path="url(#SVGID_2_)" fill="#282828" d="M.1 64.8h24.5v2H.1z"/><path clip-path="url(#SVGID_2_)" fill="#272727" d="M.1 66.9h24.5v2H.1z"/><path d="M.1 68.9h24.5v2H.1zm0 2h24.5H.1z" fill="#262626" clip-path="url(#SVGID_2_)"/><defs><path id="SVGID_3_" d="M46.7 30.7H31.3c-2.2 2.7-3.6 6.2-4.1 9.4-1 7.1 2.9 13.7 8.8 15.3v10.5h-2.3c-.8 0-1.5.7-1.5 1.5v2c0 .8.7 1.5 1.5 1.5h10.4c.8 0 1.5-.7 1.5-1.5v-2c0-.8-.7-1.5-1.5-1.5h-2.3V55.4c6-1.6 9.9-8.2 8.8-15.3-.3-3.2-1.8-6.8-3.9-9.4z"/></defs><clipPath id="SVGID_4_"><use xlink:href="#SVGID_3_" overflow="visible"/></clipPath><path d="M51.7 30.7H26.2h25.5zm-25.5 0h25.5v1.2H26.2z" clip-path="url(#SVGID_4_)" fill="#494949"/><path clip-path="url(#SVGID_4_)" fill="#484848" d="M26.2 31.8h25.5V33H26.2z"/><path clip-path="url(#SVGID_4_)" fill="#474747" d="M26.2 33h25.5v1.2H26.2z"/><path clip-path="url(#SVGID_4_)" fill="#464646" d="M26.2 34.1h25.5v1.2H26.2z"/><path clip-path="url(#SVGID_4_)" fill="#454545" d="M26.2 35.3h25.5v1.2H26.2z"/><path clip-path="url(#SVGID_4_)" fill="#444" d="M26.2 36.4h25.5v1.2H26.2z"/><path clip-path="url(#SVGID_4_)" fill="#434343" d="M26.2 37.6h25.5v1.2H26.2z"/><path clip-path="url(#SVGID_4_)" fill="#424242" d="M26.2 38.7h25.5v1.2H26.2z"/><path clip-path="url(#SVGID_4_)" fill="#414141" d="M26.2 39.9h25.5v1.2H26.2z"/><path clip-path="url(#SVGID_4_)" fill="#404040" d="M26.2 41h25.5v1.2H26.2z"/><path clip-path="url(#SVGID_4_)" fill="#3f3f3f" d="M26.2 42.2h25.5v1.2H26.2z"/><path clip-path="url(#SVGID_4_)" fill="#3e3e3e" d="M26.2 43.3h25.5v1.2H26.2z"/><path clip-path="url(#SVGID_4_)" fill="#3d3d3d" d="M26.2 44.5h25.5v1.2H26.2z"/><path clip-path="url(#SVGID_4_)" fill="#3c3c3c" d="M26.2 45.7h25.5v1.2H26.2z"/><path clip-path="url(#SVGID_4_)" fill="#3b3b3b" d="M26.2 46.8h25.5V48H26.2z"/><path clip-path="url(#SVGID_4_)" fill="#3a3a3a" d="M26.2 48h25.5v1.2H26.2z"/><path clip-path="url(#SVGID_4_)" fill="#393939" d="M26.2 49.1h25.5v1.2H26.2z"/><path clip-path="url(#SVGID_4_)" fill="#383838" d="M26.2 50.3h25.5v1.2H26.2z"/><path clip-path="url(#SVGID_4_)" fill="#363636" d="M26.2 51.4h25.5v1.2H26.2z"/><path clip-path="url(#SVGID_4_)" fill="#353535" d="M26.2 52.6h25.5v1.2H26.2z"/><path clip-path="url(#SVGID_4_)" fill="#343434" d="M26.2 53.7h25.5v1.2H26.2z"/><path clip-path="url(#SVGID_4_)" fill="#333" d="M26.2 54.9h25.5v1.2H26.2z"/><path clip-path="url(#SVGID_4_)" fill="#323232" d="M26.2 56h25.5v1.2H26.2z"/><path clip-path="url(#SVGID_4_)" fill="#313131" d="M26.2 57.2h25.5v1.2H26.2z"/><path clip-path="url(#SVGID_4_)" fill="#303030" d="M26.2 58.3h25.5v1.2H26.2z"/><path clip-path="url(#SVGID_4_)" fill="#2f2f2f" d="M26.2 59.5h25.5v1.2H26.2z"/><path clip-path="url(#SVGID_4_)" fill="#2e2e2e" d="M26.2 60.6h25.5v1.2H26.2z"/><path clip-path="url(#SVGID_4_)" fill="#2d2d2d" d="M26.2 61.8h25.5V63H26.2z"/><path clip-path="url(#SVGID_4_)" fill="#2c2c2c" d="M26.2 62.9h25.5v1.2H26.2z"/><path clip-path="url(#SVGID_4_)" fill="#2b2b2b" d="M26.2 64.1h25.5v1.2H26.2z"/><path clip-path="url(#SVGID_4_)" fill="#2a2a2a" d="M26.2 65.2h25.5v1.2H26.2z"/><path clip-path="url(#SVGID_4_)" fill="#292929" d="M26.2 66.4h25.5v1.2H26.2z"/><path clip-path="url(#SVGID_4_)" fill="#282828" d="M26.2 67.5h25.5v1.2H26.2z"/><path clip-path="url(#SVGID_4_)" fill="#272727" d="M26.2 68.7h25.5v1.2H26.2z"/><path d="M26.2 69.8h25.5V71H26.2zm0 1.2h25.5-25.5z" fill="#262626" clip-path="url(#SVGID_4_)"/></svg>