<svg xmlns="http://www.w3.org/2000/svg" viewBox="0 0 266.03 226.59"><defs><style>.cls-1{fill:#1d1d1b;}</style></defs><title>Ресурс 1</title><g><g id="Calque_1" data-name="Calque 1"><path class="cls-1" d="M1.3,189.27c-.79,0-1.3-.06-1.3-.17s.45-.29,1-.46c1.92-.61,3.33-2.42,3.33-6.65V159.48c0-3.55-.62-4.57-2.2-5.41-.5-.23-1-.4-1-.68s.4-.23.79-.23H20.7c12,0,21,7.11,21,17.94,0,8-6.43,18.17-19.63,18.17Zm9.59-5.87c0,3,1.46,4.46,6.65,4.46,12.52,0,16.59-6.72,16.59-17.55,0-10.49-5-15.73-14.78-15.73H10.89Z"/><path class="cls-1" d="M72.21,169.52H82.65c4.11,0,7.72-1.91,8.51-4.23.12-.34.29-.51.46-.51s.22.29.22.85v9.31c0,1,0,1.18-.22,1.18s-.29-.39-.46-.79c-1.63-4.17-6.26-4.4-10.21-4.4H72.21v11.91c0,4.11,1.41,5,5.25,5h6.37c4.74,0,11.06-2.65,14.72-6.15a7.76,7.76,0,0,1,1.53-1.19.15.15,0,0,1,.17.17,2.18,2.18,0,0,1-.12.45l-2.48,8.13H63.3c-1.3,0-1.69-.06-1.69-.23s1.18-.51,1.58-.85c2.08-1.63,2.48-3.21,2.48-8.34V160.67c0-3.67-.23-6.09-2.48-6.66-.4-.17-1-.34-1-.51s.22-.34,1.07-.34H95.17l1.52,5.31a8,8,0,0,1,.51,2.08c0,.23-.11.46-.28.46a1,1,0,0,1-.68-.51c-2.37-3.89-8.35-5.92-13.65-5.92H72.21Z"/><path class="cls-1" d="M130.7,178.21c0,7,5.13,10.77,12,10.77,9.37,0,13.43-4.34,13.43-14V163.21c0-5.7-1.52-8.3-3.84-9.48-.33-.17-.73-.4-.73-.57s.28-.22.45-.22c1.58,0,2.14.22,4.74.22,2.37,0,4-.22,4.63-.22s.84.06.84.22-.28.34-.84.74c-1.7,1.07-3.79,3.5-3.84,9.31v11.73c0,10.89-5.08,15.45-16,15.45-8.63,0-17.43-1.91-17.43-12.12V158.13c0-2.31-.63-4.18-2.43-4.63-.28-.11-.57-.28-.57-.34s.34-.22.85-.22c.9,0,3.61.22,5.42.22s4.51-.22,5.41-.22c.51,0,.85.06.85.22s-.28.23-.57.34c-1.8.45-2.42,2.32-2.42,4.63Z"/><path class="cls-1" d="M193.87,157.17c0-2.2-1-2.59-3.49-2.59-5.59,0-9.37,3.15-11.91,5.58a6.76,6.76,0,0,1-1,1,.31.31,0,0,1-.28-.34,9,9,0,0,1,.39-1.3l1.81-6.32h35.53l1.81,6.32a9,9,0,0,1,.39,1.3.31.31,0,0,1-.28.34,6.76,6.76,0,0,1-1-1c-2.54-2.43-6.32-5.58-11.9-5.58-2.54,0-3.5.39-3.5,2.59v26c0,2.77.73,5,3.38,5.47.51.06.85.29.85.46a.51.51,0,0,1-.45.34c-.4,0-3.84-.17-7-.17s-6.55.17-6.94.17-.51-.12-.51-.29.51-.22,1.07-.45c2.6-1.13,3.1-2.76,3.1-8Z"/><path class="cls-1" d="M244.77,183.06c-.34.56-1.58,2.31-1.58,3,0,1.3,1.12,1.81,4.85,1.81,6.09,0,12.58-1.19,16.75-6,.4-.45.9-1,1.07-1s.17.11.17.23a3.31,3.31,0,0,1-.22.95l-2.37,7.23H232.19l21.6-30.52a7.2,7.2,0,0,0,1.3-2.65c0-1.24-1.18-1.52-2.88-1.52h-5c-7.17,0-9.82,2.08-13.48,5.64-.29.22-.4.33-.57.33s-.16-.11-.16-.22a4.76,4.76,0,0,1,.39-1.41l2.09-5.76h29.33Z"/><path class="cls-1" d="M54,109.17h-.52a7.49,7.49,0,0,0-7.16-7.41c-5.78,0-6.56,7.18-6.56,11.44s.78,11.44,6.56,11.44c4.1,0,7.16-4,7.16-8.09H54v7.7h-.52c0-.65-.33-1.62-1.11-1.62-1,0-2.7,2.53-6,2.53-5.49,0-10.27-5.3-10.27-12s4.78-12,10.27-12c3.32,0,4.75,2.37,5.95,2.37.91,0,1.21-.62,1.21-1.4H54Z"/><path class="cls-1" d="M63.46,102.08H60.89v-.52h2.57a3.41,3.41,0,0,0,2.73-.81v13.17h.07a5.71,5.71,0,0,1,4.84-3.32c3.48,0,4.45,1.75,4.45,3.67v9.85h2.57v.52H70.25v-.52h2.57V113.49c0-1.79-.88-2.37-1.92-2.37-2.73,0-4.12,2.73-4.71,3.83v9.17h2.47v.52H60.89v-.52h2.57Z"/><path class="cls-1" d="M95.51,122.89c0,.61.1,1.43,1,1.43s1.2-.62,1.69-1.3l.36.26A3.09,3.09,0,0,1,95.68,125a2.72,2.72,0,0,1-2.86-2h-.07c-1.11,1.46-2.57,2-4.71,2-2.54,0-4.07-1.26-4.07-3.48,0-3.64,4.85-4.55,8.2-4.55h.61v-4c0-1.52-1.43-1.88-2.66-1.88-1,0-3.16.36-3.16,1.53,0,.78,1.08.42,1.08,1.88a1.41,1.41,0,0,1-1.5,1.37c-.91,0-1.43-.72-1.43-1.82,0-1.66,1.76-3.48,5-3.48,2.47,0,5.39,1.27,5.39,3.77Zm-3.28-5.37c-2.37,0-5.33.07-5.33,3.55,0,1.82.29,3.18,2.37,3.18a3.34,3.34,0,0,0,3.51-2.47v-4.26Z"/><path class="cls-1" d="M103,124.12h2.57V111.83H103v-.52h2.57c1.56,0,2.14,0,2.73-.71v3.18h.06c.88-1.59,2.25-3.18,4.69-3.18,2.08,0,4.16.58,4.45,3.48h.06a4.93,4.93,0,0,1,4.72-3.48c3.31,0,4.42,1.92,4.42,4v9.56h2.57v.52h-7.87v-.52h2.57V114c0-2.34-1-2.86-2.28-2.86-1.88,0-3.54,2-4.19,4.32v8.68h2.47v.52h-7.77v-.52h2.57V113.36c0-1.62-.81-2.24-2.11-2.24-2,0-3.42,1.53-4.36,3.83v9.17h2.47v.52H103Z"/><path class="cls-1" d="M135.74,111.83H133.5v-.52h2.24a3.77,3.77,0,0,0,2.73-.71v3.32h.07A5,5,0,0,1,143,110.6c3.91,0,6.47,4,6.47,7.22,0,3.8-2.63,7.21-6.69,7.21a4.87,4.87,0,0,1-4.26-2.76h-.07V132.9H141v.52H133.5v-.52h2.24Zm2.73,8.13a4.44,4.44,0,0,0,4.33,4.55c3.18,0,3.57-1.85,3.57-6.69,0-4.46-.48-6.7-3.35-6.7-2.69,0-4.55,2.66-4.55,5Z"/><path class="cls-1" d="M167,122.89c0,.61.1,1.43,1,1.43s1.2-.62,1.69-1.3l.35.26A3.09,3.09,0,0,1,167.2,125a2.73,2.73,0,0,1-2.86-2h-.07c-1.1,1.46-2.56,2-4.71,2-2.53,0-4.06-1.26-4.06-3.48,0-3.64,4.84-4.55,8.19-4.55h.62v-4c0-1.52-1.43-1.88-2.67-1.88-.94,0-3.15.36-3.15,1.53,0,.78,1.07.42,1.07,1.88a1.41,1.41,0,0,1-1.49,1.37c-.91,0-1.43-.72-1.43-1.82,0-1.66,1.75-3.48,5-3.48,2.47,0,5.4,1.27,5.4,3.77Zm-3.28-5.37c-2.38,0-5.34.07-5.34,3.55,0,1.82.3,3.18,2.38,3.18a3.34,3.34,0,0,0,3.51-2.47v-4.26Z"/><path class="cls-1" d="M184.53,123.15c1.82,0,3.61.74,3.61,3.74,0,4.42-3.57,6.86-7.51,6.86-3,0-6.27-1.08-6.27-4.2,0-1.82,1.85-3.18,3.25-3.8v-.07c-1.79,0-2.64-1.23-2.64-3,0-2.27,1.11-3.19,3.19-3.22v-.06c-1.46-.95-2.44-1.95-2.44-3.71a5.24,5.24,0,0,1,5.4-5.07,5.14,5.14,0,0,1,3.8,1.4,3.5,3.5,0,0,1,2.51-1.4,1.47,1.47,0,0,1,1.65,1.46,1.15,1.15,0,0,1-1.3,1.14,1,1,0,0,1-1-1,1.24,1.24,0,0,1,.36-1.07,2.73,2.73,0,0,0-1.85,1.2,5.07,5.07,0,0,1,1.27,3.25c0,2.7-2.86,4.78-5.4,4.78a4.93,4.93,0,0,1-2.44-.58c-1.75,0-3.18.52-3.18,2a1.34,1.34,0,0,0,1.43,1.34Zm-5.65,2.53a3.39,3.39,0,0,0-3,3.74c0,2.73,2.34,3.81,4.87,3.81,3.32,0,6.57-2.12,6.57-5.37,0-1.69-1.36-2.18-3.05-2.18Zm2.24-5.85c2.67,0,2.67-2,2.67-4.35,0-2.61,0-4.36-2.67-4.36s-2.67,2.63-2.67,4.36C178.45,117.56,178.45,119.83,181.12,119.83Z"/><path class="cls-1" d="M197.11,111.83h-2.56v-.52h2.56c1.57,0,2.15,0,2.73-.71v3.32h.07a5.72,5.72,0,0,1,4.84-3.32c3.48,0,4.46,1.75,4.46,3.67v9.85h2.57v.52h-7.87v-.52h2.57V113.49c0-1.79-.88-2.37-1.92-2.37-2.73,0-4.13,2.73-4.72,3.83v9.17h2.48v.52h-7.77v-.52h2.56Z"/><path class="cls-1" d="M221.11,119.6c0,2.31.29,4.91,3.35,4.91a5.15,5.15,0,0,0,5.2-4.48h.52a5.69,5.69,0,0,1-5.72,5c-3.81,0-6.47-2.92-6.47-7.21,0-3.16,2.53-7.22,6.07-7.22,3.84,0,5.83,4.29,5.83,5.66a.26.26,0,0,1-.3.29h-8.48Zm5.66-4.48c0-2.08-.56-4-2.71-4s-2.95,1.92-2.95,4V116h5.43a.21.21,0,0,0,.23-.23Z"/><path class="cls-1" d="M133.39,5.13a.79.79,0,1,1-.79-.79A.78.78,0,0,1,133.39,5.13Z"/><path class="cls-1" d="M124.9,5.79c.28.88,0,1.74-.52,1.92s-1.26-.39-1.54-1.27,0-1.75.52-1.93S124.62,4.9,124.9,5.79Z"/><path class="cls-1" d="M123.58,3.33a.73.73,0,0,1-1.46,0,.73.73,0,1,1,1.46,0Z"/><path class="cls-1" d="M139.76,5.79c-.28.88,0,1.74.52,1.92s1.26-.39,1.54-1.27.05-1.75-.52-1.93S140,4.9,139.76,5.79Z"/><path class="cls-1" d="M141.08,3.33a.74.74,0,1,0,.73-.74A.73.73,0,0,0,141.08,3.33Z"/><path class="cls-1" d="M131.48,4.11c-.07-.66-1.35-2.11-2-2.11s-.91,0-.91.29c0,.54.87.21.87.83,0,.79-1.29.17-1.29.75,0,.37.87.45.87,1s-.29.54-.5.41-.58-.16-.58.38,0,.91.38.7.61-.47.82-.13c.38.63-1.18,1.43-.82,1.79s2-1.19,2.82-2.55a1.43,1.43,0,0,1,0-.29A1.54,1.54,0,0,1,131.48,4.11Z"/><path class="cls-1" d="M133,3.74a7.54,7.54,0,0,1,.76-1.16c.46-.49,1.08-1.2,1.08-1.45s-.37-.28-.79-.16-.83.45-1,.29S133.76,0,132.6,0c-.91,0-.87.64-.87.93s.17.74-.08.74c-.41,0-.5-.87-.87-.87a.85.85,0,0,0-.79.71c0,.31,1.26,1.06,2.13,2.25a1.51,1.51,0,0,1,.48-.08A1.61,1.61,0,0,1,133,3.74Z"/><path class="cls-1" d="M135.91,4.82c0-.25.67-.54.67-.79s-.58-.49-.87-.54-.33-.57-.09-.91.54-.78-.12-.78-1.67,1.49-2,2.07A1.51,1.51,0,0,1,134,5a1.62,1.62,0,0,1-.1.54,5,5,0,0,1,2,1.46.6.6,0,0,0,.75.25c.2-.12-.83-.83-.66-1.16s.41-.08.7,0,.62-.41.62-.83S135.91,5.07,135.91,4.82Z"/><path class="cls-1" d="M146,8.21a1.62,1.62,0,0,1,.09-.74c0-.09.08-.29-.55-.29s-1,1.65-1,1.65-.09-.16-.59-.16c-1,0-.92,1-.63,1s.59-.33.88-.37,1.51.7,1.51,1-.42.82-2,.82c-2.14,0-3.06-2.94-3.06-2.94a.84.84,0,0,1-.71-.08A4.65,4.65,0,0,1,136.4,9.7a4.1,4.1,0,0,1-3.06-1.24c0-.21.21-.33.79-.33s.67.37.88.37.46.13.46-.41-1.71-2-1.71-2a1.4,1.4,0,0,1-1.16.63,1.26,1.26,0,0,1-1-.51s-2,1.37-2,1.91.25.41.46.41.29-.37.88-.37.79.12.79.33a4.1,4.1,0,0,1-3.06,1.24,4.65,4.65,0,0,1-3.48-1.53.84.84,0,0,1-.71.08s-.92,2.94-3.06,2.94c-1.55,0-2-.49-2-.82s1.22-1.08,1.51-1,.59.37.88.37.38-1-.63-1c-.5,0-.59.16-.59.16s-.41-1.65-1-1.65-.55.2-.55.29a1.52,1.52,0,0,1,.08.74A3.8,3.8,0,0,1,117.74,10a4.07,4.07,0,0,0,3.32,2.24,5.6,5.6,0,0,0,4.19-2.44,8.55,8.55,0,0,0,3.52,1.32,6.55,6.55,0,0,0,3.75-1.53,6.52,6.52,0,0,0,3.75,1.53,8.55,8.55,0,0,0,3.52-1.32,5.6,5.6,0,0,0,4.2,2.44A4.06,4.06,0,0,0,147.3,10,3.9,3.9,0,0,1,146,8.21Z"/><path class="cls-1" d="M117.62,11a.83.83,0,1,1-.83-.83A.83.83,0,0,1,117.62,11Z"/><path class="cls-1" d="M116.46,9.62s.7-.16,1,.13a3,3,0,0,0,.79-1.5,4.18,4.18,0,0,1,.45-2.15s-.41-.49-1.74.21c0,0-1-.21-1.24-.66A3.75,3.75,0,0,0,115.92,7,6.37,6.37,0,0,1,116.46,9.62Z"/><path class="cls-1" d="M115.88,10.12s0-2.24-.54-2.9-.74-1.12-1.08-1.12-1,.17-1,.46.91.54.71,1a.82.82,0,0,1-.79.58c-.37,0-1.28,0-1.28.58s.41.46,1,.54a4.05,4.05,0,0,1,2.57,1C115.76,10.45,115.88,10.41,115.88,10.12Z"/><path class="cls-1" d="M147.59,11a.83.83,0,1,0,.82-.83A.82.82,0,0,0,147.59,11Z"/><path class="cls-1" d="M148.75,9.62s-.71-.16-1,.13a3.06,3.06,0,0,1-.78-1.5,4.18,4.18,0,0,0-.46-2.15s.42-.49,1.74.21c0,0,1-.21,1.24-.66A3.75,3.75,0,0,1,149.28,7,6.23,6.23,0,0,0,148.75,9.62Z"/><path class="cls-1" d="M149.33,10.12s-.05-2.24.53-2.9.75-1.12,1.08-1.12.95.17.95.46-.91.54-.7,1a.81.81,0,0,0,.79.58c.37,0,1.28,0,1.28.58s-.42.46-1,.54a4,4,0,0,0-2.57,1C149.45,10.45,149.33,10.41,149.33,10.12Z"/><path class="cls-1" d="M132.6,12C122.87,12,120,13.26,120,13.26a1.06,1.06,0,0,0,0,1.2s2.89-1.31,12.62-1.31Z"/><path class="cls-1" d="M132.6,16.18c-8.45,0-11,.8-11,.8a.92.92,0,0,0,0,1s2.51-.8,11-.8Z"/><polygon class="cls-1" points="132.6 13.45 132.6 15.85 130.33 14.71 132.6 13.45"/><path class="cls-1" d="M124.53,14.16l.15,1.68c1.14-.13,2.54-.24,4.21-.31l0-1.69C127.15,13.91,125.71,14,124.53,14.16Z"/><polygon class="cls-1" points="123.7 15.13 122.25 16.41 119.81 15.83 121.88 14.51 123.7 15.13"/><path class="cls-1" d="M132.6,12c9.73,0,12.63,1.31,12.63,1.31a1.08,1.08,0,0,1,0,1.2s-2.9-1.31-12.63-1.31Z"/><path class="cls-1" d="M132.6,16.18c8.45,0,11,.8,11,.8a.92.92,0,0,1,0,1s-2.52-.8-11-.8Z"/><polygon class="cls-1" points="132.6 13.45 132.6 15.85 134.88 14.71 132.6 13.45"/><path class="cls-1" d="M140.68,14.16l-.15,1.68c-1.15-.13-2.54-.24-4.22-.31l0-1.69C138.05,13.91,139.5,14,140.68,14.16Z"/><polygon class="cls-1" points="141.5 15.13 142.95 16.41 145.39 15.83 143.32 14.51 141.5 15.13"/><path class="cls-1" d="M102,24.45a3.12,3.12,0,0,1-1.55-.67c-.4-.48-.8-.7-.8-1.28s.89-.44,1.2,0,2.7.66,3.1.66c1.37,0,2.13-2.7,2.13-3.72s-2.4-1.28-4.12-1.28a5.4,5.4,0,0,0-3,1.33,10.62,10.62,0,0,0-2.34,4.38,1.5,1.5,0,0,0,1.63,1.6A18.46,18.46,0,0,0,102,24.45Z"/><path class="cls-1" d="M107.51,23.12c3,.13,7.49-2.48,7.49-4.34,0-2.17-.93-2.7-2.75-2.7s-5.58,1.33-5.58,5.31c0,.62.09,2,.09,2l1.68-1.51a1.07,1.07,0,0,1-.93-1c0-1.68,2.44-3.81,4.34-3.81s2.09.45,2.09,1.47c0,1.68-3.33,3.41-5,3.41a2.22,2.22,0,0,1-1.59-.58Z"/><path class="cls-1" d="M109.06,22.68a9.71,9.71,0,0,0-1.5,1.86,43.43,43.43,0,0,1-4.12,5.67c-2.43,2.62-5.45,4.6-7.53,4.6-1.11,0-3.28-.53-3.28-2.87a5.78,5.78,0,0,1,4.61-5.5C100,26,104.86,25.29,107,22l.67,1.29s-1.69,1.19-2.84,1.86-3.19,2.43-5.94,2.43-4.82,1.69-4.82,3.9c0,1,0,2.09,1.9,2.09s4.92-1.64,7.49-5,2.79-3.59,2.92-3.94a1,1,0,0,0-.13-.75l1.59-2Z"/><path class="cls-1" d="M103.84,26.75a11.47,11.47,0,0,1-5.1,4.61s.76-1.68.36-2.61A14,14,0,0,0,103.84,26.75Z"/><path class="cls-1" d="M99,27.24a37,37,0,0,0-2.88,7.88c-.13.67-.27,1.38-1.46.71a39.31,39.31,0,0,1,3.23-8.5Z"/><path class="cls-1" d="M94.44,37.74c-.53,0-.84-.05-.84-.44s.53-.85,1.46-.85.94.54.94.8C96,38.4,95.06,37.74,94.44,37.74Z"/><path class="cls-1" d="M94,38.14c-.53,0-1.15.53-1.46,1.55S92,42.08,92,42.08l.54,0s.66-1.95.93-2S93,42.12,93,42.12h.41A4.47,4.47,0,0,0,94,40.8c0-.49,0-1,.31-1s.13.89.09,1.24A10,10,0,0,0,94,42.39l.58-.22a4.79,4.79,0,0,1,.17-1.29c.18-.44-.08-.93.18-.93s.27.67.18,1a4.42,4.42,0,0,0-.27,1.51l.49,0s.09-1.2.18-2S96.13,38.14,94,38.14Z"/><path class="cls-1" d="M159.92,18.38a6,6,0,0,0,1.29.13c.75,0,1.37-.35,2.08-.35s3.23,1,3.23,1.77-3.36.18-3.36,1.11,4.34.62,4.34.62,1.24,1.06,1.24,2.08-.27,1.2-.67,1.2a3.72,3.72,0,0,1-2.26-.67,9.69,9.69,0,0,0-1.9-1.64A8.83,8.83,0,0,1,162,21.17a15.07,15.07,0,0,1-1-1.33C160.54,19.35,159.79,19.58,159.92,18.38Z"/><path class="cls-1" d="M158.41,23.21c-1.59,0-8.15-1.07-8.15-5,0-1,.58-2.26,2.66-2.26s4.74,1.06,7.4,5.18c0,0,1,1.37,4.78,3.72,1.42.89,2.26.75,3.64,1.6s3.67,3.05,3.67,5.58C172.41,34.28,170,35,170,35l-1.77-1s3-.75,3-2.17c0-1.15-1-3.68-3-4.12s-3.64-1.86-4.74-2.57a46.23,46.23,0,0,1-5-4.3c-.27-.4-2.79-3.59-5.05-3.59-1.11,0-1.82.36-1.82,1.47,0,1.63,3.68,3.36,5.89,3.36s.85-1.64.85-1.64l2.7,2.31s-1.46-.8-1.38.17a15,15,0,0,0,2.09,5.81c1.79,2.79,4.86,5.27,6.47,5.27a8.57,8.57,0,0,0,2.21-.71l-.18,1.86a5.71,5.71,0,0,1-3.36-.49,12.35,12.35,0,0,1-6.47-6A23.88,23.88,0,0,1,158.41,23.21Z"/><path class="cls-1" d="M161.25,24.94c-.35,0-.09.48.18.93a26.49,26.49,0,0,0,5,6.2s.84.35.58-.36a19.44,19.44,0,0,1-.89-2.57c0-.44.18-.84-.75-1.15S161.83,24.94,161.25,24.94Z"/><path class="cls-1" d="M165.5,26.18a8.53,8.53,0,0,1,2.26,4.07c.45,1.58,2,6.47,2,6.47l.89-.27s-1.6-6.69-3.15-9.3Z"/><path class="cls-1" d="M169.89,37.56a1.63,1.63,0,0,0-.09,1l1.95-.67s-.44-.84-1.06-.84A.84.84,0,0,0,169.89,37.56Z"/><path class="cls-1" d="M173.12,40.44c-.3-.93-.36-1.81-1.9-1.81-.45,0-1.11.35-1.11.93a20.12,20.12,0,0,0,.49,2.25c.09.58.26,1.56.26,1.91h.36s-.18-.93.09-1.15.53.84.53.84l.26-.09s-.3-1.24-.08-1.37.62,1.24.62,1.24L173,43s-.58-1.68-.35-1.86.84,1.91.84,1.91l.44-.23S173.51,41.59,173.12,40.44Z"/><path class="cls-1" d="M161.21,31.8a8.67,8.67,0,0,0,3.32,3.28c2.35,1.33,3.14,1.33,3.14,1.33a62,62,0,0,0,2.71,12.67c.48,1.59.26,1.55-.4,2a22.72,22.72,0,0,1-2.66,1.46c-2,.91-3.94,1.29-6.51,3.55,0,0-.18-.36.22-1.29a14.52,14.52,0,0,0,.57-4.61,6.12,6.12,0,0,1,2.35-.22,27.88,27.88,0,0,1,5.58,1s.32.27.32-1.06a6.58,6.58,0,0,0-.85-3.41,38.19,38.19,0,0,0-7.79-1.16S160.89,41.06,161.21,31.8Z"/><path class="cls-1" d="M108.84,28.17a5.91,5.91,0,0,1-1.73-.84,1.08,1.08,0,0,1,.62-.31c.32,0,.4.35.76.35s.62-.35.62-.88-.31-.89-.58-.89-.88.71-1.24,1.15A33.65,33.65,0,0,1,104,31.23a14.07,14.07,0,0,1-5.36,3.67S96.44,44.07,96,46.07s-.8,3.32-.8,3.81.05.88,1.15,1.19a51.2,51.2,0,0,1,7.14,3.1c.66.4,1.59,1,1.41.4a28.92,28.92,0,0,1-.84-5s-4.34.4-5.89.71-1.86.4-2.08.4-.49-.31-.49-1a9.26,9.26,0,0,1,.71-3.1c.84-.89,5.18-1.59,7.53-1.59a2.72,2.72,0,0,1,1.06.13s.62-13.07.49-14.58c0,0,.62-1.06.93-1.68s.4-.93.62-.93.09.53.62.53h1.15Z"/><path class="cls-1" d="M110.71,24c0,.2.81.05,2.42-.05a54.73,54.73,0,0,0,13.26-2,52.45,52.45,0,0,0,9.18-3.58s-4,0-7.21.15a49.88,49.88,0,0,0-6,.36,17.18,17.18,0,0,1-7.21,2.06A4.33,4.33,0,0,1,113,23.09C111.37,24,110.71,23.7,110.71,24Z"/><path class="cls-1" d="M157.86,24.4l-.45-.55c-3.38,0-4.35,0-6.25-1.67-.46-.4-1.06-1.21-1.62-1.26s-5.8-1.66-5.8-1.66a98.07,98.07,0,0,1-17.6,7.06A49.83,49.83,0,0,1,116,27.88c-2.31.1-4.27-.25-5.25-.25-2.37,0-2.11,0-2.16.5l.65.56s-.2-.61.35-.61a40.08,40.08,0,0,0,9.79.05A49.89,49.89,0,0,0,133.3,24.4c4.84-2.06,4.54-1.86,5.2-1.76a46.82,46.82,0,0,0,11.6,1.91C153,24.55,157.86,24.4,157.86,24.4Z"/><path class="cls-1" d="M156.7,31.26l0-2.92s-5.11.45-7.63.45c-8,0-15.33-3.18-15.74-3.18s-.5,1.45-.7,1.45-.2-.34-.36-.69a3,3,0,0,1-.35-1c0-.3-.6-.4-.6-.4l6.3-2.57s-.4.5-.3.85.76.05.45.61-.86,1.86-1.11,1.76l-.25-.1s.81-1.81.45-2-.9.15-1,.55-.21,1.31-.51,1.21-.3-.35-.15-.66a.41.41,0,0,0-.2-.6c-.2-.1-.51.1-.61.3a2.47,2.47,0,0,1-.35.46s-.71-.16-.76,0,.1.3,1.92.85,7.87,2.68,13.51,2.68a43,43,0,0,0,8.73-.71l.55-1.46a3.21,3.21,0,0,1,.51,1.11c0,.7-1.06.35-1.06,1.26v2.77Z"/><path class="cls-1" d="M109.77,71.7a6.22,6.22,0,0,0,.76,0v.56A2.85,2.85,0,0,1,108,71.4c-.71-.76-1.77-3.59-2.51-5.82-.67-2-.67-1.43-2.66-1.59a3,3,0,0,1-2-.76,4,4,0,0,1-1-1.87,23,23,0,0,1-.6-3.06c-.08-1-.4-2.87-.48-3.63S98.3,53,98.54,53s5.5,2.55,5.5,2.83-2,1.27-2.55,1.67-1.79.8-1.79,1.59,1.07.88,1.07,1.83c0,.56-.39.64-.39.84a.45.45,0,0,0,.47.48c.16,0,.93-.55,2-1.08,1.61-.83,3.7-1.63,3.7-3a31.85,31.85,0,0,0-.8-4.26,29.89,29.89,0,0,1-.68-4.38l1.08.43c.36,4.07,2.83,10.08,3.35,11.51a6.22,6.22,0,0,0,1.91,2.95,5.74,5.74,0,0,1,1.39,1.83,2.44,2.44,0,0,1,.56,1.35c0,.15,0,.32,0,.48h-.65a1.17,1.17,0,0,0,.16-.79,10.85,10.85,0,0,0-1.23-1.92c-.28-.43-.6-.83-1-.91a4.19,4.19,0,0,1-1.15-.4,7.72,7.72,0,0,0-2.19-.28c-.64,0-2.08-.32-2.08.2s.2.76,1.32.76,3.34-.16,4.42,1.23a2,2,0,0,1-.8.8A19.24,19.24,0,0,1,107.78,68c-.32.08-.75.44-.75.76a10.07,10.07,0,0,0,.63,1.59c.12.36.48.88.88.88a10.44,10.44,0,0,0,2.35-1.48c.84-.55,1.63-.91,1.75-1.75s.65,0,.65,0a.86.86,0,0,1-.37.8c-.44.28-2.35,1.67-2.35,1.67s-1.27.76-1.27,1S109.77,71.7,109.77,71.7Z"/><path class="cls-1" d="M101.09,59.09c-.51,0,0,1.55.32,1.55C102,60.64,101.69,59.09,101.09,59.09Z"/><path class="cls-1" d="M101.81,58.49c-.49.14.52,1.4.76,1.32s0-.72-.12-1S102.09,58.41,101.81,58.49Z"/><path class="cls-1" d="M102.81,57.9c-.26.13-.08.36.07.67s.44.92.72.8.12-.76-.12-1.11S103,57.78,102.81,57.9Z"/><path class="cls-1" d="M103.72,57.5c-.28.13.53,1.6.76,1.51C104.88,58.85,104.24,57.26,103.72,57.5Z"/><path class="cls-1" d="M104.28,56.86c-.31.2.16.6.32.84s.47.95.71.95.36-.28.08-.67S104.6,56.66,104.28,56.86Z"/><path class="cls-1" d="M105.23,56.18c-.22.23.16.44.32.6s.24.6.48.48S105.55,55.87,105.23,56.18Z"/><path class="cls-1" d="M107.9,69c-.34.14.32,1.35.72,1.23S108.38,68.81,107.9,69Z"/><path class="cls-1" d="M108.74,68.05c-.25,0,.6,1.63.87,1.47s.24-.43,0-.71S109,68,108.74,68.05Z"/><path class="cls-1" d="M109.73,67.81c-.26.11.36,1.28.64,1.12S110.25,67.61,109.73,67.81Z"/><path class="cls-1" d="M111.45,68.73c-.2.09-.8-.88-.8-1.2s.08-.59.44-.31a.92.92,0,0,1,.36.75C111.49,68.17,111.6,68.65,111.45,68.73Z"/><path class="cls-1" d="M112.36,67.89c-.17.23-.28-.12-.52-.52s-.67-.91-.27-.91.47,0,.63.44S112.48,67.73,112.36,67.89Z"/><path class="cls-1" d="M109.25,28.69s0,5.12,0,9.22.12,9.24.19,10.47.28,1.59-.43,1.55a18.18,18.18,0,0,0-3.31,0l-.72-.47s1.8-.24,2.39-.24a12.6,12.6,0,0,1,1.48.24c.24,0,.28-.52.2-1.12s-.08-.88-.2-2.07-.32-4.62-.36-13c0-1.6,0-5,0-5l.4-.2Z"/><path class="cls-1" d="M156.7,31.26s.11,9.74-.09,14-.05,4.53-.05,4.53l1.89.34s1,.1,1,.55c.05,1.15-.1,2.09-1,4.78a51.68,51.68,0,0,1-4.13,10.45,2.13,2.13,0,0,0-.34,2c.29.7.29,1,.84,1.55s.65.54,1,.59.64.45.79.65.5.4.35.55a7.09,7.09,0,0,1-1.44.4l0,.69a3,3,0,0,0,2-.89c.65-.85,1-1.35,1.24-1.4s.4-1,0-.89-.79,1.19-1,1.09-.2-.4,0-.69.45-.45.25-.65-.5.3-.65.55a.71.71,0,0,0-.1.69c.1.2,0,.6-.3.35s-.6-.4-.3-.94.85-1,.6-1.3-.5.15-.6.45-.35,1-.59,1-.75-.34-.45-.64,1.09-1,.74-1.3-1.14,1.45-1.14,1.45-.45-.25-.35-.6,1-1.29.8-1.54-.5.1-.6.3-.35,1.09-.65.94-.15-.5.15-.9.55-.79.55-.79-.3-.1-.3-1.15S156.81,64,159.45,64c.75,0,1.2.1,1.2.6s-1,.45-1.4.45-3.48,0-3.48.64,3.28,1.84,3.28,2.84-.3,1-.3,1l-.3.64a3.37,3.37,0,0,0,1.05-1.54c.45-1.14,1-2.54,1.2-3.19a1.25,1.25,0,0,1,1.14-1c.65-.1,2.64-.25,3.33-1.2a7.08,7.08,0,0,0,1.35-3.83,18.28,18.28,0,0,1,.79-4.33c.4-1.09.65-1.34-.09-1.14A38.4,38.4,0,0,0,162.69,56c-.8.45-1,.56.2,1A7.56,7.56,0,0,1,166,59.31s.15.9-.3.8-.6.6-.65.89,0,1.15-.44,1-5.13-2.44-5.13-4.63c0-1.34.85-2.49.85-4s.2-3.39.2-3.39-2.1-.34-2.69-.34-.7-.3-.7-.3a9.18,9.18,0,0,0,1-.8,8.9,8.9,0,0,0,.64-.75l-.79-.24-.65,1.14a2.64,2.64,0,0,1-.25-1.19c0-.75.1-3.59.15-5.88s0-3.63.1-5.08,0-5.25,0-5.25l-.45-.72Z"/><path class="cls-1" d="M161.58,56.83s-1.08,1.08-1,1.28.16.44.49.16.88-.85.88-.85S162,56.78,161.58,56.83Z"/><path class="cls-1" d="M162.33,57.52c-.26,0-.44.33-.62.67s-.41.56-.28.69.41,0,.64-.28.54-.44.56-.62S162.63,57.44,162.33,57.52Z"/><path class="cls-1" d="M163.28,58c-.21,0-.36.08-.52.31s-.64.85-.38,1,.49-.18.64-.41a2.91,2.91,0,0,0,.46-.8C163.51,57.85,163.28,58,163.28,58Z"/><path class="cls-1" d="M164.12,58.91c-.15-.12-.43.07-.59.33s-.54.59-.25.77.3,0,.43-.28S164.36,59.09,164.12,58.91Z"/><path class="cls-1" d="M164.87,59.47c-.19-.15-.46.13-.62.39s-.36.64-.18.72.41-.18.62-.44S165.18,59.73,164.87,59.47Z"/><path class="cls-1" d="M168.49,47.43c-.18,0-.26.07-.23.51s.15,1.59.39,1.62.28-.7.28-1.08S169,47.43,168.49,47.43Z"/><path class="cls-1" d="M167.62,47.48c-.23,0-.39.38-.41.79s0,1.08.3,1.13.42-.46.42-.87S168,47.56,167.62,47.48Z"/><path class="cls-1" d="M166.44,46.84c-.26-.06-.42.1-.47.59s0,2.13,0,2.13.64-.1.64-.62.16-.72.16-1S166.92,46.94,166.44,46.84Z"/><path class="cls-1" d="M165.2,46.68c-.3-.06-.41.1-.41.59s0,1.06,0,1.39-.1.62.18.62.41-.18.46-.6S165.74,46.79,165.2,46.68Z"/><path class="cls-1" d="M164,46.68c-.31,0-.28.26-.36.75s-.28,1.74-.28,1.74.77-.05.87-.25S164.46,46.76,164,46.68Z"/><path class="cls-1" d="M162.46,46.58c-.31,0-.52.26-.54.64s-.21,1.9-.21,1.9.67.18.69-.18a4.7,4.7,0,0,1,.23-1C162.74,47.61,162.79,46.58,162.46,46.58Z"/><path class="cls-1" d="M161.17,46.71c-.21,0-.38.23-.59.59a6.69,6.69,0,0,0-.36,1.56s.67.24.8-.33S161.58,46.79,161.17,46.71Z"/><path class="cls-1" d="M160.14,46.76c-.12-.1-.51.51-.82.85a5.91,5.91,0,0,0-.67,1s.24.47.52.18.41-.82.64-1.05S160.35,47.09,160.14,46.76Z"/><path class="cls-1" d="M158,47.09v-.56s2.29-1.18,2.32-.9A4.4,4.4,0,0,1,158,47.09Z"/><path class="cls-1" d="M158.22,45.53l-.05-.42a5.14,5.14,0,0,1,1.46-.61c.41,0,.64.13.64.31s-.38.28-.56.3S158.22,45.53,158.22,45.53Z"/><path class="cls-1" d="M157.93,44l0,.29a2.08,2.08,0,0,1,.87-.21,1.92,1.92,0,0,0,1.39-.49c.28-.33-.1-.69-.41-.64A14.25,14.25,0,0,0,157.93,44Z"/><path class="cls-1" d="M158,43v-.34s1.44-.69,1.7-.89.87-.31.87-.13a1.35,1.35,0,0,1-.51.77Z"/><path class="cls-1" d="M157.7,41.7s.16,0,.88-.26,1.36-.43,1.51-.72.31-.31.31-.49-.54-.25-.69-.1S157.73,41.39,157.7,41.7Z"/><path class="cls-1" d="M157.91,40.23c-.18-.08,0-.33.28-.51A7.24,7.24,0,0,1,160,39c.31,0,.38.28.15.44A10.13,10.13,0,0,1,157.91,40.23Z"/><path class="cls-1" d="M158,38.8c0-.2.59-.54.87-.72a3,3,0,0,1,1.13-.49c.31,0,.52.36.18.56a10.52,10.52,0,0,1-1.95.78C158,38.93,158,39,158,38.8Z"/><path class="cls-1" d="M158,37.08c0,.15.41.2.77.05s1.31-.52,1.39-.85-.29-.28-.54-.26a2.44,2.44,0,0,0-.93.54C158.52,36.74,158.06,36.77,158,37.08Z"/><path class="cls-1" d="M158.11,35.3c-.18.13-.28.57.11.44s1.26-.54,1.54-.59.59-.75.2-.75A8.39,8.39,0,0,0,158.11,35.3Z"/><path class="cls-1" d="M158.09,34.51c-.16.13-.33-.13-.08-.39A4.67,4.67,0,0,1,159.89,33c.51,0,.38.7.1.7A6.33,6.33,0,0,0,158.09,34.51Z"/><path class="cls-1" d="M157.93,33.12a.5.5,0,0,1,.16-.69c.41-.31,1.54-1.24,1.54-1.24s.67-.12.72.13A.69.69,0,0,1,160,32,8.19,8.19,0,0,0,157.93,33.12Z"/><path class="cls-1" d="M157.86,31.37a.49.49,0,0,1,.1-.59,10.44,10.44,0,0,1,1.34-1.13.36.36,0,0,1,.51.36c0,.26-.28.36-.49.41A6.45,6.45,0,0,0,157.86,31.37Z"/><path class="cls-1" d="M157.76,29.58c-.17-.17.25-.62.46-.9a.83.83,0,0,1,.59-.39c.18,0,.28.21.23.44s-.31.41-.52.54S157.88,29.71,157.76,29.58Z"/><path class="cls-1" d="M96.51,49.75a.9.9,0,0,0,.41-.77c.07-.61.23-1.73-.19-1.73S96.32,48.11,96.51,49.75Z"/><polygon class="cls-1" points="97.95 49.49 97.92 46.93 98.56 46.89 98.59 49.07 97.95 49.49"/><path class="cls-1" d="M99.39,49.17,100,49V47.18s0-.64-.29-.61-.38.32-.38.8S99.39,49.17,99.39,49.17Z"/><path class="cls-1" d="M100.93,49.17s-.06-.8-.06-1.44-.07-1.32.25-1.38.52.45.45.74a2.16,2.16,0,0,0-.16,1C101.48,48.5,101.64,49.14,100.93,49.17Z"/><path class="cls-1" d="M102.31,49a.63.63,0,0,0,.45-.58V46.28h-.58Z"/><path class="cls-1" d="M103.94,48.66c-.38,0-.35-.36-.38-1s-.22-1.12-.1-1.41.61,0,.68.33S104.17,48.66,103.94,48.66Z"/><path class="cls-1" d="M105.19,48.53c-.22,0-.38-.23-.38-.77s-.13-1.22.1-1.41.54.13.6.35S105.64,48.53,105.19,48.53Z"/><path class="cls-1" d="M106.12,46.61c-.26.08,0,.57.1,1s.19,1.09.42,1.09c.48,0,.16-.42.38-.58s1.19.87,1.35.58-.23-.51-.58-.8S106.51,46.48,106.12,46.61Z"/><path class="cls-1" d="M105.87,45.52c-.05.23.06.35.57.64l1.83,1v-.74S106,45.07,105.87,45.52Z"/><path class="cls-1" d="M106,44.3c0,.48.39.57.87.64a11.51,11.51,0,0,1,1.41.35V45a9.06,9.06,0,0,0-1.92-.93C105.93,44.07,106,44.17,106,44.3Z"/><path class="cls-1" d="M106.57,42.37c-.32,0-.38,0-.41.26s0,.48.54.67,1.51.45,1.51.45v-.48A6.14,6.14,0,0,0,106.57,42.37Z"/><path class="cls-1" d="M106.41,40.77a.37.37,0,0,0-.09.74c.51.13,1.6.57,1.89.57V41.6A16.25,16.25,0,0,0,106.41,40.77Z"/><path class="cls-1" d="M105.68,39.71l.51-.83s1.92.93,1.89,1.15-.29.2-.29.2Z"/><path class="cls-1" d="M106,37.4c0,.33.06.61.77.84l1.21.38v-.51s-1.09-.87-1.47-.87S106,37.4,106,37.4Z"/><path class="cls-1" d="M106.28,35.35c-.22.07-.32.58,0,.87a2.05,2.05,0,0,0,1.12.42,4.21,4.21,0,0,0,.55.06v-.48s-1-.42-1.25-.55A1.38,1.38,0,0,1,106.28,35.35Z"/><path class="cls-1" d="M106.38,33.81c-.28-.07-.42.52-.1.81a5,5,0,0,0,1.7.61c.2,0,0-.26-.29-.52A9.13,9.13,0,0,0,106.38,33.81Z"/><path class="cls-1" d="M106.35,32.31c-.33-.06-.35.38,0,.7a6.37,6.37,0,0,0,1.57.74l.06-.58A8.49,8.49,0,0,0,106.35,32.31Z"/><path class="cls-1" d="M106.16,30.77c0,.3.48.48.83.74a3,3,0,0,0,1,.35l0-.35a6.48,6.48,0,0,0-1.38-1C106.32,30.48,106.16,30.58,106.16,30.77Z"/><path class="cls-1" d="M106.54,29.17c0,.32.06.38.45.61s.77.41,1,.22-.13-.67-.32-.7S106.54,28.85,106.54,29.17Z"/><path class="cls-1" d="M109.73,25.11c-.63,0-.22,1.87,0,1.87S110.55,25.11,109.73,25.11Z"/><path class="cls-1" d="M110.79,24.9c-.26,0-.36.16-.31.5s.21,1.62.49,1.66a.38.38,0,0,0,.36-.59,1.65,1.65,0,0,1-.07-1C111.33,25.18,111,24.9,110.79,24.9Z"/><path class="cls-1" d="M111.85,25c-.18,0-.33,0-.25.49s.31,1.6.51,1.64.29-.93.29-1.39S112.16,25,111.85,25Z"/><path class="cls-1" d="M113,25c-.21,0-.25.35-.25.7s-.13,1.47.26,1.55.3-.45.3-.94S113.4,25.05,113,25Z"/><path class="cls-1" d="M113.74,24.85c-.21,0-.24.38-.14.79s.27,1.79.48,1.83.25-.27.25-.79-.07-1-.06-1.19S114,24.85,113.74,24.85Z"/><path class="cls-1" d="M115.16,24.83c-.33,0-.37.23-.38.63s.38,1.85.59,1.87.25-.45.24-1S115.78,24.83,115.16,24.83Z"/><path class="cls-1" d="M116.12,24.74c-.23,0-.31.31-.23.83a4.48,4.48,0,0,0,.63,1.59c.1,0,.3-.21.2-.85S116.66,24.74,116.12,24.74Z"/><path class="cls-1" d="M117.69,24.54c-.37,0-.48.21-.48.58a7.13,7.13,0,0,0,.77,2.19c.14,0,.36-.18.36-.69a6.39,6.39,0,0,0-.12-1.6C118.11,24.71,117.91,24.54,117.69,24.54Z"/><path class="cls-1" d="M119.1,24.5c-.3,0-.46.07-.29.62s.48,1.95.82,1.95.2-.37.05-.9C119.36,25,119.84,24.5,119.1,24.5Z"/><path class="cls-1" d="M120.67,24.28c-.82,0-.2,2.61.14,2.61S121.53,24.28,120.67,24.28Z"/><path class="cls-1" d="M121.82,23.93c-.59.18.38,2.68.72,2.62S122.89,23.59,121.82,23.93Z"/><path class="cls-1" d="M123.2,23.87c-.2,0-.32.34-.11.76s.62,1.81.87,1.8.17-.85.11-1.31-.21-1.22-.43-1.28A.75.75,0,0,0,123.2,23.87Z"/><path class="cls-1" d="M124.75,23.36c-.27,0-.4.33-.26.75s.51,1.21.57,1.47.3.73.4.31a7.84,7.84,0,0,0,0-1.53C125.44,23.93,125.18,23.31,124.75,23.36Z"/><path class="cls-1" d="M126.1,23c-.36,0-.29.26-.12.75s.43,1.06.54,1.38.15.78.38.61.2-.57.12-1.13S126.63,23,126.1,23Z"/><path class="cls-1" d="M127.5,22.63c-.38.07-.29.41-.21.92a2.49,2.49,0,0,0,.51,1.15c.22.31.25.52.47.31s.24-.47.06-1.08S128,22.53,127.5,22.63Z"/><path class="cls-1" d="M128.75,22.28c-.28,0-.29.37-.11.82s.52,1.5.79,1.42.35-.37.19-.85S129.43,22.2,128.75,22.28Z"/><path class="cls-1" d="M130.07,21.72c-.32,0-.22.34,0,1s.66,1.62.83,1.56.15-.35,0-1S130.83,21.66,130.07,21.72Z"/><path class="cls-1" d="M131.31,21.39c-.37.08.51,2.45.87,2.32S131.83,21.28,131.31,21.39Z"/><path class="cls-1" d="M132.36,20.93c-.37.22-.07.72.24,1.15s.7,1.33.92,1.18.21-.63-.06-1.06S132.7,20.73,132.36,20.93Z"/><path class="cls-1" d="M133.69,20.59c-.27.23-.23.28.1.89s.53,1.45.82,1.36.26-.67,0-1.22S134,20.3,133.69,20.59Z"/><path class="cls-1" d="M141.14,18.93c-.27,0-.42.5-.08.58s.42.1.68-.08.47-.17.44-.41-.23-.23-.41-.17A2.18,2.18,0,0,1,141.14,18.93Z"/><path class="cls-1" d="M139.41,18.47c-.2,0-.07.14.11.56s.07.47.37.82.39.56.56.53.2-.22.08-.63-.32-1-.32-1A5.8,5.8,0,0,0,139.41,18.47Z"/><path class="cls-1" d="M138.1,18.41c-.12.12.21.27.33.78s.5,1.53.71,1.59.09-.43,0-.92a2,2,0,0,0-.29-1.12C138.69,18.51,138.21,18.3,138.1,18.41Z"/><path class="cls-1" d="M137.22,18.55c-.2,0-.19.47-.19.71a1.65,1.65,0,0,0,.37.84c.21.3.56,1.24.8,1.24s.17-.34,0-.78a4.87,4.87,0,0,0-.4-1.32C137.61,18.93,137.4,18.55,137.22,18.55Z"/><path class="cls-1" d="M136,19.54c-.22,0-.34.2-.11.6s.72,1.06.87,1.28.27.37.38.34,0-.32-.08-.79S136.61,19.58,136,19.54Z"/><path class="cls-1" d="M134.9,20c-.24,0-.37.23-.29.48s.38.59.54.93.38.74.58.73.33-.42.09-.87S135.33,20.06,134.9,20Z"/><path class="cls-1" d="M139,24.08c-.3-.09-.4,0-.59.39a5.63,5.63,0,0,0-.38,1.11c-.05.29-.11.62.1.65s.37-.18.58-.66a4.48,4.48,0,0,1,.41-.9C139.21,24.53,139.38,24.21,139,24.08Z"/><path class="cls-1" d="M139.54,26.69c-.24,0-.1-.63,0-.92a4.13,4.13,0,0,1,.56-1.27c.17-.14.62,0,.59.33a2,2,0,0,1-.34.81C140.2,25.87,139.76,26.69,139.54,26.69Z"/><path class="cls-1" d="M141.22,26.82c-.24,0-.16-.29-.14-.77a2.09,2.09,0,0,1,.27-1.08c.16-.17.65-.16.62.09a7,7,0,0,1-.31,1C141.57,26.26,141.46,26.85,141.22,26.82Z"/><path class="cls-1" d="M142.35,27.23c-.16,0-.12-.35,0-.83a3.54,3.54,0,0,1,.17-1c.14-.31.32-.42.51-.43s.5,0,.37.29a4.89,4.89,0,0,0-.39,1C143,26.44,142.66,27.26,142.35,27.23Z"/><path class="cls-1" d="M143.87,27.38c-.37-.05-.09-.46-.09-.84a4.59,4.59,0,0,1,.4-1.15c.08-.31.19-.34.38-.27s.42.14.29.48a9.05,9.05,0,0,0-.45,1C144.35,26.88,144.08,27.41,143.87,27.38Z"/><path class="cls-1" d="M145.13,27.55c-.14,0-.18-.45-.07-.83a5.51,5.51,0,0,0,.24-1,.42.42,0,0,1,.46-.39c.17,0,.29.15.22.5a3.67,3.67,0,0,1-.38,1.13C145.4,27.2,145.3,27.58,145.13,27.55Z"/><path class="cls-1" d="M146.52,27.69c-.18,0-.19-.32-.21-.78s.18-.9.18-1.19.16-.16.32-.19.53-.16.42.29a5.55,5.55,0,0,0-.23,1C147,27,146.75,27.66,146.52,27.69Z"/><path class="cls-1" d="M147.75,27.71c-.27,0-.28-.45-.22-.95a3.37,3.37,0,0,1,.3-1.15c.13-.18.89-.25.75.13a10.34,10.34,0,0,0-.44,1.26C148.14,27.13,148,27.71,147.75,27.71Z"/><path class="cls-1" d="M148.87,28c-.25,0,0-1.12.1-1.63a1.78,1.78,0,0,1,.39-.87c.13-.1.75.14.72.36s-.38.71-.41,1.09S149.11,28,148.87,28Z"/><path class="cls-1" d="M156.45,27.54c-.18,0-.18-.23-.18-.78a13,13,0,0,1,.12-1.3c0-.2.27-.27.44-.28s.5,0,.49.33-.42.65-.41.88a1.46,1.46,0,0,1-.14.77C156.66,27.3,156.56,27.54,156.45,27.54Z"/><path class="cls-1" d="M155.32,25.36c-.25,0-.39.25-.43.43a3.1,3.1,0,0,0-.1,1c0,.48-.11,1,0,1s.34-.13.48-.7.39-.95.44-1.21A.45.45,0,0,0,155.32,25.36Z"/><path class="cls-1" d="M153.85,25.58c-.4,0-.4,0-.51.52s-.27.57-.18,1a7.76,7.76,0,0,1,.08,1.12l.37.06a1.45,1.45,0,0,1,0-.79,13.23,13.23,0,0,0,.48-1.26C154.31,25.74,154.1,25.58,153.85,25.58Z"/><path class="cls-1" d="M152.62,25.61c-.33,0-.44.09-.47.41a2.46,2.46,0,0,1-.24.9.91.91,0,0,0-.13.73c.07.27.1.37.37.06a6.36,6.36,0,0,0,.56-1.1,1.26,1.26,0,0,0,.17-.73C152.88,25.56,152.62,25.61,152.62,25.61Z"/><path class="cls-1" d="M151.12,25.63c-.31,0-.39-.06-.44.31s-.14.85-.16,1.09-.09,1.41-.09,1.41l.35,0a1.05,1.05,0,0,1,.16-.8,2.31,2.31,0,0,0,.55-1.2C151.49,26.06,151.61,25.65,151.12,25.63Z"/><path class="cls-1" d="M110.42,71.78a19.69,19.69,0,0,1,6.07.35c2.75.7,10.62,4.06,17.85,4.06s11.78-4.26,18.7-4.26a17.48,17.48,0,0,0,2.48-.27l.28.17-.23.52a40.28,40.28,0,0,0-8.15,1.19c-5.56,1.6-6.92,3.26-13.28,3.26-9.28,0-15.85-4.52-21.11-4.52-1.06,0-2.5,0-2.5,0l-.41-.23Z"/><path class="cls-1" d="M110.44,29c-.37,0,.07,1.91.07,1.91s.82-.79.82-1.33C111.33,29.22,110.65,29,110.44,29Z"/><path class="cls-1" d="M116.88,29.43c-.85,0-.31,1.36-.14,1.36S117.73,29.43,116.88,29.43Z"/><path class="cls-1" d="M122.5,28.71c-.32.21-.14,1.47.1,1.47a1.91,1.91,0,0,0,1-1.09A.67.67,0,0,0,122.5,28.71Z"/><path class="cls-1" d="M119.09,33a.78.78,0,0,0-.85.79c0,1,.37,1.09.37,1.09s.28-.89.51-1S119.46,33,119.09,33Z"/><path class="cls-1" d="M113.4,32.49c-.61,0-.68.27-.68,1a1.78,1.78,0,0,0,.45,1.4c.27.23,0-.62.27-1s.58-.65.58-1S113.71,32.49,113.4,32.49Z"/><path class="cls-1" d="M110.72,36.92a.7.7,0,0,0-.72.78c0,.44.48,1.06.51,1.23s0,.47.17.51.27-.44.21-.72a1,1,0,0,1,.13-.85c.17-.2.44-.75.17-.82A4.59,4.59,0,0,1,110.72,36.92Z"/><path class="cls-1" d="M112.76,45.06c-.38,0-.31.88-.31,1.12a14.32,14.32,0,0,0,.41,1.57,11.89,11.89,0,0,0,.68-1.5c.21-.62.31-1.54-.14-1.5S113.17,45,112.76,45.06Z"/><path class="cls-1" d="M108,50.23c-.31,0-.34.14-.31.51s.51,1.4.75,1.43.24-.61.24-1.12-.1-.79-.27-.79A4.11,4.11,0,0,1,108,50.23Z"/><path class="cls-1" d="M110.14,56.56c-.48,0-.65.17-.52.72a6.51,6.51,0,0,1,.38,1.26c0,.37,0,.81.41.81s.24-.57.24-.91.27-.69.27-1.09A.76.76,0,0,0,110.14,56.56Z"/><path class="cls-1" d="M116.06,57.11c-.39,0-.48.37-.31,1a6.54,6.54,0,0,0,.65,1.33s.17-1.12.2-1.5S116.77,57.11,116.06,57.11Z"/><path class="cls-1" d="M121.54,55.13c-.35,0-.13.68-.07,1.26s.07,1.53.28,1.5.2-.24.27-.61.71-.65.71-1-.13-1-.37-.92-.21.24-.44.13S121.88,55.13,121.54,55.13Z"/><path class="cls-1" d="M123,61.74c-.41,0-.45.2-.45.65s-.13,1.49.34,1.56.28-.71.55-1a1,1,0,0,0,.31-.85C123.76,61.77,123.28,61.7,123,61.74Z"/><path class="cls-1" d="M116.81,69.36c-.38,0-.24.38-.1.72a1,1,0,0,0,1.19.71,1.09,1.09,0,0,1-.34-.74C117.56,69.6,117.49,69.3,116.81,69.36Z"/><path class="cls-1" d="M121.34,69.64c-.41.06.68,1.09.68,1.09s.51.27.51-.31,0-1-.24-1-.17.27-.44.27S121.75,69.57,121.34,69.64Z"/><path class="cls-1" d="M126,71.75c-.68.71,1.63,1.63,1.63,1.63S126.75,70.93,126,71.75Z"/><path class="cls-1" d="M132.33,71.51c-.47.08-.4.48-.54.78s.1.89.24,1.33.3.89.3.89l.45-2C132.88,72.09,132.74,71.44,132.33,71.51Z"/><path class="cls-1" d="M137,73.45a2.39,2.39,0,0,1,.17-1.22c.27-.62.85-.79,1.05-.55s-.17,1-.51,1.09S137,73.45,137,73.45Z"/><path class="cls-1" d="M144.05,69.19c-.45,0-.62,0-.65.65a2.1,2.1,0,0,0,.37,1.3c.17.27.34-.55.52-1S144.52,69.23,144.05,69.19Z"/><path class="cls-1" d="M149.32,68.89c-.33-.24-.47,0-.78.3s-.58,1.3-.31,1.57.48-.07.58-.41a1.4,1.4,0,0,1,.51-.92C149.66,69.23,149.66,69.13,149.32,68.89Z"/><path class="cls-1" d="M151.33,63.3a3.76,3.76,0,0,1-.65-1.49c0-.65.89-1,.89-.38A15.22,15.22,0,0,1,151.33,63.3Z"/><path class="cls-1" d="M153.72,61.53a1.26,1.26,0,0,1-.07-.85,4.48,4.48,0,0,0,.13-1.33,1.28,1.28,0,0,1,.38-1c.17-.17.78-.48.88.1a1.67,1.67,0,0,1-.34,1.36C154.43,60.27,153.72,61.53,153.72,61.53Z"/><path class="cls-1" d="M152.12,57.55a1.61,1.61,0,0,0,.51-1.12c0-.68.23-1.16-.14-1.37s-.72-.37-.78.07A5.24,5.24,0,0,0,152.12,57.55Z"/><path class="cls-1" d="M152.66,49.52a14.11,14.11,0,0,0-.17-1.54c-.1-.41-.2-.3-.2-.78s.81-.61.78-.07A8.79,8.79,0,0,1,152.66,49.52Z"/><path class="cls-1" d="M156.17,51.73c-.38-.21.2,2.38.2,2.38a7.11,7.11,0,0,1,.58-1,1.11,1.11,0,0,0,.24-.92c0-.31-.1-.58-.31-.38S156.47,51.9,156.17,51.73Z"/><path class="cls-1" d="M142.79,31s.2,0,.34-.54.23-.54.27-.85-.68-.58-1-.44-.14.47,0,.75Z"/><path class="cls-1" d="M148.64,32.08s0-.95,0-1.29a.9.9,0,0,1,.38-1c.41-.2.71.21.54.58S148.64,32.08,148.64,32.08Z"/><path class="cls-1" d="M155,31.51a5.48,5.48,0,0,1-.44-1.26c0-.41,1.22-.45,1.15.1A2.53,2.53,0,0,1,155,31.51Z"/><path class="cls-1" d="M147.28,34c-.51-.05-.65.41-.54.95a2.59,2.59,0,0,0,.4,1,2.87,2.87,0,0,0,.69-1.09A.61.61,0,0,0,147.28,34Z"/><path class="cls-1" d="M152,33c-.64,0-.68.48-.47.92a3.89,3.89,0,0,0,.81,1,5.72,5.72,0,0,0,.17-1.06C152.56,33.31,152.56,33,152,33Z"/><path class="cls-1" d="M154.46,37.84c-.41,0-.17.54,0,1a1.74,1.74,0,0,1,.07,1.16c-.1.41-.2,1-.2,1a4,4,0,0,0,.92-1.12c.27-.58.44-.82.37-1.33s-.24-.78-.47-.65S154.6,37.84,154.46,37.84Z"/><path class="cls-1" d="M121.88,33.81a2.08,2.08,0,0,0-.07,1,2,2,0,0,1-.36,1.6.82.82,0,0,1-1.17.33c-.51-.26-.51-.8-.25-1.31A9.6,9.6,0,0,1,121.88,33.81Z"/><path class="cls-1" d="M122.43,33.59a1.37,1.37,0,0,0-.11.84,2,2,0,0,1,0,1.31,1.4,1.4,0,0,0,1.12-.66c.18-.33.51-.83.51-.83a5.45,5.45,0,0,0,0-1.09,4.7,4.7,0,0,1,0-.95A9.18,9.18,0,0,0,122.43,33.59Z"/><path class="cls-1" d="M124.35,34a5.16,5.16,0,0,0,.26-1.27c0-.51,0-1,.25-1.27a10.37,10.37,0,0,1,1.45-.91,2.63,2.63,0,0,0-.18,1.12A1.87,1.87,0,0,1,126,33,5.69,5.69,0,0,1,124.35,34Z"/><path class="cls-1" d="M126.71,32.32a3,3,0,0,0,.22-1.09c0-.43-.07-.83.29-1.12a17.6,17.6,0,0,1,1.93-1.06,2.47,2.47,0,0,0-.37,1.24c.08.51-.11,1.2-.43,1.3A8.35,8.35,0,0,1,126.71,32.32Z"/><path class="cls-1" d="M129.47,30.83a4.67,4.67,0,0,0,.11-1,1.62,1.62,0,0,1,.51-1.16c.33-.25,2.18-1.27,2.18-1.27s.15,1.24-.18,1.67-.84,1.06-1.24,1.13A7,7,0,0,0,129.47,30.83Z"/><path class="cls-1" d="M133.07,27.35a1.27,1.27,0,0,1,.18.9,1,1,0,0,0,.62,1.42c.87.44,2.11,1,2.11,1a2.79,2.79,0,0,1-.11-1,1.19,1.19,0,0,0-.51-1.09C135,28.33,133.07,27.35,133.07,27.35Z"/><path class="cls-1" d="M136.41,29.09a.89.89,0,0,1,.15.65c-.08.37-.33,1.09.14,1.38s2,1.13,2,1.13a3.08,3.08,0,0,1-.26-1.27,1.29,1.29,0,0,0-.58-1.38A5.11,5.11,0,0,0,136.41,29.09Z"/><path class="cls-1" d="M139,30.65s1.87,1,2.11,1.6c.4,1-.33.87.14,2.14,0,0-1.38-1-1.63-1.23a1.18,1.18,0,0,1-.4-1.24A1.94,1.94,0,0,0,139,30.65Z"/><path class="cls-1" d="M141.79,32.76a2.58,2.58,0,0,1,.07,1c-.07.59-.18.91.22,1.35s1.31,1.31,1.31,1.31a2.2,2.2,0,0,0,.18-1.17,5.67,5.67,0,0,1-.11-1A7.28,7.28,0,0,0,141.79,32.76Z"/><path class="cls-1" d="M144.26,34.83c-.08.47-.19.65-.08.91a3.23,3.23,0,0,1,.08.94s.76.22,1,.07.4,0,.32-.47A2.61,2.61,0,0,0,144.26,34.83Z"/><path class="cls-1" d="M151.08,67.41H132.6v1.23h18.48a.61.61,0,0,0,.61-.61A.61.61,0,0,0,151.08,67.41Z"/><path class="cls-1" d="M141.18,69.77H132.6V71h8.58a.62.62,0,0,0,0-1.23Z"/><path class="cls-1" d="M116.31,67.41H132.6v1.23H116.31a.61.61,0,0,1-.62-.61A.62.62,0,0,1,116.31,67.41Z"/><path class="cls-1" d="M132.6,71h-6.75a.62.62,0,1,1,0-1.23h6.75"/><path class="cls-1" d="M134.51,65.15a1.64,1.64,0,1,1-1.64-1.64A1.64,1.64,0,0,1,134.51,65.15Z"/><path class="cls-1" d="M142.82,67l3.79-.15s.62.05.62-.41-1.59-1.23-2-1.23a6.18,6.18,0,0,0-1.8.82C142.87,66.28,141.43,67,142.82,67Z"/><path class="cls-1" d="M146.15,63.41c-1.17,1-1.84,1.64-2.51,1.74a4.38,4.38,0,0,0-1.79.88,4.05,4.05,0,0,1-1.85.82.77.77,0,0,1-.82-.87c0-.57,1-1.9,1.59-2.93a11.26,11.26,0,0,0,1.64-4c.36-1.9.72-5.28,1.49-6.82s2.41-4,2.41-4V47h3.74a28,28,0,0,1,1.44,4.82,21.63,21.63,0,0,1-1,4.41,14.23,14.23,0,0,0-.72,3.59,17.78,17.78,0,0,1-.31,1.95c0,.56.72,4,.72,4s1,.36,1,.72-.67.46-1,.46-1.23.2-1.23-.72-.61-5.33-.61-6.36a3.19,3.19,0,0,0-.26-1.74,1.27,1.27,0,0,1,.26-1.23,3.22,3.22,0,0,0,.51-1.69c0-.72,0-3.08-.46-3.08S147.9,55,147.9,55s-.57,1-.77,1.49,0,.64-.41,1.23c-.93,1.28-3.08,2.92-3.08,3.49,0,.25,2.62-.93,3-.93s.61.72.61,1.18A4.66,4.66,0,0,1,146.15,63.41Z"/><path class="cls-1" d="M144.67,41.67c.05-.26.25-.26.46-.26s.61.1.77-.15a15.92,15.92,0,0,0-.26,1.79c0,.46-.15.87-.62,1a2.46,2.46,0,0,0-.82.36,5.56,5.56,0,0,1,.21-1.49A8.25,8.25,0,0,0,144.67,41.67Z"/><path class="cls-1" d="M145.28,44.69a3.23,3.23,0,0,1-.15,1.18c-.21.57-.62,1.34-.67,1.64s-.26.52-.61.36-.77.31-.77.31a19,19,0,0,1,.56-1.9c.26-.61.26-1.07.56-1.18S145,45.21,145.28,44.69Z"/><path class="cls-1" d="M146.46,44.69l-.05,1.39a13.89,13.89,0,0,0,2.26.05,18.94,18.94,0,0,0,2.46-.36c.3-.15.51-1-.26-1.08S146.46,44.69,146.46,44.69Z"/><path class="cls-1" d="M143.28,37.26c0-.22,1.33.05,1.85.15a2.52,2.52,0,0,0,1.38,0,1.7,1.7,0,0,1,1.34-.1,7.12,7.12,0,0,1,2,1.33,1.76,1.76,0,0,0,.92.92,1.34,1.34,0,0,1,1.13,1.29c.15,1,.25,2.92-.11,2.92-.77,0-.82-3.13-1.89-3.13-.83,0-.36.51-.21,1.28a6.86,6.86,0,0,1,0,1.9l-2.61.1a9.43,9.43,0,0,1-.21-1.74,1.18,1.18,0,0,0-.36-1.08c-.31-.31,0-1.69,0-1.69a.52.52,0,0,0,.57-.1.55.55,0,0,0-.16-.82c-.31-.21-.87-.26-1,0s0,1,1.33,1.07L147,41.87A4.6,4.6,0,0,0,146,40.8a10.49,10.49,0,0,0-1.75-1.24.92.92,0,0,1-.82-.71c-.1-.46.05-.46.26-.52s.67.42.92.36.11-.51-.2-.61-.77,0-.93-.26A.58.58,0,0,1,143.28,37.26Z"/><path class="cls-1" d="M119.9,40.85s.41.15.77.25.56.36.66,1,.62,1.18.21,1.33a.9.9,0,0,1-1.18-.36A2.7,2.7,0,0,1,119.9,40.85Z"/><path class="cls-1" d="M120.72,44.18a1.25,1.25,0,0,0,.82.31c.41-.05.61.31.72.77s.25,2.05.25,2.05a2.61,2.61,0,0,1-1-.62,3.61,3.61,0,0,0-.67-.61S120.31,44.75,120.72,44.18Z"/><path class="cls-1" d="M119.69,44.08s-1,.1-1.74.1-3.54-.1-3.54-.1l0-.87s-.36-.52.41-.57,2,.16,2.36.16l2.56.05Z"/><path class="cls-1" d="M115.74,44.85a21.69,21.69,0,0,1-.3,2.15,13.09,13.09,0,0,0-.47,3,4.08,4.08,0,0,0,1.39,2.92s.1.92-.36,1.28-2,1.23-2.21,2a13.29,13.29,0,0,0,0,2.82,6.13,6.13,0,0,0,.47,2.46c.36.46.77.82,1.12.82s.57-.41.57-.77-.82-1-.82-1-.21-1.85-.21-2.51a2.23,2.23,0,0,1,2-2.42c1,0,1.32,1.79,1.64,3.54.51,2.81.87,6.11.87,6.11s-1.33,1.38-.92,1.53a1.67,1.67,0,0,0,1.49.06c.56-.31.51-1.18.51-1.65a13.34,13.34,0,0,1-.1-1.94,7.57,7.57,0,0,0-.16-2.11,6.11,6.11,0,0,1,.21-2.05c.15-.66.56-2.2.31-2.56A24.93,24.93,0,0,1,119.08,52c-.11-.83-.16-2.11-.16-2.11s0-.46.41-.46.57,1.28.67,1.8.67,2.56.82,2.92.67.36,1.54.46,2.56.36,2.56.36a3.12,3.12,0,0,0-.15-1.59,25.21,25.21,0,0,1-.92-3.18l-2.62-2.1A13.12,13.12,0,0,1,119,44.8,25.68,25.68,0,0,1,115.74,44.85Z"/><path class="cls-1" d="M116,41.62c-.27-.1,0-1.23,0-1.59s-.16-1-.51-1.08-.72-.1-1,.46-.72,2-1.74,2.21l.72-3a1.11,1.11,0,0,1,.92-1,8.18,8.18,0,0,0,2.46-.41,5.1,5.1,0,0,1,1.74-.52c.52-.05,1.34,1,2.16,1s1.69-.21,1.69.51-1,.72-1,.72a1,1,0,0,0,.81.16s0,.66-.66.66H120.2l-1.07-1.13s.56.06.56-.36-1.54-1-1.54-.41.46.88,1.7.67l.77,1a2.07,2.07,0,0,1-1.59.72s-.11.57-.31.67.1.51-.21.67A2.85,2.85,0,0,1,116,41.62Z"/><path class="cls-1" d="M132.6,43.92a18,18,0,0,0-8.08,1.76,2.13,2.13,0,0,1-.31-1.2,25.42,25.42,0,0,1,8.39-1.91v-.45s-.57.05-.57-.76.53-.7.53-1.66c0-.27.07-.5-1-.5a4,4,0,0,0-1.78.18,3.2,3.2,0,0,1-1.08.4c-.28,0-.63-.51-.63-1a.7.7,0,0,1,.73-.73c.3,0,.5.43,1.73.43.8,0,1.89-.1,1.89-.1a4,4,0,0,0-.08-.83c-.08-.26,0-.48-.25-.58a.71.71,0,0,1-.58-.81c0-.65.57-.62,1-.62V33.12a11.6,11.6,0,0,0-7.76,3.57A8.35,8.35,0,0,0,123,42.37a15,15,0,0,0,.86,4.4,45.25,45.25,0,0,1,2,7.23,39.71,39.71,0,0,1,.45,5.36,4,4,0,0,0,.76,2.86,3.12,3.12,0,0,0,2.74,1.28,17.05,17.05,0,0,0,3.49-.9l-.2-5.05c-.41,0-.41-.6-.41-1.15a5,5,0,0,0-.32-1.64,5.35,5.35,0,0,0-.58-1.28c-.18-.13-.48-.21-.48-.48s.37-.32,1.38-.32V47.3l-1,0a11,11,0,0,0-.68,1.3c-.15.43-.56,1.82-.58,2s0,.45-.18.45-.15-.35-.32-.83-.83-1.89-1-2.31-.68-1.24-.5-1.44.55-.1.75.08.28.17,1,.17a2,2,0,0,0,1.13-.2c.27-.15.68-.3.68.05a5.76,5.76,0,0,1-.41,1.19l1.18.81V43.92Z"/><path class="cls-1" d="M131.52,33.85s.61-.73,1.08-.73a10.94,10.94,0,0,1,7.07,2.26,8.52,8.52,0,0,1,3.39,6.41A21,21,0,0,1,142,48.42a31.88,31.88,0,0,0-1.63,7.27c-.08,2.13.05,4.92-.86,6.11a3.65,3.65,0,0,1-3.16,1.66,6.18,6.18,0,0,1-3.37-1l-.15-4.93c.6,0,.47-.19.6-.71.18-.7.43-2.08.53-2.51a1.55,1.55,0,0,1,.43-.93,1,1,0,0,0,.45-.55c.07-.25-.38-.23-.66-.18a9.92,9.92,0,0,1-1.56,0c-.45,0-.3-3.7-.3-3.7l3.2.05c.4,1.15.25,1.91.63,1.93s.3-.83.6-1.63a9.74,9.74,0,0,1,1.08-2.14c.28-.32.25-.93-.2-.9s-.91.48-1.43.48-1.16-.28-1.54-.28-.43.17-.1.6a4.14,4.14,0,0,1,1,2.54l-3.44-.15,0-5.3.5-.26a24.67,24.67,0,0,1,4,.18,14.7,14.7,0,0,1,4.75,1.38s.33-.35.07-1.25a16.23,16.23,0,0,0-5.5-1.54,32.67,32.67,0,0,0-3.35-.12l-.62-.1.62-.35a.94.94,0,0,0,.41.05c.33,0,.93-.26.93-.76s-.71-.78-.71-1.51.16-.78,1-.78,2,0,2,0c.35,0,.53.33,1,.33s.83-.08.83-.73a.86.86,0,0,0-1-1c-.63,0-.45.43-1.11.43a13.27,13.27,0,0,0-2.21.13c-.42.1-.42,0-.45-.31s-.25-.83-.05-1a1.4,1.4,0,0,0,.48-.93c0-.4-.46-.57-1.14-.57S131.52,33.85,131.52,33.85Z"/><path class="cls-1" d="M30.61,41v2.87h1.33a.93.93,0,0,0,.67-.21,1.35,1.35,0,0,0,.28-.79h.2v2.46h-.2a1.37,1.37,0,0,0-.11-.62.76.76,0,0,0-.29-.3,1.15,1.15,0,0,0-.55-.1H30.61v2.29a2.3,2.3,0,0,0,.07.73.47.47,0,0,0,.23.23,1,1,0,0,0,.49.13h.26v.2H28.54v-.2h.26a.76.76,0,0,0,.65-.26,1.61,1.61,0,0,0,.13-.83V41.84a2.26,2.26,0,0,0-.07-.73.55.55,0,0,0-.22-.24,1,1,0,0,0-.49-.12h-.26v-.2H34l.07,1.6h-.18a2.21,2.21,0,0,0-.33-.75,1,1,0,0,0-.45-.34,2.3,2.3,0,0,0-.84-.11Z"/><path class="cls-1" d="M41.47,40.39a3.28,3.28,0,0,1,2.46,1.07,3.74,3.74,0,0,1,1,2.69,3.83,3.83,0,0,1-1,2.76,3.5,3.5,0,0,1-5.06,0,3.83,3.83,0,0,1-1-2.76A3.67,3.67,0,0,1,39,41.34,3.45,3.45,0,0,1,41.47,40.39Zm-.1.39a1.94,1.94,0,0,0-1.57.72,4.09,4.09,0,0,0-.74,2.64,4.33,4.33,0,0,0,.77,2.75,1.88,1.88,0,0,0,1.55.73,2.15,2.15,0,0,0,1.7-.8,4,4,0,0,0,.66-2.53A4.4,4.4,0,0,0,43,41.51,2,2,0,0,0,41.37,40.78Z"/><path class="cls-1" d="M48.22,40.55h2L54.64,46V41.82a1.47,1.47,0,0,0-.15-.85.79.79,0,0,0-.63-.22h-.25v-.2h2.54v.2h-.26a.72.72,0,0,0-.65.28,1.59,1.59,0,0,0-.12.79V48h-.2l-4.79-5.87v4.48a1.64,1.64,0,0,0,.14.85.82.82,0,0,0,.63.22h.26v.2H48.62v-.2h.25a.74.74,0,0,0,.66-.28,1.62,1.62,0,0,0,.12-.79V41.5a3.72,3.72,0,0,0-.48-.49,1.81,1.81,0,0,0-.48-.22,1.89,1.89,0,0,0-.47,0Z"/><path class="cls-1" d="M59.47,47.84v-.2h.27a.73.73,0,0,0,.65-.29,1.7,1.7,0,0,0,.12-.8V41.84a1.53,1.53,0,0,0-.15-.86.77.77,0,0,0-.62-.23h-.27v-.2h3a6.37,6.37,0,0,1,2.48.37,2.93,2.93,0,0,1,1.37,1.24,3.75,3.75,0,0,1,.52,2,3.67,3.67,0,0,1-.92,2.54,4.07,4.07,0,0,1-3.16,1.14Zm2.07-.53a5.57,5.57,0,0,0,1.14.15,2.74,2.74,0,0,0,2.07-.88,3.85,3.85,0,0,0,0-4.75A2.77,2.77,0,0,0,62.64,41a4.72,4.72,0,0,0-1.1.15Z"/><path class="cls-1" d="M72.49,41v2.87h1.6a1.35,1.35,0,0,0,.83-.18,1.25,1.25,0,0,0,.32-.87h.19v2.54h-.19a2.37,2.37,0,0,0-.16-.69.67.67,0,0,0-.31-.29,1.68,1.68,0,0,0-.68-.11h-1.6v2.4a2.2,2.2,0,0,0,0,.59.35.35,0,0,0,.15.17.94.94,0,0,0,.41.06h1.23a3.25,3.25,0,0,0,.9-.09,1.36,1.36,0,0,0,.54-.33,4.28,4.28,0,0,0,.68-1h.22L76,47.84H70.42v-.2h.25a1,1,0,0,0,.49-.12.49.49,0,0,0,.23-.26,2.66,2.66,0,0,0,.06-.71V41.82a1.64,1.64,0,0,0-.13-.86.86.86,0,0,0-.65-.21h-.25v-.2H76l.08,1.6H75.9a2.69,2.69,0,0,0-.25-.79.8.8,0,0,0-.41-.33,2.49,2.49,0,0,0-.75-.08ZM75,38l-1.58,1.85h-.18L73.83,38Z"/><path class="cls-1" d="M188.66,41v2.87h1.6a1.33,1.33,0,0,0,.83-.18,1.21,1.21,0,0,0,.32-.87h.19v2.54h-.19a2.93,2.93,0,0,0-.15-.69.7.7,0,0,0-.32-.29,1.68,1.68,0,0,0-.68-.11h-1.6v2.4a2.2,2.2,0,0,0,0,.59.35.35,0,0,0,.15.17.94.94,0,0,0,.41.06h1.23a3.21,3.21,0,0,0,.9-.09,1.3,1.3,0,0,0,.54-.33,4.28,4.28,0,0,0,.68-1h.22l-.63,1.83h-5.61v-.2h.25a1,1,0,0,0,.49-.12.45.45,0,0,0,.23-.26,2.53,2.53,0,0,0,.07-.71V41.82a1.61,1.61,0,0,0-.14-.86.86.86,0,0,0-.65-.21h-.25v-.2h5.61l.08,1.6h-.21a2.42,2.42,0,0,0-.25-.79.78.78,0,0,0-.4-.33,2.62,2.62,0,0,0-.76-.08Z"/><path class="cls-1" d="M194.58,40.55h2L201,46V41.82a1.47,1.47,0,0,0-.15-.85.79.79,0,0,0-.63-.22H200v-.2h2.54v.2h-.26a.74.74,0,0,0-.66.28,1.77,1.77,0,0,0-.11.79V48h-.2l-4.79-5.87v4.48a1.54,1.54,0,0,0,.14.85.82.82,0,0,0,.63.22h.26v.2H195v-.2h.25a.74.74,0,0,0,.66-.28,1.62,1.62,0,0,0,.12-.79V41.5a3.72,3.72,0,0,0-.48-.49,1.81,1.81,0,0,0-.48-.22,1.93,1.93,0,0,0-.48,0Z"/><path class="cls-1" d="M210,41.27l1.77-.87H212v6.16a3.5,3.5,0,0,0,0,.76.37.37,0,0,0,.21.23,1.58,1.58,0,0,0,.66.09v.2h-2.74v-.2a1.87,1.87,0,0,0,.67-.08.53.53,0,0,0,.21-.21,2.88,2.88,0,0,0,.06-.79V42.62a5.18,5.18,0,0,0-.06-1,.36.36,0,0,0-.14-.25.31.31,0,0,0-.23-.08,1.42,1.42,0,0,0-.56.16Z"/><path class="cls-1" d="M218,44.17A4.75,4.75,0,0,1,216.87,43a1.72,1.72,0,0,1-.25-.89,1.62,1.62,0,0,1,.55-1.23,2,2,0,0,1,1.45-.51,2.08,2.08,0,0,1,1.43.48,1.45,1.45,0,0,1,.53,1.09,1.47,1.47,0,0,1-.29.84,4.22,4.22,0,0,1-1.21,1A6.62,6.62,0,0,1,220.34,45a1.93,1.93,0,0,1,.41,1.16,1.73,1.73,0,0,1-.59,1.31,2.18,2.18,0,0,1-1.54.54,2,2,0,0,1-1.62-.65,1.64,1.64,0,0,1-.46-1.13,1.72,1.72,0,0,1,.32-1A4.51,4.51,0,0,1,218,44.17Zm.25.2a2.66,2.66,0,0,0-.67.82,2.24,2.24,0,0,0-.21,1,1.56,1.56,0,0,0,.38,1.11,1.23,1.23,0,0,0,1,.41,1.28,1.28,0,0,0,.93-.32,1.08,1.08,0,0,0,.35-.8,1.27,1.27,0,0,0-.2-.69A8,8,0,0,0,218.24,44.37Zm.59-.77a4.13,4.13,0,0,0,.82-.92,1.7,1.7,0,0,0,.17-.76,1.23,1.23,0,0,0-.32-.89,1.18,1.18,0,0,0-.87-.32,1.28,1.28,0,0,0-.89.32,1,1,0,0,0-.34.74,1.14,1.14,0,0,0,.14.56,1.85,1.85,0,0,0,.41.53Z"/><path class="cls-1" d="M223.58,41.94a3,3,0,0,1,.79-1.14,1.79,1.79,0,0,1,1.18-.4,1.62,1.62,0,0,1,1.34.57,1.38,1.38,0,0,1,.36.91,2.27,2.27,0,0,1-1,1.64,2.24,2.24,0,0,1,1,.75,2,2,0,0,1,.34,1.15,2.42,2.42,0,0,1-.6,1.64,2.86,2.86,0,0,1-2.27.9,2,2,0,0,1-1-.18.5.5,0,0,1-.26-.39.35.35,0,0,1,.13-.28.4.4,0,0,1,.3-.11.84.84,0,0,1,.27,0,4,4,0,0,1,.42.19,3,3,0,0,0,.44.21,1.42,1.42,0,0,0,.42.06,1.3,1.3,0,0,0,1-.43,1.4,1.4,0,0,0,.4-1,1.9,1.9,0,0,0-.19-.83,1.35,1.35,0,0,0-.3-.45,2.35,2.35,0,0,0-1.45-.57h-.17v-.16a2.32,2.32,0,0,0,.85-.31,1.71,1.71,0,0,0,.62-.6,1.73,1.73,0,0,0,.19-.78,1.18,1.18,0,0,0-.35-.89,1.17,1.17,0,0,0-.86-.34,1.6,1.6,0,0,0-1.39.89Z"/><path class="cls-1" d="M232.29,44.17A4.75,4.75,0,0,1,231.17,43a1.72,1.72,0,0,1-.25-.89,1.65,1.65,0,0,1,.54-1.23,2.36,2.36,0,0,1,2.89,0,1.45,1.45,0,0,1,.53,1.09,1.47,1.47,0,0,1-.29.84,4.22,4.22,0,0,1-1.21,1A6.62,6.62,0,0,1,234.64,45a1.93,1.93,0,0,1,.41,1.16,1.73,1.73,0,0,1-.59,1.31,2.18,2.18,0,0,1-1.54.54,2,2,0,0,1-1.62-.65,1.64,1.64,0,0,1-.46-1.13,1.72,1.72,0,0,1,.32-1A4.51,4.51,0,0,1,232.29,44.17Zm.25.2a2.66,2.66,0,0,0-.67.82,2.24,2.24,0,0,0-.21,1,1.56,1.56,0,0,0,.38,1.11,1.23,1.23,0,0,0,1,.41,1.3,1.3,0,0,0,.93-.32,1.08,1.08,0,0,0,.35-.8,1.27,1.27,0,0,0-.2-.69A8.28,8.28,0,0,0,232.54,44.37Zm.59-.77a4.13,4.13,0,0,0,.82-.92,1.7,1.7,0,0,0,.17-.76,1.23,1.23,0,0,0-.32-.89,1.18,1.18,0,0,0-.87-.32A1.28,1.28,0,0,0,232,41a1,1,0,0,0-.34.74,1.14,1.14,0,0,0,.14.56,1.69,1.69,0,0,0,.41.53Z"/><path class="cls-1" d="M79.31,222.57H74.94l-.76,1.78a2.71,2.71,0,0,0-.28,1,.57.57,0,0,0,.24.45,2.18,2.18,0,0,0,1.06.26v.31H71.65V226a2,2,0,0,0,.91-.33,5.12,5.12,0,0,0,.94-1.62l4-9.26h.31l3.92,9.37a4.24,4.24,0,0,0,.86,1.46,1.81,1.81,0,0,0,1.08.38v.31H79.18V226a1.74,1.74,0,0,0,.91-.23.58.58,0,0,0,.23-.46,3.43,3.43,0,0,0-.33-1.15Zm-.25-.61-1.9-4.55-2,4.55Z"/><path class="cls-1" d="M92.91,215.07h3.93v.32h-.22a1.67,1.67,0,0,0-.63.19,2.31,2.31,0,0,0-.75.54,7.21,7.21,0,0,0-.84,1.17l-2.72,4.25v2.85a2.16,2.16,0,0,0,.24,1.29,1.3,1.3,0,0,0,1,.35h.37v.31H88.48V226h.4a1.15,1.15,0,0,0,1-.44,2.35,2.35,0,0,0,.19-1.2v-2.65L87,217a11.16,11.16,0,0,0-.74-1,2.82,2.82,0,0,0-.81-.49,1.07,1.07,0,0,0-.48-.08v-.32h4.8v.32h-.25a1.48,1.48,0,0,0-.72.18.58.58,0,0,0-.33.54,2.61,2.61,0,0,0,.51,1.08l2.34,3.63,2.22-3.47a2.56,2.56,0,0,0,.49-1.16.76.76,0,0,0-.12-.42.79.79,0,0,0-.34-.28,1.65,1.65,0,0,0-.67-.1Z"/><path class="cls-1" d="M98.42,221.9h4.3v1.25h-4.3Z"/><path class="cls-1" d="M116.23,215.68v4.44h2a1.44,1.44,0,0,0,1-.31,2.12,2.12,0,0,0,.44-1.24h.31v3.82h-.31a2.48,2.48,0,0,0-.17-1,1.11,1.11,0,0,0-.45-.46,1.9,1.9,0,0,0-.85-.15h-2v3.53a3.77,3.77,0,0,0,.11,1.13.73.73,0,0,0,.34.36,1.6,1.6,0,0,0,.76.2h.4v.31H113V226h.4a1.21,1.21,0,0,0,1-.41,2.59,2.59,0,0,0,.2-1.28v-7.27a3.77,3.77,0,0,0-.11-1.13.78.78,0,0,0-.34-.36,1.56,1.56,0,0,0-.76-.19H113v-.32h8.37l.11,2.47h-.29a3.64,3.64,0,0,0-.51-1.16,1.66,1.66,0,0,0-.7-.53,3.76,3.76,0,0,0-1.3-.17Z"/><path class="cls-1" d="M136.25,226.34h-3l-3.81-5.27-.69,0h-.49v3.27a2.34,2.34,0,0,0,.23,1.32,1.18,1.18,0,0,0,.94.37h.44v.31h-4.81V226h.42a1.12,1.12,0,0,0,1-.47,2.55,2.55,0,0,0,.18-1.22v-7.27a2.34,2.34,0,0,0-.23-1.32,1.24,1.24,0,0,0-1-.36h-.42v-.32h4.1a10,10,0,0,1,2.64.26,3.09,3.09,0,0,1,1.45,1,2.54,2.54,0,0,1,.59,1.67,2.64,2.64,0,0,1-.68,1.81,3.81,3.81,0,0,1-2.1,1.08l2.33,3.22a6,6,0,0,0,1.37,1.48,3.59,3.59,0,0,0,1.5.47Zm-8-5.78h.46a3.62,3.62,0,0,0,2.4-.7,2.27,2.27,0,0,0,.81-1.79,2.37,2.37,0,0,0-.65-1.72,2.33,2.33,0,0,0-1.73-.66,7.49,7.49,0,0,0-1.29.15Z"/><path class="cls-1" d="M146.43,222.57h-4.37l-.76,1.78a2.78,2.78,0,0,0-.29,1,.58.58,0,0,0,.25.45,2.11,2.11,0,0,0,1.06.26v.31h-3.56V226a2,2,0,0,0,.91-.33,4.76,4.76,0,0,0,.94-1.62l4-9.26h.3l3.93,9.37a4.27,4.27,0,0,0,.85,1.46,1.81,1.81,0,0,0,1.08.38v.31h-4.44V226a1.71,1.71,0,0,0,.91-.23.55.55,0,0,0,.23-.46,3.43,3.43,0,0,0-.33-1.15Zm-.26-.61-1.9-4.55-2,4.55Z"/><path class="cls-1" d="M153.25,215.07h3l6.89,8.45V217a2.2,2.2,0,0,0-.23-1.3,1.25,1.25,0,0,0-1-.34h-.39v-.32h3.95v.32h-.4a1.18,1.18,0,0,0-1,.43,2.52,2.52,0,0,0-.18,1.21v9.49h-.3l-7.42-9.07v6.94a2.26,2.26,0,0,0,.23,1.29,1.27,1.27,0,0,0,1,.35h.4v.31h-3.95V226h.39a1.16,1.16,0,0,0,1-.44,2.35,2.35,0,0,0,.19-1.2v-7.83a4.8,4.8,0,0,0-.75-.76,2.72,2.72,0,0,0-.74-.34,2.65,2.65,0,0,0-.73-.07Z"/><path class="cls-1" d="M178.54,214.82l.25,3.83h-.25a4.86,4.86,0,0,0-1.46-2.48,3.6,3.6,0,0,0-2.29-.75,3.57,3.57,0,0,0-3.45,2.38,8.17,8.17,0,0,0-.52,3.09,6.7,6.7,0,0,0,.49,2.65,3.71,3.71,0,0,0,1.47,1.72,4.21,4.21,0,0,0,2.24.59,3.91,3.91,0,0,0,1.93-.46,6.57,6.57,0,0,0,1.84-1.86l.25.17a5.82,5.82,0,0,1-2,2.19,4.93,4.93,0,0,1-2.68.7,5.07,5.07,0,0,1-4.33-2.08,5.93,5.93,0,0,1-1.14-3.63,6.48,6.48,0,0,1,.75-3.09,5.49,5.49,0,0,1,2.08-2.19,5.57,5.57,0,0,1,2.89-.78,5.26,5.26,0,0,1,2.4.6,1.28,1.28,0,0,0,.49.18.56.56,0,0,0,.39-.15,1.25,1.25,0,0,0,.31-.63Z"/><path class="cls-1" d="M185.73,215.68v4.46h2.48a2,2,0,0,0,1.29-.3,1.83,1.83,0,0,0,.48-1.34h.31v3.92H190a4.71,4.71,0,0,0-.23-1,1,1,0,0,0-.49-.46,2.56,2.56,0,0,0-1-.16h-2.48v3.71a3.24,3.24,0,0,0,.07.92.5.5,0,0,0,.23.25,1.31,1.31,0,0,0,.63.1h1.92a5.67,5.67,0,0,0,1.39-.13,2.19,2.19,0,0,0,.83-.53,6.33,6.33,0,0,0,1-1.56h.33l-1,2.83h-8.68V226h.39a1.57,1.57,0,0,0,.76-.2.65.65,0,0,0,.36-.4,4,4,0,0,0,.1-1.09V217a2.47,2.47,0,0,0-.22-1.32,1.33,1.33,0,0,0-1-.32h-.39v-.32h8.7l.11,2.47H191a3.74,3.74,0,0,0-.39-1.22,1.26,1.26,0,0,0-.62-.51,3.61,3.61,0,0,0-1.18-.13Z"/></g></g></svg>