<svg xmlns="http://www.w3.org/2000/svg" viewBox="0 0 340.16 198.57"><defs><style>.cls-1{fill:#1d1d1b;}.cls-2,.cls-4{fill:#a48241;}.cls-3{fill:#c21632;}.cls-4{fill-rule:evenodd;}.cls-5{fill:#776e64;}</style></defs><title>Ресурс 1</title><g><g id="Livello_1"><path class="cls-1" d="M241.31,140.53,246,149H230.85l7.58-13.59Zm-11.85-16.8v.15l3.56,3.54-19.59,35.14-3.57,3.54v.15h15.86v-.15l-2.44-3.54,2.73-4.87h24.86l2.71,4.87-2.42,3.54v.15H267v-.15l-3.57-3.54-19.59-35.14,3.56-3.54v-.15Z"/><path class="cls-1" d="M136.47,132.32a5,5,0,0,1,4.09,7.81,5,5,0,0,1-3.58,2.11H115.57v-9.92Zm-.37-8.59H103.29v.15l3.57,3.54v35.14l-3.58,3.54v.15h15.87v-.15l-3.58-3.54V150.83h13.77l9.89,13.28-.63,2.14h14.92v-.15l-4.7-3.54-9-12.11a12,12,0,0,0,1.78-.6,13.34,13.34,0,0,0,4-2.53,13.58,13.58,0,0,0-6.69-23.39,14.24,14.24,0,0,0-2.46-.22l-.36,0Z"/><path class="cls-1" d="M290.52,132.32h12.21a5,5,0,0,1,3.1,8.87,5.14,5.14,0,0,1-2.59,1.05H281.83v-9.92Zm12-8.6h-33v.15l3.58,3.54v35.14l-3.57,3.54v.15h15.87v-.15l-3.58-3.54V150.83h13.76l9.9,13.28-.63,2.14h14.92v-.15l-4.71-3.54-9-12.11A13.63,13.63,0,0,0,316,140.21a13.58,13.58,0,0,0-13.25-16.5Z"/><path class="cls-1" d="M174.29,132.32H192a5,5,0,0,1,.51,9.92h-21.4v-9.92Zm17.32-8.59H158.8v.15l3.57,3.54v35.14l-3.58,3.54v.15h15.86v-.15l-3.57-3.54V150.83h13.76l9.88,13.28-.61,2.14H209v-.15l-4.71-3.54-9-12.11A13.58,13.58,0,0,0,192,123.71l-.36,0Z"/><path class="cls-1" d="M336.16,123.73H324.29v.15l3.57,3.55v35.13l-3.57,3.54v.15h15.86v-.15l-3.57-3.54V127.42l3.57-3.54v-.15Z"/><path class="cls-1" d="M40.66,123.73H0v.15l3.56,3.54v35.14L0,166.1v.15H15.87v-.15l-3.57-3.54V148.23l19.48,0,5.1,2,.12-.08-3.52-12-.15,0-1.14,1.48H12.3v-7.36l27.85,0,5.21,2.05.12-.08L42,122.43l-.15,0Z"/><path class="cls-1" d="M92.75,122.43l-.14,0-1.15,1.34H50.79v.15l3.57,3.54v35.14l-3.57,3.54v.15H92.73L97,155.06l-.12-.09-5.91,2.69H63.08v-9.43H82.47l5.2,2.05.12-.08-3.52-12-.15,0L83,139.64H63.08v-7.36l27.86,0,5.21,2.05.11-.08Z"/><path class="cls-2" d="M191.76,68a16,16,0,0,0-3.88-1.17c-.67-.16-1.63-.39-2.71-.68a36.45,36.45,0,0,1-5.93-2.07,12.16,12.16,0,0,1-2.2-1.51.59.59,0,0,0-.5-.17.6.6,0,0,0-.4.18c-.29-1.51-.58-4.31-.69-5.83l.36-.34,2.93-2.75V51.51a23,23,0,0,1-2.35,2.59V52.22a.5.5,0,0,0-.51-.49.49.49,0,0,0-.49.49V55c-.4.36-.8.73-1.2,1.08V51.37a.51.51,0,0,0-1,0V57c-.4.35-.81.7-1.18,1V50.35a.5.5,0,1,0-1,0v8.47c-.54.45-.95.78-1.17.94V49.94s-.47.29-1.22.65v7.14a.5.5,0,0,1-1,0V51c-.36.16-.75.32-1.15.46v4.41a.51.51,0,0,1-1,0V51.83c-.38.11-.77.2-1.14.27v1.79a.51.51,0,0,1-.51.5.52.52,0,0,1-.51-.5V52.22a3.05,3.05,0,0,1-2.37-.71V53.7l2.87,2.7.42.4a57.48,57.48,0,0,1-.8,5.77.67.67,0,0,0-.37-.14.73.73,0,0,0-.52.22c-1.8,2.06-8.33,3.63-10.8,4.22A15.87,15.87,0,0,0,147.85,68c-4.69,2.62-5.62,9.89,1.06,13.06h0s2.78,1.34,3.45,3.77a5.61,5.61,0,0,1,.22,1.64c0,.13,3.15-5.72-2-7.87.18.07,3.19-1.92.8-3.93a2.62,2.62,0,0,1-2.29,1.65H149c-.63,0-2.28-.73-1.57-3.94.13-.67,1.14-3.1,3.47-3.27,2.07,0,3,1.55,3.45,2.93v29.19a5.23,5.23,0,0,0,5.6,4.72l4,0,2.41,0h.36a1.63,1.63,0,0,1,1.28.45L169.8,108l1.82-1.54a1.63,1.63,0,0,1,1.28-.45h.37l2.4,0,4,0a5.23,5.23,0,0,0,5.61-4.72V72.1c.43-1.39,1.37-2.95,3.45-2.95,2.33.17,3.34,2.6,3.46,3.27.72,3.21-.93,3.89-1.56,3.94h-.16a2.62,2.62,0,0,1-2.29-1.65c-2.39,2,.62,4,.8,3.93-5.11,2.15-2,8-2,7.87a6,6,0,0,1,.22-1.64c.67-2.43,3.45-3.77,3.45-3.77h0C197.38,77.93,196.45,70.66,191.76,68Zm-34.38,1.11a18.27,18.27,0,0,0-2.94-1.61c3.34-.9,6.74-2,8.51-3.48.3.38.74.92,1.28,1.53C163,67.05,159.1,68.55,157.38,69.15Zm8.48-3.75a3.46,3.46,0,0,0,1-2.36c.16-1.14.31-2.4.43-3.34l2.52,2.36v0l4-3.74a24.59,24.59,0,0,0,1,5.91,23.44,23.44,0,0,1-5,4.48A20.51,20.51,0,0,1,165.86,65.4Zm19.21,2.21a14.8,14.8,0,0,0-3.58,2.16h-11A26.41,26.41,0,0,0,176.71,64a15.75,15.75,0,0,0,1.84,1.19h0a25,25,0,0,0,6.52,2.42Z"/><path class="cls-2" d="M149.12,84.24c-9.05-5.59-5.85-12.32-5.85-12.32a8.17,8.17,0,0,0-2.61,4.82c-.5,2.61.93,5.25.68,6.5a4,4,0,0,1-1.19,2.13,2,2,0,0,0,3.16-.38,5.25,5.25,0,0,1-.69,4.11c2.52.75,3.57-1.94,3.57-1.94,4.42,2.44.95,8.07.91,8.06.87,0,4-1.9,4.75-5.71C152.53,86.17,149.12,84.24,149.12,84.24Z"/><path class="cls-2" d="M190.5,84.24c9.05-5.59,5.85-12.32,5.85-12.32A8.22,8.22,0,0,1,199,76.74c.5,2.61-.93,5.25-.68,6.5a4,4,0,0,0,1.19,2.13,2,2,0,0,1-3.16-.38A5.25,5.25,0,0,0,197,89.1c-2.52.75-3.57-1.94-3.57-1.94-4.42,2.44-1,8.07-.91,8.06-.87,0-4-1.9-4.75-5.71C187.09,86.17,190.5,84.24,190.5,84.24Z"/><path class="cls-2" d="M190.49,84.24c9-5.59,5.85-12.32,5.85-12.32A8.22,8.22,0,0,1,199,76.74c.5,2.61-.93,5.25-.69,6.5a4.06,4.06,0,0,0,1.2,2.13A2,2,0,0,1,196.3,85,5.32,5.32,0,0,0,197,89.1c-2.51.75-3.56-1.94-3.56-1.94-4.43,2.44-.95,8.07-.92,8.06-.86,0-4-1.9-4.74-5.71C187.08,86.17,190.49,84.24,190.49,84.24Z"/><path class="cls-3" d="M183.67,100.86v0a3.88,3.88,0,0,1-4.22,3.43l-3.92,0-2.32,0h-.38a2.82,2.82,0,0,0-2.07.74l-1,.81-1-.81a2.81,2.81,0,0,0-2.07-.74h-.38l-2.33,0-3.92,0a3.88,3.88,0,0,1-4.21-3.43V71.53h27.74Z"/><path class="cls-2" d="M189.89,18.46l-.1-.07a3.87,3.87,0,0,1,.24,2.5,3.57,3.57,0,0,1-4.37,2.72,3.5,3.5,0,0,1-1.67-1,3.72,3.72,0,0,0,1.32,2.26,3.6,3.6,0,0,0,5.16-.94A4,4,0,0,0,189.89,18.46Zm-16-5.66a3.35,3.35,0,0,0,1.91-1.55,3.84,3.84,0,0,0-1.38-5.11,3.48,3.48,0,0,0-4.93,1.15l0,.1a3.29,3.29,0,0,1,2.27-.5A3.61,3.61,0,0,1,174.67,11,3.7,3.7,0,0,1,173.91,12.8Zm.16-9a5.27,5.27,0,0,1,2.64,6.78c-.06.14-.14.27-.21.42a6.27,6.27,0,0,0,2-2.67A6.16,6.16,0,0,0,175.39.42a5.42,5.42,0,0,0-5.28.63,4.36,4.36,0,0,0-1.33,4A4.71,4.71,0,0,1,174.07,3.82ZM161.74,22.68A13.21,13.21,0,0,0,158,17.63a4.77,4.77,0,0,0-5.24-.62,3.39,3.39,0,0,0-1.63,3.14,5.51,5.51,0,0,0,.21,1.22,7.72,7.72,0,0,1,.18-1.18,2.64,2.64,0,0,1,1.74-2,3.56,3.56,0,0,1,3.4,1.13,16,16,0,0,1,2.82,4.5c1.69,3.65,3.15,7.22,4.62,9.6A9.73,9.73,0,0,0,167,36.87a13.84,13.84,0,0,1-1.78-4A80.56,80.56,0,0,0,161.74,22.68Zm9.57-9.08a9.72,9.72,0,0,0-1.64-3.09c-1.16-1.8-2.42-3.35-2.37-6.76,0,0-2.8,3.14.87,9.83a19.1,19.1,0,0,1,2.14,7.09c.12,1.21.18,2.43.18,3.64-.05-.34-.1-.69-.17-1-.53-4.24-4-8.21-4.83-12.51a7.16,7.16,0,0,1-.15-1.46,13,13,0,0,0,.16,4.8c1.23,5.68,3.74,7,3.92,21.41,0,0,.15-.39.36-1.1C170.68,31.37,173.6,20.5,171.31,13.6Zm-4.73,10.09a17.72,17.72,0,0,0-1.67-4.87h0c-1.87-3.63-5.19-6-9.06-5.42-1.74.26-3.77,1.17-4.37,2.9.09,0,.29-.22.29-.22a6.43,6.43,0,0,1,5.17-1.2c5.35.82,7,8.5,7,8.5h0c.08.31.15.63.22.95a66.59,66.59,0,0,0,2.31,8.41,24.23,24.23,0,0,0,1.5,3.36l-.27-3.66A61.76,61.76,0,0,0,166.58,23.69Zm19.84-5.47a2.57,2.57,0,0,1,1.73,2,8.18,8.18,0,0,1,.2,1.18,7.63,7.63,0,0,0,.21-1.22A3.38,3.38,0,0,0,186.92,17a4.75,4.75,0,0,0-5.23.62A13.33,13.33,0,0,0,178,22.68a83.9,83.9,0,0,0-3.5,10.21,14.37,14.37,0,0,1-1.77,4,9.83,9.83,0,0,0,2.89-3.42,101.22,101.22,0,0,0,4.63-9.6,16.72,16.72,0,0,1,2.81-4.5A3.58,3.58,0,0,1,186.42,18.22Zm-10.87,6.1c.07-.32.15-.64.22-.95h0s1.63-7.68,7-8.5a6.46,6.46,0,0,1,5.18,1.2s.2.22.28.22c-.59-1.73-2.63-2.64-4.37-2.9-3.86-.54-7.19,1.79-9.05,5.42,0,0,0,0,0,0a17.72,17.72,0,0,0-1.67,4.87,61.76,61.76,0,0,0-1.1,8.74l-.27,3.66a22.83,22.83,0,0,0,1.5-3.36A68.33,68.33,0,0,0,175.55,24.32Z"/><path class="cls-2" d="M154.39,24.88a3.72,3.72,0,0,0,1.31-2.26,3.52,3.52,0,0,1-1.67,1,3.58,3.58,0,0,1-4.36-2.72,3.83,3.83,0,0,1,.23-2.51l-.09.07a4,4,0,0,0-.58,5.45A3.61,3.61,0,0,0,154.39,24.88Z"/><path class="cls-4" d="M166.54,81s-2.22-1.22-2-2.32a1.57,1.57,0,0,1,.3-.55.83.83,0,0,0-.22-1.18s.36-.87-.55-.85c0,0,.34.38,0,.66a1.14,1.14,0,0,0-.58.42s-.12-.7-.73-.71c-.14,0-.22,0-.35,0s-.81-.43-1.07.17a.4.4,0,0,1,.24,0,.5.5,0,0,1,.32.46,2.5,2.5,0,0,0-.06,1.09.7.7,0,0,0-.94.55.67.67,0,0,0-.62.94s.32-.49.76-.2a.61.61,0,0,1,.1.14c.13.21.36.59.66.64l.58.08c.13,0-.39.4,0,.78.11.12.1-.23.37-.19s.63.39,1.31,1.12,1.07,1.48,1.65,1.61A3.09,3.09,0,0,1,166.54,81Z"/><path class="cls-4" d="M171.15,74.71s-1.24,0-1.43-.1-.2-.27,0-.51a1.49,1.49,0,0,1,1.08-.26c2.9.32,4-.14,4-.14a1.42,1.42,0,0,1-.41,1.22s1.46.38,1.58,3.79c0,.8-.32,2.23.51,3.19a.93.93,0,0,1-1,.09,10.6,10.6,0,0,1-.94,2c-.69,1.17-1,2.42-.18,2.67.12,0-.1.17-.55.06a1.94,1.94,0,0,1-.47-.18,1.73,1.73,0,0,1-.59-2.19c.56-1.52,1.14-1.71,1.06-3.27a8.26,8.26,0,0,1-2.15,3.31s-1.22,1-1.17,2a2.47,2.47,0,0,0,.15.81c0,.07,0,0,0,0a2.55,2.55,0,0,1-1-2.48,3.58,3.58,0,0,1,.58-1.31c.64-.89,1.64-1.73,1.77-3.53a6.33,6.33,0,0,1-1.65,2.19c-1.13.94-2.11,1.35-2.44,2.24,0,0-.91-1,.38-2.76a3.25,3.25,0,0,0-1.69,1.84h-.07s-.86-1.67,1.65-2.84c1.72-.82,1.66-1.49,1.66-1.49a4.19,4.19,0,0,1-2.34.59,4.86,4.86,0,0,1-.6.06v-.09a1.53,1.53,0,0,0,.8-.74c.14-.48.13-.88.47-.88a4,4,0,0,1,.54.07,1.18,1.18,0,0,0-1-.29c-.68.1-1.16,0-1.57-1,0,0-.17-.36-.38-.33s.06-.21.26-.21c0,0,.67-.25,1.65.91,0,0,.08.13.62.22s.92.09,1.34.68a1.26,1.26,0,0,0,.43,0,2.34,2.34,0,0,0-.29-1,1,1,0,0,0-1-.5l-.1.24a.44.44,0,0,0,0,.26s0,.11-.13.05a.73.73,0,0,1-.53-.63.76.76,0,0,1-.62-.73c0-.64-.1-.72.05-.9s.13,0,.48,0A7.72,7.72,0,0,1,169,74.8c.22,0,.44.32.67.45A1.65,1.65,0,0,0,171.15,74.71Z"/><path class="cls-4" d="M172.86,86.7a1.2,1.2,0,0,1-.76-.91,2.62,2.62,0,0,1,0-1,2.54,2.54,0,0,0-.92,3s.12.19-.13.16a3,3,0,0,1-1.7-4.41s0,0,0-.1-.1,0-.1,0A3.73,3.73,0,0,0,168,85.09c-.17.61-.94-.7-.91-1.46a28.79,28.79,0,0,1-4.15,1.69c-.54,0-.46-.72-.48-.93,0,0-.13-.6-.91-.36a.91.91,0,0,0-1.33,0,1,1,0,0,1,.48.14c.11.12.07.16,0,.31a.88.88,0,0,0,0,.58l.09.25s-.74,0-.91.4-.2.42-.23.42a.72.72,0,0,0-.54.84c.37-.29.51-.2.56-.17s0,0,.1.11a.82.82,0,0,0,.5.28.77.77,0,0,0-.13.86.8.8,0,0,0-.07,1.06s.12-.45.41-.46a2,2,0,0,0,1.42-.37c.54-.44.49-.37.49-.37s.08.92.94.71c0,0-.42-.27,0-.47s.49-.29.53-.74a1.17,1.17,0,0,0,0-.34A2.59,2.59,0,0,1,165.2,87c.89.1,1,.16,1.3-.12s.29-.26.29-.26a3.76,3.76,0,0,0,1.6,2.06,4.62,4.62,0,0,1,1.41,1.65,3.65,3.65,0,0,1,.29,1.18,6.54,6.54,0,0,0,.92-1.56s.58.57-.61,2.22-.85,3,.14,3.72a5.44,5.44,0,0,0,3.45,1c.38,0,.41.22.45.52a4,4,0,0,1-.87,2.23s-.4.63-1.21-.09-1.21-.33-1.42,0c-.06.08-.21,0-.41.09a.85.85,0,0,0-.67.68s.48-.22.67,0a1,1,0,0,0-.74.87.89.89,0,0,0-.65,1s.22-.35.53-.28a1.64,1.64,0,0,0,1.29,0s-.37.61,0,1c0,0,.21-.54.69-.47a2.64,2.64,0,0,0,2.09-.3,4.63,4.63,0,0,0,.64-.53,1.13,1.13,0,0,0,1.09.31c.19,0-.13-.24-.06-.41a1.6,1.6,0,0,0,.2-1.34,13.22,13.22,0,0,0,.67-1.48,9.6,9.6,0,0,0,.66-2.52s.12-.41-.15-.58-.35,0-.66,0c-.94,0-1.88-.43-1.61-1.51s.31-1,.31-1a1.9,1.9,0,0,0,2.35-.77c.75-1.28-.28-3.24-.34-3.37a7.48,7.48,0,0,1-.7-3.34,3.34,3.34,0,0,1,.41-1.6c.65-1.09,1.75-.8,1.78.28a2.92,2.92,0,0,1-.66,1.4,2.82,2.82,0,0,0-.25.44,2.24,2.24,0,0,0-.17,1.18c.12,0,.36-.31.56-.5a.52.52,0,0,1,.23-.13s-.62,3.16,2.18,2.81c0,0,.1-.09-.08-.11a1.16,1.16,0,0,1-.37-1.74,5.3,5.3,0,0,0,.83-2.36,3,3,0,0,0-.61-2s-2.12-2.72-4.21,0a5,5,0,0,0-.59,3.88,12.44,12.44,0,0,0,.78,2.24c.32.82.45,1.23.45,1.23s.36,1.13-.62,1.34a.92.92,0,0,1-.92-.48,2.79,2.79,0,0,1-.2-.72,8,8,0,0,0-1.17-2A5,5,0,0,1,172.86,86.7Z"/><path class="cls-4" d="M169.67,92.23a2.79,2.79,0,0,0-.63,2.19,1.77,1.77,0,0,1,.05.32s-1-.23-1.13.57a10.84,10.84,0,0,0,0,1.89c-.06.23-.14.83-1,.64a16.48,16.48,0,0,1-1.86-.78,2.38,2.38,0,0,0-1-.21h0s-.13,0-.24.17-.2.4-.91.37c0,0-.28.27,0,.47s-.18.09-.29,0a.87.87,0,0,1-.41-1s-.22.12-.4.2a1,1,0,0,1-.63-.06c-.13-.06-.35,0-.41.3s-.11.31-.11.31-.57-.31-.13-1.1a.68.68,0,0,1,.26-1,1.4,1.4,0,0,1-.55-.69c-.08-.22-.7,0-.7.25a.8.8,0,0,1-.13-.45.7.7,0,0,1,.65-.68s.1-.58.73-.61a1.74,1.74,0,0,1,1.27.56,1,1,0,0,0-.18-.39.82.82,0,0,1,.09-1c.25-.17.35-.17.23-.36a.85.85,0,0,0-.43-.31c-.07,0,0-.18.5-.09a.94.94,0,0,1,.69.6.77.77,0,0,1,.73.73,2.29,2.29,0,0,1-.26,1,.64.64,0,0,0,.13.47,2.12,2.12,0,0,0,1.7.82c1.15.11.88-.76.73-1s-1.5-2.69-.73-3.79a1.72,1.72,0,0,1,.73-.68,2.55,2.55,0,0,1,3.26,1.34A2.64,2.64,0,0,1,169.67,92.23Z"/><path class="cls-2" d="M169.82,41.57h0c-.13.16-6.09,6.8-9.93,7.78,0,0-.52.77,0,1.16,2.74,2.05,9.87-3.22,9.94-3.28s7.2,5.33,10,3.28c.52-.39,0-1.16,0-1.16q-.28-.08-.57-.18V49a10,10,0,0,0-5.43-9.26.49.49,0,0,0,.31-.29.57.57,0,0,0-.28-.76,10.48,10.48,0,0,0-7.8-.12.56.56,0,0,0-.3.75.56.56,0,0,0,.31.31,9.75,9.75,0,0,0-5.6,8.05c3.41-1.48,9.33-7.41,9.33-7.41h0c4.46,0,7.75,3.42,8,8.17C174.14,46.37,169.94,41.69,169.82,41.57Z"/><path class="cls-2" d="M153.27,49.72c-6.09,6.14-8.6,2.49-8.56,2.47.34,1.66,2.66,3,6.56.39a18.44,18.44,0,0,0,5.85-7.06c-.42-1.38-1.59-1.52-3-1.66a1.88,1.88,0,0,1-1.67-1.23c-.76,2.92,1.32,3.74,1.32,3.71-1.92,2.36-3.77,1.18-3.77,1.18C149.94,49.67,153.27,49.72,153.27,49.72Z"/><path class="cls-2" d="M137.69,46.92c.4,0,1.17.35,1.17,1.93s0,7.78,5.1,9a4.92,4.92,0,0,1-3.15-4.52,6.73,6.73,0,0,1,3.32-5.76c1.11-.76,3.06-1.64,3.06-3.36a2,2,0,0,0-.95-1.71,1.94,1.94,0,0,1-.78,2.58s0-1.13-1.47-1.88a2.36,2.36,0,0,0-2.29.25,1.36,1.36,0,0,1,1.49,1.38c0,1.2-1.86,1.32-1.86,1.32a3.45,3.45,0,0,0-2.55-1.38c-1.6,0-3,1.73-2.31,3.17A1.26,1.26,0,0,1,137.69,46.92Z"/><path class="cls-2" d="M147,61.23c3.56-1.71,3.93-3.42,3.93-3.42-5.41,4.84-10.7.11-10.73,0-1.27,3.74,2,4.21,2,4.21-10.22,4-4.25,12.55-4.21,12.52C135.86,65.85,143.43,62.93,147,61.23Z"/><path class="cls-2" d="M157.3,49s-3.16,3.21-3.16,3.21-3.32,3.5-7,3.5-4.09-5.09-1-5.09a1.37,1.37,0,0,1,1.21,1.61,2.26,2.26,0,0,0,1-2A1.8,1.8,0,0,0,147,48.57h0a3.72,3.72,0,0,0,.76-.41A4.22,4.22,0,0,0,149.93,44a3,3,0,0,0-.26-1A3.13,3.13,0,0,0,146,41.19s2.55.8,2.55,3.12a3.14,3.14,0,0,1-1.78,2.74c-.44.28-4.52,2.49-4.52,5.82s2.55,4.35,5,4.35a11.54,11.54,0,0,0,5.55-1.66s.51,4.44-6,7.64-7.46,6-7.21,8.72c0,0-.41-3.88,6.47-6.14a19.37,19.37,0,0,0,4.66-2,7.21,7.21,0,0,0,3-7.11,4.05,4.05,0,0,1,1,5.21s4.37-.59,2.22-5.61a2,2,0,0,0,2.83-.65S155.47,54.56,157.3,49Z"/><path class="cls-2" d="M186.41,49.72c6.09,6.14,8.6,2.49,8.56,2.47-.34,1.66-2.66,3-6.56.39a18.33,18.33,0,0,1-5.85-7.06c.42-1.38,1.59-1.52,2.95-1.66a1.88,1.88,0,0,0,1.67-1.23c.76,2.92-1.32,3.74-1.32,3.71,1.92,2.36,3.77,1.18,3.77,1.18C189.74,49.67,186.41,49.72,186.41,49.72Z"/><path class="cls-2" d="M202,46.92c-.4,0-1.17.35-1.17,1.93s0,7.78-5.1,9a4.92,4.92,0,0,0,3.15-4.52,6.73,6.73,0,0,0-3.32-5.76c-1.11-.76-3.06-1.64-3.06-3.36a2,2,0,0,1,.95-1.71,1.94,1.94,0,0,0,.79,2.58s-.06-1.13,1.46-1.88a2.38,2.38,0,0,1,2.3.25,1.37,1.37,0,0,0-1.5,1.38c0,1.2,1.86,1.32,1.86,1.32a3.45,3.45,0,0,1,2.55-1.38c1.6,0,3,1.73,2.31,3.17A1.26,1.26,0,0,0,202,46.92Z"/><path class="cls-2" d="M192.69,61.23c-3.56-1.71-3.93-3.42-3.93-3.42,5.41,4.84,10.7.11,10.73,0,1.27,3.74-2,4.21-2,4.21,10.22,4,4.25,12.55,4.21,12.52C203.82,65.85,196.26,62.93,192.69,61.23Z"/><path class="cls-2" d="M182.38,49s3.16,3.21,3.16,3.21,3.32,3.5,7,3.5,4.1-5.09,1-5.09a1.37,1.37,0,0,0-1.21,1.61,2.26,2.26,0,0,1-1-2,1.8,1.8,0,0,1,1.34-1.68h0a3.72,3.72,0,0,1-.76-.41A4.19,4.19,0,0,1,189.75,44a3,3,0,0,1,.26-1,3.13,3.13,0,0,1,3.72-1.78s-2.55.8-2.55,3.12A3.14,3.14,0,0,0,193,47.05c.45.28,4.52,2.49,4.52,5.82s-2.55,4.35-4.95,4.35A11.54,11.54,0,0,1,187,55.56s-.51,4.44,6,7.64,7.46,6,7.22,8.72c0,0,.4-3.88-6.48-6.14a19.37,19.37,0,0,1-4.66-2,7.21,7.21,0,0,1-3-7.11,4.05,4.05,0,0,0-1,5.21s-4.37-.59-2.22-5.61a2,2,0,0,1-2.83-.65S184.21,54.56,182.38,49Z"/><path class="cls-5" d="M84.94,188.27h-5.6v10H77.4v-10H71.81v-1.75H84.94Z"/><path class="cls-5" d="M105.34,198.23h-2.26l-3.16-4.46H94v4.46H92.07V186.52h9.23a4.06,4.06,0,0,1,2.89,1,3.49,3.49,0,0,1,1,2.69,3.33,3.33,0,0,1-.85,2.39,3.68,3.68,0,0,1-2.19,1.07ZM101,192c1.5,0,2.25-.6,2.25-1.81s-.81-1.94-2.43-1.94H94V192Z"/><path class="cls-5" d="M125.47,198.23H113.22V186.52H125v1.75h-9.86v3H122V193h-6.85v3.46h10.31Z"/><path class="cls-5" d="M146.54,198.23h-2.42l-8.94-9.6v9.6h-1.93V186.52h2.41l8.94,9.61v-9.61h1.94Z"/><path class="cls-5" d="M166.79,188.27H161.2v10h-1.94v-10h-5.59v-1.75h13.12Z"/><path class="cls-5" d="M188.34,192.36A5.55,5.55,0,0,1,186,197a9.3,9.3,0,0,1-10.31,0,5.52,5.52,0,0,1-2.36-4.64,5.61,5.61,0,0,1,2.39-4.63,8.32,8.32,0,0,1,5.14-1.58,8.23,8.23,0,0,1,5.13,1.58A5.61,5.61,0,0,1,188.34,192.36Zm-2,0a3.94,3.94,0,0,0-1.75-3.33,6.15,6.15,0,0,0-3.73-1.09,6.08,6.08,0,0,0-4,1.25,4.12,4.12,0,0,0,0,6.38,6.13,6.13,0,0,0,4,1.22,6.05,6.05,0,0,0,4-1.23A3.93,3.93,0,0,0,186.32,192.36Z"/><path class="cls-5" d="M210,198.23h-1.94v-9.76l-1.87.81v-1.69a5.07,5.07,0,0,0,1.87-1.07H210Z"/><path class="cls-5" d="M227.62,191.83a6.19,6.19,0,0,1-4.9,2.07,6.7,6.7,0,0,1-3.87-1,3,3,0,0,1-1.43-2.64,3.3,3.3,0,0,1,1.5-2.84,8.17,8.17,0,0,1,9,.6,5.7,5.7,0,0,1,1.83,4.43,5.56,5.56,0,0,1-1.94,4.36,6.62,6.62,0,0,1-4.54,1.63,7.17,7.17,0,0,1-5.26-2l1.31-1.26a4.72,4.72,0,0,0,3.82,1.47,5.27,5.27,0,0,0,2-.35,4.12,4.12,0,0,0,1.92-1.52,4,4,0,0,0,.72-2.31A1.74,1.74,0,0,0,227.62,191.83Zm-.44-1.82c-.78-1.29-2.22-1.93-4.3-1.93a4.81,4.81,0,0,0-2.54.56,1.66,1.66,0,0,0-.93,1.47,1.75,1.75,0,0,0,.9,1.53,4.58,4.58,0,0,0,2.5.58A5,5,0,0,0,227.18,190Z"/><path class="cls-5" d="M249.71,192.39a5.73,5.73,0,0,1-1.81,4.25,6,6,0,0,1-4.34,1.77,5.93,5.93,0,0,1-4.32-1.75,5.81,5.81,0,0,1-1.82-4.27,5.75,5.75,0,0,1,1.84-4.26,6.23,6.23,0,0,1,8.62,0A5.78,5.78,0,0,1,249.71,192.39Zm-2,0a4.15,4.15,0,0,0-1.17-3.06,4.4,4.4,0,0,0-6,0,4.59,4.59,0,0,0,0,6.12,4.36,4.36,0,0,0,6,0A4.19,4.19,0,0,0,247.75,192.4Z"/><path class="cls-5" d="M268.35,198.23H256.46q.19-4.35,4.87-5.81l2.12-.58a8.55,8.55,0,0,0,1.66-.62A1.41,1.41,0,0,0,266,190a1.51,1.51,0,0,0-.83-1.34,4.46,4.46,0,0,0-2.32-.51,7.16,7.16,0,0,0-4.58,1.65l-1.23-1.3a9.29,9.29,0,0,1,5.84-2.1,6.3,6.3,0,0,1,3.77,1.06,3.17,3.17,0,0,1,1.45,2.67c0,1.55-1,2.61-3.08,3.2-.77.17-1.89.47-3.38.89a4.52,4.52,0,0,0-2.83,2.31h9.59Z"/></g></g></svg>