<svg xmlns="http://www.w3.org/2000/svg" viewBox="0 0 183.63 101.99"><defs><style>.cls-1{fill-rule:evenodd;}.cls-2,.cls-3,.cls-4{fill:none;}.cls-2,.cls-4{stroke:#b26628;stroke-miterlimit:10;}.cls-4{stroke-width:1.75px;}.cls-5{fill:#fff;}</style></defs><title>Ресурс 1</title><g><g id="Calque_1" data-name="Calque 1"><path class="cls-1" d="M74.63,79.26c.07-1.71.21-2,1.23-2.18.62-.12,1.26-.12,1.9-.18a18.57,18.57,0,0,0,3.69-.36A8.15,8.15,0,0,0,81.77,75c0-4.07,0-8.14,0-12.21a5.11,5.11,0,0,0-.08-1,1.43,1.43,0,0,0-1.48-1.27c-1,0-2.08,0-3.12,0-.55,0-1.12,0-1.67,0a1.21,1.21,0,0,1-1.07-1.09,1.32,1.32,0,0,1,1-1.22,7.59,7.59,0,0,1,1.43-.11c8.14,0,16.29,0,24.44,0a6.55,6.55,0,0,1,3.17.89c5.28,2.81,6.94,10.62,3.26,15.88-2,2.9-4.6,4.55-8.2,4.53-4.87,0-9.74,0-14.61,0-2.64,0-5.27,0-7.91,0C76.21,79.36,75.5,79.3,74.63,79.26Zm13.48-2.64a32.66,32.66,0,0,0,10.36-.4,2.55,2.55,0,0,0,.89-.32A9.16,9.16,0,0,0,103,71.23a8.39,8.39,0,0,0-1.86-8.05A5.91,5.91,0,0,0,97.74,61a37.14,37.14,0,0,0-9.06-.34,1.86,1.86,0,0,0-.6.29A113.71,113.71,0,0,0,88.11,76.62Z"/><path class="cls-1" d="M31.64,68.89v6.76a4.71,4.71,0,0,1-2.37,1.84A25.63,25.63,0,0,1,22,79.66c-1.1.17-2.22.24-3.32.46-4,.81-7.77-.18-11.57-1.06a9,9,0,0,1-2.6-1.2,6.3,6.3,0,0,1-2-1.68C0,72.52-.93,68.64,1.09,64.43a9.05,9.05,0,0,1,4.08-4.25c4.73-2.4,9.69-3.66,15-2.36,1.39.34,2.8.63,4.21.88a6.64,6.64,0,0,0,5.1-1c.22.41.55.73.56,1.07.05,1.91.06,3.83,0,5.75a1.11,1.11,0,0,1-1.87.87,4.54,4.54,0,0,1-1-1,10.52,10.52,0,0,0-4.74-3.48,11.8,11.8,0,0,0-8.19-.35c-3.36.91-5.65,3-6.24,6.54s.36,6.83,3.54,9.06A10,10,0,0,0,17,78a15,15,0,0,0,5.44-.64,1.78,1.78,0,0,0,1.37-1.75c0-.88.06-1.76,0-2.63-.09-1.73-.93-2.56-2.72-2.7-.79-.07-1.59,0-2.38-.14a.84.84,0,0,1-.55-.62,1,1,0,0,1,.5-.68,2.1,2.1,0,0,1,.94-.11h11A6,6,0,0,1,31.64,68.89Z"/><path class="cls-1" d="M146.18,78.73a4,4,0,0,1-.91.3H114.44c-.11-.43-.39-.92-.27-1.27a1.73,1.73,0,0,1,1-.87,6.45,6.45,0,0,1,1.66-.17c1-.08,2.07-.12,3.11-.23,1.47-.17,1.8-.54,1.86-1.94,0-.16,0-.32,0-.48v-11a7.85,7.85,0,0,0,0-1.19,1.56,1.56,0,0,0-1.59-1.48c-1.2-.06-2.4,0-3.6,0-.56,0-1.12,0-1.67-.06a1,1,0,0,1-.89-1,.88.88,0,0,1,.84-1,15.73,15.73,0,0,1,1.68-.07h26.13a4,4,0,0,1,2.45.36,39,39,0,0,1,.1,5.59c-1.58-.82-2.05-2.2-3-3.07a123.73,123.73,0,0,0-14.19,0,14.73,14.73,0,0,0-.23,5.44,15.06,15.06,0,0,0,6-.11,2,2,0,0,0,1.62-1.57,4.2,4.2,0,0,1,.53-1.32.94.94,0,0,1,1.41-.41,43.77,43.77,0,0,1,0,9.84,3.29,3.29,0,0,1-1.07-.23,1.79,1.79,0,0,1-.79-.87c-.61-2.07-2-2.46-3.92-2a23.38,23.38,0,0,1-2.38.23c-.31,0-.62.12-.9.17a10.63,10.63,0,0,0-.25,5.91,6.89,6.89,0,0,0,3.24.54c3,0,5.91,0,8.87,0,2.6,0,3.49-.75,4.22-3.32a6.94,6.94,0,0,1,.26-.92,1,1,0,0,1,1.17-.62c.48.07.63.46.63.88A32.29,32.29,0,0,1,146.18,78.73Z"/><path class="cls-1" d="M54.62,57.49c3.18.06,5.94.25,8.55,1.48a13.6,13.6,0,0,1,6.43,7.12,6.72,6.72,0,0,1,.27,4.47,12.27,12.27,0,0,1-3.73,6.3,12.61,12.61,0,0,1-5.84,3,24.44,24.44,0,0,1-10.63,0c-4.7-1-7.5-4-9.22-8.18a7.74,7.74,0,0,1,.64-7.12,12.93,12.93,0,0,1,11-6.93ZM63,68.88a10.61,10.61,0,0,0-.17-2.11,11.12,11.12,0,0,0-1.28-3.31c-1.18-1.69-3-2.48-5-3.12a6.3,6.3,0,0,0-4.41.46A7.33,7.33,0,0,0,47,68.13a22,22,0,0,0,.22,3.34c.56,4.45,4.53,7.61,9.6,6.57a7.61,7.61,0,0,0,5.92-7C62.84,70.34,62.9,69.63,63,68.88Z"/><path class="cls-1" d="M183.63,58.45c0,2.26,0,4.25,0,6.24a1.31,1.31,0,0,1-.23.66.49.49,0,0,1-.38.25.92.92,0,0,1-.63-.24,3.09,3.09,0,0,1-.3-.87c-.21-.68-.37-1.39-.64-2a1.82,1.82,0,0,0-1.26-1,31.15,31.15,0,0,0-8.94-.23,14.28,14.28,0,0,0-.19,1.55,95.4,95.4,0,0,0,.29,13.74,8.1,8.1,0,0,0,1.29.35c1.27.12,2.55.16,3.82.29a7.15,7.15,0,0,1,1.84.43.76.76,0,0,1,.44,1,1.2,1.2,0,0,1-.69.55,2.72,2.72,0,0,1-.95.07H158.38a.93.93,0,0,1-.94-.58.94.94,0,0,1,.63-1.13,15.1,15.1,0,0,1,2.12-.34c1.5-.15,3-.26,4.56-.39a5.59,5.59,0,0,0,.34-1.24q0-6.6,0-13.19a7.38,7.38,0,0,0-.14-1c-.26-.11-.55-.34-.83-.33-2.39.1-4.78.27-7.17.34a2.69,2.69,0,0,0-2.74,2.49,6.86,6.86,0,0,1-.3,1.39,1.1,1.1,0,0,1-.75.44c-.15,0-.38-.25-.52-.42a.87.87,0,0,1-.11-.46V58.62a6.15,6.15,0,0,1,1.38-.34c1.28-.05,2.56,0,3.84,0q12,0,24,0C182.29,58.27,182.84,58.37,183.63,58.45Z"/><polygon class="cls-2" points="91.84 20.5 88.02 23.15 89.78 18.86 86.14 16.15 90.37 16.15 91.9 11.67 93.43 16.15 97.66 16.15 94.01 18.86 95.78 23.15 91.84 20.5"/><path class="cls-3" d="M108.33.88H75.8s-.39,28.87,0,30,.79,6.39,10.6,6.39c0,0,2.19-.12,5.66,3.11,3.48-3.23,5.67-3.11,5.67-3.11,9.81,0,10.21-5.3,10.6-6.39s0-30,0-30"/><path class="cls-4" d="M108.33.88H75.8s-.39,28.87,0,30,.79,6.39,10.6,6.39c0,0,2.19-.12,5.66,3.11,3.48-3.23,5.67-3.11,5.67-3.11,9.81,0,10.21-5.3,10.6-6.39S108.33.88,108.33.88Z"/><path class="cls-5" d="M98.3,5.48c.08.69,3,.7,3,.7h-.18s2.88,0,3-.7L103,13.68a5.09,5.09,0,0,1-3.6,0l-1-8.22a.1.1,0,0,1,0,0c.08-.15.5-.59,2.83-.7h0c2.33.11,2.76.55,2.84.7a.18.18,0,0,1,0,0L103,13.68a5.09,5.09,0,0,1-3.6,0"/><path class="cls-2" d="M98.56,4.86c.09.72,3.08.73,3.08.73h-.19s3,0,3.08-.73l-1.13,8.53a5.24,5.24,0,0,1-3.75,0L98.56,4.84a.15.15,0,0,1,0-.06c.08-.15.52-.62,3-.72h0c2.43.1,2.88.57,3,.72a.15.15,0,0,1,0,.06l-1.1,8.55a5.21,5.21,0,0,1-3.74,0"/><path class="cls-5" d="M80.3,5.5c.08.69,3,.7,3,.7h-.18s2.88,0,3-.7l-1.09,8.2a5.09,5.09,0,0,1-3.6,0l-1-8.22,0-.05c.08-.15.51-.59,2.84-.7h0c2.33.11,2.76.55,2.84.7a.18.18,0,0,1,0,.05L85,13.7a5.06,5.06,0,0,1-3.59,0"/><path class="cls-2" d="M80.3,5.5c.08.69,3,.7,3,.7h-.18s2.88,0,3-.7l-1.09,8.2a5.09,5.09,0,0,1-3.6,0l-1-8.22,0-.05c.08-.15.51-.59,2.84-.7h0c2.33.11,2.76.55,2.84.7a.18.18,0,0,1,0,.05L85,13.7a5.06,5.06,0,0,1-3.59,0"/><path class="cls-5" d="M89.07,27.57c.08.69,3,.7,3,.7h-.18s2.88,0,3-.7l-1.09,8.2a5.06,5.06,0,0,1-3.59,0l-1.05-8.22a.28.28,0,0,1,0-.05c.08-.15.51-.59,2.84-.7h0c2.33.11,2.75.55,2.83.7a.16.16,0,0,1,0,.05l-1,8.22a5.08,5.08,0,0,1-3.6,0"/><path class="cls-2" d="M89,26.41c.08.71,3.08.72,3.08.72h-.19s3,0,3.08-.72l-1.14,8.53a5.28,5.28,0,0,1-3.74,0L89,26.38a.18.18,0,0,1,0-.05c.08-.16.53-.62,3-.73h0c2.43.11,2.87.57,3,.73a.18.18,0,0,1,0,.05l-1.09,8.56a5.3,5.3,0,0,1-3.75,0"/></g><g id="Calque_2" data-name="Calque 2"><path class="cls-1" d="M51.24,96.53l-.59,0c-.2.88.07,1.76-.12,2.62a2.06,2.06,0,0,1-1.49.07c.08-.34.3-.59.25-.93a5.27,5.27,0,0,1,0-.89c0-1,0-2,0-3a1,1,0,0,0-.29-.94c-.21-.18,0-.51.25-.53s.54,0,.81,0c.72,0,1.44,0,2.16,0a1.31,1.31,0,0,1,1.28.84,2.93,2.93,0,0,1,.23.78,1.3,1.3,0,0,1-.45,1.33l-.46.42c.07.15.11.29.18.41.25.4.5.8.76,1.19a3,3,0,0,0,.85.92.23.23,0,0,1,.09.32c0,.07-.16.11-.24.15a.37.37,0,0,1-.15,0c-1.27,0-1,.12-1.66-.86C52.17,97.83,51.7,97.2,51.24,96.53ZM50.64,94a6,6,0,0,0,0,1.75l.7,0a4,4,0,0,0,.59-.08.86.86,0,0,0,.59-1.26,4.13,4.13,0,0,0-.34-.54A4.55,4.55,0,0,0,50.64,94Z"/><path class="cls-1" d="M75.39,99.39c-.36.1-.64.18-.93.24a.27.27,0,0,1-.32-.23,3.81,3.81,0,0,1,0-.59c0-.42,0-.84,0-1.26a2.83,2.83,0,0,0-.08-1,8.85,8.85,0,0,0-2.62,0,5.6,5.6,0,0,0,0,1.53,8.14,8.14,0,0,1,0,1.48,1.67,1.67,0,0,1-1,.06,16.55,16.55,0,0,1-.06-2.22c0-.75,0-1.49,0-2.23s0-1.48,0-2.25a1.15,1.15,0,0,1,1,.13c.19.83-.07,1.72.2,2.59.82,0,1.6,0,2.4-.09.26-.84,0-1.68.25-2.48l.42-.14c.49-.11.76.1.77.6,0,1.09,0,2.18,0,3.27Z"/><path class="cls-1" d="M58.5,93a4,4,0,0,1,1.66.32,2.4,2.4,0,0,1,1.53,1.78,3.39,3.39,0,0,1-.79,3.38,3.82,3.82,0,0,1-2.14,1.08A2.61,2.61,0,0,1,56.59,99a5.71,5.71,0,0,1-1-.82,2.77,2.77,0,0,1-.56-2.65A3.13,3.13,0,0,1,58.28,93Zm1.89,3.42c0-.3,0-.53,0-.75a2.79,2.79,0,0,0-.51-1.45,1.67,1.67,0,0,0-1.32-.71,1.81,1.81,0,0,0-1.94,1.29,4.61,4.61,0,0,0,.18,3.33,1.33,1.33,0,0,0,1.21.84,2.09,2.09,0,0,0,2.17-1.25A4.24,4.24,0,0,0,60.39,96.37Z"/><path class="cls-1" d="M44.45,99.44a2.08,2.08,0,0,1-1,.06l-.66-1.25a3.52,3.52,0,0,0-.35-.56.57.57,0,0,0-.37-.2c-.64,0-1.28,0-1.95,0l-.49.93c-.17.33-.35.66-.54,1a.3.3,0,0,1-.25.11c-.09-.06-.21-.18-.21-.27a1.07,1.07,0,0,1,.12-.49c.68-1.35,1.2-2.76,1.8-4.15A4.44,4.44,0,0,0,41,92.8a1.25,1.25,0,0,1,1,.68,5.29,5.29,0,0,1,.25.54c.57,1.51,1.39,2.9,2,4.38A1.21,1.21,0,0,1,44.45,99.44ZM40.6,96.5a1.26,1.26,0,0,0,1.11.1c.13-.33-.06-.59-.18-.84s-.12-.34-.39-.31A2.74,2.74,0,0,0,40.6,96.5Z"/><path class="cls-1" d="M27.2,99.44a2.09,2.09,0,0,1-1,.06c-.23-.42-.44-.84-.67-1.25a2.88,2.88,0,0,0-.34-.56.59.59,0,0,0-.38-.2c-.64,0-1.28,0-1.95,0-.17.33-.32.63-.48.93s-.35.66-.55,1a.28.28,0,0,1-.24.11c-.1-.06-.21-.18-.21-.27a1,1,0,0,1,.12-.49c.68-1.35,1.2-2.76,1.79-4.15a4.62,4.62,0,0,0,.49-1.78,1.23,1.23,0,0,1,1,.68c.08.18.19.35.26.54.56,1.51,1.38,2.9,2,4.38A1.24,1.24,0,0,1,27.2,99.44ZM23.35,96.5a1.26,1.26,0,0,0,1.11.1c.12-.33-.07-.59-.18-.84s-.13-.34-.39-.31A2.74,2.74,0,0,0,23.35,96.5Z"/><path class="cls-1" d="M66.14,99.71a3.46,3.46,0,0,1-3.3-2.49,3.57,3.57,0,0,1,.35-2.44,2.87,2.87,0,0,1,1.48-1.39A4.55,4.55,0,0,1,67.41,93a2.19,2.19,0,0,1,1.27.73,1.21,1.21,0,0,1,.2.3.47.47,0,0,1-.08.61.6.6,0,0,1-.63-.06,2.15,2.15,0,0,1-.18-.24,2.14,2.14,0,0,0-2.85-.49,2,2,0,0,0-.83,1.2,3.46,3.46,0,0,0,.57,3,1.78,1.78,0,0,0,1.47.74A2.06,2.06,0,0,0,68.2,98a.52.52,0,0,1,.64-.23c.17.06.27.3.15.42C68.18,99,67.35,99.81,66.14,99.71Z"/><path class="cls-1" d="M81.24,92.87c.09.26.11.48-.06.62a.9.9,0,0,1-.46.19c-.47,0-.94,0-1.41,0-.24,0-.48,0-.71,0a5,5,0,0,0,0,2,3.58,3.58,0,0,0,.87,0c.32,0,.64,0,1,0s.26.22.15.39a.5.5,0,0,1-.44.23h-1l-.6,0a9.57,9.57,0,0,0,0,1.93,2,2,0,0,0,1,.19c.44,0,.89,0,1.34,0a.92.92,0,0,1,.67.25.36.36,0,0,1,.07.26.35.35,0,0,1-.18.22.49.49,0,0,1-.22,0H77c-.15-.23,0-.37.12-.47a.94.94,0,0,0,.27-.74c0-1.42,0-2.83,0-4.24a.89.89,0,0,0-.24-.67c-.15-.15,0-.39.21-.43h.29c1.09,0,2.18,0,3.27,0Z"/><path class="cls-1" d="M95.58,93.71a15.71,15.71,0,0,0,0,2.05c.24,0,.44,0,.63,0,.42,0,.84,0,1.26,0a.29.29,0,0,1,.21.16.3.3,0,0,1-.06.26.74.74,0,0,1-.38.2c-.27,0-.54,0-.81,0a1.63,1.63,0,0,0-.73.07,4.62,4.62,0,0,0,0,1.93,1.75,1.75,0,0,0,.91.17H98a.89.89,0,0,1,.66.28.28.28,0,0,1-.09.44.92.92,0,0,1-.29,0H94.17a.44.44,0,0,1-.15-.05c-.06-.23.12-.36.25-.5a.76.76,0,0,0,.19-.54V93.85a.72.72,0,0,0-.21-.53c-.18-.2,0-.43.21-.47H98.2a.42.42,0,0,1,.15.44.38.38,0,0,1-.32.36,4.68,4.68,0,0,1-.74,0C96.74,93.71,96.2,93.71,95.58,93.71Z"/><path class="cls-1" d="M84.49,98.51c.53,0,1,.06,1.42.07s.84,0,1.26,0a3.35,3.35,0,0,1,.54.12c-.07.23-.12.41-.19.59a.41.41,0,0,1-.36.22H83.29a.51.51,0,0,1-.44-.22.25.25,0,0,1,.1-.42,1.65,1.65,0,0,1,.32-.08c0-.2,0-.39,0-.58,0-1.42,0-2.83,0-4.24,0-.27,0-.55,0-.82a.51.51,0,0,1,1-.07,6.13,6.13,0,0,1,.11,1c0,1.21,0,2.42,0,3.64C84.5,97.91,84.49,98.16,84.49,98.51Z"/><path class="cls-1" d="M35.25,98.5c.43,0,.84.07,1.26.08s.89,0,1.34,0a2.72,2.72,0,0,1,.45.1.7.7,0,0,1-.1.61.42.42,0,0,1-.36.22H34.05a.55.55,0,0,1-.52-.23c-.12-.17-.1-.32.1-.41a2.64,2.64,0,0,1,.37-.13V93.89c0-.24,0-.49,0-.74a.46.46,0,0,1,.46-.48.46.46,0,0,1,.54.39,13.31,13.31,0,0,1,.12,1.55c0,1.19,0,2.38,0,3.56A1.66,1.66,0,0,0,35.25,98.5Z"/><path class="cls-1" d="M88.9,98.76V94c0-.27,0-.54,0-.81a.45.45,0,0,1,.4-.46.47.47,0,0,1,.59.33,3.47,3.47,0,0,1,.1.73c0,1.28,0,2.57.08,3.86v.83a3.76,3.76,0,0,0,1.27.16c.47,0,.94,0,1.41,0a3.28,3.28,0,0,1,.52.13c-.07.21-.11.37-.16.53a.44.44,0,0,1-.41.27H89c-.23,0-.45,0-.59-.23a.25.25,0,0,1,.13-.41A2.83,2.83,0,0,1,88.9,98.76Z"/><path class="cls-1" d="M155.63,95.48a9.5,9.5,0,0,0,.83.66,1.3,1.3,0,0,1,.62,1.21A4.71,4.71,0,0,1,157,98.4a1.11,1.11,0,0,1-.29.53,4.22,4.22,0,0,1-2,1.2,2.38,2.38,0,0,1-.88.06,7.15,7.15,0,0,1-1.3-.27,1.64,1.64,0,0,1-1.2-2.4,2.92,2.92,0,0,1,1-1.35l.78-.65c-1.09-.56-1-1.57-1.12-2.5,0-.12.09-.27.18-.38a3.55,3.55,0,0,1,1.15-.8.63.63,0,0,1,.43,0c.53.08,1,.18,1.57.29a1.8,1.8,0,0,1,1.28,1,1.55,1.55,0,0,1-.19,1.67A8.56,8.56,0,0,1,155.63,95.48Zm-1.55.51a3,3,0,0,0-1.66,1.55,1.16,1.16,0,0,0,.31,1.51,1.76,1.76,0,0,0,1.72.41,1.43,1.43,0,0,0,.76-2.5C154.86,96.62,154.46,96.31,154.08,96Zm1.47-2.34c0-.63-.12-.8-.62-.93a2.76,2.76,0,0,0-.69-.11,1.21,1.21,0,0,0-1.1.62c-.22.35-.06.66.15,1,.1.14.17.31.27.45a1.05,1.05,0,0,0,1.28.21A1.48,1.48,0,0,0,155.55,93.65Z"/><path class="cls-1" d="M159.64,95.51c-1.11-.55-1-1.55-1.13-2.44a.62.62,0,0,1,.15-.39,3.47,3.47,0,0,1,1.22-.86.6.6,0,0,1,.35,0c.58.11,1.16.21,1.73.35a1.83,1.83,0,0,1,1.19,1,1.54,1.54,0,0,1-.24,1.66,6.67,6.67,0,0,1-.65.67l.84.69a1.63,1.63,0,0,1,.38.36A2.37,2.37,0,0,1,163.2,99a4.4,4.4,0,0,1-1.55,1,2.67,2.67,0,0,1-1.65.11c-.23-.07-.48-.07-.7-.14a6.93,6.93,0,0,1-1-.42,1.22,1.22,0,0,1-.6-1.12,2.67,2.67,0,0,1,1-2.11C159,96.07,159.26,95.84,159.64,95.51Zm1.11.52a1.74,1.74,0,0,0-1.11.66,4.72,4.72,0,0,0-.64.94,1.07,1.07,0,0,0,.22,1.3,1.81,1.81,0,0,0,1.85.53,1.43,1.43,0,0,0,.76-2.5C161.48,96.61,161.08,96.31,160.75,96ZM161,92.6a1.49,1.49,0,0,0-1.07.42.75.75,0,0,0-.17.89,4.87,4.87,0,0,0,.46.75,1,1,0,0,0,1.19.23,1.58,1.58,0,0,0,.8-1.47.65.65,0,0,0-.56-.68C161.37,92.67,161.11,92.63,161,92.6Z"/><path class="cls-1" d="M145.92,93.07a2.47,2.47,0,0,1,1.56-.06c.63.21,1.37-.06,2,.41,0,.24-.06.46-.09.68a.89.89,0,0,1-.26.13,5.32,5.32,0,0,1-.79,0c-.27,0-.53-.09-.79-.07a11.73,11.73,0,0,0-1.19.17c0,.18,0,.34-.06.53.15.07.27.14.4.19l1.81.72a1.09,1.09,0,0,1,.23.14,3.54,3.54,0,0,1,1,2.38,2.11,2.11,0,0,1-.76,1.73,12,12,0,0,1-1.42,1,7.39,7.39,0,0,1-1.91.68,4.36,4.36,0,0,1-.87.19,1.42,1.42,0,0,1-.5,0,.23.23,0,0,1-.05-.37,1.82,1.82,0,0,1,.31-.16,3.09,3.09,0,0,1,.59-.18,5.88,5.88,0,0,0,2.8-1.44.77.77,0,0,0,.18-.18c.43-.56.36-2.19-.55-2.58a4.34,4.34,0,0,0-1.73-.31c-.48,0-.64-.09-.63-.52A8.7,8.7,0,0,1,145.92,93.07Z"/><path class="cls-1" d="M141.38,98.44c0-.25,0-.51,0-.78,0-.91,0-1.83,0-2.75,0-.65,0-.64-.65-.61a4.3,4.3,0,0,1-.62,0c-.07,0-.13-.09-.22-.15a1,1,0,0,1,.8-.48c.56-.11,1.08-.54,1.73-.23a2.14,2.14,0,0,1,.06.35c0,1.21,0,2.43,0,3.64a2.58,2.58,0,0,0,.34,1.75c-.05,0-.09.09-.13.09l-2.4,0c-.13,0-.26-.06-.24-.19a.32.32,0,0,1,.21-.23A3.61,3.61,0,0,0,141.38,98.44Z"/><path class="cls-1" d="M102.77,93c1.88-.21,3.79-.51,5.57.38a3,3,0,0,1,.31,5.22,3.57,3.57,0,0,1-2.65.88c-.72-.07-1.45,0-2.17,0-.19,0-.38-.18-.57-.27a2.61,2.61,0,0,0,.24-.43,1.53,1.53,0,0,0,.13-.51c0-1.32,0-2.65,0-4,0-.43,0-.79-.56-.82-.11,0-.21-.13-.31-.2Zm2,5.5c.92,0,1.71,0,2.49,0a1.24,1.24,0,0,0,.74-.36,2.72,2.72,0,0,0,.29-3.12,3,3,0,0,0-3.14-1.62.56.56,0,0,0-.36.4C104.73,95.3,104.74,96.85,104.74,98.47Z"/><path class="cls-1" d="M122.21,92.75h1.33v2c0,.75,0,1.49,0,2.24a1.6,1.6,0,0,0,.74,1.66,2.29,2.29,0,0,0,2.21-.06,1.64,1.64,0,0,0,.65-1.58c0-1.24,0-2.48,0-3.72v-.63h.76v.65c0,1.22,0,2.44,0,3.66a2.07,2.07,0,0,1-1.7,2.45c-1.14.33-2.39.42-3.23-.71a3.8,3.8,0,0,1-.65-1.55,13.63,13.63,0,0,1,0-1.92C122.28,94.41,122.25,93.6,122.21,92.75Z"/><path class="cls-1" d="M133.76,92.38a2.09,2.09,0,0,1,2,1.18,1.62,1.62,0,0,1-.07.61c-.2-.09-.51-.14-.59-.3a1.35,1.35,0,0,0-1.48-.78,1.22,1.22,0,0,0-.88.5,1.07,1.07,0,0,0,.29,1,16.87,16.87,0,0,0,2.13,1.38c.89.51,1.27,1.1,1.11,1.86a2.43,2.43,0,0,1-3.65,1.27,5.29,5.29,0,0,1-.89-1.24c-.06-.1,0-.29.06-.44.15,0,.35,0,.44.09a2.86,2.86,0,0,1,.46.58,1.56,1.56,0,0,0,2.06.63c.67-.29.77-.88.19-1.32s-1.4-1-2.13-1.4c-1.17-.71-1.52-1.65-.92-2.68A2.26,2.26,0,0,1,133.76,92.38Z"/><path class="cls-1" d="M112.87,96.45a1.59,1.59,0,0,0-.08.22c-.13,2.06-.15,1.87,1.61,1.9a4.6,4.6,0,0,1,1,.06c.15,0,.26.26.39.4-.15.1-.31.28-.47.28-1.36,0-2.73,0-4.16,0,.79-1.7.28-3.44.42-5.14a1.57,1.57,0,0,0-.12-.78c-.33-.58,0-.64.44-.65,1,0,2,0,3,0,.19,0,.37.2.56.31-.19.17-.37.46-.58.49a8.64,8.64,0,0,1-1.61.05c-.43,0-.61.18-.61.58v1.53c.62,0,1.12,0,1.61,0,.16,0,.31.17.47.26-.15.12-.29.33-.45.35C113.88,96.42,113.37,96.42,112.87,96.45Z"/><path class="cls-1" d="M118.08,96.45v2.82h-1.54a5.77,5.77,0,0,0,.28-2.81c0-.93,0-1.86,0-2.79a5.76,5.76,0,0,0-.15-.79,6.44,6.44,0,0,1,1.06-.15A17.11,17.11,0,0,1,120,93a1.88,1.88,0,0,1,1.4,1.94,1.86,1.86,0,0,1-1.81,1.55Zm0-.63c.77,0,1.63.26,2.06-.54a1.79,1.79,0,0,0,0-1.45c-.42-.75-1.24-.65-2-.59Z"/><path class="cls-1" d="M130.38,99.28h-1.22c.46-1.53.14-3.06.23-4.56,0-.39,0-.79,0-1.18,0-.86.06-.9,1-.67v6.41Z"/><path class="cls-1" d="M26.67,92.9c-.16,0-.45.22-.58.13a13.64,13.64,0,0,1-1.93-1.44c-.1-.11,0-.62.18-.7C24.71,90.69,26.73,92.29,26.67,92.9Z"/></g></g></svg>