<svg xmlns="http://www.w3.org/2000/svg" viewBox="0 0 312.72 89.34"><defs><style>.cls-1{fill:#c7961d;}.cls-2{fill:#21314b;}</style></defs><title>Ресурс 1</title><g><g data-name="Layer 1"><path class="cls-1" d="M94.29,30.93c-.1-.85-.67-1.69-4.09-1.69h-.89v1.35H91.5A8.62,8.62,0,0,1,94.29,30.93Zm18.55,26.64c-.86-1.14-1.43-3-1.43-5.91V19.38H110v31C110,54.74,111.25,56.7,112.84,57.57ZM124,30.93c-.09-.85-.67-1.69-4.08-1.69h-.88v1.35h2.17A8.58,8.58,0,0,1,124,30.93Zm17.55,28.45a7.5,7.5,0,0,1-.21-1.7V19.38H140V56.44C140,58.3,140.23,59.06,141.57,59.38ZM150.9,31.5a13.73,13.73,0,0,1,1.71-.21,5.26,5.26,0,0,0-.13-1.37,2.42,2.42,0,0,0-.53,0l-.28,0a14.19,14.19,0,0,0-1.88.21l-.2,0-.83.16-.44.09V32l1.74-.33ZM73.1,19.12a7.47,7.47,0,0,0,7.45-7.29,7.19,7.19,0,0,0-3.26-6.06,7.1,7.1,0,0,1,1.87,4.8,5.25,5.25,0,0,1-.11,1A7.35,7.35,0,0,1,73,17.64a7.48,7.48,0,0,1-1.16.12A7.37,7.37,0,0,1,67,15.86,7.61,7.61,0,0,0,73.1,19.12ZM63.73,31.5a15,15,0,0,1,1.68-.23,4.34,4.34,0,0,0-.13-1.35,3.39,3.39,0,0,0-.54,0l-.36,0a12.54,12.54,0,0,0-1.78.21l-.19,0-.85.17-.42.08V32l1.74-.34Zm18.88,28a7.45,7.45,0,0,1-.29-2.53v-39l-1.39.58V55.68C80.93,58.13,81.24,59.11,82.61,59.46ZM282.42,35.39c1.14-6.16,5.3-10,8.21-10l.48,0a6.93,6.93,0,0,1,4.52,1.79A7.36,7.36,0,0,0,289.81,24h-.47c-3.15,0-7.78,4.38-8.55,11.36h1.63ZM217.59,19.12A7.47,7.47,0,0,0,225,11.83a7.18,7.18,0,0,0-3.27-6.06,7,7,0,0,1,1.89,4.8,7.73,7.73,0,0,1-.11,1,7.36,7.36,0,0,1-6.07,6.09,7.61,7.61,0,0,1-1.17.12,7.34,7.34,0,0,1-4.81-1.93A7.69,7.69,0,0,0,217.59,19.12Zm9.74,40.34a7.77,7.77,0,0,1-.28-2.53V18l-1.39.58V55.68C225.66,58.13,226,59.11,227.33,59.46ZM255,18.3V5.74l-1.39,1V18.3ZM197.47,56.08c0,2.33.18,3.1,1.56,3.39a8.92,8.92,0,0,1-.16-2.13V36.41c0-9-2.73-13.64-6-16,2.64,2.63,4.64,7.12,4.64,14.75Zm11-24.58a15.66,15.66,0,0,1,1.7-.23,4.66,4.66,0,0,0-.13-1.35,3.27,3.27,0,0,0-.54,0h-.26a14.1,14.1,0,0,0-1.89.22l-.19,0-.85.16-.43.09V32l1.74-.33Zm-40.11.76V56.57c.06,1.88.21,2.59,1.57,2.9a6.92,6.92,0,0,1-.17-1.64V33.08c3.46-2.33,6.12-3.41,8.29-3.41a5.52,5.52,0,0,1,3,.74,4.56,4.56,0,0,0-4.29-2.1h0c-2.24,0-4.84,1.08-8.37,3.46Zm1.2-14.32-1.39.58v5.12l1.39-.92ZM306.1,23.27c3.38,3.66,5.22,8.78,5.22,15.12v4.14H280.64c.27,8,2.29,13.36,6,16-2.81-2.87-4.36-7.75-4.61-14.63h30.69V39.66C312.72,32.62,310.34,27,306.1,23.27ZM202.75,66.52H177.37v1.36h26.77v-7l-1.39-.07Zm28.7,0h-25.7v1.36h27.09V60.8h-1.39Zm-57.84-.09H148.12v1.35H175V60.92l-1.39-.07Zm-28.25-5.6v5.62H125.25l0,1.35h21.48V61l-1.33-.12Zm85.86-33.4h6.61V26.07h-6.61ZM307.57,63l-.32.28c-1.65,1.4-5.22,3.6-11.87,4.31a40.51,40.51,0,0,1-4.31.23h-.19c-7.6,0-13.67-2-18-5.8,4.43,4.62,11,7.16,19.3,7.16h.18c9.53,0,14.26-2.88,16.23-4.57l-.79-1.25ZM265,63.8l0,0c-1.85,1.8-5.92,3.4-9.47,3.87a14.7,14.7,0,0,1-1.94.15c-5.25,0-9.12-1.14-11.7-3.49,2.51,3.27,6.8,4.84,13,4.84a20.17,20.17,0,0,0,11-3.66l-.68-1.33Zm2-43.66-.29.79-1.53,4.23-.29.81,0,.1H253.58V53.15c0,4.46.58,6.85,1.72,7.11a1.86,1.86,0,0,0,.34,0,17.8,17.8,0,0,1-.68-5.89v-27h11.23l.36-1,1.81-5,.72-2h-1.86ZM2.06,6.8a8.07,8.07,0,0,1,2.82.43C4.21,5.62,2.94,5.55.77,5.45l-.67,0H0V6.7l1.39.07Zm86.06,54h-1.4v5.72H61v1.36H88.12Zm-65,10.25a11,11,0,0,1-.56-4.43V42l2.15-.08c-.16-.46-.32-.91-.48-1.39l-3.06.12V65.36C21.13,69.14,21.51,70.51,23.08,71.05Zm4.67,7.16H0v1.36H29.13v-6.9l-1.38-.06ZM113,77.77l-.33.27c-1.16.88-10.58,7.71-25.84,9.49a62.12,62.12,0,0,1-7.28.43l-1.37,0a48.37,48.37,0,0,1-27.59-8.71,55.55,55.55,0,0,1-9-7.79,56,56,0,0,0,10.2,9.13,48.55,48.55,0,0,0,27.66,8.73l1.36,0c19.92,0,32.53-9.44,33.18-9.94l-.79-1.24ZM24,5.94c-.24,0-1.45,0-2.85.09v27h1.39V7.38l2.77-.09c6,0,10.44,1.38,13.37,4.1C35.81,7.78,30.91,5.94,24,5.94ZM124.05,64.41s0-.26,0-.7v-.4a36.72,36.72,0,0,1-13.71,4.89,20,20,0,0,1-2.27.15,13.48,13.48,0,0,1-9.4-3.25c2.36,3,6,4.61,10.69,4.61,1.69,0,7.27-.39,14.71-4.35v-1ZM60.6,70.3a56.89,56.89,0,0,1-7.82-8.82,65.88,65.88,0,0,1-10.14-21C54.26,38,59.11,26.55,59.11,20.7c0-6.72-2.52-12-7-15.55,3.6,3.47,5.6,8.33,5.6,14.28a11.57,11.57,0,0,1-.08,1.28C57,26.79,52.07,36.84,41.22,39.13l0,.08A65.7,65.7,0,0,0,51.41,60.27,54.82,54.82,0,0,0,60.6,70.3Z"/><path class="cls-2" d="M85.36,61h-.7c-4,0-5.1-1.2-5.1-5.34V18.89l-1,.41a103.67,103.67,0,0,1-16.73,5.39l-.55.13V29l.85-.16a15.52,15.52,0,0,1,2.59-.28c1.54,0,2.05.42,2.05,2.87V56c0,3.86-1.06,5-4.9,5.05h-.68v4.12H85.36Zm24.39,12.87A47.89,47.89,0,0,1,85,80.6,51.77,51.77,0,0,1,77.32,80C53.65,75.48,41.5,48,39.58,38c11.84-1.67,16.77-12.83,16.77-18.6C56.35,7.84,48.25.65,35.2.65,29.4.65,5.09.19.91,0L.17,0V4.05l.67,0c4.66.23,6,1.37,6,8.48v53.7c0,4.69-.86,6.29-6,6.53l-.68,0v4h26.2v-4l-.67,0c-4.82-.23-5.93-1.61-5.93-7.43V39.3l5.39-.2c5.83,17.95,14.63,31.08,26.18,39a47,47,0,0,0,26.81,8.48c.45,0,.9,0,1.32,0,20,0,32.24-9.56,32.35-9.65l.49-.39-2-3Zm-84-39.46h-6V4.71c1.88-.08,3.87-.14,4.21-.14C36.45,4.57,43,10.42,43,21.48,43,29.22,36.08,34.43,25.73,34.43Zm46.09-18a6,6,0,0,0,6-5.82,5.84,5.84,0,0,0-6-5.81,6,6,0,0,0-6,5.81A6.13,6.13,0,0,0,71.82,16.39Zm144.48,0a6,6,0,0,0,6-5.82,5.84,5.84,0,0,0-6-5.81,6,6,0,0,0-6,5.81A6.22,6.22,0,0,0,216.3,16.39Zm8,39.29V18.89l-1,.41a101.75,101.75,0,0,1-16.74,5.38l-.53.13V29l.85-.16a14.43,14.43,0,0,1,2.59-.28c1.54,0,2.05.42,2.05,2.87V56c0,3.86-1.06,5-4.9,5.05h-.7v4.12h24.15V61h-.7C225.42,61,224.28,59.82,224.28,55.68Zm39.59-31,1.82-5H252.2V7.34l-1.12.82a49.37,49.37,0,0,1-5.84,3.2,45.14,45.14,0,0,1-5.52,2.4l-.51.14v5.78h-7.82v5h7.82V53.06c0,9.28,4.41,13.42,14.31,13.42,3.52,0,8.5-1.73,10.45-3.63l.36-.35-1.88-3.61-.69.63a10.24,10.24,0,0,1-5.82,2.18,4.35,4.35,0,0,1-.93-.1c-2.47-.58-2.81-4.6-2.81-8.45V24.71ZM138.6,56.49V19.59h-2l-.12,0a78.55,78.55,0,0,1-16.69,4.12l-.6.08v4h.71c4.81,0,5.48,1.72,5.48,3.57V56c-3.51,2.36-6.8,3.61-9.55,3.61-4.85,0-7.21-3-7.21-9.17V19.59h-1.75l-.12,0a78.8,78.8,0,0,1-16.7,4.12l-.6.08v4h.71c4.82,0,5.48,1.72,5.48,3.57V53.06c0,9,4.4,13.92,12.38,13.92,3.87,0,10.38-1.62,17.35-6.11,0,2,0,3.53,0,3.53v.68H144V61l-.92-.08C139.63,60.76,138.72,59.72,138.6,56.49ZM310,38.39c0-12.6-7.73-20.13-20.67-20.13-11.14,0-22.69,9.08-22.69,24.27s8.85,23.93,24.28,23.93h.19c9.05,0,13.46-2.67,15.28-4.23l.43-.37-2-3.21-.62.33a18.52,18.52,0,0,1-10.37,2.83l-1.42,0c-8.48-.41-13-7.34-13.16-20.62H310ZM284.3,36.77c-2.86,0-4.29,0-5,0,.28-8.61,6-14.08,10-14.08l.47,0c4.86,0,9.77,4.36,10,14.08C297.45,36.73,289.73,36.77,284.3,36.77ZM196.1,56.08V35.14c0-13.95-6.73-16.88-12.37-16.88-5,0-10.33,3.44-17,8V18.89l-1,.41A100.55,100.55,0,0,1,149,24.68l-.54.13V29l.83-.16a15,15,0,0,1,2.62-.28c1.53,0,2,.42,2,2.87,0,0,0,21.83,0,24.68,0,3.63-.76,4.85-5,5h-.68v4h23.95v-4l-.68,0c-3.56-.17-4.52-1.09-4.61-4.41V31.05c4.1-2.84,7.11-4.11,9.77-4.11,5.37,0,6.5,4,6.5,7.31V56c0,4-1,5-5,5.05h-.69v4.12h23.85v-4.1l-.68,0C197,60.84,196.1,59.91,196.1,56.08Z"/></g></g></svg>