<svg xmlns="http://www.w3.org/2000/svg" viewBox="0 0 297.51 187.77"><defs><style>.cls-1{fill:#1d1d1b;}.cls-2{fill:#dcb541;}.cls-3{fill:#937147;}</style></defs><title>Ресурс 1</title><g><g id="Livello_1"><path class="cls-1" d="M107.23,130q-8.52-6.79-22.76-6.8A36.85,36.85,0,0,0,70,125.84a27.89,27.89,0,0,0-11,7.48,14.36,14.36,0,0,0-3.93,10,14.75,14.75,0,0,0,4,10,27.77,27.77,0,0,0,11,7.39,39.09,39.09,0,0,0,15.05,2.63A38.18,38.18,0,0,0,100,160.72a27.54,27.54,0,0,0,10.94-7.43,14.27,14.27,0,0,0,3.89-9.95Q114.78,135.89,107.23,130Zm-9.61,26.74c-3.09,3.37-7.31,5-12.64,5s-9.35-1.67-12.49-5-4.68-7.82-4.68-13.38q0-10.07,6.69-15.28c2.77-2.17,6.43-3.24,11-3.24a16.74,16.74,0,0,1,7.19,1.64A15.39,15.39,0,0,1,99.77,133a20.06,20.06,0,0,1,2.52,10.11Q102.29,151.69,97.62,156.72Zm176.2-32.8v1.64q6.31,0,9,3.17,1.6,1.82,1.61,5.67v17.33l-33.59-27.81H230.91v1.64h.65a14.32,14.32,0,0,1,7,1.42,4.26,4.26,0,0,1,2.29,4.36v20.9c0,2.68-.41,4.52-1.23,5.49A7.86,7.86,0,0,1,236,160a17.59,17.59,0,0,1-5.92.94v1.69H254v-1.69q-6.41,0-9.23-3.12c-1.07-1.22-1.6-3.1-1.6-5.67V129.18l41.3,33.43h2.25V134.28q0-4,1.16-5.49a8.69,8.69,0,0,1,3.79-2.27,17,17,0,0,1,5.88-1v-1.64ZM39,157.8q-4.63,3.12-11.9,3.12H11.7l18.83-18.76L46.17,125.5v-1.58H3.56V137h2q2.84-11.52,18.76-11.51H34.6L18.9,142.16,0,160.85v1.76H48.28V149.13H45.51A16.62,16.62,0,0,1,39,157.8Zm152.55-32.24h5.23a5.08,5.08,0,0,1,2.83.74,3.73,3.73,0,0,1,1.61,2,12.2,12.2,0,0,1,.58,2.07A9.76,9.76,0,0,1,202,132v22.49a7.28,7.28,0,0,1-1.43,4.54,4.46,4.46,0,0,1-3.74,1.87h-5.23v1.69h31.19v-1.69h-5.22c-3.41,0-5.1-2.14-5.1-6.41V132a7.54,7.54,0,0,1,1.38-4.56,4.33,4.33,0,0,1,3.72-1.9h5.22v-1.64H191.56Zm-30.88,0q6.33,0,9,3.17,1.6,1.82,1.6,5.67v17.33l-33.6-27.81H117.78v1.64h.65a14.28,14.28,0,0,1,7,1.42,4.3,4.3,0,0,1,2.31,4.36v20.9c0,2.68-.43,4.52-1.25,5.49a7.81,7.81,0,0,1-3.67,2.25,17.57,17.57,0,0,1-5.93.94v1.69h23.93v-1.69q-6.41,0-9.24-3.12c-1.06-1.22-1.61-3.1-1.61-5.67V129.18l41.31,33.43h2.26V134.28q0-4,1.15-5.49a8.75,8.75,0,0,1,3.79-2.27,17.17,17.17,0,0,1,5.89-1v-1.64h-23.7Z"/><path class="cls-2" d="M116.84,110l-5.71-8.47H109.6v9.86h1.57v-7.13l4.8,7.13h1.74l4.8-7.13v7.13h1.57v-9.86h-1.54Zm-55.66,1.39h1.57v-4.24h10V105.8h-10v-2.92h10v-1.35H61.18Zm76.51,0h1.57v-9.86h-1.57Zm-48.61-9.86-6.64,9.86h1.79l1.23-1.8h9l1.24,1.8h1.79l-6.64-9.86Zm-2.73,6.71,3.59-5.32,3.59,5.32Zm69-4.73a9.33,9.33,0,0,1,4-.63,12.8,12.8,0,0,1,2.82.24,3.66,3.66,0,0,1,2.26,1.34l1.43-.58c-1.05-1.57-3.21-2.35-6.51-2.35a10.45,10.45,0,0,0-5.09,1,4.75,4.75,0,0,0,0,7.87,10.55,10.55,0,0,0,5.09,1,11.1,11.1,0,0,0,4.93-.9v.9h1.57V105.8h-6.58v1.35h5v1.53a4.08,4.08,0,0,1-2.25,1.18,8.45,8.45,0,0,1-1.16.15c-.44,0-1,.06-1.52.06a9.49,9.49,0,0,1-4-.63,3.48,3.48,0,0,1,0-5.93Zm48.15,7.88h1.56v-9.86h-1.56Zm22.1-9.86h-1.75l-6.63,9.86h1.79l1.24-1.8h9l1.24,1.8h1.8Zm-4.46,6.71,3.58-5.32,3.59,5.32ZM181,101.53h-1.57v9.86H191v-1.32H181Z"/><path class="cls-2" d="M258.3,183.08c-2.91,0-10.17,0-19.57-.57a96.92,96.92,0,0,1-9.8-.91,3,3,0,0,0-1.65,0c-2.3.55-4.15,1-5.92,1.29-.94.18-1,.2-1,.3s.07.12,1,.31c1.77.33,3.62.73,5.92,1.29a3.18,3.18,0,0,0,1.65,0,95.9,95.9,0,0,1,9.8-.92c9.4-.57,16.66-.56,19.57-.56C259.41,183.31,259.41,183.08,258.3,183.08ZM97.39,177.32H90.88V187.6h6.83a5.75,5.75,0,0,0,3.84-1.36,4.73,4.73,0,0,0,1.66-3.67C103.21,179.39,101,177.32,97.39,177.32Zm.46,8.73H92.58v-7.18h5a3.54,3.54,0,0,1,3.83,3.66A3.38,3.38,0,0,1,97.85,186.05ZM115,177.32l-5.44,10.28h1.86l1.2-2.3h6.91l1.19,2.3h1.86l-5.43-10.28Zm-1.55,6.43,2.63-5,2.61,5Zm-35.23-.86c-1.78-.33-3.63-.74-5.93-1.29a3,3,0,0,0-1.65,0,96.61,96.61,0,0,1-9.79.91c-9.4.58-16.67.57-19.58.57-1.11,0-1.11.23,0,.23,2.91,0,10.18,0,19.58.56a95.59,95.59,0,0,1,9.79.92,3.18,3.18,0,0,0,1.65,0c2.3-.56,4.15-1,5.93-1.29.94-.18,1-.21,1-.31S79.16,183.08,78.22,182.89ZM188.55,184c1-.33,2-.5,3-.79,1.83-.51,2.71-1.36,2.71-2.79,0-1.88-1.86-3.27-4.58-3.27a8.09,8.09,0,0,0-5.13,1.83l1.08,1.14a6.16,6.16,0,0,1,4-1.43c1.77,0,2.77.66,2.77,1.61a1.21,1.21,0,0,1-.74,1.11,21.59,21.59,0,0,1-3.32,1.05c-2.8.88-4.16,2.5-4.28,5.1h10.44v-1.55h-8.42A3.82,3.82,0,0,1,188.55,184Zm-14-1.84a2.28,2.28,0,0,0,1.82-2.13c0-1.76-1.72-2.86-4.8-2.86s-4.76,1.1-4.76,2.86a2.28,2.28,0,0,0,1.82,2.13c-1.65.46-2.53,1.41-2.53,2.53,0,1.88,1.93,3,5.49,3s5.48-1.16,5.48-3C177.07,183.61,176.2,182.66,174.55,182.2Zm-6-2.11c0-.91,1-1.36,3.08-1.36s3.07.45,3.07,1.36-1,1.49-3.07,1.49S168.51,181,168.51,180.09Zm3.08,6.12c-2.45,0-3.71-.58-3.71-1.62s1.24-1.63,3.71-1.63,3.71.55,3.71,1.63S174.05,186.21,171.59,186.21Zm-39.77-8.89h-1.7V187.6h9.64v-1.55h-7.94Zm69.78.94v1.47l1.64-.71v8.58H205V177.32h-1.69A4.64,4.64,0,0,1,201.6,178.26Zm-47,0v1.47l1.65-.71v8.58H158V177.32h-1.69A4.64,4.64,0,0,1,154.6,178.26Z"/><path class="cls-2" d="M61.66,81.8l.44,0c0-.64.53-2.82-.31-2.9C61.75,79.82,61.7,80.78,61.66,81.8Zm-3.77-7.87A4.35,4.35,0,0,0,60,73.69a2.93,2.93,0,0,1-.2-.32c-.69.09-1.29.15-1.93.24C57.86,73.75,57.87,73.83,57.89,73.93Zm1.41-1.3c-.38-.09-.48,0-.62.34C59.09,73,59.16,73,59.3,72.63Zm-1.7,2a2.8,2.8,0,0,0,2.45-.33c-.21-.46-2.21,0-2.57.23C57.52,74.66,57.56,74.68,57.6,74.67Zm-1.68,3.27c-.25-.63-2.12,0-2.38.4A8.48,8.48,0,0,0,55.92,77.94ZM53.72,77s0,0-.1.11a2.71,2.71,0,0,1,.22.29c.61-.21,1.21-.24,1.79-.45-.32-.6-1.44-.06-1.91,0Zm4.12,7.24c.18-.54-.15-1-.19-1.59a1.74,1.74,0,0,1-.36.16c0,.37,0,.69.08,1S57.51,84.24,57.84,84.24Zm1.79-7c-.15.13-.24.23-.35.33a.67.67,0,0,0,.51.45c.08-.12.17-.24.26-.39C59.9,77.48,59.77,77.36,59.63,77.22Zm-1.54,1.27c-.31-.12-.41,0-.49.32C58,78.8,58,78.8,58.09,78.49Zm1.19-1.57c-.12-.07-.14,0-.14,0a2.86,2.86,0,0,0-1.48.11v.31L59,77.19Zm.14,1.66c0-.55-.21-.67-.65-.5C58.58,78.47,59.1,78.93,59.42,78.58Zm.39,4.7a.58.58,0,0,0-.61,0s.09-.1-.06,0,0,.18,0,.29.18.07.29.11C59.53,83.54,59.77,83.55,59.81,83.28Zm-.25-3.57h-.44a1.75,1.75,0,0,0,.29,1.44C59.8,80.65,59.49,80.2,59.56,79.71Zm-2.19,4.12c0-.33,0,.33,0,0Zm5.05-8.31c.07-.53-.07-.89-.4-1A.79.79,0,0,0,62.42,75.52Zm-1.21-.26c.14.34.24.95.7.6-.11-.27-.21-.55-.3-.81C61.37,75,61.25,75.05,61.21,75.26ZM60.6,76c.07.23.19.37.49.29v-.46C60.77,75.83,60.77,75.83,60.6,76Zm.23,3a6.83,6.83,0,0,0,0,2.59H61A5.67,5.67,0,0,0,61.19,79Zm-4.18,8.27.17.3c1.48-.39,3.74.12,4.7-1.34a1.15,1.15,0,0,0-.94.34C59.47,87.3,57.89,87.06,56.65,87.29Zm0-4.54-.11.07c-.09.44.16.84.18,1.29l.33,0A1.31,1.31,0,0,0,56.64,82.75Zm2.23-5.12a1.13,1.13,0,0,0-1.07.08C57.92,78.32,58.73,78.09,58.87,77.63ZM54,74.82v.4h.48c0-.16,0-.26,0-.4ZM48.3,85l.5-.16c-.07-.28-.11-.51-.15-.72l-.13,0c-.12.09-.24.21-.37.33Zm2.28-3.51Zm-3.22,3.24.29.14c.1-.13.2-.23.3-.37-.08-.17-.06-.38-.25-.44,0,0,0,0-.09,0s-.09.06,0,.06A.5.5,0,0,0,47.36,84.71Zm2.13-1.35.44-.12c-.25-.33-.46-.59-.67-.84,0-.05-.14,0-.29-.06C49,82.83,49.31,83,49.49,83.36Zm-.23-1c.21.25,0-.05,0,0Zm-1.21,1.21v-.25c-.32-.15-.42-.11-.51.06,0,0,0,0-.08.12C47.68,83.68,47.91,83.74,48.05,83.61Zm28.76-16.5c-.12-.58.1.59,0,0ZM70.1,64.59c.12.44.07.23,0,0,.67,2.51,4.42,3.37,8.38,4.72A7.3,7.3,0,0,0,82,70.53c-.56-1.25-6.43-2.12-4.4-4.66l.47-.12a1.06,1.06,0,0,0,.17,1.14l.38.18c1.24-.28,1.3-.85.89-1.61a1.65,1.65,0,0,0-2.72,1.65,3.05,3.05,0,0,0,.66,1.35c-2.74-1.35-8.62-2.45-6.22-5.93L72,62.3a1.67,1.67,0,0,0,.39,1.77l.63.25c1.92-.57,1.94-1.49,1.23-2.65-2.18-1.8-4.79.43-4.14,2.9C70,64.35,70,64.14,70.1,64.59Zm-23.36,20c-.07,0-.19-.07,0,0l.19-.1c0-.23,0-.45-.08-.71l-.38,0A.55.55,0,0,0,46.74,84.58ZM44.91,83.5v.42l.37-.11C45.22,83.58,45.16,83.44,44.91,83.5Zm1,0a3.06,3.06,0,0,1-.32.26l.27.47C46.28,84,46.22,83.85,45.91,83.52Zm2.6-.78-.25.23c.09.26.18.47.44.55,0,0,0,.06.14.06s0-.15,0-.15A.64.64,0,0,0,48.51,82.74ZM50.34,84c-.09.07-.22.14-.32.21,0,.33.68,1.16,1,1.07a2.26,2.26,0,0,0-.55-1.18c0,.07.09.15,0-.06C50.46,84,50.42,84,50.34,84ZM51,81.55c.16.28.29.47.64.43,0-.11,0-.24.05-.36-.15-.15-.3-.28-.48-.44Zm-.83,0c.35.54.55.66.91.47a5.43,5.43,0,0,0-.51-.55C50.43,81.35,50.26,81.36,50.18,81.55Zm-1,3.43.34,0c.07-.14.15-.25.22-.37-.08-.2-.15-.37-.25-.64a5.45,5.45,0,0,0-.44.39C49.12,84.61,49.16,84.79,49.21,85ZM54,76.4c.27-.07,1.31-.14,1.17-.65a2,2,0,0,0-1.45.39A2.64,2.64,0,0,0,54,76.4ZM49.55,82s.76,1,.92.45l-.78-.7A2.18,2.18,0,0,0,49.55,82Zm2.94,2.82c-.35.29-.14.65-.18,1l.43,0C52.68,85.44,52.91,85.07,52.49,84.83Zm-.14-1.66c-.19.35-.19.35-.1.7l.39.25c0-.12.1-.2.14-.3C52.64,83.62,52.52,83.43,52.35,83.17Zm-1,2.21.3.23.39-.58-.49-.2C51.52,85,51.46,85.2,51.39,85.38Zm-.09-1.64c-.2.6-.11.78.41.88a1.11,1.11,0,0,0-.13-.84Zm1-3.25c-.3.11-.3.11-.52.43a2.56,2.56,0,0,1,.11.24c.36,0,.47-.22.43-.49C52.32,80.66,52.33,80.62,52.27,80.49Zm10.36,7.93c-2.62-.28-5.32-.8-8-.83a20.66,20.66,0,0,1-6.86-1.79c-1.74-.67-2.64-.78-1.8-.3,3.27,1.93,7.2,1.54,9.79,4.55.11-.07.22-.14.39-.23a9.4,9.4,0,0,0-1.26-1.54c2.54-.21,5,.81,7.62.72a.46.46,0,0,0,.1-.5S62.69,88.51,62.63,88.42Zm28.46-4.08c.36.72,0-.18,0,0ZM79,78.54c0-.15.61-1.11.53-1.29-1.33-.3-2.9,2.37-3.14,3.35A3.93,3.93,0,0,0,78.73,85a2.18,2.18,0,0,0,.25-.22l-.51-.63c-.07-1.11,1-1.88,1-3,0-.85-.71-1.71-.53-2.54Zm10.61,5.92a5.9,5.9,0,0,0,.37,1.83l.33-.21c-.09-.58-.18-1.1-.26-1.66A3.13,3.13,0,0,1,89.57,84.46Zm1.52-.71c-.41.07-.41.07-.42.54.22.49.09,2.16.67,2.3a3.36,3.36,0,0,0-.25-2.25Zm1-.8c-.52.44.11,4,.72,4a6.12,6.12,0,0,0-.37-2.79A1.64,1.64,0,0,0,92.11,83Zm1.65,8.88c.06.07.12.13.23.27l.16-.37C94,91.61,93.87,91.7,93.76,91.83Zm-1.3-7.66c.29.59,0-.5,0,0ZM62.65,74.59c-.06-.22.06.21,0,0ZM82.43,85.25c-2,1.06-4.27,1.28-6.42,2v.49c1.13.65,6.19-1.12,7-2l-.28-.42ZM63.06,75.08A1.23,1.23,0,0,0,62.87,74a.45.45,0,0,0-.22.6C62.71,74.8,62.74,75.05,63.06,75.08Zm9.18,13c-.81-.78-4.73-.09-5.33.57.52.74,4.62-.2,5.49-.4C72.34,88.06,72.27,88.05,72.24,88.09Zm10.1-.92c-1.09-.32-4.79,2.84-4.24,4.12l.28.07c.55-.49.82-1.61,1.4-2.23.76-.8,2-1,2.71-1.94C82.33,87.07,82.31,87.12,82.34,87.17Zm15.48-.39c.15-.06.29-.1.47-.19-.35-.74-.08-1.48-.4-2.13s-.07-1.4-.36-2C96.78,82.59,97.58,86.23,97.82,86.78ZM74.9,85.56l0,0C74.85,85.46,74.81,85.4,74.9,85.56Zm20.52,4.06c-.19.36,1,2.24,1.34,2.14a3.92,3.92,0,0,0-.85-1.52A1.11,1.11,0,0,0,95.42,89.62Zm1.47-2.79a14.69,14.69,0,0,1-.33-2.29,16.43,16.43,0,0,1-.34-2.23c-.75.15-.14,4.4.32,4.75Zm-1,3.41c.3.27-.11-.29,0,0Zm.27-1.15c-.23.36,1,2.36,1.44,2.53a.53.53,0,0,1,.11-.14,20.25,20.25,0,0,0-1.33-2.07S96.41,89.38,96.18,89.09Zm1.27.46c.44.55,0-.1,0,0Zm-3.73-6.3c0,.08,0,0-.16-.64-.55.4.09,4.14.64,4.67l.25-.14A29.65,29.65,0,0,0,93.72,83.25Zm3.17,5.43-.17.1c.25.48,1.25,2.75,1.76,2.48a13.38,13.38,0,0,0-1-1.71C97.33,89.33,97.15,88.8,96.89,88.68Zm-2.57,2.4c.24.32.31.7.62,1l.16-.2L94.56,91A1.83,1.83,0,0,0,94.32,91.08Zm.84-.43c.37.33,0-.1,0,0Zm-.58-8.19c.07.89.21,4.9,1.17,4.8a25.86,25.86,0,0,0-.53-3.19c-.06-.4,0-1.32-.33-1.66ZM95,90.31c-.22.14-.22.14-.13.41s.55,1.21.93,1.16a2.18,2.18,0,0,0-.67-1.23Zm.19-6.24c.32,1.11,0-.2,0,0ZM53.58,78.79c0,.13,0,.25.05.43.47-.07,2.15-.18,2.32-.66-.06,0-.11-.11-.14-.1ZM57,80.14l-.27.22c.31.51.83.58,1.19.85.16-.08.26-.16.18-.37-.42-.1-.62-.42-1-.62C57.08,80.2,57.07,80.19,57,80.14Zm.56-4.52A6.5,6.5,0,0,0,60,75.26c.05-.48-1.91-.13-2.42,0,0,0,0,0-.12,0S57.47,75.49,57.51,75.62Zm2.54,5.64a.79.79,0,0,0,.2,0,2,2,0,0,0,0-1.62s0-.12-.09-.24C59.92,79.78,59.83,81.12,60.05,81.26Zm-3.77-.07c.11.26.21.44.5.4.11-.35.09-.41-.34-.59Zm-.53,2.16a1.21,1.21,0,0,0,.22.92h.33c-.06-.43-.11-.8-.19-1.29Zm0-.7c-.27-.65-.45-.78-.82-.55a.74.74,0,0,0,.51.65C55.53,82.81,55.64,82.82,55.72,82.65Zm-.31.1c-.28-.12.12.06,0,0Zm3.23-3.37s0,0,.14-.06a.78.78,0,0,0-.42-.59A3.5,3.5,0,0,0,58,79C58.31,79.4,58.42,79.49,58.64,79.38ZM58,80.3c.15-.28-.14-1.13-.53-.79C57.46,80,57.52,80.13,58,80.3Zm.53,3.89.26-.23a1.51,1.51,0,0,0-.3-1.09,2.11,2.11,0,0,1-.41.12c.28.32.12.76.34,1.07C58.37,84,58.33,84,58.56,84.19Zm1.95-7.72c-.28-.12-.31.1-.43.27.1.11.18.22.28.34.08-.08.08-.11.06-.11A.66.66,0,0,0,60.51,76.47Zm-2.19,4.08a.38.38,0,0,1,0,.1l.37.11c0-.22,0-.31-.17-.33S58.39,80.51,58.32,80.55Zm-5.24,2.59c.29.54.29.54.59.74.22-.41-.09-.68-.23-1.07Zm2.73-4.68Zm-1.56,4-.32.26.5.74.47-.17C54.66,83,54.66,82.61,54.25,82.45Zm3.24-6a6.93,6.93,0,0,0,2.37-.25c-.13-.17-.23-.26-.28-.33C59.24,75.87,57.34,75.87,57.49,76.41Zm-1.7,3a4.17,4.17,0,0,0-2.12.46c.14.31.33.39.69.27a3.89,3.89,0,0,1,1.43-.38ZM63,79l-.29-.09c-.2.46-.41,2.6,0,3,.12-.06.13-.08.11-.11C63.32,81.34,63.05,79.52,63,79Zm-9.41,6-.33-.05c-.14.68-.09,1,.23,1.14a1.14,1.14,0,0,0,.11-.92S53.65,85.06,53.62,84.93ZM54,82.45V82c-.37-.08-.38-.07-.51.34Zm.9,3a3.6,3.6,0,0,0,.16.39c.13-.09.19-.15.31-.24C55.21,85.41,55.12,85.3,54.86,85.45Zm-1-3.69c.35,0,.67.09.94-.34a1,1,0,0,0-.84,0s0,0-.12,0S53.88,81.65,53.88,81.76ZM54,85.08c0,.34-.13.69.11,1,.34-.19.3-.5.39-.83-.09-.09-.16-.19-.25-.29Zm1.15-1.63c-.09.09-.2.17-.3.26.07.3.24.31.45.27C55.44,83.66,55.44,83.66,55.17,83.45ZM54.47,81c.2-.36.92-.1,1-.58-.45-.25-1.07.06-1.48.31A.27.27,0,0,0,54,81ZM75,85.63l0-.07c-.65-1-1.6-2.1-1.74-3.35-.13-1.1.56-1.74.73-2.71-1.93,0-2.48,4.08-2.2,5.37C72,86,73.58,89.57,75,89.63a3.57,3.57,0,0,0,0-4C75.09,85.88,75.25,86.13,75,85.63ZM203.25,71.2a1.07,1.07,0,0,0-.14-.38l0,0-1.58-1.89-.11,0-.12.32C201.42,69.59,202.69,71.45,203.25,71.2Zm-1-7.79c-.34.08-.1.78.16.8.14-.19.09-.4-.09-.66C202.3,63.54,202.29,63.51,202.21,63.41Zm-.3.76c-.11.21-.11.22.1.43C202.17,64.42,202.13,64.28,201.91,64.17Zm1.24,3.36.11.12Zm-1.39-2.84a1,1,0,0,0-.22.36c.08.08.16.14.23.22a.47.47,0,0,0,.06-.64C201.77,64.65,201.76,64.68,201.76,64.69Zm2.43,5.92A14.87,14.87,0,0,0,202,68.06s0-.06-.16-.12l-.06.38c.69.86,1.33,1.67,2,2.47C204,70.88,204.12,70.78,204.19,70.61Zm-1.4-6.76c.19-.29-.08-.85-.14-1.14h-.23c0,.18,0,.33,0,.48C202.54,63.37,202.49,63.72,202.79,63.85Zm-1.78,8,.36-.05c0-.08,0-.13,0-.16-.19-.26-.72-1.5-1.19-1.1C200.21,71.12,200.87,71.29,201,71.87Zm2.07-1.09,0,0C202.7,70.32,203,70.64,203.08,70.78Zm-2.81,1.44a2.09,2.09,0,0,0,.28-.17c-.25-.33-.32-.79-.89-.88C199.56,71.76,200.11,71.86,200.27,72.22Zm2.11-.74a.53.53,0,0,0-.07-.2l-.09-.12L201,69.6C200.52,70.21,201.76,71.92,202.38,71.48Zm-.16-.32.09.12C202,70.94,202.13,71.05,202.22,71.16Zm2.44-9.2c0,.44.35.79.35,1.29l.31,0c0-.38-.57-2.6-1-2.5,0,.44.33.79.36,1.22C204.65,61.84,204.65,61.76,204.66,62Zm.53,7.92a18.35,18.35,0,0,0-1.93-2.23c.05.06.06.08-.11-.12a2.12,2.12,0,0,0-.43-.72,4.4,4.4,0,0,0-.39.29C202.56,67.56,204.69,70.6,205.19,69.88Zm1.42-7c.54-.2-.47-2.46-.67-3l-.19.06c-.09.28.19.77.27,1A14.26,14.26,0,0,0,206.61,62.92Zm-.76.07.25,0c.16-.32-.66-2.83-1.12-2.7a9.24,9.24,0,0,1,.43,1.32A8.87,8.87,0,0,1,205.85,63Zm.78-2.84a18.25,18.25,0,0,0,.65,2.35h.18c.16-.44-.5-2.69-.93-2.76C206.6,60.15,206.62,60.2,206.63,60.15Zm-7.51,8.29c-.14,0-.42.06,0,0h0a7.42,7.42,0,0,1,1,0c0-.17,0-.3,0-.46-.49,0-3.68.26-3.69.79A11.11,11.11,0,0,0,199.12,68.44Zm5.28-5.1.18,0c.21-.44-.48-1.85-.63-2.28l-.22.18c.25.66.36,1.34.64,2ZM206,61c0-.12.13.7,0,0Zm0,8.06c-.28-.42-.37-.51-.36-.47-.68-.9-1.43-1.71-2.07-2.65l-.38.26a20.5,20.5,0,0,0,2.49,2.94Zm.72-1.21c-.78-.93-1.5-1.77-2.25-2.68-.76.62,1.45,2.4,2,2.93ZM208,65.1c.14-.2.13-.42-.12-.81a.39.39,0,0,0-.56.17,1,1,0,0,0,.61.77C208,65.17,208,65.13,208,65.1Zm-.34.68c-.08-.24-.11-.26-.12-.22a8.63,8.63,0,0,0-.82-1.09l-.41.12c.33.43.64.79.95,1.19Zm-1,.09c0-.07-.16-.2,0,0a12,12,0,0,0-1.1-1.15l-.31.18c0,.58,1.34,1.68,1.79,1.91A.79.79,0,0,0,206.63,65.87Zm-2-3.91v0C204.65,62.06,204.66,62.2,204.66,62ZM208.37,60c-.05-.1,0,.49,0,0Zm.48,1.32c.28-.24-.25-1.14-.26-1.47s-.13-.24-.39-.17a2.55,2.55,0,0,1,.17.32A2.16,2.16,0,0,0,208.85,61.36ZM197.16,75s0,0,.1,0c.07-.26,0-.45-.21-.55C196.75,74.5,196.88,74.94,197.16,75Zm10.41-14.64c-.14-.28,0,.4,0,0Zm-10,10.46c.43-.08,1.76-.07,2-.62a7.1,7.1,0,0,0-2.5.31c.19.33.29.36.55.31Zm12-10c0-.41-.21-.71-.29-1.11l-.25.09c.1.34.19.65.3,1ZM208.12,62c.33-.2-.29-2.32-.69-2.43a1.13,1.13,0,0,0,.14.78A4,4,0,0,0,208.12,62Zm35,22.55.18.1c.24-.11.12-.08.05,0a.55.55,0,0,0,.22-.72,2.56,2.56,0,0,0-.37,0C243.19,84.07,243.16,84.29,243.13,84.52ZM210.19,59.77c-.15,0-.25,0-.29.16s0,0-.05.08l.38.12C210.21,60,210.2,59.87,210.19,59.77Zm3.1,7.34c-.1.59.12-.58,0,0Zm-4.46-2.93s0,0,0-.13l-.42.19c.11.12.16.21.24.3A.29.29,0,0,0,208.83,64.18Zm2.62,2.89.39-.18a1,1,0,0,0,.16-1.14l.48.12c2,2.54-3.84,3.41-4.4,4.66a7.27,7.27,0,0,0,3.52-1.2c4-1.35,7.69-2.21,8.39-4.71-.06.22-.11.4,0,0s.06-.26,0,0c.63-2.46-2-4.66-4.14-2.87-.72,1.16-.69,2.08,1.23,2.65l.64-.25a1.71,1.71,0,0,0,.38-1.77l.73.23c2.4,3.48-3.48,4.58-6.22,5.93a3.07,3.07,0,0,0,.67-1.35,1.65,1.65,0,0,0-2.73-1.65C210.15,66.22,210.22,66.79,211.45,67.07Zm-13.13-3.28a3.32,3.32,0,0,0-1.54.1C197.1,64.21,198.25,64.49,198.32,63.79Zm-.62,7.82a2.73,2.73,0,0,0,1.32-.36c-.19-.47-1.61-.11-1.79.26.16,0,.31.13.42.11Zm1.18-6.6.3-.37a5.75,5.75,0,0,0-2.73.33C196.47,65.67,198.53,65.08,198.88,65Zm.84,4a9.61,9.61,0,0,0-3,.55c.05.33.31.25.47.23a8.71,8.71,0,0,0,2.7-.55A1.53,1.53,0,0,0,199.72,69Zm-.6-.6h0Zm-2.77-2c.45.3,3.12-.08,3.29-.65,0,0,.06,0,0-.09C199.21,65.45,196.42,66,196.35,66.43Zm3.22,1a2.12,2.12,0,0,0,.38-.13c0-.31,0-.31-.28-.49a8.4,8.4,0,0,1-2.81.54c-.37-.1-.46-.06-.51.41A25.1,25.1,0,0,0,199.57,67.4Zm-2.07-4.33c-.17-.1-.32-.27-.55-.07,0,.34,0,.34.53.39C197.48,63.29,197.5,63.18,197.5,63.07Zm.2,9.76a.82.82,0,0,0,.57-.54s.06,0,.07-.16a.86.86,0,0,0-.7.12C197.65,72.43,197.67,72.62,197.7,72.83Zm.27,1.6c-.16-.46-.23-.52-.59-.48,0,.15.05.28.09.43Zm.85-1.25c0-.13.05-.26.06-.39l-.29-.21c-.38.1-.22.5.13.56C198.71,73.16,198.73,73.18,198.82,73.18Zm-.3.5c-.2-.2-.44-.59-.73-.26.17.15.33.3.54.52Zm1-1.05c0-.14.06-.27.09-.41-.17-.13-.31-.26-.5-.4-.09.08-.19.15-.27.23C199.18,72.53,199.18,72.53,199.55,72.63ZM91.08,71.25a2.7,2.7,0,0,0,1.32.36c-.11,0-.28,0,0,0a1.24,1.24,0,0,0,.43-.11C92.7,71.14,91.26,70.78,91.08,71.25Zm-4.78-.46c.66-.8,1.3-1.61,2-2.47,0-.06,0-.2-.07-.38-.12.06-.16.1-.16.12a14.87,14.87,0,0,0-2.16,2.55C86,70.78,86.09,70.88,86.3,70.79Zm2-6.16a.48.48,0,0,0,0,.64l.23-.22a1,1,0,0,0-.21-.36S88.33,64.65,88.28,64.63Zm-.39-1.22c-.08.1-.09.13-.08.14-.17.26-.22.47-.08.66C88,64.19,88.23,63.49,87.89,63.41Zm.2,1.19c.21-.21.21-.22.09-.43C88,64.28,87.94,64.42,88.09,64.6Zm-1.9-1.12a2.44,2.44,0,0,0,.5-1.9c-.39.22-.5,1-.56,1.46C86.1,63.16,86,63.32,86.19,63.48Zm1.26-.77c-.07.29-.33.85-.14,1.14.3-.13.25-.48.4-.67,0-.15,0-.3,0-.48Zm-3.66,1.88-.41-.12a7.69,7.69,0,0,0-.81,1.09s0,0-.13.22h.41C83.17,65.38,83.46,65,83.79,64.59ZM86.13,63c0-.23,0,.12,0,0Zm-1.24,1.84-.29-.18a10,10,0,0,0-1.11,1.15c.13-.18,0,0,0,0a.77.77,0,0,0-.36.92C83.54,66.56,84.91,65.46,84.89,64.88Zm2,1.33c-.16-.11-.25-.18-.39-.26-.63.94-1.38,1.75-2.06,2.65,0,0-.08.05-.36.47l.32.08A20.5,20.5,0,0,0,86.89,66.21Zm-1.28-1-2.26,2.68.28.25C84.16,67.58,86.37,65.8,85.61,65.18Zm2.16,1.92-.39-.29a2.53,2.53,0,0,0-.44.72,21.51,21.51,0,0,0-2,2.35C85.41,70.6,87.54,67.56,87.77,67.1Zm-5-2.64a.39.39,0,0,0-.56-.17c-.26.39-.26.61-.12.81,0,0,0,.07.06.13A1,1,0,0,0,82.79,64.46ZM81.73,60c0-.1.09-.2.16-.32-.25-.07-.25-.07-.39.17s-.54,1.23-.25,1.47A2.22,2.22,0,0,0,81.73,60Zm0,0c0,.49,0-.1,0,0ZM82,62a3.77,3.77,0,0,0,.56-1.65,1.13,1.13,0,0,0,.14-.78C82.27,59.65,81.64,61.77,82,62Zm.56-1.65c0,.4.14-.28,0,0Zm-1.26,3.86a.29.29,0,0,0,.19.36c.07-.09.13-.18.23-.3-.15-.08-.26-.12-.41-.19C81.25,64.14,81.25,64.16,81.27,64.18Zm4.26-.82.14,0,.06-.09c.27-.65.39-1.33.64-2l-.22-.18C86,61.51,85.3,62.92,85.53,63.36ZM81.1,59.78l-.25-.09c-.08.4-.32.7-.3,1.11l.24,0C80.91,60.43,81,60.12,81.1,59.78ZM84,63l.26,0a8.81,8.81,0,0,1,.42-1.35,10.69,10.69,0,0,1,.43-1.32C84.66,60.19,83.84,62.7,84,63Zm1.09.23c0-.5.35-.85.35-1.29v0c0-.43.34-.78.36-1.22-.45-.1-1,2.12-1,2.5Zm-1-2.24c-.13.7,0-.12,0,0Zm-.58,1.91A15.9,15.9,0,0,0,84.08,61c.08-.23.36-.72.27-1L84.17,60C84,60.46,83,62.72,83.5,62.92Zm-.87-.41h.19a16.4,16.4,0,0,0,.65-2.35c0,.05,0,0,.09-.4C83.14,59.82,82.48,62.07,82.63,62.51Zm6.91,9.54.29.17c.16-.36.7-.46.61-1C89.87,71.26,89.8,71.72,89.54,72.05ZM90,68.4a7.48,7.48,0,0,1,.95,0c.45.07.17,0,0,0a11,11,0,0,0,2.68.29c0-.53-3.2-.8-3.69-.79C90,68.1,90,68.23,90,68.4Zm.14-1.13a2.12,2.12,0,0,0,.38.13,24.89,24.89,0,0,0,3.23.33c-.07-.47-.15-.51-.53-.41a8.34,8.34,0,0,1-2.8-.54C90.15,67,90.15,67,90.15,67.27Zm.27-1.58c0,.09,0,.1,0,.09.17.57,2.84,1,3.29.65C93.68,66,90.89,65.45,90.42,65.69Zm.12,6.94c.38-.1.38-.1.69-.58a3.23,3.23,0,0,0-.27-.23l-.5.4C90.49,72.36,90.51,72.49,90.54,72.63Zm-1.93-3.74c-.54.65-1.09,1.28-1.63,1.93a1.07,1.07,0,0,0-.13.38c.55.25,1.83-1.61,2-2,0-.1-.08-.21-.11-.32Zm2.31-4.25.3.37c.35.07,2.41.66,2.43,0A5.75,5.75,0,0,0,90.92,64.64Zm.46,8.5c.34-.06.5-.46.12-.56-.07,0-.17.14-.28.21l.06.39C91.37,73.18,91.39,73.16,91.38,73.14Zm112.06-9.87a3.37,3.37,0,0,1-.31-1.13l-.32,0c.12.4.13,1.2.49,1.5C203.49,63.51,203.5,63.39,203.44,63.27ZM93.14,63c-.22-.2-.38,0-.54.07,0,.11,0,.22,0,.32C93.11,63.34,93.11,63.34,93.14,63ZM204,63c-.05-.42-.16-1.24-.55-1.46a2.44,2.44,0,0,0,.5,1.9C204.1,63.32,204,63.16,204,63ZM86.79,63.6c.37-.3.38-1.1.5-1.5l-.32,0a3.37,3.37,0,0,1-.31,1.13C86.6,63.39,86.61,63.51,86.79,63.6Zm5,.19c.07.7,1.21.42,1.53.1A3.27,3.27,0,0,0,91.78,63.79Zm1.3,6.68a7.16,7.16,0,0,0-2.5-.31c.18.55,1.52.54,2,.62.09,0,.06,0,0,0C92.79,70.83,92.89,70.8,93.08,70.47ZM204,63c0,.12,0-.23,0,0ZM87.79,71.28l.06-.08C88,71.08,88.09,70.89,87.79,71.28Zm.95.38s0,.08,0,.16l.36.05c.13-.58.79-.75.84-1.31C89.45,70.16,88.92,71.4,88.74,71.66Zm-.89-.46-.06.08a.39.39,0,0,0-.06.2c.6.44,1.86-1.27,1.4-1.88ZM87,70.82c.54-.65-.08.1,0,0Zm6.4-1.23a9.63,9.63,0,0,0-3-.55,1.64,1.64,0,0,1-.16.23,8.83,8.83,0,0,0,2.71.55C93.07,69.84,93.33,69.92,93.38,69.59Zm-1,3.24c0-.21,0-.4.06-.58a.86.86,0,0,0-.7-.12c0,.13,0,.16.07.16A.84.84,0,0,0,92.4,72.83ZM92.72,74c-.36,0-.44,0-.59.48l.49-.05C92.66,74.23,92.69,74.1,92.72,74Zm.22,1c.28,0,.41-.46.11-.54-.25.1-.29.29-.22.55C92.92,75,92.94,75,92.94,75Zm-.64-1.54c-.29-.33-.52.06-.72.26l.18.26C92,73.72,92.14,73.57,92.3,73.42ZM80.2,59.93c0-.11-.14-.15-.3-.16a3,3,0,0,1,0,.36l.38-.12C80.23,59.91,80.21,59.91,80.2,59.93ZM234.69,82.75ZM236.58,86c.32-.19.36-.46.22-1.14l-.32.05c0,.12,0,.16,0,.17A1.18,1.18,0,0,0,236.58,86Zm4-4a2.07,2.07,0,0,1-.15-.25l-.78.7C239.79,83,240.59,82,240.56,82Zm-.48,2.2c-.11-.07-.23-.14-.32-.21s-.12,0-.12,0c-.15.21-.09.13,0,.06a2.26,2.26,0,0,0-.55,1.18C239.4,85.37,240.06,84.54,240.08,84.21Zm-4.22-1.76c-.43.16-.43.53-.67.83l.47.17.5-.74Zm.79.36c-.13.39-.44.66-.23,1.07.32-.2.32-.2.6-.74Zm3.27-1.26a.23.23,0,0,0-.4-.08A5.5,5.5,0,0,0,239,82C239.36,82.21,239.58,82.09,239.92,81.55Zm-1.13,2.19-.27,0a1.11,1.11,0,0,0-.13.84C238.91,84.52,239,84.34,238.79,83.74Zm-.09,1.64c-.06-.18-.12-.34-.2-.55L238,85l.39.58Zm-.35-4.46c-.23-.32-.23-.32-.52-.43-.06.13,0,.17,0,.18,0,.27.06.47.43.49A1.28,1.28,0,0,1,238.35,80.92Zm-.61,2.25c-.16.26-.28.45-.42.65,0,.1.08.18.14.3.14-.1.28-.18.4-.25A.7.7,0,0,0,237.74,83.17Zm1.78-1.7Zm-.63-.29c-.19.16-.33.29-.49.44,0,.12,0,.25,0,.36.34,0,.48-.15.64-.43A3,3,0,0,1,238.89,81.18Zm-1.1,4.67c0-.37.17-.73-.18-1-.43.24-.19.61-.25,1Zm-2.21-.59c.08.33,0,.64.39.83.24-.32.1-.67.11-1l-.26-.11Zm-5.46-11.57a4.37,4.37,0,0,0,2.09.24c0-.1,0-.18,0-.32-.63-.09-1.23-.15-1.93-.24A1.91,1.91,0,0,1,230.12,73.69Zm1.3-.72c-.15-.39-.23-.43-.63-.34C230.93,73,231,73,231.42,73Zm3.78,9.13c-.37-.23-.55-.1-.82.55.07.17.18.16.31.1h0A.76.76,0,0,0,235.2,82.1ZM229.5,76c-.18-.2-.18-.2-.49-.17v.46C229.31,76.4,229.43,76.26,229.5,76Zm3-1.36s.07,0,.12-.1c-.36-.26-2.37-.69-2.57-.23A2.8,2.8,0,0,0,232.5,74.67Zm.23,9.16c0,.33,0-.33,0,0Zm.55,3.76.17-.3c-1.25-.23-2.82,0-3.93-.7a1.15,1.15,0,0,0-.94-.34C229.54,87.71,231.8,87.2,233.28,87.59Zm-4.84-5.79c0-1-.1-2-.13-2.93-.84.08-.31,2.26-.31,2.9Zm6.25,1h0C234.88,82.67,234.75,82.72,234.69,82.75Zm-6.62-8.26c-.33.14-.47.5-.4,1A.78.78,0,0,0,228.07,74.49Zm.83.77a.27.27,0,0,0-.41-.21l-.29.81C228.65,76.21,228.75,75.6,228.9,75.26Zm.18,6.35h.15a7,7,0,0,0,.05-2.59h-.38A6,6,0,0,0,229.08,81.61Zm-31.45,2.56a6.4,6.4,0,0,0-.37,2.79c.63-.06,1.25-3.57.73-4A1.73,1.73,0,0,0,197.63,84.17Zm17.54,1.42,0,0C215.29,85.4,215.25,85.46,215.17,85.59Zm-.06.11c-.12.19-.22.37,0,0ZM211.37,85a4,4,0,0,0,2.39-4.35c-.25-1-1.82-3.65-3.15-3.35-.08.18.49,1.14.53,1.3.18.83-.54,1.69-.53,2.54,0,1.13,1.09,1.9,1,3l-.51.63A1.57,1.57,0,0,0,211.37,85Zm-4,.35-.28.42c.8.87,5.85,2.64,7,2v-.49c-2.15-.69-4.4-.91-6.42-2Zm-27.24,1.29h0Zm37.72,1.5s-.1,0-.16.17c.86.2,5,1.14,5.48.4C222.58,88,218.67,87.31,217.86,88.09ZM216.2,79.5c.19,1,.87,1.61.74,2.71-.14,1.25-1.08,2.3-1.73,3.34l-.06.08a.25.25,0,0,1,0,.07l0,0a3.58,3.58,0,0,0,0,4c1.43-.06,3-3.66,3.3-4.76C218.69,83.58,218.14,79.51,216.2,79.5Zm16.25,3.15c0,.58-.37,1-.2,1.59.34,0,.45-.08.48-.41s.05-.65.07-1A2,2,0,0,1,232.45,82.65Zm-24.69,4.52s0-.1-.15,0c.74,1,1.95,1.14,2.71,1.94.58.62.86,1.74,1.41,2.23l.26-.07C212.54,90,208.85,86.85,207.76,87.17ZM199,84.34c0-.18-.37.72,0,0Zm41.32.32.23.37.33,0c.05-.19.09-.37.13-.57-.11-.1-.23-.22-.45-.39C240.47,84.29,240.42,84.46,240.33,84.66Zm-40.24-.24c-.09.56-.18,1.08-.26,1.66l.34.21a6.53,6.53,0,0,0,.36-1.83A3.13,3.13,0,0,1,200.09,84.42ZM199,83.75v.59a3.36,3.36,0,0,0-.26,2.25c.59-.14.46-1.81.69-2.3C199.42,83.82,199.42,83.82,199,83.75Zm42.25-.17c.12,0,.14,0,.13-.06.26-.08.36-.29.45-.55l-.25-.23a.64.64,0,0,0-.33.69S241.2,83.46,241.26,83.58Zm.69.82c-.13-.12-.25-.24-.37-.33l-.13,0c0,.21-.09.44-.15.72l.5.16Zm.69-.86c0-.09,0-.12-.07-.12-.1-.17-.2-.21-.52-.06v.25C242.17,83.74,242.42,83.68,242.64,83.54Zm-1.8-1.14c-.22.25-.42.51-.68.84.19,0,.3.08.45.12.18-.33.54-.53.52-1C241,82.36,240.87,82.35,240.84,82.4Zm0,0c0-.05-.22.25,0,0Zm1.9,2.31c.07-.29,0-.51-.21-.64.05,0,.06,0,0-.06s-.1,0-.09,0c-.19.06-.17.27-.26.44l.31.37Zm-40.9.55c-.22-.1-.39-.16-.55,0a.24.24,0,0,0-.1.11l.46.45C201.73,85.55,201.78,85.41,201.84,85.26Zm3.69-7.91s0,0,0,0h0Zm-4.47,12c.27-.13,0,0,0,0Zm15.57-10.94c-5.47-3.45-14.13-2.64-19.15-1.75a55.93,55.93,0,0,1,23.14-7A13.58,13.58,0,0,0,223.46,71c.09-.1.17-.2.27-.33-.69-.44-1.41-.84-2.14-1.22,1.56-.14,4.08,0,4.14-.06,2.2.15,11.38,2.83,15.81,8.62.61.78,1.13,1.6,1.83,2.39.23-.72-.83-1.76-1.15-2.32C239.2,73,229.13,68.5,225,68.5c.8-.3,1.56-.6,1.85-1.51-.54-.17-1.46.85-1.93,1.06a9.48,9.48,0,0,1-1.92.66,27.86,27.86,0,0,1-3.44.23,72.44,72.44,0,0,0-8.67,1.39c-5.53,1.15-10.58,3.72-15.47,6.43-4.21-3-2.24-20.16,5-20.16a2,2,0,0,1,1,.31c.06.14.15.32.23.49-1.92-.65-2.25,3.69.62,2,1.3-1.53-.23-3.72-1.85-3.72-8.72,0-10.45,18.82-5.86,21.69-5.82.33-13.55,5.28-15.11,8.57-1,2-.61,4.71,1.54,5.76s3.75-.89,3.75-2.75c-.88-1.16-2.12-2-3.18-.5-.12,1.48,1.34,1.77,2.15.7,1.11.37-1.11,2.42-2.29,1.74a3.06,3.06,0,0,1-1.26-4.26c.61-2,8.74-8,15-8.55,3.16,1.47,6.59,6.29,10,7.21.15-.43-1.13-1.56-2.78-2.81,3.58-.25,5.12,5.1,1.47,6.1a3.35,3.35,0,0,0-2.1-.4.73.73,0,0,0-.26,0,2.15,2.15,0,0,0-.88,3.21c1.41,1,2.57.54,3.69-.5.26-.51,0-1.09.17-1.62,3.88-2.48,2-8.93-2.87-7.42-2.28-1.71-4.9-3.49-5.36-4.07.71-.58,4.44-1.08,8.62-1a8.58,8.58,0,0,1,.69.62s-.08-.09,0,0,.05.08,0,0c.51.65.17,1.76.31,2.5a6.31,6.31,0,0,0,1.64,2.92c2.51-1.67.77-5.07-1.5-6a29.07,29.07,0,0,1,8.43,1.31c2.76,1,5.61,3,6.75,5.84.67,1.73.78,3.29,2.53,4.38,1,.63,2.23.87,3.24,1.57h.28c.33-1.72-2.6-4.84-3.74-6A37.94,37.94,0,0,0,216.63,78.37ZM202.16,91.31c.21-.09.41-.19.61-.26.35-.56.35-.56.36-.82-.32-.18-.87.26-1.25.18-.06,0-.15-.12-.23-.2v-.54c.08-.41.63-.18.7-.62l-.47-.16-.82.42-.05,0C202.87,86.36,205.44,91.76,202.16,91.31ZM179.42,85.9c.23-.51-.22.45,0,0Zm20.16-8.23c1.67,1.41,1.29,3.46,4,3.39,0-.62-.5-2.7-1.1-3.12S200.21,76.87,199.58,77.67Zm30.7,5.61c0,.27.29.26.43.38l.28-.11a2.36,2.36,0,0,0,0-.29c-.16-.12-.11-.06-.06,0A.6.6,0,0,0,230.28,83.28Zm-4.49-3.51a.37.37,0,0,0-.39.35s0-.07,0,0c0,.38-.27,1,.21,1.28l.3-.2A4.13,4.13,0,0,0,225.79,79.77Zm-3.9-2.68c-1.69.13-3.32.78-5,1,2.41,3.3,6.75,1.22,9.4-.3A11.2,11.2,0,0,0,221.89,77.09Zm14.34,4.67a1.67,1.67,0,0,1,0-.32c-.13-.06-.15-.06-.14,0a1,1,0,0,0-.82,0C235.55,81.85,235.87,81.8,236.23,81.76Zm-11.77-1c.08.06.16.13.32.24.08-.2.16-.31.22-.45C224.63,80.47,224.63,80.47,224.46,80.77Zm-3-8.07c-.32.07-.42.33-.39.71,0-.07-.07,0,0,.23l.35-.13C221.36,73.23,221.64,73,221.43,72.7Zm.87-.15c-.65,0-.61,1-.54,1.48a1.69,1.69,0,0,1,.35,0C222,73.48,222.52,73.08,222.3,72.55Zm-1.86.46c-.22-.15-.22-.15-.54.16C220.23,73.34,220.27,73.33,220.44,73ZM97.89,84.46Zm137.33-.75-.29-.26c-.28.21-.28.21-.14.53C235,84,235.16,84,235.22,83.71ZM236.1,81a.27.27,0,0,0,.05-.27c-.4-.25-1-.56-1.47-.31,0,.48.74.22.95.58Zm-.86,4.49c-.26-.15-.35,0-.48.15.13.09.19.15.33.24C235.14,85.69,235.19,85.57,235.24,85.45Zm.9-3.41v.41l.5-.07C236.52,82,236.51,82,236.14,82Zm-17.66-8.71a2.19,2.19,0,0,0,.35-.7c-2.93-.73-4.63,1.82-6.76,3.21.92.66,2.18.32,3.22.41a5.24,5.24,0,0,0,3.13-2.81C218.37,73.55,218.33,73.64,218.48,73.33ZM242.29,85.8a20.66,20.66,0,0,1-6.86,1.79c-2.65,0-5.35.55-8,.83-.06.09,0,.09,0,.08a.46.46,0,0,0,.1.5c2.57.09,5.08-.93,7.62-.72a8.43,8.43,0,0,0-1.25,1.54l.39.23c2.57-3,6.51-2.62,9.78-4.55C244.92,85,244,85.13,242.29,85.8Zm-14.92-6.93a2,2,0,0,0-.3.09c0,.56-.29,2.38.21,2.85,0,0,0,0,.11.11C227.76,81.47,227.56,79.33,227.37,78.87Zm-20.93-3.76c2,.8,4-.37,5.21-1.78a2.81,2.81,0,0,0,.19-.41C209.54,73.34,208.12,73.33,206.44,75.11Zm5.21-1.78Zm33.17,10.48.37.11V83.5C245,83.44,244.88,83.58,244.82,83.81Zm-.58.44c.08-.14.15-.26.26-.47a3.05,3.05,0,0,1-.31-.26C243.88,83.85,243.81,84,244.24,84.25Zm-17.57-2.64a16.27,16.27,0,0,0-.07-2.33s-.08,0-.11,0-.2.18-.2.27a1.14,1.14,0,0,0,0,.19,8.14,8.14,0,0,0,.06,2A2,2,0,0,1,226.67,81.61Zm-2.84-9.23a1.12,1.12,0,0,0-.17.41v0c-.09.71-.39,1.36-.47,2.06l.14.05C223.59,74.56,224.5,72.68,223.83,72.38Zm-.18.45c-.05.47,0,.13,0,0Zm2.81.57c-.15.54-.29,1-.43,1.6.08.06.15.14.22.19.35-.23.53-1.34.56-1.77A1.94,1.94,0,0,1,226.46,73.4Zm-2,1.48v0a7,7,0,0,0,.63-2.22c-.26-.16-.26-.16-.48,0a10.11,10.11,0,0,0-.45,2.48.29.29,0,0,1,.1,0C224.34,75,224.44,75,224.47,74.88Zm1.18-.44.33-1.31a.4.4,0,0,0-.29-.11,4.73,4.73,0,0,0-.53,1.94C225.51,75.11,225.59,74.64,225.65,74.44Zm-3-.13a1.75,1.75,0,0,0,.46-1.85A3.46,3.46,0,0,0,222.62,74.31Zm9.44,6c.52-.17.58-.27.53-.79C232.2,79.17,231.92,80,232.06,80.3Zm.39-3V77a2.94,2.94,0,0,0-1.5-.11s0-.05-.13,0c.08.1.19.2.25.27Zm-.16.39a1.13,1.13,0,0,0-1.07-.08C231.37,78.09,232.17,78.32,232.29,77.71Zm1.14,2.65c-.09-.07-.18-.13-.28-.22s-.13.06-.11.08c-.37.2-.57.52-1,.62-.08.21,0,.29.17.37C232.59,80.94,233.11,80.87,233.43,80.36Zm-2.92-4.53c-.06.07-.14.16-.27.33a6.93,6.93,0,0,0,2.37.25C232.75,75.87,230.86,75.87,230.51,75.83Zm1.27,4.72c-.08,0-.15-.13-.21-.12s-.22.11-.17.33l.37-.11A.38.38,0,0,1,231.78,80.55Zm4.64-.73a4.13,4.13,0,0,0-2.11-.46v.35a3.89,3.89,0,0,1,1.43.38C236.09,80.21,236.29,80.13,236.42,79.82Zm-5.09-1.74c-.44-.17-.62,0-.65.5C231,78.93,231.51,78.47,231.33,78.08Zm-33.7,6.09c0-.5-.29.59,0,0Zm34-1.3a1.42,1.42,0,0,0-.29,1.09,2.73,2.73,0,0,0,.25.23c.24-.17.18-.18.1-.12.23-.32.06-.76.35-1.08A2.11,2.11,0,0,1,231.58,82.87Zm-.6-3.16h-.44c.06.49-.25.94.16,1.44C231.1,80.7,231,80.21,231,79.71Zm1.52-.9c-.08-.37-.18-.44-.49-.32C232.11,78.8,232.11,78.8,232.5,78.81Zm-2.38-3.55a6.55,6.55,0,0,0,2.47.36c0-.13,0-.21.07-.31s-.11,0-.12,0C232,75.13,230.08,74.78,230.12,75.26Zm1.63,3.47a.77.77,0,0,0-.43.59c.17.1.17.09.13.06.23.11.33,0,.64-.42Zm3.18-3c-.14.51.9.58,1.17.65l.28-.26A2,2,0,0,0,234.93,75.75Zm.78-.93c0,.14,0,.24-.05.4h.49v-.4Zm-1.53,3.12a8.42,8.42,0,0,0,2.38.4C236.3,77.9,234.42,77.31,234.18,77.94Zm.28-1c.58.21,1.19.24,1.79.45l.23-.29c0-.06-.07-.1-.1-.11-.26-.06,0,0,0,0C235.91,76.89,234.79,76.35,234.46,77Zm2,2.27c0-.18,0-.3.05-.43l-2.22-.33c-.05,0-.1.06-.16.1C234.33,79,236,79.15,236.47,79.22ZM230.3,78a.68.68,0,0,0,.52-.45l-.35-.33-.42.39C230.13,77.76,230.23,77.88,230.3,78Zm4,.46c.72.1-.05,0,0,0Zm-4.71-2a.76.76,0,0,0,.08.5s0,0,.07.11l.27-.34C229.89,76.57,229.87,76.35,229.59,76.47Zm.27,3.13a1.94,1.94,0,0,0,0,1.62.79.79,0,0,0,.2,0c.22-.14.13-1.48-.1-1.9C229.82,79.49,229.82,79.56,229.86,79.6Zm4.5,3.75L234,83c-.07.49-.13.86-.2,1.29h.34A1.3,1.3,0,0,0,234.36,83.35Zm-.78-.53-.13-.07a1.35,1.35,0,0,0-.4,1.32l.34,0C233.41,83.66,233.66,83.26,233.58,82.82Zm.24-1.63-.16-.19c-.43.18-.45.24-.34.59C233.6,81.63,233.71,81.45,233.82,81.19ZM227.24,74a1.2,1.2,0,0,0-.2,1.09c.31,0,.34-.24.39-.45,0,0,.06-.18,0,0A.45.45,0,0,0,227.24,74ZM65.83,75.11l.1,0a10.59,10.59,0,0,0-.44-2.48c-.24-.12-.24-.12-.49,0-.12.49.46,1.7.62,2.22,0,0,0,0,0,0A.62.62,0,0,0,65.83,75.11ZM63.6,79.23s-.07,0-.11,0a17.9,17.9,0,0,0-.06,2.33,1.77,1.77,0,0,1,.32,0,8.27,8.27,0,0,0,.06-2.16C63.81,79.41,63.68,79.32,63.6,79.23Zm1.5,1.33c.06.14.13.25.23.45l.3-.24C65.47,80.47,65.47,80.47,65.1,80.56Zm-.79-.79a3.52,3.52,0,0,0-.1,1.44l.29.2c.47-.24.23-.9.2-1.28v0A.38.38,0,0,0,64.31,79.77Zm19.35-4.66c-1.69-1.78-3.11-1.77-5.4-2.19a2.81,2.81,0,0,0,.19.41c.51.57.12.13,0,0C79.72,74.75,81.69,75.91,83.66,75.11ZM63.28,73.42c0,.43.22,1.54.57,1.77.07,0,.14-.13.22-.19-.15-.55-.29-1.06-.42-1.6A2.12,2.12,0,0,1,63.28,73.42Zm3.74-1a1.73,1.73,0,0,0,.46,1.85A3.46,3.46,0,0,0,67,72.46Zm44.57,14.15c0,.1-.1.19-.14.28a.45.45,0,0,0,.61-.13.07.07,0,0,0-.07,0C111.88,86.63,111.74,86.65,111.59,86.61ZM66.27,72.38c-.67.3.24,2.18.51,2.55l.13-.05c-.07-.7-.38-1.36-.46-2.06,0,.14.06.52,0,0A1.12,1.12,0,0,0,66.27,72.38ZM68.33,74c.08-.47.12-1.51-.53-1.48-.23.53.26.93.2,1.44A1.66,1.66,0,0,1,68.33,74Zm.73-.62c0-.38-.07-.64-.39-.71-.22.29.07.53,0,.81.12,0,.22.09.36.13C69.12,73.36,69.09,73.34,69.06,73.41Zm1.14-.24c-.32-.31-.32-.31-.55-.16C69.83,73.33,69.86,73.34,70.2,73.17Zm4.6,3.08c1-.09,2.31.25,3.22-.41-2.11-1.39-3.82-3.94-6.76-3.21a2,2,0,0,0,.37.7c.19.4.06.14,0,0A5.3,5.3,0,0,0,74.8,76.25Zm-11,3.25c0,.7,0-.09,0,0ZM116.7,89.81c.09-.07-.64.31,0,0Zm.89-.54c-.29,0-.68.4-.89.54A19.58,19.58,0,0,0,115,90.88c.36.48,2.26-1.1,2.68-1.43A1.45,1.45,0,0,0,117.59,89.27Zm-.49-.64a13.84,13.84,0,0,1-1.17.77c-.42.22-.71.63-1.18.78a1.48,1.48,0,0,1,0,.26C115.14,90.5,117.34,89,117.1,88.63Zm-.59-.56c-.42.14-.67.56-1.09.68-.21.06-.12,0,0,0-.42.14-.65.55-1.13.69a3,3,0,0,0,.11.29C114.74,89.63,116.74,88.49,116.51,88.07ZM118.06,90c-.35.17-.42.21-.38.2a19.09,19.09,0,0,0-2.06,1.28.65.65,0,0,1,0,.17C116.12,91.63,118.1,90.38,118.06,90Zm-.28,1.16c.23-.23-.38.1,0,0Zm-3.52-2.76c.38-.16,1.07-.48,1.19-.92a2.53,2.53,0,0,0-1.71,1c.21.14.33,0,.46-.07Zm-.17-1.55a4.57,4.57,0,0,1-.48.1c-.13.2-.47.25-.52.57.33.11.79-.31,1.06-.44C114.13,87,114.12,86.9,114.09,86.81Zm-.75,0c-.16-.29-.77.12-.72.37.22.09.42,0,.62-.25C113.25,86.93,113.27,86.91,113.34,86.8Zm2.5.89c-.57.41-1.19.71-1.74,1.14l-.08.07a1.09,1.09,0,0,1,0,.17c.48.08,1.65-1,2-1.24Zm-3.68-.75c.21.1.34,0,.39-.21C112.3,86.68,112.3,86.68,112.16,86.94Zm2.67.4c0-.09,0-.18,0-.31-.36.22-1.12.45-1.3.88.13.16.24.13.34,0A3.26,3.26,0,0,1,114.83,87.34ZM103,88.83s0,0-.08,0a.46.46,0,0,0,.5.39c0-.1,0-.21,0-.32S103.19,88.81,103,88.83Zm-3.37-3.24c0,.21,0,.48.39.57A4,4,0,0,0,99.43,83c-.41.62,0,1.89.24,2.53C99.58,85.29,99.65,85.53,99.67,85.59Zm.55,2.56a3.56,3.56,0,0,1,.65,1c0,.13.13.2.32.13,0-.47-.56-1-.78-1.37A2.34,2.34,0,0,0,100.22,88.15ZM64.94,75A4.74,4.74,0,0,0,64.4,73a.41.41,0,0,0-.28.11l.33,1.31C64.51,74.64,64.59,75.11,64.94,75ZM101,85.88c.33-.67-.24-1.86-.36-2.53l-.43.27a5.93,5.93,0,0,1,.38,1.87s0-.08,0-.12v.13C100.6,85.73,100.7,85.9,101,85.88Zm.65-1.93-.32.17c.1.48.11,1.47.6,1.77.35-.42,0-.87.11-1.25C101.94,84.41,101.82,84.21,101.68,84Zm-.57,4-.14.17c.17.25.42.82.76.87.1-.32-.19-.51-.22-.74Zm-.89,1.82c-.3-.64-.73-1.17-1-1.81-.08,0-.14,0-.28,0,.22.41.81,1.86,1.28,2a.64.64,0,0,1,.1-.14C100.22,89.79,100.21,89.79,100.22,89.82Zm96.16-6.57a26.91,26.91,0,0,0-.72,3.89l.23.14c.56-.53,1.2-4.27.64-4.67C196.35,83.22,196.34,83.33,196.38,83.25Zm-94.59,5.07c0,.12,0,.14,0,.15.08.29.21.47.44.51C102.44,88.76,102.07,88.12,101.79,88.32Zm-4.16,0c-.4.25.93,2.54,1.27,2.64l.14-.21c-.34-.36-.42-.85-.71-1.23A10.17,10.17,0,0,1,97.63,88.32Zm1.61-2c0-.17,0-.17,0-.14-.06-1.14-.38-2.22-.5-3.36l-.43-.11c.08.74.09,3.29.72,3.77Zm-.17,2.87ZM99.62,88c-.09.43.4,1,.66,1.34l0,.06c.1.1.13.29.37.25A2.46,2.46,0,0,0,99.62,88Zm11.06-2.08c.22.45-.24-.51,0,0ZM89,89.31s-.27-.13,0,0Zm13.5-.7c-.06.22,0,.35.26.35C102.78,88.67,102.78,88.66,102.54,88.61ZM88.26,85.26c0,.15.11.29.19.55l.46-.45-.08-.11C88.65,85.1,88.47,85.16,88.26,85.26Zm-15-7.18c-1.72-.21-3.33-.86-5-1a11,11,0,0,0-4.35.69C66.48,79.3,70.83,81.38,73.24,78.08Zm17.27-.41c-.63-.8-2.25-.19-2.92.27s-1.1,2.5-1.1,3.12C89.23,81.13,88.85,79.08,90.51,77.67Zm5.07-.34c4.58-2.87,2.85-21.69-5.88-21.69-1.61,0-3.14,2.19-1.85,3.72,2.88,1.73,2.54-2.61.62-2,.08-.17.17-.35.23-.49a2,2,0,0,1,1-.31c7.27,0,9.23,17.2,5,20.16-4.9-2.71-10-5.28-15.48-6.43a72.44,72.44,0,0,0-8.67-1.39,28,28,0,0,1-3.44-.23,9.56,9.56,0,0,1-1.93-.66c-.45-.21-1.38-1.23-1.92-1.06.29.91,1.05,1.21,1.84,1.51C61,68.5,50.9,73,47.88,78.11c-.32.56-1.39,1.6-1.15,2.32.7-.79,1.22-1.61,1.83-2.39,4.43-5.79,13.61-8.47,15.81-8.62.06.08,2.57-.08,4.14.06-.73.38-1.45.78-2.14,1.22l.26.33a13.41,13.41,0,0,0,2.85-1.45,56,56,0,0,1,23.14,7c-5-.89-13.68-1.7-19.16,1.75a37.87,37.87,0,0,0-6.84,5.49c-1.15,1.16-4.07,4.28-3.75,6h.28c1-.7,2.2-.94,3.25-1.57,1.74-1.09,1.86-2.65,2.53-4.38,1.14-2.83,4-4.83,6.74-5.84a29.25,29.25,0,0,1,8.44-1.31c-2.28,1-4,4.36-1.5,6a6.42,6.42,0,0,0,1.65-2.92c.12-.74-.21-1.85.3-2.5-.06.07-.11.13,0,0s0-.06,0,0a6.81,6.81,0,0,1,.67-.62c4.19,0,7.92.46,8.62,1-.46.58-3.07,2.36-5.35,4.07-4.82-1.5-6.75,4.94-2.87,7.42.17.53-.09,1.11.17,1.62,1.12,1,2.27,1.5,3.68.5a2.15,2.15,0,0,0-.87-3.21.73.73,0,0,0-.26,0,3.38,3.38,0,0,0-2.11.4c-3.65-1-2.09-6.35,1.48-6.1-1.65,1.25-2.93,2.38-2.78,2.81,3.4-.92,6.83-5.74,10-7.21,6.28.53,14.41,6.54,15,8.55h0a3.07,3.07,0,0,1-1.26,4.26c-1.19.68-3.4-1.37-2.28-1.74.8,1.07,2.26.78,2.15-.7-1.08-1.45-2.31-.66-3.19.5,0,1.86,1.68,3.75,3.74,2.75s2.54-3.73,1.55-5.76C109.12,82.61,101.39,77.66,95.58,77.33ZM89.1,89.27l-.06,0-.82-.42-.46.16c0,.44.61.21.69.62v.54c-.08.08-.17.15-.23.2-.38.08-.93-.36-1.26-.18,0,.26,0,.26.36.82.2.07.41.17.62.26C84.66,91.76,87.22,86.36,89.1,89.27Zm29.4,1.49a1.14,1.14,0,0,0-.72.36,3.84,3.84,0,0,0-1.43,1C116.65,92.35,118.51,91.19,118.5,90.76Zm-16-5.93a.53.53,0,0,0,0,.26c0,.5,0,.85.37,1C103.19,85.9,103,84.7,102.5,84.83ZM104,86.52a.76.76,0,0,0,.49.71c.06-.16.12-.33.17-.49-.21-.15-.35-.45-.69-.42C103.93,86.45,103.94,86.5,104,86.52ZM84.56,77.37l0,0h0Zm18.9,8.35c-.24.31-.17.54.18.69C103.79,86,103.79,86,103.46,85.72Zm-5.07,2.35c-.38.28.92,2.17,1.18,2.43l.23-.21c-.38-.34-.41-.83-.73-1.13S98.71,88.38,98.39,88.07ZM190.93,88c-.32.64-.75,1.17-1.05,1.81,0,0,0,0,0,.08l.1.14c.47-.13,1.06-1.58,1.28-2C191.07,88,191,88,190.93,88Zm-.45,0a2.48,2.48,0,0,0-1.09,1.65c.25,0,.29-.15.39-.25s0-.07,0,0C190.06,89,190.57,88.42,190.48,88Zm1.79-1.2c.25-.55,1-4.19.3-4.37-.3.65,0,1.41-.36,2l-.07.15s0-.08.07-.14c-.31.65-.06,1.39-.41,2.12ZM190.67,83a4,4,0,0,0-.64,3.15c.37-.09.35-.36.39-.57s.1-.29,0,0C190.65,84.9,191.08,83.63,190.67,83Zm.21,3.14s0,0,0,.14a2.12,2.12,0,0,0,.23.16c.63-.48.65-3,.72-3.77-.22.06-.32.07-.44.11C191.25,83.93,190.94,85,190.88,86.15Zm.84,1.92c-.33.31-.37.8-.7,1.09-.16.15-.08.08,0,0-.32.3-.35.78-.72,1.12l.23.21C190.79,90.24,192.09,88.35,191.72,88.07Zm-3.91.91c.24,0,.37-.22.45-.51,0,0,0,0,.06-.15C188,88.12,187.66,88.76,187.81,89Zm.32-3.09c.49-.3.5-1.29.61-1.77l-.31-.17-.4.69C188.12,85,187.79,85.47,188.13,85.89Zm4.34,2.43a8.05,8.05,0,0,1-.71,1.2c-.28.38-.36.87-.71,1.23a1.59,1.59,0,0,1,.15.21C191.55,90.86,192.86,88.57,192.47,88.32Zm-2.77-.43c-.22.35-.83.9-.79,1.37.18.07.28,0,.32-.13a3.35,3.35,0,0,1,.65-1Zm.17-4.27c-.14-.07-.24-.15-.46-.27-.11.67-.67,1.86-.34,2.53.32,0,.44-.15.41-.38,0-.46,0-.13,0,0A6,6,0,0,1,189.87,83.62Zm-2.27,1.21c-.54-.13-.7,1.07-.33,1.3.33-.19.41-.54.34-1C187.65,85.09,187.66,85,187.6,84.83ZM189,88l-.4.3c0,.23-.32.42-.22.74.35-.05.59-.62.76-.87Zm5.95,2.65c0-.1-.38.33,0,0Zm-2.3-1.1c.06-.1-.43.55,0,0Zm2.43.76-.13.34a2.05,2.05,0,0,0-.66,1.23c.36.05.67-.94.92-1.16C195.28,90.45,195.28,90.45,195.07,90.31Zm-.19-6.24c0-.2-.32,1.11,0,0ZM196,91.73c0,.1.08.19.17.37a1.37,1.37,0,0,1,.23-.27C196.22,91.7,196.14,91.61,196,91.73Zm-.94.1a1.25,1.25,0,0,0,.14.2c.32-.25.39-.63.62-1a1.71,1.71,0,0,0-.23-.13C195.37,91.25,195.19,91.53,195,91.83Zm.51-9.37-.31,0c-.33.34-.28,1.26-.33,1.66a30.39,30.39,0,0,0-.54,3.19C195.3,87.36,195.45,83.35,195.52,82.46Zm-1.64-.15a18.15,18.15,0,0,1-.33,2.23,16,16,0,0,1-.34,2.29l.34.23C194,86.71,194.63,82.46,193.88,82.31Zm.79,7.31a1.06,1.06,0,0,0-.48.62,3.79,3.79,0,0,0-.85,1.52C193.71,91.86,194.87,90,194.67,89.62Zm-1.46-.94c-.27.12-.45.65-.57.87a14.64,14.64,0,0,0-1,1.71c.52.27,1.53-2,1.76-2.48Zm1,1.56c.1-.29-.3.27,0,0Zm-.27-1.15c-.23.29-.25.34-.22.32a18.6,18.6,0,0,0-1.32,2.07l.11.14C192.92,91.45,194.15,89.45,193.92,89.09Zm-21.42.18a1.5,1.5,0,0,0-.09.18c.42.33,2.31,1.91,2.67,1.43a19.58,19.58,0,0,0-1.69-1.07C173.19,89.67,172.79,89.26,172.5,89.27Zm-.19,1.85a1.12,1.12,0,0,0-.71-.36c0,.43,1.86,1.59,2.14,1.34A3.76,3.76,0,0,0,172.31,91.12Zm0,0c.38.1-.23-.23,0,0Zm1.08-1.31c.64.31-.09-.07,0,0Zm-55.12,2c.09-.08-.47.13,0,0Zm53.55,0c.47.13-.08-.08,0,0ZM172,90c0,.42,2,1.67,2.42,1.65,0-.08,0-.13,0-.17a17.63,17.63,0,0,0-2.06-1.28S172.39,90.13,172,90Zm-.22,1.85-.27-.25c-.14.23-.14.23.07.42s1,.84,1.33.65A2.06,2.06,0,0,0,171.82,91.81Zm-53.27-.25c-.1.1-.19.17-.28.25a2.08,2.08,0,0,0-1.12.82c.3.19,1-.56,1.33-.65S118.68,91.79,118.55,91.56Zm.13.78c-.28.2-.56.37-.84.56a1.49,1.49,0,0,0,0,.25c.4-.1.63-.4,1-.59A1.18,1.18,0,0,0,118.68,92.34Zm52.62.9c-.12,0-.19.11-.23.25a1.67,1.67,0,0,1,.33.13c0-.19,0-.29,0-.39S171.28,93.23,171.3,93.24Zm-.05-.68c.35.19.57.49,1,.59,0-.12,0-.18,0-.25l-.85-.56A1.77,1.77,0,0,0,171.25,92.56Zm-52.45.68s0,0-.09,0,0,.2,0,.39a1.71,1.71,0,0,1,.34-.13C119,93.35,118.93,93.26,118.8,93.24ZM173,88.63c-.24.39,2,1.87,2.31,1.81,0-.07,0-.15,0-.26-.48-.15-.76-.56-1.18-.78A11.24,11.24,0,0,1,173,88.63Zm5.11-1.91a.08.08,0,0,0-.08,0,.47.47,0,0,0,.63.13c0-.09-.11-.18-.16-.28S178.22,86.63,178.11,86.72Zm-.56,0c0,.23.18.31.4.21C177.8,86.68,177.8,86.68,177.55,86.73ZM187.3,89c.23,0,.32-.13.26-.35C187.32,88.66,187.32,88.67,187.3,89ZM176.75,86.8c.07.11.1.13.12.12.18.23.38.34.61.25C177.52,86.92,176.92,86.51,176.75,86.8Zm9.88-1.08c-.32.23-.32.24-.17.69C186.82,86.26,186.87,86,186.63,85.72Zm0,3.19,0,.32a.46.46,0,0,0,.51-.39s-.07,0-.08,0S186.78,88.9,186.66,88.91Zm-1-1.68a.74.74,0,0,0,.5-.71s0-.07,0-.2c-.33,0-.48.27-.7.42C185.52,86.9,185.58,87.07,185.63,87.23Zm-10.95,1.52c-.42-.12-.67-.54-1.09-.68-.23.42,1.77,1.56,2.12,1.67a3,3,0,0,0,.11-.29c-.48-.14-.71-.55-1.13-.69C174.79,88.79,174.88,88.81,174.68,88.75Zm-.42-1.06-.23.14c.37.28,1.54,1.32,2,1.24a.52.52,0,0,1,0-.17l-.08-.07C175.44,88.4,174.83,88.1,174.26,87.69Zm1.06-.66c0,.13,0,.22,0,.31a3.38,3.38,0,0,1,1,.6.2.2,0,0,0,.34,0C176.44,87.48,175.68,87.25,175.32,87Zm-.67.41c.12.46.88.79,1.25,1-.13-.06,0,0,0,0s.25.21.45.07A2.53,2.53,0,0,0,174.65,87.44Zm1.84-.53c-.16,0-.31,0-.49-.1L176,87c.27.13.73.55,1.06.44C177,87.16,176.62,87.11,176.49,86.91Z"/><path class="cls-3" d="M181.23,44.67A36.18,36.18,0,1,1,145.05,8.49,36.19,36.19,0,0,1,181.23,44.67Z"/><path class="cls-2" d="M145.05,89.34a44.67,44.67,0,1,1,44.66-44.67A44.72,44.72,0,0,1,145.05,89.34Zm0-87.5a42.83,42.83,0,1,0,42.82,42.83A42.88,42.88,0,0,0,145.05,1.84Z"/><path class="cls-2" d="M134.38,67.61a.37.37,0,0,1-.19-.07c-.21-.08-.24-.15-.28-.53a1.22,1.22,0,0,0-.43-1,.41.41,0,0,0-.29-.1h-.11l0,0a1.55,1.55,0,0,0-.92,1.06,1,1,0,0,1-.15.31.58.58,0,0,1-.35.11.33.33,0,0,1-.35-.44,3.75,3.75,0,0,1,.62-1.79,1,1,0,0,1,.85-.38h.12a.75.75,0,0,0,.14.57.55.55,0,0,0,.44.18l.26,0a.39.39,0,0,0,.27-.17.87.87,0,0,1,.91-.47l.45,0h.57a1.86,1.86,0,0,0,1.43-.52c1.46-.43,2-1.76,2.48-2.84a9,9,0,0,1,.55-1.17L141,59a26.63,26.63,0,0,0,1.69-4.89l.14.13a1.78,1.78,0,0,1,.66,1.66.45.45,0,0,0,.06.24.79.79,0,0,0,.68.41,1.55,1.55,0,0,0,.75-.28.74.74,0,0,1,.24-.15l.18-.09a4.62,4.62,0,0,0,1.68-4.15,3.28,3.28,0,0,0-.34-1.36h0l.24,0a1.1,1.1,0,0,0,.31,0,1.64,1.64,0,0,1,.69-.12,4,4,0,0,1,.58,0,1,1,0,0,0-.67.64,2.68,2.68,0,0,0,.36,2.89c.49.81.76,1.33.32,2.06a7.59,7.59,0,0,0-1.1,2.28.55.55,0,0,1-.14-.13,1,1,0,0,0-.8-.43.43.43,0,0,0-.31.14c-.75.82-.43,2-.22,2.75a1.22,1.22,0,0,1-.67.14h0l-.1,0s-.07,0-.2-.11l-.11,0a1.08,1.08,0,0,0-.46-.12c-.15,0-.53.06-.7.63a.5.5,0,0,0,0,.32,2.17,2.17,0,0,1,.25,1.94l-.14,0-.12,0a1.71,1.71,0,0,0-.43-.06,1,1,0,0,0-.72.29,2.61,2.61,0,0,0-.82,1.34,2.34,2.34,0,0,1-.35.77,2.52,2.52,0,0,1-2.11,1.58,13.43,13.43,0,0,1-1.59.1,5.47,5.47,0,0,1-1.14-.08c0-.06,0-.18,0-.39s0-.28,0-.41a.47.47,0,0,0-.47-.41c-.67,0-.77.72-.81,1l0,.09A1.27,1.27,0,0,1,134.38,67.61Zm-4.59-.21c-1.89-.05-4-.28-5.25-2a6.58,6.58,0,0,1-.94-3l-.09-.49c-.23-1.11-.4-2.25-.57-3.36-.2-1.35-.45-2.91-.81-4.41a2.22,2.22,0,0,1,1.16-1c.28-.17.51-.31.73-.47a2,2,0,0,0,1.31-.66.37.37,0,0,0,.09-.39.42.42,0,0,0-.28-.3,1.36,1.36,0,0,0-.5-.09,2.34,2.34,0,0,0-.38,0l-.16,0c-.11-.08-.15-.22-.21-.47a2.08,2.08,0,0,0-.21-.61.41.41,0,0,0-.36-.23h0l-.1,0a.44.44,0,0,0-.29.26,3.91,3.91,0,0,0-.19,1.14c0,.53,0,.57-.26.65l-.15,0a1.29,1.29,0,0,1-.62-.34,2.48,2.48,0,0,0-.66-.42h0l-.13,0a.47.47,0,0,0-.22.07.39.39,0,0,0-.21.33,1.26,1.26,0,0,0,.7,1.17c.13.09.32.22.33.27h0a.3.3,0,0,1,0,.11.77.77,0,0,1-.65.24,2.17,2.17,0,0,1-.41,0h-.08a.38.38,0,0,0-.17,0,.67.67,0,0,0-.38.42.55.55,0,0,0,0,.26h0a.4.4,0,0,1-.24-.09c-.19-.12-.23-.28-.29-.59l0-.15c-.05-.18,0-.32.37-.67s.82-.89.41-1.61a.7.7,0,0,1,.07-.58,1,1,0,0,1,.76-.52l.7.22h.1a.47.47,0,0,0,.34-.16,2.63,2.63,0,0,1,1.25-1h0a1.92,1.92,0,0,1,1.06.38.52.52,0,0,0,.28.1h.07l.14-.06a2.77,2.77,0,0,1,1.19-.23,9,9,0,0,1,1.67.22l.35.06a8.31,8.31,0,0,0,1.55.19A2.9,2.9,0,0,0,132.18,48a3.21,3.21,0,0,0,.41-.85,4.42,4.42,0,0,1,.23-.52v0a2.84,2.84,0,0,1-.12,1.84.42.42,0,0,0,0,.42,1.19,1.19,0,0,0,1.06.55,3.21,3.21,0,0,0,1-.17,3.1,3.1,0,0,1,.44-.09h.07l.11-.07a5.51,5.51,0,0,0,1.92-1.75l.3.18a4.88,4.88,0,0,0,.82.46l.4.15.1,0a6.75,6.75,0,0,1,3,1.72.48.48,0,0,0,.34.14h0l.12,0a2.56,2.56,0,0,0,1.28-2l.1-.35a1.32,1.32,0,0,0,0-.56.31.31,0,0,0,0-.11h0a7.58,7.58,0,0,0,1.38.18,1.73,1.73,0,0,0,1.59-.77.43.43,0,0,0,0-.44.36.36,0,0,0-.36-.22,6,6,0,0,1-3.79-1.27.42.42,0,0,0-.27-.09.42.42,0,0,0-.44.45c0,.24,0,.48,0,.71a9.08,9.08,0,0,1,0,2l-1-.47-.12-.05A8.43,8.43,0,0,1,137,44.35a.45.45,0,0,0-.36-.2h0l-.09,0a.43.43,0,0,0-.33.4,5.83,5.83,0,0,1-.44,2.08,2.45,2.45,0,0,1-1.24,1,2.71,2.71,0,0,1,0-.29,2.24,2.24,0,0,0-.06-.75,4,4,0,0,0-1.19-2.56.49.49,0,0,0-.38-.15.89.89,0,0,0-.86.8,1,1,0,0,1-.12.24,2.09,2.09,0,0,1-.69.61,10,10,0,0,0-.33-1.48,4.47,4.47,0,0,1-.2-2.38,9.56,9.56,0,0,1,.35-1.07l.09-.26a9.09,9.09,0,0,0,.66-2.29.45.45,0,0,0-.44-.49.43.43,0,0,0-.27.1,6.76,6.76,0,0,0-.87.76,3.68,3.68,0,0,1-1.57,1.06.46.46,0,0,0-.28.19.5.5,0,0,0-.05.35.9.9,0,0,0,.87.81,5.54,5.54,0,0,0,.05,3.23,5.53,5.53,0,0,1,.19,2.58.42.42,0,0,0,.06.33,1.11,1.11,0,0,0,.84.57.51.51,0,0,0,.21,0h.07a1.89,1.89,0,0,1-1.16.53,1.7,1.7,0,0,1-.42.06,2.81,2.81,0,0,1-1.18-.34,1.12,1.12,0,0,0,.31-.59,10.74,10.74,0,0,0,0-2.46v-.17a11.25,11.25,0,0,1,0-2,.43.43,0,0,0-.34-.49,7.21,7.21,0,0,0-.74-.13,4.1,4.1,0,0,1-1.18-.3,4.3,4.3,0,0,0,1.5-2.79,5,5,0,0,1,1.19-2.9.37.37,0,0,0,.13-.28.41.41,0,0,0-.11-.31.94.94,0,0,0-.79-.32l-.31,0-.27,0h-.11a1.21,1.21,0,0,1-.46-.31l.2-.13a1.79,1.79,0,0,0,.62-.54,11.64,11.64,0,0,0,1-1.64,5.64,5.64,0,0,1,1.83-2.27.46.46,0,0,0,.2-.41.44.44,0,0,0-.27-.36.9.9,0,0,0-.42-.09,2.43,2.43,0,0,0-.55.08,1.17,1.17,0,0,1-.35.06.88.88,0,0,1-.49-.26,1,1,0,0,0,.67-.25,8.4,8.4,0,0,0,2.47-2.39,9,9,0,0,1,1.91-2.06.44.44,0,0,0,.17-.47,1.12,1.12,0,0,0-.86-.72c-.18-.06-.28-.09-.32-.14l-.09-.09a1.13,1.13,0,0,1-.41-.53h0a1.65,1.65,0,0,0,.75.23.93.93,0,0,0,.29-.05,6.08,6.08,0,0,0,3.42-1.69l.22-.18c.24-.19.48-.37.73-.54a.47.47,0,0,0,.18-.4.42.42,0,0,0-.22-.35l-.31-.18a3,3,0,0,1,1.48-.73,3.31,3.31,0,0,1,.94-.13,6.16,6.16,0,0,1,3,1,6.07,6.07,0,0,0-1.16-.09l-.8,0-.74,0-.53,0h0a.41.41,0,0,0-.34.16.43.43,0,0,0-.09.36,8.68,8.68,0,0,1-.09,2.39v.1c-.06.43-.11.8-.13,1.14-.23.93-1.09,1.16-2.09,1.41a6,6,0,0,0-1.43.5c-1.62.56-2.3,1.86-3,3.11a7.29,7.29,0,0,1-1.44,2.13.43.43,0,0,0-.08.55.43.43,0,0,0,.38.22h0l.09,0a5.21,5.21,0,0,0,2.34-2.06c.75-1,1.36-1.79,2.41-1.82-.24.46-.46.93-.68,1.42-.7,1.57-1.37,3.06-3,3.4a.42.42,0,0,0-.36.43.44.44,0,0,0,.37.43,3.61,3.61,0,0,0,.59,0,4.8,4.8,0,0,0,3.18-1.64l.1,0a3.64,3.64,0,0,1-.32,1.07l-.71.87a.51.51,0,0,0,0,.53,1.94,1.94,0,0,0,1.55.65,7.32,7.32,0,0,0,1.71-.29,2,2,0,0,0,.44-.18l.16-.07a2.34,2.34,0,0,1,.35-.18c1.22,2.2,3.71,2.2,5.9,2.2h.84a5.53,5.53,0,0,1,1.18,1,3.36,3.36,0,0,0,2.41,1.37,2.66,2.66,0,0,0,.39,0h0a1.56,1.56,0,0,0,.46-.09l.15,0c0,.4-.17.75-.67,1.22a.49.49,0,0,0-.16.33.53.53,0,0,0,.19.34,1.53,1.53,0,0,0,1,.34h.15a1.79,1.79,0,0,1-.25.6,1.21,1.21,0,0,1-.25.16,1.2,1.2,0,0,0-.82.8.46.46,0,0,0,.16.45,6.43,6.43,0,0,1,1.33,1.42l.07.09c.25.32.5.65.8,1a2.56,2.56,0,0,1-.92.1H151l-1.42-.31h-.08a.42.42,0,0,0-.27.07c-.62.45-.31,1.11-.14,1.46a1.27,1.27,0,0,1,.15.35,4.93,4.93,0,0,0,1.22,1.52l0,0a1.28,1.28,0,0,0-.24.11,4.05,4.05,0,0,1-.61,0,8.91,8.91,0,0,1-1-.06,8.15,8.15,0,0,0-1.12-.08,4,4,0,0,0-.91.09,3,3,0,0,1-1.61-.41.46.46,0,0,0-.23-.06.42.42,0,0,0-.27.09.44.44,0,0,0-.14.48l.37.91c.56,1.3,1.14,2.64.45,3.89a.56.56,0,0,0-.09.13,2.17,2.17,0,0,1-.23.3,4.89,4.89,0,0,0-1.44-1.4,4,4,0,0,1-1.35-1.37.43.43,0,0,0-.39-.26h0l-.11,0a.45.45,0,0,0-.29.49,5.47,5.47,0,0,1-.39,3.72c-.09.1-.2.24-.31.38l-.08.11a5.29,5.29,0,0,1-.61.71v0a1.56,1.56,0,0,0-.14-.78,1.16,1.16,0,0,1-.17-.44,1.73,1.73,0,0,0-.5-1,.44.44,0,0,0-.29-.11.48.48,0,0,0-.28.1,6,6,0,0,0-.51.5,4.43,4.43,0,0,1-.69.65,9.66,9.66,0,0,1-1.41-3.58.44.44,0,0,0-.43-.36.46.46,0,0,0-.43.48,66.62,66.62,0,0,0,.74,6.67l.12,1c.15,1.09.3,2.2.41,3.3a1,1,0,0,0,0,.2l0,.13c-.06.46-.11.52-.22.54l-.1,0a2.06,2.06,0,0,1-.26,0h-.07a8.28,8.28,0,0,0-.21-3.67l-.05-.26a14.28,14.28,0,0,1-.25-1.48c-.15-.78-.27-1.55-.4-2.31-.19-1.19-.4-2.45-.69-3.62a.46.46,0,0,0-.46-.33l-9.88,1.44a.38.38,0,0,0-.27.14.44.44,0,0,0-.1.33,58.06,58.06,0,0,0,1.41,9.79,4.26,4.26,0,0,0,3.59,3,4.19,4.19,0,0,0,1.06.11c.27,0,.53,0,.77,0A2,2,0,0,1,129.79,67.4Zm7.63-24.49a.84.84,0,0,1,.23.46c.14.4.32.9.95,1h0l.1,0a3.14,3.14,0,0,0,1.83-2.19,1,1,0,0,0,.1-.68h0a9.56,9.56,0,0,1,2.66,2.28.45.45,0,0,0,.36.18.43.43,0,0,0,.19,0,3.09,3.09,0,0,0,1.53-2.62h0a1.29,1.29,0,0,0,.47.11h0l.14,0,.12,0a1.44,1.44,0,0,0,1.62-1,.43.43,0,0,0-.08-.38.4.4,0,0,0-.34-.17,3.52,3.52,0,0,1-2-1,4.76,4.76,0,0,0-2-1.08h0a.44.44,0,0,0-.44.24.4.4,0,0,0,.08.49c1,1.07,1.25,2.05.83,2.9a1.91,1.91,0,0,1-.1.23,6,6,0,0,0-2.15-1.41,4.63,4.63,0,0,1-2.09-1.45.44.44,0,0,0-.35-.17.5.5,0,0,0-.24.06.44.44,0,0,0-.19.29.48.48,0,0,0,.09.37,2.54,2.54,0,0,1,.15,2.34l-.09.17a12.29,12.29,0,0,0-1.09-.88c-1.08-.85-2.11-1.64-2-3a.44.44,0,0,0-.28-.45l0,0h-.12a.45.45,0,0,0-.36.18,2.67,2.67,0,0,0-.31.73c-.15.48-.23.73-.48.87h0a.89.89,0,0,0-.18.07l-.07,0a8.69,8.69,0,0,0-.08-1.77v-.13A5.54,5.54,0,0,1,133.9,35a.49.49,0,0,0,0-.37.47.47,0,0,0-.37-.2h-.37a.42.42,0,0,0-.41.3,8.49,8.49,0,0,0-.28,2.67,5.57,5.57,0,0,1-.54,3.05.44.44,0,0,0,.06.58,1.37,1.37,0,0,0,.93.34,2.91,2.91,0,0,0,1-.23l.27-.07a2.87,2.87,0,0,0,.59-.38l.25-.18Zm12.25,24.4a.52.52,0,0,1-.3-.18,1.24,1.24,0,0,0-.83-.48,1,1,0,0,0-.68.34.92.92,0,0,1-.51.25.18.18,0,0,1-.11,0c-.23-.16-.3-.42-.25-1a2.36,2.36,0,0,1,1.4-1.73s0,0,0,0l.13,0h0v.12a.43.43,0,0,0,.22.44.31.31,0,0,0,.21.06.44.44,0,0,0,.27-.09l.36-.24a2.51,2.51,0,0,1,1.38-.59l.4,0a.63.63,0,0,0-.19.58.66.66,0,0,0,.34.45.48.48,0,0,0,.22.07,1,1,0,0,0,.81-.49c.11-.17.13-.19.17-.2a2.64,2.64,0,0,1,1-.19,6.72,6.72,0,0,1,1.75.33l.17,0a7.3,7.3,0,0,0,2.07.38,3.75,3.75,0,0,0,1.12-.16l.08,0,.08-.1a.89.89,0,0,0,.29-1.17,7.5,7.5,0,0,0-3.61-2.48l-.25-.11a13,13,0,0,1-1.35-.66,2.91,2.91,0,0,1-1.5-2.6,6.26,6.26,0,0,1,3.38-4.19,3.18,3.18,0,0,1,1-.14,7.7,7.7,0,0,1,1.5.19l.14,0a10,10,0,0,0,1.67.2,4.71,4.71,0,0,0,1-.11,1.29,1.29,0,0,0,.68-.74,1.22,1.22,0,0,0-.09-1,1.17,1.17,0,0,0-.91-.6.66.66,0,0,0-.38.1.75.75,0,0,0-.42.63c-.42,0-.86-.07-1.29-.13l-.18,0a14.9,14.9,0,0,0-1.76-.14,4,4,0,0,0-3.14,1.2A15.67,15.67,0,0,0,151.22,56l-.09.1h-.08a2.35,2.35,0,0,1-.35,0,.59.59,0,0,1,0-.13,1.23,1.23,0,0,0,0-.89,3.34,3.34,0,0,0-.86-1.69c-.75-1-1-1.41-.41-2a.44.44,0,0,0,.11-.34.41.41,0,0,0-.19-.32,1.28,1.28,0,0,0-.26-.17,4.34,4.34,0,0,0,.71.06,2.45,2.45,0,0,0,1.08-.21,3.41,3.41,0,0,0,2-1.5.38.38,0,0,0,0-.39,1.2,1.2,0,0,0-.85-.69.73.73,0,0,1-.3-.14l0-.06-.06,0a4.41,4.41,0,0,1-.43-.35l.19,0a3.31,3.31,0,0,0,2.82-1.39.39.39,0,0,0,.08-.24,1.34,1.34,0,0,0-.71-1.13c.73.35,1.44.64,2.13.92l1.63.67.33.12c2.43.8,4.94,1.62,6.77,3.8a6.52,6.52,0,0,1,1.79,3,6.24,6.24,0,0,0,2.26,3.43,4.45,4.45,0,0,0,2,.46,5.07,5.07,0,0,0,3.43-1.34c1.92-1.86,2.6-4.83,1.86-8.14a4.7,4.7,0,0,0-2.09-2.66,3,3,0,0,0-1.22-.28,1.82,1.82,0,0,0-1,.25,2,2,0,0,0-1,1.55,2.09,2.09,0,0,0,1.19,2.11.91.91,0,0,0,.65.25,1.47,1.47,0,0,0,.78-.28l.2-.12a2.58,2.58,0,0,1-.15,1,1.19,1.19,0,0,1-1,.51h-.18a.44.44,0,0,0-.39.19,1.14,1.14,0,0,0,0,1.11.91.91,0,0,1,.1.33,2.57,2.57,0,0,1-1.27,2.31l-.17,0a3.93,3.93,0,0,1-.7.11.75.75,0,0,1-.23,0,.35.35,0,0,1,.05-.08,3.52,3.52,0,0,0,.75-1.76,1.36,1.36,0,0,1,0-.35,1.28,1.28,0,0,0-.24-1,.38.38,0,0,0-.32-.15h-.11a.43.43,0,0,0-.32.32,3.82,3.82,0,0,0-.08.39c-.15.62-.27,1.14-.72,1.38a1.62,1.62,0,0,1-.38,0,1.1,1.1,0,0,1-.31,0,.34.34,0,0,1-.17-.28,3.06,3.06,0,0,0,.46-2.53c0-.1,0-.17,0-.24v-.14c-.13-1.62.05-4.54,2.6-5.84a3.37,3.37,0,0,1,1.66-.39,4.14,4.14,0,0,1,2.29.66,6.72,6.72,0,0,1,1.92,2,9.39,9.39,0,0,1-.34,9.33,7.57,7.57,0,0,1-6.84,3.48,13.48,13.48,0,0,1-1.61-.1h0l-.09,0A2.69,2.69,0,0,0,165.84,60c-.35.59-.62,1.06-1.2,1.28a1.61,1.61,0,0,0-1.09,1.12,1.71,1.71,0,0,0,.64,1.55,9.63,9.63,0,0,0,.92.79,5.31,5.31,0,0,1,1.42,1.48.69.69,0,0,1-.42.63l-1.4.24c-1.67,0-3.39,0-5.1,0-1.91,0-3.81,0-5.67,0l-.18,0a2,2,0,0,0-.61.12,2.35,2.35,0,0,1-.53.1.39.39,0,0,1-.25-.07,1.15,1.15,0,0,0-1-.66.89.89,0,0,0-.68.31A1.47,1.47,0,0,1,149.67,67.31Zm-4.81,0h-.34a.81.81,0,0,1-.41-.59,2,2,0,0,1,1.14-2,1.88,1.88,0,0,1,.68-.22,1,1,0,0,0-.17.35,5.17,5.17,0,0,0-.49,2.14v.2A.7.7,0,0,1,144.86,67.29Zm-18-2.73c-.29-.37-.45-.59-.37-.82l2.37-4.18a.41.41,0,0,0-.1-.55l-4.21-3.77a2.72,2.72,0,0,1-.08-.77h.07l.27,0L128.89,58a.48.48,0,0,0,.28.11h0l.08,0a.35.35,0,0,0,.23-.14,24,24,0,0,0,2.7-4.34l.16-.3a.34.34,0,0,1,.12-.11c.06,0,.1,0,.16.53a3.86,3.86,0,0,0,.1.49l-.13.47-2.23,3.86a.44.44,0,0,0,.1.55l3.59,3.54a1,1,0,0,1-.21.69l-.09-.09-3.5-3.06a.53.53,0,0,0-.28-.1h-.09a.41.41,0,0,0-.27.16l-.45.63a25.68,25.68,0,0,0-2.31,3.71Zm3.71-.5a.78.78,0,0,1-.21,0,1,1,0,0,1-.48-.52.64.64,0,0,1,.33-.64l.3,0c.2,0,.43.05.49.2l0,.18c0,.22.08.43,0,.53a.56.56,0,0,1-.46.32Zm24.31-1.13c-2.2-.15-4.26-.31-5.37-2.1a3.48,3.48,0,0,1-.14-2.81h0a1.35,1.35,0,0,1,.46.13,2.76,2.76,0,0,0,.79.19,1.2,1.2,0,0,1,0,.34,1.86,1.86,0,0,0,.13.83c.24,1.87,1.91,2.54,3.26,3.07l.16.07Zm-28.57-2.76-.25,0c-.06,0-.2-.19-.2-.64a.52.52,0,0,1,.35-.43h.08a.64.64,0,0,1,.58.4c0,.08,0,.19-.1.41l0,.08a.46.46,0,0,1-.42.21ZM133,59a.58.58,0,0,1-.18,0c-.11,0-.21-.18-.3-.31l-.05-.07a.77.77,0,0,1,.18-.54.46.46,0,0,1,.32-.12.39.39,0,0,1,.36.16.88.88,0,0,1,0,.7A.37.37,0,0,1,133,59ZM129,55.6a.93.93,0,0,1-.54-.46.86.86,0,0,1,.21-.77.64.64,0,0,1,1,.13,1.12,1.12,0,0,1,0,.81c-.07.14-.17.17-.49.25Zm-4.07-8a5.76,5.76,0,0,1-3.12-.9,1.77,1.77,0,0,1,.6-.2,2,2,0,0,0,.63-.2.44.44,0,0,0,.24-.42.46.46,0,0,0-.34-.39,8.55,8.55,0,0,1-5-3.76h.18l.47,0c.2,0,.35,0,.48,0h.14a5.27,5.27,0,0,1,.56.15,3.1,3.1,0,0,0,1,.22,1.84,1.84,0,0,0,.33,0,.44.44,0,0,0,.16-.79,11.42,11.42,0,0,1-4.87-7,2.44,2.44,0,0,0,0-.43,1.73,1.73,0,0,1,0-.65,5.71,5.71,0,0,1,2.34,1.82,9.14,9.14,0,0,0,1.93,1.77.4.4,0,0,0,.55-.09.45.45,0,0,0,0-.55,15.4,15.4,0,0,1-2.75-6.93c0-.19,0-.44,0-.7a4.15,4.15,0,0,1,.45-2.29,1.86,1.86,0,0,1,.66.63,11.77,11.77,0,0,1,.52,1.08,15,15,0,0,0,2.19,3.78.44.44,0,0,0,.33.15.4.4,0,0,0,.22-.06.41.41,0,0,0,.18-.55c-.91-2.52-1.47-6.34,0-8.78l0,0,.11-.11a7.34,7.34,0,0,1,1,3.06l.07.36a13,13,0,0,0,.34,1.5.46.46,0,0,0,.45.3.45.45,0,0,0,.4-.47,11.62,11.62,0,0,1,2.52-8,1,1,0,0,1,.65-.4s.07,0,.09.18a11.67,11.67,0,0,1-.18,4,11.49,11.49,0,0,0-.08,4.75.31.31,0,0,1-.14.07.45.45,0,0,0-.2.11.23.23,0,0,0-.15-.06h-.15l-.18,0a.79.79,0,0,0-.77.54v0l0,.13a3.4,3.4,0,0,0,.81,2.26l-.1.2a8.15,8.15,0,0,1-1.27,2,1.78,1.78,0,0,1-.38-.51l-.16-.27a18.73,18.73,0,0,1-1.46-3.4L124,28a.43.43,0,0,0-.45-.29.42.42,0,0,0-.4.41,10.4,10.4,0,0,0,1.85,6v0a.92.92,0,0,0-.09,1.2,3.43,3.43,0,0,0,1.22,1.08l.3.18-.06.23a2.3,2.3,0,0,1-.22.6,14.24,14.24,0,0,1-4.41-4.25.44.44,0,0,0-.36-.18h0l-.11,0a.42.42,0,0,0-.26.53c.61,2.69,3.26,4.89,4.8,6h0a1.79,1.79,0,0,0-.11.21l-.07.14c-.06.17-.18.34-.7.37a10.9,10.9,0,0,1-3.89-1.78l-.61-.38a.41.41,0,0,0-.23-.07.46.46,0,0,0-.22.06.44.44,0,0,0-.21.42c0,.71.66,1.19,1.16,1.57a3.56,3.56,0,0,1,.42.36,6.92,6.92,0,0,0,1.51.93l.11.06a4.33,4.33,0,0,1,1.75,1.32,3.84,3.84,0,0,0,2.11.85,11.62,11.62,0,0,1-1.37.08,16.36,16.36,0,0,1-2.83-.29h0a.46.46,0,0,0-.46.28.41.41,0,0,0,.16.51,8.28,8.28,0,0,0,4.5,1.31,2.37,2.37,0,0,1,0,1.36,2.21,2.21,0,0,1-1.77.84Zm39.57-1.71a9.43,9.43,0,0,1,1-.59A4.27,4.27,0,0,0,167.19,44a.44.44,0,0,0,0-.51.46.46,0,0,0-.35-.16h0l-.13,0-.68.32a16,16,0,0,1-5,1.71,16.25,16.25,0,0,0,6.33-5.54.47.47,0,0,0-.09-.56.45.45,0,0,0-.6,0,27.41,27.41,0,0,1-6.94,4.82,3.33,3.33,0,0,1-1.51.46,1.33,1.33,0,0,1-.45-.07l.26-.11a2.15,2.15,0,0,0,.61-.38c1.32-.86,4.6-3.28,5.84-6.5a.42.42,0,0,0-.17-.52.44.44,0,0,0-.24-.07.4.4,0,0,0-.31.13c-.54.49-1.08,1.07-1.59,1.61a21.67,21.67,0,0,1-2.48,2.41l-.37.27a12.37,12.37,0,0,1-3.39,2.08,2.43,2.43,0,0,1-.69-.11,19.94,19.94,0,0,0,7.11-9.82s0-.22,0-.26a1.78,1.78,0,0,0-.1-1.44.51.51,0,0,0-.41-.18.44.44,0,0,0-.38.3,17.65,17.65,0,0,1-8.2,10.16,1.48,1.48,0,0,1-.75-.48.55.55,0,0,1,.32-.32,14.5,14.5,0,0,0,6.54-12.87.43.43,0,0,0-.28-.38L159,28h-.11a.4.4,0,0,0-.33.17,3.1,3.1,0,0,0-.66,2,6.52,6.52,0,0,1-.13.89,14.79,14.79,0,0,1-5.45,8.34,1.81,1.81,0,0,0-.23,0l-.1,0a3.93,3.93,0,0,0,.06-.48V38.8a1.87,1.87,0,0,1,.11-.5c3.25-2.72,5-6.63,5-11.56a21.83,21.83,0,0,0-.67-4.09l0-.18a28,28,0,0,1-.56-3.06l.19.06a8,8,0,0,1,3.54,5,8.44,8.44,0,0,1,.41,3.38c0,.58,0,1.22,0,1.83a.42.42,0,0,0,.35.39h0c.27,0,.45-.12.49-.31a21.71,21.71,0,0,0,.7-2.74,12.49,12.49,0,0,1,.77-2.74c1.84,2.12,2,5.55.41,10.19a.44.44,0,0,0,.2.52.59.59,0,0,0,.22.05.43.43,0,0,0,.33-.15,12.38,12.38,0,0,0,2-4.07c.18-.51.35-1,.53-1.5h0a.73.73,0,0,0,.09-.11l.09-.11a4,4,0,0,1,.28-.37,5.49,5.49,0,0,1,.65,2.44l0,.17a12.87,12.87,0,0,1-1.74,6.41.45.45,0,0,0,0,.47.71.71,0,0,0,.54.3.82.82,0,0,0,.66-.48l.09-.11.23-.34.37-.58a6.38,6.38,0,0,1,1.81-2.15,7.4,7.4,0,0,1-2.39,6.39.44.44,0,0,0-.05.56.43.43,0,0,0,.36.2h.06l.14-.06a10.32,10.32,0,0,0,1.3-.8l.12-.08a8.08,8.08,0,0,1,1.5-.85,1.2,1.2,0,0,0,0,.23c-.79,2.68-3.29,4.63-5.84,5.5ZM147.76,35.55a1.69,1.69,0,0,0-.52-.44,7.24,7.24,0,0,0-3.11-.53c-1.42,0-2.76-.07-3.52-1.17a1.83,1.83,0,0,1,0-.33,1.27,1.27,0,0,0-.51-1.23l-.05,0-.15,0a.51.51,0,0,0-.32.12,2.81,2.81,0,0,1-2,1h0a4.14,4.14,0,0,1,.79-1.81.39.39,0,0,0,.11-.27c0-.18-.07-.77-.91-.77l-.52,0h-.08a1.35,1.35,0,0,1,.22-.5,4.45,4.45,0,0,0,.27-.53,3.31,3.31,0,0,1,1.14-1.16l.39-.28a.44.44,0,0,0,.19-.37.77.77,0,0,0-.82-.75,1.18,1.18,0,0,0-.27,0h-.17a9.92,9.92,0,0,0,1.19-.8l.09-.06a8,8,0,0,1,.93-.63.42.42,0,0,0,.21-.48,8.31,8.31,0,0,1,0-2.39c.05-.37.09-.7.11-1l.34,0h.19c.33,0,.66-.06,1-.06,1,0,1.53.27,1.8.92a1.69,1.69,0,0,1,.12.47l0,.12a1.66,1.66,0,0,0,.93,1.43h.15a.48.48,0,0,0,.27-.09.4.4,0,0,0,.17-.42l-.05-.35c-.19-1.26-.43-2.82-2-3.3l-.28-.11c.48-.07.73-.43.73-1.08v-.1l.51.33,0,0,.14,0a6.84,6.84,0,0,1,3.89,2.47A1.76,1.76,0,0,1,148,23.1a.4.4,0,0,0,0,.49,2.69,2.69,0,0,0,.89.82c.68.47.86.67.71,1.11a.42.42,0,0,0,.14.47,9.93,9.93,0,0,0,1.93,1.24l.56.3a.17.17,0,0,1,.06.08.65.65,0,0,1-.23.16s0,0-.09-.1a1.42,1.42,0,0,0-.86-.43.76.76,0,0,0-.5.19.45.45,0,0,0-.13.51,2.19,2.19,0,0,0,.67.8,1.26,1.26,0,0,1,.19.16c-.1.53-.53.83-1.07,1.21a9.1,9.1,0,0,0-.78.61l0,0c-.19-1.18-1.46-2-2.2-2.39a1.45,1.45,0,0,0-.56-.12,2.2,2.2,0,0,0-1.07.36A4,4,0,0,0,144,32.91v0L144,33a2.22,2.22,0,0,0,2,1,9.54,9.54,0,0,0,1.3-.13,7.1,7.1,0,0,1,1.15-.14h.17c0,.08,0,.19-.23.55l-.05.08a1.9,1.9,0,0,0-.35,1.07,2.77,2.77,0,0,1-.05.29Zm-2-9.31s.12.09.24.24a2.65,2.65,0,0,0,.41.45l.05,0,.13,0a1.27,1.27,0,0,0,.26,0,1.61,1.61,0,0,0,1.26-.88,2,2,0,0,1,.43-.46.47.47,0,0,0,.2-.46c-.17-1-.58-1.18-.89-1.18a.71.71,0,0,0-.38.13.41.41,0,0,0-.17.32c0,.27-.16.35-.77.46a1.83,1.83,0,0,0-1.23.58.39.39,0,0,0,0,.49.46.46,0,0,0,.4.21Zm-3.5-4.63a.84.84,0,0,0-.73.43.41.41,0,0,0,.07.55c.26.25.19.61,0,1.16l-.06.17a.42.42,0,0,0,0,.37.78.78,0,0,0,.7.49,1.27,1.27,0,0,0,.71-.3,1.24,1.24,0,0,1,.39-.24h.06a.45.45,0,0,0,.3-.15.82.82,0,0,0,.05-1.05l-.08-.13a.33.33,0,0,0,0-.16S143.09,21.61,142.3,21.61Zm9,11.75a4.06,4.06,0,0,1-2.25-1.06,6.46,6.46,0,0,0-2.15-1.19h0a5.43,5.43,0,0,1,2.18.8,5.65,5.65,0,0,0,2.52.88A2.58,2.58,0,0,0,153,32.4a1.31,1.31,0,0,1-.68.71A2.34,2.34,0,0,1,151.31,33.36Z"/><path class="cls-2" d="M145.05,7.4a37.28,37.28,0,1,0,37.27,37.27A37.31,37.31,0,0,0,145.05,7.4Zm0,72.7a35.43,35.43,0,1,1,35.43-35.43A35.47,35.47,0,0,1,145.05,80.1Z"/></g></g></svg>