<svg width="291" height="185" viewBox="0 0 291 185" fill="none" xmlns="http://www.w3.org/2000/svg">
<g filter="url(#filter0_i)">
<path d="M108.258 89.5385C83.0589 89.2577 59.237 104.453 46.8803 109.465C29.6787 116.441 14 116 -1.52588e-05 140V173.004C-1.52588e-05 179.632 5.37257 185 12 185H18.1672H278C284.627 185 290 179.627 290 173V122.43C287.214 119.786 282.946 119.021 278.552 119.021C273.5 119.021 271.5 120 268 114.5C265.079 109.911 248.852 98.1605 250.5 88C252.266 77.112 253.056 69.5 259.5 60.5C263.895 54.3627 258.748 50.283 263 41.5L260.75 38.5457C257.333 40.8978 253.056 44 253.056 50.1842C253.056 58.735 245.3 61.0473 240.563 68.1665C232.722 79.9532 235 91 221.5 99C215.204 102.731 167.996 103.908 160.751 104.933C139.599 107.928 129.62 89.7765 108.258 89.5385Z" fill="url(#paint0_linear)"/>
</g>
<path d="M258.845 39.9023L262.037 42.7678C262.549 43.2269 263.26 43.3913 263.921 43.2029L263.949 43.1948C264.276 43.1018 264.573 42.9272 264.814 42.6875L266.835 40.6713C267.055 40.4518 267.221 40.184 267.32 39.8892L267.428 39.565C267.555 39.1837 267.795 38.8497 268.115 38.6065L276.886 31.9409C277.063 31.8062 277.251 31.6866 277.448 31.5833L290 25L290.084 15L290 8V0L277.553 12.3334C277.287 12.5968 277.06 12.8961 276.877 13.2226L270.719 24.2362C270.622 24.4101 270.512 24.5764 270.39 24.7339L263.232 33.973C262.989 34.2866 262.658 34.5209 262.282 34.646L261.945 34.7578C261.651 34.8557 261.383 35.0206 261.164 35.2396L258.785 37.6126C258.488 37.9084 258.321 38.3101 258.321 38.7289C258.321 39.1766 258.512 39.6032 258.845 39.9023Z" fill="#2D2D2D"/>
<defs>
<filter id="filter0_i" x="-1.52588e-05" y="38.5457" width="290" height="151.454" filterUnits="userSpaceOnUse" color-interpolation-filters="sRGB">
<feFlood flood-opacity="0" result="BackgroundImageFix"/>
<feBlend mode="normal" in="SourceGraphic" in2="BackgroundImageFix" result="shape"/>
<feColorMatrix in="SourceAlpha" type="matrix" values="0 0 0 0 0 0 0 0 0 0 0 0 0 0 0 0 0 0 127 0" result="hardAlpha"/>
<feOffset dy="5"/>
<feGaussianBlur stdDeviation="5"/>
<feComposite in2="hardAlpha" operator="arithmetic" k2="-1" k3="1"/>
<feColorMatrix type="matrix" values="0 0 0 0 0.566667 0 0 0 0 0.460417 0 0 0 0 0 0 0 0 0.5 0"/>
<feBlend mode="normal" in2="shape" result="effect1_innerShadow"/>
</filter>
<linearGradient id="paint0_linear" x1="37.374" y1="126.411" x2="305.827" y2="187.996" gradientUnits="userSpaceOnUse">
<stop stop-color="#FFED9F"/>
<stop offset="1" stop-color="#E8D06A"/>
</linearGradient>
</defs>
</svg>
