<svg width="775" height="367" viewBox="0 0 775 367" fill="none" xmlns="http://www.w3.org/2000/svg">
<g filter="url(#filter0_i)">
<path d="M150.5 185C104.414 203.692 -19.0001 262.5 3.49991 367H80.9999H763C769.627 367 775 361.627 775 355V216.368C768.259 209.972 757.933 208.122 747.302 208.122C698.252 208.122 691.29 220.716 682.27 196.577C677.663 184.248 638.999 185.5 625.499 175C615.363 167.116 614.227 150.721 612.08 136.79C608.875 116 606.754 113.297 617.04 92.0473L609.875 86C601.608 91.6907 598.784 98.3283 596.097 111.739C592.755 147.338 580.828 145.478 565.874 155.246C546.3 171.892 506.385 153.43 469.538 161.393C452.232 165.132 443.53 171.555 426 174.037C374.824 181.282 350.682 137.366 298.999 136.79C238.031 136.111 180.396 172.875 150.5 185Z" fill="url(#paint0_linear)"/>
</g>
<path d="M604.663 88.7413L614.155 97.2622C614.667 97.7214 615.378 97.8857 616.039 97.6973L618.322 97.0469C618.648 96.9538 618.946 96.7792 619.186 96.5395L625.072 90.669C625.292 90.4495 625.458 90.1817 625.556 89.8869L626.309 87.6354C626.436 87.2542 626.676 86.9202 626.996 86.677L649.559 69.5307L680.299 50.7044C680.662 50.482 680.987 50.2031 681.262 49.8782L723.499 0H704.999H675.229C673.905 0 672.636 0.525 671.698 1.45987L649.953 23.1483C649.692 23.4095 649.467 23.7056 649.287 24.0283L633.786 51.75C633.689 51.9239 633.579 52.0902 633.457 52.2477L615.35 75.6196C615.107 75.9331 614.776 76.1674 614.4 76.2925L612.131 77.0467C611.837 77.1446 611.569 77.3095 611.35 77.5286L604.587 84.2742C604.21 84.6495 603.999 85.1589 603.999 85.6903V87.253C603.999 87.8208 604.24 88.3619 604.663 88.7413Z" fill="#2D2D2D"/>
<defs>
<filter id="filter0_i" x="0.785156" y="86" width="774.215" height="286" filterUnits="userSpaceOnUse" color-interpolation-filters="sRGB">
<feFlood flood-opacity="0" result="BackgroundImageFix"/>
<feBlend mode="normal" in="SourceGraphic" in2="BackgroundImageFix" result="shape"/>
<feColorMatrix in="SourceAlpha" type="matrix" values="0 0 0 0 0 0 0 0 0 0 0 0 0 0 0 0 0 0 127 0" result="hardAlpha"/>
<feOffset dy="5"/>
<feGaussianBlur stdDeviation="5"/>
<feComposite in2="hardAlpha" operator="arithmetic" k2="-1" k3="1"/>
<feColorMatrix type="matrix" values="0 0 0 0 0.566667 0 0 0 0 0.460417 0 0 0 0 0 0 0 0 0.5 0"/>
<feBlend mode="normal" in2="shape" result="effect1_innerShadow"/>
</filter>
<linearGradient id="paint0_linear" x1="127.5" y1="226" x2="777" y2="375" gradientUnits="userSpaceOnUse">
<stop stop-color="#FFED9F"/>
<stop offset="1" stop-color="#E8D06A"/>
</linearGradient>
</defs>
</svg>
