<svg width="81" height="108" viewBox="0 0 81 108" fill="none" xmlns="http://www.w3.org/2000/svg">
<path fill-rule="evenodd" clip-rule="evenodd" d="M12.532 25.4494C11.9263 27.6344 10.6026 30.5733 11.0779 33.2081C11.2922 34.208 11.7809 35.1283 12.4891 35.8659C13.1974 36.6036 14.0972 37.1292 15.0876 37.3839C15.5461 37.5526 16.0498 37.5526 16.5084 37.3839C17.4988 37.1292 18.3986 36.6036 19.1069 35.8659C19.8151 35.1283 20.3038 34.208 20.5181 33.2081C20.9934 30.5733 19.6697 27.6344 19.064 25.4494C17.3697 25.1862 14.303 25.0354 12.532 25.4494Z" fill="#E3E3E3"/>
<path fill-rule="evenodd" clip-rule="evenodd" d="M19.0333 25.5596C18.5529 25.7768 16.0638 25.7793 15.7955 25.7793C15.5271 25.7793 13.0559 25.7793 12.555 25.5596C12.5065 25.5391 12.5346 25.5289 12.555 25.4778C12.555 25.6311 15.5373 25.6797 15.7852 25.6797C16.0331 25.6797 19.0052 25.6337 19.0052 25.4829C19.0589 25.5008 19.1023 25.534 19.0333 25.5596Z" fill="#CCCACD"/>
<path fill-rule="evenodd" clip-rule="evenodd" d="M43.1373 62.5537C44.8444 63.1465 46.825 64.4524 47.1265 66.2541C47.4894 67.2227 46.8505 69.0448 45.9765 69.4486C42.7795 70.918 37.2877 67.6597 32.6749 65.5513C28.9106 63.8289 22.2891 59.9291 21.0522 59.2621C19.8223 58.2703 18.6699 57.1861 17.6048 56.0191C16.4676 54.7567 15.89 53.944 14.7937 52.9371C14.8218 52.1704 15.683 51.0639 17.8603 52.3979C18.2692 51.9583 18.3306 51.4293 18.9516 51.8408L19.4984 52.0963L20.1476 51.4677C20.5411 51.2964 21.1698 50.9208 21.2541 50.5885C21.824 49.5075 22.6239 51.7999 22.6622 51.9404C23.0711 53.4405 23.3982 53.0291 23.5107 53.9644C23.5516 54.3043 23.3854 55.6971 23.3701 56.2925C26.9198 59.9444 37.9163 60.7443 43.1373 62.5537Z" fill="#F1B287"/>
<path fill-rule="evenodd" clip-rule="evenodd" d="M23.3778 56.2951C24.3285 57.2739 25.8184 58.0482 27.5868 58.6922C25.5935 58.3549 23.7739 57.8336 22.4195 56.5149C22.8156 54.4526 23.1248 53.3946 21.9084 51.5265C21.9211 51.5009 21.9365 51.4575 21.9569 51.4013C22.2021 50.6304 22.3833 49.8406 22.4987 49.0399C22.8824 48.4257 23.4083 47.9129 24.032 47.5449L24.1112 47.5679C23.5713 48.1167 23.115 48.7418 22.7568 49.4233C22.7788 50.0474 22.7011 50.6712 22.5268 51.2709C22.5945 51.7235 22.7289 52.1636 22.9255 52.5768C23.0941 52.9269 23.2858 53.162 23.4085 53.4534C23.6794 54.1357 23.3906 55.5285 23.3778 56.2951Z" fill="#F5BC95"/>
<path fill-rule="evenodd" clip-rule="evenodd" d="M14.6097 49.9906C15.4249 50.7061 15.9514 51.6849 15.8006 51.8178C15.5731 52.0171 15.1668 52.5564 14.6812 52.1679C14.1957 51.7795 11.6836 49.6814 11.6836 49.6814C9.89469 48.1634 10.1502 47.4631 10.5029 47.2255C10.8045 47.0287 11.5737 47.7519 12.2688 48.4394C12.808 48.9684 14.0679 49.5127 14.6097 49.9906Z" fill="#D49368"/>
<path fill-rule="evenodd" clip-rule="evenodd" d="M14.8039 52.9091C14.0602 51.8562 13.2322 51.0205 12.5703 50.6678C12.1742 50.4557 11.8727 50.075 11.4408 49.8066C10.943 49.5315 10.4254 49.294 9.89212 49.0962C8.98049 48.6972 8.02616 48.404 7.04779 48.2222C7.93201 47.7954 9.29668 47.2843 10.5745 48.1634C11.9391 48.2861 13.0278 48.6413 13.8762 49.8731C15.0825 50.029 15.3431 50.6627 16.3168 52.1731L14.8039 52.9091Z" fill="#F1B287"/>
<path fill-rule="evenodd" clip-rule="evenodd" d="M7.04779 48.2222C7.93201 47.7954 9.29668 47.2843 10.5745 48.1634C11.9391 48.2861 13.0278 48.6413 13.8762 49.8731C15.0825 50.029 15.3431 50.6627 16.3168 52.1731L16.5442 53.5556C15.3968 52.2523 14.8729 51.34 13.9069 50.3331C13.5422 49.7759 13.0513 49.3125 12.4741 48.9804C11.897 48.6483 11.2497 48.4568 10.5847 48.4215C9.06668 47.5322 7.7429 48.166 7.04779 48.2222Z" fill="#E8A476"/>
<path fill-rule="evenodd" clip-rule="evenodd" d="M57.0345 25.176C61.3125 27.7316 66.2498 26.142 68.0234 23.3309C69.5567 20.9108 70.883 17.287 71.09 15.0816C71.1667 14.1642 62.3756 11.9332 62.166 11.9689C61.9565 12.0047 54.7217 13.0218 54.4687 13.3592C52.6287 15.8125 51.2103 15.8355 51.4812 17.2334C51.7778 18.88 52.4278 20.4427 53.3865 21.8139C54.3452 23.1851 55.5898 24.3322 57.0345 25.176Z" fill="#400E01"/>
<path fill-rule="evenodd" clip-rule="evenodd" d="M56.6 31.915C56.9936 31.0717 57.2645 30.7676 58.2637 30.7241L58.8029 32.5335L57.5558 33.5199L56.5617 33.3972L56.6 31.915Z" fill="#999999"/>
<path fill-rule="evenodd" clip-rule="evenodd" d="M66.5948 32.4108C66.3622 31.915 66.2549 31.409 66.0428 31.2046C65.922 31.1148 65.7813 31.0556 65.6326 31.032C65.484 31.0084 65.3319 31.0212 65.1892 31.0691L64.7803 32.9449L66.0274 33.9339L67.0216 33.8087L66.5948 32.4108Z" fill="#999999"/>
<path fill-rule="evenodd" clip-rule="evenodd" d="M56.7559 25.6387C57.635 29.0043 57.5226 32.554 56.278 34.1436C55.9611 34.5499 54.6322 34.8693 53.2394 35.1326C51.3381 35.4878 48.9512 35.7689 47.9264 35.9836C45.0284 36.5867 44.663 40.3561 44.8163 41.8843C45.0157 43.8828 46.8301 43.5454 47.3463 45.2066C49.3908 51.7564 51.4608 59.9777 52.0332 63.0827L70.5278 63.144L75.092 44.5421L79.4825 41.4754C79.4084 34.3403 72.2962 36.1829 68.6035 34.6879C65.5879 33.4663 65.3221 30.9236 65.5675 25.7434L56.7559 25.6387Z" fill="#F1B287"/>
<path fill-rule="evenodd" clip-rule="evenodd" d="M73.8015 61.7385C70.5022 65.4415 67.2337 77.0104 64.6015 82.3771C63.8502 83.8461 62.7256 85.0914 61.3406 85.9881C63.0451 86.8136 65.8128 89.4943 67.0931 87.3017C70.7144 81.1096 73.4054 76.185 76.9985 69.8626C77.6144 68.7816 79.6486 64.9508 80.1265 63.5146C80.6606 61.9148 80.0932 61.235 80.0984 60.1923C80.1111 57.8233 80.3181 53.852 79.8428 48.6923C79.485 44.7593 79.8428 41.0998 79.2422 38.7614C78.9407 37.6089 77.8086 36.3899 76.7634 35.8737C74.2819 34.6496 70.7246 35.4162 68.2738 34.6956C71.2408 44.1946 72.7486 51.8306 73.8015 61.7385Z" fill="#E6E6E6"/>
<path fill-rule="evenodd" clip-rule="evenodd" d="M71.9155 78.8888C73.5382 76.0112 75.1482 73.1286 76.9985 69.8728C77.6144 68.7918 79.6486 64.961 80.1265 63.5248C80.6606 61.925 80.0932 61.2452 80.0984 60.2026C80.1111 57.8336 80.3181 53.8622 79.8428 48.7026C79.485 44.7696 79.8428 41.11 79.2422 38.7717C78.9407 37.6191 77.8086 36.4001 76.7634 35.8839C74.2819 34.6598 70.7246 35.4265 68.2738 34.7058L68.5856 35.7127C71.1948 36.6659 74.6627 36.5075 76.2522 37.8619C77.3154 38.7691 77.7319 40.1977 78.1587 42.4619C78.8768 46.262 79.117 51.4064 79.1477 55.945C79.1477 57.1231 79.2346 58.6871 79.3112 59.8167C79.4007 61.1072 79.6869 61.9455 79.4339 62.9932C79.1272 64.271 78.0462 65.7865 76.8196 67.8744C74.816 71.2886 72.2835 75.5819 71.0696 78.0736L71.9155 78.8888Z" fill="#F5F5F5"/>
<path fill-rule="evenodd" clip-rule="evenodd" d="M69.6538 69.819C72.6975 61.9786 73.8219 62.1728 73.8398 61.6719C73.6916 59.7578 73.3287 58.4672 73.1472 54.7719C73.1268 54.3375 76.6611 49.9163 72.5109 44.0846L71.8797 43.4431C75.9047 45.4211 78.5241 50.0876 74.9464 55.7711C75.0051 56.6835 75.0818 58.1759 75.253 61.7281C73.4437 64.2505 71.4938 69.6504 69.963 72.096C70.4946 75.6815 69.3778 70.5422 69.6538 69.819Z" fill="#CCCCCC"/>
<path fill-rule="evenodd" clip-rule="evenodd" d="M49.8508 59.7476C50.597 49.211 51.931 44.5267 51.9719 35.3369C50.9891 35.5439 49.9962 35.7 48.9972 35.8046C46.4749 35.8915 44.5046 36.7016 43.5948 39.0476C42.1049 42.8809 43.8504 49.1165 43.8376 51.4701C43.8376 56.8036 43.8708 56.9569 42.5598 61.2145C41.7395 63.8595 40.7505 69.7066 44.5506 69.7423C48.3507 69.7781 49.6515 62.574 49.8508 59.7476Z" fill="#E6E6E6"/>
<path fill-rule="evenodd" clip-rule="evenodd" d="M49.8508 59.7476C49.9249 58.7075 50.1932 56.9186 50.1268 55.9679L49.1173 54.4346C49.3422 59.722 48.3737 64.2096 47.1342 68.393C48.987 66.1748 49.7 61.8022 49.8508 59.7476Z" fill="#F5F5F5"/>
<path fill-rule="evenodd" clip-rule="evenodd" d="M51.2972 35.4697C50.5305 35.6154 49.8917 35.7023 48.9972 35.8045C46.4749 35.8914 44.5046 36.7015 43.5948 39.0475C42.1049 42.8808 43.8503 49.1164 43.8376 51.4701C43.8376 56.8035 43.8708 56.9568 42.5598 61.2144C41.7931 63.6984 40.8706 69.0063 43.9091 69.6733C41.2232 66.0086 44.5071 62.7886 45.1077 56.3844C45.4322 52.9369 44.7984 48.8429 44.4713 43.9363C44.3206 41.6363 44.4713 40.2179 45.261 39.0807C46.3292 37.5321 49.1045 36.7577 51.2972 35.4697Z" fill="#CCCCCC"/>
<path fill-rule="evenodd" clip-rule="evenodd" d="M62.4931 54.772C61.9948 53.2565 60.7502 49.4539 63.615 46.1956C61.1719 50.2027 63.1729 54.243 63.1831 54.3503L62.4931 54.772Z" fill="#E8A476"/>
<path fill-rule="evenodd" clip-rule="evenodd" d="M61.1182 54.8155C61.614 53.3026 62.8611 49.4973 59.9938 46.239C62.4369 50.2461 60.4384 54.289 60.4257 54.3963L61.1182 54.8155Z" fill="#F5BC95"/>
<path fill-rule="evenodd" clip-rule="evenodd" d="M56.7559 25.6387C57.589 29.2497 57.7551 32.9271 55.6085 35.0942C55.9458 35.038 56.6435 57.072 61.2588 56.2006C61.2588 53.4636 59.7996 47.0006 58.6802 41.9303C58.1793 39.6516 57.9274 37.3252 57.9289 34.992C57.9085 34.1589 64.0622 31.1842 65.4959 27.9412C65.4554 27.1918 65.4974 26.4402 65.6211 25.7L56.7559 25.6387Z" fill="#E8A476" stroke="#CCCCCC" stroke-width="0.216" stroke-miterlimit="22.9256"/>
<path fill-rule="evenodd" clip-rule="evenodd" d="M50.3594 56.5046C56.6409 80.8182 43.2268 76.5095 45.2968 96.6524C45.4604 98.2292 45.698 99.8443 45.9894 101.564L46.6794 107H75.3016L75.9916 101.564C76.2829 99.8443 76.5206 98.2292 76.6841 96.6524C78.289 81.0354 70.5048 80.0285 69.8889 69.0729C69.917 66.0624 70.607 62.1856 72.0765 56.5046C68.5498 57.0004 64.6654 57.486 60.9956 58.0022L50.3594 56.5046Z" fill="#171616"/>
<path fill-rule="evenodd" clip-rule="evenodd" d="M75.2914 107L75.9814 101.564C76.2727 99.8443 76.5104 98.2292 76.6739 96.6524C78.2788 81.0354 70.5789 80.1129 69.963 69.1572C69.9886 66.1468 70.5968 62.1856 72.0662 56.5046L71.596 56.5711L71.6114 56.5046L70.538 56.6554L69.4877 57.5856C63.5 78.0301 72.8789 75.518 74.1976 91.8301C74.54 96.0928 74.1976 100.953 73.3261 107.002L75.2914 107Z" fill="#333131"/>
<path fill-rule="evenodd" clip-rule="evenodd" d="M50.3594 56.5046C56.6409 80.8182 43.2268 76.5095 45.2968 96.6524C45.4604 98.2292 45.698 99.8443 45.9894 101.564L46.6794 107H49.2196C48.1974 100.238 47.7501 94.9249 48.1232 90.3121C49.424 74.2249 58.5678 76.4559 53.0657 56.8854L50.3594 56.5046Z" fill="black"/>
<path fill-rule="evenodd" clip-rule="evenodd" d="M51.0902 59.6249C52.782 67.6903 51.9361 72.1599 50.3874 75.7249C56.7406 78.5616 65.2966 79.0472 71.5756 75.8118C70.621 73.7195 70.0737 71.4645 69.963 69.1674C70.0239 66.7991 70.2975 64.441 70.7808 62.1217L72.0074 57.1231C72.5492 52.3953 79.4339 53.2131 72.9964 44.2916C73.308 41.4147 73.7884 38.5587 74.4352 35.7382C72.5186 35.3727 70.4281 35.3344 68.8718 34.716C67.5429 34.1767 66.8606 32.9731 66.4082 31.8052C66.6306 34.2125 63.5077 37.0338 61.3124 36.9163C58.5294 36.7732 56.4978 33.267 56.5054 33.1085C56.4697 33.2337 56.5387 32.3418 56.5054 32.4492C55.8819 34.3965 55.2507 34.7696 53.242 35.1478C52.1201 35.3574 50.8832 35.5644 49.746 35.6717C48.6088 35.7356 47.4026 36.0857 46.733 36.2314C44.3563 40.2641 47.0933 43.4585 47.5508 46.3156C46.25 50.0058 47.8447 53.2565 50.4488 56.9978C50.5893 57.6981 51.0749 59.7911 51.0902 59.6249Z" fill="#E6E6E6"/>
<path fill-rule="evenodd" clip-rule="evenodd" d="M74.1643 36.9189C74.2512 36.5151 74.3407 36.1164 74.4352 35.728C72.5185 35.3625 70.4281 35.3242 68.8718 34.7058C67.5429 34.1665 66.8835 32.9833 66.4312 31.8154C66.5104 32.692 66.7277 33.6043 66.72 34.6598C66.9174 34.8333 67.1285 34.9905 67.3512 35.13C69.2295 36.2979 72.0381 36.3822 74.1643 36.9189Z" fill="#F5F5F5"/>
<path fill-rule="evenodd" clip-rule="evenodd" d="M56.4978 33.3001V33.0931C56.462 33.2183 56.531 32.3265 56.4978 32.4338C55.8742 34.3811 55.243 34.7542 53.2343 35.1325C50.919 35.5643 48.918 35.5362 46.5899 36.2058C46.227 36.8191 44.0599 38.2042 45.9178 38.3703C47.9341 37.0926 52.7002 36.975 55.1612 35.4289C55.5463 35.2166 55.871 34.9098 56.1049 34.5374C56.3387 34.165 56.4739 33.7392 56.4978 33.3001Z" fill="#CCCCCC"/>
<path fill-rule="evenodd" clip-rule="evenodd" d="M69.3369 76.7754C70.103 76.5064 70.8508 76.188 71.5756 75.8222C70.621 73.7298 70.0737 71.4748 69.963 69.1777C70.0239 66.8094 70.2976 64.4513 70.7808 62.132L72.0074 57.1334C72.0483 56.7833 73.2852 55.6409 74.0723 54.0258L73.5919 53.9722L69.4877 57.6062C66.3622 68.2552 67.4228 72.6737 69.3369 76.7754Z" fill="#F5F5F5"/>
<path fill-rule="evenodd" clip-rule="evenodd" d="M51.0902 59.6251C52.782 67.6904 51.9361 72.1601 50.3875 75.7251C51.0289 76.0113 51.6934 76.272 52.3757 76.5096C54.6399 71.994 56.2755 67.8207 52.8331 56.0652L48.7289 52.4363C49.1685 54.1357 49.9402 55.1579 51.0902 59.6251Z" fill="#CCCCCC"/>
<path fill-rule="evenodd" clip-rule="evenodd" d="M52.7667 14.4454C51.9463 13.2188 50.9778 14.0519 51.2793 15.5392C51.5349 16.7506 52.0818 18.1254 52.391 19.5054C52.6031 20.4536 52.9456 21.1231 53.7736 20.9468L53.6841 17.0087L52.7667 14.4454Z" fill="#F1B287"/>
<path fill-rule="evenodd" clip-rule="evenodd" d="M52.9328 17.0443C52.3654 16.408 52.1661 16.8118 52.4217 17.5018C52.6184 18.0129 52.7922 19.0351 53.3084 19.1194L52.9328 17.0443Z" fill="#975B36"/>
<path fill-rule="evenodd" clip-rule="evenodd" d="M52.2555 14.6139C51.8697 14.3328 51.5783 14.55 51.4889 15.0023C51.3765 15.6693 52.0307 16.9522 52.2428 17.7368C52.184 16.6558 51.5247 15.6029 51.6576 15.0228C51.7419 14.6625 52.0307 14.6037 52.3271 14.9257C52.3169 14.8183 52.2888 14.7161 52.2555 14.6139Z" fill="#E8A476"/>
<path fill-rule="evenodd" clip-rule="evenodd" d="M51.8927 17.1416C52.4574 18.3887 52.6236 19.0659 53.2676 19.324L53.6023 20.7117C52.8076 21.0286 52.4958 19.393 52.4268 19.0225C52.3322 18.5063 52.0358 17.9747 51.8927 17.1416Z" fill="#E8A476"/>
<path fill-rule="evenodd" clip-rule="evenodd" d="M64.8315 2.57737C66.4977 1.07725 69.0303 1.75703 70.5789 3.69925C74.2717 8.33248 70.9571 13.2161 69.7433 18.0308C68.4501 23.17 67.6988 24.4836 65.1662 26.8679C65.1662 26.6814 65.501 26.7555 65.3784 26.1882C64.8008 22.9579 66.7124 18.6697 67.0752 15.212C67.4509 11.6343 66.3852 5.86892 64.0086 2.94537L64.8315 2.57737Z" fill="#400E01"/>
<path fill-rule="evenodd" clip-rule="evenodd" d="M69.8889 14.4454C70.7118 13.2188 71.6778 14.0519 71.3788 15.5392C71.1233 16.7506 70.5738 18.1254 70.2646 19.5054C70.0525 20.4536 69.7126 21.1231 68.882 20.9468L68.974 17.0087L69.8889 14.4454Z" fill="#F1B287"/>
<path fill-rule="evenodd" clip-rule="evenodd" d="M64.8315 2.57721C65.1509 2.28656 65.5268 2.06485 65.9357 1.92591C66.3446 1.78696 66.7778 1.73378 67.2081 1.76966C66.2524 1.94344 65.593 2.28077 65.892 2.53632C66.0709 2.6871 66.7941 2.86344 67.5582 3.21099C69.1989 3.94955 70.0269 5.1021 70.4384 6.68655C69.5311 4.89766 69.2679 4.8261 67.5531 4.00066C68.0029 4.64721 68.1435 5.27844 68.3837 5.93266C69.02 7.6781 70.2467 11.8769 69.4902 13.7833L67.1136 14.8055C67.3691 11.215 66.2932 5.77166 64.0086 2.95799L64.8315 2.57721Z" fill="#1F0300"/>
<path fill-rule="evenodd" clip-rule="evenodd" d="M64.7011 27.4838C65.7832 26.5426 66.7073 25.4339 67.4381 24.1999C68.5728 22.3676 69.02 21.1077 69.4826 17.9362C69.8455 15.511 70.147 12.9912 69.7381 10.704C68.9715 6.25991 66.0377 2.87891 61.3048 2.8968C56.0889 2.90958 53.5334 4.9898 52.7667 9.99869C52.2556 13.2698 52.4677 15.3832 53.0222 18.1407C53.6356 21.2074 54.1671 22.9196 55.4654 24.7442C56.1136 25.7162 56.8793 26.6046 57.7449 27.3892C59.4239 28.8485 60.3311 29.4925 61.269 29.4925C62.2069 29.4925 63.2087 28.8127 64.7011 27.4838Z" fill="#F1B287"/>
<path fill-rule="evenodd" clip-rule="evenodd" d="M68.6852 21.6443C69.0659 20.4326 69.3362 19.189 69.4928 17.9286C69.8557 15.5033 70.1572 12.9836 69.7483 10.6963C69.4751 8.94061 68.767 7.2811 67.6886 5.8689C67.7448 6.12445 67.8981 6.35956 67.847 6.61256C67.686 7.42523 67.801 10.336 68.5089 12.889C69.4161 16.1243 68.6852 18.4371 68.6852 21.6443Z" fill="#F5BC95"/>
<path fill-rule="evenodd" clip-rule="evenodd" d="M55.3529 4.58862C53.9729 5.73607 53.1449 7.50451 52.7641 9.99873C52.253 13.2698 52.4651 15.3833 53.0197 18.1407C53.633 21.2074 54.1646 22.9196 55.4628 24.7443C56.1111 25.7163 56.8767 26.6046 57.7423 27.3893C58.3631 27.9524 59.0223 28.4715 59.7152 28.9431C57.2823 26.4207 56.8811 23.2161 55.6519 21.2968C52.0844 15.7257 52.2351 12.286 55.3529 4.58862Z" fill="#E8A476"/>
<path fill-rule="evenodd" clip-rule="evenodd" d="M64.3791 16.3925C64.1721 16.6481 63.8833 16.988 63.7607 17.1924C63.638 17.3969 63.5844 17.5758 63.7735 17.6601C63.9626 17.7444 64.4047 17.6831 64.8136 17.6601C65.961 17.6064 65.8997 17.6601 66.9781 17.2947L65.7003 16.344L64.3791 16.3925Z" fill="#FACCAD"/>
<path fill-rule="evenodd" clip-rule="evenodd" d="M63.8885 17.0442C64.6347 14.1436 68.3862 14.78 69.4724 14.366C69.2398 15.8993 67.8675 17.1541 66.858 17.3662C65.9942 17.5374 64.949 17.1617 63.8885 17.0442Z" fill="#B87244"/>
<path fill-rule="evenodd" clip-rule="evenodd" d="M63.7837 17.1569C64.2948 16.0095 65.1713 15.4268 65.8588 15.2837C66.743 15.0997 68.1102 15.2121 68.9587 15.0486C68.2814 16.2369 67.4637 17.1825 66.8299 17.3486C66.4819 17.4189 66.1257 17.4395 65.7719 17.4099C65.1969 17.3818 64.4941 17.2873 63.9447 17.4099C63.7964 17.4483 63.6917 17.369 63.7837 17.1569Z" fill="black"/>
<path fill-rule="evenodd" clip-rule="evenodd" d="M63.822 17.2361C64.6066 16.3058 65.3554 15.8535 65.9764 15.7334C66.5974 15.6133 67.4075 15.7334 68.2201 15.7896C67.6119 16.8604 67.0931 17.208 66.5232 17.3587C66.2097 17.4221 65.8887 17.4402 65.57 17.4124C65.0589 17.3894 64.4302 17.3025 63.9268 17.4124C63.7913 17.4456 63.6891 17.3945 63.822 17.2361Z" fill="white"/>
<path fill-rule="evenodd" clip-rule="evenodd" d="M66.1603 17.384C66.3625 17.384 66.5602 17.3241 66.7283 17.2118C66.8964 17.0994 67.0274 16.9398 67.1048 16.753C67.1821 16.5662 67.2024 16.3607 67.1629 16.1624C67.1235 15.9641 67.0261 15.782 66.8832 15.639C66.7402 15.496 66.5581 15.3987 66.3598 15.3592C66.1615 15.3198 65.9559 15.34 65.7692 15.4174C65.5824 15.4948 65.4227 15.6258 65.3104 15.7939C65.1981 15.962 65.1381 16.1596 65.1381 16.3618C65.1381 16.6329 65.2458 16.8929 65.4375 17.0846C65.6292 17.2763 65.8892 17.384 66.1603 17.384Z" fill="#005928"/>
<path fill-rule="evenodd" clip-rule="evenodd" d="M65.6773 16.0397L65.3579 16.1982C65.3238 16.3479 65.3308 16.504 65.3782 16.65C65.4256 16.796 65.5116 16.9265 65.6272 17.0276C65.7427 17.1287 65.8834 17.1967 66.0344 17.2243C66.1854 17.252 66.3411 17.2382 66.4849 17.1846C66.8759 17.0441 67.2235 16.5278 66.9321 15.8608L66.6459 15.8966C66.7048 15.9718 66.7446 16.0602 66.7619 16.1542C66.7791 16.2482 66.7733 16.345 66.7449 16.4362C66.7165 16.5275 66.6664 16.6104 66.5988 16.678C66.5313 16.7456 66.4483 16.7958 66.3571 16.8243C66.0556 16.9188 65.6262 16.7732 65.6773 16.0397Z" fill="#057D3B"/>
<path fill-rule="evenodd" clip-rule="evenodd" d="M66.2114 16.6632C66.3014 16.6632 66.3894 16.6365 66.4642 16.5865C66.539 16.5365 66.5973 16.4655 66.6317 16.3824C66.6661 16.2993 66.6751 16.2078 66.6576 16.1196C66.64 16.0313 66.5967 15.9503 66.5331 15.8867C66.4695 15.823 66.3884 15.7797 66.3002 15.7622C66.212 15.7446 66.1205 15.7536 66.0374 15.788C65.9543 15.8225 65.8832 15.8808 65.8332 15.9556C65.7832 16.0304 65.7566 16.1183 65.7566 16.2083C65.7566 16.329 65.8045 16.4447 65.8898 16.53C65.9751 16.6153 66.0908 16.6632 66.2114 16.6632Z" fill="black"/>
<path fill-rule="evenodd" clip-rule="evenodd" d="M65.7336 16.6762C65.8037 16.6762 65.871 16.6484 65.9206 16.5987C65.9702 16.5491 65.9981 16.4819 65.9981 16.4117C65.9981 16.3416 65.9702 16.2743 65.9206 16.2247C65.871 16.1751 65.8037 16.1472 65.7336 16.1472C65.6634 16.1472 65.5961 16.1751 65.5465 16.2247C65.4969 16.2743 65.4691 16.3416 65.4691 16.4117C65.4691 16.4819 65.4969 16.5491 65.5465 16.5987C65.5961 16.6484 65.6634 16.6762 65.7336 16.6762Z" fill="white"/>
<path fill-rule="evenodd" clip-rule="evenodd" d="M66.8222 16.9931C66.8925 16.9864 66.9577 16.9537 67.0052 16.9015C67.0527 16.8493 67.079 16.7812 67.079 16.7107C67.079 16.6401 67.0527 16.572 67.0052 16.5198C66.9577 16.4676 66.8925 16.435 66.8222 16.4283C66.7829 16.4245 66.7432 16.429 66.7057 16.4415C66.6682 16.454 66.6338 16.4742 66.6045 16.5008C66.5753 16.5274 66.5519 16.5598 66.5359 16.5959C66.5199 16.6321 66.5117 16.6711 66.5117 16.7107C66.5117 16.7502 66.5199 16.7893 66.5359 16.8254C66.5519 16.8616 66.5753 16.894 66.6045 16.9205C66.6338 16.9471 66.6682 16.9673 66.7057 16.9798C66.7432 16.9923 66.7829 16.9968 66.8222 16.9931Z" fill="#0ABD5A"/>
<path fill-rule="evenodd" clip-rule="evenodd" d="M67.5455 15.2556C68.1614 15.1354 68.3709 15.0383 68.675 14.6831C68.6378 14.8266 68.5686 14.9597 68.4725 15.0726C68.3765 15.1854 68.2561 15.2751 68.1205 15.3348L67.5455 15.2556Z" fill="black"/>
<path fill-rule="evenodd" clip-rule="evenodd" d="M67.0139 15.2556C67.6324 15.1534 67.8419 15.0614 68.1562 14.7139C68.1158 14.8552 68.0437 14.9856 67.9454 15.0949C67.8471 15.2043 67.7252 15.2898 67.5889 15.3451L67.0139 15.2556Z" fill="black"/>
<path fill-rule="evenodd" clip-rule="evenodd" d="M66.4594 15.2553C67.0573 15.1684 67.2592 15.0841 67.5685 14.7595C67.5269 14.8956 67.4546 15.0204 67.3571 15.1241C67.2596 15.2278 67.1395 15.3077 67.0062 15.3575L66.4594 15.2553Z" fill="black"/>
<path fill-rule="evenodd" clip-rule="evenodd" d="M63.5281 14.1692C64.7829 13.4332 66.0198 12.94 67.0062 12.8378C67.8112 12.7534 68.5396 13.2569 69.7765 13.5099C68.2968 13.5099 67.64 13.0806 67.1212 13.1393C66.3878 13.2211 65.9304 13.5533 64.2462 14.5347C64.0372 14.6401 63.7957 14.6611 63.5716 14.5934C63.3518 14.5347 63.0017 14.4887 63.5281 14.1692Z" fill="#400E01"/>
<path fill-rule="evenodd" clip-rule="evenodd" d="M61.7827 21.537C61.9842 21.4138 62.2006 21.3167 62.4267 21.2482C62.4806 21.227 62.5388 21.2186 62.5966 21.2236C62.6543 21.2286 62.7102 21.2469 62.7597 21.2771C62.8092 21.3073 62.851 21.3486 62.8819 21.3976C62.9128 21.4467 62.9319 21.5023 62.9378 21.56C62.9863 21.9637 62.5212 22.0711 62.1916 22.089C62.0057 22.1057 61.8212 22.1356 61.6396 22.1784C61.3598 22.2448 61.0684 22.2448 60.7886 22.1784C60.6078 22.1356 60.4242 22.1058 60.2391 22.089C59.9095 22.066 59.4418 21.9637 59.4903 21.56C59.4962 21.5023 59.5153 21.4467 59.5462 21.3976C59.5771 21.3486 59.619 21.3073 59.6685 21.2771C59.718 21.2469 59.7738 21.2286 59.8316 21.2236C59.8893 21.2186 59.9475 21.227 60.0015 21.2482C60.2414 21.3187 60.4721 21.4174 60.6889 21.5421C60.8502 21.6522 61.0412 21.7107 61.2366 21.7098C61.4319 21.7089 61.6224 21.6486 61.7827 21.537Z" fill="#E8A476"/>
<path fill-rule="evenodd" clip-rule="evenodd" d="M61.66 21.9663C61.8199 21.8166 61.9907 21.6791 62.1711 21.5548C62.3321 21.4679 62.5263 21.4219 62.6183 21.4961C62.6487 21.5218 62.6704 21.5561 62.6806 21.5946C62.6907 21.633 62.6889 21.6736 62.6752 21.711C62.6616 21.7483 62.6368 21.7806 62.6042 21.8034C62.5716 21.8262 62.5329 21.8384 62.4931 21.8385C62.2134 21.867 61.9354 21.9097 61.66 21.9663Z" fill="#975B36"/>
<path fill-rule="evenodd" clip-rule="evenodd" d="M60.8499 22.0251C60.6903 21.8752 60.5194 21.7376 60.3388 21.6137C60.1778 21.5242 59.9836 21.4782 59.8916 21.5523C59.8612 21.578 59.8395 21.6124 59.8293 21.6509C59.8191 21.6893 59.821 21.7299 59.8347 21.7673C59.8483 21.8046 59.8731 21.8369 59.9057 21.8597C59.9382 21.8825 59.977 21.8947 60.0168 21.8948C60.2965 21.9243 60.5745 21.9678 60.8499 22.0251Z" fill="#975B36"/>
<path fill-rule="evenodd" clip-rule="evenodd" d="M61.177 17.4174C61.1182 18.3272 61.039 19.2063 60.9726 19.9985C60.9138 20.6885 60.7017 20.7652 60.717 20.8955C60.7323 21.0259 60.8831 21.1996 61.338 21.261C61.7264 21.1434 61.9181 21.0412 61.936 20.9134C61.9539 20.7856 61.7315 20.6911 61.6804 20.0394C61.6166 19.2932 61.6677 18.4218 61.6293 17.4174C61.5552 15.7895 61.2843 15.8177 61.177 17.4174Z" fill="#F5BC95"/>
<path fill-rule="evenodd" clip-rule="evenodd" d="M59.4341 14.4122C60.1088 15.1047 61.1054 18.1637 60.2366 20.663C60.6173 17.3408 59.452 15.3654 57.1009 13.5203L59.4341 14.4122Z" fill="#E8A476"/>
<path fill-rule="evenodd" clip-rule="evenodd" d="M69.4519 10.1443C70.1828 13.5994 70.0473 15.6413 69.4953 18.4013C68.882 21.468 68.3274 23.0856 67.0318 24.9103C66.3253 25.9067 65.4997 26.8129 64.5733 27.609C66.6408 24.1283 66.1808 23.4817 67.3206 21.3964C69.8889 16.6967 69.7253 15.8227 69.4519 10.1443Z" fill="#F5BC95"/>
<path fill-rule="evenodd" clip-rule="evenodd" d="M53.8374 19.4133L52.3731 16.0579L57.911 9.81468L66.0556 5.63379C65.9636 6.10401 67.4407 6.18579 67.9288 6.45668C66.9066 8.84357 64.5733 10.5456 62.212 11.8668C58.1793 14.1182 53.7403 14.0697 53.8374 19.4133Z" fill="#E8A476"/>
<path fill-rule="evenodd" clip-rule="evenodd" d="M58.3889 16.3925C58.5933 16.6481 58.8847 16.988 59.0048 17.1924C59.1249 17.3969 59.1811 17.5758 59.0048 17.6601C58.7773 17.7623 58.3736 17.6831 57.9647 17.6601C56.8172 17.6064 56.8786 17.6601 55.8001 17.2947L57.0779 16.344L58.3889 16.3925Z" fill="#FACCAD"/>
<path fill-rule="evenodd" clip-rule="evenodd" d="M58.9 17.0444C58.1333 14.1336 54.392 14.77 53.3033 14.356C53.5359 15.8893 54.9108 17.1441 55.9202 17.3562C56.7815 17.5376 57.8292 17.162 58.9 17.0444Z" fill="#B87244"/>
<path fill-rule="evenodd" clip-rule="evenodd" d="M58.992 17.1569C58.4809 16.0095 57.6043 15.4268 56.9194 15.2837C56.0327 15.0997 54.6654 15.2121 53.8195 15.0486C54.4968 16.2369 55.3146 17.1825 55.9458 17.3486C56.2946 17.4188 56.6517 17.4395 57.0063 17.4099C57.5788 17.3818 58.2841 17.2872 58.8336 17.4099C58.9818 17.4482 59.0866 17.369 58.992 17.1569Z" fill="black"/>
<path fill-rule="evenodd" clip-rule="evenodd" d="M58.9537 17.2361C58.1691 16.3058 57.4204 15.8535 56.7994 15.7334C56.1784 15.6133 55.3682 15.7334 54.5556 15.7896C55.1664 16.8604 55.6851 17.208 56.255 17.3587C56.5686 17.4221 56.8896 17.4402 57.2082 17.4124C57.7194 17.3894 58.3455 17.3025 58.8515 17.4124C58.9844 17.4456 59.0891 17.3945 58.9537 17.2361Z" fill="white"/>
<path fill-rule="evenodd" clip-rule="evenodd" d="M56.6179 17.384C56.8201 17.384 57.0177 17.3241 57.1858 17.2118C57.3539 17.0994 57.4849 16.9398 57.5623 16.753C57.6397 16.5662 57.6599 16.3607 57.6205 16.1624C57.581 15.9641 57.4837 15.782 57.3407 15.639C57.1977 15.496 57.0156 15.3987 56.8173 15.3592C56.619 15.3198 56.4135 15.34 56.2267 15.4174C56.0399 15.4948 55.8803 15.6258 55.7679 15.7939C55.6556 15.962 55.5957 16.1596 55.5957 16.3618C55.5957 16.6329 55.7034 16.8929 55.8951 17.0846C56.0868 17.2763 56.3468 17.384 56.6179 17.384Z" fill="#005928"/>
<path fill-rule="evenodd" clip-rule="evenodd" d="M57.1111 16.0397L57.4331 16.1982C57.4672 16.3479 57.4602 16.504 57.4128 16.65C57.3654 16.796 57.2794 16.9265 57.1639 17.0276C57.0484 17.1287 56.9077 17.1967 56.7567 17.2243C56.6056 17.252 56.45 17.2382 56.3061 17.1846C55.9151 17.0441 55.5676 16.5278 55.8589 15.8608L56.1451 15.8966C56.0867 15.9719 56.0473 16.0601 56.0303 16.1538C56.0132 16.2474 56.0189 16.3439 56.047 16.4349C56.0751 16.5259 56.1247 16.6088 56.1916 16.6766C56.2585 16.7444 56.3407 16.795 56.4314 16.8243C56.7252 16.9188 57.152 16.7732 57.1111 16.0397Z" fill="#057D3B"/>
<path fill-rule="evenodd" clip-rule="evenodd" d="M56.5642 16.6632C56.6542 16.6632 56.7421 16.6365 56.817 16.5865C56.8918 16.5365 56.9501 16.4655 56.9845 16.3824C57.0189 16.2993 57.0279 16.2078 57.0104 16.1196C56.9928 16.0313 56.9495 15.9503 56.8859 15.8867C56.8223 15.823 56.7412 15.7797 56.653 15.7622C56.5647 15.7446 56.4733 15.7536 56.3902 15.788C56.307 15.8225 56.236 15.8808 56.186 15.9556C56.136 16.0304 56.1093 16.1183 56.1093 16.2083C56.11 16.3287 56.1582 16.4441 56.2433 16.5292C56.3285 16.6144 56.4438 16.6625 56.5642 16.6632Z" fill="black"/>
<path fill-rule="evenodd" clip-rule="evenodd" d="M57.0421 16.6762C57.1123 16.6762 57.1795 16.6484 57.2291 16.5987C57.2787 16.5491 57.3066 16.4819 57.3066 16.4117C57.3066 16.3416 57.2787 16.2743 57.2291 16.2247C57.1795 16.1751 57.1123 16.1472 57.0421 16.1472C56.972 16.1472 56.9047 16.1751 56.8551 16.2247C56.8055 16.2743 56.7776 16.3416 56.7776 16.4117C56.7776 16.4819 56.8055 16.5491 56.8551 16.5987C56.9047 16.6484 56.972 16.6762 57.0421 16.6762Z" fill="white"/>
<path fill-rule="evenodd" clip-rule="evenodd" d="M55.9484 16.9931C56.0046 16.9931 56.0595 16.9764 56.1062 16.9451C56.1529 16.9138 56.1893 16.8694 56.2107 16.8174C56.2321 16.7654 56.2375 16.7083 56.2264 16.6532C56.2152 16.5981 56.1879 16.5475 56.148 16.508C56.1081 16.4684 56.0573 16.4416 56.0021 16.4309C55.9469 16.4203 55.8898 16.4263 55.838 16.4481C55.7862 16.47 55.7421 16.5067 55.7112 16.5537C55.6804 16.6007 55.6642 16.6558 55.6647 16.712C55.6654 16.7868 55.6955 16.8583 55.7487 16.9109C55.8018 16.9636 55.8736 16.9931 55.9484 16.9931Z" fill="#0ABD5A"/>
<path fill-rule="evenodd" clip-rule="evenodd" d="M55.2302 15.2556C54.6144 15.1354 54.4074 15.0383 54.1032 14.6831C54.1401 14.8267 54.2092 14.96 54.3053 15.0729C54.4014 15.1858 54.5219 15.2754 54.6578 15.3348L55.2302 15.2556Z" fill="black"/>
<path fill-rule="evenodd" clip-rule="evenodd" d="M55.7643 15.2556C55.1459 15.1534 54.9338 15.0614 54.622 14.7139C54.6619 14.8569 54.7344 14.9887 54.8337 15.0991C54.933 15.2095 55.0565 15.2954 55.1945 15.3502L55.7643 15.2556Z" fill="black"/>
<path fill-rule="evenodd" clip-rule="evenodd" d="M56.3164 15.2553C55.7209 15.1684 55.5165 15.0841 55.2072 14.7595C55.2494 14.8957 55.3223 15.0205 55.4202 15.1241C55.5181 15.2278 55.6384 15.3076 55.772 15.3575L56.3164 15.2553Z" fill="black"/>
<path fill-rule="evenodd" clip-rule="evenodd" d="M59.2476 14.1692C57.9928 13.4332 56.7585 12.94 55.7695 12.8378C54.9645 12.7534 54.2361 13.2569 53.0018 13.5099C54.4789 13.5099 55.1382 13.0806 55.6545 13.1393C56.3905 13.2211 56.8479 13.5533 58.532 14.5347C58.7401 14.6402 58.9809 14.6613 59.2041 14.5935C59.4265 14.5347 59.7766 14.4887 59.2476 14.1692Z" fill="#400E01"/>
<path fill-rule="evenodd" clip-rule="evenodd" d="M52.2198 18.8689C51.6858 18.1654 51.2339 17.4032 50.873 16.597C49.0356 12.5669 48.7161 6.70704 52.3527 3.37204C56.186 -0.154625 61.8491 -0.433181 65.3374 2.21182C64.903 2.33704 67.6656 6.16271 68.0131 6.37737C65.3247 10.8368 54.6424 11.6086 52.2198 18.8689Z" fill="#400E01"/>
<path fill-rule="evenodd" clip-rule="evenodd" d="M52.2198 18.8689C49.3473 15.1557 47.9469 7.41237 52.3527 3.37204C56.186 -0.154625 61.8491 -0.433181 65.3375 2.21182C65.064 3.36182 67.8112 4.31504 68.008 6.47448C63.8297 3.36182 53.6586 3.9036 51.1413 9.72004C53.8911 3.04748 60.1778 1.84893 66.1041 4.0416C62.8075 0.315597 56.1042 1.7416 53.3136 3.8806C49.6668 6.6636 49.4802 13.3668 52.3245 18.575C52.2888 18.6721 52.2555 18.7693 52.2198 18.8689Z" fill="#290700"/>
<path fill-rule="evenodd" clip-rule="evenodd" d="M68.0157 6.62781C68.376 8.48569 69.8761 10.6962 69.756 13.4128C69.7079 15.0717 69.5697 16.7267 69.342 18.3706C69.9017 16.4846 70.5815 14.0031 70.7655 13.0244C71.2587 10.3717 70.0346 9.63314 68.0591 5.7998L68.0157 6.62781Z" fill="#400E01"/>
<path fill-rule="evenodd" clip-rule="evenodd" d="M68.0157 6.62782C68.376 8.48571 69.8761 10.6963 69.756 13.4128C69.7079 15.0717 69.5697 16.7267 69.342 18.3706C70.7527 13.6147 69.8403 10.2695 68.0642 5.80493L68.0157 6.62782Z" fill="#1F0300"/>
<path fill-rule="evenodd" clip-rule="evenodd" d="M58.3122 24.6624C58.4988 24.7161 58.7237 24.7519 58.8566 24.7851C59.6386 24.9844 60.1113 25.2732 60.8806 25.4649L60.8652 25.5671L61.1208 25.5185C61.2026 25.5364 61.2895 25.5518 61.3763 25.5671L61.3585 25.4649C62.1251 25.2732 62.6005 24.9844 63.3825 24.7851C63.5179 24.7519 63.7402 24.7161 63.9268 24.6624C64.3025 24.5576 64.3817 24.228 64.2462 24.1692C64.1926 24.1462 64.1031 24.1692 63.9907 24.2663C63.8281 24.4261 63.6147 24.5237 63.3876 24.5423C62.5698 24.6675 62.2197 24.3532 61.154 24.1743V24.1615H61.1233H61.0901V24.1743C60.0245 24.3532 59.6743 24.6675 58.8591 24.5423C58.6312 24.5237 58.417 24.4261 58.2535 24.2663C58.1359 24.1666 58.0465 24.1462 57.9979 24.1692C57.8599 24.228 57.9366 24.5576 58.3122 24.6624Z" fill="#472001"/>
<path fill-rule="evenodd" clip-rule="evenodd" d="M59.1402 24.407C59.5619 25.2094 60.4793 25.4292 61.1847 25.3858C61.8338 25.3449 62.6541 25.1072 63.0937 24.3636L61.7035 24.0569L61.177 24.2256L60.5202 24.1872L59.1402 24.407Z" fill="white"/>
<path fill-rule="evenodd" clip-rule="evenodd" d="M62.8356 23.8115C63.3722 24.0083 63.7326 24.3022 64.0853 24.1999C63.7224 24.8337 62.8535 24.7289 62.2682 24.5449C61.5545 24.2792 60.7689 24.2792 60.0551 24.5449C59.4699 24.7289 58.601 24.8337 58.2407 24.1999C58.5934 24.3022 58.9511 24.0083 59.4904 23.8115C60.257 23.5278 60.7681 23.5764 61.1617 24.1718C61.5629 23.5764 62.0587 23.5278 62.8356 23.8115Z" fill="#D8323B"/>
<path fill-rule="evenodd" clip-rule="evenodd" d="M63.8961 24.4351C63.776 24.706 62.9787 24.6907 62.833 24.6702C62.6415 24.645 62.4525 24.6031 62.2682 24.545C61.5545 24.2793 60.7689 24.2793 60.0551 24.545C59.4699 24.729 58.601 24.8338 58.2407 24.2C58.5934 24.3022 58.9511 24.0083 59.4904 23.8116C60.0296 23.6148 60.395 23.5816 60.717 23.7477C60.3643 23.7077 60.007 23.7514 59.6744 23.8755C59.4009 23.97 58.9844 24.1668 58.9077 24.3201C58.7799 24.5757 59.4904 24.5604 60.0986 24.3687C60.4198 24.2602 60.7599 24.2185 61.0978 24.246C62.005 24.2639 62.3219 24.4581 62.8254 24.591C62.9506 24.6268 63.6176 24.6575 63.8961 24.4351Z" fill="#940811"/>
<path fill-rule="evenodd" clip-rule="evenodd" d="M59.2169 24.2613C59.728 24.4708 60.3669 24.0492 61.0058 24.1463C60.5202 23.5457 59.8149 24.0543 59.2169 24.2613Z" fill="#FF757C"/>
<path fill-rule="evenodd" clip-rule="evenodd" d="M61.384 24.1233C62.028 24.1028 63.2521 24.89 63.9012 24.3226C63.431 24.2715 62.603 23.7808 62.1532 23.7681C62.0071 23.7688 61.8628 23.801 61.7301 23.8622C61.5974 23.9235 61.4794 24.0125 61.384 24.1233Z" fill="#FF757C"/>
<path fill-rule="evenodd" clip-rule="evenodd" d="M59.5057 24.9435C59.2501 24.8413 59.0738 24.7748 58.8668 24.7084C58.6598 24.6419 58.5601 24.5832 58.5167 24.6292C58.3914 24.7723 58.6496 25.1403 58.8259 25.3677C59.1816 25.8261 59.655 26.1794 60.1957 26.39C60.901 26.5995 61.7443 26.6455 62.4088 26.2826C62.7244 26.0974 63.004 25.8567 63.2342 25.5722C63.4471 25.3352 63.6197 25.065 63.7453 24.7723C63.845 24.4963 63.5664 24.6522 63.362 24.7212C63.1575 24.7902 62.8943 24.8694 62.6848 24.9614C61.3482 25.5338 60.878 25.4776 59.5057 24.9435Z" fill="#D8323B"/>
<path fill-rule="evenodd" clip-rule="evenodd" d="M59.5057 24.9435C59.2501 24.8413 59.0738 24.7748 58.8668 24.7084C58.6598 24.6419 58.5601 24.5832 58.5167 24.6292C58.3914 24.7723 58.6496 25.1403 58.8259 25.3677C59.1816 25.8261 59.655 26.1794 60.1957 26.39C60.901 26.5995 61.7443 26.6455 62.4088 26.2826C62.8101 26.0574 63.1531 25.7415 63.4106 25.3601C62.4241 26.6864 60.947 26.4871 60.1931 26.2085C59.7791 26.0577 59.2399 25.6079 59.4086 25.3498C59.5057 25.2016 60.0091 25.4291 60.5432 25.5108C61.1747 25.5876 61.8132 25.4431 62.35 25.1019C61.2588 25.5211 60.7579 25.4316 59.5057 24.9435Z" fill="#940811"/>
<path fill-rule="evenodd" clip-rule="evenodd" d="M60.7298 26.1881C61.7265 26.3593 62.6695 26.0859 63.2853 25.2783C63.3978 25.1326 63.4515 25.0049 63.362 24.9563C63.2726 24.9077 63.2828 24.9205 62.1558 25.4035C61.0288 25.8865 60.004 25.5466 59.9708 25.6872C59.9631 25.7613 60.0602 26.0731 60.7298 26.1881Z" fill="#FF757C"/>
<path fill-rule="evenodd" clip-rule="evenodd" d="M62.3935 25.3856C62.649 25.2885 62.9046 25.3013 62.9378 25.4163C62.971 25.5313 62.8074 25.7025 62.5519 25.7996C62.2963 25.8967 62.0408 25.8814 62.0101 25.7689C61.9795 25.6565 62.1379 25.4776 62.3935 25.3856Z" fill="#FF9499"/>
<path fill-rule="evenodd" clip-rule="evenodd" d="M62.7615 25.2808C62.9276 25.1913 63.0937 25.176 63.132 25.2501C63.1703 25.3242 63.0732 25.4571 62.9071 25.5465C62.741 25.636 62.5775 25.6513 62.5366 25.5772C62.4957 25.5031 62.5979 25.3702 62.7615 25.2808Z" fill="white"/>
<path fill-rule="evenodd" clip-rule="evenodd" d="M62.373 23.7908C62.534 23.8368 62.649 23.9314 62.6286 24.0029C62.6081 24.0745 62.4625 24.0975 62.3015 24.0489C62.1405 24.0004 62.0255 23.9084 62.0459 23.8368C62.0663 23.7653 62.2222 23.7423 62.373 23.7908Z" fill="white"/>
<path fill-rule="evenodd" clip-rule="evenodd" d="M67.4918 1.88477C68.9434 2.60543 66.651 1.71099 66.1501 2.31154C67.7295 2.60032 70.8396 3.60721 70.8805 8.62888C70.4818 7.49932 69.7586 5.03577 68.1946 4.7521C70.262 7.97977 70.3924 11.3582 69.9963 15.0075L70.7885 12.8404L70.8805 13.786C73.1115 9.47732 72.6106 3.11654 67.4918 1.88477Z" fill="#621F02"/>
<path fill-rule="evenodd" clip-rule="evenodd" d="M70.009 14.7035C71.389 12.1786 71.9257 9.08127 71.1539 7.1416C71.7366 10.6248 70.0218 14.6396 70.009 14.7035Z" fill="#8A3511"/>
<path fill-rule="evenodd" clip-rule="evenodd" d="M67.6298 2.25024C72.1659 3.78358 72.3729 7.66036 70.9265 13.7502C72.884 7.43802 71.6931 3.14469 67.6298 2.25024Z" fill="#D1673A"/>
<path fill-rule="evenodd" clip-rule="evenodd" d="M68.6111 5.0332C70.3796 7.78298 70.5176 10.2849 70.2594 14.0083C70.7833 10.4638 71.251 7.48909 68.6111 5.0332Z" fill="#8A3511"/>
<path fill-rule="evenodd" clip-rule="evenodd" d="M64.6372 3.21863C53.9346 -0.279928 47.4946 7.05196 52.4294 18.2964C55.358 10.4176 63.0835 11.606 67.9339 6.51529C62.603 3.42563 53.9985 4.67529 51.0264 10.5428C52.3169 3.08063 59.4341 1.98685 64.6372 3.21863Z" fill="#621F02"/>
<path fill-rule="evenodd" clip-rule="evenodd" d="M67.4943 6.56665C62.8943 8.38109 58.8463 8.44243 55.9355 10.6888C52.8076 13.1012 50.2341 18.3784 53.1244 22.2859C50.6967 18.0334 54.3537 14.5451 56.9936 12.5748C59.1556 10.9648 64.8698 10.2262 67.4943 6.56665Z" fill="url(#paint0_linear)"/>
<path fill-rule="evenodd" clip-rule="evenodd" d="M69.4749 6.5C71.2459 9.24978 70.6556 10.6553 70.3617 13.9469C70.8958 10.778 71.5858 9.04533 69.4749 6.5Z" fill="#D1673A"/>
<path fill-rule="evenodd" clip-rule="evenodd" d="M66.2421 6.03498C60.6864 4.50165 49.0765 6.20876 51.7138 15.7461C53.9806 7.73187 61.936 8.38098 66.2421 6.03498Z" fill="url(#paint1_linear)"/>
<path fill-rule="evenodd" clip-rule="evenodd" d="M66.3111 7.25659C59.5951 9.45437 52.7488 9.99359 52.0281 18.9764C53.3084 9.13748 61.9973 9.60259 66.3111 7.25659Z" fill="#D1673A"/>
<path fill-rule="evenodd" clip-rule="evenodd" d="M65.9227 7.86719C61.8491 10.6374 56.3445 10.9824 53.5334 15.4367C55.4117 10.9109 60.1216 10.778 65.9227 7.86719Z" fill="#D1673A"/>
<path fill-rule="evenodd" clip-rule="evenodd" d="M67.3334 6.12695C63.4489 9.03518 53.081 5.93273 51.5835 16.6252C52.0792 6.50518 62.5596 7.74206 67.3334 6.12695Z" fill="url(#paint2_linear)"/>
<path fill-rule="evenodd" clip-rule="evenodd" d="M67.4024 5.70021C61.3074 2.16588 55.2047 2.95554 51.6218 9.45432C55.2967 3.61743 60.9802 2.58754 67.4024 5.70021Z" fill="#1F0300"/>
<path fill-rule="evenodd" clip-rule="evenodd" d="M66.2114 3.65575C61.43 -1.06692 54.0445 0.024303 50.4667 6.52308C54.139 0.688747 60.9189 -0.402475 66.2114 3.65575Z" fill="#1F0300"/>
<path fill-rule="evenodd" clip-rule="evenodd" d="M58.1691 6.03516C53.4567 8.13582 52.4574 9.35738 51.5477 13.85C51.7189 9.32416 53.3442 7.35893 58.1691 6.03516Z" fill="#D1673A"/>
<path fill-rule="evenodd" clip-rule="evenodd" d="M69.7228 17.0443C70.2901 16.408 70.4894 16.8118 70.2339 17.5018C70.0371 18.0129 69.8633 19.0351 69.3471 19.1194L69.7228 17.0443Z" fill="#975B36"/>
<path fill-rule="evenodd" clip-rule="evenodd" d="M70.4 14.6139C70.7859 14.3328 71.0798 14.55 71.1667 15.0023C71.2817 15.6693 70.6274 16.9522 70.4153 17.7368C70.4741 16.6558 71.1334 15.6029 70.998 15.0228C70.9162 14.6625 70.6274 14.6037 70.331 14.9257C70.3387 14.8183 70.3642 14.7161 70.4 14.6139Z" fill="#E8A476"/>
<path fill-rule="evenodd" clip-rule="evenodd" d="M70.7603 17.1416C70.1956 18.3887 70.032 19.0659 69.388 19.324L69.0507 20.7117C69.8454 21.0286 70.1598 19.393 70.2262 19.0225C70.3233 18.5063 70.6172 17.9747 70.7603 17.1416Z" fill="#F5BC95"/>
<path fill-rule="evenodd" clip-rule="evenodd" d="M66.5181 34.3531C64.7803 32.9629 65.2889 29.6637 65.3707 28.5188L65.5674 25.7537C65.4371 28.5213 65.4525 30.5351 65.9533 31.9969C66.1098 32.4993 66.3643 32.9658 66.7021 33.3692C66.6612 33.6554 66.8044 34.0899 66.5181 34.3531Z" fill="#F5BC95"/>
<path fill-rule="evenodd" clip-rule="evenodd" d="M73.114 44.3887C75.1738 46.497 76.2318 47.0286 76.2318 50.7367C76.2318 53.6756 74.3892 56.1877 71.9282 57.4194C68.3505 57.7363 63.6891 56.8623 62.1813 55.375C71.4887 58.3394 76.4209 52.9166 73.114 44.3887Z" fill="#F5F5F5"/>
<path fill-rule="evenodd" clip-rule="evenodd" d="M49.3908 44.3376C48.8235 44.9178 48.113 45.4135 47.4154 46.0678L47.4333 46.1598C46.5843 47.4037 46.1317 48.8755 46.135 50.3815C46.135 58.4188 54.553 59.1292 60.0321 55.0454C52.2632 57.5192 45.2406 52.7633 49.3499 44.5472L49.3908 44.3376Z" fill="#CCCCCC"/>
<path fill-rule="evenodd" clip-rule="evenodd" d="M66.0402 31.1919C66.2242 33.8701 64.6193 35.3293 61.5424 36.9547C63.6022 38.0331 64.7113 38.5672 66.2856 40.4047C66.2907 37.1285 68.4833 34.1666 66.0402 31.1919Z" fill="#E6E6E6"/>
<path fill-rule="evenodd" clip-rule="evenodd" d="M61.5424 36.9547C63.6022 38.0332 64.7113 38.5673 66.2856 40.4047C66.2856 37.4965 68.0182 34.8413 66.697 32.1963C67.4637 34.6215 66.0147 37.0697 66.0121 39.7301C65.1943 38.7666 63.5 37.4071 61.5424 36.9547Z" fill="#F5F5F5"/>
<path fill-rule="evenodd" clip-rule="evenodd" d="M55.2967 34.5729C55.6851 36.8422 56.0199 38.7972 56.4952 41.0077C58.8233 38.9096 58.5167 38.7077 61.8363 37.3073L61.4556 36.9086C58.0004 36.5151 58.854 36.28 56.1349 33.543L55.2967 34.5729Z" fill="#CCCCCC"/>
<path fill-rule="evenodd" clip-rule="evenodd" d="M56.9987 31.1919C56.8121 33.8701 58.4196 35.3293 61.4964 36.9547C59.4341 38.0331 58.325 38.5672 56.7533 40.4047C56.7482 37.1285 54.5556 34.1666 56.9987 31.1919Z" fill="#E6E6E6"/>
<path fill-rule="evenodd" clip-rule="evenodd" d="M43.5999 62.2571C45.307 62.8499 47.1623 64.4523 47.4639 66.2539C47.8242 67.2225 47.1879 69.0446 46.3139 69.4484C43.1143 70.9178 37.0423 68.0403 32.4219 65.9294C28.6576 64.2095 22.0361 60.3072 20.7992 59.6402C20.674 59.5379 20.5437 59.4306 20.4363 59.3182C21.7703 58.5387 22.5958 57.6494 23.7586 55.9832C27.3772 59.5814 38.407 60.4579 43.5999 62.2571Z" fill="#E6E6E6"/>
<path fill-rule="evenodd" clip-rule="evenodd" d="M43.5999 62.2571C45.307 62.8499 47.1623 64.4523 47.4639 66.2539C46.1861 64.4395 45.4501 64.0613 42.8 63.1413C37.648 61.3524 26.7511 60.4784 23.0558 56.9517C23.2832 56.6578 23.5183 56.3384 23.7688 55.9832C27.3772 59.5814 38.407 60.4579 43.5999 62.2571Z" fill="#F5F5F5"/>
<path fill-rule="evenodd" clip-rule="evenodd" d="M47.5661 66.8215C47.5968 67.8105 47.0371 69.1215 46.3139 69.4486C43.1143 70.9181 37.0423 68.0405 32.4219 65.9296C28.6576 64.2098 22.0361 60.3074 20.7992 59.6404C20.674 59.5382 20.5437 59.4309 20.4363 59.3184C20.8218 59.094 21.1877 58.8376 21.5301 58.5518C23.4979 59.666 29.2607 63.0138 32.6749 64.5726C37.2953 66.6835 43.3673 69.5636 46.5643 68.0916C46.9783 67.9128 47.3387 67.4042 47.5661 66.8215Z" fill="#CCCCCC"/>
<path fill-rule="evenodd" clip-rule="evenodd" d="M50.6558 56.0471C45.2073 48.6616 45.0336 40.7291 52.3808 36.0269L55.9969 33.7141C59.2297 41.7539 59.0329 51.0766 50.6558 56.0471Z" fill="#CCCCCC"/>
<path fill-rule="evenodd" clip-rule="evenodd" d="M62.2222 38.7845C63.0451 38.373 64.0622 36.7042 65.2046 36.7911C65.6697 36.8269 66.2396 36.7298 66.5488 37.4581C66.7047 37.8236 66.4619 38.5928 66.4031 39.3671C66.3341 40.2846 66.3776 41.202 65.5802 41.3911C64.4328 41.6467 62.9991 40.535 62.166 40.1133C62.0677 40.1908 61.9462 40.2331 61.821 40.2335H61.0876C61.0138 40.2334 60.9409 40.2186 60.8729 40.19C60.0091 40.6602 59.0457 41.3809 58.0822 41.4192C57.8103 41.4453 57.5371 41.3835 57.3028 41.2429C56.8249 40.9107 56.8454 40.1312 56.7917 39.3543C56.715 38.3449 56.5796 37.6983 56.7227 37.3099C57.4894 35.1658 60.579 38.5315 60.8116 38.6848C60.8979 38.6325 60.9969 38.6051 61.0978 38.6056H61.8312C61.9801 38.611 62.1208 38.6754 62.2222 38.7845Z" fill="#CCCCCC"/>
<path fill-rule="evenodd" clip-rule="evenodd" d="M56.7073 26.3771C57.9289 28.3321 57.2542 36.1572 55.4014 43.2718C51.7265 57.3734 51.1873 56.8163 39.6848 59.8574C48.1462 57.0463 48.7314 54.0486 51.5221 43.737C48.1539 55.145 44.4023 58.8991 37.9955 59.4051C45.7593 57.0565 42.3732 51.6362 45.7721 40.1311C47.7603 33.4048 56.1221 31.3067 55.6647 24.9971C55.8512 25.2961 56.6128 26.2263 56.7073 26.3771Z" fill="#400E01"/>
<path fill-rule="evenodd" clip-rule="evenodd" d="M56.9603 26.6301C57.0979 27.1519 57.1835 27.6861 57.2159 28.2247C57.5788 31.2684 56.9603 36.8651 55.6544 42.242C56.5284 36.8063 56.9041 33.1595 56.6077 27.1872C56.2678 29.0067 55.0743 32.6075 53.4234 35.7815C54.3562 33.0547 56.0838 29.3287 56.0735 26.8498C55.3657 28.5978 54.6654 29.6201 53.3289 31.0103C52.0511 32.3443 50.2827 33.9032 48.78 35.181C51.9029 31.8102 55.9816 29.454 55.6596 24.9971C55.7694 25.1734 56.0761 25.5644 56.3291 25.889C56.5157 26.119 56.9194 26.5687 56.9603 26.6301Z" fill="#1F0300"/>
<path fill-rule="evenodd" clip-rule="evenodd" d="M56.6281 26.3081C57.8267 41.1303 57.5967 52.6048 46.7918 58.0251C58.1129 53.5171 58.3582 41.3603 57.014 27.039L56.6281 26.3081Z" fill="#1F0300"/>
<path fill-rule="evenodd" clip-rule="evenodd" d="M45.284 55.9886C48.7647 53.1212 50.8781 45.1198 53.748 37.6064C46.9426 45.6002 49.0483 50.2232 45.284 55.9886Z" fill="#290700"/>
<path fill-rule="evenodd" clip-rule="evenodd" d="M55.8333 27.9771C52.7667 33.1674 49.1889 34.7186 47.354 37.2333C44.2311 41.501 47.0806 51.2658 44.7065 56.3054C47.3131 52.932 47.3949 47.2587 49.999 42.3623C52.8689 36.9547 54.7677 32.1222 55.8333 27.9771Z" fill="url(#paint3_linear)"/>
<path fill-rule="evenodd" clip-rule="evenodd" d="M54.3307 30.7395C43.7609 41.6696 49.5467 53.7906 43.5079 56.4407C48.8362 53.8647 43.0223 42.5998 54.3307 30.7395Z" fill="#8A3511"/>
<path fill-rule="evenodd" clip-rule="evenodd" d="M53.5333 30.5122C49.7 34.0338 47.7603 35.3371 46.3343 38.1456C41.9439 46.7988 45.928 55.4493 40.0068 58.1301C45.6111 55.0097 40.9932 46.5432 45.9024 37.8952C47.4434 35.1889 49.3984 33.3105 53.5333 30.5122Z" fill="#290700"/>
<path fill-rule="evenodd" clip-rule="evenodd" d="M54.2796 30.6399C45.6725 39.7683 46.2756 37.4734 46.2756 49.7554C47.1445 38.7487 47.63 38.7666 54.2796 30.6399Z" fill="url(#paint4_linear)"/>
<path fill-rule="evenodd" clip-rule="evenodd" d="M55.1817 29.7942C52.1585 36.4667 49.7818 42.089 47.4 49.0145C48.0364 37.512 51.9004 35.2631 55.1817 29.7942Z" fill="url(#paint5_linear)"/>
<path fill-rule="evenodd" clip-rule="evenodd" d="M54.3307 31.583C47.2544 43.4178 48.3072 46.6889 47.4 50.466C47.9904 47.2716 47.193 41.703 54.3307 31.583Z" fill="#D1673A"/>
<path fill-rule="evenodd" clip-rule="evenodd" d="M54.1032 31.0208C45.5651 40.2616 46.6742 41.5599 45.9868 50.7471C46.6947 44.509 43.8682 40.5198 54.1032 31.0208Z" fill="#D1673A"/>
<path fill-rule="evenodd" clip-rule="evenodd" d="M45.8386 40.8699C43.7941 51.0921 48.7826 57.2254 35.1052 60.6243C47.7424 55.7994 41.4123 51.6901 45.8386 40.8699Z" fill="#290700"/>
<path fill-rule="evenodd" clip-rule="evenodd" d="M45.6546 41.5164C44.4765 56.9647 44.4867 56.359 37.4257 59.7783C46.7944 56.4203 44.4279 53.8725 45.6546 41.5164Z" fill="#1A0300"/>
<path fill-rule="evenodd" clip-rule="evenodd" d="M44.9518 43.8777C44.111 54.9279 44.2055 57.1129 38.2153 59.2366C44.3129 57.1793 43.5667 53.0266 44.9518 43.8777Z" fill="#1A0300"/>
<path fill-rule="evenodd" clip-rule="evenodd" d="M54.0853 35.1709C48.0287 45.4442 50.7887 51.9813 43.0965 57.2662C50.9471 52.8017 50.0348 43.7959 54.0853 35.1709Z" fill="#1F0300"/>
<path fill-rule="evenodd" clip-rule="evenodd" d="M56.4544 29.7607C56.9808 38.4931 57.4894 56.5941 43.2651 58.843C52.3885 53.4891 52.7232 39.454 56.4544 29.7607Z" fill="url(#paint6_linear)"/>
<path fill-rule="evenodd" clip-rule="evenodd" d="M55.5573 35.2988C54.5096 42.5515 53.2573 52.2831 46.8046 57.2613C55.6187 54.6674 55.3785 41.6749 55.5573 35.2988Z" fill="url(#paint7_linear)"/>
<path fill-rule="evenodd" clip-rule="evenodd" d="M46.6334 56.87C53.6969 48.4955 53.9371 42.8835 55.4832 32.5769C52.4728 42.5538 51.4889 47.2688 46.6334 56.87Z" fill="url(#paint8_linear)"/>
<path fill-rule="evenodd" clip-rule="evenodd" d="M55.105 38.1174C54.5479 50.4224 50.4846 55.8146 46.8046 57.2611C53.2599 55.0275 55.1996 45.9732 55.105 38.1174Z" fill="#D1673A"/>
<path fill-rule="evenodd" clip-rule="evenodd" d="M54.7677 35.0737C51.1669 46.8139 49.4674 52.6023 47.3565 55.8529C50.781 51.8152 51.8748 45.7483 54.7677 35.0737Z" fill="#D1673A"/>
<path d="M62.8381 39.0171H60.28V78.5898H62.8381V39.0171Z" fill="#E6E6E6"/>
<path fill-rule="evenodd" clip-rule="evenodd" d="M60.28 39.0171H62.8381V39.035H60.4487V78.5898H60.28V39.0171Z" fill="#CCCCCC"/>
<path fill-rule="evenodd" clip-rule="evenodd" d="M62.8381 39.0171V78.5898H62.6873V39.035L62.8381 39.0171Z" fill="#F5F5F5"/>
<path fill-rule="evenodd" clip-rule="evenodd" d="M61.1157 38.2555C60.2596 38.0408 59.176 36.096 57.9468 36.1906C57.4791 36.2289 56.9092 36.1293 56.6 36.8601C56.4467 37.2256 56.6894 37.9948 56.7457 38.7691C56.8147 39.684 56.7712 40.604 57.5686 40.7906C58.716 41.0615 60.1522 39.937 60.9828 39.5256L61.1157 38.2555Z" fill="#262323"/>
<path fill-rule="evenodd" clip-rule="evenodd" d="M57.7219 36.1931C57.3079 36.2084 56.8632 36.234 56.6 36.8499C56.4467 37.2153 56.6894 37.9846 56.7457 38.7589C56.8147 39.6738 56.7712 40.5938 57.5686 40.7803C57.6705 40.7998 57.774 40.81 57.8778 40.811C56.3444 39.661 57.8164 39.0962 57.2823 38.1379C56.9808 37.614 56.7201 36.5713 57.7219 36.1931Z" fill="black"/>
<path fill-rule="evenodd" clip-rule="evenodd" d="M61.1157 38.2555C60.2596 38.0408 59.176 36.096 57.9468 36.1906C57.9085 36.1906 57.8701 36.1906 57.8292 36.1906C58.4527 36.5033 59.0207 36.9159 59.5108 37.4121C59.8194 37.6829 60.0713 38.0121 60.2519 38.3807C60.3413 38.6797 60.3362 38.8918 59.5185 38.764C59.2629 38.7283 58.4758 38.3858 57.9468 38.3909C57.313 38.3909 57.1801 39.0886 57.8931 39.3723C58.2969 39.5333 59.0457 39.4157 59.958 39.3109C60.0679 39.2982 60.3465 39.3109 60.28 39.3902C60.0245 39.7198 59.1862 40.3766 58.0516 40.8213C59.0942 40.7599 60.2647 39.8732 60.9828 39.5179L61.1157 38.2555Z" fill="#332F2F"/>
<path fill-rule="evenodd" clip-rule="evenodd" d="M62.005 38.2555C62.8586 38.0408 63.9421 36.096 65.1714 36.1906C65.639 36.2289 66.2089 36.1293 66.5181 36.8601C66.6715 37.2256 66.4312 37.9948 66.3725 38.7691C66.3035 39.684 66.3469 40.604 65.5496 40.7906C64.4021 41.0615 62.9685 39.937 62.1353 39.5256L62.005 38.2555Z" fill="#262323"/>
<path fill-rule="evenodd" clip-rule="evenodd" d="M65.3988 36.1931C65.8102 36.2084 66.2575 36.234 66.5181 36.8499C66.6715 37.2153 66.4312 37.9846 66.3725 38.7589C66.3035 39.6738 66.3469 40.5938 65.5496 40.7803C65.4505 40.8029 65.3495 40.8166 65.248 40.8212C66.7814 39.6712 65.3068 39.1065 65.8409 38.1481C66.1399 37.614 66.4006 36.5713 65.3988 36.1931Z" fill="#332F2F"/>
<path fill-rule="evenodd" clip-rule="evenodd" d="M62.005 38.2555C62.8586 38.0408 63.9421 36.096 65.1713 36.1906C65.2097 36.1906 65.248 36.1906 65.2889 36.1906C64.6659 36.5027 64.0986 36.9154 63.6099 37.4121C63.2999 37.6822 63.0471 38.0115 62.8662 38.3807C62.7768 38.6797 62.7819 38.8918 63.5997 38.764C63.8552 38.7283 64.6423 38.3858 65.1713 38.3909C65.8051 38.3909 65.938 39.0886 65.2276 39.3723C64.8212 39.5333 64.075 39.4157 63.1627 39.3109C63.0502 39.2982 62.7717 39.3109 62.8381 39.3902C63.0937 39.7198 63.9319 40.3766 65.0691 40.8213C64.0239 40.7599 62.8535 39.8732 62.1353 39.5179L62.005 38.2555Z" fill="black"/>
<path d="M61.7878 38.0024H61.0569C60.7492 38.0024 60.4998 38.2519 60.4998 38.5596V39.0732C60.4998 39.3809 60.7492 39.6303 61.0569 39.6303H61.7878C62.0955 39.6303 62.3449 39.3809 62.3449 39.0732V38.5596C62.3449 38.2519 62.0955 38.0024 61.7878 38.0024Z" fill="#262323"/>
<path fill-rule="evenodd" clip-rule="evenodd" d="M61.545 38H61.8006C61.9481 38.0007 62.0894 38.0596 62.1938 38.1639C62.2981 38.2683 62.357 38.4096 62.3577 38.5571V39.0682C62.357 39.2158 62.2981 39.3571 62.1938 39.4614C62.0894 39.5657 61.9481 39.6247 61.8006 39.6253H61.0671C61.0197 39.6259 60.9724 39.6199 60.9266 39.6074H61.4147C61.5622 39.6068 61.7036 39.5479 61.8079 39.4435C61.9122 39.3392 61.9711 39.1979 61.9718 39.0503V38.5392C61.9708 38.4147 61.9283 38.294 61.851 38.1963C61.7737 38.0987 61.666 38.0296 61.545 38Z" fill="#332F2F"/>
<path fill-rule="evenodd" clip-rule="evenodd" d="M61.3022 38H61.0467C60.8991 38.0007 60.7578 38.0596 60.6535 38.1639C60.5491 38.2683 60.4902 38.4096 60.4896 38.5571V39.0682C60.4902 39.2158 60.5491 39.3571 60.6535 39.4614C60.7578 39.5657 60.8991 39.6247 61.0467 39.6253H61.7801C61.8276 39.6259 61.8749 39.6199 61.9207 39.6074H61.4556C61.308 39.6068 61.1667 39.5479 61.0624 39.4435C60.958 39.3392 60.8991 39.1979 60.8985 39.0503V38.5392C60.8981 38.4177 60.9373 38.2993 61.0101 38.2021C61.083 38.1048 61.1855 38.0339 61.3022 38Z" fill="black"/>
<path fill-rule="evenodd" clip-rule="evenodd" d="M61.5195 42.8171C61.6071 42.8176 61.6929 42.792 61.766 42.7436C61.8391 42.6952 61.8962 42.6262 61.93 42.5453C61.9638 42.4644 61.9727 42.3753 61.9558 42.2893C61.9388 42.2033 61.8966 42.1243 61.8346 42.0623C61.7727 42.0004 61.6936 41.9582 61.6076 41.9412C61.5216 41.9243 61.4325 41.9332 61.3516 41.967C61.2708 42.0008 61.2017 42.0578 61.1533 42.1309C61.105 42.204 61.0794 42.2899 61.0799 42.3775C61.0806 42.4939 61.1271 42.6053 61.2094 42.6876C61.2917 42.7699 61.4031 42.8164 61.5195 42.8171Z" fill="#CCCCCC"/>
<path fill-rule="evenodd" clip-rule="evenodd" d="M61.5987 42.7353C61.6862 42.7358 61.7719 42.7103 61.845 42.662C61.918 42.6137 61.9751 42.5449 62.0089 42.4641C62.0428 42.3834 62.0519 42.2944 62.0351 42.2085C62.0184 42.1226 61.9765 42.0436 61.9147 41.9815C61.853 41.9194 61.7742 41.877 61.6884 41.8598C61.6026 41.8425 61.5136 41.8511 61.4326 41.8845C61.3517 41.9179 61.2825 41.9745 61.2338 42.0473C61.1851 42.12 61.1591 42.2056 61.1591 42.2932C61.1591 42.41 61.2053 42.5221 61.2877 42.6049C61.3701 42.6877 61.4819 42.7346 61.5987 42.7353Z" fill="black"/>
<path fill-rule="evenodd" clip-rule="evenodd" d="M61.6064 41.8817C61.708 41.8835 61.8054 41.9228 61.8797 41.9921C61.9541 42.0615 62.0002 42.1559 62.0091 42.2571C62.0179 42.3584 61.989 42.4594 61.9279 42.5406C61.8667 42.6218 61.7777 42.6775 61.6779 42.6969C61.7529 42.6659 61.8171 42.6135 61.8625 42.5462C61.908 42.479 61.9326 42.3999 61.9335 42.3187C61.9335 42.2648 61.9228 42.2114 61.9021 42.1616C61.8814 42.1119 61.851 42.0667 61.8128 42.0287C61.7746 41.9907 61.7292 41.9606 61.6793 41.9402C61.6294 41.9198 61.5759 41.9095 61.522 41.9098C61.4982 41.9073 61.4743 41.9073 61.4505 41.9098C61.5 41.8899 61.553 41.8804 61.6064 41.8817Z" fill="#666666"/>
<path fill-rule="evenodd" clip-rule="evenodd" d="M61.5195 47.5373C61.6064 47.5373 61.6914 47.5115 61.7637 47.4632C61.8359 47.4149 61.8923 47.3463 61.9255 47.266C61.9588 47.1856 61.9675 47.0973 61.9506 47.012C61.9336 46.9267 61.8917 46.8484 61.8303 46.7869C61.7688 46.7255 61.6905 46.6836 61.6052 46.6666C61.5199 46.6497 61.4316 46.6584 61.3512 46.6917C61.2709 46.7249 61.2023 46.7813 61.154 46.8536C61.1057 46.9258 61.0799 47.0108 61.0799 47.0978C61.0806 47.2141 61.1271 47.3255 61.2094 47.4078C61.2917 47.4901 61.4031 47.5366 61.5195 47.5373Z" fill="#CCCCCC"/>
<path fill-rule="evenodd" clip-rule="evenodd" d="M61.5987 47.4555C61.6863 47.456 61.7722 47.4304 61.8452 47.3821C61.9183 47.3337 61.9754 47.2647 62.0092 47.1838C62.043 47.1029 62.0519 47.0138 62.035 46.9278C62.018 46.8418 61.9758 46.7628 61.9138 46.7008C61.8519 46.6388 61.7728 46.5966 61.6868 46.5797C61.6009 46.5627 61.5117 46.5717 61.4309 46.6054C61.35 46.6392 61.281 46.6963 61.2326 46.7694C61.1842 46.8425 61.1586 46.9283 61.1591 47.0159C61.1591 47.0737 61.1705 47.1308 61.1926 47.1842C61.2147 47.2375 61.2471 47.2859 61.2879 47.3268C61.3287 47.3676 61.3771 47.4 61.4305 47.422C61.4838 47.4441 61.541 47.4555 61.5987 47.4555Z" fill="black"/>
<path fill-rule="evenodd" clip-rule="evenodd" d="M61.6063 46.6019C61.708 46.6037 61.8054 46.643 61.8797 46.7123C61.9541 46.7817 62.0001 46.8761 62.009 46.9773C62.0179 47.0786 61.989 47.1796 61.9279 47.2608C61.8667 47.342 61.7777 47.3977 61.6779 47.4171C61.7636 47.3789 61.8336 47.3124 61.8764 47.2289C61.9192 47.1453 61.9321 47.0496 61.913 46.9577C61.8939 46.8658 61.8439 46.7832 61.7714 46.7236C61.6989 46.664 61.6082 46.631 61.5143 46.63H61.4428C61.495 46.6102 61.5505 46.6007 61.6063 46.6019Z" fill="#666666"/>
<path fill-rule="evenodd" clip-rule="evenodd" d="M61.5195 52.4081C61.6064 52.4081 61.6914 52.3824 61.7637 52.3341C61.8359 52.2858 61.8923 52.2171 61.9255 52.1368C61.9588 52.0565 61.9675 51.9681 61.9506 51.8828C61.9336 51.7976 61.8917 51.7193 61.8303 51.6578C61.7688 51.5963 61.6905 51.5545 61.6052 51.5375C61.5199 51.5205 61.4316 51.5292 61.3512 51.5625C61.2709 51.5958 61.2023 51.6521 61.154 51.7244C61.1057 51.7967 61.0799 51.8817 61.0799 51.9686C61.0806 52.085 61.1271 52.1964 61.2094 52.2787C61.2917 52.361 61.4031 52.4075 61.5195 52.4081Z" fill="#CCCCCC"/>
<path fill-rule="evenodd" clip-rule="evenodd" d="M61.5987 52.3264C61.6863 52.3269 61.7722 52.3013 61.8452 52.2529C61.9183 52.2045 61.9754 52.1355 62.0092 52.0546C62.043 51.9737 62.0519 51.8846 62.035 51.7986C62.018 51.7126 61.9758 51.6336 61.9138 51.5716C61.8519 51.5096 61.7728 51.4675 61.6868 51.4505C61.6009 51.4335 61.5117 51.4425 61.4309 51.4763C61.35 51.5101 61.281 51.5671 61.2326 51.6402C61.1842 51.7133 61.1586 51.7991 61.1591 51.8868C61.1591 51.9445 61.1705 52.0017 61.1926 52.055C61.2147 52.1083 61.2471 52.1568 61.2879 52.1976C61.3287 52.2384 61.3771 52.2708 61.4305 52.2929C61.4838 52.315 61.541 52.3264 61.5987 52.3264Z" fill="black"/>
<path fill-rule="evenodd" clip-rule="evenodd" d="M61.6063 51.4728C61.708 51.4745 61.8054 51.5139 61.8797 51.5832C61.9541 51.6525 62.0001 51.7469 62.009 51.8482C62.0179 51.9494 61.989 52.0504 61.9279 52.1316C61.8667 52.2128 61.7777 52.2685 61.6779 52.288C61.7636 52.2497 61.8336 52.1833 61.8764 52.0997C61.9192 52.0162 61.9321 51.9205 61.913 51.8286C61.8939 51.7367 61.8439 51.6541 61.7714 51.5945C61.6989 51.5349 61.6082 51.5018 61.5143 51.5009H61.4428C61.495 51.4811 61.5505 51.4715 61.6063 51.4728Z" fill="#666666"/>
<path fill-rule="evenodd" clip-rule="evenodd" d="M61.5195 57.1308C61.607 57.1313 61.6927 57.1058 61.7658 57.0575C61.8388 57.0093 61.8959 56.9404 61.9297 56.8597C61.9636 56.7789 61.9727 56.6899 61.9559 56.604C61.9392 56.5181 61.8973 56.4391 61.8355 56.377C61.7738 56.3149 61.695 56.2725 61.6092 56.2553C61.5234 56.238 61.4343 56.2466 61.3534 56.28C61.2725 56.3134 61.2033 56.37 61.1546 56.4428C61.1059 56.5156 61.0799 56.6011 61.0799 56.6887C61.0806 56.8053 61.127 56.917 61.2092 56.9997C61.2914 57.0824 61.4028 57.1295 61.5195 57.1308Z" fill="#CCCCCC"/>
<path fill-rule="evenodd" clip-rule="evenodd" d="M61.5987 57.0464C61.6856 57.0464 61.7706 57.0206 61.8429 56.9723C61.9152 56.924 61.9715 56.8553 62.0048 56.775C62.038 56.6947 62.0467 56.6063 62.0298 56.521C62.0128 56.4358 61.971 56.3575 61.9095 56.296C61.848 56.2345 61.7697 56.1926 61.6844 56.1757C61.5992 56.1587 61.5108 56.1674 61.4305 56.2007C61.3501 56.234 61.2815 56.2903 61.2332 56.3626C61.1849 56.4349 61.1591 56.5199 61.1591 56.6068C61.1591 56.6645 61.1705 56.7217 61.1926 56.775C61.2147 56.8283 61.247 56.8768 61.2879 56.9176C61.3287 56.9584 61.3771 56.9908 61.4305 57.0129C61.4838 57.035 61.541 57.0464 61.5987 57.0464Z" fill="black"/>
<path fill-rule="evenodd" clip-rule="evenodd" d="M61.6063 56.1952C61.7099 56.1933 61.8102 56.2308 61.8872 56.3C61.9642 56.3692 62.0121 56.4651 62.0212 56.5682C62.0303 56.6713 61.9999 56.7741 61.9362 56.8557C61.8725 56.9373 61.7802 56.9917 61.6779 57.0079C61.7636 56.9696 61.8336 56.9032 61.8764 56.8197C61.9192 56.7361 61.9321 56.6404 61.913 56.5485C61.8939 56.4566 61.8439 56.374 61.7714 56.3144C61.6989 56.2548 61.6082 56.2218 61.5143 56.2208C61.4906 56.2183 61.4666 56.2183 61.4428 56.2208C61.4949 56.2007 61.5506 56.192 61.6063 56.1952Z" fill="#666666"/>
<path fill-rule="evenodd" clip-rule="evenodd" d="M61.5195 61.5876C61.6071 61.5881 61.6929 61.5625 61.766 61.5141C61.8391 61.4658 61.8962 61.3967 61.93 61.3159C61.9638 61.235 61.9727 61.1459 61.9558 61.0599C61.9388 60.9739 61.8966 60.8949 61.8346 60.8329C61.7727 60.7709 61.6936 60.7287 61.6076 60.7117C61.5216 60.6948 61.4325 60.7037 61.3516 60.7375C61.2708 60.7713 61.2017 60.8284 61.1533 60.9015C61.105 60.9745 61.0794 61.0604 61.0799 61.148C61.0806 61.2644 61.1271 61.3758 61.2094 61.4581C61.2917 61.5404 61.4031 61.5869 61.5195 61.5876Z" fill="#CCCCCC"/>
<path fill-rule="evenodd" clip-rule="evenodd" d="M61.5987 61.5109C61.6862 61.5114 61.7719 61.4859 61.845 61.4376C61.918 61.3894 61.9751 61.3205 62.0089 61.2398C62.0428 61.159 62.0519 61.0701 62.0351 60.9841C62.0184 60.8982 61.9765 60.8192 61.9147 60.7571C61.853 60.695 61.7742 60.6527 61.6884 60.6354C61.6026 60.6181 61.5136 60.6267 61.4326 60.6601C61.3517 60.6935 61.2825 60.7502 61.2338 60.8229C61.1851 60.8957 61.1591 60.9813 61.1591 61.0688C61.1591 61.1856 61.2053 61.2977 61.2877 61.3805C61.3701 61.4634 61.4819 61.5102 61.5987 61.5109Z" fill="black"/>
<path fill-rule="evenodd" clip-rule="evenodd" d="M61.6064 60.6523C61.708 60.6541 61.8054 60.6935 61.8797 60.7628C61.9541 60.8321 62.0002 60.9265 62.0091 61.0277C62.0179 61.129 61.989 61.23 61.9279 61.3112C61.8667 61.3924 61.7777 61.4481 61.6779 61.4676C61.7529 61.4365 61.8171 61.3841 61.8625 61.3169C61.908 61.2496 61.9326 61.1705 61.9335 61.0893C61.9335 61.0354 61.9228 60.9821 61.9021 60.9323C61.8814 60.8825 61.851 60.8373 61.8128 60.7993C61.7746 60.7613 61.7292 60.7312 61.6793 60.7108C61.6294 60.6904 61.5759 60.6801 61.522 60.6805C61.4982 60.6779 61.4743 60.6779 61.4505 60.6805C61.5003 60.6616 61.5531 60.6521 61.6064 60.6523Z" fill="#666666"/>
<path fill-rule="evenodd" clip-rule="evenodd" d="M61.5195 66.3078C61.6064 66.3078 61.6914 66.282 61.7637 66.2337C61.8359 66.1854 61.8923 66.1168 61.9255 66.0365C61.9588 65.9562 61.9675 65.8678 61.9506 65.7825C61.9336 65.6972 61.8917 65.6189 61.8303 65.5575C61.7688 65.496 61.6905 65.4541 61.6052 65.4372C61.5199 65.4202 61.4316 65.4289 61.3512 65.4622C61.2709 65.4954 61.2023 65.5518 61.154 65.6241C61.1057 65.6963 61.0799 65.7813 61.0799 65.8683C61.0806 65.9846 61.1271 66.096 61.2094 66.1783C61.2917 66.2606 61.4031 66.3071 61.5195 66.3078Z" fill="#CCCCCC"/>
<path fill-rule="evenodd" clip-rule="evenodd" d="M61.5987 66.226C61.6863 66.2265 61.7722 66.2009 61.8452 66.1526C61.9183 66.1042 61.9754 66.0352 62.0092 65.9543C62.043 65.8734 62.0519 65.7843 62.035 65.6983C62.018 65.6123 61.9758 65.5333 61.9138 65.4713C61.8519 65.4093 61.7728 65.3671 61.6868 65.3502C61.6009 65.3332 61.5117 65.3422 61.4309 65.3759C61.35 65.4097 61.281 65.4668 61.2326 65.5399C61.1842 65.613 61.1586 65.6988 61.1591 65.7865C61.1598 65.9028 61.2063 66.0142 61.2886 66.0965C61.3709 66.1788 61.4823 66.2253 61.5987 66.226Z" fill="black"/>
<path fill-rule="evenodd" clip-rule="evenodd" d="M61.6063 65.3724C61.708 65.3742 61.8054 65.4135 61.8797 65.4829C61.9541 65.5522 62.0001 65.6466 62.009 65.7478C62.0179 65.8491 61.989 65.9501 61.9279 66.0313C61.8667 66.1125 61.7777 66.1682 61.6779 66.1876C61.7636 66.1494 61.8336 66.0829 61.8764 65.9994C61.9192 65.9158 61.9321 65.8202 61.913 65.7283C61.8939 65.6363 61.8439 65.5537 61.7714 65.4941C61.6989 65.4345 61.6082 65.4015 61.5143 65.4005H61.4428C61.495 65.3807 61.5505 65.3712 61.6063 65.3724Z" fill="#666666"/>
<path fill-rule="evenodd" clip-rule="evenodd" d="M61.5195 71.2936C61.607 71.2941 61.6927 71.2686 61.7658 71.2204C61.8388 71.1721 61.8959 71.1032 61.9297 71.0225C61.9636 70.9418 61.9727 70.8528 61.9559 70.7669C61.9392 70.6809 61.8973 70.6019 61.8355 70.5398C61.7738 70.4777 61.695 70.4354 61.6092 70.4181C61.5234 70.4008 61.4343 70.4094 61.3534 70.4428C61.2725 70.4762 61.2033 70.5329 61.1546 70.6056C61.1059 70.6784 61.0799 70.764 61.0799 70.8515C61.0806 70.9681 61.127 71.0798 61.2092 71.1625C61.2914 71.2452 61.4028 71.2923 61.5195 71.2936Z" fill="#CCCCCC"/>
<path fill-rule="evenodd" clip-rule="evenodd" d="M61.5987 71.2221C61.6856 71.2221 61.7706 71.1963 61.8429 71.148C61.9152 71.0997 61.9715 71.0311 62.0048 70.9508C62.038 70.8705 62.0467 70.7821 62.0298 70.6968C62.0128 70.6116 61.971 70.5332 61.9095 70.4718C61.848 70.4103 61.7697 70.3684 61.6844 70.3515C61.5992 70.3345 61.5108 70.3432 61.4305 70.3765C61.3501 70.4097 61.2815 70.4661 61.2332 70.5384C61.1849 70.6107 61.1591 70.6956 61.1591 70.7826C61.1591 70.8403 61.1705 70.8975 61.1926 70.9508C61.2147 71.0041 61.247 71.0526 61.2879 71.0934C61.3287 71.1342 61.3771 71.1666 61.4305 71.1887C61.4838 71.2108 61.541 71.2221 61.5987 71.2221Z" fill="black"/>
<path fill-rule="evenodd" clip-rule="evenodd" d="M61.6063 70.3558C61.708 70.3576 61.8054 70.397 61.8797 70.4663C61.9541 70.5356 62.0001 70.63 62.009 70.7312C62.0179 70.8325 61.989 70.9335 61.9279 71.0147C61.8667 71.0959 61.7777 71.1516 61.6779 71.1711C61.7636 71.1328 61.8336 71.0664 61.8764 70.9828C61.9192 70.8992 61.9321 70.8036 61.913 70.7117C61.8939 70.6198 61.8439 70.5372 61.7714 70.4775C61.6989 70.4179 61.6082 70.3849 61.5143 70.384C61.4905 70.3814 61.4666 70.3814 61.4428 70.384C61.4947 70.363 61.5504 70.3534 61.6063 70.3558Z" fill="#666666"/>
<path fill-rule="evenodd" clip-rule="evenodd" d="M61.5195 76.0139C61.6071 76.0144 61.6929 75.9888 61.766 75.9404C61.8391 75.892 61.8962 75.823 61.93 75.7421C61.9638 75.6612 61.9727 75.5721 61.9558 75.4861C61.9388 75.4001 61.8966 75.3211 61.8346 75.2591C61.7727 75.1971 61.6936 75.155 61.6076 75.138C61.5216 75.121 61.4325 75.13 61.3516 75.1638C61.2708 75.1976 61.2017 75.2546 61.1533 75.3277C61.105 75.4008 61.0794 75.4866 61.0799 75.5743C61.0806 75.6907 61.1271 75.8021 61.2094 75.8844C61.2917 75.9667 61.4031 76.0132 61.5195 76.0139Z" fill="#CCCCCC"/>
<path fill-rule="evenodd" clip-rule="evenodd" d="M61.5987 75.9294C61.6856 75.9294 61.7706 75.9036 61.8429 75.8553C61.9152 75.807 61.9715 75.7384 62.0048 75.6581C62.038 75.5777 62.0467 75.4894 62.0298 75.4041C62.0128 75.3188 61.971 75.2405 61.9095 75.179C61.848 75.1176 61.7697 75.0757 61.6844 75.0587C61.5992 75.0418 61.5108 75.0505 61.4305 75.0838C61.3501 75.117 61.2815 75.1734 61.2332 75.2456C61.1849 75.3179 61.1591 75.4029 61.1591 75.4898C61.1591 75.5476 61.1705 75.6047 61.1926 75.6581C61.2147 75.7114 61.247 75.7598 61.2879 75.8007C61.3287 75.8415 61.3771 75.8739 61.4305 75.8959C61.4838 75.918 61.541 75.9294 61.5987 75.9294Z" fill="black"/>
<path fill-rule="evenodd" clip-rule="evenodd" d="M61.6064 75.0783C61.708 75.08 61.8054 75.1194 61.8797 75.1887C61.9541 75.258 62.0002 75.3524 62.0091 75.4537C62.0179 75.5549 61.989 75.6559 61.9279 75.7371C61.8667 75.8183 61.7777 75.874 61.6779 75.8935C61.7529 75.8624 61.8171 75.81 61.8625 75.7428C61.908 75.6755 61.9326 75.5964 61.9335 75.5153C61.9335 75.4613 61.9228 75.408 61.9021 75.3582C61.8814 75.3084 61.851 75.2632 61.8128 75.2252C61.7746 75.1872 61.7292 75.1572 61.6793 75.1368C61.6294 75.1164 61.5759 75.106 61.522 75.1064C61.4982 75.1038 61.4743 75.1038 61.4505 75.1064C61.5 75.0865 61.553 75.0769 61.6064 75.0783Z" fill="#666666"/>
<path d="M72.6872 46.354H66.4542C66.0661 46.354 65.7515 46.6686 65.7515 47.0568V50.5477C65.7515 50.9358 66.0661 51.2505 66.4542 51.2505H72.6872C73.0754 51.2505 73.39 50.9358 73.39 50.5477V47.0568C73.39 46.6686 73.0754 46.354 72.6872 46.354Z" fill="#4D4D4D"/>
<path d="M72.7307 46.313H66.4951C66.107 46.313 65.7924 46.6276 65.7924 47.0158V50.5066C65.7924 50.8948 66.107 51.2094 66.4951 51.2094H72.7307C73.1188 51.2094 73.4335 50.8948 73.4335 50.5066V47.0158C73.4335 46.6276 73.1188 46.313 72.7307 46.313Z" fill="#808080"/>
<path d="M72.7767 46.28H66.5411C66.153 46.28 65.8383 46.5947 65.8383 46.9828V50.4737C65.8383 50.8618 66.153 51.1765 66.5411 51.1765H72.7767C73.1648 51.1765 73.4795 50.8618 73.4795 50.4737V46.9828C73.4795 46.5947 73.1648 46.28 72.7767 46.28Z" fill="#F5F5F5"/>
<path fill-rule="evenodd" clip-rule="evenodd" d="M66.5411 46.28H72.7741C72.9605 46.28 73.1392 46.3541 73.271 46.4859C73.4028 46.6177 73.4769 46.7964 73.4769 46.9828V50.4737C73.4768 50.584 73.4506 50.6926 73.4004 50.7908C73.3502 50.889 73.2774 50.9739 73.1881 51.0385C73.2644 50.9731 73.3256 50.8919 73.3675 50.8006C73.4094 50.7093 73.4311 50.61 73.4309 50.5095V47.0186C73.4302 46.8324 73.3559 46.654 73.2243 46.5224C73.0926 46.3907 72.9143 46.3165 72.7281 46.3158H66.4926C66.3433 46.3162 66.1982 46.3646 66.0786 46.4538C66.2063 46.3412 66.3708 46.2794 66.5411 46.28Z" fill="white"/>
<path fill-rule="evenodd" clip-rule="evenodd" d="M16.5212 53.6117C16.0638 52.472 15.4786 51.5111 14.9445 51.0383C14.625 50.7546 14.4334 50.333 14.0884 49.988C13.6884 49.6222 13.2612 49.2873 12.8106 48.9862C12.0542 48.4135 11.2345 47.9299 10.3675 47.5449C11.2798 47.343 12.6675 47.1717 13.6514 48.2706C14.8908 48.6872 15.821 49.2596 16.3347 50.5911C17.4208 51.0025 17.5205 51.6465 18.0904 53.2616L16.5212 53.6117Z" fill="#F1B287"/>
<path fill-rule="evenodd" clip-rule="evenodd" d="M10.6946 47.7109C10.5923 47.6572 10.4825 47.6035 10.3649 47.5473C11.2772 47.3454 12.6649 47.1742 13.6488 48.2731C14.8882 48.6896 15.8185 49.2621 16.3321 50.5935C17.4182 51.005 17.4668 51.5493 18.0367 53.1644L18.0648 53.5043C17.5537 52.0451 17.3186 51.2247 16.2759 50.8312C15.7648 49.4997 14.832 48.9273 13.5926 48.5107C12.739 47.555 11.5839 47.5575 10.6946 47.7109Z" fill="#E8A476"/>
<path fill-rule="evenodd" clip-rule="evenodd" d="M16.7717 48.9095C16.9389 49.731 17.1582 50.5411 17.4284 51.3347C17.684 52.132 17.9804 52.9958 18.2386 53.8008L19.6927 53.4993L19.7668 53.0597C19.6007 52.7403 18.9285 51.4063 18.9285 51.4063C18.8723 51.1328 18.7037 50.7572 18.6423 50.5425C18.4328 49.7988 18.2104 49.4513 17.8246 48.6335C17.5307 47.9256 17.1857 47.1002 16.2759 47.3787C16.0076 47.463 15.9513 47.5883 16.1277 47.8898C16.3176 48.2447 16.5328 48.5855 16.7717 48.9095Z" fill="#F1B287"/>
<path fill-rule="evenodd" clip-rule="evenodd" d="M16.7717 48.9096C16.9389 49.7311 17.1582 50.5412 17.4284 51.3348C17.6354 51.9584 17.8552 52.6126 18.0648 53.2643C17.9377 52.5727 17.767 51.8898 17.5537 51.2198C17.2817 50.4276 17.0622 49.6183 16.8969 48.7971C16.658 48.4723 16.4427 48.1307 16.2529 47.7749C16.1634 47.6165 16.1328 47.5066 16.1634 47.4248C15.9948 47.5117 15.9794 47.642 16.1277 47.9001C16.318 48.2515 16.5333 48.5888 16.7717 48.9096Z" fill="#E8A476"/>
<path fill-rule="evenodd" clip-rule="evenodd" d="M22.5166 51.2556C22.6892 50.6608 22.7651 50.0422 22.7414 49.4233C23.0996 48.7418 23.556 48.1167 24.0959 47.5679C22.928 47.2204 21.4177 47.4887 21.226 49.3236C20.7532 49.8986 20.6714 50.2947 20.4849 51.1125C20.1389 51.3359 19.8409 51.6261 19.6083 51.9661L20.8376 52.9883L22.5907 53.2643C22.6609 52.5946 22.636 51.9183 22.5166 51.2556Z" fill="#F1B287"/>
<path fill-rule="evenodd" clip-rule="evenodd" d="M24.0473 47.6242L24.0959 47.5679C22.928 47.2204 21.4177 47.4887 21.226 49.3236C20.7532 49.8986 20.6715 50.2947 20.4849 51.1125C20.1064 51.3815 19.7778 51.7144 19.5138 52.0964C20.0658 51.6747 20.4287 51.3067 20.7737 51.2249C20.9602 50.4148 21.042 49.9804 21.5148 49.4079C21.6835 47.7749 22.9612 47.4555 24.0473 47.6242Z" fill="#E8A476"/>
<path fill-rule="evenodd" clip-rule="evenodd" d="M16.2759 46.2568L18.5222 46.9187C18.5989 46.9417 17.3211 46.9187 15.8389 46.9187C14.3567 46.9187 13.0789 46.9468 13.1556 46.9187L15.3355 46.2696L16.2759 46.2568Z" fill="#E3E3E3"/>
<path fill-rule="evenodd" clip-rule="evenodd" d="M15.3942 37.3738H16.2222C16.1609 40.4839 16.0536 43.6093 16.3117 46.7118H15.2895C15.5961 43.6221 15.4709 40.4839 15.3942 37.3738Z" fill="#E6E6E6"/>
<path fill-rule="evenodd" clip-rule="evenodd" d="M16.0791 37.3611L16.2223 37.3739C16.1609 40.484 16.0536 43.6094 16.3117 46.7119H16.1839C15.9258 43.6222 16.0204 40.4712 16.0791 37.3611Z" fill="#F0F0F0"/>
<path fill-rule="evenodd" clip-rule="evenodd" d="M15.3942 37.3738H15.5297C15.6038 40.4839 15.7443 43.6119 15.43 46.7118H15.2843C15.5961 43.6221 15.4709 40.4839 15.3942 37.3738Z" fill="#CCCCCC"/>
<path fill-rule="evenodd" clip-rule="evenodd" d="M15.9667 37.573H15.6345C15.706 40.7112 15.7086 43.4687 15.5961 46.6069H16.0485C16.0178 45.5336 15.9667 39.7503 15.9667 37.573Z" fill="white"/>
<path fill-rule="evenodd" clip-rule="evenodd" d="M15.3942 37.3738H16.2222L16.2069 38.1226C15.9513 37.867 15.6958 37.8006 15.4147 38.1813C15.4147 37.913 15.3993 37.6421 15.3942 37.3738ZM16.2785 46.2518C16.2785 46.4051 16.2989 46.5584 16.3117 46.7118H15.2895V46.6147L15.3201 46.2594C15.4715 46.3254 15.635 46.3588 15.8001 46.3575C15.9652 46.3561 16.1282 46.3201 16.2785 46.2518Z" fill="#E3E3E3"/>
<path fill-rule="evenodd" clip-rule="evenodd" d="M11.0217 31.1689C10.9451 31.8497 10.964 32.5379 11.0779 33.2134C11.2922 34.2133 11.7809 35.1337 12.4891 35.8713C13.1974 36.6089 14.0972 37.1345 15.0876 37.3892C15.5462 37.5579 16.0499 37.5579 16.5085 37.3892C17.4988 37.1345 18.3986 36.6089 19.1069 35.8713C19.8151 35.1337 20.3038 34.2133 20.5181 33.2134C20.6321 32.5379 20.651 31.8497 20.5743 31.1689C20.3878 31.2993 18.3203 31.4015 15.798 31.4015C13.2757 31.4015 11.2082 31.2993 11.0217 31.1689Z" fill="#820708"/>
<path fill-rule="evenodd" clip-rule="evenodd" d="M15.798 30.8979C18.443 30.8979 20.559 31.0155 20.559 31.1535C20.559 31.2915 18.443 31.4091 15.798 31.4091C13.153 31.4091 11.0242 31.2966 11.0242 31.1535C11.0242 31.0104 13.1556 30.8979 15.798 30.8979Z" fill="#580507"/>
<path fill-rule="evenodd" clip-rule="evenodd" d="M11.0575 31.1511C11.0575 31.2993 15.4505 31.3837 15.8031 31.3837C16.1558 31.3837 20.5386 31.2993 20.5386 31.1511L20.5539 31.215C19.8256 31.4885 16.6746 31.4834 15.8031 31.4834C14.8116 31.4834 11.9494 31.5064 11.0702 31.2278L11.0575 31.1511Z" fill="#460507"/>
<path fill-rule="evenodd" clip-rule="evenodd" d="M7.2088 48.2708L7.93969 48.4445C8.01381 48.4684 8.09412 48.4641 8.16529 48.4325C8.23647 48.401 8.29352 48.3443 8.32557 48.2733C8.3321 48.2369 8.33112 48.1996 8.32267 48.1636C8.31423 48.1276 8.29852 48.0938 8.27649 48.0641C8.25447 48.0344 8.2266 48.0095 8.19461 47.991C8.16262 47.9725 8.12718 47.9607 8.09046 47.9564L7.35958 47.7827C7.28576 47.7586 7.20569 47.7625 7.13456 47.7936C7.06343 47.8247 7.00619 47.8808 6.97369 47.9513C6.96716 47.9879 6.96813 48.0253 6.97655 48.0615C6.98496 48.0976 7.00064 48.1317 7.02264 48.1615C7.04464 48.1914 7.07248 48.2165 7.10449 48.2353C7.13649 48.2541 7.17198 48.2661 7.2088 48.2708Z" fill="#EDA580"/>
<path fill-rule="evenodd" clip-rule="evenodd" d="M7.0887 48.0662L8.16203 48.3218C8.195 48.3323 8.23071 48.3303 8.26231 48.3162C8.2939 48.302 8.31917 48.2767 8.33325 48.2451C8.3537 48.1863 8.30514 48.1224 8.22848 48.102L7.15514 47.8464C7.12181 47.8357 7.08573 47.8376 7.0537 47.8518C7.02168 47.8659 6.99595 47.8913 6.98137 47.9231C6.97847 47.9396 6.97899 47.9565 6.98289 47.9728C6.9868 47.9891 6.994 48.0045 7.00406 48.0179C7.01412 48.0313 7.02682 48.0425 7.04137 48.0508C7.05593 48.0591 7.07204 48.0644 7.0887 48.0662Z" fill="#F2B292"/>
<path fill-rule="evenodd" clip-rule="evenodd" d="M7.27779 47.9665L8.21823 48.1914C8.23113 48.1956 8.24516 48.1948 8.25749 48.1891C8.26982 48.1834 8.27954 48.1733 8.28468 48.1607C8.28468 48.1377 8.28468 48.1147 8.24379 48.1071L7.3059 47.8822C7.29263 47.8784 7.27845 47.8793 7.26583 47.8849C7.25321 47.8906 7.24297 47.9004 7.2369 47.9128C7.23543 47.9253 7.23888 47.9379 7.24651 47.9479C7.25413 47.9579 7.26535 47.9646 7.27779 47.9665Z" fill="#F7BFA3"/>
<path fill-rule="evenodd" clip-rule="evenodd" d="M7.34936 47.7824C7.27691 47.7651 7.20076 47.7723 7.1328 47.8028C7.06485 47.8333 7.0089 47.8854 6.97369 47.9511C6.93792 48.0712 7.03758 48.2067 7.20114 48.2629C7.18447 48.2309 7.17431 48.1959 7.17124 48.1599C7.16817 48.1239 7.17225 48.0877 7.18325 48.0533L7.21136 47.9562C7.23713 47.8848 7.28561 47.8237 7.34936 47.7824Z" fill="white"/>
<path fill-rule="evenodd" clip-rule="evenodd" d="M7.63811 48.0202L8.19012 48.1505C8.1925 48.1528 8.19572 48.1542 8.19906 48.1542C8.20241 48.1542 8.20562 48.1528 8.208 48.1505V48.1377L7.656 48.0048C7.65339 48.003 7.65026 48.002 7.64706 48.002C7.64385 48.002 7.64072 48.003 7.63811 48.0048C7.63811 48.0048 7.63045 48.0176 7.63811 48.0202Z" fill="#FCE3D6"/>
<path fill-rule="evenodd" clip-rule="evenodd" d="M23.6333 47.2382L23.0507 47.9052C22.982 47.9707 22.9405 48.0596 22.9344 48.1543C22.9282 48.249 22.9579 48.3425 23.0174 48.4163C23.0522 48.4431 23.0921 48.4625 23.1346 48.4732C23.1771 48.484 23.2214 48.486 23.2647 48.4791C23.308 48.4721 23.3495 48.4564 23.3865 48.4329C23.4235 48.4094 23.4553 48.3785 23.48 48.3422L24.0601 47.6752C24.1259 47.6114 24.166 47.5256 24.1726 47.4342C24.1792 47.3427 24.1519 47.2521 24.0959 47.1795C24.0621 47.1519 24.023 47.1316 23.9811 47.1196C23.9392 47.1076 23.8953 47.1043 23.852 47.1097C23.8088 47.1152 23.7671 47.1295 23.7295 47.1515C23.6919 47.1736 23.6592 47.2031 23.6333 47.2382Z" fill="#EDA580"/>
<path fill-rule="evenodd" clip-rule="evenodd" d="M23.917 47.2229L23.0609 48.2043C23.0317 48.2331 23.0141 48.2716 23.0113 48.3126C23.0084 48.3535 23.0206 48.394 23.0455 48.4266C23.0612 48.4384 23.079 48.4469 23.098 48.4516C23.117 48.4563 23.1368 48.4571 23.1561 48.454C23.1754 48.4509 23.1939 48.4439 23.2105 48.4335C23.2271 48.4231 23.2414 48.4095 23.2525 48.3934L24.1087 47.4121C24.1383 47.3835 24.1563 47.3449 24.1592 47.3038C24.162 47.2628 24.1495 47.2221 24.124 47.1897C24.1085 47.1776 24.0907 47.1688 24.0716 47.1639C24.0525 47.159 24.0327 47.1581 24.0133 47.1612C23.9938 47.1643 23.9753 47.1714 23.9587 47.1821C23.9421 47.1927 23.9279 47.2066 23.917 47.2229Z" fill="#F2B292"/>
<path fill-rule="evenodd" clip-rule="evenodd" d="M23.9068 47.4707L23.158 48.3293C23.1478 48.341 23.1421 48.356 23.1421 48.3715C23.1421 48.387 23.1478 48.402 23.158 48.4137C23.1685 48.4241 23.1828 48.43 23.1976 48.43C23.2125 48.43 23.2267 48.4241 23.2372 48.4137L23.986 47.555C23.9964 47.5429 24.0022 47.5275 24.0022 47.5116C24.0022 47.4956 23.9964 47.4802 23.986 47.4681C23.9808 47.4628 23.9745 47.4586 23.9676 47.4558C23.9607 47.453 23.9533 47.4517 23.9458 47.4519C23.9384 47.4522 23.9311 47.454 23.9243 47.4572C23.9176 47.4604 23.9116 47.465 23.9068 47.4707Z" fill="#F7BFA3"/>
<path fill-rule="evenodd" clip-rule="evenodd" d="M24.0703 47.6522C24.1287 47.5862 24.1634 47.5026 24.169 47.4146C24.1746 47.3267 24.1506 47.2394 24.101 47.1666C23.9962 47.0618 23.802 47.095 23.6487 47.233C23.7355 47.2332 23.8189 47.2671 23.8812 47.3276L23.9656 47.4119C24.028 47.477 24.0652 47.5622 24.0703 47.6522Z" fill="white"/>
<path fill-rule="evenodd" clip-rule="evenodd" d="M23.6666 47.8234L23.2245 48.3345C23.2219 48.3374 23.2206 48.341 23.2206 48.3448C23.2206 48.3485 23.2219 48.3522 23.2245 48.355C23.2245 48.355 23.2245 48.355 23.2449 48.355L23.6845 47.8439C23.6845 47.8439 23.6845 47.826 23.6845 47.8209C23.6816 47.8194 23.6783 47.8188 23.6751 47.8192C23.6719 47.8197 23.6689 47.8212 23.6666 47.8234Z" fill="#FCE3D6"/>
<path fill-rule="evenodd" clip-rule="evenodd" d="M30.8324 46.8574H0.766251C0.699806 46.8574 0.643585 47.0695 0.643585 47.3276C0.643585 47.5832 0.699806 47.7979 0.766251 47.7979H30.8324C30.8988 47.7979 30.9525 47.5858 30.9525 47.3276C30.9525 47.0695 30.8988 46.8574 30.8324 46.8574Z" fill="#5F6163"/>
<path opacity="0.34" fill-rule="evenodd" clip-rule="evenodd" d="M13.268 25.3166C12.6419 27.5016 11.3667 30.6986 11.8318 33.2695C12.1512 35.0456 13.3165 36.7809 15.4095 37.3584C11.5941 33.1801 13.4162 30.0904 14.7528 25.2706C14.8678 25.2451 14.9904 25.2195 15.1157 25.1965C14.498 25.202 13.8812 25.2421 13.268 25.3166Z" fill="white"/>
<path opacity="0.31" fill-rule="evenodd" clip-rule="evenodd" d="M12.532 25.4495C11.9263 27.6345 10.6026 30.5734 11.0779 33.2082C11.2922 34.2081 11.7809 35.1285 12.4891 35.8661C13.1974 36.6037 14.0972 37.1293 15.0876 37.384C15.3551 37.4908 15.644 37.5328 15.9309 37.5066C15.731 37.507 15.5334 37.4652 15.3508 37.384C14.3604 37.1293 13.4606 36.6037 12.7523 35.8661C12.0441 35.1285 11.5554 34.2081 11.3411 33.2082C10.8658 30.5734 12.2151 27.586 12.8208 25.3933L12.532 25.4495Z" fill="#E6E6E6"/>
<path opacity="0.39" fill-rule="evenodd" clip-rule="evenodd" d="M16.5085 37.384C17.4988 37.1293 18.3986 36.6037 19.1069 35.8661C19.8151 35.1285 20.3038 34.2081 20.5181 33.2082C20.9935 30.5734 19.6697 27.6345 19.064 25.4495L18.6883 25.3984C19.294 27.5834 20.6357 30.5734 20.1603 33.2082C19.6595 35.981 17.6815 36.9777 16.5085 37.384Z" fill="white"/>
<path opacity="0.15" fill-rule="evenodd" clip-rule="evenodd" d="M12.4656 35.4801C14.6966 37.1182 18.236 36.4001 19.5291 34.4885C18.2871 37.9692 14.395 37.89 12.4656 35.4801Z" fill="white"/>
<defs>
<linearGradient id="paint0_linear" x1="-236.435" y1="220.219" x2="472.018" y2="-275.845" gradientUnits="userSpaceOnUse">
<stop stop-color="#B4562B"/>
<stop offset="1" stop-color="#641B00"/>
</linearGradient>
<linearGradient id="paint1_linear" x1="3798.08" y1="913.471" x2="5018" y2="-34.3231" gradientUnits="userSpaceOnUse">
<stop stop-color="#B4562B"/>
<stop offset="1" stop-color="#641B00"/>
</linearGradient>
<linearGradient id="paint2_linear" x1="-35089.9" y1="14862.3" x2="154252" y2="-136174" gradientUnits="userSpaceOnUse">
<stop stop-color="#B4562B"/>
<stop offset="1" stop-color="#641B00"/>
</linearGradient>
<linearGradient id="paint3_linear" x1="50.9548" y1="34.1743" x2="54.4227" y2="20.2669" gradientUnits="userSpaceOnUse">
<stop stop-color="#641B00"/>
<stop offset="1" stop-color="#3D0000"/>
</linearGradient>
<linearGradient id="paint4_linear" x1="1625.09" y1="3296.34" x2="2004.97" y2="3339.01" gradientUnits="userSpaceOnUse">
<stop stop-color="#B4562B"/>
<stop offset="1" stop-color="#641B00"/>
</linearGradient>
<linearGradient id="paint5_linear" x1="2010.79" y1="3484.84" x2="2106.1" y2="3499.67" gradientUnits="userSpaceOnUse">
<stop stop-color="#B4562B"/>
<stop offset="1" stop-color="#641B00"/>
</linearGradient>
<linearGradient id="paint6_linear" x1="1819.65" y1="17671.6" x2="17848.3" y2="-3755.35" gradientUnits="userSpaceOnUse">
<stop stop-color="#641B00"/>
<stop offset="1" stop-color="#3D0000"/>
</linearGradient>
<linearGradient id="paint7_linear" x1="1675.43" y1="13346.3" x2="12700" y2="-7325.18" gradientUnits="userSpaceOnUse">
<stop stop-color="#B4562B"/>
<stop offset="1" stop-color="#641B00"/>
</linearGradient>
<linearGradient id="paint8_linear" x1="2393.36" y1="6621.6" x2="2983.68" y2="-5695.5" gradientUnits="userSpaceOnUse">
<stop stop-color="#B4562B"/>
<stop offset="1" stop-color="#641B00"/>
</linearGradient>
</defs>
</svg>
