<svg xmlns="http://www.w3.org/2000/svg" xmlns:xlink="http://www.w3.org/1999/xlink" viewBox="0 0 40 40"><defs><linearGradient id="Безымянный_градиент" x1="20" y1="2.12" x2="20" y2="41.69" gradientTransform="matrix(1 0 0 -1 0 42)" gradientUnits="userSpaceOnUse"><stop offset="0" stop-color="#e09b3d"/><stop offset=".3" stop-color="#c74c4d"/><stop offset=".6" stop-color="#c21975"/><stop offset="1" stop-color="#7024c4"/></linearGradient><linearGradient id="Безымянный_градиент_2" y1="2.12" x2="20" y2="41.69" xlink:href="#Безымянный_градиент"/><linearGradient id="Безымянный_градиент_3" x1="30.37" y1="2.12" x2="30.37" y2="41.69" xlink:href="#Безымянный_градиент"/></defs><path d="M28.08 0H11.92A11.94 11.94 0 000 11.92v16.16A11.94 11.94 0 0011.92 40h16.16A11.94 11.94 0 0040 28.08V11.92A11.94 11.94 0 0028.08 0zM36 28.08a7.9 7.9 0 01-7.9 7.9H11.92A7.9 7.9 0 014 28.08V11.92A7.9 7.9 0 0111.92 4h16.16a7.9 7.9 0 017.9 7.9z" fill="url(#Безымянный_градиент)"/><path d="M20 9.65A10.35 10.35 0 1030.35 20 10.37 10.37 0 0020 9.65zm0 16.67A6.32 6.32 0 1126.32 20 6.32 6.32 0 0120 26.32z" fill="url(#Безымянный_градиент_2)"/><path d="M30.37 12.21a2.48 2.48 0 10-2.48-2.48 2.48 2.48 0 002.48 2.48z" fill="url(#Безымянный_градиент_3)"/></svg>