<svg width="31" height="31" fill="none" xmlns="http://www.w3.org/2000/svg"><path d="M26.823 0H4.177A4.177 4.177 0 000 4.177v22.645A4.177 4.177 0 004.177 31h11.169l.019-11.078h-2.878a.679.679 0 01-.68-.676l-.013-3.571a.68.68 0 01.68-.682h2.872v-3.45c0-4.004 2.445-6.184 6.017-6.184h2.931a.68.68 0 01.68.679v3.01a.68.68 0 01-.68.68h-1.798c-1.943 0-2.319.924-2.319 2.278v2.987h4.269a.68.68 0 01.674.76l-.423 3.57a.68.68 0 01-.675.6h-3.826L20.177 31h6.646A4.177 4.177 0 0031 26.823V4.177A4.177 4.177 0 0026.823 0z" fill="#475993"/></svg>