<svg width="31" height="31" fill="none" xmlns="http://www.w3.org/2000/svg"><g clip-path="url(#clip0)" fill-rule="evenodd" clip-rule="evenodd"><path d="M15.329 0C8.94 0 4.513.022 2.241 2.24.02 4.514 0 9.149 0 15.33c6.863-.207 10.001-.38 12.505-2.824C14.95 10.002 15.122 6.864 15.329 0zM2.24 28.76C.021 26.486 0 21.851 0 15.67c6.863.208 10.002.38 12.505 2.824C14.95 20.998 15.121 24.137 15.33 31c-6.39 0-10.816-.021-13.089-2.24zM15.671 31c.207-6.863.38-10.002 2.824-12.505C20.998 16.05 24.137 15.878 31 15.67c0 6.181-.022 10.816-2.24 13.088C26.486 30.98 22.06 31 15.67 31zm0-31c.207 6.864.38 10.002 2.824 12.505C20.998 14.95 24.137 15.122 31 15.33c0-6.181-.022-10.816-2.24-13.088C26.486.02 22.06 0 15.67 0z" fill="#EEE"/><path d="M18.495 18.495C16.05 20.998 15.878 24.137 15.67 31c6.39 0 10.816-.021 13.088-2.24C30.978 26.486 31 21.851 31 15.67c-6.862.208-10.001.38-12.504 2.824zM0 15.67c0 6.181.021 10.816 2.24 13.088C4.513 30.98 8.94 31 15.33 31c-.208-6.862-.38-10.001-2.824-12.504C10.002 16.05 6.863 15.878 0 15.67zM15.329 0C8.94 0 4.513.022 2.241 2.24.02 4.514 0 9.149 0 15.33c6.863-.207 10.001-.38 12.505-2.824C14.95 10.002 15.122 6.864 15.329 0zm3.166 12.505C16.05 10.002 15.878 6.864 15.67 0c6.39 0 10.816.022 13.088 2.24C30.978 4.514 31 9.149 31 15.33c-6.862-.207-10.001-.38-12.504-2.824z" fill="url(#paint0_linear)"/></g><defs><linearGradient id="paint0_linear" x1="31" y1="31" x2="31" y2="0" gradientUnits="userSpaceOnUse"><stop stop-color="#fff" stop-opacity=".01"/><stop offset=".475" stop-color="#fff" stop-opacity=".01"/><stop offset=".76" stop-color="#fff" stop-opacity=".043"/><stop offset=".995" stop-color="#fff" stop-opacity=".099"/><stop offset="1" stop-color="#fff" stop-opacity=".1"/></linearGradient><clipPath id="clip0"><path fill="#fff" d="M0 0h31v31H0z"/></clipPath></defs></svg>