<svg xmlns="http://www.w3.org/2000/svg" viewBox="0 0 40 40"><defs><linearGradient id="Безымянный_градиент" x1="20" y1="2" x2="20" y2="42" gradientTransform="matrix(1 0 0 -1 0 42)" gradientUnits="userSpaceOnUse"><stop offset="0" stop-color="#fff" stop-opacity=".01"/><stop offset=".48" stop-color="#fff" stop-opacity=".01"/><stop offset=".76" stop-color="#fff" stop-opacity=".04"/><stop offset="1" stop-color="#fff" stop-opacity=".1"/><stop offset="1" stop-color="#fff" stop-opacity=".1"/></linearGradient><clipPath id="clip-path"><path fill="none" d="M0 0h40v40H0z"/></clipPath></defs><g clip-path="url(#clip-path)" fill-rule="evenodd"><path d="M19.78 0c-8.24 0-14 0-16.89 2.89S0 11.8 0 19.78c8.86-.27 12.91-.49 16.14-3.64S19.51 8.86 19.78 0zM2.89 37.11C0 34.18 0 28.2 0 20.22c8.86.27 12.91.49 16.14 3.64s3.37 7.28 3.64 16.14c-8.24 0-13.96 0-16.89-2.89zM20.22 40c.27-8.86.49-12.91 3.64-16.14s7.28-3.37 16.14-3.64c0 8 0 14-2.89 16.89S28.46 40 20.22 40zm0-40c.27 8.86.49 12.91 3.64 16.14s7.28 3.37 16.14 3.64c0-8 0-14-2.89-16.89S28.46 0 20.22 0z" fill="#2c3036"/><path d="M23.86 23.86c-3.15 3.23-3.37 7.28-3.64 16.14 8.24 0 14 0 16.89-2.89S40 28.2 40 20.22c-8.86.27-12.91.49-16.14 3.64zM0 20.22c0 8 0 14 2.89 16.89S11.54 40 19.78 40c-.27-8.86-.49-12.91-3.64-16.14S8.86 20.49 0 20.22zM19.78 0c-8.24 0-14 0-16.89 2.89S0 11.8 0 19.78c8.86-.27 12.91-.49 16.14-3.64S19.51 8.86 19.78 0zm4.08 16.14C20.71 12.91 20.49 8.86 20.22 0c8.24 0 14 0 16.89 2.89S40 11.8 40 19.78c-8.86-.27-12.91-.49-16.14-3.64z" fill="url(#Безымянный_градиент)"/><path d="M40 20.22v-.44c-8.86-.27-12.91-.49-16.14-3.64S20.49 8.86 20.22 0h-.44c-.27 8.86-.49 12.91-3.64 16.14S8.86 19.51 0 19.78v.44c8.86.27 12.91.49 16.14 3.64s3.37 7.28 3.64 16.14h.44c.27-8.86.49-12.91 3.64-16.14s7.28-3.37 16.14-3.64z" fill="#fff"/></g></svg>