<svg xmlns="http://www.w3.org/2000/svg" viewBox="0 0 32.81 32.81"><path d="M16.44 10.44a2 2 0 00-2 2v5.2L13 19a1.83 1.83 0 00-.59 1.4 2 2 0 002 2 2 2 0 001.39-.6l2.07-2.07a1.85 1.85 0 00.54-1.33v-6a2 2 0 00-1.97-1.96zm0-6A14 14 0 005.25 26.83L3 29.06a1.85 1.85 0 00-.58 1.38 2 2 0 002 2 1.93 1.93 0 001.38-.58l2.23-2.23a13.91 13.91 0 0016.78 0l2.23 2.23a1.87 1.87 0 001.38.59 2 2 0 002-2 1.89 1.89 0 00-.58-1.38l-2.23-2.23a14 14 0 00-11.17-22.4zm0 24a10 10 0 1110-10 10 10 0 01-10 10zm10-28a6 6 0 00-5.07 2.78 16 16 0 019.14 7.61A6 6 0 0026.44.44zM11.5 3.22a6 6 0 10-9.14 7.61 16 16 0 019.14-7.61z"/></svg>