<svg xmlns="http://www.w3.org/2000/svg" viewBox="0 0 854.51 1024"><path d="M770.36 0H139.25C92.86 0 55.1 38.27 55.1 85.33v85.34h-21a21.34 21.34 0 000 42.67h84.14a21.33 21.33 0 010 42.66h-42.1a21.17 21.17 0 00-21 21.33V384h-21a21.34 21.34 0 000 42.67h84.14a21.33 21.33 0 010 42.66H76.14a21.18 21.18 0 00-21 21.34v106.66h-21a21.34 21.34 0 000 42.67h84.15a21.34 21.34 0 010 42.67H76.14A21.17 21.17 0 0055.1 704v106.67h-21a21.33 21.33 0 000 42.66h84.15a21.34 21.34 0 010 42.67H76.14a21.17 21.17 0 00-21 21.33v21.34c0 47.06 37.76 85.33 84.15 85.33h631.07c46.39 0 84.15-38.27 84.15-85.33V85.33C854.51 38.27 816.75 0 770.36 0zm-42.07 677.92c0 26.14-21 47.41-46.76 47.41-252.61 0-458.13-208.41-458.13-464.58 0-26.15 21-47.42 46.76-47.42h90c25.76 0 46.76 21.27 46.76 47.42a279.68 279.68 0 0013.55 86.41A48.1 48.1 0 01409 395.5l-36.86 49.77c31.68 59 68.83 96.68 127.46 129.23l51.28-39.27c10.35-10.73 29-15.23 45.77-9.4a267.74 267.74 0 0084.93 13.69c25.76 0 46.75 21.27 46.75 47.41v91z"/></svg>