<svg xmlns="http://www.w3.org/2000/svg" viewBox="0 0 741.78 1022.94"><path d="M253 300.1V61.34a37.56 37.56 0 007.67-22.78v-3.79a37.85 37.85 0 00-37.86-37.84h-88.95A37.86 37.86 0 0096 34.77v3.79a37.63 37.63 0 007.68 22.78v238.75C43.41 328.29 1.55 389.47 1.55 460.28v540.49a22.18 22.18 0 0022.17 22.17H333a22.16 22.16 0 0022.15-22.17V460.28c0-70.81-41.86-132-102.11-160.19zm419.86 142.52H451.62c-31.09 38.24-52.08 89-58.74 135.63-14.64 102.33 41.63 196.89 127.46 220.45v152.09h-33.08a21.73 21.73 0 00-21.72 21.73v29.34a21.72 21.72 0 0021.72 21.73h150a21.73 21.73 0 0021.74-21.73v-29.34a21.73 21.73 0 00-21.73-21.73h-33.13V798.7c85.86-23.56 142.1-118.12 127.47-220.45-6.61-46.59-27.61-97.39-58.75-135.63z"/></svg>