<svg xmlns="http://www.w3.org/2000/svg" viewBox="0 0 16.03 16"><defs><style>.cls-1{fill:#2d2d2d}</style></defs><g id="Слой_2" data-name="Слой 2"><g id="Слой_1-2"><path class="cls-1" d="M12.19 10.58a1.11 1.11 0 00-1.58-.11l-.11.11-1.19 1.19a.24.24 0 01-.31.1c-.26-.14-.53-.26-.78-.41a12.26 12.26 0 01-3-2.7A7.16 7.16 0 014.19 7a.23.23 0 01.06-.31l1.17-1.15a1.14 1.14 0 00.09-1.6l-.09-.08-.93-1-1-1a1.14 1.14 0 00-1.61-.09l-.09.09C1.39 2.25 1 2.65.6 3A2 2 0 000 4.34a5.82 5.82 0 00.46 2.44A14.68 14.68 0 003 11a16 16 0 005.24 4.11 7.67 7.67 0 002.91.84A2.13 2.13 0 0013 15.3c.34-.38.72-.73 1.08-1.09a1.14 1.14 0 00.13-1.61l-.13-.12zm-.63-2.65l1.22-.21a5.5 5.5 0 00-4.66-4.53L8 4.43a4.27 4.27 0 013.56 3.5z"/><path class="cls-1" d="M13.48 2.59A9 9 0 008.28 0l-.17 1.23a7.91 7.91 0 016.69 6.48l1.2-.2a9.16 9.16 0 00-2.52-4.92z"/></g></g></svg>