<svg xmlns="http://www.w3.org/2000/svg" viewBox="0 0 14.21 14.21"><defs><style>.cls-1{fill:#bbb}</style></defs><path class="cls-1" d="M1.76 9.79a5.68 5.68 0 018-8 5.56 5.56 0 01.86 6.85.24.24 0 000 .29l2.9 2.9a1.32 1.32 0 01.2 1.89l-.09.09a1.32 1.32 0 01-1.89-.2L8.9 10.69a.23.23 0 00-.29 0 5.56 5.56 0 01-6.85-.9zm7-1a4.19 4.19 0 10-5.93 0 4.19 4.19 0 005.91-.05z"/><path class="cls-1" d="M8.38 6.6a.62.62 0 00.23 0 .58.58 0 00.31-.77 3.69 3.69 0 00-4.84-2 .58.58 0 00-.31.77.59.59 0 00.77.31 2.52 2.52 0 013.3 1.34.58.58 0 00.54.35z"/></svg>