<?xml version="1.0" encoding="UTF-8"?><!DOCTYPE svg PUBLIC "-//W3C//DTD SVG 1.1//EN" "http://www.w3.org/Graphics/SVG/1.1/DTD/svg11.dtd"><svg xmlns="http://www.w3.org/2000/svg" xmlns:xlink="http://www.w3.org/1999/xlink"><symbol id="29125d95752cbd716b1eed59c81e4876" viewBox="0 0 512 512"><path d="M170.667 423.721H8.828A8.829 8.829 0 010 414.893V97.1a8.829 8.829 0 018.828-8.828h161.839v335.449z" fill="#41479b"/><path fill="#f5f5f5" d="M170.67 88.277h170.67v335.45H170.67z"/><path d="M503.172 423.721H341.333V88.273h161.839A8.829 8.829 0 01512 97.101v317.793a8.827 8.827 0 01-8.828 8.827z" fill="#ff4b55"/></symbol><symbol id="8576a573de626931b7fe691e75f7c2dc" viewBox="0 0 512.001 512.001"><g fill="#82afff"><path d="M512 200.093H0V97.104a8.829 8.829 0 018.828-8.828h494.345a8.829 8.829 0 018.828 8.828L512 200.093zM503.172 423.725H8.828A8.829 8.829 0 010 414.897V311.909h512v102.988a8.828 8.828 0 01-8.828 8.828z"/></g><path fill="#f5f5f5" d="M0 200.091h512v111.81H0z"/><path d="M300.138 253.794h-31.784c.593-.45 1.062-.893 1.486-1.311.776-.759 1.393-1.362 3.03-2.035 1.646-.69 2.508-.698 3.599-.715 1.314-.009 2.802-.034 5.233-1.035 2.427-1.009 3.487-2.044 4.423-2.957.776-.759 1.393-1.362 3.034-2.044 1.633-.681 2.492-.69 3.577-.698 1.311-.018 2.797-.034 5.228-1.043l-1.698-4.07c-1.633.681-2.492.69-3.577.698-1.311.018-2.797.034-5.224 1.035-2.426 1.009-3.487 2.044-4.423 2.957-.776.759-1.393 1.362-3.03 2.035-1.646.69-2.508.698-3.599.715-1.314.009-2.802.034-5.233 1.043-2.426 1-3.487 2.044-4.423 2.957-.764.743-1.395 1.338-2.966 2.002l24.98-24.977-3.121-3.121-22.485 22.483c.099-.735.126-1.389.132-1.982.013-1.095.022-1.949.703-3.595s1.284-2.259 2.044-3.034c.922-.94 1.961-2.008 2.969-4.439 1.004-2.431 1.022-3.914 1.035-5.224.013-1.086.022-1.949.698-3.586.681-1.638 1.28-2.25 2.039-3.026.918-.94 1.956-2.001 2.962-4.423l-4.077-1.689c-.681 1.638-1.28 2.25-2.039 3.026-.918.94-1.956 2.001-2.962 4.423-1.004 2.431-1.022 3.914-1.035 5.224-.013 1.086-.022 1.949-.698 3.586-.681 1.646-1.284 2.259-2.044 3.034-.922.94-1.961 2.008-2.969 4.439-1.004 2.431-1.022 3.923-1.038 5.233-.009 1.063-.039 1.922-.676 3.5v-35.318h-4.414v31.783a15.79 15.79 0 00-1.306-1.481c-.762-.776-1.362-1.397-2.044-3.034-.681-1.646-.694-2.508-.707-3.604-.013-1.311-.03-2.802-1.038-5.233-1.004-2.422-2.044-3.482-2.962-4.423-.759-.776-1.357-1.388-2.039-3.026-.676-1.638-.685-2.5-.698-3.586-.013-1.311-.03-2.793-1.035-5.216l-4.077 1.689c.676 1.638.685 2.492.698 3.577.013 1.311.03 2.793 1.035 5.224 1.004 2.422 2.044 3.482 2.962 4.423.759.776 1.357 1.388 2.039 3.026.681 1.646.694 2.508.707 3.604.013 1.311.03 2.802 1.038 5.233 1.004 2.431 2.044 3.491 2.962 4.431.748.76 1.34 1.395 2.004 2.962l-24.982-24.979-3.121 3.121 24.943 24.94c-1.368-.621-2.028-1.192-2.745-1.888-.943-.922-2.008-1.965-4.448-2.974-2.431-1-3.918-1.026-5.233-1.043-1.095-.009-1.956-.025-3.616-.715-1.66-.681-2.28-1.284-3.069-2.051-.943-.914-2.013-1.956-4.457-2.974-2.44-1.009-3.932-1.026-5.25-1.043-1.099-.018-1.965-.034-3.625-.724l-1.689 4.086c2.44 1.009 3.932 1.026 5.25 1.043 1.099.018 1.965.034 3.625.724 1.664.681 2.284 1.284 3.073 2.051.943.922 2.013 1.956 4.452 2.966 2.44 1.017 3.932 1.035 5.246 1.052 1.095.018 1.956.025 3.608.715 1.651.681 2.268 1.284 3.048 2.044.401.393.849.809 1.391 1.233H211.86v4.414h35.254c-1.393.53-2.264.597-3.263.612-1.314.009-2.802.034-5.237 1.035-2.435 1.009-3.505 2.051-4.448 2.966-.785.767-1.401 1.37-3.052 2.051-1.66.69-2.526.707-3.625.724-1.319.018-2.81.034-5.25 1.043-2.444 1.017-3.513 2.051-4.457 2.974-.789.767-1.409 1.37-3.069 2.051l1.689 4.086c2.44-1.017 3.509-2.051 4.452-2.974.789-.767 1.409-1.37 3.073-2.051 1.66-.69 2.526-.707 3.625-.724 1.319-.018 2.81-.034 5.255-1.052 2.431-1.009 3.496-2.044 4.439-2.966.78-.759 1.401-1.362 3.057-2.044 1.646-.69 2.513-.698 3.604-.715.558-.003 1.187-.04 1.868-.124l-22.549 22.546 3.121 3.121 24.931-24.927c-.614 1.362-1.181 2.019-1.879 2.738-.918.94-1.956 2.008-2.966 4.439-1.01 2.431-1.031 3.932-1.043 5.241-.018 1.095-.025 1.956-.712 3.612-.685 1.664-1.293 2.284-2.056 3.069-.922.94-1.961 2.017-2.974 4.457s-1.031 3.932-1.047 5.25c-.018 1.095-.03 1.965-.715 3.62l4.077 1.689c1.013-2.44 1.031-3.932 1.047-5.25.018-1.095.03-1.965.715-3.62.685-1.664 1.293-2.284 2.056-3.069.922-.94 1.961-2.017 2.974-4.457 1.009-2.431 1.031-3.932 1.043-5.241.018-1.095.025-1.956.712-3.612.681-1.655 1.284-2.268 2.047-3.052a16.46 16.46 0 001.233-1.395v31.878h4.414v-35.252c.526 1.39.593 2.259.608 3.261.013 1.311.034 2.802 1.043 5.233 1.004 2.44 2.047 3.509 2.966 4.448.762.785 1.366 1.405 2.051 3.06s.698 2.526.715 3.62c.018 1.319.034 2.81 1.047 5.25s2.051 3.518 2.974 4.457c.762.785 1.37 1.405 2.056 3.069l4.077-1.689c-1.013-2.44-2.051-3.518-2.974-4.457-.762-.785-1.37-1.405-2.056-3.069-.685-1.655-.698-2.526-.715-3.62-.018-1.319-.034-2.81-1.047-5.25-1.009-2.44-2.047-3.509-2.966-4.448-.762-.785-1.366-1.405-2.051-3.06-.685-1.646-.694-2.508-.712-3.604a16.785 16.785 0 00-.126-1.868l22.552 22.55 3.121-3.121-22.482-22.478c.73.097 1.384.126 1.973.134 1.09.009 1.949.018 3.595.698 1.646.69 2.263 1.284 3.043 2.051.94.914 2.004 1.956 4.436 2.966 2.427 1 3.914 1.017 5.224 1.026 1.086.018 1.944.025 3.582.707 1.638.672 2.25 1.276 3.026 2.035.94.914 2.001 1.956 4.427 2.966l1.689-4.086c-1.638-.672-2.25-1.276-3.026-2.035-.94-.914-2.001-1.956-4.427-2.966-2.426-1-3.914-1.017-5.224-1.026-1.086-.018-1.944-.025-3.582-.707-1.646-.681-2.263-1.276-3.043-2.044-.94-.914-2.004-1.956-4.436-2.957-2.431-1.017-3.918-1.035-5.233-1.043-1.07-.018-1.937-.038-3.524-.681h35.35v-4.414h.003z" fill="#f09146"/><circle cx="256" cy="256.001" r="22.07" fill="#ffe15a"/></symbol><symbol id="8815f475d4f0a4a77b4624fe977ee57d" viewBox="0 0 512.001 512.001"><path d="M8.828 423.725h494.345a8.829 8.829 0 008.828-8.828V97.104a8.829 8.829 0 00-8.828-8.828H8.828A8.83 8.83 0 000 97.104v317.793a8.828 8.828 0 008.828 8.828z" fill="#c8414b"/><path fill="#ffd250" d="M0 158.901h512v194.21H0z"/><path d="M216.276 256.001l7.485-33.681c.69-3.102-1.671-6.044-4.849-6.044h-5.272c-3.177 0-5.537 2.942-4.849 6.044l7.485 33.681z" fill="#c8414b"/><path fill="#f5f5f5" d="M207.45 238.341h17.655v75.03H207.45z"/><path fill="#fab446" d="M203.03 229.521h26.483v8.828H203.03z"/><g fill="#c8414b"><path d="M185.38 256.001h44.14v8.828h-44.14zM229.517 291.311l-26.483-8.827v-8.828l26.483 8.828zM83.862 256.001l7.485-33.681c.69-3.102-1.671-6.044-4.849-6.044h-5.272c-3.177 0-5.537 2.942-4.849 6.044l7.485 33.681z"/></g><path d="M114.759 229.518a8.829 8.829 0 00-8.828 8.828v57.379c0 10.725 10.01 30.897 44.138 30.897s44.138-20.171 44.138-30.897v-57.379a8.829 8.829 0 00-8.828-8.828h-70.62z" fill="#f5f5f5"/><g fill="#c8414b"><path d="M150.069 273.656h-44.138v-35.31a8.829 8.829 0 018.828-8.828h35.31v44.138zM150.069 273.656h44.138v22.069c0 12.189-9.88 22.069-22.069 22.069-12.189 0-22.069-9.88-22.069-22.069v-22.069z"/></g><path d="M105.931 273.656h44.138v22.069c0 12.189-9.88 22.069-22.069 22.069-12.189 0-22.069-9.88-22.069-22.069v-22.069z" fill="#fab446"/><g fill="#c8414b"><path d="M141.241 313.281v-39.625h-8.828v43.693c3.284-.666 6.251-2.12 8.828-4.068zM123.586 317.349v-43.693h-8.828v39.625c2.578 1.948 5.545 3.402 8.828 4.068z"/></g><path fill="#ffb441" d="M114.76 256.001h26.483v8.828H114.76z"/><g fill="#fab446"><path d="M114.76 238.341h26.483v8.828H114.76z"/><path d="M119.17 243.591h17.655v15.992H119.17z"/></g><path fill="#f5f5f5" d="M75.03 238.341h17.655v75.03H75.03z"/><g fill="#fab446"><path d="M70.62 308.971h26.483v8.828H70.62zM70.62 229.521h26.483v8.828H70.62z"/></g><path fill="#5064aa" d="M66.21 317.791h35.31v8.828H66.21z"/><path fill="#fab446" d="M207.45 308.971h26.483v8.828H207.45z"/><path fill="#5064aa" d="M198.62 317.791h35.31v8.828h-35.31z"/><path fill="#fab446" d="M123.59 220.691h52.966v8.828H123.59z"/><path fill="#ffb441" d="M145.66 194.211h8.828v26.483h-8.828z"/><g fill="#f5f5f5"><path d="M141.241 207.449c-7.302 0-13.241-5.94-13.241-13.241 0-7.302 5.94-13.241 13.241-13.241 7.302 0 13.241 5.94 13.241 13.241.001 7.301-5.939 13.241-13.241 13.241zm0-17.655a4.417 4.417 0 00-4.414 4.414c0 2.435 1.978 4.414 4.414 4.414s4.414-1.978 4.414-4.414a4.417 4.417 0 00-4.414-4.414z"/><path d="M158.897 207.449c-7.302 0-13.241-5.94-13.241-13.241 0-7.302 5.94-13.241 13.241-13.241 7.302 0 13.241 5.94 13.241 13.241s-5.94 13.241-13.241 13.241zm0-17.655a4.417 4.417 0 00-4.414 4.414 4.417 4.417 0 004.414 4.414 4.417 4.417 0 004.414-4.414 4.418 4.418 0 00-4.414-4.414z"/><path d="M176.552 216.277c-7.302 0-13.241-5.94-13.241-13.241 0-7.302 5.94-13.241 13.241-13.241 7.302 0 13.241 5.94 13.241 13.241s-5.94 13.241-13.241 13.241zm0-17.655a4.417 4.417 0 00-4.414 4.414 4.417 4.417 0 004.414 4.414c2.435 0 4.414-1.978 4.414-4.414s-1.979-4.414-4.414-4.414zM123.586 216.277c-7.302 0-13.241-5.94-13.241-13.241 0-7.302 5.94-13.241 13.241-13.241 7.302 0 13.241 5.94 13.241 13.241.001 7.301-5.939 13.241-13.241 13.241zm0-17.655a4.417 4.417 0 00-4.414 4.414c0 2.435 1.978 4.414 4.414 4.414s4.414-1.979 4.414-4.415a4.416 4.416 0 00-4.414-4.413z"/></g><path d="M176.552 291.311v4.414c0 2.434-1.98 4.414-4.414 4.414s-4.414-1.98-4.414-4.414v-4.414h8.828m8.827-8.827h-26.483v13.241c0 7.302 5.94 13.241 13.241 13.241 7.302 0 13.241-5.94 13.241-13.241v-13.241h.001z" fill="#fab446"/><path d="M172.138 264.829a8.829 8.829 0 01-8.828-8.828v-8.828a8.829 8.829 0 0117.656 0v8.828a8.829 8.829 0 01-8.828 8.828z" fill="#ffa0d2"/><circle cx="150.07" cy="273.651" r="13.241" fill="#5064aa"/><path fill="#fab446" d="M145.66 176.551h8.828v26.483h-8.828z"/><path d="M123.586 220.691l-8.828-8.828 5.171-5.171a42.627 42.627 0 0160.28 0l5.171 5.171-8.828 8.828h-52.966z" fill="#c8414b"/><g fill="#ffd250"><circle cx="150.07" cy="211.861" r="4.414"/><circle cx="132.41" cy="211.861" r="4.414"/><circle cx="167.72" cy="211.861" r="4.414"/></g><g fill="#c8414b"><path d="M70.62 256.001h44.14v8.828H70.62zM70.621 291.311l26.482-8.827v-8.828l-26.482 8.828z"/></g></symbol><symbol id="argentina" viewBox="0 0 512.001 512.001"><g fill="#82afff"><path d="M512 200.093H0V97.104a8.829 8.829 0 018.828-8.828h494.345a8.829 8.829 0 018.828 8.828L512 200.093zM503.172 423.725H8.828A8.829 8.829 0 010 414.897V311.909h512v102.988a8.828 8.828 0 01-8.828 8.828z"/></g><path fill="#f5f5f5" d="M0 200.091h512v111.81H0z"/><path d="M300.138 253.794h-31.784c.593-.45 1.062-.893 1.486-1.311.776-.759 1.393-1.362 3.03-2.035 1.646-.69 2.508-.698 3.599-.715 1.314-.009 2.802-.034 5.233-1.035 2.427-1.009 3.487-2.044 4.423-2.957.776-.759 1.393-1.362 3.034-2.044 1.633-.681 2.492-.69 3.577-.698 1.311-.018 2.797-.034 5.228-1.043l-1.698-4.07c-1.633.681-2.492.69-3.577.698-1.311.018-2.797.034-5.224 1.035-2.426 1.009-3.487 2.044-4.423 2.957-.776.759-1.393 1.362-3.03 2.035-1.646.69-2.508.698-3.599.715-1.314.009-2.802.034-5.233 1.043-2.426 1-3.487 2.044-4.423 2.957-.764.743-1.395 1.338-2.966 2.002l24.98-24.977-3.121-3.121-22.485 22.483c.099-.735.126-1.389.132-1.982.013-1.095.022-1.949.703-3.595s1.284-2.259 2.044-3.034c.922-.94 1.961-2.008 2.969-4.439 1.004-2.431 1.022-3.914 1.035-5.224.013-1.086.022-1.949.698-3.586.681-1.638 1.28-2.25 2.039-3.026.918-.94 1.956-2.001 2.962-4.423l-4.077-1.689c-.681 1.638-1.28 2.25-2.039 3.026-.918.94-1.956 2.001-2.962 4.423-1.004 2.431-1.022 3.914-1.035 5.224-.013 1.086-.022 1.949-.698 3.586-.681 1.646-1.284 2.259-2.044 3.034-.922.94-1.961 2.008-2.969 4.439-1.004 2.431-1.022 3.923-1.038 5.233-.009 1.063-.039 1.922-.676 3.5v-35.318h-4.414v31.783a15.79 15.79 0 00-1.306-1.481c-.762-.776-1.362-1.397-2.044-3.034-.681-1.646-.694-2.508-.707-3.604-.013-1.311-.03-2.802-1.038-5.233-1.004-2.422-2.044-3.482-2.962-4.423-.759-.776-1.357-1.388-2.039-3.026-.676-1.638-.685-2.5-.698-3.586-.013-1.311-.03-2.793-1.035-5.216l-4.077 1.689c.676 1.638.685 2.492.698 3.577.013 1.311.03 2.793 1.035 5.224 1.004 2.422 2.044 3.482 2.962 4.423.759.776 1.357 1.388 2.039 3.026.681 1.646.694 2.508.707 3.604.013 1.311.03 2.802 1.038 5.233 1.004 2.431 2.044 3.491 2.962 4.431.748.76 1.34 1.395 2.004 2.962l-24.982-24.979-3.121 3.121 24.943 24.94c-1.368-.621-2.028-1.192-2.745-1.888-.943-.922-2.008-1.965-4.448-2.974-2.431-1-3.918-1.026-5.233-1.043-1.095-.009-1.956-.025-3.616-.715-1.66-.681-2.28-1.284-3.069-2.051-.943-.914-2.013-1.956-4.457-2.974-2.44-1.009-3.932-1.026-5.25-1.043-1.099-.018-1.965-.034-3.625-.724l-1.689 4.086c2.44 1.009 3.932 1.026 5.25 1.043 1.099.018 1.965.034 3.625.724 1.664.681 2.284 1.284 3.073 2.051.943.922 2.013 1.956 4.452 2.966 2.44 1.017 3.932 1.035 5.246 1.052 1.095.018 1.956.025 3.608.715 1.651.681 2.268 1.284 3.048 2.044.401.393.849.809 1.391 1.233H211.86v4.414h35.254c-1.393.53-2.264.597-3.263.612-1.314.009-2.802.034-5.237 1.035-2.435 1.009-3.505 2.051-4.448 2.966-.785.767-1.401 1.37-3.052 2.051-1.66.69-2.526.707-3.625.724-1.319.018-2.81.034-5.25 1.043-2.444 1.017-3.513 2.051-4.457 2.974-.789.767-1.409 1.37-3.069 2.051l1.689 4.086c2.44-1.017 3.509-2.051 4.452-2.974.789-.767 1.409-1.37 3.073-2.051 1.66-.69 2.526-.707 3.625-.724 1.319-.018 2.81-.034 5.255-1.052 2.431-1.009 3.496-2.044 4.439-2.966.78-.759 1.401-1.362 3.057-2.044 1.646-.69 2.513-.698 3.604-.715.558-.003 1.187-.04 1.868-.124l-22.549 22.546 3.121 3.121 24.931-24.927c-.614 1.362-1.181 2.019-1.879 2.738-.918.94-1.956 2.008-2.966 4.439-1.01 2.431-1.031 3.932-1.043 5.241-.018 1.095-.025 1.956-.712 3.612-.685 1.664-1.293 2.284-2.056 3.069-.922.94-1.961 2.017-2.974 4.457s-1.031 3.932-1.047 5.25c-.018 1.095-.03 1.965-.715 3.62l4.077 1.689c1.013-2.44 1.031-3.932 1.047-5.25.018-1.095.03-1.965.715-3.62.685-1.664 1.293-2.284 2.056-3.069.922-.94 1.961-2.017 2.974-4.457 1.009-2.431 1.031-3.932 1.043-5.241.018-1.095.025-1.956.712-3.612.681-1.655 1.284-2.268 2.047-3.052a16.46 16.46 0 001.233-1.395v31.878h4.414v-35.252c.526 1.39.593 2.259.608 3.261.013 1.311.034 2.802 1.043 5.233 1.004 2.44 2.047 3.509 2.966 4.448.762.785 1.366 1.405 2.051 3.06s.698 2.526.715 3.62c.018 1.319.034 2.81 1.047 5.25s2.051 3.518 2.974 4.457c.762.785 1.37 1.405 2.056 3.069l4.077-1.689c-1.013-2.44-2.051-3.518-2.974-4.457-.762-.785-1.37-1.405-2.056-3.069-.685-1.655-.698-2.526-.715-3.62-.018-1.319-.034-2.81-1.047-5.25-1.009-2.44-2.047-3.509-2.966-4.448-.762-.785-1.366-1.405-2.051-3.06-.685-1.646-.694-2.508-.712-3.604a16.785 16.785 0 00-.126-1.868l22.552 22.55 3.121-3.121-22.482-22.478c.73.097 1.384.126 1.973.134 1.09.009 1.949.018 3.595.698 1.646.69 2.263 1.284 3.043 2.051.94.914 2.004 1.956 4.436 2.966 2.427 1 3.914 1.017 5.224 1.026 1.086.018 1.944.025 3.582.707 1.638.672 2.25 1.276 3.026 2.035.94.914 2.001 1.956 4.427 2.966l1.689-4.086c-1.638-.672-2.25-1.276-3.026-2.035-.94-.914-2.001-1.956-4.427-2.966-2.426-1-3.914-1.017-5.224-1.026-1.086-.018-1.944-.025-3.582-.707-1.646-.681-2.263-1.276-3.043-2.044-.94-.914-2.004-1.956-4.436-2.957-2.431-1.017-3.918-1.035-5.233-1.043-1.07-.018-1.937-.038-3.524-.681h35.35v-4.414h.003z" fill="#f09146"/><circle cx="256" cy="256.001" r="22.07" fill="#ffe15a"/></symbol><symbol id="armenia" viewBox="0 0 512.001 512.001"><path d="M0 311.908h512v102.988a8.829 8.829 0 01-8.828 8.828H8.828A8.829 8.829 0 010 414.896V311.908z" fill="#ffb400"/><path d="M8.828 88.276h494.345a8.829 8.829 0 018.828 8.828v102.988H0V97.104a8.829 8.829 0 018.828-8.828z" fill="#ff4b55"/><path fill="#41479b" d="M0 200.09h512V311.9H0z"/></symbol><symbol id="australia" viewBox="0 0 512.001 512.001"><path d="M503.172 423.725H8.828A8.829 8.829 0 010 414.897V97.104a8.829 8.829 0 018.828-8.828h494.345a8.829 8.829 0 018.828 8.828v317.793a8.83 8.83 0 01-8.829 8.828z" fill="#41479b"/><path d="M247.172 88.277h-15.334l-81.77 53.574V88.277H105.93v53.574L24.16 88.277H8.828A8.828 8.828 0 000 97.104v7.002l70.155 45.963H0v44.138h70.155L0 240.171v7.002a8.829 8.829 0 008.828 8.828h15.334l81.77-53.574v53.574h44.138v-53.574l81.769 53.574h15.334a8.829 8.829 0 008.828-8.828v-7.002l-70.155-45.963H256V150.07h-70.155L256 104.107v-7.002a8.828 8.828 0 00-8.828-8.828z" fill="#f5f5f5"/><g fill="#ff4b55"><path d="M256 158.898H141.241V88.277h-26.482v70.621H0v26.482h114.759v70.621h26.482V185.38H256z"/><path d="M97.103 150.07L4.207 89.769C1.735 91.333 0 93.962 0 97.104v.458l80.889 52.508h16.214zM166.283 150.07l88.374-57.366c-1.536-2.599-4.246-4.427-7.485-4.427h-1.909l-95.194 61.793h16.214zM89.474 194.208L1.269 251.464c1.521 2.662 4.273 4.537 7.559 4.537h1.665l95.196-61.793H89.474zM255.86 247.866l-82.666-53.658H156.98l93.874 60.935c2.812-1.305 4.741-4.04 5.006-7.277z"/></g><g fill="#f5f5f5"><path d="M130.671 304.131l6.663 21.997 21.353-8.505c1.822-.726 3.478 1.352 2.366 2.966l-13.044 18.924 19.962 11.391c1.703.972 1.112 3.562-.844 3.699l-22.929 1.601 3.541 22.71c.302 1.938-2.092 3.091-3.418 1.646l-15.548-16.928-15.548 16.928c-1.326 1.444-3.72.291-3.418-1.646l3.541-22.71-22.929-1.601c-1.956-.137-2.547-2.727-.844-3.699l19.962-11.391-13.044-18.924c-1.112-1.614.544-3.692 2.366-2.966l21.353 8.505 6.663-21.997c.571-1.877 3.228-1.877 3.796 0zM393.279 147.73l3.255 10.745 10.43-4.154c.889-.354 1.699.66 1.155 1.449l-6.371 9.245 9.751 5.565c.832.474.543 1.74-.413 1.806l-11.2.782 1.729 11.093c.148.947-1.022 1.51-1.67.804l-7.595-8.269-7.595 8.269c-.648.705-1.817.142-1.67-.804l1.729-11.093-11.2-.782c-.956-.066-1.245-1.332-.413-1.806l9.751-5.565-6.371-9.245c-.544-.789.266-1.803 1.155-1.449l10.43 4.154 3.255-10.745c.282-.917 1.581-.917 1.858 0zM320.702 230.206l3.255 10.745 10.43-4.154c.889-.354 1.699.66 1.155 1.449l-6.371 9.245 9.751 5.565c.832.474.543 1.74-.413 1.806l-11.2.782 1.729 11.093c.148.947-1.022 1.51-1.67.804l-7.595-8.269-7.595 8.269c-.648.705-1.817.142-1.67-.804l1.729-11.093-11.2-.782c-.956-.066-1.245-1.332-.413-1.806l9.751-5.565-6.371-9.245c-.544-.789.266-1.803 1.155-1.449l10.43 4.154 3.255-10.745c.282-.917 1.58-.917 1.858 0zM461.943 194.895l3.255 10.745 10.43-4.154c.889-.354 1.699.66 1.155 1.449l-6.371 9.245 9.751 5.565c.832.474.543 1.74-.413 1.806l-11.2.782 1.729 11.093c.148.947-1.022 1.51-1.669.804l-7.595-8.269-7.595 8.269c-.648.705-1.817.142-1.67-.804l1.729-11.093-11.2-.782c-.956-.066-1.245-1.332-.413-1.806l9.751-5.565-6.371-9.245c-.544-.789.266-1.803 1.155-1.449l10.43 4.154 3.255-10.745c.281-.917 1.579-.917 1.857 0zM393.279 336.137l3.255 10.745 10.43-4.155c.889-.354 1.699.66 1.155 1.449l-6.371 9.245 9.751 5.565c.832.474.543 1.74-.413 1.806l-11.2.782 1.729 11.093c.148.947-1.022 1.51-1.67.804l-7.595-8.269-7.595 8.269c-.648.705-1.817.142-1.67-.804l1.729-11.093-11.2-.782c-.956-.066-1.245-1.332-.413-1.806l9.751-5.565-6.371-9.245c-.544-.789.266-1.803 1.155-1.449l10.43 4.155 3.255-10.745c.282-.917 1.581-.917 1.858 0zM418.461 249.514l-2.613 7.836-8.259.064c-1.069.009-1.513 1.373-.652 2.008l6.644 4.907-2.492 7.875c-.322 1.02.839 1.863 1.708 1.241l6.72-4.803 6.72 4.803c.87.622 2.03-.222 1.708-1.241l-2.492-7.875 6.644-4.907c.861-.636.417-1.999-.652-2.008l-8.259-.064-2.613-7.836c-.339-1.015-1.774-1.015-2.112 0z"/></g></symbol><symbol id="austria" viewBox="0 0 512.001 512.001"><g fill="#ff4b55"><path d="M512 200.093H0V97.104a8.829 8.829 0 018.828-8.828h494.345a8.829 8.829 0 018.828 8.828L512 200.093zM503.172 423.725H8.828A8.829 8.829 0 010 414.897V311.909h512v102.988a8.828 8.828 0 01-8.828 8.828z"/></g><path fill="#f5f5f5" d="M0 200.091h512v111.81H0z"/></symbol><symbol id="c4630c6ea1323329b6a5f2854b46cf87" viewBox="0 0 512 512"><path d="M170.667 423.721H8.828A8.829 8.829 0 010 414.893V97.1a8.829 8.829 0 018.828-8.828h161.839v335.449z" fill="#73af00"/><path fill="#f5f5f5" d="M170.67 88.277h170.67v335.45H170.67z"/><path d="M503.172 423.721H341.333V88.273h161.839A8.829 8.829 0 01512 97.101v317.793a8.827 8.827 0 01-8.828 8.827z" fill="#ff4b55"/></symbol><symbol id="chile" viewBox="0 0 512.001 512.001"><path d="M512 256H0V97.103a8.829 8.829 0 018.828-8.828h494.345a8.829 8.829 0 018.828 8.828L512 256z" fill="#f5f5f5"/><path d="M17.655 256v-8.828H0v167.725a8.829 8.829 0 008.828 8.828h494.345a8.829 8.829 0 008.828-8.828V256H17.655z" fill="#ff4b55"/><path d="M158.897 256H8.828A8.829 8.829 0 010 247.172V97.103a8.829 8.829 0 018.828-8.828h150.069a8.829 8.829 0 018.828 8.828v150.069a8.83 8.83 0 01-8.828 8.828z" fill="#41479b"/><path d="M87.262 134.487l8.416 25.234 26.6.206c3.444.026 4.872 4.422 2.101 6.467l-21.398 15.801 8.023 25.362c1.038 3.284-2.7 5.999-5.502 3.997l-21.64-15.467-21.641 15.468c-2.802 2.003-6.54-.714-5.502-3.997l8.023-25.362-21.398-15.801c-2.771-2.046-1.343-6.441 2.101-6.467l26.6-.206 8.416-25.234c1.09-3.268 5.712-3.268 6.801-.001z" fill="#f5f5f5"/></symbol><symbol id="dominica" viewBox="0 0 512.001 512.001"><path d="M503.172 423.721H8.828A8.829 8.829 0 010 414.893V97.101a8.829 8.829 0 018.828-8.828h494.345a8.829 8.829 0 018.828 8.828v317.792a8.829 8.829 0 01-8.829 8.828z" fill="#73af00"/><path fill="#ffe15a" d="M0 220.687h512v23.54H0z"/><path fill="#464655" d="M0 244.227h512v23.54H0z"/><path fill="#f5f5f5" d="M0 267.767h512v23.54H0z"/><path fill="#ffe15a" d="M220.69 88.277h23.54v335.45h-23.54z"/><path fill="#464655" d="M244.23 88.277h23.54v335.45h-23.54z"/><path fill="#f5f5f5" d="M267.77 88.277h23.54v335.45h-23.54z"/><circle cx="256" cy="255.997" r="88.28" fill="#ff4b55"/><path d="M248.421 271.182s-1.031 7.217 5.98 17.938h13.608l-3.093-12.989-16.495-4.949z" fill="#73af00"/><path d="M247.459 222.868s-22.266 36.425 10.446 58.142l3.436-20.618 2.199-26.666-3.436-11.409-12.645.551z" fill="#a561cd"/><path d="M247.459 222.867s-2.545 4.237-4.653 10.612c2.866 2.996 10.701 6.708 20.335 5.08l.399-4.834-3.437-11.409-12.644.551z" fill="#73af00"/><path d="M243.197 217.645s.274-7.285 7.423-7.285c8.935 0 16.22 2.061 27.765 25.978 0 0-10.269 10.08-16.769-3.849-1.924-4.124-2.612-9.071-2.612-9.071s-7.972 2.749-13.47-.413l-2.337-5.36z" fill="#a561cd"/><path d="M246.771 221.081l-1.65-4.398s-9.209-1.512-5.361 9.622c0 0 .275-2.199 2.612-1.924 2.338.274 4.811-1.513 4.399-3.3z" fill="#ffe15a"/><g fill="#73af00"><path d="M262.165 262.866s-9.689 7.593-4.26 25.428c2.887 9.484 14.432 19.896 14.432 19.896s8.556-22.37 5.773-31.029c-1.638-5.097-15.945-14.295-15.945-14.295z"/><path d="M280.584 291.594s-25.016-23.848-26.666-42.61c-1.65-18.762 9.169-15.784 11.134-14.57 4.673 2.886 16.494 14.982 15.532 57.18z"/></g><path d="M277.48 297.057h-41.418a1.557 1.557 0 01-1.558-1.558v-3.07c0-.861.697-1.558 1.558-1.558h41.418c.861 0 1.558.697 1.558 1.558v3.07a1.56 1.56 0 01-1.558 1.558z" fill="#b34900"/><path d="M267.389 291.181c-1.442.599-4.33 1.341-3.608 3.917.553 1.974 4.33 1.752 3.608 4.021-.488 1.533-8.159 1.674-11.134 1.237-1.822-.268-5.773-1.341-5.223-5.876.55-4.536 2.199-5.234 4.262-6.048 2.045-.808 10.99-.629 12.302.481.669.567.885 1.815-.207 2.268z" fill="#ffe15a"/><g fill="#73af00"><path d="M256.812 177.134l2.009 6.025 6.35.05c.822.007 1.163 1.056.502 1.544l-5.109 3.773 1.916 6.055c.248.783-.644 1.432-1.313.954L256 191.842l-5.166 3.693c-.669.478-1.561-.17-1.313-.954l1.916-6.055-5.109-3.773c-.661-.489-.32-1.538.502-1.544l6.35-.05 2.009-6.025c.259-.78 1.362-.78 1.623 0zM256.812 317.987l2.009 6.025 6.35.05c.822.007 1.163 1.056.502 1.544l-5.109 3.773 1.916 6.055c.248.783-.644 1.432-1.313.954L256 332.695l-5.166 3.693c-.669.478-1.561-.17-1.313-.954l1.916-6.055-5.109-3.773c-.661-.489-.32-1.538.502-1.544l6.35-.05 2.009-6.025c.259-.78 1.362-.78 1.623 0z"/><path d="M256.812 177.134l2.009 6.025 6.35.05c.822.007 1.163 1.056.502 1.544l-5.109 3.773 1.916 6.055c.248.783-.644 1.432-1.313.954L256 191.842l-5.166 3.693c-.669.478-1.561-.17-1.313-.954l1.916-6.055-5.109-3.773c-.661-.489-.32-1.538.502-1.544l6.35-.05 2.009-6.025c.259-.78 1.362-.78 1.623 0zM256.812 317.987l2.009 6.025 6.35.05c.822.007 1.163 1.056.502 1.544l-5.109 3.773 1.916 6.055c.248.783-.644 1.432-1.313.954L256 332.695l-5.166 3.693c-.669.478-1.561-.17-1.313-.954l1.916-6.055-5.109-3.773c-.661-.489-.32-1.538.502-1.544l6.35-.05 2.009-6.025c.259-.78 1.362-.78 1.623 0zM207.734 191.589l1.76 6.102-5.204 3.64c-.674.471-.36 1.529.462 1.556l6.347.212 1.855 6.074c.241.787 1.343.814 1.623.042l2.163-5.971 6.35.114c.822.014 1.19-1.025.541-1.53l-5.011-3.902 2.069-6.006c.268-.777-.608-1.449-1.289-.988l-5.259 3.56-5.07-3.823c-.657-.496-1.566.13-1.337.92zM287.582 307.621l1.76 6.102-5.204 3.64c-.674.471-.36 1.529.462 1.556l6.347.212 1.855 6.074c.241.787 1.343.814 1.623.042l2.163-5.971 6.35.114c.822.014 1.19-1.025.541-1.53l-5.011-3.902 2.07-6.004c.268-.777-.608-1.449-1.289-.988l-5.259 3.56-5.07-3.823c-.656-.497-1.565.129-1.338.918zM177.885 232.025l5.07 3.823-1.976 6.036c-.256.781.63 1.439 1.304.968l5.204-3.641 5.13 3.744c.664.484 1.564-.154 1.323-.941l-1.855-6.073 5.146-3.721c.666-.482.335-1.535-.487-1.549l-6.35-.113-1.949-6.045c-.253-.782-1.355-.793-1.623-.017l-2.069 6.004-6.35-.014c-.823-.003-1.174 1.043-.518 1.539zM311.401 276.887l5.07 3.823-1.976 6.036c-.256.781.63 1.439 1.304.968l5.204-3.641 5.13 3.744c.664.484 1.564-.155 1.323-.941l-1.855-6.073 5.146-3.721c.666-.482.335-1.535-.487-1.549l-6.35-.113-1.949-6.045c-.253-.782-1.355-.793-1.623-.017l-2.069 6.004-6.35-.014c-.822-.002-1.174 1.044-.518 1.539zM300.912 191.589l-1.76 6.102 5.204 3.64c.674.471.36 1.529-.462 1.556l-6.347.212-1.855 6.074c-.241.787-1.343.814-1.623.042l-2.163-5.971-6.35.114c-.822.014-1.19-1.025-.541-1.53l5.011-3.902-2.07-6.004c-.268-.777.608-1.449 1.289-.988l5.259 3.56 5.07-3.823c.657-.498 1.566.128 1.338.918zM221.063 307.621l-1.76 6.102 5.204 3.64c.674.471.36 1.529-.462 1.556l-6.347.212-1.855 6.074c-.241.787-1.343.814-1.623.042l-2.163-5.971-6.35.114c-.822.014-1.19-1.025-.541-1.53l5.011-3.902-2.07-6.004c-.268-.777.608-1.449 1.289-.988l5.259 3.56 5.07-3.823c.657-.497 1.566.129 1.338.918zM330.761 232.025l-5.07 3.823 1.976 6.036c.256.781-.63 1.439-1.304.968l-5.204-3.641-5.13 3.744c-.664.484-1.564-.154-1.323-.941l1.855-6.073-5.146-3.721c-.666-.482-.335-1.535.487-1.549l6.35-.113 1.949-6.045c.253-.782 1.355-.793 1.623-.017l2.069 6.004 6.35-.014c.823-.003 1.175 1.043.518 1.539zM197.244 276.887l-5.07 3.823 1.976 6.036c.256.781-.63 1.439-1.304.968l-5.204-3.641-5.13 3.744c-.664.484-1.564-.155-1.323-.941l1.855-6.073-5.146-3.721c-.666-.482-.335-1.535.487-1.549l6.35-.113 1.949-6.045c.253-.782 1.355-.793 1.623-.017l2.069 6.004 6.35-.014c.824-.002 1.175 1.044.518 1.539z"/></g></symbol><symbol id="dominicana" viewBox="0 0 512.001 512.001"><path d="M503.172 423.725H8.828A8.829 8.829 0 010 414.897V97.104a8.829 8.829 0 018.828-8.828h494.345a8.829 8.829 0 018.828 8.828v317.793a8.83 8.83 0 01-8.829 8.828z" fill="#f5f5f5"/><g fill="#41479b"><path d="M211.862 220.691H8.828A8.829 8.829 0 010 211.863V97.104a8.829 8.829 0 018.828-8.828h203.034a8.829 8.829 0 018.828 8.828v114.759a8.829 8.829 0 01-8.828 8.828zM503.172 423.725H300.138a8.829 8.829 0 01-8.828-8.828V300.139a8.829 8.829 0 018.828-8.828h203.034a8.829 8.829 0 018.828 8.828v114.759a8.828 8.828 0 01-8.828 8.827z"/></g><g fill="#ff4b55"><path d="M503.172 220.691H300.138a8.829 8.829 0 01-8.828-8.828V97.104a8.829 8.829 0 018.828-8.828h203.034A8.829 8.829 0 01512 97.104v114.759a8.829 8.829 0 01-8.828 8.828zM211.862 423.725H8.828A8.829 8.829 0 010 414.897V300.139a8.829 8.829 0 018.828-8.828h203.034a8.829 8.829 0 018.828 8.828v114.759a8.828 8.828 0 01-8.828 8.827z"/></g><g fill="#64b496"><path d="M250.932 281.172s5.274 1.931 4.586 8.552l2.132-.04s-1.345-7.651-2.457-8.568-4.261.056-4.261.056z"/><path d="M256.218 280.15c-2.237 0-6.147-.003-10.259-1.113.917-.954 2.184-2.876 2.184-6.227 0-5.248-3.616-1.9-3.616-1.9s-2.378 2.001-.94 7.35a20.733 20.733 0 01-4.119-2.109c.825-1.036 2.471-3.45 3.427-7.278 0 0-6.026-1.191-7.674 3.347a20.724 20.724 0 01-2.595-4.317c1.549.019 3.71-1.003 3.71-6.901 0 0-3.935.007-4.986 3.42a33.552 33.552 0 01-.961-4.572c1.571.456 5.633.783 5.633-8.032 0 0-4.877.009-6.006 4.329a52.456 52.456 0 01-.075-3.425c2.368-1.238 5.636-3.965 5.297-9.56 0 0-2.249.51-4.311 2.239.406-2.121.238-5.226-3.015-7.817 0 0-2.989 5.29 1.377 9.585a8.851 8.851 0 00-.984 1.817c-.981-1.494-2.554-2.883-5.088-3.727 0 0-1.166 7.085 5.449 10.049.157 4.138.804 7.794 1.916 10.973-1.895-1.669-3.428-3.967-3.428-3.967 0-7.872-6.453-8.071-6.453-8.071-1.205 8.985 5.439 9.348 5.439 9.348l3.638 3.97c-7.872-1.312-7.872 5.248-7.872 5.248 5.248 1.312 7.872-1.312 7.872-1.312l2.838 1.459c-5.034.147-6.774 5.101-6.774 5.101 6.327 1.055 10.953-.433 12.526-1.057 6.372 4.455 14.226 4.461 17.852 4.461v-1.311h-.002z"/><path d="M255.772 280.15c2.237 0 6.147-.003 10.259-1.113-.917-.954-2.184-2.876-2.184-6.227 0-5.248 3.616-1.9 3.616-1.9s2.378 2.001.94 7.35a20.733 20.733 0 004.119-2.109c-.825-1.036-2.471-3.45-3.427-7.278 0 0 6.026-1.191 7.674 3.347a20.724 20.724 0 002.595-4.317c-1.549.019-3.71-1.003-3.71-6.901 0 0 3.935.007 4.988 3.42.414-1.427.729-2.956.961-4.572-1.571.456-5.633.783-5.633-8.032 0 0 4.877.009 6.006 4.329.062-1.105.086-2.247.075-3.425-2.368-1.238-5.636-3.965-5.297-9.56 0 0 2.249.51 4.311 2.239-.406-2.121-.238-5.226 3.015-7.817 0 0 2.989 5.29-1.377 9.585.38.534.711 1.142.984 1.817.981-1.494 2.554-2.883 5.088-3.727 0 0 1.166 7.085-5.449 10.049-.157 4.138-.804 7.794-1.916 10.973 1.895-1.669 3.428-3.967 3.428-3.967 0-7.872 6.453-8.071 6.453-8.071 1.205 8.985-5.439 9.348-5.439 9.348l-3.638 3.97c7.872-1.312 7.872 5.248 7.872 5.248-5.248 1.312-7.872-1.312-7.872-1.312l-2.838 1.459c5.034.147 6.774 5.101 6.774 5.101-6.327 1.055-10.953-.433-12.526-1.057-6.372 4.455-14.226 4.461-17.852 4.461v-1.311z"/></g><path d="M233.863 222.956a44.99 44.99 0 00-11.958 11.167l4.224 3.115a39.747 39.747 0 0110.551-9.856l-2.817-4.426z" fill="#41479b"/><path d="M256.014 257.067h18.367v10.496a5.247 5.247 0 01-5.248 5.248h-7.872c-2.156 0-4.052 1.054-5.248 2.66l.001-18.404z" fill="#ff6b71"/><path fill="#5f64b9" d="M259.95 245.259v-14.432h19.68l-5.248 5.248v14.432H259.95z"/><path fill="#f5f5f5" d="M267.82 250.501h6.56v6.56h-6.56z"/><path d="M256.014 257.067h-18.367v10.496a5.247 5.247 0 005.248 5.248h7.872c2.156 0 4.052 1.054 5.248 2.66l-.001-18.404z" fill="#ff6b71"/><path d="M252.735 273.127a6.586 6.586 0 013.25 2.307h.061a6.59 6.59 0 013.25-2.307v-10.813h-6.56l-.001 10.813z" fill="#f5f5f5"/><path fill="#5f64b9" d="M252.079 245.259v-14.432h-19.68l5.248 5.248v14.432h14.432z"/><path fill="#f5f5f5" d="M237.65 250.501h6.56v6.56h-6.56z"/><path fill="#41479b" d="M244.207 237.387v3.936l3.936 2.624v-2.624z"/><path fill="#f5f5f5" d="M248.143 241.323v3.936l5.248 2.624v-1.312z"/><path fill="#41479b" d="M267.822 237.387v3.936l-3.936 2.624v-2.624z"/><path fill="#f5f5f5" d="M263.886 241.323v3.936l-5.248 2.624v-1.312z"/><path d="M263.932 266.25h-15.829c-3.598 0-6.515-2.937-6.515-6.56v-20.291l14.525 9.795 14.333-9.795v20.291c0 3.624-2.916 6.56-6.514 6.56z" fill="#ff4b55"/><g fill="#41479b"><path d="M246.831 242.635l-5.248-3.936v14.432l5.248 2.624zM265.198 242.635l5.248-3.936v14.432l-5.248 2.624zM248.14 255.761h15.744v6.56H248.14z"/></g><path fill="#ff4b55" d="M248.143 243.947l7.871 3.936 7.872-3.936v11.808h-15.743z"/><g fill="#f5f5f5"><path d="M261.919 245.187v13.192a1.97 1.97 0 01-1.967 1.967h-7.872a1.97 1.97 0 01-1.967-1.967v-13.138l-3.936-2.636v15.774a5.91 5.91 0 005.903 5.903h7.872a5.91 5.91 0 005.903-5.903v-15.863l-3.936 2.671z"/><path d="M263.293 254.351c-2.21.199-4.697.422-7.278 1.32-2.58-.898-5.068-1.121-7.278-1.32-3.698-.332-5.892-.655-7.148-2.886v3.787c1.929 1.254 4.372 1.484 6.913 1.713 2.281.205 4.639.416 7.049 1.329l.465.175.465-.175c2.409-.913 4.767-1.123 7.049-1.329 2.543-.228 4.99-.455 6.919-1.711v-3.798c-1.257 2.24-3.453 2.563-7.156 2.895z"/></g><path fill="#ffe15a" d="M258.638 241.979h-1.967v-1.968h-1.312v1.968h-1.968v1.312h1.968v5.904h1.312v-5.904h1.967z"/><path fill="#464655" d="M243.081 236.746l.72-.72 11.529 11.53-.72.719z"/><path fill="#ffe15a" d="M241.278 234.221l1.441 2.882 1.441-1.441z"/><path fill="#464655" d="M245.626 234.758l.824-.6 9.6 13.18-.823.6z"/><path fill="#ffe15a" d="M244.227 231.984l.977 3.071 1.647-1.2z"/><path fill="#464655" d="M240.928 239.268l.582-.835 13.368 9.334-.583.835z"/><path fill="#ffe15a" d="M238.71 237.109l1.923 2.585 1.167-1.67z"/><path fill="#464655" d="M257.416 248.266l-.72-.72 11.529-11.528.72.72z"/><path fill="#ffe15a" d="M270.745 234.221l-1.441 2.882-1.441-1.441z"/><path fill="#464655" d="M256.808 247.926l-.824-.6 9.6-13.18.824.6z"/><path fill="#ffe15a" d="M267.796 231.984l-.977 3.071-1.646-1.2z"/><path fill="#464655" d="M257.745 248.616l-.583-.835 13.368-9.334.583.835z"/><path fill="#ffe15a" d="M273.313 237.109l-1.923 2.585-1.167-1.67z"/><path d="M255.349 272.437s-5.074-5.449-4.089-10.451c.791-4.023 3.192-8.458 5.071-9.537 0 0 2.657-.164 1.991 2.144-.666 2.308-1.478 2.903-1.24 5.178.409 3.938 1.044 8.604-1.733 12.666z" fill="#f5f5f5"/><path d="M256.888 252.478c-.317-.042-.558-.028-.558-.028-1.879 1.079-4.28 5.514-5.071 9.537-.448 2.275.361 4.638 1.373 6.543-.641-8.248 1.767-11.174 4.256-16.052z" fill="#41479b"/><path d="M257.08 259.773c-.237-2.275.574-2.87 1.24-5.178.467-1.615-.693-2.019-1.432-2.116 0 0-1.694 3.892-1.803 6.503-.096 2.297.492 11.644.264 13.458 2.777-4.065 2.142-8.731 1.731-12.667z" fill="#ff4b55"/><path d="M253.639 254.424a4.608 4.608 0 013.999-1.242l-2.07-6.664a4.616 4.616 0 00-3.999 1.242c.689 2.222 1.38 4.443 2.07 6.664z" fill="#f5f0f0"/><path d="M257.638 253.182a4.608 4.608 0 013.999-1.242l-2.07-6.664a4.616 4.616 0 00-3.999 1.242l2.07 6.664z" fill="#f5f5f5"/><path d="M250.022 224.355a39.786 39.786 0 00-20.37 5.07l-2.567-4.577a45.017 45.017 0 0123.058-5.74c-.041 1.749-.082 3.498-.121 5.247z" fill="#5f64b9"/><path d="M278.167 222.956a44.99 44.99 0 0111.958 11.167l-4.224 3.115a39.747 39.747 0 00-10.551-9.856l2.817-4.426z" fill="#41479b"/><path d="M262.008 224.355a39.786 39.786 0 0120.37 5.07l2.567-4.577a45.017 45.017 0 00-23.058-5.74c.041 1.749.082 3.498.121 5.247z" fill="#5f64b9"/><path d="M266.51 222.956a39.767 39.767 0 00-20.991 0l-1.385-5.062a45.037 45.037 0 0123.761 0l-1.385 5.062z" fill="#41479b"/><g fill="#ff6b71"><path d="M238.432 281.758a95.255 95.255 0 00-16.529 5.985l2.237 4.747a89.835 89.835 0 0115.96-5.742l-1.668-4.99zM273.598 281.758a95.255 95.255 0 0116.529 5.985l-2.237 4.747a89.835 89.835 0 00-15.96-5.742l1.668-4.99z"/></g><g fill="#ff4b55"><path d="M277.119 285.816a89.912 89.912 0 00-41.983 0l-1.225-5.102a95.168 95.168 0 0144.433 0c-.407 1.7-.816 3.402-1.225 5.102z"/><path d="M256.014 287.242l-3.618.905a1.312 1.312 0 01-1.63-1.272v-1.887c0-.853.802-1.48 1.63-1.272l3.618.905v2.621zM256.014 284.618l3.618-.905a1.312 1.312 0 011.63 1.272v1.887c0 .853-.802 1.48-1.63 1.272l-3.618-.905v-2.621z"/></g><path d="M256.296 287.242h-.563a1.03 1.03 0 01-1.031-1.031v-.563a1.03 1.03 0 011.031-1.031h.563a1.03 1.03 0 011.031 1.031v.563a1.032 1.032 0 01-1.031 1.031z" fill="#ff6b71"/></symbol><symbol id="england" viewBox="0 0 512.001 512.001"><path d="M503.172 423.725H8.828A8.829 8.829 0 010 414.897V97.104a8.829 8.829 0 018.828-8.828h494.345a8.829 8.829 0 018.828 8.828v317.793a8.83 8.83 0 01-8.829 8.828z" fill="#f5f5f5"/><path fill="#ff4b55" d="M512 229.518H282.483V88.277h-52.966v141.241H0v52.966h229.517v141.241h52.966V282.484H512z"/></symbol><symbol id="france" viewBox="0 0 512 512"><path d="M170.667 423.721H8.828A8.829 8.829 0 010 414.893V97.1a8.829 8.829 0 018.828-8.828h161.839v335.449z" fill="#41479b"/><path fill="#f5f5f5" d="M170.67 88.277h170.67v335.45H170.67z"/><path d="M503.172 423.721H341.333V88.273h161.839A8.829 8.829 0 01512 97.101v317.793a8.827 8.827 0 01-8.828 8.827z" fill="#ff4b55"/></symbol><symbol id="georgia" viewBox="0 0 512.001 512.001"><path d="M503.172 423.725H8.828A8.829 8.829 0 010 414.897V97.104a8.829 8.829 0 018.828-8.828h494.345a8.829 8.829 0 018.828 8.828v317.793a8.83 8.83 0 01-8.829 8.828z" fill="#f5f5f5"/><g fill="#ff4b55"><path d="M512 229.518H282.483V88.277h-52.966v141.241H0v52.966h229.517v141.241h52.966V282.484H512z"/><path d="M150.069 146.834c-8.744.879-17.31 1.76-25.888 2.642.882-8.579 1.762-17.145 2.643-25.888a93.961 93.961 0 01-24.129 0c.879 8.743 1.76 17.31 2.643 25.888-8.579-.881-17.146-1.762-25.888-2.642a93.954 93.954 0 010 24.128c8.744-.879 17.31-1.76 25.888-2.642-.882 8.579-1.763 17.145-2.643 25.888a93.961 93.961 0 0124.129 0c-.879-8.743-1.761-17.31-2.643-25.888 8.579.881 17.145 1.762 25.888 2.642a94.044 94.044 0 010-24.128zM432.552 146.834c-8.744.879-17.31 1.76-25.888 2.642.882-8.579 1.762-17.145 2.643-25.888a93.961 93.961 0 01-24.129 0c.879 8.743 1.76 17.31 2.643 25.888-8.579-.881-17.146-1.762-25.888-2.642a93.954 93.954 0 010 24.128c8.744-.879 17.31-1.76 25.888-2.642-.882 8.579-1.763 17.145-2.643 25.888a93.961 93.961 0 0124.129 0c-.879-8.743-1.761-17.31-2.643-25.888 8.579.881 17.145 1.762 25.888 2.642a94.044 94.044 0 010-24.128zM150.069 341.04c-8.744.879-17.31 1.76-25.888 2.642.882-8.579 1.762-17.145 2.643-25.888a93.961 93.961 0 01-24.129 0c.879 8.743 1.76 17.31 2.643 25.888-8.579-.881-17.146-1.762-25.888-2.642a93.954 93.954 0 010 24.128c8.744-.879 17.31-1.76 25.888-2.642-.882 8.579-1.763 17.145-2.643 25.888a93.961 93.961 0 0124.129 0c-.879-8.743-1.761-17.31-2.643-25.888 8.579.881 17.145 1.762 25.888 2.642a94.044 94.044 0 010-24.128zM432.552 341.04c-8.744.879-17.31 1.76-25.888 2.642.882-8.579 1.762-17.145 2.643-25.888a93.961 93.961 0 01-24.129 0c.879 8.743 1.76 17.31 2.643 25.888-8.579-.881-17.146-1.762-25.888-2.642a93.954 93.954 0 010 24.128c8.744-.879 17.31-1.76 25.888-2.642-.882 8.579-1.763 17.145-2.643 25.888a93.961 93.961 0 0124.129 0c-.879-8.743-1.761-17.31-2.643-25.888 8.579.881 17.145 1.762 25.888 2.642a94.044 94.044 0 010-24.128z"/></g></symbol><symbol id="germany" viewBox="0 0 512.001 512.001"><path d="M512 200.093H0V97.104a8.829 8.829 0 018.828-8.828h494.345a8.829 8.829 0 018.828 8.828L512 200.093z" fill="#464655"/><path d="M503.172 423.725H8.828A8.829 8.829 0 010 414.897V311.909h512v102.988a8.828 8.828 0 01-8.828 8.828z" fill="#ffe15a"/><path fill="#ff4b55" d="M0 200.091h512v111.81H0z"/></symbol><symbol id="greatbritain" viewBox="0 0 512.002 512.002"><path d="M503.172 423.725H8.828A8.829 8.829 0 010 414.897V97.104a8.829 8.829 0 018.828-8.828h494.345a8.829 8.829 0 018.828 8.828v317.793a8.83 8.83 0 01-8.829 8.828z" fill="#41479b"/><path d="M512 97.104a8.829 8.829 0 00-8.828-8.828h-39.495l-163.54 107.147V88.276h-88.276v107.147L48.322 88.276H8.828A8.829 8.829 0 000 97.104v22.831l140.309 91.927H0v88.276h140.309L0 392.066v22.831a8.829 8.829 0 008.828 8.828h39.495l163.54-107.147v107.147h88.276V316.578l163.54 107.147h39.495a8.829 8.829 0 008.828-8.828v-22.831l-140.309-91.927H512v-88.276H371.691L512 119.935V97.104z" fill="#f5f5f5"/><g fill="#ff4b55"><path d="M512 229.518H282.483V88.276h-52.966v141.242H0v52.965h229.517v141.242h52.966V282.483H512z"/><path d="M178.948 300.138L.25 416.135c.625 4.263 4.14 7.59 8.577 7.59h12.159l190.39-123.586h-32.428v-.001zM346.388 300.138H313.96l190.113 123.404c4.431-.472 7.928-4.09 7.928-8.646v-7.258l-165.613-107.5zM0 106.849l161.779 105.014h32.428L5.143 89.137C2.123 90.54 0 93.555 0 97.104v9.745zM332.566 211.863L511.693 95.586c-.744-4.122-4.184-7.309-8.521-7.309h-12.647L300.138 211.863h32.428z"/></g></symbol><symbol id="greece" viewBox="0 0 512.001 512.001"><g fill="#f5f5f5"><path d="M0 125.551h512v37.27H0zM0 200.091h512v37.27H0zM0 274.641h512v37.27H0z"/></g><path fill="#41479b" d="M0 311.911h512v37.27H0z"/><path fill="#f5f5f5" d="M0 349.181h512v37.27H0z"/><g fill="#41479b"><path d="M8.828 423.725h494.345a8.829 8.829 0 008.828-8.828v-28.445H0v28.445a8.828 8.828 0 008.828 8.828zM512 125.549V97.104a8.829 8.829 0 00-8.828-8.828H8.828A8.83 8.83 0 000 97.104V274.637h512v-37.272H176.552v-37.272H512v-37.272H176.552v-37.272H512z"/></g><path fill="#f5f5f5" d="M176.552 162.821h-69.64V88.277H69.64v74.544H0v37.272h69.64v74.544h37.272v-74.544h69.64z"/></symbol><symbol id="guyana" viewBox="0 0 1000 600"><path d="M0 0h1000v600H0z" fill="#009e49"/><path d="M0 0l1000 300L0 600z" fill="#fff"/><path d="M0 26.1L912 300 0 573.9z" fill="#fcd116"/><path d="M0 0l500 300L0 600z"/><path d="M0 35l441.7 265L0 565z" fill="#ce1126"/></symbol><symbol id="ireland" viewBox="0 0 512 512"><path d="M170.667 423.721H8.828A8.829 8.829 0 010 414.893V97.1a8.829 8.829 0 018.828-8.828h161.839v335.449z" fill="#73af00"/><path fill="#f5f5f5" d="M170.67 88.277h170.67v335.45H170.67z"/><path d="M503.172 423.721H341.333V88.273h161.839A8.829 8.829 0 01512 97.101v317.793a8.827 8.827 0 01-8.828 8.827z" fill="#ff9b46"/></symbol><symbol id="israel" viewBox="0 0 512.001 512.001"><path d="M503.172 423.725H8.828A8.829 8.829 0 010 414.897V97.104a8.829 8.829 0 018.828-8.828h494.345a8.829 8.829 0 018.828 8.828v317.793a8.83 8.83 0 01-8.829 8.828z" fill="#41479b"/><path fill="#f5f5f5" d="M0 150.071h512v211.86H0z"/><path d="M301.869 256.001l22.933-39.721h-45.865L256 176.553l-22.936 39.727h-45.865l22.933 39.721-22.933 39.721h45.865L256 335.449l22.936-39.727h45.865l-22.932-39.721zm.433-26.73l-7.933 13.74-7.933-13.74h15.866zm-15.433 26.73l-15.433 26.73h-30.873l-15.432-26.73 15.433-26.73h30.873l15.432 26.73zM256 202.535l7.936 13.746h-15.872L256 202.535zm-46.302 26.736h15.865l-7.933 13.74-7.932-13.74zm0 53.46l7.933-13.74 7.933 13.74h-15.866zM256 309.467l-7.936-13.746h15.872L256 309.467zm38.369-40.476l7.933 13.74h-15.865l7.932-13.74z" fill="#41479b"/></symbol><symbol id="italy" viewBox="0 0 512 512"><path d="M170.667 423.721H8.828A8.829 8.829 0 010 414.893V97.1a8.829 8.829 0 018.828-8.828h161.839v335.449z" fill="#73af00"/><path fill="#f5f5f5" d="M170.67 88.277h170.67v335.45H170.67z"/><path d="M503.172 423.721H341.333V88.273h161.839A8.829 8.829 0 01512 97.101v317.793a8.827 8.827 0 01-8.828 8.827z" fill="#ff4b55"/></symbol><symbol id="japan" viewBox="0 0 512.001 512.001"><path d="M503.172 423.725H8.828A8.829 8.829 0 010 414.897V97.104a8.829 8.829 0 018.828-8.828h494.345a8.829 8.829 0 018.828 8.828v317.793a8.83 8.83 0 01-8.829 8.828z" fill="#f5f5f5"/><circle cx="256" cy="256.001" r="97.1" fill="#ff4b55"/></symbol><symbol id="lebanon" viewBox="0 0 512.001 512.001"><g fill="#ff4b55"><path d="M512 158.898H0V97.104a8.829 8.829 0 018.828-8.828h494.345a8.829 8.829 0 018.828 8.828L512 158.898zM503.172 423.725H8.828A8.829 8.829 0 010 414.897v-61.793h512v61.793a8.828 8.828 0 01-8.828 8.828z"/></g><path fill="#f5f5f5" d="M0 158.901h512v194.21H0z"/><path d="M274.862 315.38l81.581-16.317c5.888-1.177 8.516-8.107 4.89-12.894a8.136 8.136 0 00-5.233-3.127l-86.911-13.551a4.447 4.447 0 01-3.7-5.124c.391-2.414 2.838-3.953 5.262-3.633l60.259 7.929c4.898.644 7.902-5.208 4.523-8.812l-4.838-5.16a12.572 12.572 0 00-6.785-3.746l-50.339-9.749 42.921 3.092c3.29.237 5.196-3.652 2.993-6.108l-2.201-2.453a9.354 9.354 0 00-5.048-2.909l-42.613-8.905 30.284-.876c2.678-.077 4.04-3.253 2.25-5.246l-1.358-1.513a8.48 8.48 0 00-3.97-2.486l-27.01-7.755h21.226c2.1 0 3.512-2.152 2.677-4.078l-.716-1.652a7.656 7.656 0 00-4.559-4.204l-19.629-6.678 9.654-.031c2.869-.009 4.793-2.951 3.652-5.582a10.045 10.045 0 00-4.593-4.924L256 167.725l-21.534 11.165a10.049 10.049 0 00-4.593 4.924c-1.141 2.633.783 5.574 3.652 5.582l9.654.032-19.629 6.678a7.65 7.65 0 00-4.559 4.204l-.716 1.652c-.835 1.927.577 4.078 2.677 4.078h21.226l-27.01 7.755a8.48 8.48 0 00-3.97 2.486l-1.358 1.513c-1.789 1.994-.427 5.169 2.25 5.246l30.284.876-42.613 8.905a9.347 9.347 0 00-5.048 2.909l-2.201 2.453c-2.204 2.455-.298 6.345 2.993 6.108l42.921-3.092-50.339 9.749a12.572 12.572 0 00-6.785 3.746l-4.838 5.16c-3.379 3.604-.374 9.457 4.523 8.812l60.259-7.929c2.424-.319 4.872 1.219 5.262 3.633a4.446 4.446 0 01-3.7 5.124l-86.911 13.551a8.14 8.14 0 00-5.233 3.126c-3.626 4.786-.998 11.716 4.89 12.894l81.581 16.317v10.182a20.958 20.958 0 01-6.138 14.819l-12.721 12.723h75.449l-12.724-12.724a20.958 20.958 0 01-6.138-14.819V315.38h-.001z" fill="#73af00"/></symbol><symbol id="mexico" viewBox="0 0 512 512"><path d="M170.667 423.721H8.828A8.829 8.829 0 010 414.893V97.1a8.829 8.829 0 018.828-8.828h161.839v335.449z" fill="#73af00"/><path fill="#f5f5f5" d="M170.67 88.277h170.67v335.45H170.67z"/><path d="M503.172 423.721H341.333V88.273h161.839A8.829 8.829 0 01512 97.101v317.793a8.827 8.827 0 01-8.828 8.827z" fill="#ff4b55"/><path fill="#ffd250" d="M271.225 263.893L256 271.507v7.613h7.613z"/><g fill="#00c3a0"><path d="M256 298.151a3.805 3.805 0 01-3.807-3.807v-15.225c0-2.104 1.703-3.807 3.807-3.807s3.807 1.703 3.807 3.807v15.225a3.805 3.805 0 01-3.807 3.807z"/><path d="M256 282.926c-14.951 0-29.388-5.769-40.654-16.244a3.807 3.807 0 01-.198-5.378c1.442-1.535 3.848-1.617 5.378-.198 9.854 9.163 22.452 14.207 35.473 14.207 13.021 0 25.619-5.044 35.473-14.207a3.805 3.805 0 115.18 5.576c-11.264 10.476-25.701 16.244-40.652 16.244z"/></g><path d="M256 298.151a49.256 49.256 0 01-27.336-8.248l4.215-6.342c13.739 9.129 32.503 9.129 46.241 0l4.215 6.342A49.242 49.242 0 01256 298.151z" fill="#00aadc"/><path fill="#732d37" d="M249.973 246.764l-8.405 13.007-1.428 4.281 21.887-5.075z"/><path d="M232.704 268.236c-10.062 0-22.14-8.468-25.344-27.336l7.509-1.271c2.662 15.69 12.314 21.005 18.11 20.991 1.777-.049 3.631-.662 3.777-1.918.171-1.502.212-1.858-3.769-3.204-2.164-.733-4.617-1.561-6.338-3.531-6.963-7.951 2.464-16.366 6.993-20.41.799-.714 1.13-1.32 1.045-1.55-.249-.651-1.743-1.635-3.427-1.635-4.836 0-8.505-2.732-9.571-7.126-1.108-4.55.985-9.345 4.97-11.404l3.495 6.765c-.934.483-1.304 1.858-1.067 2.84.093.394.32 1.312 2.175 1.312 4.661 0 9.096 2.751 10.538 6.535.617 1.613 1.546 5.806-3.085 9.943-5 4.465-7.992 7.825-6.334 9.717.375.427 1.985.974 3.048 1.331 3.427 1.16 9.806 3.316 8.892 11.289-.573 5.014-5.048 8.493-11.129 8.658-.164 0-.328.004-.488.004z" fill="#aad264"/><path d="M263.613 225.83s7.613-15.225-7.613-22.838c0 0 53.289-7.613 45.676 60.902l-.003-.003c-4.996-3.997-12.414-11.302-15.063-17.126l-22.997-13.323v-7.612z" fill="#874150"/><path d="M256 241.055l38.063 22.838-15.225 7.613L256 248.669v-7.614z" fill="#732d37"/><path d="M240.775 218.217a7.614 7.614 0 017.613 7.613l-.008.008a14.92 14.92 0 00-2.795 17.224l1.72 3.441a14.924 14.924 0 002.795 3.878l21.127 21.127v-10.521a84.42 84.42 0 00-8.913-37.757 22.84 22.84 0 00-20.427-12.625h-1.111v7.614h-.001v-.002z" fill="#783c46"/><path d="M240.775 210.604l-7.613 7.613v7.613s9.056-4.591 12.108-6.054c2.133-1.022 1.745-3.439.521-4.604-.953-.906-5.016-4.568-5.016-4.568z" fill="#ffd250"/><path d="M256 313.376c-35.681 0-64.708-29.027-64.708-64.708h7.613c0 31.485 25.611 57.096 57.096 57.096s57.096-25.611 57.096-57.096h7.613c-.002 35.681-29.029 64.708-64.71 64.708z" fill="#aad264"/><g fill="#ffe15a"><circle cx="199.32" cy="271.258" r="5.166"/><circle cx="210.74" cy="289.497" r="5.166"/><circle cx="229.29" cy="303.288" r="5.166"/><circle cx="313.23" cy="271.258" r="5.166"/><circle cx="301.8" cy="289.497" r="5.166"/><circle cx="283.25" cy="303.288" r="5.166"/></g><path d="M259.807 301.957h-7.613a7.614 7.614 0 010-15.226h7.613a7.613 7.613 0 010 15.226z" fill="#ffb478"/><path d="M286.61 246.764c2.538 7.454 7.93 14.274 15.063 17.126l.003.003C309.289 195.38 256 202.992 256 202.992c38.063 0 30.61 43.772 30.61 43.772z" fill="#9b4b5a"/></symbol><symbol id="moldova" viewBox="0 0 512 512"><path d="M341.333 88.273h161.839A8.829 8.829 0 01512 97.101v317.793a8.829 8.829 0 01-8.828 8.828H341.333V88.273z" fill="#ff4b55"/><path fill="#ffe15a" d="M170.67 88.277h170.67v335.45H170.67z"/><path d="M8.828 88.273h161.839v335.448H8.828A8.829 8.829 0 010 414.893V97.1a8.828 8.828 0 018.828-8.827z" fill="#41479b"/><path fill="#ffcd5a" d="M291.673 312.915l-4.391 3.58-20.011-24.542 4.391-3.58z"/><path fill="#ffbe5a" d="M282.648 297.397l-8.783 7.155-8.803-10.805 8.784-7.155z"/><path fill="#ffcd5a" d="M242.795 288.374l4.391 3.58-20.01 24.543-4.392-3.58z"/><path fill="#ffbe5a" d="M240.592 286.593l8.784 7.155-8.803 10.806-8.783-7.156z"/><path fill="#ffe15a" d="M250.14 297.583l-14.163 28.327 19.828 14.163v-39.657z"/><path fill="#ffcd5a" d="M261.471 297.583l14.163 28.327-19.829 14.163v-39.657z"/><path d="M216.148 297.583v-73.65h8.498v56.653c0 8.499-8.498 16.997-8.498 16.997z" fill="#ffbe5a"/><path d="M210.482 311.747v-87.814h8.498v70.817c-.001 8.498-8.498 16.997-8.498 16.997z" fill="#ffcd5a"/><path d="M204.817 323.078v-99.144h8.498v82.148c0 8.497-8.498 16.996-8.498 16.996z" fill="#ffe15a"/><path d="M224.646 226.766v53.821c0 14.164 20.537 12.275 31.159 22.661 10.623-10.387 31.159-8.498 31.159-22.661v-53.821h-62.318z" fill="#ff4b55"/><path d="M224.646 257.926v22.662c0 14.164 20.537 12.275 31.159 22.661 10.623-10.387 31.159-8.498 31.159-22.662v-22.662l-62.318.001z" fill="#41479b"/><g fill="#ffe15a"><path d="M255.805 294.75l-8.498-5.665v-2.833l2.833-2.832v-16.997l-8.498-5.665 8.498-11.331h2.832l2.833 2.834 2.833-2.834h2.833l8.498 11.331-8.498 5.665v16.997l2.832 2.832v2.833z"/><path d="M244.474 229.599s-11.33 2.833-11.33 14.164 11.33 16.996 11.33 16.996l5.665-8.498c-16.996-5.666-5.665-22.662-5.665-22.662zM267.136 229.599s11.33 2.833 11.33 14.164-11.33 16.996-11.33 16.996l-5.665-8.498c16.995-5.666 5.665-22.662 5.665-22.662z"/><path d="M227.478 257.926l5.665 2.832 5.666-2.832-5.666-2.833zM272.801 257.926l5.665 2.832 5.666-2.832-5.666-2.833zM255.805 231.015l2.06 2.11 2.947-.036-.034 2.948 2.109 2.06-2.109 2.059.034 2.948-2.947-.035-2.06 2.11-2.059-2.11-2.949.035.036-2.948-2.109-2.059 2.109-2.06-.036-2.948 2.949.036zM236.568 270.297l2.042 2.272 2.84-1.126c1.471-.583 2.851 1.016 2.059 2.386l-1.529 2.645 1.949 2.354c1.009 1.218-.086 3.026-1.633 2.696l-2.988-.638-1.636 2.581c-.847 1.336-2.904.853-3.069-.721l-.318-3.039-2.959-.758c-1.533-.393-1.709-2.498-.264-3.14l2.792-1.24-.193-3.049c-.097-1.582 1.85-2.4 2.907-1.223zM274.297 276.755c.625-3.222 3.283-5.503 6.382-5.847-.636-.342-1.312-.625-2.057-.769a7.318 7.318 0 00-2.786 14.368c.746.145 1.479.136 2.195.056-2.745-1.477-4.358-4.586-3.734-7.808zM244.474 226.766l5.665-28.327-11.33-8.498 2.833-2.833h5.665s2.833-2.833 8.498-2.833c5.665 0 11.33 2.833 11.33 11.33s2.833 31.159 2.833 31.159h-25.494v.002z"/></g><path d="M224.646 215.435c-6.258 0-11.33 5.073-11.33 11.33h22.662c-.001-6.257-5.075-11.33-11.332-11.33z" fill="#ffaa5a"/><g fill="#ffbe5a"><path d="M221.813 226.766h-16.996v-18.855a6.64 6.64 0 016.639-6.639h3.718a6.64 6.64 0 016.639 6.639v18.855zM295.463 297.583v-73.65h-8.498v56.653c0 8.499 8.498 16.997 8.498 16.997z"/></g><path d="M301.128 311.747v-87.814h-8.498v70.817c0 8.498 8.498 16.997 8.498 16.997z" fill="#ffcd5a"/><path d="M306.794 323.078v-99.144h-8.498v82.148c-.001 8.497 8.498 16.996 8.498 16.996z" fill="#ffe15a"/><path d="M286.965 215.435c6.258 0 11.33 5.073 11.33 11.33h-22.662c.001-6.257 5.074-11.33 11.332-11.33z" fill="#ffaa5a"/><path d="M289.798 226.766h16.996v-18.855a6.64 6.64 0 00-6.639-6.639h-3.717a6.64 6.64 0 00-6.639 6.639l-.001 18.855z" fill="#ffbe5a"/><path fill="#ffaa5a" d="M318.97 256.821l3.63 2.21-39.669 65.142-3.629-2.21z"/><path fill="#ffe15a" d="M295.078 311.573l-7.075 8.85-6.92-5.532 7.074-8.85z"/><path fill="#ffcd5a" d="M317.717 256.084l6.05 3.681-8.498 13.961-6.05-3.681z"/><g fill="#73af00"><path d="M194.253 260.052l39.985 61.851-2.38 1.538-39.984-61.851z"/><path d="M219.413 289.383c-1.016 1.152-1.69 2.899-1.86 4.913-1.397-1.41-3.001-2.308-4.495-2.549-.394 1.461-.234 3.293.479 5.145-1.907-.672-3.775-.775-5.242-.321.413 2.088 2.114 4.354 4.721 5.909 2.606 1.556 5.409 1.976 7.442 1.348l.582-.376c1.407-1.597 2.174-4.324 1.826-7.339-.351-3.015-1.72-5.496-3.453-6.73z"/></g><circle cx="220.75" cy="303.647" r="2.833" fill="#ff4b55"/><path d="M208.648 272.731c-1.016 1.152-1.69 2.899-1.86 4.913-1.397-1.41-3.001-2.308-4.495-2.549-.394 1.461-.234 3.293.479 5.145-1.907-.672-3.775-.775-5.242-.321.413 2.088 2.114 4.354 4.721 5.909 2.606 1.556 5.409 1.976 7.442 1.348l.582-.376c1.407-1.597 2.174-4.324 1.826-7.339-.35-3.016-1.719-5.497-3.453-6.73z" fill="#73af00"/><circle cx="209.99" cy="286.997" r="2.833" fill="#ff4b55"/><path d="M197.884 256.079c-1.016 1.152-1.69 2.899-1.86 4.913-1.397-1.41-3.001-2.308-4.495-2.549-.394 1.461-.234 3.293.479 5.145-1.907-.672-3.775-.775-5.242-.321.413 2.088 2.114 4.354 4.721 5.909 2.606 1.556 5.409 1.976 7.442 1.348l.582-.376c1.407-1.597 2.174-4.324 1.826-7.339-.352-3.016-1.72-5.497-3.453-6.73z" fill="#73af00"/><circle cx="199.22" cy="270.347" r="2.833" fill="#ff4b55"/><g fill="#ffe15a"><path d="M226.293 306.052l7.075 8.851-6.921 5.533-7.075-8.85zM238.81 178.617h2.833v19.829h-2.833z"/><path d="M235.97 181.447h8.498v2.833h-8.498z"/></g><path fill="#ff875a" d="M238.809 189.941l8.498 6.374v-9.206h-5.665z"/><path d="M241.642 178.61v2.833h2.833v2.833h-2.833v2.833h5.665s2.833-2.833 8.498-2.833 11.33 2.833 11.33 11.33c0 8.498 2.833 31.159 2.833 31.159h5.665c0-6.258 5.073-11.33 11.33-11.33.984 0 1.922.164 2.833.401v-6.066a8.498 8.498 0 0116.996 0v67.023l3.658-6.009-1.209-.736 8.498-13.962 1.209.736 1.815 1.106 3.025 1.841-8.498 13.962-1.21-.736-7.288 11.974v38.113s-6.764-6.783-8.212-14.287c-1.035-1.33-2.227-3.026-3.276-4.952l-3.242 5.326 3.014 2.409-7.075 8.851-1.879-1.502-3.202 5.261-3.629-2.21 3.485-5.726-1.692-1.353 2.409-3.015-7.433-9.116-2.197 1.79-6.609-8.11c-1.759.707-3.498 1.484-5.171 2.372l13.547 27.095-19.829 14.164-19.829-14.164 13.547-27.095a46.6 46.6 0 00-3.055-1.492l-5.891 7.23-2.197-1.79-7.433 9.116 2.409 3.015-2.406 1.923 3.288 5.086-2.379 1.538-3.133-4.846-2.287 1.828-7.075-8.851 3.179-2.541-1.685-2.607-.119.002c-.926 0-1.833-.413-2.372-1.248a2.77 2.77 0 01-.409-1.135 9.436 9.436 0 01-1.635-.242c-1.053 1.941-2.253 3.65-3.294 4.989-1.447 7.505-8.212 14.287-8.212 14.287v-36.135c-.856-.269-1.719-.611-2.568-1.118-2.606-1.556-4.308-3.822-4.721-5.909a6.658 6.658 0 011.961-.276c1.03 0 2.15.199 3.282.597-.369-.96-.584-1.91-.655-2.81l-2.786-4.31-.119.002c-.926 0-1.833-.413-2.372-1.248a2.787 2.787 0 01-.41-1.135c-1.568-.094-3.286-.574-4.943-1.562-2.606-1.556-4.308-3.822-4.721-5.909a6.663 6.663 0 011.961-.276c1.03 0 2.15.198 3.282.597-.713-1.853-.873-3.684-.479-5.145 1.494.241 3.098 1.139 4.495 2.549.17-2.014.844-3.761 1.859-4.913 1.734 1.234 3.102 3.715 3.45 6.731.222 1.918-.046 3.681-.605 5.15.335.213.638.484.867.84.563.871.543 1.918.113 2.783l2.786 4.31c.108.06.214.132.322.199v-66.321a8.498 8.498 0 0116.996 0v6.066c.91-.236 1.848-.401 2.833-.401 6.258 0 11.33 5.073 11.33 11.33h8.498l5.665-28.327-2.833-2.124-5.665-4.249v6.374h-2.833v-14.164h-2.833v-2.833h2.833v-2.833h2.844m45.467 128.741l1.046-1.309.557.445 4.566-7.501c-.398-1.387-.653-2.81-.653-4.237v-.498c-2.472-3.252-5.665-8.455-5.665-13.666 0 5.966-3.662 9.074-8.674 11.462l4.36 5.351-2.195 1.788 6.658 8.165m-62.345-.1l1.514-1.21 1.046 1.309 6.658-8.167-2.195-1.788 3.605-4.424c-6.051-2.527-10.752-5.623-10.752-12.387 0 3.793-1.693 7.578-3.567 10.616.89 1.306 1.561 2.976 1.785 4.91.222 1.918-.046 3.681-.605 5.15.335.213.638.484.867.84.563.871.543 1.917.113 2.783l1.531 2.368m16.873-130.767h-2.833a2.124 2.124 0 00-2.124 2.124v.708h-.708a2.124 2.124 0 00-2.124 2.124v2.833c0 1.173.951 2.124 2.124 2.124h.708v12.039c0 1.173.951 2.124 2.124 2.124h2.833a2.124 2.124 0 002.124-2.124v-2.124l2.266 1.699 1.761 1.321-5.062 25.306h-4.799c-1.022-6.413-6.591-11.33-13.288-11.33-.235 0-.47.008-.708.022v-3.563c0-5.857-4.766-10.623-10.623-10.623s-10.623 4.766-10.623 10.623v49.575c-.767-2.115-2.014-3.885-3.577-4.998a2.121 2.121 0 00-2.824.325c-.654.743-1.192 1.647-1.593 2.667-.93-.504-1.887-.844-2.831-.996a2.125 2.125 0 00-2.388 1.543c-.249.922-.332 1.934-.254 2.989a10.407 10.407 0 00-.498-.012c-.92 0-1.791.125-2.588.371a2.126 2.126 0 00-1.458 2.442c.55 2.776 2.686 5.514 5.716 7.321a13.39 13.39 0 004.457 1.685 4.853 4.853 0 003.243 2.44l1.548 2.395-.154-.001c-.92 0-1.791.125-2.588.371a2.126 2.126 0 00-1.458 2.442c.55 2.776 2.686 5.514 5.716 7.321.484.289.988.545 1.532.776v34.648a2.124 2.124 0 003.629 1.499c.289-.289 6.952-7.042 8.689-14.879a40.301 40.301 0 001.974-2.834 4.887 4.887 0 002.643 1.565l.092.141-1.678 1.342a2.124 2.124 0 00-.333 2.987l7.075 8.851a2.124 2.124 0 002.986.333l.452-.361 1.857 2.873a2.124 2.124 0 002.937.63l1.374-.888-.311.623a2.125 2.125 0 00.665 2.679l19.829 14.164a2.122 2.122 0 002.47 0l19.829-14.164a2.123 2.123 0 00.665-2.679l-12.597-25.195a53.434 53.434 0 011.674-.753l5.609 6.883a2.122 2.122 0 002.99.304l.551-.448 5.006 6.14-1.338 1.674a2.126 2.126 0 00.333 2.987l.232.185-2.514 4.129a2.125 2.125 0 00.71 2.919l3.629 2.21a2.126 2.126 0 002.921-.711l1.947-3.199a2.125 2.125 0 002.979-.339l7.075-8.851c.26-.326.409-.705.452-1.09 2.308 6.903 7.838 12.506 8.1 12.769a2.127 2.127 0 002.316.464 2.125 2.125 0 001.313-1.963v-37.517l5.937-9.752a2.123 2.123 0 002.252-.976l8.498-13.962a2.116 2.116 0 00.249-1.607 2.131 2.131 0 00-.96-1.313l-3.025-1.841-1.814-1.105-1.212-.737a2.12 2.12 0 00-2.917.712l-7.007 11.512v-56.717c0-5.857-4.766-10.623-10.623-10.623s-10.623 4.766-10.623 10.623v3.563a12.008 12.008 0 00-.708-.022c-6.697 0-12.266 4.917-13.288 11.33h-1.827c-.67-5.577-2.59-22.173-2.59-29.035 0-9.92-6.951-13.455-13.455-13.455-4.817 0-7.925 1.836-9.258 2.833h-.07c.078-.222.121-.46.121-.708v-2.833a2.124 2.124 0 00-2.124-2.124h-.708v-.708a2.131 2.131 0 00-2.129-2.122zM223.55 291.199a30.647 30.647 0 001.426-2.831c1.771 2.377 4.319 4.067 7.031 5.405l-1.86 2.283a2.126 2.126 0 00.304 2.989l.546.446-3.785 4.642a2.126 2.126 0 00-1.551-.122 4.82 4.82 0 00-.981-3.386c.378-1.519.48-3.138.294-4.756a13.364 13.364 0 00-1.424-4.67zm58.029 1.523c1.871-1.091 3.688-2.473 5.066-4.33 1.085 2.477 2.511 4.73 3.861 6.569.017 1.183.179 2.401.491 3.694l-3.225 5.299c-.186.034-.37.094-.543.179l-3.785-4.642.546-.446a2.123 2.123 0 00.304-2.989l-2.715-3.334zm-41.003 13.956c.617 0 1.228-.267 1.649-.782l3.583-4.396-9.697 19.394a1.97 1.97 0 00-.086-.145l-2.244-3.473.905-.724a2.124 2.124 0 00.333-2.986l-1.338-1.674 5.006-6.141.551.448c.391.324.866.479 1.338.479zm54.274 1.993l.462-.76c.406.598.836 1.194 1.288 1.788.04.179.082.356.127.534a2.126 2.126 0 00-.323-.32l-1.554-1.242z" fill="#ffaa5a"/></symbol><symbol id="morocco" viewBox="0 0 512.001 512.001"><path d="M503.172 423.725H8.828A8.829 8.829 0 010 414.897V97.104a8.829 8.829 0 018.828-8.828h494.345a8.829 8.829 0 018.828 8.828v317.793a8.83 8.83 0 01-8.829 8.828z" fill="#ff4b55"/><path d="M297.951 277.962l67.433-49.478h-83.509L256 148.846l-25.875 79.638h-83.509l67.433 49.478-25.675 79.022 67.56-48.289.066.047.066-.047 67.56 48.289-25.675-79.022zm13.527-31.823l-19.273 14.141-4.595-14.141h23.868zm-76.694 25.139l8.169-25.14h26.094l8.169 25.14L256 286.846l-21.216-15.568zM256 205.984l7.31 22.5h-14.622l7.312-22.5zm-55.478 40.155h23.868l-4.595 14.141-19.273-14.141zm21.215 65.293l7.302-22.472 11.911 8.739-19.213 13.733zm61.225-22.472l7.302 22.472-19.212-13.732 11.91-8.74z" fill="#5a8250"/></symbol><symbol id="newzealand" viewBox="0 0 512.001 512.001"><path d="M503.172 423.725H8.828A8.829 8.829 0 010 414.897V97.104a8.829 8.829 0 018.828-8.828h494.345a8.829 8.829 0 018.828 8.828v317.793a8.83 8.83 0 01-8.829 8.828z" fill="#41479b"/><path d="M247.172 88.277h-15.334l-81.77 53.574V88.277H105.93v53.574L24.16 88.277H8.828A8.828 8.828 0 000 97.104v7.002l70.155 45.963H0v44.138h70.155L0 240.171v7.002a8.829 8.829 0 008.828 8.828h15.334l81.77-53.574v53.574h44.138v-53.574l81.769 53.574h15.334a8.829 8.829 0 008.828-8.828v-7.002l-70.155-45.963H256V150.07h-70.155L256 104.107v-7.002a8.828 8.828 0 00-8.828-8.828z" fill="#f5f5f5"/><g fill="#ff4b55"><path d="M256 158.898H141.241V88.277h-26.482v70.621H0v26.482h114.759v70.621h26.482V185.38H256z"/><path d="M97.103 150.07L4.207 89.769C1.735 91.333 0 93.962 0 97.104v.458l80.889 52.508h16.214zM166.283 150.07l88.374-57.366c-1.536-2.599-4.246-4.427-7.485-4.427h-1.909l-95.194 61.793h16.214zM89.474 194.208L1.269 251.464c1.521 2.662 4.273 4.537 7.559 4.537h1.665l95.196-61.793H89.474zM255.86 247.866l-82.666-53.658H156.98l93.874 60.935c2.812-1.305 4.741-4.04 5.006-7.277zM395.474 368.114c-.358 0-.719-.113-1.026-.328L384 360.32l-10.449 7.466a1.767 1.767 0 01-2.711-1.974l3.875-12.242-10.327-7.62a1.77 1.77 0 01-.633-1.965 1.773 1.773 0 011.668-1.224l12.841-.104 4.061-12.181c.242-.715.918-1.207 1.677-1.207s1.436.491 1.677 1.207l4.061 12.181 12.841.104c.763.009 1.431.5 1.668 1.224a1.77 1.77 0 01-.633 1.965l-10.327 7.62 3.875 12.242a1.778 1.778 0 01-.647 1.965c-.314.224-.68.337-1.043.337z"/></g><path d="M384 331.035l4.461 13.378 14.102.109-11.345 8.377 4.254 13.445L384 358.145l-11.473 8.201 4.254-13.445-11.345-8.377 14.102-.109 4.462-13.38m0-3.531a3.532 3.532 0 00-3.35 2.414l-3.663 10.984-11.578.09a3.53 3.53 0 00-2.071 6.372l9.314 6.878-3.492 11.039a3.532 3.532 0 005.421 3.937l9.42-6.733 9.42 6.733a3.536 3.536 0 004.129-.015 3.533 3.533 0 001.291-3.922l-3.492-11.039 9.314-6.878a3.53 3.53 0 00-2.071-6.372l-11.578-.09-3.663-10.984a3.535 3.535 0 00-3.351-2.414z" fill="#f5f5f5"/><path d="M395.474 225.794c-.362 0-.719-.113-1.026-.328L384 217.993l-10.449 7.474a1.794 1.794 0 01-1.026.328c-.362 0-.728-.113-1.038-.337a1.78 1.78 0 01-.647-1.965l3.875-12.242-10.327-7.629a1.774 1.774 0 01-.633-1.965 1.776 1.776 0 011.668-1.224l12.841-.095 4.061-12.181c.242-.715.918-1.207 1.677-1.207s1.436.491 1.677 1.207l4.061 12.181 12.841.095c.759.009 1.431.5 1.668 1.224a1.775 1.775 0 01-.633 1.965l-10.327 7.629 3.875 12.242a1.778 1.778 0 01-.647 1.965c-.314.224-.68.336-1.043.336z" fill="#ff4b55"/><path d="M384 188.714l4.461 13.378 14.102.109-11.345 8.377 4.254 13.446L384 215.823l-11.473 8.201 4.254-13.446-11.345-8.377 14.102-.109L384 188.714m0-3.531a3.532 3.532 0 00-3.35 2.414l-3.663 10.984-11.578.09a3.53 3.53 0 00-2.071 6.372l9.314 6.878-3.492 11.039a3.532 3.532 0 005.421 3.937l9.42-6.733 9.42 6.733a3.536 3.536 0 004.129-.015 3.533 3.533 0 001.291-3.922l-3.492-11.039 9.314-6.878c1.223-.903 1.73-2.486 1.26-3.932s-1.811-2.429-3.331-2.44l-11.578-.09-3.663-10.984a3.534 3.534 0 00-3.351-2.414z" fill="#f5f5f5"/><path d="M457.267 269.932c-.362 0-.719-.113-1.026-.328l-10.447-7.474-10.449 7.474a1.794 1.794 0 01-1.026.328c-.362 0-.728-.113-1.038-.337a1.78 1.78 0 01-.647-1.965l3.875-12.242-10.327-7.629a1.774 1.774 0 01-.633-1.965 1.776 1.776 0 011.668-1.224l12.841-.095 4.061-12.181c.242-.715.918-1.207 1.677-1.207s1.436.491 1.677 1.207l4.061 12.181 12.841.095c.759.009 1.431.5 1.668 1.224a1.775 1.775 0 01-.633 1.965l-10.327 7.629 3.875 12.242a1.778 1.778 0 01-.647 1.965 1.802 1.802 0 01-1.044.337z" fill="#ff4b55"/><path d="M445.793 232.852l4.461 13.378 14.102.109-11.345 8.377 4.254 13.446-11.473-8.201-11.473 8.201 4.254-13.445-11.345-8.377 14.102-.109 4.463-13.379m0-3.531a3.532 3.532 0 00-3.35 2.414l-3.663 10.984-11.578.09a3.53 3.53 0 00-2.071 6.372l9.314 6.878-3.492 11.039a3.532 3.532 0 003.367 4.596c.719 0 1.439-.22 2.053-.659l9.42-6.733 9.42 6.733a3.537 3.537 0 004.13-.015 3.533 3.533 0 001.291-3.922l-3.492-11.039 9.314-6.878c1.223-.903 1.73-2.486 1.26-3.932s-1.811-2.429-3.331-2.44l-11.578-.09-3.663-10.984a3.533 3.533 0 00-3.351-2.414z" fill="#f5f5f5"/><path d="M333.681 287.587c-.362 0-.719-.113-1.026-.328l-10.447-7.474-10.449 7.474a1.794 1.794 0 01-1.026.328c-.362 0-.728-.113-1.038-.337a1.78 1.78 0 01-.647-1.965l3.875-12.242-10.327-7.629a1.774 1.774 0 01-.633-1.965 1.776 1.776 0 011.668-1.224l12.841-.095 4.061-12.181c.242-.715.918-1.207 1.677-1.207s1.436.491 1.677 1.207l4.061 12.181 12.841.095c.759.009 1.431.5 1.668 1.224a1.775 1.775 0 01-.633 1.965l-10.327 7.629 3.875 12.242a1.778 1.778 0 01-.647 1.965 1.795 1.795 0 01-1.044.337z" fill="#ff4b55"/><path d="M322.207 250.507l4.461 13.378 14.102.109-11.345 8.377 4.254 13.446-11.473-8.201-11.473 8.201 4.254-13.446-11.345-8.377 14.102-.109 4.463-13.378m0-3.531a3.532 3.532 0 00-3.35 2.414l-3.663 10.984-11.578.09a3.53 3.53 0 00-2.071 6.372l9.314 6.878-3.492 11.039a3.532 3.532 0 003.367 4.596c.719 0 1.439-.22 2.053-.659l9.42-6.733 9.42 6.733a3.536 3.536 0 004.129-.015 3.533 3.533 0 001.291-3.922l-3.492-11.039 9.314-6.878a3.53 3.53 0 001.26-3.932 3.53 3.53 0 00-3.331-2.44l-11.578-.09-3.663-10.984a3.532 3.532 0 00-3.35-2.414z" fill="#f5f5f5"/></symbol><symbol id="portugal" viewBox="0 0 512.001 512.001"><path d="M503.172 423.725H8.828A8.829 8.829 0 010 414.897V97.104a8.829 8.829 0 018.828-8.828h494.345a8.829 8.829 0 018.828 8.828v317.793a8.83 8.83 0 01-8.829 8.828z" fill="#ff4b55"/><path d="M185.379 88.277H8.828A8.828 8.828 0 000 97.104v317.793a8.829 8.829 0 008.828 8.828H185.38V88.277h-.001z" fill="#73af00"/><circle cx="185.45" cy="256.001" r="79.38" fill="#ffe15a"/><path d="M211.932 229.518v35.31c0 14.603-11.88 26.483-26.483 26.483s-26.483-11.88-26.483-26.483v-35.31h52.966m8.827-17.655h-70.621a8.829 8.829 0 00-8.828 8.828v44.138c0 24.376 19.762 44.138 44.138 44.138s44.138-19.762 44.138-44.138v-44.138a8.827 8.827 0 00-8.827-8.828z" fill="#ff4b55"/><path d="M211.932 229.518v35.31c0 14.603-11.88 26.483-26.483 26.483s-26.483-11.88-26.483-26.483v-35.31h52.966" fill="#f5f5f5"/><g fill="#ffe15a"><circle cx="150.07" cy="220.691" r="4.414"/><circle cx="220.69" cy="220.691" r="4.414"/><circle cx="150.07" cy="256.001" r="4.414"/><circle cx="220.69" cy="256.001" r="4.414"/><circle cx="185.38" cy="220.691" r="4.414"/><circle cx="211.88" cy="288.551" r="4.414"/><circle cx="159.4" cy="288.551" r="4.414"/></g><g fill="#41479b"><path d="M191.149 253.763v7.602c0 3.144-2.558 5.702-5.702 5.702s-5.702-2.558-5.702-5.702v-7.602h11.404M191.149 235.741v7.602c0 3.144-2.558 5.702-5.702 5.702s-5.702-2.558-5.702-5.702v-7.602h11.404M191.149 271.97v7.602c0 3.144-2.558 5.702-5.702 5.702s-5.702-2.558-5.702-5.702v-7.602h11.404M206.506 253.763v7.602c0 3.144-2.558 5.702-5.702 5.702s-5.702-2.558-5.702-5.702v-7.602h11.404M175.794 253.763v7.602c0 3.144-2.558 5.702-5.702 5.702s-5.702-2.558-5.702-5.702v-7.602h11.404"/></g></symbol><symbol id="russia" viewBox="0 0 512.001 512.001"><path d="M512 200.093H0V97.104a8.829 8.829 0 018.828-8.828h494.345a8.829 8.829 0 018.828 8.828L512 200.093z" fill="#f5f5f5"/><path d="M503.172 423.725H8.828A8.829 8.829 0 010 414.897V311.909h512v102.988a8.828 8.828 0 01-8.828 8.828z" fill="#ff4b55"/><path fill="#41479b" d="M0 200.091h512v111.81H0z"/></symbol><symbol id="south-osetia" viewBox="0 0 600 300"><path fill="#eaeaea" d="M0 0h600v300H0z"/><path fill="red" d="M0 100h600v200H0z"/><path fill="#ffdf00" d="M0 200h600v100H0z"/></symbol><symbol id="southafrica" viewBox="0 0 512 512"><path fill="#464655" d="M0 150.069v211.862L141.241 256z"/><path d="M70.621 88.276l158.897 123.586H512V97.103a8.829 8.829 0 00-8.828-8.828H70.621v.001z" fill="#ff4b55"/><path d="M70.621 423.724l158.897-123.586H512v114.759a8.829 8.829 0 01-8.828 8.828H70.621v-.001z" fill="#41479b"/><path d="M56.889 88.276H8.828A8.828 8.828 0 000 97.103v36.21L154.974 256 0 378.69v36.206a8.829 8.829 0 008.828 8.828h48.056L224.147 291.31H512v-70.62H224.148L56.889 88.276z" fill="#73af00"/><path fill="#f5f5f5" d="M85.333 88.276H56.889L224.148 220.69H512v-17.656H230.291z"/><path fill="#ffe15a" d="M0 133.313v22.518L126.53 256 0 356.173v22.517L154.974 256z"/><path fill="#f5f5f5" d="M224.147 291.31L56.884 423.724h28.445l144.96-114.758H512V291.31z"/></symbol><symbol id="spain" viewBox="0 0 512.001 512.001"><path d="M8.828 423.725h494.345a8.829 8.829 0 008.828-8.828V97.104a8.829 8.829 0 00-8.828-8.828H8.828A8.83 8.83 0 000 97.104v317.793a8.828 8.828 0 008.828 8.828z" fill="#c8414b"/><path fill="#ffd250" d="M0 158.901h512v194.21H0z"/><path d="M216.276 256.001l7.485-33.681c.69-3.102-1.671-6.044-4.849-6.044h-5.272c-3.177 0-5.537 2.942-4.849 6.044l7.485 33.681z" fill="#c8414b"/><path fill="#f5f5f5" d="M207.45 238.341h17.655v75.03H207.45z"/><path fill="#fab446" d="M203.03 229.521h26.483v8.828H203.03z"/><g fill="#c8414b"><path d="M185.38 256.001h44.14v8.828h-44.14zM229.517 291.311l-26.483-8.827v-8.828l26.483 8.828zM83.862 256.001l7.485-33.681c.69-3.102-1.671-6.044-4.849-6.044h-5.272c-3.177 0-5.537 2.942-4.849 6.044l7.485 33.681z"/></g><path d="M114.759 229.518a8.829 8.829 0 00-8.828 8.828v57.379c0 10.725 10.01 30.897 44.138 30.897s44.138-20.171 44.138-30.897v-57.379a8.829 8.829 0 00-8.828-8.828h-70.62z" fill="#f5f5f5"/><g fill="#c8414b"><path d="M150.069 273.656h-44.138v-35.31a8.829 8.829 0 018.828-8.828h35.31v44.138zM150.069 273.656h44.138v22.069c0 12.189-9.88 22.069-22.069 22.069-12.189 0-22.069-9.88-22.069-22.069v-22.069z"/></g><path d="M105.931 273.656h44.138v22.069c0 12.189-9.88 22.069-22.069 22.069-12.189 0-22.069-9.88-22.069-22.069v-22.069z" fill="#fab446"/><g fill="#c8414b"><path d="M141.241 313.281v-39.625h-8.828v43.693c3.284-.666 6.251-2.12 8.828-4.068zM123.586 317.349v-43.693h-8.828v39.625c2.578 1.948 5.545 3.402 8.828 4.068z"/></g><path fill="#ffb441" d="M114.76 256.001h26.483v8.828H114.76z"/><g fill="#fab446"><path d="M114.76 238.341h26.483v8.828H114.76z"/><path d="M119.17 243.591h17.655v15.992H119.17z"/></g><path fill="#f5f5f5" d="M75.03 238.341h17.655v75.03H75.03z"/><g fill="#fab446"><path d="M70.62 308.971h26.483v8.828H70.62zM70.62 229.521h26.483v8.828H70.62z"/></g><path fill="#5064aa" d="M66.21 317.791h35.31v8.828H66.21z"/><path fill="#fab446" d="M207.45 308.971h26.483v8.828H207.45z"/><path fill="#5064aa" d="M198.62 317.791h35.31v8.828h-35.31z"/><path fill="#fab446" d="M123.59 220.691h52.966v8.828H123.59z"/><path fill="#ffb441" d="M145.66 194.211h8.828v26.483h-8.828z"/><g fill="#f5f5f5"><path d="M141.241 207.449c-7.302 0-13.241-5.94-13.241-13.241 0-7.302 5.94-13.241 13.241-13.241 7.302 0 13.241 5.94 13.241 13.241.001 7.301-5.939 13.241-13.241 13.241zm0-17.655a4.417 4.417 0 00-4.414 4.414c0 2.435 1.978 4.414 4.414 4.414s4.414-1.978 4.414-4.414a4.417 4.417 0 00-4.414-4.414z"/><path d="M158.897 207.449c-7.302 0-13.241-5.94-13.241-13.241 0-7.302 5.94-13.241 13.241-13.241 7.302 0 13.241 5.94 13.241 13.241s-5.94 13.241-13.241 13.241zm0-17.655a4.417 4.417 0 00-4.414 4.414 4.417 4.417 0 004.414 4.414 4.417 4.417 0 004.414-4.414 4.418 4.418 0 00-4.414-4.414z"/><path d="M176.552 216.277c-7.302 0-13.241-5.94-13.241-13.241 0-7.302 5.94-13.241 13.241-13.241 7.302 0 13.241 5.94 13.241 13.241s-5.94 13.241-13.241 13.241zm0-17.655a4.417 4.417 0 00-4.414 4.414 4.417 4.417 0 004.414 4.414c2.435 0 4.414-1.978 4.414-4.414s-1.979-4.414-4.414-4.414zM123.586 216.277c-7.302 0-13.241-5.94-13.241-13.241 0-7.302 5.94-13.241 13.241-13.241 7.302 0 13.241 5.94 13.241 13.241.001 7.301-5.939 13.241-13.241 13.241zm0-17.655a4.417 4.417 0 00-4.414 4.414c0 2.435 1.978 4.414 4.414 4.414s4.414-1.979 4.414-4.415a4.416 4.416 0 00-4.414-4.413z"/></g><path d="M176.552 291.311v4.414c0 2.434-1.98 4.414-4.414 4.414s-4.414-1.98-4.414-4.414v-4.414h8.828m8.827-8.827h-26.483v13.241c0 7.302 5.94 13.241 13.241 13.241 7.302 0 13.241-5.94 13.241-13.241v-13.241h.001z" fill="#fab446"/><path d="M172.138 264.829a8.829 8.829 0 01-8.828-8.828v-8.828a8.829 8.829 0 0117.656 0v8.828a8.829 8.829 0 01-8.828 8.828z" fill="#ffa0d2"/><circle cx="150.07" cy="273.651" r="13.241" fill="#5064aa"/><path fill="#fab446" d="M145.66 176.551h8.828v26.483h-8.828z"/><path d="M123.586 220.691l-8.828-8.828 5.171-5.171a42.627 42.627 0 0160.28 0l5.171 5.171-8.828 8.828h-52.966z" fill="#c8414b"/><g fill="#ffd250"><circle cx="150.07" cy="211.861" r="4.414"/><circle cx="132.41" cy="211.861" r="4.414"/><circle cx="167.72" cy="211.861" r="4.414"/></g><g fill="#c8414b"><path d="M70.62 256.001h44.14v8.828H70.62zM70.621 291.311l26.482-8.827v-8.828l-26.482 8.828z"/></g></symbol><symbol id="switzerland" viewBox="0 0 512 512"><path fill="#d80027" d="M0 85.337h512v341.326H0z"/><path fill="#f0f0f0" d="M356.174 222.609h-66.783v-66.783h-66.782v66.783h-66.783v66.782h66.783v66.783h66.782v-66.783h66.783z"/></symbol><symbol id="uruguay" viewBox="0 0 512.001 512.001"><path d="M503.172 88.276H8.828A8.828 8.828 0 000 97.103v317.793a8.829 8.829 0 008.828 8.828h494.345a8.829 8.829 0 008.828-8.828V97.103a8.83 8.83 0 00-8.829-8.827z" fill="#f5f5f5"/><path fill="#4173cd" d="M185.38 125.55H512v37.27H185.38z"/><path fill="#f5f5f5" d="M0 162.82h512v37.27H0z"/><path fill="#4173cd" d="M185.38 200.09H512v37.27H185.38z"/><path fill="#f5f5f5" d="M0 237.36h512v37.27H0z"/><path fill="#4173cd" d="M0 274.641h512v37.27H0z"/><path fill="#f5f5f5" d="M0 311.91h512v37.27H0z"/><path fill="#4173cd" d="M0 349.18h512v37.27H0z"/><path fill="#ffe15a" d="M63.976 111.642l14.767 68.333 23.107-9.572z"/><path fill="#ffcd5a" d="M63.976 111.642l26.32 63.547-11.553 4.786z"/><path fill="#ffe15a" d="M121.404 250.289l-14.768-68.333-23.107 9.572z"/><path fill="#ffcd5a" d="M121.404 250.289l-26.321-63.547 11.553-4.786z"/><path fill="#ffe15a" d="M162.013 152.252l-68.332 14.767 9.571 23.107z"/><path fill="#ffcd5a" d="M162.013 152.252l-63.547 26.32-4.785-11.553z"/><path fill="#ffe15a" d="M23.367 209.679l68.332-14.767-9.572-23.107z"/><path fill="#ffcd5a" d="M23.367 209.679l63.546-26.32 4.786 11.553z"/><path fill="#ffe15a" d="M121.404 111.642l-37.875 58.761 23.107 9.572z"/><path fill="#ffcd5a" d="M121.404 111.642l-26.321 63.547-11.554-4.786z"/><path fill="#ffe15a" d="M63.976 250.289l37.874-58.761-23.107-9.572z"/><path fill="#ffcd5a" d="M63.976 250.289l26.32-63.547 11.554 4.786z"/><path fill="#ffe15a" d="M162.013 209.679l-58.761-37.874-9.571 23.107z"/><path fill="#ffcd5a" d="M162.013 209.679l-63.547-26.32 4.786-11.554z"/><path fill="#ffe15a" d="M23.367 152.252l58.76 37.874 9.572-23.107z"/><path fill="#ffcd5a" d="M23.367 152.252l63.546 26.32-4.786 11.554z"/><path fill="#ffe15a" d="M92.69 105.931l-12.506 68.781h25.011z"/><path fill="#ffcd5a" d="M92.69 105.931v68.781H80.184z"/><path fill="#ffe15a" d="M92.69 256l12.505-68.781H80.184z"/><path fill="#ffcd5a" d="M92.69 256v-68.781h12.505z"/><path fill="#ffe15a" d="M167.724 180.966L98.943 168.46v25.011z"/><path fill="#ffcd5a" d="M167.724 180.966H98.943V168.46z"/><path fill="#ffe15a" d="M17.655 180.966l68.781 12.505V168.46z"/><path fill="#ffcd5a" d="M17.655 180.966h68.781v12.505z"/><path fill="#ffe15a" d="M145.747 127.908l-57.479 39.793 17.686 17.686z"/><path fill="#ffcd5a" d="M145.747 127.908l-48.636 48.636-8.843-8.843z"/><path fill="#ffe15a" d="M39.633 234.023l57.478-39.793-17.686-17.686z"/><path fill="#ffcd5a" d="M39.633 234.023l48.635-48.636 8.843 8.843z"/><path fill="#ffe15a" d="M145.747 234.023l-39.793-57.479-17.686 17.686z"/><path fill="#ffcd5a" d="M145.747 234.023l-48.636-48.636 8.843-8.843z"/><path fill="#ffe15a" d="M39.633 127.908l39.792 57.479 17.686-17.686z"/><path fill="#ffcd5a" d="M39.633 127.908l48.635 48.636-8.843 8.843z"/><circle cx="92.69" cy="180.97" r="25.01" fill="#ffe15a"/></symbol><symbol id="usa" viewBox="0 0 512.001 512.001"><path d="M503.172 423.725H8.828A8.829 8.829 0 010 414.897V97.104a8.829 8.829 0 018.828-8.828h494.345a8.829 8.829 0 018.828 8.828v317.793a8.83 8.83 0 01-8.829 8.828z" fill="#f5f5f5"/><g fill="#ff4b55"><path d="M512 114.081H0V97.104a8.829 8.829 0 018.828-8.828h494.345a8.829 8.829 0 018.828 8.828L512 114.081zM0 191.491h512v25.804H0zM0 139.881h512v25.804H0zM512 268.903H8.828A8.829 8.829 0 010 260.075v-16.977h512v25.805zM0 346.321h512v25.804H0zM503.172 423.725H8.828A8.829 8.829 0 010 414.897v-16.976h512v16.977a8.828 8.828 0 01-8.828 8.827zM0 294.711h512v25.804H0z"/></g><path d="M229.517 88.277H8.828A8.828 8.828 0 000 97.104v162.97a8.829 8.829 0 008.828 8.828h220.69a8.829 8.829 0 008.828-8.828V97.104a8.83 8.83 0 00-8.829-8.827z" fill="#41479b"/><g fill="#f5f5f5"><path d="M24.789 108.538l1.954 5.86 6.177.047c.8.007 1.131 1.027.488 1.502l-4.969 3.67 1.864 5.889c.242.762-.627 1.394-1.278.928L24 122.843l-5.025 3.592c-.651.465-1.518-.166-1.278-.928l1.864-5.889-4.969-3.67c-.643-.476-.312-1.495.488-1.502l6.177-.047 1.954-5.86c.252-.76 1.324-.76 1.578-.001zM24.789 139.192l1.954 5.86 6.177.047c.8.007 1.131 1.027.488 1.502l-4.969 3.67 1.864 5.889c.242.762-.627 1.394-1.278.928L24 153.497l-5.025 3.592c-.651.465-1.518-.166-1.278-.928l1.864-5.889-4.969-3.67c-.643-.476-.312-1.495.488-1.502l6.177-.047 1.954-5.86c.252-.759 1.324-.759 1.578-.001zM24.789 169.846l1.954 5.86 6.177.047c.8.007 1.131 1.027.488 1.502l-4.969 3.67 1.864 5.889c.242.762-.627 1.394-1.278.928L24 184.151l-5.025 3.592c-.651.465-1.518-.166-1.278-.928l1.864-5.889-4.969-3.67c-.643-.476-.312-1.495.488-1.502l6.177-.047 1.954-5.86c.252-.759 1.324-.759 1.578-.001zM24.789 200.501l1.954 5.86 6.177.047c.8.007 1.131 1.027.488 1.502l-4.969 3.67 1.864 5.889c.242.762-.627 1.394-1.278.928L24 214.806l-5.025 3.592c-.651.465-1.518-.166-1.278-.928l1.864-5.889-4.969-3.67c-.643-.476-.312-1.495.488-1.502l6.177-.047 1.954-5.86c.252-.76 1.324-.76 1.578-.001zM24.789 231.155l1.954 5.86 6.177.047c.8.007 1.131 1.027.488 1.502l-4.969 3.67 1.864 5.889c.242.762-.627 1.394-1.278.928L24 245.46l-5.025 3.592c-.651.465-1.518-.166-1.278-.928l1.864-5.889-4.969-3.67c-.643-.476-.312-1.495.488-1.502l6.177-.047 1.954-5.86c.252-.761 1.324-.761 1.578-.001zM48.582 123.567l1.954 5.86 6.177.047c.8.007 1.131 1.027.488 1.502l-4.969 3.67 1.864 5.889c.242.762-.627 1.394-1.278.928l-5.025-3.592-5.025 3.592c-.651.465-1.518-.166-1.278-.928l1.864-5.889-4.969-3.67c-.643-.476-.312-1.495.488-1.502l6.177-.047 1.954-5.86c.251-.758 1.325-.758 1.578 0zM48.582 154.222l1.954 5.86 6.177.047c.8.007 1.131 1.027.488 1.502l-4.969 3.67 1.864 5.889c.242.762-.627 1.394-1.278.928l-5.025-3.592-5.025 3.592c-.651.465-1.518-.165-1.278-.928l1.864-5.889-4.969-3.67c-.643-.476-.312-1.495.488-1.502l6.177-.047 1.954-5.86c.251-.759 1.325-.759 1.578 0zM48.582 184.876l1.954 5.86 6.177.047c.8.007 1.131 1.027.488 1.502l-4.969 3.67 1.864 5.889c.242.762-.627 1.394-1.278.928l-5.025-3.592-5.025 3.592c-.651.465-1.518-.166-1.278-.928l1.864-5.889-4.969-3.67c-.643-.476-.312-1.495.488-1.502l6.177-.047 1.954-5.86c.251-.759 1.325-.759 1.578 0zM48.582 215.53l1.954 5.86 6.177.047c.8.007 1.131 1.027.488 1.502l-4.969 3.67 1.864 5.889c.242.762-.627 1.394-1.278.928l-5.025-3.592-5.025 3.592c-.651.465-1.518-.166-1.278-.928l1.864-5.889-4.969-3.67c-.643-.476-.312-1.495.488-1.502l6.177-.047 1.954-5.86c.251-.758 1.325-.758 1.578 0zM72.375 108.538l1.954 5.86 6.177.047c.8.007 1.131 1.027.488 1.502l-4.969 3.67 1.864 5.889c.242.762-.627 1.394-1.278.928l-5.025-3.592-5.025 3.592c-.651.465-1.518-.166-1.278-.928l1.864-5.889-4.969-3.67c-.643-.476-.312-1.495.488-1.502l6.177-.047 1.954-5.86c.252-.759 1.325-.759 1.578 0zM72.375 139.192l1.954 5.86 6.177.047c.8.007 1.131 1.027.488 1.502l-4.969 3.67 1.864 5.889c.242.762-.627 1.394-1.278.928l-5.025-3.592-5.025 3.592c-.651.465-1.518-.166-1.278-.928l1.864-5.889-4.969-3.67c-.643-.476-.312-1.495.488-1.502l6.177-.047 1.954-5.86c.252-.758 1.325-.758 1.578 0zM72.375 169.846l1.954 5.86 6.177.047c.8.007 1.131 1.027.488 1.502l-4.969 3.67 1.864 5.889c.242.762-.627 1.394-1.278.928l-5.025-3.592-5.025 3.592c-.651.465-1.518-.166-1.278-.928l1.864-5.889-4.969-3.67c-.643-.476-.312-1.495.488-1.502l6.177-.047 1.954-5.86c.252-.758 1.325-.758 1.578 0zM72.375 200.501l1.954 5.86 6.177.047c.8.007 1.131 1.027.488 1.502l-4.969 3.67 1.864 5.889c.242.762-.627 1.394-1.278.928l-5.025-3.592-5.025 3.592c-.651.465-1.518-.166-1.278-.928l1.864-5.889-4.969-3.67c-.643-.476-.312-1.495.488-1.502l6.177-.047 1.954-5.86c.252-.759 1.325-.759 1.578 0zM72.375 231.155l1.954 5.86 6.177.047c.8.007 1.131 1.027.488 1.502l-4.969 3.67 1.864 5.889c.242.762-.627 1.394-1.278.928l-5.025-3.592-5.025 3.592c-.651.465-1.518-.166-1.278-.928l1.864-5.889-4.969-3.67c-.643-.476-.312-1.495.488-1.502l6.177-.047 1.954-5.86c.252-.76 1.325-.76 1.578 0zM96.169 123.567l1.954 5.86 6.177.047c.8.007 1.131 1.027.488 1.502l-4.969 3.67 1.864 5.889c.242.762-.627 1.394-1.278.928l-5.025-3.592-5.025 3.592c-.651.465-1.518-.166-1.278-.928l1.864-5.889-4.969-3.67c-.643-.476-.312-1.495.488-1.502l6.177-.047 1.954-5.86c.251-.758 1.325-.758 1.578 0zM96.169 154.222l1.954 5.86 6.177.047c.8.007 1.131 1.027.488 1.502l-4.969 3.67 1.864 5.889c.242.762-.627 1.394-1.278.928l-5.025-3.592-5.025 3.592c-.651.465-1.518-.165-1.278-.928l1.864-5.889-4.969-3.67c-.643-.476-.312-1.495.488-1.502l6.177-.047 1.954-5.86c.251-.759 1.325-.759 1.578 0zM96.169 184.876l1.954 5.86 6.177.047c.8.007 1.131 1.027.488 1.502l-4.969 3.67 1.864 5.889c.242.762-.627 1.394-1.278.928l-5.025-3.592-5.025 3.592c-.651.465-1.518-.166-1.278-.928l1.864-5.889-4.969-3.67c-.643-.476-.312-1.495.488-1.502l6.177-.047 1.954-5.86c.251-.759 1.325-.759 1.578 0zM96.169 215.53l1.954 5.86 6.177.047c.8.007 1.131 1.027.488 1.502l-4.969 3.67 1.864 5.889c.242.762-.627 1.394-1.278.928l-5.025-3.592-5.025 3.592c-.651.465-1.518-.166-1.278-.928l1.864-5.889-4.969-3.67c-.643-.476-.312-1.495.488-1.502l6.177-.047 1.954-5.86c.251-.758 1.325-.758 1.578 0zM119.962 108.538l1.954 5.86 6.177.047c.8.007 1.131 1.027.488 1.502l-4.969 3.67 1.864 5.889c.242.762-.627 1.394-1.278.928l-5.026-3.592-5.025 3.592c-.651.465-1.518-.166-1.278-.928l1.864-5.889-4.969-3.67c-.643-.476-.312-1.495.488-1.502l6.177-.047 1.954-5.86c.253-.759 1.326-.759 1.579 0zM119.962 139.192l1.954 5.86 6.177.047c.8.007 1.131 1.027.488 1.502l-4.969 3.67 1.864 5.889c.242.762-.627 1.394-1.278.928l-5.026-3.592-5.025 3.592c-.651.465-1.518-.166-1.278-.928l1.864-5.889-4.969-3.67c-.643-.476-.312-1.495.488-1.502l6.177-.047 1.954-5.86c.253-.758 1.326-.758 1.579 0zM119.962 169.846l1.954 5.86 6.177.047c.8.007 1.131 1.027.488 1.502l-4.969 3.67 1.864 5.889c.242.762-.627 1.394-1.278.928l-5.026-3.592-5.025 3.592c-.651.465-1.518-.166-1.278-.928l1.864-5.889-4.969-3.67c-.643-.476-.312-1.495.488-1.502l6.177-.047 1.954-5.86c.253-.758 1.326-.758 1.579 0zM119.962 200.501l1.954 5.86 6.177.047c.8.007 1.131 1.027.488 1.502l-4.969 3.67 1.864 5.889c.242.762-.627 1.394-1.278.928l-5.026-3.592-5.025 3.592c-.651.465-1.518-.166-1.278-.928l1.864-5.889-4.969-3.67c-.643-.476-.312-1.495.488-1.502l6.177-.047 1.954-5.86c.253-.759 1.326-.759 1.579 0zM119.962 231.155l1.954 5.86 6.177.047c.8.007 1.131 1.027.488 1.502l-4.969 3.67 1.864 5.889c.242.762-.627 1.394-1.278.928l-5.026-3.592-5.025 3.592c-.651.465-1.518-.166-1.278-.928l1.864-5.889-4.969-3.67c-.643-.476-.312-1.495.488-1.502l6.177-.047 1.954-5.86c.253-.76 1.326-.76 1.579 0zM143.755 123.567l1.954 5.86 6.177.047c.8.007 1.131 1.027.488 1.502l-4.969 3.67 1.864 5.889c.242.762-.627 1.394-1.278.928l-5.025-3.592-5.025 3.592c-.651.465-1.518-.166-1.278-.928l1.864-5.889-4.969-3.67c-.643-.476-.312-1.495.488-1.502l6.177-.047 1.954-5.86c.253-.758 1.325-.758 1.578 0zM143.755 154.222l1.954 5.86 6.177.047c.8.007 1.131 1.027.488 1.502l-4.969 3.67 1.864 5.889c.242.762-.627 1.394-1.278.928l-5.025-3.592-5.025 3.592c-.651.465-1.518-.165-1.278-.928l1.864-5.889-4.969-3.67c-.643-.476-.312-1.495.488-1.502l6.177-.047 1.954-5.86c.253-.759 1.325-.759 1.578 0zM143.755 184.876l1.954 5.86 6.177.047c.8.007 1.131 1.027.488 1.502l-4.969 3.67 1.864 5.889c.242.762-.627 1.394-1.278.928l-5.025-3.592-5.025 3.592c-.651.465-1.518-.166-1.278-.928l1.864-5.889-4.969-3.67c-.643-.476-.312-1.495.488-1.502l6.177-.047 1.954-5.86c.253-.759 1.325-.759 1.578 0zM143.755 215.53l1.954 5.86 6.177.047c.8.007 1.131 1.027.488 1.502l-4.969 3.67 1.864 5.889c.242.762-.627 1.394-1.278.928l-5.025-3.592-5.025 3.592c-.651.465-1.518-.166-1.278-.928l1.864-5.889-4.969-3.67c-.643-.476-.312-1.495.488-1.502l6.177-.047 1.954-5.86c.253-.758 1.325-.758 1.578 0zM167.549 108.538l1.954 5.86 6.177.047c.8.007 1.131 1.027.488 1.502l-4.969 3.67 1.864 5.889c.242.762-.627 1.394-1.278.928l-5.025-3.592-5.025 3.592c-.651.465-1.518-.166-1.278-.928l1.864-5.889-4.969-3.67c-.643-.476-.312-1.495.488-1.502l6.177-.047 1.954-5.86c.251-.759 1.325-.759 1.578 0zM167.549 139.192l1.954 5.86 6.177.047c.8.007 1.131 1.027.488 1.502l-4.969 3.67 1.864 5.889c.242.762-.627 1.394-1.278.928l-5.025-3.592-5.025 3.592c-.651.465-1.518-.166-1.278-.928l1.864-5.889-4.969-3.67c-.643-.476-.312-1.495.488-1.502l6.177-.047 1.954-5.86c.251-.758 1.325-.758 1.578 0zM167.549 169.846l1.954 5.86 6.177.047c.8.007 1.131 1.027.488 1.502l-4.969 3.67 1.864 5.889c.242.762-.627 1.394-1.278.928l-5.025-3.592-5.025 3.592c-.651.465-1.518-.166-1.278-.928l1.864-5.889-4.969-3.67c-.643-.476-.312-1.495.488-1.502l6.177-.047 1.954-5.86c.251-.758 1.325-.758 1.578 0zM167.549 200.501l1.954 5.86 6.177.047c.8.007 1.131 1.027.488 1.502l-4.969 3.67 1.864 5.889c.242.762-.627 1.394-1.278.928l-5.025-3.592-5.025 3.592c-.651.465-1.518-.166-1.278-.928l1.864-5.889-4.969-3.67c-.643-.476-.312-1.495.488-1.502l6.177-.047 1.954-5.86c.251-.759 1.325-.759 1.578 0zM167.549 231.155l1.954 5.86 6.177.047c.8.007 1.131 1.027.488 1.502l-4.969 3.67 1.864 5.889c.242.762-.627 1.394-1.278.928l-5.025-3.592-5.025 3.592c-.651.465-1.518-.166-1.278-.928l1.864-5.889-4.969-3.67c-.643-.476-.312-1.495.488-1.502l6.177-.047 1.954-5.86c.251-.76 1.325-.76 1.578 0zM191.342 123.567l1.954 5.86 6.177.047c.8.007 1.131 1.027.488 1.502l-4.969 3.67 1.864 5.889c.242.762-.627 1.394-1.278.928l-5.025-3.592-5.025 3.592c-.651.465-1.518-.166-1.278-.928l1.864-5.889-4.969-3.67c-.643-.476-.312-1.495.488-1.502l6.177-.047 1.954-5.86c.252-.758 1.326-.758 1.578 0zM191.342 154.222l1.954 5.86 6.177.047c.8.007 1.131 1.027.488 1.502l-4.969 3.67 1.864 5.889c.242.762-.627 1.394-1.278.928l-5.025-3.592-5.025 3.592c-.651.465-1.518-.165-1.278-.928l1.864-5.889-4.969-3.67c-.643-.476-.312-1.495.488-1.502l6.177-.047 1.954-5.86c.252-.759 1.326-.759 1.578 0zM191.342 184.876l1.954 5.86 6.177.047c.8.007 1.131 1.027.488 1.502l-4.969 3.67 1.864 5.889c.242.762-.627 1.394-1.278.928l-5.025-3.592-5.025 3.592c-.651.465-1.518-.166-1.278-.928l1.864-5.889-4.969-3.67c-.643-.476-.312-1.495.488-1.502l6.177-.047 1.954-5.86c.252-.759 1.326-.759 1.578 0zM191.342 215.53l1.954 5.86 6.177.047c.8.007 1.131 1.027.488 1.502l-4.969 3.67 1.864 5.889c.242.762-.627 1.394-1.278.928l-5.025-3.592-5.025 3.592c-.651.465-1.518-.166-1.278-.928l1.864-5.889-4.969-3.67c-.643-.476-.312-1.495.488-1.502l6.177-.047 1.954-5.86c.252-.758 1.326-.758 1.578 0zM215.136 108.538l1.954 5.86 6.177.047c.8.007 1.131 1.027.488 1.502l-4.969 3.67 1.864 5.889c.242.762-.627 1.394-1.278.928l-5.025-3.592-5.025 3.592c-.651.465-1.518-.166-1.278-.928l1.864-5.889-4.969-3.67c-.643-.476-.312-1.495.488-1.502l6.177-.047 1.954-5.86c.252-.759 1.324-.759 1.578 0zM215.136 139.192l1.954 5.86 6.177.047c.8.007 1.131 1.027.488 1.502l-4.969 3.67 1.864 5.889c.242.762-.627 1.394-1.278.928l-5.025-3.592-5.025 3.592c-.651.465-1.518-.166-1.278-.928l1.864-5.889-4.969-3.67c-.643-.476-.312-1.495.488-1.502l6.177-.047 1.954-5.86c.252-.758 1.324-.758 1.578 0zM215.136 169.846l1.954 5.86 6.177.047c.8.007 1.131 1.027.488 1.502l-4.969 3.67 1.864 5.889c.242.762-.627 1.394-1.278.928l-5.025-3.592-5.025 3.592c-.651.465-1.518-.166-1.278-.928l1.864-5.889-4.969-3.67c-.643-.476-.312-1.495.488-1.502l6.177-.047 1.954-5.86c.252-.758 1.324-.758 1.578 0zM215.136 200.501l1.954 5.86 6.177.047c.8.007 1.131 1.027.488 1.502l-4.969 3.67 1.864 5.889c.242.762-.627 1.394-1.278.928l-5.025-3.592-5.025 3.592c-.651.465-1.518-.166-1.278-.928l1.864-5.889-4.969-3.67c-.643-.476-.312-1.495.488-1.502l6.177-.047 1.954-5.86c.252-.759 1.324-.759 1.578 0zM215.136 231.155l1.954 5.86 6.177.047c.8.007 1.131 1.027.488 1.502l-4.969 3.67 1.864 5.889c.242.762-.627 1.394-1.278.928l-5.025-3.592-5.025 3.592c-.651.465-1.518-.166-1.278-.928l1.864-5.889-4.969-3.67c-.643-.476-.312-1.495.488-1.502l6.177-.047 1.954-5.86c.252-.76 1.324-.76 1.578 0z"/></g></symbol></svg>