<svg xmlns="http://www.w3.org/2000/svg" viewBox="0 0 100.84 148.26"><defs><linearGradient id="gradient" x1="50.29" y1="660.12" x2="50.29" y2="737.63" gradientTransform="translate(0 -622.96)" gradientUnits="userSpaceOnUse"><stop offset="0" stop-color="#a10912"/><stop offset="1" stop-color="#e89515"/></linearGradient></defs><path d="M50.25 146.35a26 26 0 1126-26 26 26 0 01-26 26m0-46.91a20.94 20.94 0 1021 20.94 20.95 20.95 0 00-21-20.94"/><path d="M3.6 78.68A46.69 46.69 0 1050.4 32.1h-.11A46.64 46.64 0 003.6 78.68z" fill="url(#gradient)"/><path d="M50.29 99.44a49.09 49.09 0 1149.2-49.09 49.09 49.09 0 01-49.2 49.09m0-93.15a44.06 44.06 0 1044.17 44.06A44.06 44.06 0 0050.29 6.29"/></svg>