<?xml version="1.0" encoding="UTF-8"?><!DOCTYPE svg PUBLIC "-//W3C//DTD SVG 1.1//EN" "http://www.w3.org/Graphics/SVG/1.1/DTD/svg11.dtd"><svg xmlns="http://www.w3.org/2000/svg" xmlns:xlink="http://www.w3.org/1999/xlink"><defs><linearGradient id="icon-instagram-a" x1="20" y1="2.12" x2="20" y2="41.69" gradientTransform="matrix(1 0 0 -1 0 42)" gradientUnits="userSpaceOnUse"><stop offset="0" stop-color="#e09b3d"/><stop offset=".3" stop-color="#c74c4d"/><stop offset=".6" stop-color="#c21975"/><stop offset="1" stop-color="#7024c4"/></linearGradient><linearGradient id="icon-instagram-b" y1="2.12" x2="20" y2="41.69" xlink:href="#icon-instagram-a"/><linearGradient id="icon-instagram-c" x1="30.37" y1="2.12" x2="30.37" y2="41.69" xlink:href="#icon-instagram-a"/><linearGradient id="paint0_linear" x1="31" y1="31" x2="31" y2="0" gradientUnits="userSpaceOnUse"><stop stop-color="#fff" stop-opacity=".01"/><stop offset=".475" stop-color="#fff" stop-opacity=".01"/><stop offset=".76" stop-color="#fff" stop-opacity=".043"/><stop offset=".995" stop-color="#fff" stop-opacity=".099"/><stop offset="1" stop-color="#fff" stop-opacity=".1"/></linearGradient><clipPath id="clip0"><path fill="#fff" d="M0 0h31v31H0z"/></clipPath><linearGradient id="zen-b" x1="20" y1="2" x2="20" y2="42" gradientTransform="matrix(1 0 0 -1 0 42)" gradientUnits="userSpaceOnUse"><stop offset="0" stop-color="#fff" stop-opacity=".01"/><stop offset=".48" stop-color="#fff" stop-opacity=".01"/><stop offset=".76" stop-color="#fff" stop-opacity=".04"/><stop offset="1" stop-color="#fff" stop-opacity=".1"/><stop offset="1" stop-color="#fff" stop-opacity=".1"/></linearGradient><clipPath id="zen-a"><path fill="none" d="M0 0h40v40H0z"/></clipPath></defs><symbol id="alert"><path d="M7.027 14C3.183 14 0 10.872 0 7.027 0 3.183 3.183 0 7.027 0 10.872 0 14 3.183 14 7.027A6.98 6.98 0 017.027 14zm.82-10.719a.821.821 0 00-1.64 0v4.156a.821.821 0 001.64 0V3.282zm-.82 6.617a.821.821 0 000 1.641.822.822 0 000-1.64z" fill="red"/></symbol><symbol id="arrow" viewBox="0 0 10 17"><path fill="#fff" d="M6.54 8.51l-6-6A.84.84 0 01.3 1.9a.83.83 0 01.26-.61l.52-.53A.87.87 0 011.7.51a.9.9 0 01.62.25l7.12 7.13a.84.84 0 01.26.62.87.87 0 01-.26.62l-7.12 7.12a.86.86 0 01-1.23 0l-.53-.52a.88.88 0 010-1.24z"/></symbol><symbol id="check" viewBox="0 0 13.52 11.76"><path d="M5.93 11.46a.7.7 0 01-.48.26.72.72 0 01-.53-.15L.45 8a1.07 1.07 0 01-.17-1.5L.72 6a1.07 1.07 0 011.51-.18L5 8l6-7.54a1.07 1.07 0 011.5-.18l.56.45a1.08 1.08 0 01.18 1.51z" fill="#9b0030"/></symbol><symbol id="icon-facebook"><path d="M26.823 0H4.177A4.177 4.177 0 000 4.177v22.645A4.177 4.177 0 004.177 31h11.169l.019-11.078h-2.878a.679.679 0 01-.68-.676l-.013-3.571a.68.68 0 01.68-.682h2.872v-3.45c0-4.004 2.445-6.184 6.017-6.184h2.931a.68.68 0 01.68.679v3.01a.68.68 0 01-.68.68h-1.798c-1.943 0-2.319.924-2.319 2.278v2.987h4.269c.406 0 .722.355.674.76l-.423 3.57a.68.68 0 01-.675.6h-3.826L20.177 31h6.646A4.177 4.177 0 0031 26.823V4.177A4.177 4.177 0 0026.823 0z" fill="#475993"/></symbol><symbol id="icon-instagram" viewBox="0 0 40 40"><path d="M28.08 0H11.92A11.94 11.94 0 000 11.92v16.16A11.94 11.94 0 0011.92 40h16.16A11.94 11.94 0 0040 28.08V11.92A11.94 11.94 0 0028.08 0zM36 28.08a7.9 7.9 0 01-7.9 7.9H11.92A7.9 7.9 0 014 28.08V11.92A7.9 7.9 0 0111.92 4h16.16a7.9 7.9 0 017.9 7.9z" fill="url(#icon-instagram-a)"/><path d="M20 9.65A10.35 10.35 0 1030.35 20 10.37 10.37 0 0020 9.65zm0 16.67A6.32 6.32 0 1126.32 20 6.32 6.32 0 0120 26.32z" fill="url(#icon-instagram-b)"/><path d="M30.37 12.21a2.48 2.48 0 10-2.48-2.48 2.48 2.48 0 002.48 2.48z" fill="url(#icon-instagram-c)"/></symbol><symbol id="ok"><path d="M7 0C3.14 0 0 3.14 0 7s3.14 7 7 7 7-3.14 7-7-3.14-7-7-7zm3.548 5.517L6.756 9.308a.582.582 0 01-.825 0L4.036 7.412a.583.583 0 11.824-.824L6.344 8.07l3.38-3.38a.583.583 0 11.824.826z" fill="#5D9700"/></symbol><symbol id="zen-white"><g clip-path="url(#clip0)" fill-rule="evenodd" clip-rule="evenodd"><path d="M15.329 0C8.94 0 4.513.022 2.241 2.24.02 4.514 0 9.149 0 15.33c6.863-.207 10.001-.38 12.505-2.824C14.95 10.002 15.122 6.864 15.329 0zM2.24 28.76C.021 26.486 0 21.851 0 15.67c6.863.208 10.002.38 12.505 2.824C14.95 20.998 15.121 24.137 15.33 31c-6.39 0-10.816-.021-13.089-2.24zM15.671 31c.207-6.863.38-10.002 2.824-12.505C20.998 16.05 24.137 15.878 31 15.67c0 6.181-.022 10.816-2.24 13.088C26.486 30.98 22.06 31 15.67 31zm0-31c.207 6.864.38 10.002 2.824 12.505C20.998 14.95 24.137 15.122 31 15.33c0-6.181-.022-10.816-2.24-13.088C26.486.02 22.06 0 15.67 0z" fill="#EEE"/><path d="M18.495 18.495C16.05 20.998 15.878 24.137 15.67 31c6.39 0 10.816-.021 13.088-2.24C30.978 26.486 31 21.851 31 15.67c-6.862.208-10.001.38-12.504 2.824zM0 15.67c0 6.181.021 10.816 2.24 13.088C4.513 30.98 8.94 31 15.33 31c-.208-6.862-.38-10.001-2.824-12.504C10.002 16.05 6.863 15.878 0 15.67zM15.329 0C8.94 0 4.513.022 2.241 2.24.02 4.514 0 9.149 0 15.33c6.863-.207 10.001-.38 12.505-2.824C14.95 10.002 15.122 6.864 15.329 0zm3.166 12.505C16.05 10.002 15.878 6.864 15.67 0c6.39 0 10.816.022 13.088 2.24C30.978 4.514 31 9.149 31 15.33c-6.862-.207-10.001-.38-12.504-2.824z" fill="url(#paint0_linear)"/></g></symbol><symbol id="zen" viewBox="0 0 40 40"><g clip-path="url(#zen-a)" fill-rule="evenodd"><path d="M19.78 0c-8.24 0-14 0-16.89 2.89S0 11.8 0 19.78c8.86-.27 12.91-.49 16.14-3.64S19.51 8.86 19.78 0zM2.89 37.11C0 34.18 0 28.2 0 20.22c8.86.27 12.91.49 16.14 3.64s3.37 7.28 3.64 16.14c-8.24 0-13.96 0-16.89-2.89zM20.22 40c.27-8.86.49-12.91 3.64-16.14s7.28-3.37 16.14-3.64c0 8 0 14-2.89 16.89S28.46 40 20.22 40zm0-40c.27 8.86.49 12.91 3.64 16.14s7.28 3.37 16.14 3.64c0-8 0-14-2.89-16.89S28.46 0 20.22 0z" fill="#2c3036"/><path d="M23.86 23.86c-3.15 3.23-3.37 7.28-3.64 16.14 8.24 0 14 0 16.89-2.89S40 28.2 40 20.22c-8.86.27-12.91.49-16.14 3.64zM0 20.22c0 8 0 14 2.89 16.89S11.54 40 19.78 40c-.27-8.86-.49-12.91-3.64-16.14S8.86 20.49 0 20.22zM19.78 0c-8.24 0-14 0-16.89 2.89S0 11.8 0 19.78c8.86-.27 12.91-.49 16.14-3.64S19.51 8.86 19.78 0zm4.08 16.14C20.71 12.91 20.49 8.86 20.22 0c8.24 0 14 0 16.89 2.89S40 11.8 40 19.78c-8.86-.27-12.91-.49-16.14-3.64z" fill="url(#zen-b)"/><path d="M40 20.22v-.44c-8.86-.27-12.91-.49-16.14-3.64S20.49 8.86 20.22 0h-.44c-.27 8.86-.49 12.91-3.64 16.14S8.86 19.51 0 19.78v.44c8.86.27 12.91.49 16.14 3.64s3.37 7.28 3.64 16.14h.44c.27-8.86.49-12.91 3.64-16.14s7.28-3.37 16.14-3.64z" fill="#fff"/></g></symbol></svg>