<?xml version="1.0" encoding="UTF-8"?><!DOCTYPE svg PUBLIC "-//W3C//DTD SVG 1.1//EN" "http://www.w3.org/Graphics/SVG/1.1/DTD/svg11.dtd"><svg xmlns="http://www.w3.org/2000/svg" xmlns:xlink="http://www.w3.org/1999/xlink"><defs><clipPath id="arrow-short-a"><path fill="none" d="M0 0h14v14H0z"/></clipPath><clipPath id="filter-a"><path fill="none" d="M0 0h8v8H0z"/></clipPath><clipPath id="clip-path"><path fill="none" d="M0 0h19v22H0z"/></clipPath><style>.cls-3{fill:#2d2d2d}</style><style>.cls-1{fill:#2d2d2d}</style><style>.cls-1{fill:#bbb}</style><style>.cls-1{fill:#241f20}</style></defs><symbol id="alarm" viewBox="0 0 32.81 32.81"><path d="M16.44 10.44a2 2 0 00-2 2v5.2L13 19a1.83 1.83 0 00-.59 1.4 2 2 0 002 2 2 2 0 001.39-.6l2.07-2.07a1.85 1.85 0 00.54-1.33v-6a2 2 0 00-1.97-1.96zm0-6A14 14 0 005.25 26.83L3 29.06a1.85 1.85 0 00-.58 1.38 2 2 0 002 2 1.93 1.93 0 001.38-.58l2.23-2.23a13.91 13.91 0 0016.78 0l2.23 2.23a1.87 1.87 0 001.38.59 2 2 0 002-2 1.89 1.89 0 00-.58-1.38l-2.23-2.23a14 14 0 00-11.17-22.4zm0 24a10 10 0 1110-10 10 10 0 01-10 10zm10-28a6 6 0 00-5.07 2.78 16 16 0 019.14 7.61A6 6 0 0026.44.44zM11.5 3.22a6 6 0 10-9.14 7.61 16 16 0 019.14-7.61z"/></symbol><symbol id="arrow-short" viewBox="0 0 14 14"><g clip-path="url(#arrow-short-a)"><path d="M.22 7.54l5.06 5.06a.77.77 0 00.54.22.76.76 0 00.54-.22l.46-.46a.76.76 0 000-1.09l-2.95-3h9.37a.75.75 0 00.76-.71v-.65a.77.77 0 00-.76-.78h-9.4l3-3a.74.74 0 000-1.07l-.48-.44a.72.72 0 00-.54-.22.77.77 0 00-.54.22L.22 6.46a.77.77 0 000 1.08z" fill="#9b0030"/></g></symbol><symbol id="arrow" viewBox="0 0 10 17"><path d="M6.54 8.51l-6-6A.84.84 0 01.3 1.9a.83.83 0 01.26-.61l.52-.53A.87.87 0 011.7.51a.9.9 0 01.62.25l7.12 7.13a.84.84 0 01.26.62.87.87 0 01-.26.62l-7.12 7.12a.86.86 0 01-1.23 0l-.53-.52a.88.88 0 010-1.24z"/></symbol><symbol id="basket" viewBox="0 0 21.92 20.62"><path d="M21.77 3a.67.67 0 00-.53-.25H5.08L4.48.51A.68.68 0 003.82 0H.61a.69.69 0 000 1.37h2.68l.59 2.22 2.2 8.23.74 2.77a.7.7 0 00.67.51h11a.69.69 0 00.77-.6.7.7 0 00-.6-.77H8.02l-.39-1.42 12.27-.62a.66.66 0 00.64-.56l1.37-7.56a.66.66 0 00-.14-.57zM9.55 8.94a.69.69 0 01-.69.68.67.67 0 01-.68-.68V6.19a.67.67 0 01.67-.69.69.69 0 01.69.69zm4.13 0a.69.69 0 11-1.38 0V6.19a.69.69 0 111.38 0zm4.12 0a.69.69 0 01-.69.68.67.67 0 01-.68-.68V6.19a.67.67 0 01.67-.69.69.69 0 01.69.69zM8.86 20.62a2.06 2.06 0 10-2.06-2.06 2.07 2.07 0 002.06 2.06zM17.11 20.62a2.06 2.06 0 10-2.06-2.06 2.07 2.07 0 002.06 2.06z"/></symbol><symbol id="contacts" viewBox="0 0 854.51 1024"><path d="M770.36 0H139.25C92.86 0 55.1 38.27 55.1 85.33v85.34h-21a21.34 21.34 0 000 42.67h84.14a21.33 21.33 0 010 42.66h-42.1a21.17 21.17 0 00-21 21.33V384h-21a21.34 21.34 0 000 42.67h84.14a21.33 21.33 0 010 42.66H76.14a21.18 21.18 0 00-21 21.34v106.66h-21a21.34 21.34 0 000 42.67h84.15a21.34 21.34 0 010 42.67H76.14A21.17 21.17 0 0055.1 704v106.67h-21a21.33 21.33 0 000 42.66h84.15a21.34 21.34 0 010 42.67H76.14a21.17 21.17 0 00-21 21.33v21.34c0 47.06 37.76 85.33 84.15 85.33h631.07c46.39 0 84.15-38.27 84.15-85.33V85.33C854.51 38.27 816.75 0 770.36 0zm-42.07 677.92c0 26.14-21 47.41-46.76 47.41-252.61 0-458.13-208.41-458.13-464.58 0-26.15 21-47.42 46.76-47.42h90c25.76 0 46.76 21.27 46.76 47.42a279.68 279.68 0 0013.55 86.41A48.1 48.1 0 01409 395.5l-36.86 49.77c31.68 59 68.83 96.68 127.46 129.23l51.28-39.27c10.35-10.73 29-15.23 45.77-9.4a267.74 267.74 0 0084.93 13.69c25.76 0 46.75 21.27 46.75 47.41v91z"/></symbol><symbol id="email" viewBox="0 0 14 9.63"><path class="cls-1" d="M9.28 4.89l4.72 3V1.78zM0 1.78v6.09l4.72-3zM13.13 0H.88A.86.86 0 000 .74l7 4.6 7-4.6a.86.86 0 00-.87-.74zM8.48 5.41l-1.24.82a.45.45 0 01-.48 0l-1.24-.82L0 8.89a.87.87 0 00.85.74h12.28a.87.87 0 00.87-.74z"/></symbol><symbol id="facebook" viewBox="0 0 31 31"><path d="M26.82 0H4.18A4.18 4.18 0 000 4.18v22.64A4.18 4.18 0 004.18 31h11.17V19.92h-2.86a.67.67 0 01-.68-.67v-3.58a.69.69 0 01.68-.68h2.88v-3.45c0-4 2.44-6.18 6-6.18h2.93A.67.67 0 0125 6v3a.68.68 0 01-.68.68H22.5c-1.95 0-2.32.92-2.32 2.28v3h4.27a.68.68 0 01.67.76l-.42 3.57a.68.68 0 01-.68.6H20.2v11.08h6.64A4.18 4.18 0 0031 26.82V4.18A4.18 4.18 0 0026.82 0z"/></symbol><symbol id="filter" viewBox="0 0 8 8"><g clip-path="url(#filter-a)"><path d="M3.05 3.78a.51.51 0 01.13.33v3.64a.25.25 0 00.42.18l1-1.16c.14-.17.21-.25.21-.41V4.12A.51.51 0 015 3.78L7.87.62A.37.37 0 007.59 0H.41a.37.37 0 00-.27.62z" fill="#2d2d2d"/></g></symbol><symbol id="grid" viewBox="0 0 30 30"><path class="cls-1" d="M7.86 6.52a1.34 1.34 0 01-1.34 1.34H1.34A1.34 1.34 0 010 6.52V1.34A1.34 1.34 0 011.34 0h5.18a1.34 1.34 0 011.34 1.34zm11.07-5.18A1.34 1.34 0 0017.59 0h-5.18a1.34 1.34 0 00-1.34 1.34v5.18a1.34 1.34 0 001.34 1.34h5.18a1.34 1.34 0 001.34-1.34zm11.07 0A1.34 1.34 0 0028.66 0h-5.18a1.34 1.34 0 00-1.34 1.34v5.18a1.34 1.34 0 001.34 1.34h5.18A1.34 1.34 0 0030 6.52zM18.93 12.41a1.34 1.34 0 00-1.34-1.34h-5.18a1.34 1.34 0 00-1.34 1.34v5.18a1.34 1.34 0 001.34 1.34h5.18a1.34 1.34 0 001.34-1.34zm11.07 0a1.34 1.34 0 00-1.34-1.34h-5.18a1.34 1.34 0 00-1.34 1.34v5.18a1.34 1.34 0 001.34 1.34h5.18A1.34 1.34 0 0030 17.59zm-22.14 0a1.34 1.34 0 00-1.34-1.34H1.34A1.34 1.34 0 000 12.41v5.18a1.34 1.34 0 001.34 1.34h5.18a1.34 1.34 0 001.34-1.34zm9.73 9.73h-5.18a1.34 1.34 0 00-1.34 1.34v5.18A1.34 1.34 0 0012.41 30h5.18a1.34 1.34 0 001.34-1.34v-5.18a1.34 1.34 0 00-1.34-1.34zM23.48 30h5.18A1.34 1.34 0 0030 28.66v-5.18a1.34 1.34 0 00-1.34-1.34h-5.18a1.34 1.34 0 00-1.34 1.34v5.18A1.34 1.34 0 0023.48 30zm-17-7.86H1.34A1.34 1.34 0 000 23.48v5.18A1.34 1.34 0 001.34 30h5.18a1.34 1.34 0 001.34-1.34v-5.18a1.34 1.34 0 00-1.34-1.34z"/></symbol><symbol id="info" viewBox="0 0 12.26 12.26"><path d="M10.34 1.85a6 6 0 100 8.49 6 6 0 000-8.49zm-4.24.49a.9.9 0 11-.9.9.9.9 0 01.9-.9zM7 10H5.2a.77.77 0 110-1.54v-2a.88.88 0 01.12-1.75h.78a.89.89 0 01.9.88v2.82A.8.8 0 117 10z"/></symbol><symbol id="instagram"><path d="M21.765 0H9.235C4.143 0 0 4.143 0 9.235v12.53C0 26.857 4.143 31 9.235 31h12.53C26.857 31 31 26.857 31 21.765V9.235C31 4.143 26.857 0 21.765 0zm6.116 21.765a6.117 6.117 0 01-6.116 6.116H9.235a6.117 6.117 0 01-6.116-6.116V9.235A6.116 6.116 0 019.235 3.12h12.53a6.116 6.116 0 016.116 6.116v12.53z" fill="#EEE"/><path d="M15.5 7.482c-4.421 0-8.018 3.597-8.018 8.018 0 4.421 3.597 8.018 8.018 8.018 4.421 0 8.018-3.597 8.018-8.018 0-4.42-3.597-8.018-8.018-8.018zm0 12.917a4.9 4.9 0 110-9.798 4.9 4.9 0 010 9.798zM23.533 9.464a1.921 1.921 0 100-3.843 1.921 1.921 0 000 3.843z" fill="#EEE"/></symbol><symbol id="member" viewBox="0 0 19 22"><g clip-path="url(#clip-path)"><path class="cls-3" d="M9.66 10.6a5.27 5.27 0 01-3.82-1.55A5.08 5.08 0 014.25 5.3a5 5 0 011.59-3.75A5.27 5.27 0 019.66 0a5.27 5.27 0 013.82 1.55 5 5 0 011.59 3.75 5.07 5.07 0 01-1.59 3.75 5.27 5.27 0 01-3.82 1.55zM.2 16.92a12.64 12.64 0 01.18-1.39 10.6 10.6 0 01.35-1.4 6.54 6.54 0 01.58-1.3 5.11 5.11 0 01.89-1.13 4.08 4.08 0 011.27-.79 4.48 4.48 0 011.62-.28A1.68 1.68 0 016 11c.26.17.57.37.92.58a5.12 5.12 0 001.18.51 4.69 4.69 0 002.9 0 5.12 5.12 0 001.18-.51l.92-.58a1.68 1.68 0 01.88-.36 4.48 4.48 0 011.62.28 4.08 4.08 0 011.27.79 4.8 4.8 0 01.88 1.13 6.59 6.59 0 01.59 1.3 10.6 10.6 0 01.35 1.4 12.64 12.64 0 01.18 1.39c0 .42.05.86.05 1.3A3.64 3.64 0 0117.78 21a4 4 0 01-2.86 1H4.11a4 4 0 01-2.85-1 3.58 3.58 0 01-1.11-2.78c0-.45 0-.88.05-1.3z"/></g></symbol><symbol id="order" viewBox="0 0 741.78 1022.94"><path d="M253 300.1V61.34a37.56 37.56 0 007.67-22.78v-3.79a37.85 37.85 0 00-37.86-37.84h-88.95A37.86 37.86 0 0096 34.77v3.79a37.63 37.63 0 007.68 22.78v238.75C43.41 328.29 1.55 389.47 1.55 460.28v540.49a22.18 22.18 0 0022.17 22.17H333a22.16 22.16 0 0022.15-22.17V460.28c0-70.81-41.86-132-102.11-160.19zM672.86 442.62H451.62c-31.09 38.24-52.08 89-58.74 135.63-14.64 102.33 41.63 196.89 127.46 220.45v152.09h-33.08a21.73 21.73 0 00-21.72 21.73v29.34a21.72 21.72 0 0021.72 21.73h150a21.73 21.73 0 0021.74-21.73v-29.34a21.73 21.73 0 00-21.73-21.73h-33.13V798.7c85.86-23.56 142.1-118.12 127.47-220.45-6.61-46.59-27.61-97.39-58.75-135.63z"/></symbol><symbol id="phone" viewBox="0 0 16.03 16"><g id="&#x421;&#x43B;&#x43E;&#x439;_2" data-name="&#x421;&#x43B;&#x43E;&#x439; 2"><g id="&#x421;&#x43B;&#x43E;&#x439;_1-2"><path class="cls-1" d="M12.19 10.58a1.11 1.11 0 00-1.58-.11l-.11.11-1.19 1.19a.24.24 0 01-.31.1c-.26-.14-.53-.26-.78-.41a12.26 12.26 0 01-3-2.7A7.16 7.16 0 014.19 7a.23.23 0 01.06-.31l1.17-1.15a1.14 1.14 0 00.09-1.6l-.09-.08-.93-1-1-1a1.14 1.14 0 00-1.61-.09l-.09.09C1.39 2.25 1 2.65.6 3A2 2 0 000 4.34a5.82 5.82 0 00.46 2.44A14.68 14.68 0 003 11a16 16 0 005.24 4.11 7.67 7.67 0 002.91.84A2.13 2.13 0 0013 15.3c.34-.38.72-.73 1.08-1.09a1.14 1.14 0 00.13-1.61l-.13-.12zM11.56 7.93l1.22-.21a5.5 5.5 0 00-4.66-4.53L8 4.43a4.27 4.27 0 013.56 3.5z"/><path class="cls-1" d="M13.48 2.59A9 9 0 008.28 0l-.17 1.23a7.91 7.91 0 016.69 6.48l1.2-.2a9.16 9.16 0 00-2.52-4.92z"/></g></g></symbol><symbol id="pin" viewBox="0 0 16.6 22.01"><path d="M8.3 0A8.32 8.32 0 000 8.3c0 6.59 7.41 13.21 7.72 13.49a.9.9 0 001.17 0c.32-.3 7.71-7.28 7.71-13.47A8.32 8.32 0 008.3 0zm0 12.26a4 4 0 113.95-4 4 4 0 01-3.95 4z"/></symbol><symbol id="search" viewBox="0 0 14.21 14.21"><path class="cls-1" d="M1.76 9.79a5.68 5.68 0 018-8 5.56 5.56 0 01.86 6.85.24.24 0 000 .29l2.9 2.9a1.32 1.32 0 01.2 1.89l-.09.09a1.32 1.32 0 01-1.89-.2L8.9 10.69a.23.23 0 00-.29 0 5.56 5.56 0 01-6.85-.9zm7-1a4.19 4.19 0 10-5.93 0 4.19 4.19 0 005.91-.05z"/><path class="cls-1" d="M8.38 6.6a.62.62 0 00.23 0 .58.58 0 00.31-.77 3.69 3.69 0 00-4.84-2 .58.58 0 00-.31.77.59.59 0 00.77.31 2.52 2.52 0 013.3 1.34.58.58 0 00.54.35z"/></symbol><symbol id="star" viewBox="0 0 20 19"><path class="st0" d="M10 0l2.2 6.9h7.3l-5.9 4.3 2.2 6.9-5.8-4.3-5.9 4.3 2.2-6.9L.5 6.9h7.3L10 0z"/></symbol><symbol id="user" viewBox="0 0 44.34 48"><g id="&#x421;&#x43B;&#x43E;&#x439;_2" data-name="&#x421;&#x43B;&#x43E;&#x439; 2"><g id="Layer_3" data-name="Layer 3"><g id="Layer_3-2" data-name="Layer 3-2"><circle class="cls-1" cx="22.12" cy="11.71" r="11.71"/><path class="cls-1" d="M32.34 23.26a15.4 15.4 0 01-20.4 0A23.35 23.35 0 000 43.88 23.72 23.72 0 00.36 48H44a23.72 23.72 0 00.36-4.12 23.34 23.34 0 00-12.02-20.62z"/></g></g></g></symbol></svg>