<svg xmlns="http://www.w3.org/2000/svg" xmlns:xlink="http://www.w3.org/1999/xlink" viewBox="0 0 403 163"><defs><linearGradient id="Безымянный_градиент" x1="54.2" y1="554.17" x2="54.2" y2="476.66" gradientTransform="matrix(1 0 0 -1 0 598)" gradientUnits="userSpaceOnUse"><stop offset="0" stop-color="#a10912"/><stop offset="1" stop-color="#e89515"/></linearGradient><linearGradient id="Безымянный_градиент_2" x1="150.74" y1="453.87" x2="394.9" y2="476.98" gradientTransform="matrix(1 0 0 -1 0 598)" gradientUnits="userSpaceOnUse"><stop offset="0" stop-color="#b12333"/><stop offset="1" stop-color="#6b1629"/></linearGradient><linearGradient id="Безымянный_градиент_3" x1="151.39" y1="447" x2="395.56" y2="470.12" xlink:href="#Безымянный_градиент_2"/><linearGradient id="Безымянный_градиент_4" x1="151.15" y1="449.5" x2="395.32" y2="472.61" xlink:href="#Безымянный_градиент_2"/><linearGradient id="Безымянный_градиент_5" x1="151.21" y1="448.9" x2="395.38" y2="472.01" xlink:href="#Безымянный_градиент_2"/><linearGradient id="Безымянный_градиент_6" x1="151.29" y1="448.13" x2="395.43" y2="471.24" xlink:href="#Безымянный_градиент_2"/><linearGradient id="Безымянный_градиент_7" x1="151.65" y1="444.24" x2="395.82" y2="467.35" xlink:href="#Безымянный_градиент_2"/><linearGradient id="Безымянный_градиент_8" x1="151.76" y1="443.06" x2="395.93" y2="466.18" xlink:href="#Безымянный_градиент_2"/><linearGradient id="Безымянный_градиент_9" x1="151.71" y1="443.57" x2="395.88" y2="466.68" xlink:href="#Безымянный_градиент_2"/><linearGradient id="Безымянный_градиент_10" x1="152.02" y1="440.37" x2="396.18" y2="463.49" xlink:href="#Безымянный_градиент_2"/><linearGradient id="Безымянный_градиент_11" x1="151.98" y1="440.83" x2="396.14" y2="463.94" xlink:href="#Безымянный_градиент_2"/><linearGradient id="Безымянный_градиент_12" x1="152.32" y1="437.25" x2="396.48" y2="460.36" xlink:href="#Безымянный_градиент_2"/><linearGradient id="Безымянный_градиент_13" x1="152.45" y1="435.83" x2="396.61" y2="458.94" xlink:href="#Безымянный_градиент_2"/><linearGradient id="Безымянный_градиент_14" x1="152.59" y1="434.35" x2="396.75" y2="457.46" xlink:href="#Безымянный_градиент_2"/><linearGradient id="Безымянный_градиент_15" x1="152.95" y1="430.51" x2="397.12" y2="453.63" xlink:href="#Безымянный_градиент_2"/><style>.cls-1{fill:#fff}</style></defs><path class="cls-1" d="M54.16 153a26 26 0 1126-26 26 26 0 01-26 26m0-46.91a20.94 20.94 0 1021 20.94 21 21 0 00-21-20.94"/><path d="M7.51 85.35A46.69 46.69 0 1054.2 38.77 46.64 46.64 0 007.51 85.35" fill="url(#Безымянный_градиент)"/><path class="cls-1" d="M54.2 106.11A49.09 49.09 0 11103.4 57a49.2 49.2 0 01-49.2 49.09m0-93.09a44.06 44.06 0 1044.17 44A44.17 44.17 0 0054.2 13"/><path d="M155.93 133.61h2.14v8a4.94 4.94 0 014.39-2.41c3.44 0 5.94 2.87 5.94 6.91s-2.49 6.91-5.94 6.91a5 5 0 01-4.53-2.52l-.27 2.2h-1.73v-19.09zm6 7.35a3.84 3.84 0 00-3.9 4.09v2.11a3.82 3.82 0 003.9 4.09c2.47 0 4.26-2.11 4.26-5.15s-1.78-5.1-4.19-5.1z" fill="url(#Безымянный_градиент_2)"/><path d="M176.94 154.68c-1.08 2.74-2.44 4-4.55 4a8.09 8.09 0 01-1.84-.24l.3-1.74a5.23 5.23 0 001.33.22c1.33 0 2.11-.76 2.82-2.6l.68-1.71-5.45-13.07h2.25l4.23 10.68 4.09-10.68h2.28z" fill="url(#Безымянный_градиент_3)"/><path d="M198.21 134.48h2.09l7.51 18.22h-2.28l-2-5H195l-2 5h-2.28zm-2.6 11.52h7.27l-3.63-9z" fill="url(#Безымянный_градиент_4)"/><path d="M212.63 149.66a1.49 1.49 0 001.6 1.6 5.92 5.92 0 001.3-.19l.27 1.71a9.77 9.77 0 01-2 .24 3 3 0 01-3.28-3.17v-16.24h2.14z" fill="url(#Безымянный_градиент_5)"/><path d="M219.3 134.07a1.44 1.44 0 11-1.46 1.44 1.39 1.39 0 011.46-1.44zm-1.08 5.45h2.14v13.18h-2.14z" fill="url(#Безымянный_градиент_6)"/><path d="M229.71 144.7a11.73 11.73 0 013 .38v-1.36a2.92 2.92 0 00-3.23-2.87 11 11 0 00-4.36 1l-.6-1.57a14.46 14.46 0 015.21-1.06c3 0 5 1.84 5 4.58v6.37a1.09 1.09 0 001.19 1.19 4.51 4.51 0 00.7-.08l.16 1.63a7.83 7.83 0 01-1.41.14 2.35 2.35 0 01-2.52-2.2 5.78 5.78 0 01-4.58 2.2c-2.6 0-4.58-1.71-4.58-4 0-2.75 2.31-4.35 6.02-4.35zm-.92 6.75a3.75 3.75 0 003.88-4v-1.11a11.61 11.61 0 00-2.71-.33c-2.6 0-4.15 1.08-4.15 2.87a2.7 2.7 0 002.98 2.57z" fill="url(#Безымянный_градиент_7)"/><path d="M239.19 139.52h1.74l.27 2.41a5.15 5.15 0 014.74-2.74 4.76 4.76 0 015 4.91v8.59h-2.17v-8.27a3.31 3.31 0 00-3.47-3.42 4 4 0 00-4 4.26v7.43h-2.14v-13.17z" fill="url(#Безымянный_градиент_8)"/><path d="M258.44 139.52h4.15v1.71h-4.15V149a2.16 2.16 0 002.28 2.28 8.35 8.35 0 001.87-.27l.3 1.68a10.35 10.35 0 01-2.63.35 3.71 3.71 0 01-4-3.85v-7.94h-2.74v-1.71h2.74v-3.9h2.14z" fill="url(#Безымянный_градиент_9)"/><path d="M270.93 144.7a11.73 11.73 0 013 .38v-1.36a2.92 2.92 0 00-3.23-2.87 11.05 11.05 0 00-4.37 1l-.6-1.57a14.46 14.46 0 015.21-1.06c3 0 5 1.84 5 4.58v6.37a1.09 1.09 0 001.19 1.19 4.51 4.51 0 00.7-.08l.16 1.63a7.83 7.83 0 01-1.41.14 2.35 2.35 0 01-2.52-2.2 5.78 5.78 0 01-4.58 2.2c-2.6 0-4.58-1.71-4.58-4 .02-2.75 2.29-4.35 6.03-4.35zm-.92 6.75a3.75 3.75 0 003.88-4v-1.11a11.61 11.61 0 00-2.71-.33c-2.6 0-4.15 1.08-4.15 2.87a2.72 2.72 0 002.97 2.57z" fill="url(#Безымянный_градиент_10)"/><path d="M302 151.53a15.13 15.13 0 01-6.45 1.49 9 9 0 01-9.41-9.43c0-5.53 3.8-9.43 9.19-9.43a12.88 12.88 0 016.37 1.82l-.84 1.55a11 11 0 00-5.29-1.6c-4.26 0-7.21 3.17-7.21 7.67s3 7.67 7.35 7.67a10.1 10.1 0 004.2-.92v-5.42h-4.61v-1.68h6.7v8.28z" fill="url(#Безымянный_градиент_11)"/><path d="M306 139.52h1.74L308 142a4.24 4.24 0 014.09-2.71 7.21 7.21 0 011.65.22l-.24 1.76a7.74 7.74 0 00-1.57-.19c-2.25 0-3.8 1.82-3.8 4.47v7.13H306v-13.16z" fill="url(#Безымянный_градиент_12)"/><path d="M322.14 139.2a6.91 6.91 0 11-6.72 6.91 6.54 6.54 0 016.72-6.91zm0 12.09c2.63 0 4.5-2.11 4.5-5.18s-1.87-5.18-4.5-5.18-4.5 2.14-4.5 5.18 1.84 5.18 4.5 5.18z" fill="url(#Безымянный_градиент_13)"/><path d="M343.71 152.7H342l-.27-2.41a5.23 5.23 0 01-4.77 2.74 4.74 4.74 0 01-5-4.91v-8.59h2.14v8.3a3.29 3.29 0 003.47 3.39 4 4 0 004-4.26v-7.43h2.17v13.17z" fill="url(#Безымянный_градиент_14)"/><path d="M348 139.52h1.74l.27 2.2a5 5 0 014.53-2.52c3.44 0 5.94 2.87 5.94 6.91S358 153 354.51 153a5 5 0 01-4.39-2.39v7.7H348v-18.79zm6 1.44a3.84 3.84 0 00-3.9 4.09v2.11a3.82 3.82 0 003.9 4.09c2.47 0 4.26-2.11 4.26-5.15s-1.81-5.1-4.26-5.1z" fill="url(#Безымянный_градиент_15)"/><path class="cls-1" d="M153.6 7.93L165.07 37 176.8 5.84 188.14 37 200 7.93h7.17l-19.42 46.28-11.34-30.83-11.47 30.83-18.51-46.28zm68.95 0v43.48h-6.64V7.93zm13.69 43.48V5l31.55 33.05V7.94h6.65v46.15L242.89 21v30.41zm75.87-37.22h-17.34v10.36h16.82v6.26h-16.82v14.34h17.34v6.26h-24V7.93h24zM175.37 73.21H158v10.36h16.82v6.26H158v14.34h17.34v6.26h-24V67h24zm20.98 14.53L184.36 67h7.43l8.47 14.73L208.93 67h7.43l-12.51 20.74L217 110.42h-7.43L200 93.8l-9.91 16.62h-7.43zM235.66 67c2.67 0 6.39.26 9.52 2.35a12.58 12.58 0 015.41 10.56 12.18 12.18 0 01-4.24 9.52c-3.45 2.93-7.43 3.39-10.62 3.39h-3v17.66h-6.65V67zm-2.94 19.68h3c5.74 0 8.47-2.8 8.47-6.84 0-2.41-1-6.71-8.54-6.71h-2.93zM268.38 67c5.28 0 8.67.65 11.47 2.54A12.12 12.12 0 01285 79.72a11.92 11.92 0 01-9.65 12.12l13.56 18.58h-8l-12.47-17.79h-1.17v17.79h-6.65V66.94h7.76zm-1.11 19.94h2.09c1.83 0 9.26-.2 9.26-7.1 0-6.13-5.8-6.71-9.06-6.71h-2.28v13.76zm55.4-13.73h-17.34v10.36h16.82v6.26h-16.82v14.34h17.34v6.26h-24V67h24zm30.63 3.39a6.73 6.73 0 00-6.65-4.3c-4 0-6.13 2.41-6.13 5.21 0 1.3.46 3.58 4.69 5.28l4.37 1.76c8 3.26 10.23 7.82 10.23 12.77 0 8.28-5.87 14-14 14a12.69 12.69 0 01-10.23-4.37 14 14 0 01-3.65-8.47L338.5 97a9.35 9.35 0 001.83 5.54 6.84 6.84 0 005.67 2.61 7 7 0 007.17-7.3c0-4.43-3.39-6.26-6.26-7.43l-4.17-1.76c-3.58-1.5-8.86-4.5-8.86-11 0-5.87 4.56-11.47 12.71-11.47a12.81 12.81 0 018.73 2.93 14.73 14.73 0 013.32 4.37zm36.9 0a6.7 6.7 0 00-6.64-4.3c-4 0-6.13 2.41-6.13 5.21 0 1.3.46 3.58 4.69 5.28l4.37 1.76c8 3.26 10.23 7.82 10.23 12.77 0 8.28-5.87 14-14 14a12.69 12.69 0 01-10.23-4.37 14 14 0 01-3.65-8.47l6.57-1.48a9.35 9.35 0 001.83 5.54 6.84 6.84 0 005.67 2.61 7 7 0 007.17-7.3c0-4.43-3.39-6.26-6.26-7.43l-4.17-1.76c-3.58-1.5-8.86-4.5-8.86-11 0-5.87 4.56-11.47 12.71-11.47a12.81 12.81 0 018.73 2.93 14.73 14.73 0 013.32 4.37z"/></svg>