<svg xmlns="http://www.w3.org/2000/svg" xmlns:xlink="http://www.w3.org/1999/xlink" viewBox="0 0 402 166.24"><defs><linearGradient id="Безымянный_градиент" x1="54.29" y1="123.88" x2="54.29" y2="46.37" gradientTransform="matrix(1 0 0 -1 0 169.04)" gradientUnits="userSpaceOnUse"><stop offset="0" stop-color="#a10912"/><stop offset="1" stop-color="#e89515"/></linearGradient><linearGradient id="Безымянный_градиент_2" x1="150.83" y1="23.58" x2="394.99" y2="46.69" gradientTransform="matrix(1 0 0 -1 0 169.04)" gradientUnits="userSpaceOnUse"><stop offset="0" stop-color="#b12333"/><stop offset="1" stop-color="#6b1629"/></linearGradient><linearGradient id="Безымянный_градиент_3" x1="151.48" y1="16.71" x2="395.65" y2="39.83" xlink:href="#Безымянный_градиент_2"/><linearGradient id="Безымянный_градиент_4" x1="151.24" y1="19.21" x2="395.41" y2="42.33" xlink:href="#Безымянный_градиент_2"/><linearGradient id="Безымянный_градиент_5" x1="151.3" y1="18.61" x2="395.47" y2="41.73" xlink:href="#Безымянный_градиент_2"/><linearGradient id="Безымянный_градиент_6" x1="151.38" y1="17.84" x2="395.52" y2="40.95" xlink:href="#Безымянный_градиент_2"/><linearGradient id="Безымянный_градиент_7" x1="151.74" y1="13.95" x2="395.91" y2="37.07" xlink:href="#Безымянный_градиент_2"/><linearGradient id="Безымянный_градиент_8" x1="151.85" y1="12.77" x2="396.02" y2="35.89" xlink:href="#Безымянный_градиент_2"/><linearGradient id="Безымянный_градиент_9" x1="151.8" y1="13.28" x2="395.97" y2="36.39" xlink:href="#Безымянный_градиент_2"/><linearGradient id="Безымянный_градиент_10" x1="152.11" y1="10.09" x2="396.27" y2="33.2" xlink:href="#Безымянный_градиент_2"/><linearGradient id="Безымянный_градиент_11" x1="152.07" y1="10.54" x2="396.23" y2="33.65" xlink:href="#Безымянный_градиент_2"/><linearGradient id="Безымянный_градиент_12" x1="152.41" y1="6.96" x2="396.57" y2="30.07" xlink:href="#Безымянный_градиент_2"/><linearGradient id="Безымянный_градиент_13" x1="152.54" y1="5.54" x2="396.7" y2="28.65" xlink:href="#Безымянный_градиент_2"/><linearGradient id="Безымянный_градиент_14" x1="152.68" y1="4.06" x2="396.84" y2="27.17" xlink:href="#Безымянный_градиент_2"/><linearGradient id="Безымянный_градиент_15" x1="153.04" y1=".22" x2="397.21" y2="23.34" xlink:href="#Безымянный_градиент_2"/></defs><path d="M54.25 154.35a26 26 0 1126-26 26 26 0 01-26 26m0-46.91a20.94 20.94 0 1021 20.94 21 21 0 00-21-20.94"/><path d="M7.6 86.68A46.69 46.69 0 1054.29 40.1 46.64 46.64 0 007.6 86.68" fill="url(#Безымянный_градиент)"/><path d="M54.29 107.44a49.09 49.09 0 1149.2-49.09 49.2 49.2 0 01-49.2 49.09m0-93.15a44.06 44.06 0 1044.17 44.06 44.17 44.17 0 00-44.17-44.06"/><path d="M156 134.94h2.14v8a4.94 4.94 0 014.39-2.41c3.44 0 5.94 2.87 5.94 6.91s-2.49 6.91-5.94 6.91a5 5 0 01-4.53-2.52l-.27 2.2H156v-19.09zm6 7.35a3.84 3.84 0 00-3.9 4.09v2.11a3.82 3.82 0 003.9 4.09c2.47 0 4.26-2.11 4.26-5.15s-1.76-5.14-4.26-5.14z" fill="url(#Безымянный_градиент_2)"/><path d="M177 156c-1.08 2.74-2.44 4-4.55 4a8.09 8.09 0 01-1.84-.24l.3-1.74a5.23 5.23 0 001.33.22c1.33 0 2.11-.76 2.82-2.6l.68-1.71-5.45-13.07h2.25l4.23 10.68 4.09-10.68h2.28z" fill="url(#Безымянный_градиент_3)"/><path d="M198.3 135.81h2.09L207.9 154h-2.28l-2-5h-8.54l-2 5h-2.28zm-2.6 11.52h7.3l-3.63-9z" fill="url(#Безымянный_градиент_4)"/><path d="M212.72 151a1.49 1.49 0 001.6 1.6 5.92 5.92 0 001.3-.19l.27 1.71a9.77 9.77 0 01-2 .24 3 3 0 01-3.28-3.17v-16.25h2.14z" fill="url(#Безымянный_градиент_5)"/><path d="M219.39 135.4a1.44 1.44 0 11-1.46 1.44 1.39 1.39 0 011.46-1.44zm-1.08 5.45h2.14V154h-2.14z" fill="url(#Безымянный_градиент_6)"/><path d="M229.8 146a11.73 11.73 0 013 .38v-1.36a2.92 2.92 0 00-3.23-2.87 11 11 0 00-4.36 1l-.6-1.57a14.46 14.46 0 015.21-1.06c3 0 5 1.84 5 4.58v6.37a1.09 1.09 0 001.19 1.19 4.51 4.51 0 00.7-.08l.16 1.63a7.83 7.83 0 01-1.41.14 2.35 2.35 0 01-2.52-2.2 5.78 5.78 0 01-4.58 2.2c-2.6 0-4.58-1.71-4.58-4 0-2.72 2.28-4.35 6.02-4.35zm-.92 6.75a3.75 3.75 0 003.88-4v-1.11a11.61 11.61 0 00-2.71-.33c-2.6 0-4.15 1.08-4.15 2.87a2.7 2.7 0 002.98 2.6z" fill="url(#Безымянный_градиент_7)"/><path d="M239.28 140.85H241l.27 2.41a5.15 5.15 0 014.74-2.74 4.76 4.76 0 015 4.91V154h-2.17v-8.27a3.31 3.31 0 00-3.47-3.42 4 4 0 00-4 4.26V154h-2.14v-13.15z" fill="url(#Безымянный_градиент_8)"/><path d="M258.53 140.85h4.15v1.71h-4.15v7.75a2.16 2.16 0 002.28 2.28 8.35 8.35 0 001.87-.27L263 154a10.35 10.35 0 01-2.63.35 3.71 3.71 0 01-4-3.85v-7.94h-2.74v-1.71h2.74V137h2.14z" fill="url(#Безымянный_градиент_9)"/><path d="M271 146a11.73 11.73 0 013 .38v-1.36a2.92 2.92 0 00-3.23-2.87 11.05 11.05 0 00-4.37 1l-.6-1.57a14.46 14.46 0 015.21-1.06c3 0 5 1.84 5 4.58v6.37a1.09 1.09 0 001.19 1.19 4.51 4.51 0 00.7-.08l.16 1.63a7.83 7.83 0 01-1.41.14 2.35 2.35 0 01-2.52-2.2 5.78 5.78 0 01-4.58 2.2c-2.6 0-4.58-1.71-4.58-4 .03-2.72 2.31-4.35 6.03-4.35zm-.92 6.75a3.75 3.75 0 003.88-4v-1.11a11.61 11.61 0 00-2.71-.33c-2.6 0-4.15 1.08-4.15 2.87a2.72 2.72 0 003 2.6z" fill="url(#Безымянный_градиент_10)"/><path d="M302.06 152.86a15.13 15.13 0 01-6.45 1.49 9 9 0 01-9.41-9.43c0-5.53 3.8-9.43 9.19-9.43a12.88 12.88 0 016.37 1.82l-.84 1.55a11 11 0 00-5.29-1.6c-4.26 0-7.21 3.17-7.21 7.67s3 7.67 7.35 7.67a10.1 10.1 0 004.2-.92v-5.42h-4.58v-1.68h6.67v8.28z" fill="url(#Безымянный_градиент_11)"/><path d="M306.07 140.85h1.74l.27 2.49a4.24 4.24 0 014.09-2.71 7.21 7.21 0 011.65.22l-.24 1.76a7.74 7.74 0 00-1.57-.19c-2.25 0-3.8 1.82-3.8 4.47V154h-2.14v-13.15z" fill="url(#Безымянный_градиент_12)"/><path d="M322.23 140.53a6.91 6.91 0 11-6.72 6.91 6.54 6.54 0 016.72-6.91zm0 12.09c2.63 0 4.5-2.11 4.5-5.18s-1.87-5.18-4.5-5.18-4.5 2.14-4.5 5.18 1.84 5.18 4.5 5.18z" fill="url(#Безымянный_градиент_13)"/><path d="M343.8 154h-1.74l-.27-2.41a5.23 5.23 0 01-4.77 2.74 4.74 4.74 0 01-5-4.91v-8.59h2.14v8.3a3.29 3.29 0 003.47 3.39 4 4 0 004-4.26v-7.43h2.17V154z" fill="url(#Безымянный_градиент_14)"/><path d="M348.06 140.85h1.74l.27 2.2a5 5 0 014.53-2.52c3.44 0 5.94 2.87 5.94 6.91s-2.49 6.91-5.94 6.91a5 5 0 01-4.39-2.39v7.7h-2.14v-18.81zm6 1.44a3.84 3.84 0 00-3.9 4.09v2.11a3.82 3.82 0 003.9 4.09c2.47 0 4.26-2.11 4.26-5.15s-1.78-5.14-4.25-5.14z" fill="url(#Безымянный_градиент_15)"/><path d="M153.69 9.26l11.47 29.07 11.73-31.16 11.34 31.16 11.86-29.07h7.17l-19.42 46.28-11.34-30.83L165 55.54 146.52 9.26zm68.95 0v43.48H216V9.26zm13.69 43.48V6.33l31.55 33.05V9.27h6.65v46.15L243 22.37v30.37zm75.87-37.22h-17.34v10.36h16.82v6.26h-16.82v14.34h17.34v6.26h-24V9.26h24zM175.46 74.54h-17.34V84.9h16.82v6.26h-16.82v14.34h17.34v6.26h-24V68.28h24zm20.98 14.53l-12-20.79h7.43L200.35 83 209 68.28h7.43l-12.49 20.79L217 111.75h-7.43l-9.52-16.62-9.91 16.62h-7.43zm39.31-20.79c2.67 0 6.39.26 9.52 2.35a12.58 12.58 0 015.41 10.56 12.18 12.18 0 01-4.24 9.52C243 93.64 239 94.1 235.82 94.1h-3v17.66h-6.65V68.28zM232.81 88h3c5.74 0 8.47-2.8 8.47-6.84 0-2.41-1-6.71-8.54-6.71h-2.93zm35.66-19.72c5.28 0 8.67.65 11.47 2.54a12.12 12.12 0 015.15 10.23 11.92 11.92 0 01-9.65 12.12L289 111.75h-8L268.53 94h-1.17v17.79h-6.65V68.27h7.76zm-1.11 19.94h2.09c1.83 0 9.26-.2 9.26-7.1 0-6.13-5.8-6.71-9.06-6.71h-2.28v13.81zm55.4-13.68h-17.34V84.9h16.82v6.26h-16.82v14.34h17.34v6.26h-24V68.28h24zm30.63 3.39a6.73 6.73 0 00-6.65-4.3c-4 0-6.13 2.41-6.13 5.21 0 1.3.46 3.58 4.69 5.28l4.37 1.76c8 3.26 10.23 7.82 10.23 12.77 0 8.28-5.87 13.95-14 13.95a12.69 12.69 0 01-10.23-4.37 14 14 0 01-3.67-8.47l6.58-1.43a9.35 9.35 0 001.83 5.54 6.84 6.84 0 005.67 2.61 7 7 0 007.17-7.3c0-4.43-3.39-6.26-6.26-7.43L342.83 90c-3.58-1.5-8.86-4.5-8.86-11 0-5.87 4.56-11.47 12.71-11.47a12.81 12.81 0 018.73 2.93 14.73 14.73 0 013.32 4.37zm36.9 0a6.7 6.7 0 00-6.64-4.3c-4 0-6.13 2.41-6.13 5.21 0 1.3.46 3.58 4.69 5.28l4.37 1.76c8 3.26 10.23 7.82 10.23 12.77 0 8.28-5.87 13.95-14 13.95a12.69 12.69 0 01-10.23-4.37 14 14 0 01-3.65-8.47l6.58-1.43a9.35 9.35 0 001.83 5.54 6.84 6.84 0 005.67 2.61 7 7 0 007.17-7.3c0-4.43-3.39-6.26-6.26-7.43L379.74 90c-3.58-1.5-8.86-4.5-8.86-11 0-5.87 4.56-11.47 12.71-11.47a12.81 12.81 0 018.73 2.93 14.73 14.73 0 013.32 4.37z"/></svg>