<svg width="130" height="37" fill="none" xmlns="http://www.w3.org/2000/svg"><g clip-path="url(#clip0)"><path d="M52.075 29.22h4.058a5.039 5.039 0 01-.983 3.121 4.47 4.47 0 01-1.628 1.213 4.564 4.564 0 01-2.01.376 4.953 4.953 0 01-1.93-.33 4.867 4.867 0 01-1.639-1.047 4.743 4.743 0 01-1.082-1.595 4.657 4.657 0 01-.35-1.884 4.728 4.728 0 01.365-1.892c.25-.6.623-1.144 1.094-1.6a4.942 4.942 0 011.646-1.056 5.027 5.027 0 011.938-.34 4.742 4.742 0 013.029 1.023c.445.325.836.715 1.16 1.155l-.508.396a4.42 4.42 0 00-3.18-2.003 4.428 4.428 0 00-2.425.387 4.308 4.308 0 00-1.821 1.612 4.175 4.175 0 00-.636 2.321 4.09 4.09 0 00.297 1.642c.21.522.528.997.931 1.396.404.4.886.715 1.417.927a4.34 4.34 0 001.675.309 4.091 4.091 0 001.884-.395 3.994 3.994 0 001.479-1.208 4.226 4.226 0 00.638-1.96h-3.422l.003-.569zm11.768 4.543l-3.132-4.475h-.29v4.475h-.639v-9.48h1.394a3.434 3.434 0 012.043.482c.327.23.59.537.765.892a2.3 2.3 0 01.235 1.14 2.243 2.243 0 01-.409 1.423 2.328 2.328 0 01-1.215.878 3.779 3.779 0 01-1.188.183l3.16 4.475-.724.007zm-3.422-5.044h.94c1.376 0 2.202-.694 2.202-1.928a1.73 1.73 0 00-.189-.943 1.777 1.777 0 00-.666-.705 3.492 3.492 0 00-1.479-.285h-.798l-.01 3.861zm17.068.33a4.832 4.832 0 01-.836 2.733 4.996 4.996 0 01-2.249 1.817 5.124 5.124 0 01-2.901.287 5.055 5.055 0 01-2.576-1.34 4.877 4.877 0 01-1.378-2.513 4.809 4.809 0 01.283-2.84 4.934 4.934 0 011.85-2.205 5.1 5.1 0 012.791-.827c.66-.01 1.316.11 1.928.351a4.948 4.948 0 011.636 1.057c.467.456.837.998 1.086 1.596.25.598.374 1.239.366 1.884zm-.667 0a4.192 4.192 0 00-.756-2.353 4.335 4.335 0 00-1.963-1.547 4.443 4.443 0 00-2.511-.224 4.382 4.382 0 00-2.217 1.177 4.227 4.227 0 00-1.177 2.18 4.17 4.17 0 00.257 2.454 4.28 4.28 0 001.605 1.902 4.422 4.422 0 002.413.712 4.372 4.372 0 001.685-.313 4.302 4.302 0 001.424-.933c.406-.402.725-.88.938-1.404a4.12 4.12 0 00.302-1.651zm4.959-4.766v5.928c0 .895.043 1.478.404 2.047.564.895 1.625 1.093 2.25 1.093.623 0 1.68-.198 2.244-1.093.355-.569.408-1.152.408-2.047v-5.928h.635v5.928c0 1.04-.057 1.735-.55 2.428a3.52 3.52 0 01-1.222.941 3.595 3.595 0 01-3.035 0 3.52 3.52 0 01-1.223-.94c-.493-.694-.55-1.388-.55-2.429v-5.928h.639zm10.754 4.977v4.51h-.638v-9.487h1.872c1.579 0 2.838.853 2.838 2.47 0 1.616-1.142 2.5-2.81 2.5l-1.262.008zm0-.568h1.277c1.259 0 2.128-.725 2.128-1.919 0-1.193-.809-1.914-2.217-1.914H92.55l-.014 3.833zM55.686 13.62h-5.558l-1.451 3.086h-2.128l6.448-13.511 6.207 13.511h-2.128l-1.39-3.087zm-.798-1.805l-1.923-4.322-2.022 4.322h3.945zm9.63-7.822v10.913h3.82v1.8h-5.785V3.994h1.965zm9.366 0h-1.961V16.71h1.961V3.993zm12.489 9.627h-5.568l-1.447 3.086h-2.129l6.449-13.511 6.207 13.511h-2.15l-1.362-3.087zm-.801-1.805l-1.93-4.322-2.018 4.322h3.948zm7.66 4.891V3.13l9.481 9.7V3.992h1.962v13.49l-9.481-9.678v8.901h-1.962zm19.871-10.909v10.91h-1.962V5.797h-2.99V3.993h7.935v1.804h-2.983zm13.389 7.823h-5.568l-1.447 3.086h-2.128l6.437-13.511 6.204 13.511h-2.128l-1.37-3.087zm-.801-1.805l-1.93-4.322-2.018 4.322h3.948z" fill="#1B1C20"/><path d="M16.678 10.445L15.39 7.601h7.048l-1.284 2.844h1.39l1.845-4.09h-10.95l1.848 4.09h1.39z" fill="url(#paint0_linear)"/><path d="M21.154 26.555l1.284 2.845H15.39l1.288-2.845h-1.39l-1.848 4.087h10.949l-1.845-4.087h-1.39z" fill="url(#paint1_linear)"/><path d="M6.498 23.853l4.182-1.804v-1.36l-2.91 1.256v-6.893l2.909 1.26v-1.36l-4.182-1.808v10.709z" fill="url(#paint2_linear)"/><path d="M27.151 16.311l2.909-1.259v6.893l-2.909-1.256v1.36l4.179 1.804V13.144l-4.179 1.807v1.36z" fill="url(#paint3_linear)"/><path d="M23.537 13.099l.901.877 2.309-2.258c.567-.552-.046-1.714-.046-1.714L23.537 13.1z" fill="url(#paint4_linear)"/><path d="M13.393 13.976l.897-.877-3.16-3.095s-.614 1.162-.05 1.714l2.313 2.258z" fill="url(#paint5_linear)"/><path d="M24.438 23.023l-.9.878 3.163 3.094s.613-1.162.046-1.713l-2.309-2.259z" fill="url(#paint6_linear)"/><path d="M13.393 23.023l-2.313 2.259c-.564.551.05 1.713.05 1.713l3.16-3.094-.897-.878z" fill="url(#paint7_linear)"/><path d="M18.916 0a19.22 19.22 0 00-10.51 3.118A18.595 18.595 0 001.44 11.42 18.123 18.123 0 00.363 22.11a18.378 18.378 0 005.177 9.47 19.05 19.05 0 009.685 5.064 19.31 19.31 0 0010.93-1.053 18.83 18.83 0 008.488-6.814A18.212 18.212 0 0037.831 18.5c-.006-4.905-2-9.607-5.547-13.075C28.739 1.956 23.93.005 18.916 0zm0 35.769a17.94 17.94 0 01-9.81-2.91 17.357 17.357 0 01-6.503-7.75 16.916 16.916 0 01-1.005-9.978A17.154 17.154 0 016.431 6.29a17.782 17.782 0 019.04-4.726 18.025 18.025 0 0110.201.983 17.578 17.578 0 017.924 6.36 17 17 0 012.976 9.594c-.005 4.578-1.867 8.968-5.177 12.206-3.31 3.237-7.798 5.058-12.48 5.063z" fill="url(#paint8_linear)"/><path d="M22.179 15.513l.918-.843a5.773 5.773 0 00-3.457-1.729 5.832 5.832 0 00-3.79.826 5.622 5.622 0 00-2.382 3 5.487 5.487 0 00.123 3.796 5.645 5.645 0 002.57 2.848 5.84 5.84 0 003.836.59 5.754 5.754 0 003.339-1.939 5.527 5.527 0 001.308-3.576v-.6h-3.327l-1.809-3.715a4.454 4.454 0 012.67 1.342zm-3.86-1.342l-3.213 6.59a4.282 4.282 0 01-.215-4.145 4.4 4.4 0 011.398-1.646 4.519 4.519 0 012.03-.8zM16 21.802l1.309-2.688h3.213l1.31 2.695a4.514 4.514 0 01-2.916 1.063A4.513 4.513 0 0116 21.809v-.007zm7.342-2.692a4.274 4.274 0 01-.62 1.666l-.81-1.666h1.43zm-5.434-1.224l1.008-2.081 1.007 2.08h-2.015z" fill="url(#paint9_linear)"/></g><defs><linearGradient id="paint0_linear" x1="5.768" y1="1.169" x2="40.48" y2="19.826" gradientUnits="userSpaceOnUse"><stop stop-color="#B22332"/><stop offset="1" stop-color="#6B172A"/></linearGradient><linearGradient id="paint1_linear" x1="-83.351" y1="235.495" x2="379.449" y2="887.381" gradientUnits="userSpaceOnUse"><stop stop-color="#B22332"/><stop offset="1" stop-color="#6B172A"/></linearGradient><linearGradient id="paint2_linear" x1="-8.807" y1="455.199" x2="497.276" y2="559.072" gradientUnits="userSpaceOnUse"><stop stop-color="#B22332"/><stop offset="1" stop-color="#6B172A"/></linearGradient><linearGradient id="paint3_linear" x1="73.488" y1="154.713" x2="579.211" y2="258.444" gradientUnits="userSpaceOnUse"><stop stop-color="#B22332"/><stop offset="1" stop-color="#6B172A"/></linearGradient><linearGradient id="paint4_linear" x1="77.023" y1="29.149" x2="437.146" y2="193.623" gradientUnits="userSpaceOnUse"><stop stop-color="#B22332"/><stop offset="1" stop-color="#6B172A"/></linearGradient><linearGradient id="paint5_linear" x1="36.29" y1="90.556" x2="396.242" y2="254.805" gradientUnits="userSpaceOnUse"><stop stop-color="#B22332"/><stop offset="1" stop-color="#6B172A"/></linearGradient><linearGradient id="paint6_linear" x1="23.71" y1="158.944" x2="383.833" y2="323.418" gradientUnits="userSpaceOnUse"><stop stop-color="#B22332"/><stop offset="1" stop-color="#6B172A"/></linearGradient><linearGradient id="paint7_linear" x1="-17.02" y1="220.311" x2="342.971" y2="384.593" gradientUnits="userSpaceOnUse"><stop stop-color="#B22332"/><stop offset="1" stop-color="#6B172A"/></linearGradient><linearGradient id="paint8_linear" x1="140.353" y1="1008.25" x2="3842.78" y2="2998.14" gradientUnits="userSpaceOnUse"><stop stop-color="#B22332"/><stop offset="1" stop-color="#6B172A"/></linearGradient><linearGradient id="paint9_linear" x1="55.691" y1="318.227" x2="1176.9" y2="920.827" gradientUnits="userSpaceOnUse"><stop stop-color="#B22332"/><stop offset="1" stop-color="#6B172A"/></linearGradient><clipPath id="clip0"><path fill="#fff" d="M0 0h130v37H0z"/></clipPath></defs></svg>