<svg width="98" height="28" fill="none" xmlns="http://www.w3.org/2000/svg"><g clip-path="url(#clip0)" fill="#BBB"><path d="M39.257 22.112h3.059a3.823 3.823 0 01-.741 2.362 3.367 3.367 0 01-1.228.918 3.429 3.429 0 01-1.515.285 3.723 3.723 0 01-1.455-.25 3.669 3.669 0 01-1.235-.792 3.588 3.588 0 01-.816-1.208 3.535 3.535 0 01-.264-1.425 3.624 3.624 0 011.1-2.643 3.725 3.725 0 011.241-.799 3.772 3.772 0 011.46-.257c.831-.014 1.64.26 2.284.774.335.246.63.54.874.874l-.382.3a3.341 3.341 0 00-2.398-1.516 3.327 3.327 0 00-1.827.293 3.252 3.252 0 00-1.373 1.22 3.168 3.168 0 00-.48 1.756 3.1 3.1 0 00.224 1.243c.16.395.398.754.702 1.056a3.224 3.224 0 002.331.935c.491.015.979-.087 1.42-.299a3.015 3.015 0 001.115-.913c.28-.45.446-.958.481-1.484h-2.58l.003-.43zm8.871 3.438l-2.36-3.386h-.22v3.387h-.481v-7.175h1.05a2.58 2.58 0 011.54.365 1.782 1.782 0 01.755 1.538 1.7 1.7 0 01-.309 1.077 1.754 1.754 0 01-.916.664 2.838 2.838 0 01-.895.139l2.382 3.387-.546.005zm-2.58-3.816h.709c1.037 0 1.66-.525 1.66-1.46a1.314 1.314 0 00-.142-.713 1.343 1.343 0 00-.502-.534 2.625 2.625 0 00-1.115-.215h-.602l-.008 2.922zm12.866.249a3.666 3.666 0 01-.63 2.068 3.768 3.768 0 01-1.695 1.375 3.848 3.848 0 01-2.187.218 3.806 3.806 0 01-1.941-1.014 3.695 3.695 0 01-1.04-1.902 3.652 3.652 0 01.214-2.149 3.73 3.73 0 011.394-1.669 3.834 3.834 0 012.105-.626 3.78 3.78 0 011.453.266c.461.183.88.455 1.233.8.352.344.63.755.819 1.207.188.453.282.938.275 1.426zm-.502 0a3.181 3.181 0 00-.57-1.78 3.27 3.27 0 00-1.48-1.172 3.337 3.337 0 00-1.893-.168 3.298 3.298 0 00-1.67.89 3.202 3.202 0 00-.888 1.65 3.167 3.167 0 00.193 1.857c.25.586.67 1.087 1.21 1.439.54.352 1.172.54 1.82.54a3.29 3.29 0 001.27-.238 3.242 3.242 0 001.073-.706 3.145 3.145 0 00.935-2.312zm3.738-3.607v4.487c0 .677.032 1.118.305 1.548.425.678 1.224.827 1.695.827.47 0 1.267-.15 1.692-.827.268-.43.308-.871.308-1.548v-4.487h.478v4.487c0 .787-.042 1.312-.414 1.837a2.65 2.65 0 01-.922.712 2.7 2.7 0 01-3.21-.712c-.37-.525-.413-1.05-.413-1.837v-4.487h.48zm8.107 3.767v3.413h-.482v-7.18h1.412c1.19 0 2.14.646 2.14 1.87 0 1.223-.862 1.892-2.118 1.892l-.952.005zm0-.43h.962c.95 0 1.605-.549 1.605-1.452 0-.903-.61-1.45-1.672-1.45h-.885l-.01 2.902zM41.979 10.306h-4.19l-1.094 2.337h-1.604l4.86-10.225 4.68 10.225h-1.604l-1.048-2.337zm-.602-1.365l-1.45-3.27-1.523 3.27h2.973zm7.259-5.919v8.258h2.88v1.363h-4.36V3.022h1.48zm7.062 0h-1.479v9.623h1.479V3.022zm9.414 7.284h-4.198l-1.09 2.337h-1.605L63.08 2.418l4.68 10.225h-1.621l-1.027-2.337zm-.604-1.365l-1.454-3.27-1.522 3.27h2.976zm5.775 3.702V2.368l7.147 7.34V3.022h1.48V13.23l-7.148-7.324v6.736h-1.479zm14.979-8.256v8.256h-1.479V4.387H81.53V3.022h5.982v1.365h-2.249zm10.094 5.919h-4.198l-1.091 2.337h-1.604l4.853-10.225 4.676 10.225h-1.604l-1.032-2.337zm-.605-1.365l-1.454-3.27-1.522 3.27h2.976zM12.572 7.904l-.97-2.152h5.312l-.968 2.152h1.049l1.39-3.095h-8.254l1.393 3.095h1.048zm3.375 12.192l.967 2.152h-5.312l.97-2.152h-1.048l-1.393 3.092h8.254l-1.39-3.092h-1.049zM4.898 18.05l3.153-1.364v-1.03l-2.193.95v-5.215l2.193.953v-1.03L4.898 9.947v8.104zm15.57-5.706l2.192-.953v5.216l-2.192-.95v1.029l3.15 1.365V9.947l-3.15 1.367v1.03zm-2.725-2.431l.68.664 1.74-1.71c.428-.417-.035-1.296-.035-1.296l-2.385 2.342zm-7.647.664l.677-.664L8.39 7.57s-.462.88-.037 1.297l1.743 1.709zm8.326 6.846l-.679.664 2.385 2.342s.463-.88.035-1.297l-1.74-1.709zm-8.326 0l-1.743 1.71c-.425.417.037 1.296.037 1.296l2.383-2.342-.677-.664z"/><path d="M14.26 0c-2.82 0-5.578.821-7.923 2.36a14.059 14.059 0 00-5.252 6.282 13.764 13.764 0 00-.811 8.09A13.923 13.923 0 004.176 23.9a14.343 14.343 0 007.301 3.831c2.766.54 5.634.263 8.24-.797a14.207 14.207 0 006.399-5.156A13.82 13.82 0 0028.519 14a13.888 13.888 0 00-4.181-9.895A14.41 14.41 0 0014.259 0zm0 27.068c-2.633 0-5.207-.766-7.395-2.202A13.123 13.123 0 011.962 19a12.847 12.847 0 01-.757-7.55 12.996 12.996 0 013.643-6.692 13.388 13.388 0 016.815-3.576 13.54 13.54 0 017.69.744 13.26 13.26 0 015.973 4.813A12.9 12.9 0 0127.57 14a12.962 12.962 0 01-3.903 9.237 13.45 13.45 0 01-9.408 3.831z"/><path d="M16.72 11.74l.692-.638a4.346 4.346 0 00-2.607-1.308 4.382 4.382 0 00-2.857.624 4.252 4.252 0 00-1.795 2.27 4.168 4.168 0 00.092 2.873 4.266 4.266 0 001.937 2.155 4.388 4.388 0 002.892.447 4.334 4.334 0 002.518-1.467c.64-.762.988-1.72.986-2.707v-.454H16.07l-1.364-2.811a3.352 3.352 0 012.013 1.016zm-2.91-1.016l-2.422 4.988a3.26 3.26 0 01-.162-3.137c.24-.495.602-.923 1.053-1.247a3.398 3.398 0 011.531-.604zm-1.748 5.775l.986-2.034h2.423l.986 2.04c-.61.518-1.39.804-2.198.804a3.395 3.395 0 01-2.197-.805V16.5zm5.534-2.037a3.24 3.24 0 01-.468 1.26l-.61-1.26h1.078zm-4.096-.927l.76-1.575.759 1.575H13.5z"/></g><defs><clipPath id="clip0"><path fill="#fff" d="M0 0h98v28H0z"/></clipPath></defs></svg>