<?xml version="1.0" encoding="UTF-8"?><!DOCTYPE svg PUBLIC "-//W3C//DTD SVG 1.1//EN"
        "http://www.w3.org/Graphics/SVG/1.1/DTD/svg11.dtd">
<svg xmlns="http://www.w3.org/2000/svg" xmlns:xlink="http://www.w3.org/1999/xlink">
    <defs>
        <style/>
        <style/>
        <style/>
        <style/>
    </defs>
    <symbol id="100141" viewBox="0 0 88.89 106.23">
        <path d="M44.41 0L0 24.65v56.11l44.07 25.47 44.82-25.32v-56.5zm-2.65 98.47l-36.2-20.9V31.44l36.2 20.9zm3-50.83L7.88 26.36l36.5-20 37.4 20.8zm38.6 30L47.36 98V52.51l36-20z"/>
        <path d="M17.71 48.25a2.57 2.57 0 10-2.57-2.57 2.57 2.57 0 002.57 2.57zM28.15 54.44a2.58 2.58 0 10-2.57-2.59 2.59 2.59 0 002.57 2.59z"/>
        <circle cx="12.57" cy="53.38" r="2.57"/>
        <circle cx="22.86" cy="59.45" r="2.57"/>
        <path d="M33.29 67.91a2.57 2.57 0 10-2.57-2.57 2.57 2.57 0 002.57 2.57zM29.39 70.66a2.57 2.57 0 101 3.5 2.57 2.57 0 00-1-3.5zM18.76 64.76a2.57 2.57 0 101 3.5 2.57 2.57 0 00-1-3.5zM13.65 72.21a2.57 2.57 0 101 3.5 2.56 2.56 0 00-1-3.5zM24.1 78.28a2.57 2.57 0 101 3.5 2.56 2.56 0 00-1-3.5zM34.54 84.43a2.57 2.57 0 101 3.5 2.56 2.56 0 00-1-3.5z"/>
    </symbol>
    <symbol id="2099" viewBox="0 0 182.71 182.62">
        <g id="&#x421;&#x43B;&#x43E;&#x439;_2">
            <g id="&#x421;&#x43B;&#x43E;&#x439;_1-2">
                <g id="&#x421;&#x43B;&#x430;&#x434;&#x43A;&#x43E;&#x435;">
                    <g id="&#x41F;&#x43E;&#x43B;&#x443;&#x441;&#x443;&#x445;&#x43E;&#x435;">
                        <path d="M49.41 76.13L5 100.77v56.11l44.07 25.47L93.89 157v-56.5zm-2.65 98.46l-36.2-20.9v-46.13l36.2 20.9zm3-50.83l-36.88-21.28 36.5-20 37.4 20.77zm38.6 30l-36 20.35v-45.48l36-20z"/>
                        <path d="M22.71 124.37a2.57 2.57 0 10-2.57-2.57 2.57 2.57 0 002.57 2.57zM33.15 130.56a2.58 2.58 0 10-2.57-2.56 2.59 2.59 0 002.57 2.56z"/>
                        <circle cx="17.57" cy="129.5" r="2.57"/>
                        <circle cx="27.86" cy="135.57" r="2.57"/>
                        <path d="M38.29 144a2.57 2.57 0 10-2.57-2.57 2.57 2.57 0 002.57 2.57zM34.39 146.78a2.57 2.57 0 101 3.5 2.57 2.57 0 00-1-3.5zM23.76 140.88a2.57 2.57 0 101 3.5 2.57 2.57 0 00-1-3.5zM18.65 148.33a2.57 2.57 0 101 3.5 2.56 2.56 0 00-1-3.5zM29.1 154.4a2.57 2.57 0 101 3.5 2.56 2.56 0 00-1-3.5zM39.54 160.55a2.57 2.57 0 101 3.5 2.56 2.56 0 00-1-3.5z"/>
                    </g>
                    <g id="&#x41F;&#x43E;&#x43B;&#x443;&#x441;&#x443;&#x445;&#x43E;&#x435;-2">
                        <path d="M134.1 76.38L89.7 101v56.11l44.07 25.47 44.82-25.33v-56.47zm-2.65 98.46l-36.2-20.9v-46.12l36.2 20.9zm3-50.82l-36.88-21.28 36.51-20 37.39 20.76zm38.6 30L137 174.4v-45.51l36-20z"/>
                        <path d="M107.4 124.63a2.58 2.58 0 10-2.57-2.59 2.57 2.57 0 002.56 2.58zM117.84 130.81a2.57 2.57 0 10-2.57-2.57 2.57 2.57 0 002.57 2.57z"/>
                        <circle cx="102.26" cy="129.75" r="2.57"/>
                        <circle cx="112.55" cy="135.83" r="2.57"/>
                        <path d="M123 144.29a2.57 2.57 0 10-2.57-2.57 2.57 2.57 0 002.57 2.57zM119.09 147a2.57 2.57 0 101 3.5 2.56 2.56 0 00-1-3.5zM108.45 141.13a2.57 2.57 0 101 3.5 2.56 2.56 0 00-1-3.5zM103.35 148.59a2.57 2.57 0 101 3.5 2.57 2.57 0 00-1-3.5zM113.79 154.66a2.57 2.57 0 101 3.5 2.56 2.56 0 00-1-3.5zM124.23 160.81a2.57 2.57 0 101 3.5 2.56 2.56 0 00-1-3.5z"/>
                    </g>
                    <g id="&#x41F;&#x43E;&#x43B;&#x443;&#x441;&#x443;&#x445;&#x43E;&#x435;-3">
                        <path d="M92.34 0l-44.4 24.65v56.11L92 106.24l44.82-25.33v-56.5zm-2.65 98.47l-36.2-20.9V31.44l36.2 20.9zm3-50.83L55.81 26.36l36.51-20 37.39 20.77zm38.6 30L95.25 98V52.51l36-20z"/>
                        <path d="M65.64 48.25a2.57 2.57 0 10-2.57-2.57 2.58 2.58 0 002.57 2.57zM76.08 54.44a2.58 2.58 0 10-2.57-2.59 2.58 2.58 0 002.57 2.59z"/>
                        <circle cx="60.5" cy="53.38" r="2.57"/>
                        <circle cx="70.79" cy="59.45" r="2.57"/>
                        <path d="M81.22 67.91a2.57 2.57 0 10-2.57-2.57 2.57 2.57 0 002.57 2.57zM77.33 70.66a2.57 2.57 0 101 3.5 2.57 2.57 0 00-1-3.5zM66.69 64.76a2.57 2.57 0 101 3.5 2.54 2.54 0 00-1-3.47zM61.59 72.21a2.57 2.57 0 101 3.5 2.56 2.56 0 00-1-3.5zM72 78.28a2.57 2.57 0 101 3.5 2.56 2.56 0 00-1-3.5zM82.47 84.43a2.57 2.57 0 101 3.5 2.56 2.56 0 00-1-3.5z"/>
                    </g>
                </g>
            </g>
        </g>
    </symbol>
    <symbol id="2100" viewBox="0 0 172.66 116.71">
        <g id="&#x421;&#x43B;&#x43E;&#x439;_2">
            <g id="&#x421;&#x43B;&#x43E;&#x439;_1-2">
                <g id="&#x41F;&#x43E;&#x43B;&#x443;&#x441;&#x43B;&#x430;&#x434;&#x43A;&#x43E;&#x435;">
                    <path d="M128.18 4.71l-44.4 24.65v56.11l44.07 25.47 44.82-25.33V29.12zm-2.65 98.46l-36.2-20.9V36.15l36.2 20.9zm3-50.83L91.65 31.07l36.51-20 37.39 20.77zm38.6 30l-36 20.37V57.22l36-20z"/>
                    <path d="M101.48 53a2.57 2.57 0 10-2.57-2.57 2.57 2.57 0 002.57 2.57zM111.92 59.15a2.58 2.58 0 10-2.57-2.59 2.58 2.58 0 002.57 2.59z"/>
                    <circle cx="96.34" cy="58.09" r="2.57"/>
                    <circle cx="106.63" cy="64.16" r="2.57"/>
                    <path d="M117.06 72.62a2.57 2.57 0 10-2.57-2.57 2.57 2.57 0 002.57 2.57zM113.17 75.37a2.57 2.57 0 101 3.49 2.57 2.57 0 00-1-3.49zM102.53 69.47a2.57 2.57 0 101 3.49 2.57 2.57 0 00-1-3.49zM97.43 76.92a2.57 2.57 0 101 3.5 2.56 2.56 0 00-1-3.5zM107.87 83a2.57 2.57 0 101 3.5 2.56 2.56 0 00-1-3.5zM118.31 89.14a2.57 2.57 0 101 3.5 2.56 2.56 0 00-1-3.5zM44.41 5L0 29.62v56.09l44.07 25.5 44.82-25.33V29.37zm-2.65 98.46L5.56 82.53V36.41l36.2 20.9zm3-50.82L7.88 31.33l36.5-20 37.4 20.76zm38.6 30l-36 20.36V57.48l36-20z"/>
                    <path d="M17.71 53.22a2.58 2.58 0 10-2.57-2.59 2.58 2.58 0 002.57 2.59zM28.15 59.4a2.57 2.57 0 10-2.57-2.57 2.57 2.57 0 002.57 2.57z"/>
                    <circle cx="12.57" cy="58.34" r="2.57"/>
                    <circle cx="22.86" cy="64.42" r="2.57"/>
                    <path d="M33.29 72.88a2.58 2.58 0 10-2.57-2.59 2.57 2.57 0 002.57 2.59zM29.39 75.62a2.57 2.57 0 101 3.5 2.56 2.56 0 00-1-3.5zM18.76 69.71a2.57 2.57 0 101 3.5 2.56 2.56 0 00-1-3.5zM13.65 77.18a2.57 2.57 0 101 3.49 2.57 2.57 0 00-1-3.49zM24.1 83.25a2.57 2.57 0 101 3.5 2.56 2.56 0 00-1-3.5zM34.54 89.4a2.57 2.57 0 101 3.5 2.56 2.56 0 00-1-3.5z"/>
                </g>
            </g>
        </g>
    </symbol>
    <symbol id="2101" viewBox="0 0 88.89 106.23">
        <path d="M44.41 0L0 24.65v56.11l44.07 25.47 44.82-25.32v-56.5zm-2.65 98.47l-36.2-20.9V31.44l36.2 20.9zm3-50.83L7.88 26.36l36.5-20 37.4 20.8zm38.6 30L47.36 98V52.51l36-20z"/>
        <path d="M17.71 48.25a2.57 2.57 0 10-2.57-2.57 2.57 2.57 0 002.57 2.57zM28.15 54.44a2.58 2.58 0 10-2.57-2.59 2.59 2.59 0 002.57 2.59z"/>
        <circle cx="12.57" cy="53.38" r="2.57"/>
        <circle cx="22.86" cy="59.45" r="2.57"/>
        <path d="M33.29 67.91a2.57 2.57 0 10-2.57-2.57 2.57 2.57 0 002.57 2.57zM29.39 70.66a2.57 2.57 0 101 3.5 2.57 2.57 0 00-1-3.5zM18.76 64.76a2.57 2.57 0 101 3.5 2.57 2.57 0 00-1-3.5zM13.65 72.21a2.57 2.57 0 101 3.5 2.56 2.56 0 00-1-3.5zM24.1 78.28a2.57 2.57 0 101 3.5 2.56 2.56 0 00-1-3.5zM34.54 84.43a2.57 2.57 0 101 3.5 2.56 2.56 0 00-1-3.5z"/>
    </symbol>
    <symbol id="2102" viewBox="0 0 88.89 106.23">
        <path d="M44.41 0L0 24.65v56.11l44.07 25.47 44.82-25.32v-56.5zm-2.65 98.47l-36.2-20.9V31.44l36.2 20.9zm3-50.83L7.88 26.36l36.5-20 37.4 20.8zm38.6 30L47.36 98V52.51l36-20z"/>
        <path d="M17.71 48.25a2.57 2.57 0 10-2.57-2.57 2.57 2.57 0 002.57 2.57zM28.15 54.44a2.58 2.58 0 10-2.57-2.59 2.59 2.59 0 002.57 2.59z"/>
        <circle cx="12.57" cy="53.38" r="2.57"/>
        <circle cx="22.86" cy="59.45" r="2.57"/>
        <path d="M33.29 67.91a2.57 2.57 0 10-2.57-2.57 2.57 2.57 0 002.57 2.57zM29.39 70.66a2.57 2.57 0 101 3.5 2.57 2.57 0 00-1-3.5zM18.76 64.76a2.57 2.57 0 101 3.5 2.57 2.57 0 00-1-3.5zM13.65 72.21a2.57 2.57 0 101 3.5 2.56 2.56 0 00-1-3.5zM24.1 78.28a2.57 2.57 0 101 3.5 2.56 2.56 0 00-1-3.5zM34.54 84.43a2.57 2.57 0 101 3.5 2.56 2.56 0 00-1-3.5z"/>
    </symbol>
    <symbol id="2135" viewBox="0 0 88.89 106.23">
        <path d="M44.41 0L0 24.65v56.11l44.07 25.47 44.82-25.32v-56.5zm-2.65 98.47l-36.2-20.9V31.44l36.2 20.9zm3-50.83L7.88 26.36l36.5-20 37.4 20.8zm38.6 30L47.36 98V52.51l36-20z"/>
        <path d="M17.71 48.25a2.57 2.57 0 10-2.57-2.57 2.57 2.57 0 002.57 2.57zM28.15 54.44a2.58 2.58 0 10-2.57-2.59 2.59 2.59 0 002.57 2.59z"/>
        <circle cx="12.57" cy="53.38" r="2.57"/>
        <circle cx="22.86" cy="59.45" r="2.57"/>
        <path d="M33.29 67.91a2.57 2.57 0 10-2.57-2.57 2.57 2.57 0 002.57 2.57zM29.39 70.66a2.57 2.57 0 101 3.5 2.57 2.57 0 00-1-3.5zM18.76 64.76a2.57 2.57 0 101 3.5 2.57 2.57 0 00-1-3.5zM13.65 72.21a2.57 2.57 0 101 3.5 2.56 2.56 0 00-1-3.5zM24.1 78.28a2.57 2.57 0 101 3.5 2.56 2.56 0 00-1-3.5zM34.54 84.43a2.57 2.57 0 101 3.5 2.56 2.56 0 00-1-3.5z"/>
    </symbol>
    <symbol id="97587" viewBox="0 0 88.89 106.23">
        <path d="M44.41 0L0 24.65v56.11l44.07 25.47 44.82-25.32v-56.5zm-2.65 98.47l-36.2-20.9V31.44l36.2 20.9zm3-50.83L7.88 26.36l36.5-20 37.4 20.8zm38.6 30L47.36 98V52.51l36-20z"/>
        <path d="M17.71 48.25a2.57 2.57 0 10-2.57-2.57 2.57 2.57 0 002.57 2.57zM28.15 54.44a2.58 2.58 0 10-2.57-2.59 2.59 2.59 0 002.57 2.59z"/>
        <circle cx="12.57" cy="53.38" r="2.57"/>
        <circle cx="22.86" cy="59.45" r="2.57"/>
        <path d="M33.29 67.91a2.57 2.57 0 10-2.57-2.57 2.57 2.57 0 002.57 2.57zM29.39 70.66a2.57 2.57 0 101 3.5 2.57 2.57 0 00-1-3.5zM18.76 64.76a2.57 2.57 0 101 3.5 2.57 2.57 0 00-1-3.5zM13.65 72.21a2.57 2.57 0 101 3.5 2.56 2.56 0 00-1-3.5zM24.1 78.28a2.57 2.57 0 101 3.5 2.56 2.56 0 00-1-3.5zM34.54 84.43a2.57 2.57 0 101 3.5 2.56 2.56 0 00-1-3.5z"/>
    </symbol>
    <symbol id="brut" viewBox="0 0 88.89 106.23">
        <path d="M44.41 0L0 24.65v56.11l44.07 25.47 44.82-25.32v-56.5zm-2.65 98.47l-36.2-20.9V31.44l36.2 20.9zm3-50.83L7.88 26.36l36.5-20 37.4 20.8zm38.6 30L47.36 98V52.51l36-20z"/>
        <path d="M17.71 48.25a2.57 2.57 0 10-2.57-2.57 2.57 2.57 0 002.57 2.57zM28.15 54.44a2.58 2.58 0 10-2.57-2.59 2.59 2.59 0 002.57 2.59z"/>
        <circle cx="12.57" cy="53.38" r="2.57"/>
        <circle cx="22.86" cy="59.45" r="2.57"/>
        <path d="M33.29 67.91a2.57 2.57 0 10-2.57-2.57 2.57 2.57 0 002.57 2.57zM29.39 70.66a2.57 2.57 0 101 3.5 2.57 2.57 0 00-1-3.5zM18.76 64.76a2.57 2.57 0 101 3.5 2.57 2.57 0 00-1-3.5zM13.65 72.21a2.57 2.57 0 101 3.5 2.56 2.56 0 00-1-3.5zM24.1 78.28a2.57 2.57 0 101 3.5 2.56 2.56 0 00-1-3.5zM34.54 84.43a2.57 2.57 0 101 3.5 2.56 2.56 0 00-1-3.5z"/>
    </symbol>
    <symbol id="dry" viewBox="0 0 88.89 106.23">
        <path d="M44.41 0L0 24.65v56.11l44.07 25.47 44.82-25.32v-56.5zm-2.65 98.47l-36.2-20.9V31.44l36.2 20.9zm3-50.83L7.88 26.36l36.5-20 37.4 20.8zm38.6 30L47.36 98V52.51l36-20z"/>
        <path d="M17.71 48.25a2.57 2.57 0 10-2.57-2.57 2.57 2.57 0 002.57 2.57zM28.15 54.44a2.58 2.58 0 10-2.57-2.59 2.59 2.59 0 002.57 2.59z"/>
        <circle cx="12.57" cy="53.38" r="2.57"/>
        <circle cx="22.86" cy="59.45" r="2.57"/>
        <path d="M33.29 67.91a2.57 2.57 0 10-2.57-2.57 2.57 2.57 0 002.57 2.57zM29.39 70.66a2.57 2.57 0 101 3.5 2.57 2.57 0 00-1-3.5zM18.76 64.76a2.57 2.57 0 101 3.5 2.57 2.57 0 00-1-3.5zM13.65 72.21a2.57 2.57 0 101 3.5 2.56 2.56 0 00-1-3.5zM24.1 78.28a2.57 2.57 0 101 3.5 2.56 2.56 0 00-1-3.5zM34.54 84.43a2.57 2.57 0 101 3.5 2.56 2.56 0 00-1-3.5z"/>
    </symbol>
    <symbol id="extrabrut" viewBox="0 0 88.89 106.23">
        <path d="M44.41 0L0 24.65v56.11l44.07 25.47 44.82-25.32v-56.5zm-2.65 98.47l-36.2-20.9V31.44l36.2 20.9zm3-50.83L7.88 26.36l36.5-20 37.4 20.8zm38.6 30L47.36 98V52.51l36-20z"/>
        <path d="M17.71 48.25a2.57 2.57 0 10-2.57-2.57 2.57 2.57 0 002.57 2.57zM28.15 54.44a2.58 2.58 0 10-2.57-2.59 2.59 2.59 0 002.57 2.59z"/>
        <circle cx="12.57" cy="53.38" r="2.57"/>
        <circle cx="22.86" cy="59.45" r="2.57"/>
        <path d="M33.29 67.91a2.57 2.57 0 10-2.57-2.57 2.57 2.57 0 002.57 2.57zM29.39 70.66a2.57 2.57 0 101 3.5 2.57 2.57 0 00-1-3.5zM18.76 64.76a2.57 2.57 0 101 3.5 2.57 2.57 0 00-1-3.5zM13.65 72.21a2.57 2.57 0 101 3.5 2.56 2.56 0 00-1-3.5zM24.1 78.28a2.57 2.57 0 101 3.5 2.56 2.56 0 00-1-3.5zM34.54 84.43a2.57 2.57 0 101 3.5 2.56 2.56 0 00-1-3.5z"/>
    </symbol>
    <symbol id="semidry" viewBox="0 0 88.89 106.23">
        <path d="M44.41 0L0 24.65v56.11l44.07 25.47 44.82-25.32v-56.5zm-2.65 98.47l-36.2-20.9V31.44l36.2 20.9zm3-50.83L7.88 26.36l36.5-20 37.4 20.8zm38.6 30L47.36 98V52.51l36-20z"/>
        <path d="M17.71 48.25a2.57 2.57 0 10-2.57-2.57 2.57 2.57 0 002.57 2.57zM28.15 54.44a2.58 2.58 0 10-2.57-2.59 2.59 2.59 0 002.57 2.59z"/>
        <circle cx="12.57" cy="53.38" r="2.57"/>
        <circle cx="22.86" cy="59.45" r="2.57"/>
        <path d="M33.29 67.91a2.57 2.57 0 10-2.57-2.57 2.57 2.57 0 002.57 2.57zM29.39 70.66a2.57 2.57 0 101 3.5 2.57 2.57 0 00-1-3.5zM18.76 64.76a2.57 2.57 0 101 3.5 2.57 2.57 0 00-1-3.5zM13.65 72.21a2.57 2.57 0 101 3.5 2.56 2.56 0 00-1-3.5zM24.1 78.28a2.57 2.57 0 101 3.5 2.56 2.56 0 00-1-3.5zM34.54 84.43a2.57 2.57 0 101 3.5 2.56 2.56 0 00-1-3.5z"/>
    </symbol>
    <symbol id="semisweet" viewBox="0 0 172.66 116.71">
        <g id="&#x421;&#x43B;&#x43E;&#x439;_2">
            <g id="&#x421;&#x43B;&#x43E;&#x439;_1-2">
                <g id="&#x41F;&#x43E;&#x43B;&#x443;&#x441;&#x43B;&#x430;&#x434;&#x43A;&#x43E;&#x435;">
                    <path d="M128.18 4.71l-44.4 24.65v56.11l44.07 25.47 44.82-25.33V29.12zm-2.65 98.46l-36.2-20.9V36.15l36.2 20.9zm3-50.83L91.65 31.07l36.51-20 37.39 20.77zm38.6 30l-36 20.37V57.22l36-20z"/>
                    <path d="M101.48 53a2.57 2.57 0 10-2.57-2.57 2.57 2.57 0 002.57 2.57zM111.92 59.15a2.58 2.58 0 10-2.57-2.59 2.58 2.58 0 002.57 2.59z"/>
                    <circle cx="96.34" cy="58.09" r="2.57"/>
                    <circle cx="106.63" cy="64.16" r="2.57"/>
                    <path d="M117.06 72.62a2.57 2.57 0 10-2.57-2.57 2.57 2.57 0 002.57 2.57zM113.17 75.37a2.57 2.57 0 101 3.49 2.57 2.57 0 00-1-3.49zM102.53 69.47a2.57 2.57 0 101 3.49 2.57 2.57 0 00-1-3.49zM97.43 76.92a2.57 2.57 0 101 3.5 2.56 2.56 0 00-1-3.5zM107.87 83a2.57 2.57 0 101 3.5 2.56 2.56 0 00-1-3.5zM118.31 89.14a2.57 2.57 0 101 3.5 2.56 2.56 0 00-1-3.5zM44.41 5L0 29.62v56.09l44.07 25.5 44.82-25.33V29.37zm-2.65 98.46L5.56 82.53V36.41l36.2 20.9zm3-50.82L7.88 31.33l36.5-20 37.4 20.76zm38.6 30l-36 20.36V57.48l36-20z"/>
                    <path d="M17.71 53.22a2.58 2.58 0 10-2.57-2.59 2.58 2.58 0 002.57 2.59zM28.15 59.4a2.57 2.57 0 10-2.57-2.57 2.57 2.57 0 002.57 2.57z"/>
                    <circle cx="12.57" cy="58.34" r="2.57"/>
                    <circle cx="22.86" cy="64.42" r="2.57"/>
                    <path d="M33.29 72.88a2.58 2.58 0 10-2.57-2.59 2.57 2.57 0 002.57 2.59zM29.39 75.62a2.57 2.57 0 101 3.5 2.56 2.56 0 00-1-3.5zM18.76 69.71a2.57 2.57 0 101 3.5 2.56 2.56 0 00-1-3.5zM13.65 77.18a2.57 2.57 0 101 3.49 2.57 2.57 0 00-1-3.49zM24.1 83.25a2.57 2.57 0 101 3.5 2.56 2.56 0 00-1-3.5zM34.54 89.4a2.57 2.57 0 101 3.5 2.56 2.56 0 00-1-3.5z"/>
                </g>
            </g>
        </g>
    </symbol>
    <symbol id="sweet" viewBox="0 0 182.71 182.62">
        <g id="&#x421;&#x43B;&#x43E;&#x439;_2">
            <g id="&#x421;&#x43B;&#x43E;&#x439;_1-2">
                <g id="&#x421;&#x43B;&#x430;&#x434;&#x43A;&#x43E;&#x435;">
                    <g id="&#x41F;&#x43E;&#x43B;&#x443;&#x441;&#x443;&#x445;&#x43E;&#x435;">
                        <path d="M49.41 76.13L5 100.77v56.11l44.07 25.47L93.89 157v-56.5zm-2.65 98.46l-36.2-20.9v-46.13l36.2 20.9zm3-50.83l-36.88-21.28 36.5-20 37.4 20.77zm38.6 30l-36 20.35v-45.48l36-20z"/>
                        <path d="M22.71 124.37a2.57 2.57 0 10-2.57-2.57 2.57 2.57 0 002.57 2.57zM33.15 130.56a2.58 2.58 0 10-2.57-2.56 2.59 2.59 0 002.57 2.56z"/>
                        <circle cx="17.57" cy="129.5" r="2.57"/>
                        <circle cx="27.86" cy="135.57" r="2.57"/>
                        <path d="M38.29 144a2.57 2.57 0 10-2.57-2.57 2.57 2.57 0 002.57 2.57zM34.39 146.78a2.57 2.57 0 101 3.5 2.57 2.57 0 00-1-3.5zM23.76 140.88a2.57 2.57 0 101 3.5 2.57 2.57 0 00-1-3.5zM18.65 148.33a2.57 2.57 0 101 3.5 2.56 2.56 0 00-1-3.5zM29.1 154.4a2.57 2.57 0 101 3.5 2.56 2.56 0 00-1-3.5zM39.54 160.55a2.57 2.57 0 101 3.5 2.56 2.56 0 00-1-3.5z"/>
                    </g>
                    <g id="&#x41F;&#x43E;&#x43B;&#x443;&#x441;&#x443;&#x445;&#x43E;&#x435;-2">
                        <path d="M134.1 76.38L89.7 101v56.11l44.07 25.47 44.82-25.33v-56.47zm-2.65 98.46l-36.2-20.9v-46.12l36.2 20.9zm3-50.82l-36.88-21.28 36.51-20 37.39 20.76zm38.6 30L137 174.4v-45.51l36-20z"/>
                        <path d="M107.4 124.63a2.58 2.58 0 10-2.57-2.59 2.57 2.57 0 002.56 2.58zM117.84 130.81a2.57 2.57 0 10-2.57-2.57 2.57 2.57 0 002.57 2.57z"/>
                        <circle cx="102.26" cy="129.75" r="2.57"/>
                        <circle cx="112.55" cy="135.83" r="2.57"/>
                        <path d="M123 144.29a2.57 2.57 0 10-2.57-2.57 2.57 2.57 0 002.57 2.57zM119.09 147a2.57 2.57 0 101 3.5 2.56 2.56 0 00-1-3.5zM108.45 141.13a2.57 2.57 0 101 3.5 2.56 2.56 0 00-1-3.5zM103.35 148.59a2.57 2.57 0 101 3.5 2.57 2.57 0 00-1-3.5zM113.79 154.66a2.57 2.57 0 101 3.5 2.56 2.56 0 00-1-3.5zM124.23 160.81a2.57 2.57 0 101 3.5 2.56 2.56 0 00-1-3.5z"/>
                    </g>
                    <g id="&#x41F;&#x43E;&#x43B;&#x443;&#x441;&#x443;&#x445;&#x43E;&#x435;-3">
                        <path d="M92.34 0l-44.4 24.65v56.11L92 106.24l44.82-25.33v-56.5zm-2.65 98.47l-36.2-20.9V31.44l36.2 20.9zm3-50.83L55.81 26.36l36.51-20 37.39 20.77zm38.6 30L95.25 98V52.51l36-20z"/>
                        <path d="M65.64 48.25a2.57 2.57 0 10-2.57-2.57 2.58 2.58 0 002.57 2.57zM76.08 54.44a2.58 2.58 0 10-2.57-2.59 2.58 2.58 0 002.57 2.59z"/>
                        <circle cx="60.5" cy="53.38" r="2.57"/>
                        <circle cx="70.79" cy="59.45" r="2.57"/>
                        <path d="M81.22 67.91a2.57 2.57 0 10-2.57-2.57 2.57 2.57 0 002.57 2.57zM77.33 70.66a2.57 2.57 0 101 3.5 2.57 2.57 0 00-1-3.5zM66.69 64.76a2.57 2.57 0 101 3.5 2.54 2.54 0 00-1-3.47zM61.59 72.21a2.57 2.57 0 101 3.5 2.56 2.56 0 00-1-3.5zM72 78.28a2.57 2.57 0 101 3.5 2.56 2.56 0 00-1-3.5zM82.47 84.43a2.57 2.57 0 101 3.5 2.56 2.56 0 00-1-3.5z"/>
                    </g>
                </g>
            </g>
        </g>
    </symbol>
</svg>