<svg xmlns="http://www.w3.org/2000/svg" viewBox="0 0 32.81 32.81"><title>alarm</title><path d="M16.44,10.44a2,2,0,0,0-2,2v5.2L13,19a1.83,1.83,0,0,0-.59,1.4,2,2,0,0,0,2,2,2,2,0,0,0,1.39-.6l2.07-2.07a1.85,1.85,0,0,0,.54-1.33v-6A2,2,0,0,0,16.44,10.44Zm0-6A14,14,0,0,0,5.25,26.83L3,29.06a1.85,1.85,0,0,0-.58,1.38,2,2,0,0,0,2,2,1.93,1.93,0,0,0,1.38-.58l2.23-2.23a13.91,13.91,0,0,0,16.78,0l2.23,2.23a1.87,1.87,0,0,0,1.38.59,2,2,0,0,0,2-2,1.89,1.89,0,0,0-.58-1.38l-2.23-2.23A14,14,0,0,0,16.44,4.44Zm0,24a10,10,0,1,1,10-10A10,10,0,0,1,16.44,28.44Zm10-28a6,6,0,0,0-5.07,2.78,16,16,0,0,1,9.14,7.61A6,6,0,0,0,26.44.44ZM11.5,3.22a6,6,0,1,0-9.14,7.61A16,16,0,0,1,11.5,3.22Z"/></svg>