<svg xmlns="http://www.w3.org/2000/svg" xmlns:xlink="http://www.w3.org/1999/xlink" viewBox="0 0 14 14"><defs><style>.cls-1{fill:none;}.cls-2{clip-path:url(#clip-path);}.cls-3{fill:#9b0030;}</style><clipPath id="clip-path"><rect class="cls-1" width="14" height="14"/></clipPath></defs><title>arrow-short</title><g class="cls-2"><path class="cls-3" d="M.22,7.54,5.28,12.6a.77.77,0,0,0,.54.22.76.76,0,0,0,.54-.22l.46-.46a.76.76,0,0,0,0-1.09l-2.95-3h9.37A.75.75,0,0,0,14,7.34V6.69a.77.77,0,0,0-.76-.78H3.84l3-3a.74.74,0,0,0,0-1.07L6.36,1.4a.72.72,0,0,0-.54-.22.77.77,0,0,0-.54.22L.22,6.46a.77.77,0,0,0,0,1.08Z"/></g></svg>