<svg xmlns="http://www.w3.org/2000/svg" viewBox="0 0 21.92 20.62"><path d="M491.07,272.69a.67.67,0,0,0-.53-.25H474.38l-.6-2.24a.68.68,0,0,0-.66-.51h-3.21a.69.69,0,0,0,0,1.37h2.68l.59,2.22h0l2.2,8.23h0l.74,2.77a.7.7,0,0,0,.67.51h11a.69.69,0,0,0,.77-.6.7.7,0,0,0-.6-.77H477.32l-.39-1.42,12.27-.62a.66.66,0,0,0,.64-.56l1.37-7.56A.66.66,0,0,0,491.07,272.69Zm-12.22,5.94a.69.69,0,0,1-.69.68.67.67,0,0,1-.68-.68h0v-2.75a.67.67,0,0,1,.67-.69h0a.69.69,0,0,1,.69.69Zm4.13,0a.69.69,0,1,1-1.38,0v-2.75a.69.69,0,1,1,1.38,0Zm4.12,0a.69.69,0,0,1-.69.68.67.67,0,0,1-.68-.68h0v-2.75a.67.67,0,0,1,.67-.69h0a.69.69,0,0,1,.69.69h0Z" transform="translate(-469.3 -269.69)"/><path d="M478.16,290.31a2.06,2.06,0,1,0-2.06-2.06h0A2.07,2.07,0,0,0,478.16,290.31Z" transform="translate(-469.3 -269.69)"/><path d="M486.41,290.31a2.06,2.06,0,1,0-2.06-2.06h0A2.07,2.07,0,0,0,486.41,290.31Z" transform="translate(-469.3 -269.69)"/></svg>