<svg xmlns="http://www.w3.org/2000/svg" viewBox="0 0 30 30"><title>grid</title><path class="cls-1" d="M7.86,6.52A1.34,1.34,0,0,1,6.52,7.86H1.34A1.34,1.34,0,0,1,0,6.52V1.34A1.34,1.34,0,0,1,1.34,0H6.52A1.34,1.34,0,0,1,7.86,1.34ZM18.93,1.34A1.34,1.34,0,0,0,17.59,0H12.41a1.34,1.34,0,0,0-1.34,1.34V6.52a1.34,1.34,0,0,0,1.34,1.34h5.18a1.34,1.34,0,0,0,1.34-1.34ZM30,1.34A1.34,1.34,0,0,0,28.66,0H23.48a1.34,1.34,0,0,0-1.34,1.34V6.52a1.34,1.34,0,0,0,1.34,1.34h5.18A1.34,1.34,0,0,0,30,6.52ZM18.93,12.41a1.34,1.34,0,0,0-1.34-1.34H12.41a1.34,1.34,0,0,0-1.34,1.34v5.18a1.34,1.34,0,0,0,1.34,1.34h5.18a1.34,1.34,0,0,0,1.34-1.34Zm11.07,0a1.34,1.34,0,0,0-1.34-1.34H23.48a1.34,1.34,0,0,0-1.34,1.34v5.18a1.34,1.34,0,0,0,1.34,1.34h5.18A1.34,1.34,0,0,0,30,17.59Zm-22.14,0a1.34,1.34,0,0,0-1.34-1.34H1.34A1.34,1.34,0,0,0,0,12.41v5.18a1.34,1.34,0,0,0,1.34,1.34H6.52a1.34,1.34,0,0,0,1.34-1.34Zm9.73,9.73H12.41a1.34,1.34,0,0,0-1.34,1.34v5.18A1.34,1.34,0,0,0,12.41,30h5.18a1.34,1.34,0,0,0,1.34-1.34V23.48A1.34,1.34,0,0,0,17.59,22.14ZM23.48,30h5.18A1.34,1.34,0,0,0,30,28.66V23.48a1.34,1.34,0,0,0-1.34-1.34H23.48a1.34,1.34,0,0,0-1.34,1.34v5.18A1.34,1.34,0,0,0,23.48,30Zm-17-7.86H1.34A1.34,1.34,0,0,0,0,23.48v5.18A1.34,1.34,0,0,0,1.34,30H6.52a1.34,1.34,0,0,0,1.34-1.34V23.48A1.34,1.34,0,0,0,6.52,22.14Z"/></svg>