<svg id="Слой_1" data-name="Слой 1" xmlns="http://www.w3.org/2000/svg" xmlns:xlink="http://www.w3.org/1999/xlink" viewBox="0 0 19 22"><defs><style>.cls-1{fill:none;}.cls-2{clip-path:url(#clip-path);}.cls-3{fill:#2d2d2d;}</style><clipPath id="clip-path"><rect class="cls-1" width="19" height="22"/></clipPath></defs><title>Монтажная область 1</title><g class="cls-2"><path class="cls-3" d="M9.66,10.6A5.27,5.27,0,0,1,5.84,9.05,5.08,5.08,0,0,1,4.25,5.3,5,5,0,0,1,5.84,1.55,5.27,5.27,0,0,1,9.66,0a5.27,5.27,0,0,1,3.82,1.55A5,5,0,0,1,15.07,5.3a5.07,5.07,0,0,1-1.59,3.75A5.27,5.27,0,0,1,9.66,10.6Z"/><path class="cls-3" d="M.2,16.92a12.64,12.64,0,0,1,.18-1.39,10.6,10.6,0,0,1,.35-1.4,6.54,6.54,0,0,1,.58-1.3A5.11,5.11,0,0,1,2.2,11.7a4.08,4.08,0,0,1,1.27-.79,4.48,4.48,0,0,1,1.62-.28A1.68,1.68,0,0,1,6,11c.26.17.57.37.92.58a5.12,5.12,0,0,0,1.18.51,4.69,4.69,0,0,0,2.9,0,5.12,5.12,0,0,0,1.18-.51l.92-.58a1.68,1.68,0,0,1,.88-.36,4.48,4.48,0,0,1,1.62.28,4.08,4.08,0,0,1,1.27.79,4.8,4.8,0,0,1,.88,1.13,6.59,6.59,0,0,1,.59,1.3,10.6,10.6,0,0,1,.35,1.4,12.64,12.64,0,0,1,.18,1.39c0,.42.05.86.05,1.3A3.64,3.64,0,0,1,17.78,21a4,4,0,0,1-2.86,1H4.11a4,4,0,0,1-2.85-1A3.58,3.58,0,0,1,.15,18.22c0-.45,0-.88.05-1.3Z"/></g></svg>