<svg xmlns="http://www.w3.org/2000/svg" viewBox="0 0 741.78 1022.94"><title>order</title><path d="M253,300.1V61.34a37.56,37.56,0,0,0,7.67-22.78V34.77A37.85,37.85,0,0,0,222.81-3.07H133.86A37.86,37.86,0,0,0,96,34.77v3.79a37.63,37.63,0,0,0,7.68,22.78V300.09C43.41,328.29,1.55,389.47,1.55,460.28v540.49a22.18,22.18,0,0,0,22.17,22.17H333a22.16,22.16,0,0,0,22.15-22.17V460.28c0-70.81-41.86-132-102.11-160.19Z"/><path d="M672.86,442.62H451.62c-31.09,38.24-52.08,89-58.74,135.63C378.24,680.58,434.51,775.14,520.34,798.7V950.79H487.26a21.73,21.73,0,0,0-21.72,21.73v29.34a21.72,21.72,0,0,0,21.72,21.73h150A21.73,21.73,0,0,0,659,1001.86V972.52a21.73,21.73,0,0,0-21.73-21.73H604.14V798.7C690,775.14,746.24,680.58,731.61,578.25,725,531.66,704,480.86,672.86,442.62Z"/></svg>