<svg xmlns="http://www.w3.org/2000/svg" viewBox="0 0 16.03 16"><defs><style>.cls-1{fill:#2d2d2d;}</style></defs><title>phone</title><g id="Слой_2" data-name="Слой 2"><g id="Слой_1-2"><path class="cls-1" d="M12.19,10.58a1.11,1.11,0,0,0-1.58-.11l-.11.11L9.31,11.77a.24.24,0,0,1-.31.1H9c-.26-.14-.53-.26-.78-.41a12.26,12.26,0,0,1-3-2.7A7.16,7.16,0,0,1,4.19,7a.23.23,0,0,1,.06-.31L5.42,5.54a1.14,1.14,0,0,0,.09-1.6l-.09-.08-.93-1-1-1a1.14,1.14,0,0,0-1.61-.09l-.09.09C1.39,2.25,1,2.65.6,3A2,2,0,0,0,0,4.34,5.82,5.82,0,0,0,.46,6.78,14.68,14.68,0,0,0,3,11a16,16,0,0,0,5.24,4.11,7.67,7.67,0,0,0,2.91.84A2.13,2.13,0,0,0,13,15.3c.34-.38.72-.73,1.08-1.09a1.14,1.14,0,0,0,.13-1.61l-.13-.12Z"/><path class="cls-1" d="M11.56,7.93l1.22-.21A5.5,5.5,0,0,0,8.12,3.19L8,4.43A4.27,4.27,0,0,1,11.56,7.93Z"/><path class="cls-1" d="M13.48,2.59A9,9,0,0,0,8.28,0L8.11,1.23A7.91,7.91,0,0,1,14.8,7.71L16,7.51A9.16,9.16,0,0,0,13.48,2.59Z"/></g></g></svg>