<svg xmlns="http://www.w3.org/2000/svg" viewBox="0 0 14.21 14.21"><defs><style>.cls-1{fill:#bbb;}</style></defs><title>search</title><path class="cls-1" d="M1.76,9.79a5.68,5.68,0,0,1,8-8,5.56,5.56,0,0,1,.86,6.85.24.24,0,0,0,0,.29l2.9,2.9a1.32,1.32,0,0,1,.2,1.89l-.09.09a1.32,1.32,0,0,1-1.89-.2L8.9,10.69a.23.23,0,0,0-.29,0A5.56,5.56,0,0,1,1.76,9.79Zm7-1a4.19,4.19,0,1,0-5.93,0A4.19,4.19,0,0,0,8.74,8.74Z"/><path class="cls-1" d="M8.38,6.6a.62.62,0,0,0,.23,0,.58.58,0,0,0,.31-.77,3.69,3.69,0,0,0-4.84-2,.58.58,0,0,0-.31.77.59.59,0,0,0,.77.31,2.52,2.52,0,0,1,3.3,1.34A.58.58,0,0,0,8.38,6.6Z"/></svg>