<svg xmlns="http://www.w3.org/2000/svg" viewBox="0 0 88.89 106.23"><path d="M44.41,0h0L0,24.65V80.76H0l44.07,25.47L88.89,80.91V24.41ZM41.76,98.47,5.56,77.57V31.44l36.2,20.9Zm3-50.83L7.88,26.36l36.5-20,37.4,20.8Zm38.6,30L47.36,98V52.51l36-20Z"/><path d="M17.71,48.25a2.57,2.57,0,1,0-2.57-2.57h0A2.57,2.57,0,0,0,17.71,48.25Z"/><path d="M28.15,54.44a2.58,2.58,0,1,0-2.57-2.59h0A2.59,2.59,0,0,0,28.15,54.44Z"/><circle cx="12.57" cy="53.38" r="2.57"/><circle cx="22.86" cy="59.45" r="2.57"/><path d="M33.29,67.91a2.57,2.57,0,1,0-2.57-2.57h0A2.57,2.57,0,0,0,33.29,67.91Z"/><path d="M29.39,70.66a2.57,2.57,0,1,0,1,3.5h0a2.57,2.57,0,0,0-1-3.5Z"/><path d="M18.76,64.76a2.57,2.57,0,1,0,1,3.5h0a2.57,2.57,0,0,0-1-3.5Z"/><path d="M13.65,72.21a2.57,2.57,0,1,0,1,3.5,2.56,2.56,0,0,0-1-3.5Z"/><path d="M24.1,78.28a2.57,2.57,0,1,0,1,3.5,2.56,2.56,0,0,0-1-3.5Z"/><path d="M34.54,84.43a2.57,2.57,0,1,0,1,3.5,2.56,2.56,0,0,0-1-3.5Z"/></svg>