<svg xmlns="http://www.w3.org/2000/svg" viewBox="0 0 172.66 116.71"><defs><style>.cls-1{fill:#d1c08c;}</style></defs><title>semisweet</title><g><g><g id="Полусладкое"><path d="M128.18,4.71h0L83.78,29.36V85.47h0l44.07,25.47,44.82-25.33V29.12Zm-2.65,98.46-36.2-20.9V36.15l36.2,20.9Zm3-50.83L91.65,31.07l36.51-20,37.39,20.77Zm38.6,30-36,20.37V57.22l36-20Z"/><path d="M101.48,53a2.57,2.57,0,1,0-2.57-2.57h0A2.57,2.57,0,0,0,101.48,53Z"/><path d="M111.92,59.15a2.58,2.58,0,1,0-2.57-2.59h0A2.58,2.58,0,0,0,111.92,59.15Z"/><circle cx="96.34" cy="58.09" r="2.57"/><circle cx="106.63" cy="64.16" r="2.57"/><path d="M117.06,72.62a2.57,2.57,0,1,0-2.57-2.57h0A2.57,2.57,0,0,0,117.06,72.62Z"/><path d="M113.17,75.37a2.57,2.57,0,1,0,1,3.49h0A2.57,2.57,0,0,0,113.17,75.37Z"/><path d="M102.53,69.47a2.57,2.57,0,1,0,1,3.49h0A2.57,2.57,0,0,0,102.53,69.47Z"/><path d="M97.43,76.92a2.57,2.57,0,1,0,1,3.5,2.56,2.56,0,0,0-1-3.5Z"/><path d="M107.87,83a2.57,2.57,0,1,0,1,3.5,2.56,2.56,0,0,0-1-3.5Z"/><path d="M118.31,89.14a2.57,2.57,0,1,0,1,3.5A2.56,2.56,0,0,0,118.31,89.14Z"/><path d="M44.41,5h0L0,29.62V85.71H0l44.07,25.5L88.89,85.88V29.37Zm-2.65,98.46L5.56,82.53V36.41l36.2,20.9Zm3-50.82L7.88,31.33l36.5-20,37.4,20.76Zm38.6,30L47.36,103V57.48l36-20Z"/><path d="M17.71,53.22a2.58,2.58,0,1,0-2.57-2.59h0A2.58,2.58,0,0,0,17.71,53.22Z"/><path d="M28.15,59.4a2.57,2.57,0,1,0-2.57-2.57h0A2.57,2.57,0,0,0,28.15,59.4Z"/><circle cx="12.57" cy="58.34" r="2.57"/><circle cx="22.86" cy="64.42" r="2.57"/><path d="M33.29,72.88a2.58,2.58,0,1,0-2.57-2.59v0A2.57,2.57,0,0,0,33.29,72.88Z"/><path d="M29.39,75.62a2.57,2.57,0,1,0,1,3.5,2.56,2.56,0,0,0-1-3.5Z"/><path d="M18.76,69.71a2.57,2.57,0,1,0,1,3.5A2.56,2.56,0,0,0,18.76,69.71Z"/><path d="M13.65,77.18a2.57,2.57,0,1,0,1,3.49h0A2.57,2.57,0,0,0,13.65,77.18Z"/><path d="M24.1,83.25a2.57,2.57,0,1,0,1,3.5,2.56,2.56,0,0,0-1-3.5Z"/><path d="M34.54,89.4a2.57,2.57,0,1,0,1,3.5A2.56,2.56,0,0,0,34.54,89.4Z"/></g></g></g></svg>