<svg xmlns="http://www.w3.org/2000/svg" viewBox="0 0 182.71 182.62"><defs><style>.cls-1{fill:#d1c08c;}</style></defs><title>sweet</title><g><g><g id="Сладкое"><g id="Полусухое"><path d="M49.41,76.13h0L5,100.77v56.11H5l44.07,25.47L93.89,157V100.5Zm-2.65,98.46-36.2-20.9V107.56l36.2,20.9Zm3-50.83L12.88,102.48l36.5-20,37.4,20.77Zm38.6,30-36,20.35V128.63l36-20Z"/><path d="M22.71,124.37a2.57,2.57,0,1,0-2.57-2.57h0A2.57,2.57,0,0,0,22.71,124.37Z"/><path d="M33.15,130.56A2.58,2.58,0,1,0,30.58,128v0A2.59,2.59,0,0,0,33.15,130.56Z"/><circle cx="17.57" cy="129.5" r="2.57"/><circle cx="27.86" cy="135.57" r="2.57"/><path d="M38.29,144a2.57,2.57,0,1,0-2.57-2.57A2.57,2.57,0,0,0,38.29,144Z"/><path d="M34.39,146.78a2.57,2.57,0,1,0,1,3.5h0A2.57,2.57,0,0,0,34.39,146.78Z"/><path d="M23.76,140.88a2.57,2.57,0,1,0,1,3.5h0A2.57,2.57,0,0,0,23.76,140.88Z"/><path d="M18.65,148.33a2.57,2.57,0,1,0,1,3.5,2.56,2.56,0,0,0-1-3.5Z"/><path d="M29.1,154.4a2.57,2.57,0,1,0,1,3.5,2.56,2.56,0,0,0-1-3.5Z"/><path d="M39.54,160.55a2.57,2.57,0,1,0,1,3.5A2.56,2.56,0,0,0,39.54,160.55Z"/></g><g id="Полусухое-2"><path d="M134.1,76.38h0L89.7,101v56.11h0l44.07,25.47,44.82-25.33V100.78Zm-2.65,98.46-36.2-20.9V107.82l36.2,20.9Zm3-50.82L97.57,102.74l36.51-20,37.39,20.76Zm38.6,30L137,174.4V128.89l36-20Z"/><path d="M107.4,124.63a2.58,2.58,0,1,0-2.57-2.59h0a2.57,2.57,0,0,0,2.56,2.58Z"/><path d="M117.84,130.81a2.57,2.57,0,1,0-2.57-2.57,2.57,2.57,0,0,0,2.57,2.57Z"/><circle cx="102.26" cy="129.75" r="2.57"/><circle cx="112.55" cy="135.83" r="2.57"/><path d="M123,144.29a2.57,2.57,0,1,0-2.57-2.57,2.57,2.57,0,0,0,2.57,2.57Z"/><path d="M119.09,147a2.57,2.57,0,1,0,1,3.5,2.56,2.56,0,0,0-1-3.5Z"/><path d="M108.45,141.13a2.57,2.57,0,1,0,1,3.5A2.56,2.56,0,0,0,108.45,141.13Z"/><path d="M103.35,148.59a2.57,2.57,0,1,0,1,3.5h0A2.57,2.57,0,0,0,103.35,148.59Z"/><path d="M113.79,154.66a2.57,2.57,0,1,0,1,3.5,2.56,2.56,0,0,0-1-3.5Z"/><path d="M124.23,160.81a2.57,2.57,0,1,0,1,3.5A2.56,2.56,0,0,0,124.23,160.81Z"/></g><g id="Полусухое-3"><path d="M92.34,0h0L47.94,24.65V80.76h0L92,106.24l44.82-25.33V24.41ZM89.69,98.47l-36.2-20.9V31.44l36.2,20.9Zm3-50.83L55.81,26.36l36.51-20,37.39,20.77Zm38.6,30L95.25,98V52.51l36-20Z"/><path d="M65.64,48.25a2.57,2.57,0,1,0-2.57-2.57h0A2.58,2.58,0,0,0,65.64,48.25Z"/><path d="M76.08,54.44a2.58,2.58,0,1,0-2.57-2.59h0A2.58,2.58,0,0,0,76.08,54.44Z"/><circle cx="60.5" cy="53.38" r="2.57"/><circle cx="70.79" cy="59.45" r="2.57"/><path d="M81.22,67.91a2.57,2.57,0,1,0-2.57-2.57h0A2.57,2.57,0,0,0,81.22,67.91Z"/><path d="M77.33,70.66a2.57,2.57,0,1,0,1,3.5h0A2.57,2.57,0,0,0,77.33,70.66Z"/><path d="M66.69,64.76a2.57,2.57,0,1,0,1,3.5h0a2.54,2.54,0,0,0-1-3.47Z"/><path d="M61.59,72.21a2.57,2.57,0,1,0,1,3.5,2.56,2.56,0,0,0-1-3.5Z"/><path d="M72,78.28a2.57,2.57,0,1,0,1,3.5,2.56,2.56,0,0,0-1-3.5Z"/><path d="M82.47,84.43a2.57,2.57,0,1,0,1,3.5A2.56,2.56,0,0,0,82.47,84.43Z"/></g></g></g></g></svg>