<svg xmlns="http://www.w3.org/2000/svg" xmlns:xlink="http://www.w3.org/1999/xlink" viewBox="0 0 100.84 148.26">
    <defs>
        <style>.cls-1{fill:url(#gradient);}</style>
        <linearGradient id="gradient" x1="50.29" y1="660.12" x2="50.29" y2="737.63" gradientTransform="translate(0 -622.96)" gradientUnits="userSpaceOnUse">
            <stop offset="0" stop-color="#a10912"/>
            <stop offset="1" stop-color="#e89515"/>
        </linearGradient>
    </defs>
    <path d="M50.25,146.35a26,26,0,1,1,26-26,26,26,0,0,1-26,26m0-46.91a20.94,20.94,0,1,0,21,20.94,20.95,20.95,0,0,0-21-20.94"/>
    <path class="cls-1" d="M3.6,78.68A46.69,46.69,0,1,0,50.4,32.1h-.11A46.64,46.64,0,0,0,3.6,78.68Z"/>
    <path d="M50.29,99.44a49.09,49.09,0,1,1,49.2-49.09,49.09,49.09,0,0,1-49.2,49.09m0-93.15A44.06,44.06,0,1,0,94.46,50.35,44.06,44.06,0,0,0,50.29,6.29"/>
</svg>