<svg width="130" height="37" viewBox="0 0 130 37" fill="none" xmlns="http://www.w3.org/2000/svg">
<g clip-path="url(#clip0)">
<path d="M52.0751 29.2193H56.1328C56.1628 30.3371 55.8178 31.4337 55.1503 32.3414C54.7104 32.8631 54.1529 33.2781 53.5215 33.5537C52.8901 33.8294 52.202 33.9582 51.5112 33.9302C50.852 33.9497 50.1957 33.8376 49.5823 33.6009C48.9689 33.3642 48.4112 33.0078 47.9432 32.5533C47.4753 32.0989 47.1069 31.556 46.8605 30.9577C46.6141 30.3595 46.4949 29.7184 46.5101 29.0736C46.5008 28.4254 46.6253 27.7821 46.8761 27.182C47.1269 26.582 47.4988 26.0375 47.9697 25.5812C48.4405 25.125 49.0006 24.7662 49.6164 24.5265C50.2322 24.2867 50.8911 24.1709 51.5537 24.1859C52.6552 24.1673 53.7279 24.5297 54.5828 25.2092C55.0275 25.534 55.4186 25.9236 55.7426 26.3644L55.2354 26.7598C54.9838 26.3671 54.6701 26.0159 54.3061 25.7191C53.6661 25.1932 52.8844 24.8591 52.055 24.7571C51.2255 24.6551 50.3836 24.7895 49.6304 25.1441C48.8772 25.4987 48.2446 26.0585 47.8088 26.7562C47.3729 27.4538 47.1523 28.2598 47.1733 29.0771C47.158 29.6383 47.2588 30.1968 47.4699 30.7189C47.6809 31.241 47.9977 31.716 48.4013 32.1152C48.8049 32.5145 49.2869 32.8298 49.8183 33.0421C50.3497 33.2545 50.9195 33.3595 51.4934 33.3509C52.1448 33.3707 52.7913 33.2351 53.3771 32.9559C53.963 32.6767 54.4705 32.2622 54.8559 31.7482C55.228 31.1552 55.4471 30.4825 55.4943 29.7882H52.0716L52.0751 29.2193Z" fill="#1B1C20"/>
<path d="M63.8434 33.7632L60.7115 29.2882H60.4207V33.7632H59.7822V24.2825H61.1761C61.8923 24.2264 62.608 24.3953 63.2191 24.7647C63.5462 24.9949 63.8091 25.3015 63.9838 25.6566C64.1586 26.0117 64.2395 26.4039 64.2194 26.7975C64.2481 27.3029 64.1041 27.8032 63.81 28.2197C63.5158 28.6361 63.0883 28.9449 62.5949 29.0975C62.2117 29.2217 61.8104 29.2838 61.4067 29.2813L64.567 33.7563L63.8434 33.7632ZM60.4207 28.7193H61.3606C62.7368 28.7193 63.5632 28.0255 63.5632 26.7906C63.5906 26.4655 63.5252 26.1393 63.3743 25.8484C63.2234 25.5574 62.9929 25.3132 62.7084 25.1428C62.2431 24.9418 61.7378 24.8446 61.2294 24.8584H60.4313L60.4207 28.7193Z" fill="#1B1C20"/>
<path d="M77.4888 29.049C77.493 30.0209 77.2021 30.9721 76.6531 31.7821C76.104 32.5921 75.3214 33.2245 74.4045 33.5991C73.4876 33.9737 72.4777 34.0737 71.5026 33.8864C70.5276 33.6991 69.6313 33.2329 68.9274 32.5469C68.2236 31.8609 67.7437 30.986 67.5487 30.033C67.3538 29.08 67.4524 28.0919 67.8322 27.1938C68.212 26.2958 68.8558 25.5281 69.682 24.9883C70.5083 24.4484 71.4798 24.1606 72.4735 24.1613C73.1335 24.151 73.7889 24.2703 74.401 24.5121C75.013 24.7539 75.5693 25.1132 76.0369 25.5689C76.5045 26.0246 76.8739 26.5674 77.1232 27.1651C77.3726 27.7629 77.4969 28.4035 77.4888 29.049ZM76.822 29.049C76.8129 28.209 76.5498 27.3904 76.066 26.6963C75.5821 26.0023 74.8991 25.4637 74.1029 25.1486C73.3067 24.8334 72.4329 24.7557 71.5917 24.9253C70.7505 25.0949 69.9793 25.5041 69.3754 26.1015C68.7715 26.6989 68.3619 27.4577 68.1981 28.2823C68.0343 29.107 68.1236 29.9606 68.4548 30.7356C68.7861 31.5107 69.3444 32.1726 70.0595 32.6379C70.7747 33.1032 71.6146 33.3512 72.4735 33.3505C73.0508 33.3577 73.6236 33.251 74.1578 33.0367C74.6919 32.8225 75.1764 32.5051 75.5823 32.1036C75.9882 31.702 76.3072 31.2246 76.5202 30.6998C76.7332 30.1749 76.8358 29.6135 76.822 29.049Z" fill="#1B1C20"/>
<path d="M81.781 24.2827V30.2112C81.781 31.1062 81.8236 31.689 82.1854 32.2579C82.7493 33.1529 83.8098 33.3506 84.4341 33.3506C85.0583 33.3506 86.1153 33.1529 86.6792 32.2579C87.0339 31.689 87.0871 31.1062 87.0871 30.2112V24.2827H87.722V30.2112C87.722 31.2519 87.6653 31.9457 87.1723 32.6395C86.8414 33.0381 86.4237 33.3595 85.9497 33.5803C85.4757 33.8011 84.9573 33.9156 84.4323 33.9156C83.9073 33.9156 83.3889 33.8011 82.9149 33.5803C82.4409 33.3595 82.0232 33.0381 81.6923 32.6395C81.1993 31.9457 81.1426 31.2519 81.1426 30.2112V24.2827H81.781Z" fill="#1B1C20"/>
<path d="M92.5349 29.2607V33.7703H91.8965V24.2827H93.7692C95.3476 24.2827 96.6067 25.1361 96.6067 26.7526C96.6067 28.3692 95.4646 29.2537 93.7976 29.2537L92.5349 29.2607ZM92.5349 28.6918H93.8118C95.0709 28.6918 95.9399 27.9668 95.9399 26.7734C95.9399 25.5801 95.1312 24.8586 93.7231 24.8586H92.5491L92.5349 28.6918Z" fill="#1B1C20"/>
<path d="M55.6856 13.6191H50.1276L48.677 16.7064H46.5488L52.997 3.19482L59.2041 16.7064H57.0759L55.6856 13.6191ZM54.8875 11.8152L52.9651 7.49287L50.9434 11.8152H54.8875Z" fill="#1B1C20"/>
<path d="M64.5177 3.99316V14.9065H68.3377V16.7069H62.5527V3.99316H64.5177Z" fill="#1B1C20"/>
<path d="M73.8843 3.99316H71.9229V16.7104H73.8843V3.99316Z" fill="#1B1C20"/>
<path d="M86.3733 13.6191H80.8047L79.3576 16.7064H77.2295L83.6777 3.19482L89.8848 16.7064H87.7353L86.3733 13.6191ZM85.5718 11.8152L83.6423 7.49287L81.6241 11.8152H85.5718Z" fill="#1B1C20"/>
<path d="M93.2324 16.7064V3.12891L102.713 12.8281V3.99268H104.675V17.4835L95.1939 7.80507V16.7064H93.2324Z" fill="#1B1C20"/>
<path d="M113.103 5.79703V16.7069H111.141V5.79703H108.151V3.99316H116.086V5.79703H113.103Z" fill="#1B1C20"/>
<path d="M126.492 13.6191H120.924L119.477 16.7064H117.349L123.786 3.19482L129.99 16.7064H127.862L126.492 13.6191ZM125.691 11.8152L123.761 7.49287L121.743 11.8152H125.691Z" fill="#1B1C20"/>
<path d="M16.6777 10.4454L15.3902 7.60083H22.4379L21.1539 10.4454H22.5443L24.3887 6.35547H13.4395L15.2874 10.4454H16.6777Z" fill="url(#paint0_linear)"/>
<path d="M21.1539 26.5552L22.4379 29.3997H15.3902L16.6777 26.5552H15.2874L13.4395 30.6416H24.3887L22.5443 26.5552H21.1539Z" fill="url(#paint1_linear)"/>
<path d="M6.49805 23.8527L10.6798 22.0489V20.689L7.77137 21.9448V15.052L10.6798 16.3112V14.9514L6.49805 13.144V23.8527Z" fill="url(#paint2_linear)"/>
<path d="M27.1514 16.3112L30.0598 15.052V21.9448L27.1514 20.689V22.0489L31.3296 23.8527V13.144L27.1514 14.9514V16.3112Z" fill="url(#paint3_linear)"/>
<path d="M23.5371 13.0987L24.438 13.9764L26.747 11.7181C27.3145 11.1665 26.7009 10.0044 26.7009 10.0044L23.5371 13.0987Z" fill="url(#paint4_linear)"/>
<path d="M13.3927 13.9764L14.2901 13.0987L11.1298 10.0044C11.1298 10.0044 10.5162 11.1665 11.0802 11.7181L13.3927 13.9764Z" fill="url(#paint5_linear)"/>
<path d="M24.438 23.0234L23.5371 23.9011L26.7009 26.9954C26.7009 26.9954 27.3145 25.8333 26.747 25.2817L24.438 23.0234Z" fill="url(#paint6_linear)"/>
<path d="M13.3927 23.0234L11.0802 25.2817C10.5162 25.8333 11.1298 26.9954 11.1298 26.9954L14.2901 23.9011L13.3927 23.0234Z" fill="url(#paint7_linear)"/>
<path d="M18.9155 0C15.1744 0 11.5172 1.08501 8.40661 3.11781C5.29598 5.15062 2.87153 8.03992 1.43986 11.4204C0.00819578 14.8008 -0.366394 18.5205 0.363464 22.1092C1.09332 25.6978 2.89485 28.9942 5.54022 31.5815C8.1856 34.1687 11.556 35.9307 15.2253 36.6445C18.8945 37.3583 22.6978 36.992 26.1541 35.5918C29.6105 34.1915 32.5647 31.8204 34.6431 28.778C36.7216 25.7357 37.831 22.159 37.831 18.5C37.8253 13.5952 35.8306 8.89284 32.2845 5.42461C28.7384 1.95638 23.9305 0.00550897 18.9155 0V0ZM18.9155 35.7685C15.4234 35.7685 12.0097 34.7557 9.10615 32.8582C6.20258 30.9608 3.93952 28.2638 2.60316 25.1084C1.26679 21.953 0.917137 18.4808 1.59841 15.1311C2.27968 11.7813 3.96129 8.70436 6.43057 6.28931C8.89985 3.87427 12.0459 2.2296 15.4709 1.56329C18.8959 0.896983 22.446 1.23896 25.6723 2.54597C28.8985 3.85298 31.6561 6.06633 33.5962 8.90613C35.5363 11.7459 36.5718 15.0846 36.5718 18.5C36.5671 23.0785 34.7054 27.4681 31.3952 30.7056C28.085 33.9431 23.5968 35.7639 18.9155 35.7685Z" fill="url(#paint8_linear)"/>
<path d="M22.1788 15.5131L23.0974 14.6701C22.1858 13.7177 20.9629 13.1063 19.6397 12.9414C18.3165 12.7765 16.9759 13.0685 15.8492 13.7669C14.7225 14.4653 13.8804 15.5264 13.468 16.7671C13.0557 18.0078 13.099 19.3504 13.5905 20.5632C14.0821 21.776 14.991 22.7831 16.1604 23.4106C17.3299 24.0381 18.6866 24.2468 19.9966 24.0006C21.3066 23.7544 22.4876 23.0688 23.336 22.0621C24.1844 21.0554 24.647 19.7906 24.6439 18.486V17.8858H21.3169L19.508 14.1706C20.5312 14.2995 21.476 14.7744 22.1788 15.5131ZM18.3198 14.1706L15.1063 20.7616C14.7216 20.1425 14.5004 19.4393 14.463 18.7157C14.4255 17.9921 14.5729 17.2707 14.8917 16.6167C15.2106 15.9627 15.6909 15.3966 16.2894 14.9695C16.8879 14.5425 17.5857 14.2679 18.3198 14.1706ZM16.0002 21.8023L17.309 19.1139H20.5224L21.8312 21.8092C21.0215 22.4947 19.9865 22.8719 18.9157 22.8719C17.8448 22.8719 16.8098 22.4947 16.0002 21.8092V21.8023ZM23.3422 19.1104C23.2548 19.7013 23.0435 20.2682 22.7215 20.7755L21.9128 19.1104H23.3422ZM17.9084 17.8858L18.9157 15.8045L19.923 17.8858H17.9084Z" fill="url(#paint9_linear)"/>
</g>
<defs>
<linearGradient id="paint0_linear" x1="5.76757" y1="1.16936" x2="40.48" y2="19.8257" gradientUnits="userSpaceOnUse">
<stop stop-color="#B22332"/>
<stop offset="1" stop-color="#6B172A"/>
</linearGradient>
<linearGradient id="paint1_linear" x1="-83.3514" y1="235.495" x2="379.449" y2="887.381" gradientUnits="userSpaceOnUse">
<stop stop-color="#B22332"/>
<stop offset="1" stop-color="#6B172A"/>
</linearGradient>
<linearGradient id="paint2_linear" x1="-8.8072" y1="455.199" x2="497.276" y2="559.072" gradientUnits="userSpaceOnUse">
<stop stop-color="#B22332"/>
<stop offset="1" stop-color="#6B172A"/>
</linearGradient>
<linearGradient id="paint3_linear" x1="73.4878" y1="154.713" x2="579.211" y2="258.444" gradientUnits="userSpaceOnUse">
<stop stop-color="#B22332"/>
<stop offset="1" stop-color="#6B172A"/>
</linearGradient>
<linearGradient id="paint4_linear" x1="77.0233" y1="29.1493" x2="437.146" y2="193.623" gradientUnits="userSpaceOnUse">
<stop stop-color="#B22332"/>
<stop offset="1" stop-color="#6B172A"/>
</linearGradient>
<linearGradient id="paint5_linear" x1="36.2903" y1="90.5559" x2="396.242" y2="254.805" gradientUnits="userSpaceOnUse">
<stop stop-color="#B22332"/>
<stop offset="1" stop-color="#6B172A"/>
</linearGradient>
<linearGradient id="paint6_linear" x1="23.7096" y1="158.944" x2="383.833" y2="323.418" gradientUnits="userSpaceOnUse">
<stop stop-color="#B22332"/>
<stop offset="1" stop-color="#6B172A"/>
</linearGradient>
<linearGradient id="paint7_linear" x1="-17.0205" y1="220.311" x2="342.971" y2="384.593" gradientUnits="userSpaceOnUse">
<stop stop-color="#B22332"/>
<stop offset="1" stop-color="#6B172A"/>
</linearGradient>
<linearGradient id="paint8_linear" x1="140.353" y1="1008.25" x2="3842.78" y2="2998.14" gradientUnits="userSpaceOnUse">
<stop stop-color="#B22332"/>
<stop offset="1" stop-color="#6B172A"/>
</linearGradient>
<linearGradient id="paint9_linear" x1="55.6908" y1="318.227" x2="1176.9" y2="920.827" gradientUnits="userSpaceOnUse">
<stop stop-color="#B22332"/>
<stop offset="1" stop-color="#6B172A"/>
</linearGradient>
<clipPath id="clip0">
<rect width="130" height="37" fill="white"/>
</clipPath>
</defs>
</svg>
