<svg xmlns="http://www.w3.org/2000/svg" xmlns:xlink="http://www.w3.org/1999/xlink" viewBox="0 0 403 163"><defs><style>.cls-1{fill:#fff;}.cls-2{fill:url(#Безымянный_градиент);}.cls-3{fill:url(#Безымянный_градиент_2);}.cls-4{fill:url(#Безымянный_градиент_3);}.cls-5{fill:url(#Безымянный_градиент_4);}.cls-6{fill:url(#Безымянный_градиент_5);}.cls-7{fill:url(#Безымянный_градиент_6);}.cls-8{fill:url(#Безымянный_градиент_7);}.cls-9{fill:url(#Безымянный_градиент_8);}.cls-10{fill:url(#Безымянный_градиент_9);}.cls-11{fill:url(#Безымянный_градиент_10);}.cls-12{fill:url(#Безымянный_градиент_11);}.cls-13{fill:url(#Безымянный_градиент_12);}.cls-14{fill:url(#Безымянный_градиент_13);}.cls-15{fill:url(#Безымянный_градиент_14);}.cls-16{fill:url(#Безымянный_градиент_15);}</style><linearGradient id="Безымянный_градиент" x1="54.2" y1="554.17" x2="54.2" y2="476.66" gradientTransform="matrix(1, 0, 0, -1, 0, 598)" gradientUnits="userSpaceOnUse"><stop offset="0" stop-color="#a10912"/><stop offset="1" stop-color="#e89515"/></linearGradient><linearGradient id="Безымянный_градиент_2" x1="150.74" y1="453.87" x2="394.9" y2="476.98" gradientTransform="matrix(1, 0, 0, -1, 0, 598)" gradientUnits="userSpaceOnUse"><stop offset="0" stop-color="#b12333"/><stop offset="1" stop-color="#6b1629"/></linearGradient><linearGradient id="Безымянный_градиент_3" x1="151.39" y1="447" x2="395.56" y2="470.12" xlink:href="#Безымянный_градиент_2"/><linearGradient id="Безымянный_градиент_4" x1="151.15" y1="449.5" x2="395.32" y2="472.61" xlink:href="#Безымянный_градиент_2"/><linearGradient id="Безымянный_градиент_5" x1="151.21" y1="448.9" x2="395.38" y2="472.01" xlink:href="#Безымянный_градиент_2"/><linearGradient id="Безымянный_градиент_6" x1="151.29" y1="448.13" x2="395.43" y2="471.24" xlink:href="#Безымянный_градиент_2"/><linearGradient id="Безымянный_градиент_7" x1="151.65" y1="444.24" x2="395.82" y2="467.35" xlink:href="#Безымянный_градиент_2"/><linearGradient id="Безымянный_градиент_8" x1="151.76" y1="443.06" x2="395.93" y2="466.18" xlink:href="#Безымянный_градиент_2"/><linearGradient id="Безымянный_градиент_9" x1="151.71" y1="443.57" x2="395.88" y2="466.68" xlink:href="#Безымянный_градиент_2"/><linearGradient id="Безымянный_градиент_10" x1="152.02" y1="440.37" x2="396.18" y2="463.49" xlink:href="#Безымянный_градиент_2"/><linearGradient id="Безымянный_градиент_11" x1="151.98" y1="440.83" x2="396.14" y2="463.94" xlink:href="#Безымянный_градиент_2"/><linearGradient id="Безымянный_градиент_12" x1="152.32" y1="437.25" x2="396.48" y2="460.36" xlink:href="#Безымянный_градиент_2"/><linearGradient id="Безымянный_градиент_13" x1="152.45" y1="435.83" x2="396.61" y2="458.94" xlink:href="#Безымянный_градиент_2"/><linearGradient id="Безымянный_градиент_14" x1="152.59" y1="434.35" x2="396.75" y2="457.46" xlink:href="#Безымянный_градиент_2"/><linearGradient id="Безымянный_градиент_15" x1="152.95" y1="430.51" x2="397.12" y2="453.63" xlink:href="#Безымянный_градиент_2"/></defs><title>logo-white</title><g><path class="cls-1" d="M54.16,153a26,26,0,1,1,26-26,26,26,0,0,1-26,26m0-46.91a20.94,20.94,0,1,0,21,20.94,21,21,0,0,0-21-20.94"/><path class="cls-2" d="M7.51,85.35A46.69,46.69,0,1,0,54.2,38.77,46.64,46.64,0,0,0,7.51,85.35"/><path class="cls-1" d="M54.2,106.11A49.09,49.09,0,1,1,103.4,57a49.2,49.2,0,0,1-49.2,49.09M54.2,13A44.06,44.06,0,1,0,98.37,57,44.17,44.17,0,0,0,54.2,13"/><path class="cls-3" d="M155.93,133.61h2.14v8a4.94,4.94,0,0,1,4.39-2.41c3.44,0,5.94,2.87,5.94,6.91s-2.49,6.91-5.94,6.91a5,5,0,0,1-4.53-2.52l-.27,2.2h-1.73V133.61Zm6,7.35a3.84,3.84,0,0,0-3.9,4.09v2.11a3.82,3.82,0,0,0,3.9,4.09c2.47,0,4.26-2.11,4.26-5.15S164.41,141,162,141Z"/><path class="cls-4" d="M176.94,154.68c-1.08,2.74-2.44,4-4.55,4a8.09,8.09,0,0,1-1.84-.24l.3-1.74a5.23,5.23,0,0,0,1.33.22c1.33,0,2.11-.76,2.82-2.6l.68-1.71-5.45-13.07h2.25l4.23,10.68,4.09-10.68h2.28Z"/><path class="cls-5" d="M198.21,134.48h2.09l7.51,18.22h-2.28l-2-5H195l-2,5h-2.28ZM195.61,146h7.27l-3.63-9Z"/><path class="cls-6" d="M212.63,149.66a1.49,1.49,0,0,0,1.6,1.6,5.92,5.92,0,0,0,1.3-.19l.27,1.71a9.77,9.77,0,0,1-2,.24,3,3,0,0,1-3.28-3.17V133.61h2.14Z"/><path class="cls-7" d="M219.3,134.07a1.44,1.44,0,1,1-1.46,1.44A1.39,1.39,0,0,1,219.3,134.07Zm-1.08,5.45h2.14V152.7h-2.14Z"/><path class="cls-8" d="M229.71,144.7a11.73,11.73,0,0,1,3,.38v-1.36a2.92,2.92,0,0,0-3.23-2.87,11,11,0,0,0-4.36,1l-.6-1.57a14.46,14.46,0,0,1,5.21-1.06c3,0,5,1.84,5,4.58v6.37a1.09,1.09,0,0,0,1.19,1.19,4.51,4.51,0,0,0,.7-.08l.16,1.63a7.83,7.83,0,0,1-1.41.14,2.35,2.35,0,0,1-2.52-2.2,5.78,5.78,0,0,1-4.58,2.2c-2.6,0-4.58-1.71-4.58-4C223.69,146.3,226,144.7,229.71,144.7Zm-.92,6.75a3.75,3.75,0,0,0,3.88-4v-1.11a11.61,11.61,0,0,0-2.71-.33c-2.6,0-4.15,1.08-4.15,2.87A2.7,2.7,0,0,0,228.79,151.45Z"/><path class="cls-9" d="M239.19,139.52h1.74l.27,2.41a5.15,5.15,0,0,1,4.74-2.74,4.76,4.76,0,0,1,5,4.91v8.59h-2.17v-8.27a3.31,3.31,0,0,0-3.47-3.42,4,4,0,0,0-4,4.26v7.43h-2.14V139.52Z"/><path class="cls-10" d="M258.44,139.52h4.15v1.71h-4.15V149a2.16,2.16,0,0,0,2.28,2.28,8.35,8.35,0,0,0,1.87-.27l.3,1.68a10.35,10.35,0,0,1-2.63.35,3.71,3.71,0,0,1-4-3.85v-7.94h-2.74v-1.71h2.74v-3.9h2.14Z"/><path class="cls-11" d="M270.93,144.7a11.73,11.73,0,0,1,3,.38v-1.36a2.92,2.92,0,0,0-3.23-2.87,11.05,11.05,0,0,0-4.37,1l-.6-1.57a14.46,14.46,0,0,1,5.21-1.06c3,0,5,1.84,5,4.58v6.37a1.09,1.09,0,0,0,1.19,1.19,4.51,4.51,0,0,0,.7-.08l.16,1.63a7.83,7.83,0,0,1-1.41.14,2.35,2.35,0,0,1-2.52-2.2,5.78,5.78,0,0,1-4.58,2.2c-2.6,0-4.58-1.71-4.58-4C264.92,146.3,267.19,144.7,270.93,144.7Zm-.92,6.75a3.75,3.75,0,0,0,3.88-4v-1.11a11.61,11.61,0,0,0-2.71-.33c-2.6,0-4.15,1.08-4.15,2.87A2.72,2.72,0,0,0,270,151.45Z"/><path class="cls-12" d="M302,151.53a15.13,15.13,0,0,1-6.45,1.49,9,9,0,0,1-9.41-9.43c0-5.53,3.8-9.43,9.19-9.43a12.88,12.88,0,0,1,6.37,1.82l-.84,1.55a11,11,0,0,0-5.29-1.6c-4.26,0-7.21,3.17-7.21,7.67s3,7.67,7.35,7.67a10.1,10.1,0,0,0,4.2-.92v-5.42H295.3v-1.68H302v8.28Z"/><path class="cls-13" d="M306,139.52h1.74L308,142a4.24,4.24,0,0,1,4.09-2.71,7.21,7.21,0,0,1,1.65.22l-.24,1.76a7.74,7.74,0,0,0-1.57-.19c-2.25,0-3.8,1.82-3.8,4.47v7.13H306V139.52Z"/><path class="cls-14" d="M322.14,139.2a6.91,6.91,0,1,1-6.72,6.91A6.54,6.54,0,0,1,322.14,139.2Zm0,12.09c2.63,0,4.5-2.11,4.5-5.18s-1.87-5.18-4.5-5.18-4.5,2.14-4.5,5.18S319.48,151.29,322.14,151.29Z"/><path class="cls-15" d="M343.71,152.7H342l-.27-2.41a5.23,5.23,0,0,1-4.77,2.74,4.74,4.74,0,0,1-5-4.91v-8.59h2.14v8.3a3.29,3.29,0,0,0,3.47,3.39,4,4,0,0,0,4-4.26v-7.43h2.17V152.7Z"/><path class="cls-16" d="M348,139.52h1.74l.27,2.2a5,5,0,0,1,4.53-2.52c3.44,0,5.94,2.87,5.94,6.91S358,153,354.51,153a5,5,0,0,1-4.39-2.39v7.7H348V139.52Zm6,1.44a3.84,3.84,0,0,0-3.9,4.09v2.11a3.82,3.82,0,0,0,3.9,4.09c2.47,0,4.26-2.11,4.26-5.15S356.45,141,354,141Z"/><path class="cls-1" d="M153.6,7.93,165.07,37,176.8,5.84,188.14,37,200,7.93h7.17L187.75,54.21,176.41,23.38,164.94,54.21,146.43,7.93Z"/><path class="cls-1" d="M222.55,7.93V51.41h-6.64V7.93Z"/><path class="cls-1" d="M236.24,51.41V5l31.55,33.05V7.94h6.65V54.09L242.89,21V51.41Z"/><path class="cls-1" d="M312.11,14.19H294.77V24.55h16.82v6.26H294.77V45.15h17.34v6.26h-24V7.93h24Z"/><path class="cls-1" d="M175.37,73.21H158V83.57h16.82v6.26H158v14.34h17.34v6.26h-24V67h24Z"/><path class="cls-1" d="M196.35,87.74,184.36,67h7.43l8.47,14.73L208.93,67h7.43L203.85,87.74,217,110.42h-7.43L200,93.8l-9.91,16.62h-7.43Z"/><path class="cls-1" d="M235.66,67c2.67,0,6.39.26,9.52,2.35a12.58,12.58,0,0,1,5.41,10.56,12.18,12.18,0,0,1-4.24,9.52c-3.45,2.93-7.43,3.39-10.62,3.39h-3v17.66h-6.65V67Zm-2.94,19.68h3c5.74,0,8.47-2.8,8.47-6.84,0-2.41-1-6.71-8.54-6.71h-2.93Z"/><path class="cls-1" d="M268.38,67c5.28,0,8.67.65,11.47,2.54A12.12,12.12,0,0,1,285,79.72a11.92,11.92,0,0,1-9.65,12.12l13.56,18.58h-8L268.44,92.63h-1.17v17.79h-6.65V66.94h7.76Zm-1.11,19.94h2.09c1.83,0,9.26-.2,9.26-7.1,0-6.13-5.8-6.71-9.06-6.71h-2.28V86.89Z"/><path class="cls-1" d="M322.67,73.21H305.33V83.57h16.82v6.26H305.33v14.34h17.34v6.26h-24V67h24Z"/><path class="cls-1" d="M353.3,76.6a6.73,6.73,0,0,0-6.65-4.3c-4,0-6.13,2.41-6.13,5.21,0,1.3.46,3.58,4.69,5.28l4.37,1.76c8,3.26,10.23,7.82,10.23,12.77,0,8.28-5.87,14-14,14a12.69,12.69,0,0,1-10.23-4.37,14,14,0,0,1-3.65-8.47L338.5,97a9.35,9.35,0,0,0,1.83,5.54,6.84,6.84,0,0,0,5.67,2.61,7,7,0,0,0,7.17-7.3c0-4.43-3.39-6.26-6.26-7.43l-4.17-1.76c-3.58-1.5-8.86-4.5-8.86-11,0-5.87,4.56-11.47,12.71-11.47a12.81,12.81,0,0,1,8.73,2.93,14.73,14.73,0,0,1,3.32,4.37Z"/><path class="cls-1" d="M390.2,76.6a6.7,6.7,0,0,0-6.64-4.3c-4,0-6.13,2.41-6.13,5.21,0,1.3.46,3.58,4.69,5.28l4.37,1.76c8,3.26,10.23,7.82,10.23,12.77,0,8.28-5.87,14-14,14a12.69,12.69,0,0,1-10.23-4.37,14,14,0,0,1-3.65-8.47L375.41,97a9.35,9.35,0,0,0,1.83,5.54,6.84,6.84,0,0,0,5.67,2.61,7,7,0,0,0,7.17-7.3c0-4.43-3.39-6.26-6.26-7.43l-4.17-1.76c-3.58-1.5-8.86-4.5-8.86-11,0-5.87,4.56-11.47,12.71-11.47a12.81,12.81,0,0,1,8.73,2.93,14.73,14.73,0,0,1,3.32,4.37Z"/></g></svg>