<svg width="98" height="28" viewBox="0 0 98 28" fill="none" xmlns="http://www.w3.org/2000/svg">
<g clip-path="url(#clip0)">
<path d="M39.2567 22.1118H42.3155C42.3382 22.9576 42.0781 23.7875 41.5749 24.4744C41.2433 24.8693 40.823 25.1833 40.347 25.3919C39.8711 25.6005 39.3524 25.698 38.8316 25.6768C38.3347 25.6915 37.8399 25.6067 37.3775 25.4276C36.9151 25.2484 36.4947 24.9787 36.1419 24.6348C35.7891 24.2909 35.5114 23.8801 35.3257 23.4273C35.1399 22.9746 35.05 22.4895 35.0615 22.0015C35.0546 21.511 35.1484 21.0241 35.3375 20.57C35.5265 20.1159 35.8069 19.7039 36.1618 19.3586C36.5167 19.0133 36.939 18.7419 37.4032 18.5604C37.8674 18.379 38.3641 18.2913 38.8637 18.3027C39.694 18.2886 40.5027 18.5629 41.1471 19.0771C41.4823 19.3229 41.7772 19.6177 42.0214 19.9513L41.6391 20.2505C41.4494 19.9534 41.2129 19.6875 40.9385 19.463C40.456 19.065 39.8668 18.8122 39.2415 18.735C38.6163 18.6578 37.9816 18.7595 37.4138 19.0278C36.8459 19.2962 36.3691 19.7198 36.0405 20.2478C35.7119 20.7757 35.5456 21.3856 35.5615 22.0042C35.5499 22.4289 35.626 22.8515 35.785 23.2466C35.9441 23.6417 36.183 24.0012 36.4872 24.3033C36.7914 24.6054 37.1548 24.844 37.5554 25.0047C37.956 25.1654 38.3855 25.2449 38.8182 25.2384C39.3092 25.2533 39.7966 25.1508 40.2382 24.9394C40.6798 24.7281 41.0624 24.4145 41.353 24.0255C41.6335 23.5767 41.7987 23.0677 41.8343 22.5423H39.254L39.2567 22.1118Z" fill="#BBBBBB"/>
<path d="M48.1284 25.5507L45.7674 22.1643H45.5482V25.5507H45.0669V18.3762H46.1177C46.6575 18.3337 47.1971 18.4615 47.6578 18.7411C47.9044 18.9152 48.1025 19.1473 48.2343 19.416C48.366 19.6847 48.427 19.9816 48.4118 20.2794C48.4335 20.6618 48.3249 21.0405 48.1032 21.3556C47.8815 21.6708 47.5592 21.9045 47.1872 22.0199C46.8984 22.1139 46.5958 22.1609 46.2915 22.159L48.6738 25.5455L48.1284 25.5507ZM45.5482 21.7337H46.2567C47.2942 21.7337 47.9172 21.2087 47.9172 20.2741C47.9378 20.0281 47.8885 19.7813 47.7748 19.5611C47.661 19.3409 47.4872 19.1561 47.2728 19.0272C46.922 18.8751 46.5411 18.8015 46.1578 18.8119H45.5562L45.5482 21.7337Z" fill="#BBBBBB"/>
<path d="M58.4145 21.9831C58.4177 22.7186 58.1984 23.4384 57.7845 24.0514C57.3706 24.6644 56.7806 25.143 56.0894 25.4264C55.3982 25.7099 54.6369 25.7856 53.9018 25.6438C53.1668 25.5021 52.4912 25.1493 51.9605 24.6302C51.4299 24.111 51.0682 23.4489 50.9212 22.7278C50.7742 22.0066 50.8486 21.2588 51.1349 20.5792C51.4212 19.8996 51.9065 19.3187 52.5294 18.9101C53.1523 18.5016 53.8846 18.2838 54.6337 18.2843C55.1313 18.2765 55.6254 18.3668 56.0867 18.5498C56.5481 18.7327 56.9675 19.0047 57.32 19.3495C57.6725 19.6944 57.9509 20.1051 58.1389 20.5575C58.3269 21.0098 58.4206 21.4946 58.4145 21.9831ZM57.9118 21.9831C57.9049 21.3474 57.7066 20.728 57.3419 20.2027C56.9771 19.6775 56.4622 19.2699 55.862 19.0314C55.2618 18.7929 54.6032 18.7342 53.969 18.8625C53.3348 18.9908 52.7535 19.3005 52.2983 19.7526C51.843 20.2046 51.5342 20.7789 51.4107 21.4029C51.2872 22.027 51.3546 22.6729 51.6043 23.2595C51.854 23.846 52.2749 24.3469 52.814 24.699C53.3531 25.0512 53.9862 25.2388 54.6337 25.2383C55.0689 25.2437 55.5007 25.163 55.9034 25.0008C56.3061 24.8387 56.6713 24.5985 56.9773 24.2947C57.2833 23.9908 57.5238 23.6295 57.6843 23.2323C57.8449 22.8352 57.9223 22.4103 57.9118 21.9831Z" fill="#BBBBBB"/>
<path d="M61.6497 18.3762V22.8626C61.6497 23.5399 61.6818 23.9809 61.9546 24.4114C62.3797 25.0887 63.1792 25.2383 63.6497 25.2383C64.1203 25.2383 64.9171 25.0887 65.3423 24.4114C65.6096 23.9809 65.6498 23.5399 65.6498 22.8626V18.3762H66.1284V22.8626C66.1284 23.6501 66.0856 24.1751 65.7139 24.7002C65.4645 25.0019 65.1496 25.2451 64.7923 25.4122C64.435 25.5793 64.0442 25.6659 63.6484 25.6659C63.2526 25.6659 62.8618 25.5793 62.5045 25.4122C62.1472 25.2451 61.8323 25.0019 61.5829 24.7002C61.2112 24.1751 61.1685 23.6501 61.1685 22.8626V18.3762H61.6497Z" fill="#BBBBBB"/>
<path d="M69.7567 22.1433V25.556H69.2754V18.3762H70.6872C71.877 18.3762 72.8262 19.022 72.8262 20.2453C72.8262 21.4686 71.9652 22.138 70.7086 22.138L69.7567 22.1433ZM69.7567 21.7127H70.7192C71.6684 21.7127 72.3235 21.1641 72.3235 20.261C72.3235 19.358 71.7139 18.8119 70.6524 18.8119H69.7674L69.7567 21.7127Z" fill="#BBBBBB"/>
<path d="M41.9786 10.3064H37.7888L36.6952 12.6428H35.0909L39.9519 2.41779L44.6311 12.6428H43.0268L41.9786 10.3064ZM41.377 8.94132L39.9278 5.67036L38.4038 8.94132H41.377Z" fill="#BBBBBB"/>
<path d="M48.6364 3.02155V11.2803H51.5161V12.6428H47.1552V3.02155H48.6364Z" fill="#BBBBBB"/>
<path d="M55.6978 3.02155H54.2192V12.6454H55.6978V3.02155Z" fill="#BBBBBB"/>
<path d="M65.1123 10.3064H60.9144L59.8235 12.6428H58.2192L63.0802 2.41779L67.7593 12.6428H66.139L65.1123 10.3064ZM64.508 8.94132L63.0535 5.67036L61.5321 8.94132H64.508Z" fill="#BBBBBB"/>
<path d="M70.2834 12.6428V2.36792L77.4305 9.70788V3.02159H78.9091V13.2308L71.7621 5.90664V12.6428H70.2834Z" fill="#BBBBBB"/>
<path d="M85.262 4.38663V12.6428H83.7834V4.38663H81.5294V3.02155H87.5107V4.38663H85.262Z" fill="#BBBBBB"/>
<path d="M95.3556 10.3064H91.1577L90.0668 12.6428H88.4625L93.3155 2.41779L97.9919 12.6428H96.3877L95.3556 10.3064ZM94.7513 8.94132L93.2967 5.67036L91.7754 8.94132H94.7513Z" fill="#BBBBBB"/>
<path d="M12.5722 7.90433L11.6016 5.7517H16.9144L15.9465 7.90433H16.9946L18.385 4.80927H10.131L11.524 7.90433H12.5722Z" fill="#BBBBBB"/>
<path d="M15.9465 20.0956L16.9144 22.2483H11.6016L12.5722 20.0956H11.524L10.131 23.1881H18.385L16.9946 20.0956H15.9465Z" fill="#BBBBBB"/>
<path d="M4.89844 18.0506L8.05084 16.6855V15.6564L5.85833 16.6068V11.3906L8.05084 12.3435V11.3144L4.89844 9.94672V18.0506Z" fill="#BBBBBB"/>
<path d="M20.468 12.3435L22.6605 11.3906V16.6068L20.468 15.6564V16.6855L23.6178 18.0506V9.94672L20.468 11.3144V12.3435Z" fill="#BBBBBB"/>
<path d="M17.7433 9.91263L18.4224 10.5768L20.1631 8.86781C20.5909 8.45041 20.1283 7.57098 20.1283 7.57098L17.7433 9.91263Z" fill="#BBBBBB"/>
<path d="M10.0962 10.5768L10.7727 9.91263L8.39036 7.57098C8.39036 7.57098 7.92779 8.45041 8.35293 8.86781L10.0962 10.5768Z" fill="#BBBBBB"/>
<path d="M18.4224 17.4232L17.7433 18.0874L20.1283 20.429C20.1283 20.429 20.5909 19.5496 20.1631 19.1322L18.4224 17.4232Z" fill="#BBBBBB"/>
<path d="M10.0962 17.4232L8.35293 19.1322C7.92779 19.5496 8.39036 20.429 8.39036 20.429L10.7727 18.0874L10.0962 17.4232Z" fill="#BBBBBB"/>
<path d="M14.2594 0C11.4391 0 8.68223 0.821086 6.33729 2.35943C3.99235 3.89777 2.16469 6.08427 1.08544 8.64243C0.00617836 11.2006 -0.276204 14.0155 0.273996 16.7313C0.824197 19.447 2.18227 21.9416 4.17648 23.8995C6.17068 25.8574 8.71146 27.1908 11.4775 27.731C14.2435 28.2712 17.1106 27.9939 19.7162 26.9343C22.3217 25.8747 24.5487 24.0803 26.1156 21.778C27.6824 19.4757 28.5187 16.7689 28.5187 14C28.5145 10.2882 27.0108 6.72972 24.3376 4.10511C21.6643 1.4805 18.0399 0.00416895 14.2594 0V0ZM14.2594 27.0681C11.6269 27.0681 9.05348 26.3016 6.86464 24.8657C4.67579 23.4298 2.96979 21.3888 1.96238 19.0009C0.954965 16.6131 0.69138 13.9855 1.20496 11.4505C1.71853 8.91559 2.9862 6.58708 4.84766 4.75948C6.70912 2.93188 9.08076 1.68727 11.6627 1.18303C14.2446 0.678798 16.9208 0.93759 19.3529 1.92668C21.7851 2.91577 23.8638 4.59074 25.3264 6.73977C26.7889 8.8888 27.5695 11.4154 27.5695 14C27.566 17.4648 26.1625 20.7867 23.6672 23.2367C21.1718 25.6867 17.7884 27.0646 14.2594 27.0681Z" fill="#BBBBBB"/>
<path d="M16.7192 11.7397L17.4117 11.1018C16.7245 10.381 15.8026 9.91838 14.8051 9.79359C13.8076 9.66881 12.797 9.88973 11.9477 10.4183C11.0983 10.9468 10.4635 11.7498 10.1526 12.6887C9.84181 13.6276 9.87447 14.6436 10.245 15.5614C10.6155 16.4792 11.3007 17.2413 12.1823 17.7162C13.0639 18.1911 14.0867 18.349 15.0742 18.1627C16.0617 17.9764 16.952 17.4576 17.5916 16.6957C18.2311 15.9339 18.5798 14.9767 18.5775 13.9895V13.5353H16.0695L14.7059 10.7238C15.4772 10.8213 16.1894 11.1807 16.7192 11.7397ZM13.8101 10.7238L11.3877 15.7116C11.0976 15.243 10.9309 14.7109 10.9027 14.1633C10.8744 13.6157 10.9855 13.0698 11.2259 12.5749C11.4663 12.0799 11.8284 11.6516 12.2795 11.3284C12.7307 11.0052 13.2567 10.7974 13.8101 10.7238ZM12.0615 16.4991L13.0481 14.4646H15.4706L16.4572 16.5044C15.8468 17.0231 15.0666 17.3086 14.2593 17.3086C13.4521 17.3086 12.6718 17.0231 12.0615 16.5044V16.4991ZM17.5962 14.462C17.5304 14.9092 17.3711 15.3382 17.1283 15.7221L16.5187 14.462H17.5962ZM13.5 13.5353L14.2593 11.9602L15.0187 13.5353H13.5Z" fill="#BBBBBB"/>
</g>
<defs>
<clipPath id="clip0">
<rect width="98" height="28" fill="white"/>
</clipPath>
</defs>
</svg>
