<svg width="291" height="185" fill="none" xmlns="http://www.w3.org/2000/svg"><g filter="url(#filter0_i)"><path d="M108.258 89.538c-25.2-.28-49.021 14.915-61.378 19.927C29.68 116.441 14 116 0 140v33.004C0 179.632 5.373 185 12 185h266c6.627 0 12-5.373 12-12v-50.57c-2.786-2.644-7.054-3.409-11.448-3.409-5.052 0-7.052.979-10.552-4.521-2.921-4.589-19.148-16.34-17.5-26.5 1.766-10.888 2.556-18.5 9-27.5 4.395-6.137-.752-10.217 3.5-19l-2.25-2.954c-3.417 2.352-7.694 5.454-7.694 11.638 0 8.551-7.756 10.863-12.493 17.983C232.722 79.953 235 91 221.5 99c-6.296 3.731-53.504 4.908-60.749 5.933-21.152 2.995-31.131-15.157-52.493-15.395z" fill="url(#paint0_linear)"/></g><path d="M258.845 39.902l3.192 2.866a2 2 0 001.884.435l.028-.008c.327-.093.624-.268.865-.508l2.021-2.016c.22-.22.386-.487.485-.782l.108-.324c.127-.381.367-.715.687-.959l8.771-6.665a3.98 3.98 0 01.562-.358L290 25l.084-10L290 8V0l-12.447 12.333a4.008 4.008 0 00-.676.89l-6.158 11.013c-.097.174-.207.34-.329.498l-7.158 9.239a2.002 2.002 0 01-.95.673l-.337.112a1.997 1.997 0 00-.781.482l-2.379 2.373a1.576 1.576 0 00.06 2.29z" fill="#2D2D2D"/><defs><linearGradient id="paint0_linear" x1="37.374" y1="126.411" x2="305.827" y2="187.996" gradientUnits="userSpaceOnUse"><stop stop-color="#FFED9F"/><stop offset="1" stop-color="#E8D06A"/></linearGradient><filter id="filter0_i" x="0" y="38.546" width="290" height="151.454" filterUnits="userSpaceOnUse" color-interpolation-filters="sRGB"><feFlood flood-opacity="0" result="BackgroundImageFix"/><feBlend in="SourceGraphic" in2="BackgroundImageFix" result="shape"/><feColorMatrix in="SourceAlpha" values="0 0 0 0 0 0 0 0 0 0 0 0 0 0 0 0 0 0 127 0" result="hardAlpha"/><feOffset dy="5"/><feGaussianBlur stdDeviation="5"/><feComposite in2="hardAlpha" operator="arithmetic" k2="-1" k3="1"/><feColorMatrix values="0 0 0 0 0.566667 0 0 0 0 0.460417 0 0 0 0 0 0 0 0 0.5 0"/><feBlend in2="shape" result="effect1_innerShadow"/></filter></defs></svg>