<svg width="775" height="367" fill="none" xmlns="http://www.w3.org/2000/svg"><g filter="url(#filter0_i)"><path d="M150.5 185C104.414 203.692-19 262.5 3.5 367H763c6.627 0 12-5.373 12-12V216.368c-6.741-6.396-17.067-8.246-27.698-8.246-49.05 0-56.012 12.594-65.032-11.545-4.607-12.329-43.271-11.077-56.771-21.577-10.136-7.884-11.272-24.279-13.419-38.21-3.205-20.79-5.326-23.493 4.96-44.743L609.875 86c-8.267 5.69-11.091 12.328-13.778 25.739-3.342 35.599-15.269 33.739-30.223 43.507-19.574 16.646-59.489-1.816-96.336 6.147-17.306 3.739-26.008 10.162-43.538 12.644-51.176 7.245-75.318-36.671-127.001-37.247-60.968-.679-118.603 36.085-148.499 48.21z" fill="url(#paint0_linear)"/></g><path d="M604.663 88.741l9.492 8.521a2 2 0 001.884.435l2.283-.65a2 2 0 00.864-.507l5.886-5.871c.22-.22.386-.487.484-.782l.753-2.252c.127-.38.367-.715.687-.958l22.563-17.146 30.74-18.827c.363-.222.688-.5.963-.826L723.499 0h-48.27a5.001 5.001 0 00-3.531 1.46l-21.745 21.688a4.011 4.011 0 00-.666.88L633.786 51.75c-.097.174-.207.34-.329.498L615.35 75.62a2.002 2.002 0 01-.95.672l-2.269.755a1.996 1.996 0 00-.781.482l-6.763 6.745a1.997 1.997 0 00-.588 1.416v1.563c0 .568.241 1.109.664 1.488z" fill="#2D2D2D"/><defs><linearGradient id="paint0_linear" x1="127.5" y1="226" x2="777" y2="375" gradientUnits="userSpaceOnUse"><stop stop-color="#FFED9F"/><stop offset="1" stop-color="#E8D06A"/></linearGradient><filter id="filter0_i" x=".785" y="86" width="774.215" height="286" filterUnits="userSpaceOnUse" color-interpolation-filters="sRGB"><feFlood flood-opacity="0" result="BackgroundImageFix"/><feBlend in="SourceGraphic" in2="BackgroundImageFix" result="shape"/><feColorMatrix in="SourceAlpha" values="0 0 0 0 0 0 0 0 0 0 0 0 0 0 0 0 0 0 127 0" result="hardAlpha"/><feOffset dy="5"/><feGaussianBlur stdDeviation="5"/><feComposite in2="hardAlpha" operator="arithmetic" k2="-1" k3="1"/><feColorMatrix values="0 0 0 0 0.566667 0 0 0 0 0.460417 0 0 0 0 0 0 0 0 0.5 0"/><feBlend in2="shape" result="effect1_innerShadow"/></filter></defs></svg>