<svg width="81" height="108" fill="none" xmlns="http://www.w3.org/2000/svg"><path fill-rule="evenodd" clip-rule="evenodd" d="M12.532 25.45c-.606 2.184-1.93 5.123-1.454 7.758a5.502 5.502 0 004.01 4.176c.458.169.962.169 1.42 0a5.502 5.502 0 004.01-4.176c.475-2.635-.848-5.574-1.454-7.759-1.694-.263-4.761-.414-6.532 0z" fill="#E3E3E3"/><path fill-rule="evenodd" clip-rule="evenodd" d="M19.033 25.56c-.48.217-2.97.22-3.238.22-.268 0-2.74 0-3.24-.22-.048-.02-.02-.031 0-.082 0 .153 2.982.202 3.23.202.248 0 3.22-.046 3.22-.197.054.018.097.051.028.077z" fill="#CCCACD"/><path fill-rule="evenodd" clip-rule="evenodd" d="M43.137 62.554c1.707.593 3.688 1.898 3.99 3.7.362.969-.277 2.79-1.15 3.195-3.197 1.469-8.69-1.79-13.302-3.898-3.764-1.722-10.386-5.622-11.623-6.289a31.09 31.09 0 01-3.447-3.243c-1.137-1.262-1.715-2.075-2.811-3.082.028-.767.889-1.873 3.066-.54.41-.439.47-.968 1.092-.556l.546.255.65-.628c.393-.172 1.022-.547 1.106-.88.57-1.08 1.37 1.212 1.408 1.352.41 1.5.736 1.09.849 2.024.04.34-.126 1.733-.14 2.328 3.549 3.652 14.545 4.452 19.766 6.262z" fill="#F1B287"/><path fill-rule="evenodd" clip-rule="evenodd" d="M23.378 56.295c.95.979 2.44 1.753 4.209 2.397-1.994-.337-3.813-.858-5.168-2.177.397-2.062.706-3.12-.51-4.989.012-.025.027-.069.048-.125.245-.77.426-1.56.542-2.361a4.51 4.51 0 011.533-1.495l.08.023a7.86 7.86 0 00-1.355 1.855 5.879 5.879 0 01-.23 1.848c.067.453.202.893.398 1.306.17.35.36.585.483.876.271.683-.017 2.075-.03 2.842z" fill="#F5BC95"/><path fill-rule="evenodd" clip-rule="evenodd" d="M14.61 49.99c.815.716 1.341 1.695 1.19 1.828-.227.2-.633.738-1.119.35a452.144 452.144 0 01-2.997-2.487c-1.79-1.518-1.534-2.218-1.181-2.456.302-.196 1.07.527 1.766 1.214.539.53 1.799 1.074 2.34 1.552z" fill="#D49368"/><path fill-rule="evenodd" clip-rule="evenodd" d="M14.804 52.91c-.744-1.054-1.572-1.89-2.234-2.242-.396-.212-.697-.593-1.13-.861a11.393 11.393 0 00-1.548-.71 13.031 13.031 0 00-2.844-.875c.884-.427 2.249-.938 3.527-.059 1.364.123 2.453.478 3.301 1.71 1.207.156 1.467.79 2.44 2.3l-1.512.736z" fill="#F1B287"/><path fill-rule="evenodd" clip-rule="evenodd" d="M7.048 48.222c.884-.427 2.249-.938 3.527-.059 1.364.123 2.453.478 3.301 1.71 1.207.156 1.467.79 2.44 2.3l.228 1.383c-1.147-1.304-1.671-2.216-2.637-3.223a4.239 4.239 0 00-3.322-1.911c-1.518-.89-2.842-.256-3.537-.2z" fill="#E8A476"/><path fill-rule="evenodd" clip-rule="evenodd" d="M57.035 25.176c4.278 2.556 9.215.966 10.988-1.845 1.534-2.42 2.86-6.044 3.067-8.25.077-.917-8.714-3.148-8.924-3.112-.21.036-7.444 1.053-7.697 1.39-1.84 2.454-3.259 2.476-2.988 3.874a11.575 11.575 0 005.553 7.943z" fill="#400E01"/><path fill-rule="evenodd" clip-rule="evenodd" d="M56.6 31.915c.394-.843.664-1.147 1.664-1.19l.539 1.808-1.247.987-.994-.123.038-1.482zm9.995.495c-.233-.495-.34-1.001-.552-1.205a.932.932 0 00-.854-.136l-.409 1.876 1.247.989.995-.125-.427-1.398z" fill="#999"/><path fill-rule="evenodd" clip-rule="evenodd" d="M56.756 25.639c.879 3.365.767 6.915-.478 8.505-.317.406-1.646.725-3.039.989-1.9.355-4.288.636-5.313.85-2.898.604-3.263 4.373-3.11 5.901.2 1.999 2.014 1.661 2.53 3.323 2.045 6.55 4.115 14.77 4.687 17.876l18.495.061 4.564-18.602 4.39-3.067c-.074-7.135-7.186-5.292-10.879-6.787-3.015-1.222-3.28-3.764-3.035-8.945l-8.812-.104z" fill="#F1B287"/><path fill-rule="evenodd" clip-rule="evenodd" d="M73.802 61.739c-3.3 3.703-6.568 15.271-9.2 20.638a9.401 9.401 0 01-3.261 3.611c1.704.826 4.472 3.506 5.752 1.314 3.621-6.192 6.312-11.117 9.906-17.44.615-1.08 2.65-4.911 3.127-6.347.535-1.6-.033-2.28-.028-3.323.013-2.369.22-6.34-.255-11.5-.358-3.933 0-7.592-.6-9.93-.302-1.153-1.434-2.372-2.48-2.888-2.481-1.224-6.038-.458-8.49-1.178 2.968 9.499 4.476 17.135 5.529 27.043z" fill="#E6E6E6"/><path fill-rule="evenodd" clip-rule="evenodd" d="M71.915 78.889c1.623-2.878 3.233-5.76 5.084-9.016.615-1.081 2.65-4.912 3.127-6.348.535-1.6-.033-2.28-.028-3.322.013-2.37.22-6.34-.255-11.5-.358-3.933 0-7.593-.6-9.931-.302-1.153-1.434-2.372-2.48-2.888-2.481-1.224-6.038-.458-8.49-1.178l.313 1.007c2.609.953 6.077.794 7.666 2.149 1.063.907 1.48 2.336 1.907 4.6.718 3.8.958 8.944.989 13.483 0 1.178.087 2.742.163 3.872.09 1.29.376 2.129.123 3.176-.307 1.278-1.388 2.794-2.614 4.881-2.004 3.415-4.536 7.708-5.75 10.2l.846.815z" fill="#F5F5F5"/><path fill-rule="evenodd" clip-rule="evenodd" d="M69.654 69.819c3.044-7.84 4.168-7.646 4.186-8.147-.148-1.914-.511-3.205-.693-6.9-.02-.434 3.514-4.856-.636-10.687l-.631-.642c4.025 1.978 6.644 6.645 3.066 12.328.06.913.136 2.405.307 5.957-1.81 2.523-3.76 7.922-5.29 10.368.532 3.585-.585-1.554-.31-2.277z" fill="#CCC"/><path fill-rule="evenodd" clip-rule="evenodd" d="M49.85 59.748c.747-10.537 2.081-15.221 2.122-24.411a29.3 29.3 0 01-2.975.468c-2.522.087-4.492.897-5.402 3.243-1.49 3.833.255 10.069.243 12.422 0 5.334.033 5.487-1.278 9.745-.82 2.644-1.81 8.492 1.99 8.527 3.8.036 5.102-7.168 5.3-9.994z" fill="#E6E6E6"/><path fill-rule="evenodd" clip-rule="evenodd" d="M49.85 59.748c.075-1.04.343-2.83.277-3.78l-1.01-1.533c.225 5.287-.743 9.775-1.983 13.958 1.853-2.218 2.566-6.59 2.717-8.645z" fill="#F5F5F5"/><path fill-rule="evenodd" clip-rule="evenodd" d="M51.297 35.47c-.766.145-1.405.232-2.3.334-2.522.087-4.492.898-5.402 3.243-1.49 3.834.255 10.07.243 12.423 0 5.334.033 5.487-1.278 9.744-.767 2.484-1.69 7.792 1.35 8.46-2.687-3.665.597-6.885 1.198-13.29.324-3.447-.31-7.541-.637-12.448-.15-2.3 0-3.718.79-4.855 1.068-1.549 3.843-2.323 6.036-3.611z" fill="#CCC"/><path fill-rule="evenodd" clip-rule="evenodd" d="M62.493 54.772c-.498-1.515-1.743-5.318 1.122-8.576-2.443 4.007-.442 8.047-.432 8.154l-.69.422z" fill="#E8A476"/><path fill-rule="evenodd" clip-rule="evenodd" d="M61.118 54.816c.496-1.513 1.743-5.319-1.124-8.577 2.443 4.007.444 8.05.432 8.157l.692.42z" fill="#F5BC95"/><path fill-rule="evenodd" clip-rule="evenodd" d="M56.756 25.639c.833 3.61 1 7.288-1.148 9.455.338-.056 1.036 21.978 5.65 21.107 0-2.737-1.458-9.2-2.578-14.27a32.22 32.22 0 01-.751-6.939c-.02-.833 6.133-3.808 7.567-7.05-.04-.75.001-1.502.125-2.242l-8.865-.061z" fill="#E8A476" stroke="#CCC" stroke-width=".216" stroke-miterlimit="22.926"/><path fill-rule="evenodd" clip-rule="evenodd" d="M50.36 56.505c6.28 24.313-7.133 20.005-5.063 40.147.163 1.577.401 3.192.692 4.912l.69 5.436h28.623l.69-5.436a76.91 76.91 0 00.692-4.912c1.605-15.617-6.18-16.624-6.795-27.58.028-3.01.718-6.886 2.188-12.567-3.527.495-7.412.981-11.081 1.497l-10.637-1.497z" fill="#171616"/><path fill-rule="evenodd" clip-rule="evenodd" d="M75.291 107l.69-5.436a76.91 76.91 0 00.693-4.912c1.605-15.617-6.095-16.54-6.711-27.495.026-3.01.634-6.971 2.103-12.652l-.47.066.015-.066-1.073.15-1.05.93c-5.988 20.445 3.39 17.933 4.71 34.245.342 4.263 0 9.123-.872 15.172l1.965-.002z" fill="#333131"/><path fill-rule="evenodd" clip-rule="evenodd" d="M50.36 56.505c6.28 24.313-7.133 20.005-5.063 40.147.163 1.577.401 3.192.692 4.912l.69 5.436h2.54c-1.022-6.762-1.469-12.075-1.096-16.688 1.301-16.087 10.445-13.856 4.943-33.427l-2.707-.38z" fill="#000"/><path fill-rule="evenodd" clip-rule="evenodd" d="M51.09 59.625c1.692 8.065.846 12.535-.703 16.1 6.354 2.837 14.91 3.322 21.189.087a18.107 18.107 0 01-1.613-6.645c.06-2.368.335-4.726.818-7.045l1.226-4.999c.542-4.728 7.427-3.91.99-12.831a73.839 73.839 0 011.438-8.554c-1.916-.365-4.007-.404-5.563-1.022-1.33-.54-2.011-1.743-2.464-2.91.223 2.406-2.9 5.228-5.096 5.11-2.783-.143-4.814-3.649-4.807-3.807-.035.125.034-.767 0-.66-.623 1.948-1.254 2.32-3.263 2.699-1.122.21-2.359.416-3.496.524-1.137.064-2.343.414-3.013.56-2.377 4.032.36 7.227.818 10.084-1.301 3.69.294 6.94 2.898 10.682.14.7.626 2.793.641 2.627z" fill="#E6E6E6"/><path fill-rule="evenodd" clip-rule="evenodd" d="M74.164 36.919c.087-.404.177-.803.271-1.191-1.916-.366-4.007-.404-5.563-1.022-1.33-.54-1.989-1.723-2.44-2.89.078.876.296 1.788.288 2.844.197.173.409.33.631.47 1.879 1.168 4.687 1.252 6.813 1.789z" fill="#F5F5F5"/><path fill-rule="evenodd" clip-rule="evenodd" d="M56.498 33.3v-.207c-.036.125.033-.767 0-.66-.624 1.948-1.255 2.321-3.264 2.7-2.315.431-4.316.403-6.644 1.073-.363.613-2.53 1.998-.672 2.164 2.016-1.277 6.782-1.395 9.243-2.941a2.592 2.592 0 001.337-2.129z" fill="#CCC"/><path fill-rule="evenodd" clip-rule="evenodd" d="M69.337 76.775a18.771 18.771 0 002.239-.953 18.108 18.108 0 01-1.613-6.644c.06-2.369.335-4.727.818-7.046l1.226-4.999c.041-.35 1.278-1.492 2.065-3.107l-.48-.054-4.104 3.634c-3.126 10.65-2.065 15.068-.151 19.17z" fill="#F5F5F5"/><path fill-rule="evenodd" clip-rule="evenodd" d="M51.09 59.625c1.692 8.065.846 12.535-.703 16.1a25.54 25.54 0 001.989.785c2.264-4.516 3.9-8.69.457-20.445l-4.104-3.629c.44 1.7 1.211 2.722 2.361 7.19z" fill="#CCC"/><path fill-rule="evenodd" clip-rule="evenodd" d="M52.767 14.445c-.82-1.226-1.79-.393-1.488 1.094.256 1.212.803 2.586 1.112 3.966.212.949.555 1.618 1.383 1.442l-.09-3.938-.917-2.564z" fill="#F1B287"/><path fill-rule="evenodd" clip-rule="evenodd" d="M52.933 17.044c-.568-.636-.767-.232-.511.458.196.51.37 1.533.886 1.617l-.375-2.075z" fill="#975B36"/><path fill-rule="evenodd" clip-rule="evenodd" d="M52.255 14.614c-.385-.281-.677-.064-.766.388-.112.667.542 1.95.754 2.735-.059-1.081-.718-2.134-.585-2.714.084-.36.373-.42.67-.097a1.445 1.445 0 00-.073-.312z" fill="#E8A476"/><path fill-rule="evenodd" clip-rule="evenodd" d="M51.893 17.142c.564 1.247.73 1.924 1.375 2.182l.334 1.388c-.794.317-1.106-1.319-1.175-1.69-.095-.516-.391-1.047-.534-1.88z" fill="#E8A476"/><path fill-rule="evenodd" clip-rule="evenodd" d="M64.832 2.577c1.666-1.5 4.198-.82 5.747 1.122 3.693 4.633.378 9.517-.836 14.332-1.293 5.139-2.044 6.453-4.577 8.837 0-.187.335-.112.212-.68-.577-3.23 1.334-7.518 1.697-10.976.376-3.578-.69-9.343-3.066-12.267l.823-.368z" fill="#400E01"/><path fill-rule="evenodd" clip-rule="evenodd" d="M69.889 14.445c.823-1.226 1.789-.393 1.49 1.094-.256 1.212-.805 2.586-1.114 3.966-.213.949-.552 1.618-1.383 1.442l.092-3.938.915-2.564z" fill="#F1B287"/><path fill-rule="evenodd" clip-rule="evenodd" d="M64.832 2.577a3.143 3.143 0 012.376-.807c-.956.173-1.615.51-1.316.766.179.151.902.327 1.666.675 1.64.739 2.469 1.891 2.88 3.476-.907-1.79-1.17-1.86-2.885-2.686.45.646.59 1.277.83 1.932.637 1.745 1.864 5.944 1.107 7.85l-2.376 1.023c.255-3.591-.82-9.034-3.105-11.848l.823-.38z" fill="#1F0300"/><path fill-rule="evenodd" clip-rule="evenodd" d="M64.701 27.484a13.406 13.406 0 002.737-3.284c1.135-1.832 1.582-3.092 2.045-6.264.362-2.425.664-4.945.255-7.232-.766-4.444-3.7-7.825-8.433-7.807-5.216.013-7.772 2.093-8.538 7.102-.511 3.27-.3 5.384.255 8.142.614 3.066 1.145 4.779 2.443 6.603.649.972 1.414 1.86 2.28 2.645 1.679 1.46 2.586 2.104 3.524 2.104.938 0 1.94-.68 3.432-2.01z" fill="#F1B287"/><path fill-rule="evenodd" clip-rule="evenodd" d="M68.685 21.644c.38-1.211.651-2.455.808-3.715.363-2.426.664-4.945.255-7.233a10.653 10.653 0 00-2.06-4.827c.057.255.21.49.159.744-.161.812-.046 3.723.662 6.276.907 3.235.176 5.548.176 8.755z" fill="#F5BC95"/><path fill-rule="evenodd" clip-rule="evenodd" d="M55.353 4.589c-1.38 1.147-2.208 2.916-2.589 5.41-.511 3.27-.299 5.384.256 8.142.613 3.066 1.145 4.779 2.443 6.603a14.22 14.22 0 002.28 2.645 18.13 18.13 0 001.972 1.554c-2.433-2.522-2.834-5.727-4.063-7.646-3.568-5.571-3.417-9.011-.3-16.708z" fill="#E8A476"/><path fill-rule="evenodd" clip-rule="evenodd" d="M64.38 16.392c-.208.256-.497.596-.62.8-.122.205-.176.384.014.468.189.084.63.023 1.04 0 1.147-.054 1.086 0 2.164-.365l-1.278-.951-1.32.048z" fill="#FACCAD"/><path fill-rule="evenodd" clip-rule="evenodd" d="M63.889 17.044c.746-2.9 4.497-2.264 5.583-2.678-.232 1.533-1.604 2.788-2.614 3-.864.171-1.909-.204-2.97-.322z" fill="#B87244"/><path fill-rule="evenodd" clip-rule="evenodd" d="M63.784 17.157c.51-1.148 1.387-1.73 2.075-1.873.884-.184 2.251-.072 3.1-.235-.678 1.188-1.495 2.134-2.13 2.3a3.76 3.76 0 01-1.057.06c-.575-.027-1.278-.122-1.827 0-.149.04-.253-.04-.161-.252z" fill="#000"/><path fill-rule="evenodd" clip-rule="evenodd" d="M63.822 17.236c.785-.93 1.533-1.383 2.154-1.503.621-.12 1.431 0 2.244.057-.608 1.07-1.127 1.418-1.697 1.569a3.343 3.343 0 01-.953.053c-.511-.023-1.14-.11-1.643 0-.136.034-.238-.017-.105-.176z" fill="#fff"/><path fill-rule="evenodd" clip-rule="evenodd" d="M66.16 17.384a1.023 1.023 0 100-2.045 1.023 1.023 0 000 2.045z" fill="#005928"/><path fill-rule="evenodd" clip-rule="evenodd" d="M65.677 16.04l-.32.158a.851.851 0 001.128.987c.39-.14.739-.657.447-1.324l-.286.036a.591.591 0 01-.289.927c-.301.095-.73-.05-.68-.784z" fill="#057D3B"/><path fill-rule="evenodd" clip-rule="evenodd" d="M66.211 16.663a.455.455 0 100-.91.455.455 0 000 .91z" fill="#000"/><path fill-rule="evenodd" clip-rule="evenodd" d="M65.734 16.676a.264.264 0 100-.528.264.264 0 000 .528z" fill="#fff"/><path fill-rule="evenodd" clip-rule="evenodd" d="M66.822 16.993a.284.284 0 10-.054-.565.284.284 0 00.054.565z" fill="#0ABD5A"/><path fill-rule="evenodd" clip-rule="evenodd" d="M67.546 15.256c.615-.12.825-.218 1.129-.573a.98.98 0 01-.554.652l-.575-.08z" fill="#000"/><path fill-rule="evenodd" clip-rule="evenodd" d="M67.014 15.256c.618-.103.828-.195 1.142-.542a.968.968 0 01-.567.631l-.575-.09z" fill="#000"/><path fill-rule="evenodd" clip-rule="evenodd" d="M66.46 15.255c.597-.087.8-.17 1.109-.496a.928.928 0 01-.563.598l-.547-.102z" fill="#000"/><path fill-rule="evenodd" clip-rule="evenodd" d="M63.528 14.17c1.255-.737 2.492-1.23 3.478-1.332.805-.085 1.534.419 2.77.672-1.48 0-2.136-.43-2.655-.37-.733.081-1.19.413-2.875 1.395a.912.912 0 01-.674.058c-.22-.058-.57-.104-.044-.424z" fill="#400E01"/><path fill-rule="evenodd" clip-rule="evenodd" d="M61.783 21.537a2.78 2.78 0 01.644-.289.376.376 0 01.51.312c.05.404-.416.511-.745.529-.186.017-.37.047-.552.09-.28.066-.572.066-.851 0a3.925 3.925 0 00-.55-.09c-.33-.023-.797-.125-.749-.529a.377.377 0 01.511-.312c.24.07.471.17.688.294a.964.964 0 001.094-.005z" fill="#E8A476"/><path fill-rule="evenodd" clip-rule="evenodd" d="M61.66 21.966c.16-.15.33-.287.511-.411.161-.087.355-.133.447-.059a.194.194 0 01-.125.343 8.05 8.05 0 00-.833.127zm-.81.059a4.3 4.3 0 00-.511-.411c-.161-.09-.355-.136-.447-.062a.194.194 0 00.125.343c.28.03.557.073.833.13z" fill="#975B36"/><path fill-rule="evenodd" clip-rule="evenodd" d="M61.177 17.417c-.059.91-.138 1.79-.204 2.581-.06.69-.271.767-.256.897.015.13.166.305.621.366.388-.118.58-.22.598-.348.018-.127-.205-.222-.256-.874-.063-.746-.012-1.617-.05-2.622-.075-1.628-.346-1.6-.453 0z" fill="#F5BC95"/><path fill-rule="evenodd" clip-rule="evenodd" d="M59.434 14.412c.675.693 1.671 3.752.803 6.251.38-3.322-.785-5.298-3.136-7.143l2.333.892z" fill="#E8A476"/><path fill-rule="evenodd" clip-rule="evenodd" d="M69.452 10.144c.73 3.455.595 5.497.043 8.257-.613 3.067-1.168 4.685-2.463 6.51a14.99 14.99 0 01-2.459 2.698c2.068-3.48 1.608-4.127 2.748-6.213 2.568-4.7 2.404-5.573 2.13-11.252z" fill="#F5BC95"/><path fill-rule="evenodd" clip-rule="evenodd" d="M53.837 19.413l-1.464-3.355 5.538-6.243 8.145-4.181c-.092.47 1.385.552 1.873.823-1.022 2.387-3.356 4.089-5.717 5.41-4.033 2.251-8.472 2.203-8.375 7.546z" fill="#E8A476"/><path fill-rule="evenodd" clip-rule="evenodd" d="M58.389 16.392c.204.256.496.596.616.8.12.205.176.384 0 .468-.228.102-.631.023-1.04 0-1.148-.054-1.086 0-2.165-.365l1.278-.951 1.31.048z" fill="#FACCAD"/><path fill-rule="evenodd" clip-rule="evenodd" d="M58.9 17.044c-.767-2.91-4.508-2.274-5.597-2.688.233 1.533 1.608 2.788 2.617 3 .861.182 1.91-.194 2.98-.312z" fill="#B87244"/><path fill-rule="evenodd" clip-rule="evenodd" d="M58.992 17.157c-.511-1.148-1.388-1.73-2.073-1.873-.886-.184-2.254-.072-3.1-.235.678 1.188 1.496 2.134 2.127 2.3.349.07.706.09 1.06.06.573-.027 1.278-.122 1.828 0 .148.04.253-.04.158-.252z" fill="#000"/><path fill-rule="evenodd" clip-rule="evenodd" d="M58.954 17.236c-.785-.93-1.534-1.383-2.155-1.503-.62-.12-1.43 0-2.243.057.61 1.07 1.13 1.418 1.699 1.569.314.063.635.081.953.053.511-.023 1.138-.11 1.644 0 .132.034.237-.017.102-.176z" fill="#fff"/><path fill-rule="evenodd" clip-rule="evenodd" d="M56.618 17.384a1.022 1.022 0 100-2.044 1.022 1.022 0 000 2.044z" fill="#005928"/><path fill-rule="evenodd" clip-rule="evenodd" d="M57.111 16.04l.322.158a.851.851 0 01-1.127.987c-.39-.14-.738-.657-.447-1.324l.286.036a.592.592 0 00.286.927c.294.095.721-.05.68-.784z" fill="#057D3B"/><path fill-rule="evenodd" clip-rule="evenodd" d="M56.564 16.663a.455.455 0 100-.91.455.455 0 000 .91z" fill="#000"/><path fill-rule="evenodd" clip-rule="evenodd" d="M57.042 16.676a.264.264 0 100-.528.264.264 0 000 .528z" fill="#fff"/><path fill-rule="evenodd" clip-rule="evenodd" d="M55.948 16.993a.283.283 0 100-.567.283.283 0 000 .567z" fill="#0ABD5A"/><path fill-rule="evenodd" clip-rule="evenodd" d="M55.23 15.256c-.616-.12-.823-.218-1.127-.573a.976.976 0 00.555.652l.572-.08z" fill="#000"/><path fill-rule="evenodd" clip-rule="evenodd" d="M55.764 15.256c-.618-.103-.83-.195-1.142-.542a.963.963 0 00.572.636l.57-.094z" fill="#000"/><path fill-rule="evenodd" clip-rule="evenodd" d="M56.316 15.255c-.595-.087-.8-.17-1.109-.496a.933.933 0 00.565.598l.544-.102z" fill="#000"/><path fill-rule="evenodd" clip-rule="evenodd" d="M59.248 14.17c-1.255-.737-2.49-1.23-3.478-1.332-.806-.085-1.534.419-2.768.672 1.477 0 2.136-.43 2.652-.37.736.081 1.194.413 2.878 1.395a.905.905 0 00.672.059c.222-.06.573-.105.044-.425z" fill="#400E01"/><path fill-rule="evenodd" clip-rule="evenodd" d="M52.22 18.869a11.59 11.59 0 01-1.347-2.272c-1.837-4.03-2.157-9.89 1.48-13.225 3.833-3.527 9.496-3.805 12.984-1.16-.434.125 2.329 3.95 2.676 4.165-2.688 4.46-13.37 5.232-15.793 12.492z" fill="#400E01"/><path fill-rule="evenodd" clip-rule="evenodd" d="M52.22 18.869c-2.873-3.713-4.273-11.457.133-15.497 3.833-3.527 9.496-3.805 12.985-1.16-.274 1.15 2.473 2.103 2.67 4.262-4.178-3.112-14.35-2.57-16.867 3.246 2.75-6.673 9.037-7.871 14.963-5.678-3.297-3.726-10-2.3-12.79-.161-3.647 2.783-3.834 9.486-.99 14.694l-.104.294z" fill="#290700"/><path fill-rule="evenodd" clip-rule="evenodd" d="M68.016 6.628c.36 1.858 1.86 4.068 1.74 6.785a45.812 45.812 0 01-.414 4.958c.56-1.886 1.24-4.368 1.424-5.347.493-2.652-.731-3.39-2.707-7.224l-.043.828z" fill="#400E01"/><path fill-rule="evenodd" clip-rule="evenodd" d="M68.016 6.628c.36 1.858 1.86 4.068 1.74 6.785a45.812 45.812 0 01-.414 4.958c1.41-4.756.498-8.101-1.278-12.566l-.048.823z" fill="#1F0300"/><path fill-rule="evenodd" clip-rule="evenodd" d="M58.312 24.662c.187.054.412.09.545.123.782.2 1.254.488 2.024.68l-.016.102.256-.049c.082.018.168.034.255.05l-.017-.103c.766-.192 1.241-.48 2.023-.68.136-.033.358-.069.545-.123.375-.104.455-.434.32-.493-.054-.023-.144 0-.256.097a.974.974 0 01-.603.276c-.818.125-1.168-.189-2.234-.368v-.012h-.064v.012c-1.066.18-1.416.494-2.23.368a.98.98 0 01-.606-.276c-.118-.1-.207-.12-.256-.097-.138.059-.061.389.314.493z" fill="#472001"/><path fill-rule="evenodd" clip-rule="evenodd" d="M59.14 24.407c.422.802 1.34 1.022 2.045.979.649-.041 1.47-.279 1.909-1.022l-1.39-.307-.527.169-.657-.039-1.38.22z" fill="#fff"/><path fill-rule="evenodd" clip-rule="evenodd" d="M62.836 23.811c.536.197.897.491 1.25.389-.364.634-1.233.529-1.818.345a3.172 3.172 0 00-2.213 0c-.585.184-1.454.289-1.814-.345.352.102.71-.192 1.25-.389.766-.283 1.277-.235 1.67.36.402-.595.898-.643 1.675-.36z" fill="#D8323B"/><path fill-rule="evenodd" clip-rule="evenodd" d="M63.896 24.435c-.12.271-.917.256-1.063.235a3.319 3.319 0 01-.565-.125 3.172 3.172 0 00-2.213 0c-.585.184-1.454.289-1.814-.345.352.102.71-.192 1.25-.388.539-.197.904-.23 1.226-.064-.353-.04-.71.003-1.043.127-.273.095-.69.292-.766.445-.128.256.582.24 1.19.049.322-.109.662-.15 1-.123.907.018 1.224.212 1.727.345.126.036.793.066 1.071-.156z" fill="#940811"/><path fill-rule="evenodd" clip-rule="evenodd" d="M59.217 24.261c.511.21 1.15-.212 1.789-.115-.486-.6-1.191-.092-1.79.115zm2.167-.138c.644-.02 1.868.767 2.517.2-.47-.052-1.298-.542-1.748-.555a1.022 1.022 0 00-.769.355z" fill="#FF757C"/><path fill-rule="evenodd" clip-rule="evenodd" d="M59.506 24.944a9.154 9.154 0 00-.64-.236c-.206-.066-.306-.125-.35-.079-.125.143.134.511.31.739.356.458.829.811 1.37 1.022.705.21 1.548.255 2.213-.107.315-.186.595-.426.825-.71a2.92 2.92 0 00.511-.8c.1-.277-.179-.12-.383-.052-.205.07-.468.148-.677.24-1.337.573-1.807.517-3.18-.017z" fill="#D8323B"/><path fill-rule="evenodd" clip-rule="evenodd" d="M59.506 24.944a9.154 9.154 0 00-.64-.236c-.206-.066-.306-.125-.35-.079-.125.143.134.511.31.739.356.458.829.811 1.37 1.022.705.21 1.548.255 2.213-.107a2.952 2.952 0 001.002-.923c-.987 1.326-2.464 1.127-3.218.849-.414-.151-.953-.601-.784-.86.097-.147.6.08 1.134.162a2.75 2.75 0 001.807-.41c-1.091.42-1.592.33-2.844-.157z" fill="#940811"/><path fill-rule="evenodd" clip-rule="evenodd" d="M60.73 26.188c.997.171 1.94-.102 2.555-.91.113-.145.167-.273.077-.322-.09-.048-.08-.035-1.206.448-1.127.483-2.152.143-2.185.283-.008.074.09.386.759.501z" fill="#FF757C"/><path fill-rule="evenodd" clip-rule="evenodd" d="M62.394 25.386c.255-.098.51-.085.544.03.033.115-.13.287-.386.384-.256.097-.511.081-.542-.031-.03-.112.128-.291.384-.383z" fill="#FF9499"/><path fill-rule="evenodd" clip-rule="evenodd" d="M62.761 25.28c.167-.089.333-.104.371-.03.038.074-.059.207-.225.297-.166.089-.33.104-.37.03-.041-.074.06-.207.224-.296zm-.388-1.49c.161.047.276.141.256.213-.02.072-.166.095-.328.046-.16-.049-.276-.14-.255-.212.02-.072.176-.095.327-.046z" fill="#fff"/><path fill-rule="evenodd" clip-rule="evenodd" d="M67.492 1.885c1.451.72-.841-.174-1.342.427 1.58.288 4.69 1.295 4.73 6.317-.398-1.13-1.121-3.593-2.685-3.877 2.067 3.228 2.197 6.606 1.801 10.256l.793-2.168.091.946c2.232-4.309 1.73-10.67-3.388-11.901z" fill="#621F02"/><path fill-rule="evenodd" clip-rule="evenodd" d="M70.009 14.704c1.38-2.525 1.917-5.623 1.145-7.562.583 3.483-1.132 7.498-1.145 7.561z" fill="#8A3511"/><path fill-rule="evenodd" clip-rule="evenodd" d="M67.63 2.25c4.536 1.534 4.743 5.41 3.297 11.5 1.957-6.312.766-10.605-3.297-11.5z" fill="#D1673A"/><path fill-rule="evenodd" clip-rule="evenodd" d="M68.611 5.033c1.769 2.75 1.907 5.252 1.648 8.975.524-3.544.992-6.519-1.648-8.975z" fill="#8A3511"/><path fill-rule="evenodd" clip-rule="evenodd" d="M64.637 3.219C53.935-.28 47.495 7.052 52.43 18.296c2.929-7.878 10.654-6.69 15.505-11.78-5.331-3.09-13.935-1.84-16.908 4.027 1.29-7.462 8.408-8.556 13.611-7.324z" fill="#621F02"/><path fill-rule="evenodd" clip-rule="evenodd" d="M67.494 6.567c-4.6 1.814-8.648 1.875-11.559 4.122-3.127 2.412-5.7 7.69-2.81 11.597-2.428-4.253 1.229-7.74 3.869-9.711 2.162-1.61 7.876-2.349 10.5-6.008z" fill="url(#paint0_linear)"/><path fill-rule="evenodd" clip-rule="evenodd" d="M69.475 6.5c1.77 2.75 1.18 4.155.887 7.447.534-3.169 1.224-4.902-.887-7.447z" fill="#D1673A"/><path fill-rule="evenodd" clip-rule="evenodd" d="M66.242 6.035c-5.556-1.533-17.166.174-14.528 9.711 2.267-8.014 10.222-7.365 14.528-9.711z" fill="url(#paint1_linear)"/><path fill-rule="evenodd" clip-rule="evenodd" d="M66.311 7.257c-6.716 2.197-13.562 2.737-14.283 11.72 1.28-9.84 9.97-9.374 14.283-11.72z" fill="#D1673A"/><path fill-rule="evenodd" clip-rule="evenodd" d="M65.923 7.867c-4.074 2.77-9.579 3.115-12.39 7.57 1.879-4.526 6.589-4.659 12.39-7.57z" fill="#D1673A"/><path fill-rule="evenodd" clip-rule="evenodd" d="M67.333 6.127c-3.884 2.908-14.252-.194-15.75 10.498.496-10.12 10.977-8.883 15.75-10.498z" fill="url(#paint2_linear)"/><path fill-rule="evenodd" clip-rule="evenodd" d="M67.402 5.7c-6.095-3.534-12.197-2.744-15.78 3.754 3.675-5.837 9.358-6.866 15.78-3.754z" fill="#1F0300"/><path fill-rule="evenodd" clip-rule="evenodd" d="M66.211 3.656C61.43-1.067 54.045.024 50.467 6.523 54.139.69 60.919-.402 66.21 3.656z" fill="#1F0300"/><path fill-rule="evenodd" clip-rule="evenodd" d="M58.17 6.035c-4.713 2.1-5.713 3.322-6.622 7.815.17-4.526 1.796-6.491 6.621-7.815z" fill="#D1673A"/><path fill-rule="evenodd" clip-rule="evenodd" d="M69.723 17.044c.567-.636.766-.232.51.458-.196.51-.37 1.533-.886 1.617l.376-2.075z" fill="#975B36"/><path fill-rule="evenodd" clip-rule="evenodd" d="M70.4 14.614c.386-.281.68-.064.767.388.115.667-.54 1.95-.752 2.735.06-1.081.718-2.134.583-2.714-.082-.36-.37-.42-.667-.097.008-.108.033-.21.069-.312z" fill="#E8A476"/><path fill-rule="evenodd" clip-rule="evenodd" d="M70.76 17.142c-.564 1.247-.728 1.924-1.372 2.182l-.337 1.388c.794.317 1.109-1.319 1.175-1.69.097-.516.391-1.047.534-1.88zm-4.242 17.211c-1.738-1.39-1.23-4.69-1.147-5.834l.196-2.765c-.13 2.767-.114 4.781.386 6.243.157.502.411.969.75 1.372-.042.286.101.72-.185.984z" fill="#F5BC95"/><path fill-rule="evenodd" clip-rule="evenodd" d="M73.114 44.389c2.06 2.108 3.118 2.64 3.118 6.348 0 2.939-1.843 5.45-4.304 6.682-3.578.317-8.239-.557-9.747-2.044 9.308 2.964 14.24-2.458 10.933-10.986z" fill="#F5F5F5"/><path fill-rule="evenodd" clip-rule="evenodd" d="M49.39 44.338c-.566.58-1.277 1.075-1.975 1.73l.018.092a7.46 7.46 0 00-1.298 4.222c0 8.037 8.418 8.747 13.897 4.663-7.769 2.474-14.791-2.282-10.682-10.498l.04-.21z" fill="#CCC"/><path fill-rule="evenodd" clip-rule="evenodd" d="M66.04 31.192c.184 2.678-1.42 4.137-4.498 5.763 2.06 1.078 3.17 1.612 4.744 3.45.005-3.276 2.197-6.238-.246-9.213z" fill="#E6E6E6"/><path fill-rule="evenodd" clip-rule="evenodd" d="M61.542 36.955c2.06 1.078 3.17 1.612 4.744 3.45 0-2.909 1.732-5.564.411-8.209.767 2.425-.682 4.874-.685 7.534-.818-.963-2.512-2.323-4.47-2.775z" fill="#F5F5F5"/><path fill-rule="evenodd" clip-rule="evenodd" d="M55.297 34.573c.388 2.27.723 4.224 1.198 6.435 2.328-2.098 2.022-2.3 5.341-3.7l-.38-.4c-3.456-.393-2.602-.628-5.321-3.365l-.838 1.03z" fill="#CCC"/><path fill-rule="evenodd" clip-rule="evenodd" d="M56.999 31.192c-.187 2.678 1.42 4.137 4.497 5.763-2.062 1.078-3.171 1.612-4.743 3.45-.005-3.276-2.197-6.238.246-9.213zM43.6 62.257c1.707.593 3.562 2.195 3.864 3.997.36.968-.276 2.79-1.15 3.194-3.2 1.47-9.272-1.408-13.892-3.519-3.764-1.72-10.386-5.622-11.623-6.289a4.054 4.054 0 01-.363-.322c1.334-.78 2.16-1.669 3.323-3.335 3.618 3.598 14.648 4.475 19.84 6.274z" fill="#E6E6E6"/><path fill-rule="evenodd" clip-rule="evenodd" d="M43.6 62.257c1.707.593 3.562 2.195 3.864 3.997-1.278-1.815-2.014-2.193-4.664-3.113-5.152-1.789-16.049-2.663-19.744-6.19.227-.293.462-.613.713-.968 3.608 3.598 14.638 4.475 19.83 6.274z" fill="#F5F5F5"/><path fill-rule="evenodd" clip-rule="evenodd" d="M47.566 66.822c.03.989-.529 2.3-1.252 2.627-3.2 1.47-9.272-1.409-13.892-3.52-3.764-1.72-10.386-5.622-11.623-6.289a4.023 4.023 0 01-.363-.322c.386-.224.752-.48 1.094-.766 1.968 1.114 7.73 4.462 11.145 6.02 4.62 2.111 10.692 4.992 13.89 3.52.413-.18.774-.688 1.001-1.27zm3.09-10.775c-5.449-7.385-5.622-15.318 1.725-20.02l3.616-2.313c3.233 8.04 3.036 17.363-5.341 22.333z" fill="#CCC"/><path fill-rule="evenodd" clip-rule="evenodd" d="M62.222 38.785c.823-.412 1.84-2.08 2.983-1.994.465.036 1.035-.061 1.344.667.156.366-.087 1.135-.146 1.91-.069.917-.025 1.834-.823 2.023-1.147.256-2.58-.856-3.414-1.278a.56.56 0 01-.345.12h-.733a.555.555 0 01-.215-.043c-.864.47-1.827 1.19-2.79 1.23a1.278 1.278 0 01-.78-.177c-.478-.332-.458-1.112-.511-1.889-.077-1.01-.212-1.656-.07-2.044.767-2.144 3.857 1.221 4.09 1.375a.547.547 0 01.286-.08h.733c.15.006.29.07.391.18z" fill="#CCC"/><path fill-rule="evenodd" clip-rule="evenodd" d="M56.707 26.377c1.222 1.955.547 9.78-1.306 16.895-3.675 14.101-4.214 13.544-15.716 16.585 8.461-2.81 9.046-5.808 11.837-16.12-3.368 11.408-7.12 15.162-13.526 15.668 7.763-2.349 4.377-7.769 7.776-19.274 1.988-6.726 10.35-8.824 9.893-15.134.186.3.948 1.23 1.042 1.38z" fill="#400E01"/><path fill-rule="evenodd" clip-rule="evenodd" d="M56.96 26.63a8.18 8.18 0 01.256 1.595c.363 3.043-.256 8.64-1.562 14.017.874-5.436 1.25-9.082.954-15.055-.34 1.82-1.534 5.42-3.185 8.595.933-2.727 2.66-6.453 2.65-8.932-.707 1.748-1.408 2.77-2.744 4.16-1.278 1.334-3.046 2.893-4.549 4.171 3.123-3.37 7.202-5.727 6.88-10.184.11.176.416.567.67.892.186.23.59.68.63.741z" fill="#1F0300"/><path fill-rule="evenodd" clip-rule="evenodd" d="M56.628 26.308c1.199 14.822.969 26.297-9.836 31.717 11.32-4.508 11.566-16.665 10.222-30.986l-.386-.73z" fill="#1F0300"/><path fill-rule="evenodd" clip-rule="evenodd" d="M45.284 55.989c3.48-2.868 5.594-10.87 8.464-18.383-6.805 7.994-4.7 12.617-8.464 18.383z" fill="#290700"/><path fill-rule="evenodd" clip-rule="evenodd" d="M55.833 27.977c-3.066 5.19-6.644 6.742-8.479 9.256-3.123 4.268-.273 14.033-2.648 19.072 2.607-3.373 2.689-9.046 5.293-13.943 2.87-5.407 4.769-10.24 5.834-14.385z" fill="url(#paint3_linear)"/><path fill-rule="evenodd" clip-rule="evenodd" d="M54.33 30.74c-10.57 10.93-4.783 23.05-10.822 25.7 5.328-2.575-.486-13.84 10.823-25.7z" fill="#8A3511"/><path fill-rule="evenodd" clip-rule="evenodd" d="M53.533 30.512c-3.833 3.522-5.773 4.825-7.199 7.634-4.39 8.653-.406 17.303-6.327 19.984 5.604-3.12.986-11.587 5.895-20.235 1.541-2.706 3.496-4.585 7.631-7.383z" fill="#290700"/><path fill-rule="evenodd" clip-rule="evenodd" d="M54.28 30.64c-8.608 9.128-8.004 6.833-8.004 19.115.868-11.006 1.354-10.988 8.004-19.115z" fill="url(#paint4_linear)"/><path fill-rule="evenodd" clip-rule="evenodd" d="M55.182 29.794c-3.024 6.673-5.4 12.295-7.782 19.22.636-11.502 4.5-13.75 7.782-19.22z" fill="url(#paint5_linear)"/><path fill-rule="evenodd" clip-rule="evenodd" d="M54.33 31.583c-7.076 11.835-6.023 15.106-6.93 18.883.59-3.194-.207-8.763 6.93-18.883z" fill="#D1673A"/><path fill-rule="evenodd" clip-rule="evenodd" d="M54.103 31.02c-8.538 9.242-7.429 10.54-8.116 19.727.708-6.238-2.119-10.227 8.116-19.726z" fill="#D1673A"/><path fill-rule="evenodd" clip-rule="evenodd" d="M45.839 40.87c-2.045 10.222 2.944 16.355-10.734 19.754C47.742 55.8 41.412 51.69 45.84 40.87z" fill="#290700"/><path fill-rule="evenodd" clip-rule="evenodd" d="M45.655 41.516c-1.178 15.449-1.168 14.843-8.23 18.262 9.37-3.358 7.003-5.905 8.23-18.262z" fill="#1A0300"/><path fill-rule="evenodd" clip-rule="evenodd" d="M44.952 43.878c-.841 11.05-.746 13.235-6.737 15.359 6.098-2.058 5.352-6.21 6.737-15.36z" fill="#1A0300"/><path fill-rule="evenodd" clip-rule="evenodd" d="M54.085 35.17C48.03 45.445 50.79 51.982 43.096 57.267c7.851-4.464 6.939-13.47 10.99-22.095z" fill="#1F0300"/><path fill-rule="evenodd" clip-rule="evenodd" d="M56.454 29.76c.527 8.733 1.035 26.834-13.189 29.083 9.123-5.354 9.458-19.389 13.19-29.082z" fill="url(#paint6_linear)"/><path fill-rule="evenodd" clip-rule="evenodd" d="M55.557 35.299c-1.047 7.252-2.3 16.984-8.752 21.962 8.814-2.594 8.574-15.586 8.752-21.962z" fill="url(#paint7_linear)"/><path fill-rule="evenodd" clip-rule="evenodd" d="M46.633 56.87c7.064-8.374 7.304-13.986 8.85-24.293-3.01 9.977-3.994 14.692-8.85 24.293z" fill="url(#paint8_linear)"/><path fill-rule="evenodd" clip-rule="evenodd" d="M55.105 38.117c-.557 12.305-4.62 17.698-8.3 19.144 6.455-2.233 8.395-11.288 8.3-19.144z" fill="#D1673A"/><path fill-rule="evenodd" clip-rule="evenodd" d="M54.768 35.074c-3.601 11.74-5.3 17.528-7.412 20.779 3.425-4.038 4.519-10.105 7.412-20.78z" fill="#D1673A"/><path d="M62.838 39.017H60.28V78.59h2.558V39.017z" fill="#E6E6E6"/><path fill-rule="evenodd" clip-rule="evenodd" d="M60.28 39.017h2.558v.018h-2.39V78.59h-.168V39.017z" fill="#CCC"/><path fill-rule="evenodd" clip-rule="evenodd" d="M62.838 39.017V78.59h-.15V39.035l.15-.018z" fill="#F5F5F5"/><path fill-rule="evenodd" clip-rule="evenodd" d="M61.116 38.255c-.856-.214-1.94-2.159-3.17-2.064-.467.038-1.037-.062-1.346.67-.153.365.09 1.134.146 1.908.069.915.025 1.835.823 2.022 1.147.27 2.583-.854 3.414-1.265l.133-1.27z" fill="#262323"/><path fill-rule="evenodd" clip-rule="evenodd" d="M57.722 36.193c-.414.015-.859.041-1.122.657-.153.365.09 1.135.146 1.909.069.915.025 1.835.823 2.021.101.02.205.03.309.031-1.534-1.15-.062-1.715-.596-2.673-.301-.524-.562-1.567.44-1.945z" fill="#000"/><path fill-rule="evenodd" clip-rule="evenodd" d="M61.116 38.255c-.856-.214-1.94-2.159-3.17-2.064h-.117a6.39 6.39 0 011.682 1.221c.308.27.56.6.74.969.09.299.085.51-.732.383-.256-.036-1.043-.378-1.572-.373-.634 0-.767.698-.054.981.404.161 1.153.044 2.065-.061.11-.013.389 0 .322.08-.255.329-1.094.986-2.228 1.43 1.042-.061 2.213-.948 2.93-1.303l.134-1.263z" fill="#332F2F"/><path fill-rule="evenodd" clip-rule="evenodd" d="M62.005 38.255c.854-.214 1.937-2.159 3.166-2.064.468.038 1.038-.062 1.347.67.153.365-.087 1.134-.145 1.908-.07.915-.026 1.835-.823 2.022-1.148.27-2.581-.854-3.415-1.265l-.13-1.27z" fill="#262323"/><path fill-rule="evenodd" clip-rule="evenodd" d="M65.399 36.193c.411.015.858.041 1.12.657.152.365-.088 1.135-.147 1.909-.069.915-.025 1.835-.822 2.021-.1.023-.2.037-.302.041 1.533-1.15.059-1.715.593-2.673.299-.534.56-1.577-.442-1.955z" fill="#332F2F"/><path fill-rule="evenodd" clip-rule="evenodd" d="M62.005 38.255c.854-.214 1.937-2.159 3.166-2.064h.118a6.338 6.338 0 00-1.68 1.221c-.31.27-.562.6-.743.969-.09.299-.084.51.734.383.255-.036 1.042-.378 1.571-.373.634 0 .767.698.057.981-.407.161-1.153.044-2.065-.061-.113-.013-.391 0-.325.08.256.329 1.094.986 2.231 1.43-1.045-.061-2.216-.948-2.934-1.303l-.13-1.263z" fill="#000"/><path d="M61.788 38.002h-.731a.557.557 0 00-.557.558v.513c0 .308.25.557.557.557h.73c.309 0 .558-.25.558-.557v-.513a.557.557 0 00-.557-.558z" fill="#262323"/><path fill-rule="evenodd" clip-rule="evenodd" d="M61.545 38h.256a.56.56 0 01.557.557v.511a.56.56 0 01-.557.557h-.734a.51.51 0 01-.14-.018h.488a.56.56 0 00.557-.557v-.51a.56.56 0 00-.427-.54z" fill="#332F2F"/><path fill-rule="evenodd" clip-rule="evenodd" d="M61.302 38h-.255a.56.56 0 00-.557.557v.511a.559.559 0 00.557.557h.733a.51.51 0 00.14-.018h-.464a.559.559 0 01-.558-.557v-.51a.56.56 0 01.404-.54z" fill="#000"/><path fill-rule="evenodd" clip-rule="evenodd" d="M61.52 42.817a.442.442 0 10.004-.884.442.442 0 00-.005.884z" fill="#CCC"/><path fill-rule="evenodd" clip-rule="evenodd" d="M61.599 42.735a.442.442 0 10.005-.884.442.442 0 00-.005.884z" fill="#000"/><path fill-rule="evenodd" clip-rule="evenodd" d="M61.606 41.882a.411.411 0 01.072.815.413.413 0 00.224-.535.41.41 0 00-.38-.252.342.342 0 00-.072 0c.05-.02.103-.03.156-.028z" fill="#666"/><path fill-rule="evenodd" clip-rule="evenodd" d="M61.52 47.537a.44.44 0 100-.88.44.44 0 000 .88z" fill="#CCC"/><path fill-rule="evenodd" clip-rule="evenodd" d="M61.599 47.456a.442.442 0 10.005-.885.442.442 0 00-.005.885z" fill="#000"/><path fill-rule="evenodd" clip-rule="evenodd" d="M61.606 46.602a.411.411 0 01.072.815.411.411 0 00-.164-.787h-.071a.435.435 0 01.163-.028z" fill="#666"/><path fill-rule="evenodd" clip-rule="evenodd" d="M61.52 52.408a.44.44 0 100-.88.44.44 0 000 .88z" fill="#CCC"/><path fill-rule="evenodd" clip-rule="evenodd" d="M61.599 52.326a.442.442 0 10.005-.883.442.442 0 00-.005.883z" fill="#000"/><path fill-rule="evenodd" clip-rule="evenodd" d="M61.606 51.473a.411.411 0 01.072.815.412.412 0 00-.164-.787h-.071a.433.433 0 01.163-.028z" fill="#666"/><path fill-rule="evenodd" clip-rule="evenodd" d="M61.52 57.13a.442.442 0 10.004-.884.442.442 0 00-.005.885z" fill="#CCC"/><path fill-rule="evenodd" clip-rule="evenodd" d="M61.599 57.046a.44.44 0 100-.879.44.44 0 000 .88z" fill="#000"/><path fill-rule="evenodd" clip-rule="evenodd" d="M61.606 56.195a.409.409 0 01.072.813.412.412 0 00-.164-.787.342.342 0 00-.071 0 .392.392 0 01.163-.026z" fill="#666"/><path fill-rule="evenodd" clip-rule="evenodd" d="M61.52 61.588a.442.442 0 10.004-.884.442.442 0 00-.005.884z" fill="#CCC"/><path fill-rule="evenodd" clip-rule="evenodd" d="M61.599 61.51a.442.442 0 10.005-.883.442.442 0 00-.005.884z" fill="#000"/><path fill-rule="evenodd" clip-rule="evenodd" d="M61.606 60.652a.411.411 0 01.072.816.414.414 0 00.256-.379.409.409 0 00-.412-.408.329.329 0 00-.072 0 .435.435 0 01.156-.029z" fill="#666"/><path fill-rule="evenodd" clip-rule="evenodd" d="M61.52 66.308a.44.44 0 100-.88.44.44 0 000 .88z" fill="#CCC"/><path fill-rule="evenodd" clip-rule="evenodd" d="M61.599 66.226a.442.442 0 10.005-.885.442.442 0 00-.005.885z" fill="#000"/><path fill-rule="evenodd" clip-rule="evenodd" d="M61.606 65.372a.411.411 0 01.072.816.411.411 0 00-.164-.788h-.071a.435.435 0 01.163-.028z" fill="#666"/><path fill-rule="evenodd" clip-rule="evenodd" d="M61.52 71.294a.443.443 0 10.004-.886.443.443 0 00-.005.886z" fill="#CCC"/><path fill-rule="evenodd" clip-rule="evenodd" d="M61.599 71.222a.44.44 0 100-.88.44.44 0 000 .88z" fill="#000"/><path fill-rule="evenodd" clip-rule="evenodd" d="M61.606 70.356a.412.412 0 01.072.815.412.412 0 00-.164-.787.329.329 0 00-.071 0 .391.391 0 01.163-.028z" fill="#666"/><path fill-rule="evenodd" clip-rule="evenodd" d="M61.52 76.014a.442.442 0 10.004-.884.442.442 0 00-.005.884z" fill="#CCC"/><path fill-rule="evenodd" clip-rule="evenodd" d="M61.599 75.93a.44.44 0 100-.88.44.44 0 000 .88z" fill="#000"/><path fill-rule="evenodd" clip-rule="evenodd" d="M61.606 75.078a.41.41 0 01.072.816.414.414 0 00.256-.379.409.409 0 00-.412-.409.329.329 0 00-.072 0 .39.39 0 01.156-.028z" fill="#666"/><path d="M72.687 46.354h-6.233a.703.703 0 00-.703.703v3.49c0 .389.315.704.703.704h6.233a.703.703 0 00.703-.703v-3.491a.703.703 0 00-.703-.703z" fill="#4D4D4D"/><path d="M72.73 46.313h-6.235a.703.703 0 00-.703.703v3.49c0 .389.315.703.703.703h6.236a.703.703 0 00.703-.702v-3.491a.703.703 0 00-.703-.703z" fill="gray"/><path d="M72.777 46.28H66.54a.703.703 0 00-.703.703v3.49c0 .389.315.703.703.703h6.236a.703.703 0 00.703-.702v-3.491a.703.703 0 00-.703-.703z" fill="#F5F5F5"/><path fill-rule="evenodd" clip-rule="evenodd" d="M66.541 46.28h6.233a.703.703 0 01.703.703v3.49a.698.698 0 01-.289.566.695.695 0 00.243-.53v-3.49a.706.706 0 00-.703-.703h-6.235a.696.696 0 00-.414.138.695.695 0 01.462-.174z" fill="#fff"/><path fill-rule="evenodd" clip-rule="evenodd" d="M16.521 53.612c-.457-1.14-1.042-2.1-1.577-2.574-.319-.283-.51-.705-.856-1.05-.4-.366-.827-.7-1.277-1.002a12.352 12.352 0 00-2.444-1.441c.913-.202 2.3-.373 3.284.726 1.24.416 2.17.989 2.684 2.32 1.086.411 1.185 1.056 1.755 2.67l-1.569.35z" fill="#F1B287"/><path fill-rule="evenodd" clip-rule="evenodd" d="M10.695 47.71a9.892 9.892 0 00-.33-.163c.912-.202 2.3-.373 3.284.726 1.24.417 2.17.99 2.683 2.32 1.086.412 1.135.956 1.705 2.571l.028.34c-.511-1.459-.746-2.28-1.79-2.673-.51-1.331-1.443-1.904-2.682-2.32-.854-.956-2.01-.954-2.898-.8z" fill="#E8A476"/><path fill-rule="evenodd" clip-rule="evenodd" d="M16.772 48.91c.167.821.386 1.631.656 2.425.256.797.552 1.66.81 2.466l1.455-.302.074-.44c-.166-.319-.838-1.653-.838-1.653-.057-.273-.225-.649-.287-.864-.21-.743-.432-1.09-.817-1.909-.294-.707-.64-1.533-1.55-1.254-.267.084-.324.21-.147.51.19.356.405.697.644 1.02z" fill="#F1B287"/><path fill-rule="evenodd" clip-rule="evenodd" d="M16.772 48.91c.167.821.386 1.631.656 2.425.207.623.427 1.278.637 1.93a16.676 16.676 0 00-.511-2.045 19.016 19.016 0 01-.657-2.423 8.39 8.39 0 01-.644-1.022c-.09-.158-.12-.268-.09-.35-.168.087-.184.217-.035.475.19.352.405.689.644 1.01z" fill="#E8A476"/><path fill-rule="evenodd" clip-rule="evenodd" d="M22.517 51.256a5.78 5.78 0 00.224-1.833 7.86 7.86 0 011.355-1.855c-1.168-.348-2.678-.08-2.87 1.756-.473.575-.555.97-.741 1.788a3.099 3.099 0 00-.877.854l1.23 1.022 1.753.276a7.15 7.15 0 00-.074-2.008z" fill="#F1B287"/><path fill-rule="evenodd" clip-rule="evenodd" d="M24.047 47.624l.049-.056c-1.168-.348-2.678-.08-2.87 1.756-.473.575-.554.97-.741 1.788a3.99 3.99 0 00-.971.984c.552-.421.915-.79 1.26-.871.186-.81.268-1.245.74-1.817.17-1.633 1.447-1.953 2.533-1.784z" fill="#E8A476"/><path fill-rule="evenodd" clip-rule="evenodd" d="M16.276 46.257l2.246.662c.077.023-1.2 0-2.683 0-1.482 0-2.76.028-2.683 0l2.18-.65.94-.012z" fill="#E3E3E3"/><path fill-rule="evenodd" clip-rule="evenodd" d="M15.394 37.374h.828c-.061 3.11-.168 6.235.09 9.338h-1.023c.307-3.09.182-6.228.105-9.338z" fill="#E6E6E6"/><path fill-rule="evenodd" clip-rule="evenodd" d="M16.08 37.361l.142.013c-.061 3.11-.168 6.235.09 9.338h-.128c-.258-3.09-.164-6.24-.105-9.35z" fill="#F0F0F0"/><path fill-rule="evenodd" clip-rule="evenodd" d="M15.394 37.374h.136c.074 3.11.214 6.238-.1 9.338h-.146c.312-3.09.187-6.228.11-9.338z" fill="#CCC"/><path fill-rule="evenodd" clip-rule="evenodd" d="M15.967 37.573h-.333c.072 3.138.075 5.896-.038 9.034h.453c-.031-1.073-.082-6.857-.082-9.034z" fill="#fff"/><path fill-rule="evenodd" clip-rule="evenodd" d="M15.394 37.374h.828l-.015.749c-.256-.256-.511-.322-.792.058 0-.268-.016-.539-.02-.807zm.885 8.878c0 .153.02.306.033.46h-1.023v-.097l.031-.356a1.178 1.178 0 00.959-.007z" fill="#E3E3E3"/><path fill-rule="evenodd" clip-rule="evenodd" d="M11.022 31.169a7.352 7.352 0 00.056 2.044 5.503 5.503 0 004.01 4.176c.458.169.962.169 1.42 0a5.503 5.503 0 004.01-4.176 7.345 7.345 0 00.056-2.044c-.186.13-2.254.232-4.776.232s-4.59-.102-4.776-.232z" fill="#820708"/><path fill-rule="evenodd" clip-rule="evenodd" d="M15.798 30.898c2.645 0 4.761.117 4.761.256 0 .137-2.116.255-4.761.255s-4.774-.112-4.774-.255c0-.144 2.132-.256 4.774-.256z" fill="#580507"/><path fill-rule="evenodd" clip-rule="evenodd" d="M11.057 31.151c0 .148 4.393.233 4.746.233.353 0 4.736-.085 4.736-.233l.015.064c-.728.273-3.88.268-4.75.268-.992 0-3.855.023-4.734-.255l-.013-.077z" fill="#460507"/><path fill-rule="evenodd" clip-rule="evenodd" d="M7.209 48.27l.73.174a.317.317 0 00.387-.17.27.27 0 00-.236-.318l-.73-.173a.316.316 0 00-.386.168.274.274 0 00.235.32z" fill="#EDA580"/><path fill-rule="evenodd" clip-rule="evenodd" d="M7.089 48.066l1.073.256a.141.141 0 00.171-.077c.02-.059-.028-.123-.105-.143l-1.073-.256a.143.143 0 00-.174.077.122.122 0 00.108.143z" fill="#F2B292"/><path fill-rule="evenodd" clip-rule="evenodd" d="M7.278 47.967l.94.224a.054.054 0 00.067-.03c0-.023 0-.046-.041-.054l-.938-.225a.059.059 0 00-.07.03.049.049 0 00.042.055z" fill="#F7BFA3"/><path fill-rule="evenodd" clip-rule="evenodd" d="M7.35 47.782a.338.338 0 00-.376.17c-.036.12.064.255.227.31a.273.273 0 01-.018-.209l.028-.097a.348.348 0 01.138-.174z" fill="#fff"/><path fill-rule="evenodd" clip-rule="evenodd" d="M7.638 48.02l.552.13a.013.013 0 00.01.004.013.013 0 00.008-.004v-.012l-.552-.133a.016.016 0 00-.018 0s-.008.013 0 .015z" fill="#FCE3D6"/><path fill-rule="evenodd" clip-rule="evenodd" d="M23.633 47.238l-.582.667a.378.378 0 00-.034.511.32.32 0 00.463-.074l.58-.667a.373.373 0 00.036-.495.321.321 0 00-.463.058z" fill="#EDA580"/><path fill-rule="evenodd" clip-rule="evenodd" d="M23.917 47.223l-.856.981a.168.168 0 00-.015.223.145.145 0 00.207-.034l.856-.98a.167.167 0 00.015-.223.143.143 0 00-.207.033z" fill="#F2B292"/><path fill-rule="evenodd" clip-rule="evenodd" d="M23.907 47.47l-.749.86a.064.064 0 000 .084.056.056 0 00.08 0l.748-.859a.067.067 0 000-.087.055.055 0 00-.04-.016.052.052 0 00-.039.019z" fill="#F7BFA3"/><path fill-rule="evenodd" clip-rule="evenodd" d="M24.07 47.652a.396.396 0 00.031-.485c-.105-.105-.299-.072-.452.066.086 0 .17.034.232.095l.085.084c.062.065.1.15.104.24z" fill="#fff"/><path fill-rule="evenodd" clip-rule="evenodd" d="M23.667 47.823l-.443.511a.015.015 0 00-.003.01c0 .005 0 .008.003.011h.02l.44-.511v-.023a.016.016 0 00-.009-.002.016.016 0 00-.008.004z" fill="#FCE3D6"/><path fill-rule="evenodd" clip-rule="evenodd" d="M30.832 46.857H.766c-.066 0-.122.212-.122.47 0 .256.056.47.122.47h30.066c.067 0 .12-.211.12-.47 0-.258-.053-.47-.12-.47z" fill="#5F6163"/><path opacity=".34" fill-rule="evenodd" clip-rule="evenodd" d="M13.268 25.317c-.626 2.185-1.901 5.382-1.436 7.953.32 1.776 1.484 3.51 3.577 4.088-3.815-4.178-1.993-7.268-.656-12.087.115-.026.237-.052.363-.075a16.54 16.54 0 00-1.848.12z" fill="#fff"/><path opacity=".31" fill-rule="evenodd" clip-rule="evenodd" d="M12.532 25.45c-.606 2.184-1.93 5.123-1.454 7.758a5.503 5.503 0 004.01 4.176c.267.107.556.149.843.123-.2 0-.398-.042-.58-.123a5.503 5.503 0 01-4.01-4.176c-.475-2.635.874-5.622 1.48-7.815l-.289.056z" fill="#E6E6E6"/><path opacity=".39" fill-rule="evenodd" clip-rule="evenodd" d="M16.509 37.384a5.503 5.503 0 004.01-4.176c.475-2.635-.85-5.573-1.455-7.758l-.376-.052c.606 2.185 1.948 5.175 1.472 7.81-.5 2.773-2.479 3.77-3.651 4.176z" fill="#fff"/><path opacity=".15" fill-rule="evenodd" clip-rule="evenodd" d="M12.466 35.48c2.23 1.638 5.77.92 7.063-.991-1.242 3.48-5.134 3.401-7.063.991z" fill="#fff"/><defs><linearGradient id="paint0_linear" x1="-236.435" y1="220.219" x2="472.018" y2="-275.845" gradientUnits="userSpaceOnUse"><stop stop-color="#B4562B"/><stop offset="1" stop-color="#641B00"/></linearGradient><linearGradient id="paint1_linear" x1="3798.08" y1="913.471" x2="5018" y2="-34.323" gradientUnits="userSpaceOnUse"><stop stop-color="#B4562B"/><stop offset="1" stop-color="#641B00"/></linearGradient><linearGradient id="paint2_linear" x1="-35089.9" y1="14862.3" x2="154252" y2="-136174" gradientUnits="userSpaceOnUse"><stop stop-color="#B4562B"/><stop offset="1" stop-color="#641B00"/></linearGradient><linearGradient id="paint3_linear" x1="50.955" y1="34.174" x2="54.423" y2="20.267" gradientUnits="userSpaceOnUse"><stop stop-color="#641B00"/><stop offset="1" stop-color="#3D0000"/></linearGradient><linearGradient id="paint4_linear" x1="1625.09" y1="3296.34" x2="2004.97" y2="3339.01" gradientUnits="userSpaceOnUse"><stop stop-color="#B4562B"/><stop offset="1" stop-color="#641B00"/></linearGradient><linearGradient id="paint5_linear" x1="2010.79" y1="3484.84" x2="2106.1" y2="3499.67" gradientUnits="userSpaceOnUse"><stop stop-color="#B4562B"/><stop offset="1" stop-color="#641B00"/></linearGradient><linearGradient id="paint6_linear" x1="1819.65" y1="17671.6" x2="17848.3" y2="-3755.35" gradientUnits="userSpaceOnUse"><stop stop-color="#641B00"/><stop offset="1" stop-color="#3D0000"/></linearGradient><linearGradient id="paint7_linear" x1="1675.43" y1="13346.3" x2="12700" y2="-7325.18" gradientUnits="userSpaceOnUse"><stop stop-color="#B4562B"/><stop offset="1" stop-color="#641B00"/></linearGradient><linearGradient id="paint8_linear" x1="2393.36" y1="6621.6" x2="2983.68" y2="-5695.5" gradientUnits="userSpaceOnUse"><stop stop-color="#B4562B"/><stop offset="1" stop-color="#641B00"/></linearGradient></defs></svg>