<svg xmlns="http://www.w3.org/2000/svg" viewBox="0 0 172.66 116.71"><defs><style/></defs><g id="Полусладкое"><path d="M128.18 4.71l-44.4 24.65v56.11l44.07 25.47 44.82-25.33V29.12zm-2.65 98.46l-36.2-20.9V36.15l36.2 20.9zm3-50.83L91.65 31.07l36.51-20 37.39 20.77zm38.6 30l-36 20.37V57.22l36-20z"/><path d="M101.48 53a2.57 2.57 0 10-2.57-2.57 2.57 2.57 0 002.57 2.57zm10.44 6.15a2.58 2.58 0 10-2.57-2.59 2.58 2.58 0 002.57 2.59z"/><circle cx="96.34" cy="58.09" r="2.57"/><circle cx="106.63" cy="64.16" r="2.57"/><path d="M117.06 72.62a2.57 2.57 0 10-2.57-2.57 2.57 2.57 0 002.57 2.57zm-3.89 2.75a2.57 2.57 0 101 3.49 2.57 2.57 0 00-1-3.49zm-10.64-5.9a2.57 2.57 0 101 3.49 2.57 2.57 0 00-1-3.49zm-5.1 7.45a2.57 2.57 0 101 3.5 2.56 2.56 0 00-1-3.5zM107.87 83a2.57 2.57 0 101 3.5 2.56 2.56 0 00-1-3.5zm10.44 6.14a2.57 2.57 0 101 3.5 2.56 2.56 0 00-1-3.5zM44.41 5L0 29.62v56.09l44.07 25.5 44.82-25.33V29.37zm-2.65 98.46L5.56 82.53V36.41l36.2 20.9zm3-50.82L7.88 31.33l36.5-20 37.4 20.76zm38.6 30l-36 20.36V57.48l36-20z"/><path d="M17.71 53.22a2.58 2.58 0 10-2.57-2.59 2.58 2.58 0 002.57 2.59zm10.44 6.18a2.57 2.57 0 10-2.57-2.57 2.57 2.57 0 002.57 2.57z"/><circle cx="12.57" cy="58.34" r="2.57"/><circle cx="22.86" cy="64.42" r="2.57"/><path d="M33.29 72.88a2.58 2.58 0 10-2.57-2.59 2.57 2.57 0 002.57 2.59zm-3.9 2.74a2.57 2.57 0 101 3.5 2.56 2.56 0 00-1-3.5zm-10.63-5.91a2.57 2.57 0 101 3.5 2.56 2.56 0 00-1-3.5zm-5.11 7.47a2.57 2.57 0 101 3.49 2.57 2.57 0 00-1-3.49zm10.45 6.07a2.57 2.57 0 101 3.5 2.56 2.56 0 00-1-3.5zm10.44 6.15a2.57 2.57 0 101 3.5 2.56 2.56 0 00-1-3.5z"/></g></svg>