<svg xmlns="http://www.w3.org/2000/svg" viewBox="0 0 88.89 106.23"><path d="M44.41 0L0 24.65v56.11l44.07 25.47 44.82-25.32v-56.5zm-2.65 98.47l-36.2-20.9V31.44l36.2 20.9zm3-50.83L7.88 26.36l36.5-20 37.4 20.8zm38.6 30L47.36 98V52.51l36-20z"/><path d="M17.71 48.25a2.57 2.57 0 10-2.57-2.57 2.57 2.57 0 002.57 2.57zm10.44 6.19a2.58 2.58 0 10-2.57-2.59 2.59 2.59 0 002.57 2.59z"/><circle cx="12.57" cy="53.38" r="2.57"/><circle cx="22.86" cy="59.45" r="2.57"/><path d="M33.29 67.91a2.57 2.57 0 10-2.57-2.57 2.57 2.57 0 002.57 2.57zm-3.9 2.75a2.57 2.57 0 101 3.5 2.57 2.57 0 00-1-3.5zm-10.63-5.9a2.57 2.57 0 101 3.5 2.57 2.57 0 00-1-3.5zm-5.11 7.45a2.57 2.57 0 101 3.5 2.56 2.56 0 00-1-3.5zm10.45 6.07a2.57 2.57 0 101 3.5 2.56 2.56 0 00-1-3.5zm10.44 6.15a2.57 2.57 0 101 3.5 2.56 2.56 0 00-1-3.5z"/></svg>