<svg xmlns="http://www.w3.org/2000/svg" viewBox="0 0 182.71 182.62"><defs><style/></defs><g id="Сладкое"><g id="Полусухое"><path d="M49.41 76.13L5 100.77v56.11l44.07 25.47L93.89 157v-56.5zm-2.65 98.46l-36.2-20.9v-46.13l36.2 20.9zm3-50.83l-36.88-21.28 36.5-20 37.4 20.77zm38.6 30l-36 20.35v-45.48l36-20z"/><path d="M22.71 124.37a2.57 2.57 0 10-2.57-2.57 2.57 2.57 0 002.57 2.57zm10.44 6.19a2.58 2.58 0 10-2.57-2.56 2.59 2.59 0 002.57 2.56z"/><circle cx="17.57" cy="129.5" r="2.57"/><circle cx="27.86" cy="135.57" r="2.57"/><path d="M38.29 144a2.57 2.57 0 10-2.57-2.57 2.57 2.57 0 002.57 2.57zm-3.9 2.78a2.57 2.57 0 101 3.5 2.57 2.57 0 00-1-3.5zm-10.63-5.9a2.57 2.57 0 101 3.5 2.57 2.57 0 00-1-3.5zm-5.11 7.45a2.57 2.57 0 101 3.5 2.56 2.56 0 00-1-3.5zm10.45 6.07a2.57 2.57 0 101 3.5 2.56 2.56 0 00-1-3.5zm10.44 6.15a2.57 2.57 0 101 3.5 2.56 2.56 0 00-1-3.5z"/></g><g id="Полусухое-2"><path d="M134.1 76.38L89.7 101v56.11l44.07 25.47 44.82-25.33v-56.47zm-2.65 98.46l-36.2-20.9v-46.12l36.2 20.9zm3-50.82l-36.88-21.28 36.51-20 37.39 20.76zm38.6 30L137 174.4v-45.51l36-20z"/><path d="M107.4 124.63a2.58 2.58 0 10-2.57-2.59 2.57 2.57 0 002.56 2.58zm10.44 6.18a2.57 2.57 0 10-2.57-2.57 2.57 2.57 0 002.57 2.57z"/><circle cx="102.26" cy="129.75" r="2.57"/><circle cx="112.55" cy="135.83" r="2.57"/><path d="M123 144.29a2.57 2.57 0 10-2.57-2.57 2.57 2.57 0 002.57 2.57zm-3.91 2.71a2.57 2.57 0 101 3.5 2.56 2.56 0 00-1-3.5zm-10.64-5.87a2.57 2.57 0 101 3.5 2.56 2.56 0 00-1-3.5zm-5.1 7.46a2.57 2.57 0 101 3.5 2.57 2.57 0 00-1-3.5zm10.44 6.07a2.57 2.57 0 101 3.5 2.56 2.56 0 00-1-3.5zm10.44 6.15a2.57 2.57 0 101 3.5 2.56 2.56 0 00-1-3.5z"/></g><g id="Полусухое-3"><path d="M92.34 0l-44.4 24.65v56.11L92 106.24l44.82-25.33v-56.5zm-2.65 98.47l-36.2-20.9V31.44l36.2 20.9zm3-50.83L55.81 26.36l36.51-20 37.39 20.77zm38.6 30L95.25 98V52.51l36-20z"/><path d="M65.64 48.25a2.57 2.57 0 10-2.57-2.57 2.58 2.58 0 002.57 2.57zm10.44 6.19a2.58 2.58 0 10-2.57-2.59 2.58 2.58 0 002.57 2.59z"/><circle cx="60.5" cy="53.38" r="2.57"/><circle cx="70.79" cy="59.45" r="2.57"/><path d="M81.22 67.91a2.57 2.57 0 10-2.57-2.57 2.57 2.57 0 002.57 2.57zm-3.89 2.75a2.57 2.57 0 101 3.5 2.57 2.57 0 00-1-3.5zm-10.64-5.9a2.57 2.57 0 101 3.5 2.54 2.54 0 00-1-3.47zm-5.1 7.45a2.57 2.57 0 101 3.5 2.56 2.56 0 00-1-3.5zM72 78.28a2.57 2.57 0 101 3.5 2.56 2.56 0 00-1-3.5zm10.47 6.15a2.57 2.57 0 101 3.5 2.56 2.56 0 00-1-3.5z"/></g></g></svg>