<svg width="14" height="14" viewBox="0 0 14 14" fill="none" xmlns="http://www.w3.org/2000/svg">
<path d="M7.02734 14C3.18254 14 0 10.8721 0 7.02734C0 3.18254 3.18254 0 7.02734 0C10.8721 0 14 3.18254 14 7.02734C14 10.8721 10.8721 14 7.02734 14ZM7.84766 3.28125C7.84766 2.82898 7.47934 2.46094 7.02734 2.46094C6.57508 2.46094 6.20703 2.82898 6.20703 3.28125V7.4375C6.20703 7.88977 6.57508 8.25781 7.02734 8.25781C7.47934 8.25781 7.84766 7.88977 7.84766 7.4375V3.28125ZM7.02734 9.89844C6.57508 9.89844 6.20703 10.2665 6.20703 10.7188C6.20703 11.171 6.57508 11.5391 7.02734 11.5391C7.47934 11.5391 7.84766 11.171 7.84766 10.7188C7.84766 10.2665 7.47934 9.89844 7.02734 9.89844Z" fill="#FF0000"/>
</svg>
