<svg xmlns="http://www.w3.org/2000/svg" xmlns:xlink="http://www.w3.org/1999/xlink" viewBox="0 0 40 40"><defs><style>.cls-1{fill:url(#Безымянный_градиент);}.cls-2{fill:url(#Безымянный_градиент_2);}.cls-3{fill:url(#Безымянный_градиент_3);}</style><linearGradient id="Безымянный_градиент" x1="20" y1="2.12" x2="20" y2="41.69" gradientTransform="matrix(1, 0, 0, -1, 0, 42)" gradientUnits="userSpaceOnUse"><stop offset="0" stop-color="#e09b3d"/><stop offset="0.3" stop-color="#c74c4d"/><stop offset="0.6" stop-color="#c21975"/><stop offset="1" stop-color="#7024c4"/></linearGradient><linearGradient id="Безымянный_градиент_2" y1="2.12" x2="20" y2="41.69" xlink:href="#Безымянный_градиент"/><linearGradient id="Безымянный_градиент_3" x1="30.37" y1="2.12" x2="30.37" y2="41.69" xlink:href="#Безымянный_градиент"/></defs><title>instagram-color</title><path class="cls-1" d="M28.08,0H11.92A11.94,11.94,0,0,0,0,11.92V28.08A11.94,11.94,0,0,0,11.92,40H28.08A11.94,11.94,0,0,0,40,28.08V11.92A11.94,11.94,0,0,0,28.08,0ZM36,28.08a7.9,7.9,0,0,1-7.9,7.9H11.92A7.9,7.9,0,0,1,4,28.08V11.92A7.9,7.9,0,0,1,11.92,4H28.08a7.9,7.9,0,0,1,7.9,7.9Z"/><path class="cls-2" d="M20,9.65A10.35,10.35,0,1,0,30.35,20,10.37,10.37,0,0,0,20,9.65Zm0,16.67A6.32,6.32,0,1,1,26.32,20,6.32,6.32,0,0,1,20,26.32Z"/><path class="cls-3" d="M30.37,12.21a2.48,2.48,0,1,0-2.48-2.48A2.48,2.48,0,0,0,30.37,12.21Z"/></svg>