<svg xmlns="http://www.w3.org/2000/svg" xmlns:xlink="http://www.w3.org/1999/xlink" viewBox="0 0 40 40"><defs><style>.cls-1{fill:none;}.cls-2{clip-path:url(#clip-path);}.cls-3{fill:#2c3036;}.cls-3,.cls-4,.cls-5{fill-rule:evenodd;}.cls-4{fill:url(#Безымянный_градиент);}.cls-5{fill:#fff;}</style><clipPath id="clip-path"><rect class="cls-1" width="40" height="40"/></clipPath><linearGradient id="Безымянный_градиент" x1="20" y1="2" x2="20" y2="42" gradientTransform="matrix(1, 0, 0, -1, 0, 42)" gradientUnits="userSpaceOnUse"><stop offset="0" stop-color="#fff" stop-opacity="0.01"/><stop offset="0.48" stop-color="#fff" stop-opacity="0.01"/><stop offset="0.76" stop-color="#fff" stop-opacity="0.04"/><stop offset="1" stop-color="#fff" stop-opacity="0.1"/><stop offset="1" stop-color="#fff" stop-opacity="0.1"/></linearGradient></defs><title>zen</title><g class="cls-2"><path class="cls-3" d="M19.78,0c-8.24,0-14,0-16.89,2.89S0,11.8,0,19.78c8.86-.27,12.91-.49,16.14-3.64S19.51,8.86,19.78,0ZM2.89,37.11C0,34.18,0,28.2,0,20.22c8.86.27,12.91.49,16.14,3.64S19.51,31.14,19.78,40C11.54,40,5.82,40,2.89,37.11ZM20.22,40c.27-8.86.49-12.91,3.64-16.14S31.14,20.49,40,20.22c0,8,0,14-2.89,16.89S28.46,40,20.22,40Zm0-40c.27,8.86.49,12.91,3.64,16.14S31.14,19.51,40,19.78c0-8,0-14-2.89-16.89S28.46,0,20.22,0Z"/><path class="cls-4" d="M23.86,23.86c-3.15,3.23-3.37,7.28-3.64,16.14,8.24,0,14,0,16.89-2.89S40,28.2,40,20.22C31.14,20.49,27.09,20.71,23.86,23.86ZM0,20.22c0,8,0,14,2.89,16.89S11.54,40,19.78,40c-.27-8.86-.49-12.91-3.64-16.14S8.86,20.49,0,20.22ZM19.78,0c-8.24,0-14,0-16.89,2.89S0,11.8,0,19.78c8.86-.27,12.91-.49,16.14-3.64S19.51,8.86,19.78,0Zm4.08,16.14C20.71,12.91,20.49,8.86,20.22,0c8.24,0,14,0,16.89,2.89S40,11.8,40,19.78C31.14,19.51,27.09,19.29,23.86,16.14Z"/><path class="cls-5" d="M40,20.22v-.44c-8.86-.27-12.91-.49-16.14-3.64S20.49,8.86,20.22,0h-.44c-.27,8.86-.49,12.91-3.64,16.14S8.86,19.51,0,19.78v.44c8.86.27,12.91.49,16.14,3.64S19.51,31.14,19.78,40h.44c.27-8.86.49-12.91,3.64-16.14S31.14,20.49,40,20.22Z"/></g></svg>