<svg xmlns="http://www.w3.org/2000/svg" viewBox="0 0 266.03 226.59"><defs><style>.cls-1{fill:#1d1d1b}</style></defs><g id="Calque_1" data-name="Calque 1"><path class="cls-1" d="M1.3 189.27c-.79 0-1.3-.06-1.3-.17s.45-.29 1-.46c1.92-.61 3.33-2.42 3.33-6.65v-22.51c0-3.55-.62-4.57-2.2-5.41-.5-.23-1-.4-1-.68s.4-.23.79-.23H20.7c12 0 21 7.11 21 17.94 0 8-6.43 18.17-19.63 18.17zm9.59-5.87c0 3 1.46 4.46 6.65 4.46 12.52 0 16.59-6.72 16.59-17.55 0-10.49-5-15.73-14.78-15.73h-8.46zm61.32-13.88h10.44c4.11 0 7.72-1.91 8.51-4.23.12-.34.29-.51.46-.51s.22.29.22.85v9.31c0 1 0 1.18-.22 1.18s-.29-.39-.46-.79c-1.63-4.17-6.26-4.4-10.21-4.4h-8.74v11.91c0 4.11 1.41 5 5.25 5h6.37c4.74 0 11.06-2.65 14.72-6.15a7.76 7.76 0 011.53-1.19.15.15 0 01.17.17 2.18 2.18 0 01-.12.45l-2.48 8.13H63.3c-1.3 0-1.69-.06-1.69-.23s1.18-.51 1.58-.85c2.08-1.63 2.48-3.21 2.48-8.34v-19.16c0-3.67-.23-6.09-2.48-6.66-.4-.17-1-.34-1-.51s.22-.34 1.07-.34h31.91l1.52 5.31a8 8 0 01.51 2.08c0 .23-.11.46-.28.46a1 1 0 01-.68-.51c-2.37-3.89-8.35-5.92-13.65-5.92H72.21zm58.49 8.69c0 7 5.13 10.77 12 10.77 9.37 0 13.43-4.34 13.43-14v-11.77c0-5.7-1.52-8.3-3.84-9.48-.33-.17-.73-.4-.73-.57s.28-.22.45-.22c1.58 0 2.14.22 4.74.22 2.37 0 4-.22 4.63-.22s.84.06.84.22-.28.34-.84.74c-1.7 1.07-3.79 3.5-3.84 9.31v11.73c0 10.89-5.08 15.45-16 15.45-8.63 0-17.43-1.91-17.43-12.12v-20.14c0-2.31-.63-4.18-2.43-4.63-.28-.11-.57-.28-.57-.34s.34-.22.85-.22c.9 0 3.61.22 5.42.22s4.51-.22 5.41-.22c.51 0 .85.06.85.22s-.28.23-.57.34c-1.8.45-2.42 2.32-2.42 4.63zm63.17-21.04c0-2.2-1-2.59-3.49-2.59-5.59 0-9.37 3.15-11.91 5.58a6.76 6.76 0 01-1 1 .31.31 0 01-.28-.34 9 9 0 01.39-1.3l1.81-6.32h35.53l1.81 6.32a9 9 0 01.39 1.3.31.31 0 01-.28.34 6.76 6.76 0 01-1-1c-2.54-2.43-6.32-5.58-11.9-5.58-2.54 0-3.5.39-3.5 2.59v26c0 2.77.73 5 3.38 5.47.51.06.85.29.85.46a.51.51 0 01-.45.34c-.4 0-3.84-.17-7-.17s-6.55.17-6.94.17-.51-.12-.51-.29.51-.22 1.07-.45c2.6-1.13 3.1-2.76 3.1-8zm50.9 25.89c-.34.56-1.58 2.31-1.58 3 0 1.3 1.12 1.81 4.85 1.81 6.09 0 12.58-1.19 16.75-6 .4-.45.9-1 1.07-1s.17.11.17.23a3.31 3.31 0 01-.22.95l-2.37 7.23h-31.25l21.6-30.52a7.2 7.2 0 001.3-2.65c0-1.24-1.18-1.52-2.88-1.52h-5c-7.17 0-9.82 2.08-13.48 5.64-.29.22-.4.33-.57.33s-.16-.11-.16-.22a4.76 4.76 0 01.39-1.41l2.09-5.76h29.33zM54 109.17h-.52a7.49 7.49 0 00-7.16-7.41c-5.78 0-6.56 7.18-6.56 11.44s.78 11.44 6.56 11.44c4.1 0 7.16-4 7.16-8.09H54v7.7h-.52c0-.65-.33-1.62-1.11-1.62-1 0-2.7 2.53-6 2.53-5.49 0-10.27-5.3-10.27-12s4.78-12 10.27-12c3.32 0 4.75 2.37 5.95 2.37.91 0 1.21-.62 1.21-1.4H54zm9.46-7.09h-2.57v-.52h2.57a3.41 3.41 0 002.73-.81v13.17h.07a5.71 5.71 0 014.84-3.32c3.48 0 4.45 1.75 4.45 3.67v9.85h2.57v.52h-7.87v-.52h2.57v-10.63c0-1.79-.88-2.37-1.92-2.37-2.73 0-4.12 2.73-4.71 3.83v9.17h2.47v.52h-7.77v-.52h2.57zm32.05 20.81c0 .61.1 1.43 1 1.43s1.2-.62 1.69-1.3l.36.26a3.09 3.09 0 01-2.88 1.72 2.72 2.72 0 01-2.86-2h-.07c-1.11 1.46-2.57 2-4.71 2-2.54 0-4.07-1.26-4.07-3.48 0-3.64 4.85-4.55 8.2-4.55h.61v-4c0-1.52-1.43-1.88-2.66-1.88-1 0-3.16.36-3.16 1.53 0 .78 1.08.42 1.08 1.88a1.41 1.41 0 01-1.5 1.37c-.91 0-1.43-.72-1.43-1.82 0-1.66 1.76-3.48 5-3.48 2.47 0 5.39 1.27 5.39 3.77zm-3.28-5.37c-2.37 0-5.33.07-5.33 3.55 0 1.82.29 3.18 2.37 3.18a3.34 3.34 0 003.51-2.47v-4.26zm10.77 6.6h2.57v-12.29H103v-.52h2.57c1.56 0 2.14 0 2.73-.71v3.18h.06c.88-1.59 2.25-3.18 4.69-3.18 2.08 0 4.16.58 4.45 3.48h.06a4.93 4.93 0 014.72-3.48c3.31 0 4.42 1.92 4.42 4v9.56h2.57v.52h-7.87v-.52h2.57V114c0-2.34-1-2.86-2.28-2.86-1.88 0-3.54 2-4.19 4.32v8.68h2.47v.52h-7.77v-.52h2.57v-10.78c0-1.62-.81-2.24-2.11-2.24-2 0-3.42 1.53-4.36 3.83v9.17h2.47v.52H103zm32.74-12.29h-2.24v-.52h2.24a3.77 3.77 0 002.73-.71v3.32h.07a5 5 0 014.46-3.32c3.91 0 6.47 4 6.47 7.22 0 3.8-2.63 7.21-6.69 7.21a4.87 4.87 0 01-4.26-2.76h-.07v10.63H141v.52h-7.5v-.52h2.24zm2.73 8.13a4.44 4.44 0 004.33 4.55c3.18 0 3.57-1.85 3.57-6.69 0-4.46-.48-6.7-3.35-6.7-2.69 0-4.55 2.66-4.55 5zm28.53 2.93c0 .61.1 1.43 1 1.43s1.2-.62 1.69-1.3l.35.26a3.09 3.09 0 01-2.84 1.72 2.73 2.73 0 01-2.86-2h-.07c-1.1 1.46-2.56 2-4.71 2-2.53 0-4.06-1.26-4.06-3.48 0-3.64 4.84-4.55 8.19-4.55h.62v-4c0-1.52-1.43-1.88-2.67-1.88-.94 0-3.15.36-3.15 1.53 0 .78 1.07.42 1.07 1.88a1.41 1.41 0 01-1.49 1.37c-.91 0-1.43-.72-1.43-1.82 0-1.66 1.75-3.48 5-3.48 2.47 0 5.4 1.27 5.4 3.77zm-3.28-5.37c-2.38 0-5.34.07-5.34 3.55 0 1.82.3 3.18 2.38 3.18a3.34 3.34 0 003.51-2.47v-4.26zm20.81 5.63c1.82 0 3.61.74 3.61 3.74 0 4.42-3.57 6.86-7.51 6.86-3 0-6.27-1.08-6.27-4.2 0-1.82 1.85-3.18 3.25-3.8v-.07c-1.79 0-2.64-1.23-2.64-3 0-2.27 1.11-3.19 3.19-3.22v-.06c-1.46-.95-2.44-1.95-2.44-3.71a5.24 5.24 0 015.4-5.07 5.14 5.14 0 013.8 1.4 3.5 3.5 0 012.51-1.4 1.47 1.47 0 011.65 1.46 1.15 1.15 0 01-1.3 1.14 1 1 0 01-1-1 1.24 1.24 0 01.36-1.07 2.73 2.73 0 00-1.85 1.2 5.07 5.07 0 011.27 3.25c0 2.7-2.86 4.78-5.4 4.78a4.93 4.93 0 01-2.44-.58c-1.75 0-3.18.52-3.18 2a1.34 1.34 0 001.43 1.34zm-5.65 2.53a3.39 3.39 0 00-3 3.74c0 2.73 2.34 3.81 4.87 3.81 3.32 0 6.57-2.12 6.57-5.37 0-1.69-1.36-2.18-3.05-2.18zm2.24-5.85c2.67 0 2.67-2 2.67-4.35 0-2.61 0-4.36-2.67-4.36s-2.67 2.63-2.67 4.36c0 2.08 0 4.35 2.67 4.35zm15.99-8h-2.56v-.52h2.56c1.57 0 2.15 0 2.73-.71v3.32h.07a5.72 5.72 0 014.84-3.32c3.48 0 4.46 1.75 4.46 3.67v9.85h2.57v.52h-7.87v-.52h2.57v-10.63c0-1.79-.88-2.37-1.92-2.37-2.73 0-4.13 2.73-4.72 3.83v9.17h2.48v.52h-7.77v-.52h2.56zm24 7.77c0 2.31.29 4.91 3.35 4.91a5.15 5.15 0 005.2-4.48h.52a5.69 5.69 0 01-5.72 5c-3.81 0-6.47-2.92-6.47-7.21 0-3.16 2.53-7.22 6.07-7.22 3.84 0 5.83 4.29 5.83 5.66a.26.26 0 01-.3.29h-8.48zm5.66-4.48c0-2.08-.56-4-2.71-4s-2.95 1.92-2.95 4v.88h5.43a.21.21 0 00.23-.23zM133.39 5.13a.79.79 0 11-.79-.79.78.78 0 01.79.79zm-8.49.66c.28.88 0 1.74-.52 1.92s-1.26-.39-1.54-1.27 0-1.75.52-1.93 1.26.39 1.54 1.28zm-1.32-2.46a.73.73 0 01-1.46 0 .73.73 0 111.46 0zm16.18 2.46c-.28.88 0 1.74.52 1.92s1.26-.39 1.54-1.27.05-1.75-.52-1.93-1.3.39-1.54 1.28zm1.32-2.46a.74.74 0 10.73-.74.73.73 0 00-.73.74zm-9.6.78c-.07-.66-1.35-2.11-2-2.11s-.91 0-.91.29c0 .54.87.21.87.83 0 .79-1.29.17-1.29.75 0 .37.87.45.87 1s-.29.54-.5.41-.58-.16-.58.38 0 .91.38.7.61-.47.82-.13c.38.63-1.18 1.43-.82 1.79s2-1.19 2.82-2.55a1.43 1.43 0 010-.29 1.54 1.54 0 01.34-1.07zm1.52-.37a7.54 7.54 0 01.76-1.16c.46-.49 1.08-1.2 1.08-1.45s-.37-.28-.79-.16-.83.45-1 .29.71-1.26-.45-1.26c-.91 0-.87.64-.87.93s.17.74-.08.74c-.41 0-.5-.87-.87-.87a.85.85 0 00-.79.71c0 .31 1.26 1.06 2.13 2.25a1.51 1.51 0 01.48-.08 1.61 1.61 0 01.4.06zm2.91 1.08c0-.25.67-.54.67-.79s-.58-.49-.87-.54-.33-.57-.09-.91.54-.78-.12-.78-1.67 1.49-2 2.07A1.51 1.51 0 01134 5a1.62 1.62 0 01-.1.54 5 5 0 012 1.46.6.6 0 00.75.25c.2-.12-.83-.83-.66-1.16s.41-.08.7 0 .62-.41.62-.83-1.4-.19-1.4-.44z"/><path class="cls-1" d="M146 8.21a1.62 1.62 0 01.09-.74c0-.09.08-.29-.55-.29s-1 1.65-1 1.65-.09-.16-.59-.16c-1 0-.92 1-.63 1s.59-.33.88-.37 1.51.7 1.51 1-.42.82-2 .82c-2.14 0-3.06-2.94-3.06-2.94a.84.84 0 01-.71-.08 4.65 4.65 0 01-3.54 1.6 4.1 4.1 0 01-3.06-1.24c0-.21.21-.33.79-.33s.67.37.88.37.46.13.46-.41-1.71-2-1.71-2a1.4 1.4 0 01-1.16.63 1.26 1.26 0 01-1-.51s-2 1.37-2 1.91.25.41.46.41.29-.37.88-.37.79.12.79.33a4.1 4.1 0 01-3.06 1.24 4.65 4.65 0 01-3.48-1.53.84.84 0 01-.71.08s-.92 2.94-3.06 2.94c-1.55 0-2-.49-2-.82s1.22-1.08 1.51-1 .59.37.88.37.38-1-.63-1c-.5 0-.59.16-.59.16s-.41-1.65-1-1.65-.55.2-.55.29a1.52 1.52 0 01.08.74 3.8 3.8 0 01-1.38 1.69 4.07 4.07 0 003.32 2.24 5.6 5.6 0 004.19-2.44 8.55 8.55 0 003.52 1.32 6.55 6.55 0 003.75-1.53 6.52 6.52 0 003.75 1.53 8.55 8.55 0 003.52-1.32 5.6 5.6 0 004.2 2.44A4.06 4.06 0 00147.3 10a3.9 3.9 0 01-1.3-1.79zM117.62 11a.83.83 0 11-.83-.83.83.83 0 01.83.83zm-1.16-1.38s.7-.16 1 .13a3 3 0 00.79-1.5 4.18 4.18 0 01.45-2.15s-.41-.49-1.74.21c0 0-1-.21-1.24-.66a3.75 3.75 0 00.2 1.35 6.37 6.37 0 01.54 2.62zm-.58.5s0-2.24-.54-2.9-.74-1.12-1.08-1.12-1 .17-1 .46.91.54.71 1a.82.82 0 01-.79.58c-.37 0-1.28 0-1.28.58s.41.46 1 .54a4.05 4.05 0 012.57 1c.29.19.41.15.41-.14zm31.71.88a.83.83 0 10.82-.83.82.82 0 00-.82.83zm1.16-1.38s-.71-.16-1 .13a3.06 3.06 0 01-.78-1.5 4.18 4.18 0 00-.46-2.15s.42-.49 1.74.21c0 0 1-.21 1.24-.66a3.75 3.75 0 01-.21 1.35 6.23 6.23 0 00-.53 2.62zm.58.5s-.05-2.24.53-2.9.75-1.12 1.08-1.12.95.17.95.46-.91.54-.7 1a.81.81 0 00.79.58c.37 0 1.28 0 1.28.58s-.42.46-1 .54a4 4 0 00-2.57 1c-.24.19-.36.15-.36-.14z"/><path class="cls-1" d="M132.6 12c-9.73 0-12.6 1.26-12.6 1.26a1.06 1.06 0 000 1.2s2.89-1.31 12.62-1.31zm0 4.18c-8.45 0-11 .8-11 .8a.92.92 0 000 1s2.51-.8 11-.8zm0-2.73v2.4l-2.27-1.14 2.27-1.26zm-8.07.71l.15 1.68c1.14-.13 2.54-.24 4.21-.31v-1.69c-1.74.07-3.18.16-4.36.32zm-.83.97l-1.45 1.28-2.44-.58 2.07-1.32 1.82.62z"/><path class="cls-1" d="M132.6 12c9.73 0 12.63 1.31 12.63 1.31a1.08 1.08 0 010 1.2s-2.9-1.31-12.63-1.31zm0 4.18c8.45 0 11 .8 11 .8a.92.92 0 010 1s-2.52-.8-11-.8zm0-2.73v2.4l2.28-1.14-2.28-1.26zm8.08.71l-.15 1.68c-1.15-.13-2.54-.24-4.22-.31v-1.69c1.74.07 3.19.16 4.37.32zm.82.97l1.45 1.28 2.44-.58-2.07-1.32-1.82.62zM102 24.45a3.12 3.12 0 01-1.55-.67c-.4-.48-.8-.7-.8-1.28s.89-.44 1.2 0 2.7.66 3.1.66c1.37 0 2.13-2.7 2.13-3.72s-2.4-1.28-4.12-1.28a5.4 5.4 0 00-3 1.33 10.62 10.62 0 00-2.34 4.38 1.5 1.5 0 001.63 1.6 18.46 18.46 0 003.75-1.02zm5.51-1.33c3 .13 7.49-2.48 7.49-4.34 0-2.17-.93-2.7-2.75-2.7s-5.58 1.33-5.58 5.31c0 .62.09 2 .09 2l1.68-1.51a1.07 1.07 0 01-.93-1c0-1.68 2.44-3.81 4.34-3.81s2.09.45 2.09 1.47c0 1.68-3.33 3.41-5 3.41a2.22 2.22 0 01-1.59-.58z"/><path class="cls-1" d="M109.06 22.68a9.71 9.71 0 00-1.5 1.86 43.43 43.43 0 01-4.12 5.67c-2.43 2.62-5.45 4.6-7.53 4.6-1.11 0-3.28-.53-3.28-2.87a5.78 5.78 0 014.61-5.5C100 26 104.86 25.29 107 22l.67 1.29s-1.69 1.19-2.84 1.86-3.19 2.43-5.94 2.43-4.82 1.69-4.82 3.9c0 1 0 2.09 1.9 2.09s4.92-1.64 7.49-5 2.79-3.59 2.92-3.94a1 1 0 00-.13-.75l1.59-2z"/><path class="cls-1" d="M103.84 26.75a11.47 11.47 0 01-5.1 4.61s.76-1.68.36-2.61a14 14 0 004.74-2zm-4.84.49a37 37 0 00-2.88 7.88c-.13.67-.27 1.38-1.46.71a39.31 39.31 0 013.23-8.5zm-4.56 10.5c-.53 0-.84-.05-.84-.44s.53-.85 1.46-.85.94.54.94.8c0 1.15-.94.49-1.56.49zm-.44.4c-.53 0-1.15.53-1.46 1.55S92 42.08 92 42.08h.54s.66-1.95.93-2-.47 2.04-.47 2.04h.41A4.47 4.47 0 0094 40.8c0-.49 0-1 .31-1s.13.89.09 1.24a10 10 0 00-.4 1.35l.58-.22a4.79 4.79 0 01.17-1.29c.18-.44-.08-.93.18-.93s.27.67.18 1a4.42 4.42 0 00-.27 1.51h.49s.09-1.2.18-2 .62-2.32-1.51-2.32zm65.92-19.76a6 6 0 001.29.13c.75 0 1.37-.35 2.08-.35s3.23 1 3.23 1.77-3.36.18-3.36 1.11 4.34.62 4.34.62 1.24 1.06 1.24 2.08-.27 1.2-.67 1.2a3.72 3.72 0 01-2.26-.67 9.69 9.69 0 00-1.9-1.64 8.83 8.83 0 01-1.91-1.46 15.07 15.07 0 01-1-1.33c-.46-.49-1.21-.26-1.08-1.46z"/><path class="cls-1" d="M158.41 23.21c-1.59 0-8.15-1.07-8.15-5 0-1 .58-2.26 2.66-2.26s4.74 1.06 7.4 5.18c0 0 1 1.37 4.78 3.72 1.42.89 2.26.75 3.64 1.6s3.67 3.05 3.67 5.58c0 2.25-2.41 2.97-2.41 2.97l-1.77-1s3-.75 3-2.17c0-1.15-1-3.68-3-4.12s-3.64-1.86-4.74-2.57a46.23 46.23 0 01-5-4.3c-.27-.4-2.79-3.59-5.05-3.59-1.11 0-1.82.36-1.82 1.47 0 1.63 3.68 3.36 5.89 3.36s.85-1.64.85-1.64l2.7 2.31s-1.46-.8-1.38.17a15 15 0 002.09 5.81c1.79 2.79 4.86 5.27 6.47 5.27a8.57 8.57 0 002.21-.71l-.18 1.86a5.71 5.71 0 01-3.36-.49 12.35 12.35 0 01-6.47-6 23.88 23.88 0 01-2.03-5.45z"/><path class="cls-1" d="M161.25 24.94c-.35 0-.09.48.18.93a26.49 26.49 0 005 6.2s.84.35.58-.36a19.44 19.44 0 01-.89-2.57c0-.44.18-.84-.75-1.15s-3.54-3.05-4.12-3.05zm4.25 1.24a8.53 8.53 0 012.26 4.07c.45 1.58 2 6.47 2 6.47l.89-.27s-1.6-6.69-3.15-9.3zm4.39 11.38a1.63 1.63 0 00-.09 1l1.95-.67s-.44-.84-1.06-.84a.84.84 0 00-.8.51zm3.23 2.88c-.3-.93-.36-1.81-1.9-1.81-.45 0-1.11.35-1.11.93a20.12 20.12 0 00.49 2.25c.09.58.26 1.56.26 1.91h.36s-.18-.93.09-1.15.53.84.53.84l.26-.09s-.3-1.24-.08-1.37.62 1.24.62 1.24L173 43s-.58-1.68-.35-1.86.84 1.91.84 1.91l.44-.23s-.42-1.23-.81-2.38zm-11.91-8.64a8.67 8.67 0 003.32 3.28c2.35 1.33 3.14 1.33 3.14 1.33a62 62 0 002.71 12.67c.48 1.59.26 1.55-.4 2a22.72 22.72 0 01-2.66 1.46c-2 .91-3.94 1.29-6.51 3.55 0 0-.18-.36.22-1.29a14.52 14.52 0 00.57-4.61 6.12 6.12 0 012.35-.22 27.88 27.88 0 015.58 1s.32.27.32-1.06a6.58 6.58 0 00-.85-3.41 38.19 38.19 0 00-7.79-1.16s-.32-4.28 0-13.54zm-52.37-3.63a5.91 5.91 0 01-1.73-.84 1.08 1.08 0 01.62-.31c.32 0 .4.35.76.35s.62-.35.62-.88-.31-.89-.58-.89-.88.71-1.24 1.15a33.65 33.65 0 01-3.29 4.48 14.07 14.07 0 01-5.36 3.67s-2.2 9.17-2.64 11.17-.8 3.32-.8 3.81.05.88 1.15 1.19a51.2 51.2 0 017.14 3.1c.66.4 1.59 1 1.41.4a28.92 28.92 0 01-.84-5s-4.34.4-5.89.71-1.86.4-2.08.4-.49-.31-.49-1a9.26 9.26 0 01.71-3.1c.84-.89 5.18-1.59 7.53-1.59a2.72 2.72 0 011.06.13s.62-13.07.49-14.58c0 0 .62-1.06.93-1.68s.4-.93.62-.93.09.53.62.53h1.15zm1.87-4.17c0 .2.81.05 2.42-.05a54.73 54.73 0 0013.26-2 52.45 52.45 0 009.18-3.58s-4 0-7.21.15a49.88 49.88 0 00-6 .36 17.18 17.18 0 01-7.21 2.06 4.33 4.33 0 01-2.15 2.15c-1.63.91-2.29.61-2.29.91z"/><path class="cls-1" d="M157.86 24.4l-.45-.55c-3.38 0-4.35 0-6.25-1.67-.46-.4-1.06-1.21-1.62-1.26s-5.8-1.66-5.8-1.66a98.07 98.07 0 01-17.6 7.06A49.83 49.83 0 01116 27.88c-2.31.1-4.27-.25-5.25-.25-2.37 0-2.11 0-2.16.5l.65.56s-.2-.61.35-.61a40.08 40.08 0 009.79.05 49.89 49.89 0 0013.92-3.73c4.84-2.06 4.54-1.86 5.2-1.76a46.82 46.82 0 0011.6 1.91c2.9 0 7.76-.15 7.76-.15z"/><path class="cls-1" d="M156.7 31.26v-2.92s-5.11.45-7.63.45c-8 0-15.33-3.18-15.74-3.18s-.5 1.45-.7 1.45-.2-.34-.36-.69a3 3 0 01-.35-1c0-.3-.6-.4-.6-.4l6.3-2.57s-.4.5-.3.85.76.05.45.61-.86 1.86-1.11 1.76l-.25-.1s.81-1.81.45-2-.9.15-1 .55-.21 1.31-.51 1.21-.3-.35-.15-.66a.41.41 0 00-.2-.6c-.2-.1-.51.1-.61.3a2.47 2.47 0 01-.35.46s-.71-.16-.76 0 .1.3 1.92.85 7.87 2.68 13.51 2.68a43 43 0 008.73-.71l.55-1.46a3.21 3.21 0 01.51 1.11c0 .7-1.06.35-1.06 1.26v2.77zM109.77 71.7a6.22 6.22 0 00.76 0v.56a2.85 2.85 0 01-2.53-.86c-.71-.76-1.77-3.59-2.51-5.82-.67-2-.67-1.43-2.66-1.59a3 3 0 01-2-.76 4 4 0 01-1-1.87 23 23 0 01-.6-3.06c-.08-1-.4-2.87-.48-3.63S98.3 53 98.54 53s5.5 2.55 5.5 2.83-2 1.27-2.55 1.67-1.79.8-1.79 1.59 1.07.88 1.07 1.83c0 .56-.39.64-.39.84a.45.45 0 00.47.48c.16 0 .93-.55 2-1.08 1.61-.83 3.7-1.63 3.7-3a31.85 31.85 0 00-.8-4.26 29.89 29.89 0 01-.68-4.38l1.08.43c.36 4.07 2.83 10.08 3.35 11.51a6.22 6.22 0 001.91 2.95 5.74 5.74 0 011.39 1.83 2.44 2.44 0 01.56 1.35v.48h-.65a1.17 1.17 0 00.16-.79 10.85 10.85 0 00-1.23-1.92c-.28-.43-.6-.83-1-.91a4.19 4.19 0 01-1.15-.4 7.72 7.72 0 00-2.19-.28c-.64 0-2.08-.32-2.08.2s.2.76 1.32.76 3.34-.16 4.42 1.23a2 2 0 01-.8.8 19.24 19.24 0 01-2.38 1.24c-.32.08-.75.44-.75.76a10.07 10.07 0 00.63 1.59c.12.36.48.88.88.88a10.44 10.44 0 002.35-1.48c.84-.55 1.63-.91 1.75-1.75s.65 0 .65 0a.86.86 0 01-.37.8c-.44.28-2.35 1.67-2.35 1.67s-1.27.76-1.27 1 .47.23.47.23z"/><path class="cls-1" d="M101.09 59.09c-.51 0 0 1.55.32 1.55.59 0 .28-1.55-.32-1.55zm.72-.6c-.49.14.52 1.4.76 1.32s0-.72-.12-1-.36-.4-.64-.32zm1-.59c-.26.13-.08.36.07.67s.44.92.72.8.12-.76-.12-1.11-.48-.48-.67-.36zm.91-.4c-.28.13.53 1.6.76 1.51.4-.16-.24-1.75-.76-1.51zm.56-.64c-.31.2.16.6.32.84s.47.95.71.95.36-.28.08-.67-.79-1.32-1.11-1.12zm.95-.68c-.22.23.16.44.32.6s.24.6.48.48-.48-1.39-.8-1.08zM107.9 69c-.34.14.32 1.35.72 1.23s-.24-1.42-.72-1.23zm.84-.95c-.25 0 .6 1.63.87 1.47s.24-.43 0-.71-.61-.81-.87-.76zm.99-.24c-.26.11.36 1.28.64 1.12s-.12-1.32-.64-1.12zm1.72.92c-.2.09-.8-.88-.8-1.2s.08-.59.44-.31a.92.92 0 01.36.75c.04.2.15.68 0 .76zm.91-.84c-.17.23-.28-.12-.52-.52s-.67-.91-.27-.91.47 0 .63.44.28.83.16.99zm-3.11-39.2v9.22c0 4.1.12 9.24.19 10.47s.28 1.59-.43 1.55a18.18 18.18 0 00-3.31 0l-.72-.47s1.8-.24 2.39-.24a12.6 12.6 0 011.48.24c.24 0 .28-.52.2-1.12s-.08-.88-.2-2.07-.32-4.62-.36-13v-5l.4-.2zm47.45 2.57s.11 9.74-.09 14-.05 4.53-.05 4.53l1.89.34s1 .1 1 .55c.05 1.15-.1 2.09-1 4.78a51.68 51.68 0 01-4.13 10.45 2.13 2.13 0 00-.34 2c.29.7.29 1 .84 1.55s.65.54 1 .59.64.45.79.65.5.4.35.55a7.09 7.09 0 01-1.44.4v.69a3 3 0 002-.89c.65-.85 1-1.35 1.24-1.4s.4-1 0-.89-.79 1.19-1 1.09-.2-.4 0-.69.45-.45.25-.65-.5.3-.65.55a.71.71 0 00-.1.69c.1.2 0 .6-.3.35s-.6-.4-.3-.94.85-1 .6-1.3-.5.15-.6.45-.35 1-.59 1-.75-.34-.45-.64 1.09-1 .74-1.3-1.14 1.45-1.14 1.45-.45-.25-.35-.6 1-1.29.8-1.54-.5.1-.6.3-.35 1.09-.65.94-.15-.5.15-.9.55-.79.55-.79-.3-.1-.3-1.15 1.99-1.48 4.63-1.48c.75 0 1.2.1 1.2.6s-1 .45-1.4.45-3.48 0-3.48.64 3.28 1.84 3.28 2.84-.3 1-.3 1l-.3.64a3.37 3.37 0 001.05-1.54c.45-1.14 1-2.54 1.2-3.19a1.25 1.25 0 011.14-1c.65-.1 2.64-.25 3.33-1.2a7.08 7.08 0 001.35-3.83 18.28 18.28 0 01.79-4.33c.4-1.09.65-1.34-.09-1.14a38.4 38.4 0 00-4.53 2.06c-.8.45-1 .56.2 1a7.56 7.56 0 013.11 2.31s.15.9-.3.8-.6.6-.65.89 0 1.15-.44 1-5.13-2.44-5.13-4.63c0-1.34.85-2.49.85-4s.2-3.39.2-3.39-2.1-.34-2.69-.34-.7-.3-.7-.3a9.18 9.18 0 001-.8 8.9 8.9 0 00.64-.75l-.79-.24-.65 1.14a2.64 2.64 0 01-.25-1.19c0-.75.1-3.59.15-5.88s0-3.63.1-5.08 0-5.25 0-5.25l-.45-.72z"/><path class="cls-1" d="M161.58 56.83s-1.08 1.08-1 1.28.16.44.49.16.88-.85.88-.85.05-.64-.37-.59zm.75.69c-.26 0-.44.33-.62.67s-.41.56-.28.69.41 0 .64-.28.54-.44.56-.62 0-.54-.3-.46zm.95.48c-.21 0-.36.08-.52.31s-.64.85-.38 1 .49-.18.64-.41a2.91 2.91 0 00.46-.8c.03-.25-.2-.1-.2-.1zm.84.91c-.15-.12-.43.07-.59.33s-.54.59-.25.77.3 0 .43-.28.65-.64.41-.82zm.75.56c-.19-.15-.46.13-.62.39s-.36.64-.18.72.41-.18.62-.44.49-.41.18-.67zm3.62-12.04c-.18 0-.26.07-.23.51s.15 1.59.39 1.62.28-.7.28-1.08.07-1.05-.44-1.05zm-.87.05c-.23 0-.39.38-.41.79s0 1.08.3 1.13.42-.46.42-.87.07-.97-.31-1.05zm-1.18-.64c-.26-.06-.42.1-.47.59s0 2.13 0 2.13.64-.1.64-.62.16-.72.16-1 .15-1-.33-1.1zm-1.24-.16c-.3-.06-.41.1-.41.59v1.39c0 .33-.1.62.18.62s.41-.18.46-.6.31-1.89-.23-2zm-1.2 0c-.31 0-.28.26-.36.75s-.28 1.74-.28 1.74.77-.05.87-.25.23-2.16-.23-2.24zm-1.54-.1c-.31 0-.52.26-.54.64s-.21 1.9-.21 1.9.67.18.69-.18a4.7 4.7 0 01.23-1c.11-.33.16-1.36-.17-1.36zm-1.29.13c-.21 0-.38.23-.59.59a6.69 6.69 0 00-.36 1.56s.67.24.8-.33.56-1.74.15-1.82zm-1.03.05c-.12-.1-.51.51-.82.85a5.91 5.91 0 00-.67 1s.24.47.52.18.41-.82.64-1.05.54-.65.33-.98zm-2.14.33v-.56s2.29-1.18 2.32-.9a4.4 4.4 0 01-2.32 1.46zm.22-1.56l-.05-.42a5.14 5.14 0 011.46-.61c.41 0 .64.13.64.31s-.38.28-.56.3-1.49.42-1.49.42zm-.29-1.53v.29a2.08 2.08 0 01.87-.21 1.92 1.92 0 001.39-.49c.28-.33-.1-.69-.41-.64a14.25 14.25 0 00-1.85 1.05zm.07-1v-.34s1.44-.69 1.7-.89.87-.31.87-.13a1.35 1.35 0 01-.51.77zm-.3-1.3s.16 0 .88-.26 1.36-.43 1.51-.72.31-.31.31-.49-.54-.25-.69-.1-1.98 1.26-2.01 1.57zm.21-1.47c-.18-.08 0-.33.28-.51A7.24 7.24 0 01160 39c.31 0 .38.28.15.44a10.13 10.13 0 01-2.24.79zm.09-1.43c0-.2.59-.54.87-.72a3 3 0 011.13-.49c.31 0 .52.36.18.56a10.52 10.52 0 01-1.95.78c-.23 0-.23.07-.23-.13zm0-1.72c0 .15.41.2.77.05s1.31-.52 1.39-.85-.29-.28-.54-.26a2.44 2.44 0 00-.93.54c-.17.18-.63.21-.69.52zm.11-1.78c-.18.13-.28.57.11.44s1.26-.54 1.54-.59.59-.75.2-.75a8.39 8.39 0 00-1.85.9zm-.02-.79c-.16.13-.33-.13-.08-.39a4.67 4.67 0 011.88-1.12c.51 0 .38.7.1.7a6.33 6.33 0 00-1.9.81zm-.16-1.39a.5.5 0 01.16-.69c.41-.31 1.54-1.24 1.54-1.24s.67-.12.72.13a.69.69 0 01-.35.68 8.19 8.19 0 00-2.07 1.12zm-.07-1.75a.49.49 0 01.1-.59 10.44 10.44 0 011.34-1.13.36.36 0 01.51.36c0 .26-.28.36-.49.41a6.45 6.45 0 00-1.46.95zm-.1-1.79c-.17-.17.25-.62.46-.9a.83.83 0 01.59-.39c.18 0 .28.21.23.44s-.31.41-.52.54-.64.44-.76.31zM96.51 49.75a.9.9 0 00.41-.77c.07-.61.23-1.73-.19-1.73s-.41.86-.22 2.5zm1.44-.26l-.03-2.56.64-.04.03 2.18-.64.42zm1.44-.32L100 49v-1.82s0-.64-.29-.61-.38.32-.38.8.06 1.8.06 1.8zm1.54 0s-.06-.8-.06-1.44-.07-1.32.25-1.38.52.45.45.74a2.16 2.16 0 00-.16 1c.07.41.23 1.05-.48 1.08zm1.38-.17a.63.63 0 00.45-.58v-2.14h-.58zm1.63-.34c-.38 0-.35-.36-.38-1s-.22-1.12-.1-1.41.61 0 .68.33.03 2.08-.2 2.08zm1.25-.13c-.22 0-.38-.23-.38-.77s-.13-1.22.1-1.41.54.13.6.35.13 1.83-.32 1.83zm.93-1.92c-.26.08 0 .57.1 1s.19 1.09.42 1.09c.48 0 .16-.42.38-.58s1.19.87 1.35.58-.23-.51-.58-.8-1.28-1.42-1.67-1.29zm-.25-1.09c-.05.23.06.35.57.64l1.83 1v-.74s-2.27-1.35-2.4-.9zm.13-1.22c0 .48.39.57.87.64a11.51 11.51 0 011.41.35V45a9.06 9.06 0 00-1.92-.93c-.43 0-.36.1-.36.23zm.57-1.93c-.32 0-.38 0-.41.26s0 .48.54.67 1.51.45 1.51.45v-.48a6.14 6.14 0 00-1.64-.9zm-.16-1.6a.37.37 0 00-.09.74c.51.13 1.6.57 1.89.57v-.48a16.25 16.25 0 00-1.8-.83zm-.73-1.06l.51-.83s1.92.93 1.89 1.15-.29.2-.29.2zm.32-2.31c0 .33.06.61.77.84l1.21.38v-.51s-1.09-.87-1.47-.87-.51.16-.51.16zm.28-2.05c-.22.07-.32.58 0 .87a2.05 2.05 0 001.12.42 4.21 4.21 0 00.55.06v-.48s-1-.42-1.25-.55a1.38 1.38 0 01-.42-.32zm.1-1.54c-.28-.07-.42.52-.1.81a5 5 0 001.7.61c.2 0 0-.26-.29-.52a9.13 9.13 0 00-1.31-.9zm-.03-1.5c-.33-.06-.35.38 0 .7a6.37 6.37 0 001.57.74l.06-.58a8.49 8.49 0 00-1.63-.86zm-.19-1.54c0 .3.48.48.83.74a3 3 0 001 .35v-.35a6.48 6.48 0 00-1.38-1c-.29-.03-.45.07-.45.26zm.38-1.6c0 .32.06.38.45.61s.77.41 1 .22-.13-.67-.32-.7-1.13-.45-1.13-.13zm3.19-4.06c-.63 0-.22 1.87 0 1.87s.82-1.87 0-1.87zm1.06-.21c-.26 0-.36.16-.31.5s.21 1.62.49 1.66a.38.38 0 00.36-.59 1.65 1.65 0 01-.07-1c.07-.29-.26-.57-.47-.57zm1.06.1c-.18 0-.33 0-.25.49s.31 1.6.51 1.64.29-.93.29-1.39-.24-.74-.55-.74zm1.15 0c-.21 0-.25.35-.25.7s-.13 1.47.26 1.55.3-.45.3-.94.09-1.26-.31-1.31zm.74-.15c-.21 0-.24.38-.14.79s.27 1.79.48 1.83.25-.27.25-.79-.07-1-.06-1.19-.27-.64-.53-.64zm1.42-.02c-.33 0-.37.23-.38.63s.38 1.85.59 1.87.25-.45.24-1 .17-1.5-.45-1.5zm.96-.09c-.23 0-.31.31-.23.83a4.48 4.48 0 00.63 1.59c.1 0 .3-.21.2-.85s-.06-1.57-.6-1.57zm1.57-.2c-.37 0-.48.21-.48.58a7.13 7.13 0 00.77 2.19c.14 0 .36-.18.36-.69a6.39 6.39 0 00-.12-1.6c-.11-.31-.31-.48-.53-.48zm1.41-.04c-.3 0-.46.07-.29.62s.48 1.95.82 1.95.2-.37.05-.9c-.32-1.17.16-1.67-.58-1.67zm1.57-.22c-.82 0-.2 2.61.14 2.61s.72-2.61-.14-2.61zm1.15-.35c-.59.18.38 2.68.72 2.62s.35-2.96-.72-2.62zm1.38-.06c-.2 0-.32.34-.11.76s.62 1.81.87 1.8.17-.85.11-1.31-.21-1.22-.43-1.28a.75.75 0 00-.44.03zm1.55-.51c-.27 0-.4.33-.26.75s.51 1.21.57 1.47.3.73.4.31a7.84 7.84 0 000-1.53c-.02-.43-.28-1.05-.71-1zm1.35-.36c-.36 0-.29.26-.12.75s.43 1.06.54 1.38.15.78.38.61.2-.57.12-1.13-.39-1.61-.92-1.61zm1.4-.37c-.38.07-.29.41-.21.92a2.49 2.49 0 00.51 1.15c.22.31.25.52.47.31s.24-.47.06-1.08-.33-1.4-.83-1.3zm1.25-.35c-.28 0-.29.37-.11.82s.52 1.5.79 1.42.35-.37.19-.85-.19-1.47-.87-1.39zm1.32-.56c-.32 0-.22.34 0 1s.66 1.62.83 1.56.15-.35 0-1-.07-1.62-.83-1.56zm1.24-.33c-.37.08.51 2.45.87 2.32s-.35-2.43-.87-2.32zm1.05-.46c-.37.22-.07.72.24 1.15s.7 1.33.92 1.18.21-.63-.06-1.06-.76-1.47-1.1-1.27zm1.33-.34c-.27.23-.23.28.1.89s.53 1.45.82 1.36.26-.67 0-1.22-.61-1.32-.92-1.03zm7.45-1.66c-.27 0-.42.5-.08.58s.42.1.68-.08.47-.17.44-.41-.23-.23-.41-.17a2.18 2.18 0 01-.63.08zm-1.73-.46c-.2 0-.07.14.11.56s.07.47.37.82.39.56.56.53.2-.22.08-.63-.32-1-.32-1a5.8 5.8 0 00-.8-.28zm-1.31-.06c-.12.12.21.27.33.78s.5 1.53.71 1.59.09-.43 0-.92a2 2 0 00-.29-1.12c-.16-.23-.64-.44-.75-.33zm-.88.14c-.2 0-.19.47-.19.71a1.65 1.65 0 00.37.84c.21.3.56 1.24.8 1.24s.17-.34 0-.78a4.87 4.87 0 00-.4-1.32c-.19-.31-.4-.69-.58-.69zm-1.22.99c-.22 0-.34.2-.11.6s.72 1.06.87 1.28.27.37.38.34 0-.32-.08-.79-.45-1.39-1.06-1.43zm-1.1.46c-.24 0-.37.23-.29.48s.38.59.54.93.38.74.58.73.33-.42.09-.87-.49-1.21-.92-1.27zm4.1 4.08c-.3-.09-.4 0-.59.39a5.63 5.63 0 00-.38 1.11c-.05.29-.11.62.1.65s.37-.18.58-.66a4.48 4.48 0 01.41-.9c.09-.14.26-.46-.12-.59zm.54 2.61c-.24 0-.1-.63 0-.92a4.13 4.13 0 01.56-1.27c.17-.14.62 0 .59.33a2 2 0 01-.34.81c-.15.23-.59 1.05-.81 1.05zm1.68.13c-.24 0-.16-.29-.14-.77a2.09 2.09 0 01.27-1.08c.16-.17.65-.16.62.09a7 7 0 01-.31 1c-.09.2-.2.79-.44.76zm1.13.41c-.16 0-.12-.35 0-.83a3.54 3.54 0 01.17-1c.14-.31.32-.42.51-.43s.5 0 .37.29a4.89 4.89 0 00-.39 1c-.01.18-.35 1-.66.97zm1.52.15c-.37-.05-.09-.46-.09-.84a4.59 4.59 0 01.4-1.15c.08-.31.19-.34.38-.27s.42.14.29.48a9.05 9.05 0 00-.45 1c-.05.28-.32.81-.53.78zm1.26.17c-.14 0-.18-.45-.07-.83a5.51 5.51 0 00.24-1 .42.42 0 01.46-.39c.17 0 .29.15.22.5a3.67 3.67 0 01-.38 1.13c-.2.24-.3.62-.47.59zm1.39.14c-.18 0-.19-.32-.21-.78s.18-.9.18-1.19.16-.16.32-.19.53-.16.42.29a5.55 5.55 0 00-.23 1c0 .18-.25.84-.48.87zm1.23.02c-.27 0-.28-.45-.22-.95a3.37 3.37 0 01.3-1.15c.13-.18.89-.25.75.13a10.34 10.34 0 00-.44 1.26c0 .13-.14.71-.39.71zm1.12.29c-.25 0 0-1.12.1-1.63a1.78 1.78 0 01.39-.87c.13-.1.75.14.72.36s-.38.71-.41 1.09-.56 1.05-.8 1.05zm7.58-.46c-.18 0-.18-.23-.18-.78a13 13 0 01.12-1.3c0-.2.27-.27.44-.28s.5 0 .49.33-.42.65-.41.88a1.46 1.46 0 01-.14.77c-.11.14-.21.38-.32.38zm-1.13-2.18c-.25 0-.39.25-.43.43a3.1 3.1 0 00-.1 1c0 .48-.11 1 0 1s.34-.13.48-.7.39-.95.44-1.21a.45.45 0 00-.39-.52zm-1.47.22c-.4 0-.4 0-.51.52s-.27.57-.18 1a7.76 7.76 0 01.08 1.12l.37.06a1.45 1.45 0 010-.79 13.23 13.23 0 00.48-1.26c.22-.49.01-.65-.24-.65zm-1.23.03c-.33 0-.44.09-.47.41a2.46 2.46 0 01-.24.9.91.91 0 00-.13.73c.07.27.1.37.37.06a6.36 6.36 0 00.56-1.1 1.26 1.26 0 00.17-.73c0-.32-.26-.27-.26-.27zm-1.5.02c-.31 0-.39-.06-.44.31s-.14.85-.16 1.09-.09 1.41-.09 1.41h.35a1.05 1.05 0 01.16-.8 2.31 2.31 0 00.55-1.2c0-.38.12-.79-.37-.81zm-40.7 46.15a19.69 19.69 0 016.07.35c2.75.7 10.62 4.06 17.85 4.06s11.78-4.26 18.7-4.26a17.48 17.48 0 002.48-.27l.28.17-.23.52a40.28 40.28 0 00-8.15 1.19c-5.56 1.6-6.92 3.26-13.28 3.26-9.28 0-15.85-4.52-21.11-4.52h-2.5l-.41-.23zm.02-42.78c-.37 0 .07 1.91.07 1.91s.82-.79.82-1.33c0-.36-.68-.58-.89-.58zm6.44.43c-.85 0-.31 1.36-.14 1.36s.99-1.36.14-1.36zm5.62-.72c-.32.21-.14 1.47.1 1.47a1.91 1.91 0 001-1.09.67.67 0 00-1.1-.38zM119.09 33a.78.78 0 00-.85.79c0 1 .37 1.09.37 1.09s.28-.89.51-1 .34-.88-.03-.88zm-5.69-.51c-.61 0-.68.27-.68 1a1.78 1.78 0 00.45 1.4c.27.23 0-.62.27-1s.58-.65.58-1-.31-.4-.62-.4zm-2.68 4.43a.7.7 0 00-.72.78c0 .44.48 1.06.51 1.23s0 .47.17.51.27-.44.21-.72a1 1 0 01.13-.85c.17-.2.44-.75.17-.82a4.59 4.59 0 01-.47-.13zm2.04 8.14c-.38 0-.31.88-.31 1.12a14.32 14.32 0 00.41 1.57 11.89 11.89 0 00.68-1.5c.21-.62.31-1.54-.14-1.5s-.23.25-.64.31zM108 50.23c-.31 0-.34.14-.31.51s.51 1.4.75 1.43.24-.61.24-1.12-.1-.79-.27-.79a4.11 4.11 0 01-.41-.03zm2.14 6.33c-.48 0-.65.17-.52.72a6.51 6.51 0 01.38 1.26c0 .37 0 .81.41.81s.24-.57.24-.91.27-.69.27-1.09a.76.76 0 00-.78-.79zm5.92.55c-.39 0-.48.37-.31 1a6.54 6.54 0 00.65 1.33s.17-1.12.2-1.5.17-.83-.54-.83zm5.48-1.98c-.35 0-.13.68-.07 1.26s.07 1.53.28 1.5.2-.24.27-.61.71-.65.71-1-.13-1-.37-.92-.21.24-.44.13-.04-.36-.38-.36zm1.46 6.61c-.41 0-.45.2-.45.65s-.13 1.49.34 1.56.28-.71.55-1a1 1 0 00.31-.85c.01-.33-.47-.4-.75-.36zm-6.19 7.62c-.38 0-.24.38-.1.72a1 1 0 001.19.71 1.09 1.09 0 01-.34-.74c0-.45-.07-.75-.75-.69zm4.53.28c-.41.06.68 1.09.68 1.09s.51.27.51-.31 0-1-.24-1-.17.27-.44.27-.1-.12-.51-.05z"/><path class="cls-1" d="M126 71.75c-.68.71 1.63 1.63 1.63 1.63s-.88-2.45-1.63-1.63zm6.33-.24c-.47.08-.4.48-.54.78s.1.89.24 1.33.3.89.3.89l.45-2c.1-.42-.04-1.07-.45-1zm4.67 1.94a2.39 2.39 0 01.17-1.22c.27-.62.85-.79 1.05-.55s-.17 1-.51 1.09-.71.68-.71.68zm7.05-4.26c-.45 0-.62 0-.65.65a2.1 2.1 0 00.37 1.3c.17.27.34-.55.52-1s.23-.91-.24-.95zm5.27-.3c-.33-.24-.47 0-.78.3s-.58 1.3-.31 1.57.48-.07.58-.41a1.4 1.4 0 01.51-.92c.34-.2.34-.3 0-.54zm2.01-5.59a3.76 3.76 0 01-.65-1.49c0-.65.89-1 .89-.38a15.22 15.22 0 01-.24 1.87zm2.39-1.77a1.26 1.26 0 01-.07-.85 4.48 4.48 0 00.13-1.33 1.28 1.28 0 01.38-1c.17-.17.78-.48.88.1a1.67 1.67 0 01-.34 1.36c-.27.46-.98 1.72-.98 1.72zm-1.6-3.98a1.61 1.61 0 00.51-1.12c0-.68.23-1.16-.14-1.37s-.72-.37-.78.07a5.24 5.24 0 00.41 2.42zm.54-8.03a14.11 14.11 0 00-.17-1.54c-.1-.41-.2-.3-.2-.78s.81-.61.78-.07a8.79 8.79 0 01-.41 2.39zm3.51 2.21c-.38-.21.2 2.38.2 2.38a7.11 7.11 0 01.58-1 1.11 1.11 0 00.24-.92c0-.31-.1-.58-.31-.38s-.41.09-.71-.08zM142.79 31s.2 0 .34-.54.23-.54.27-.85-.68-.58-1-.44-.14.47 0 .75zm5.85 1.08v-1.29a.9.9 0 01.38-1c.41-.2.71.21.54.58s-.92 1.71-.92 1.71zm6.36-.57a5.48 5.48 0 01-.44-1.26c0-.41 1.22-.45 1.15.1a2.53 2.53 0 01-.71 1.16zM147.28 34c-.51-.05-.65.41-.54.95a2.59 2.59 0 00.4 1 2.87 2.87 0 00.69-1.09.61.61 0 00-.55-.86zm4.72-1c-.64 0-.68.48-.47.92a3.89 3.89 0 00.81 1 5.72 5.72 0 00.17-1.06c.05-.55.05-.86-.51-.86zm2.46 4.84c-.41 0-.17.54 0 1a1.74 1.74 0 01.07 1.16c-.1.41-.2 1-.2 1a4 4 0 00.92-1.12c.27-.58.44-.82.37-1.33s-.24-.78-.47-.65-.55-.06-.69-.06zm-32.58-4.03a2.08 2.08 0 00-.07 1 2 2 0 01-.36 1.6.82.82 0 01-1.17.33c-.51-.26-.51-.8-.25-1.31a9.6 9.6 0 011.85-1.62zm.55-.22a1.37 1.37 0 00-.11.84 2 2 0 010 1.31 1.4 1.4 0 001.12-.66c.18-.33.51-.83.51-.83a5.45 5.45 0 000-1.09 4.7 4.7 0 010-.95 9.18 9.18 0 00-1.52 1.38zm1.92.41a5.16 5.16 0 00.26-1.27c0-.51 0-1 .25-1.27a10.37 10.37 0 011.45-.91 2.63 2.63 0 00-.18 1.12A1.87 1.87 0 01126 33a5.69 5.69 0 01-1.65 1zm2.36-1.68a3 3 0 00.22-1.09c0-.43-.07-.83.29-1.12a17.6 17.6 0 011.93-1.06 2.47 2.47 0 00-.37 1.24c.08.51-.11 1.2-.43 1.3a8.35 8.35 0 01-1.64.73zm2.76-1.49a4.67 4.67 0 00.11-1 1.62 1.62 0 01.51-1.16c.33-.25 2.18-1.27 2.18-1.27s.15 1.24-.18 1.67-.84 1.06-1.24 1.13a7 7 0 00-1.38.63zm3.6-3.48a1.27 1.27 0 01.18.9 1 1 0 00.62 1.42c.87.44 2.11 1 2.11 1a2.79 2.79 0 01-.11-1 1.19 1.19 0 00-.51-1.09c-.36-.25-2.29-1.23-2.29-1.23zm3.34 1.74a.89.89 0 01.15.65c-.08.37-.33 1.09.14 1.38s2 1.13 2 1.13a3.08 3.08 0 01-.26-1.27 1.29 1.29 0 00-.58-1.38 5.11 5.11 0 00-1.45-.51zm2.59 1.56s1.87 1 2.11 1.6c.4 1-.33.87.14 2.14 0 0-1.38-1-1.63-1.23a1.18 1.18 0 01-.4-1.24 1.94 1.94 0 00-.22-1.27zm2.79 2.11a2.58 2.58 0 01.07 1c-.07.59-.18.91.22 1.35s1.31 1.31 1.31 1.31a2.2 2.2 0 00.18-1.17 5.67 5.67 0 01-.11-1 7.28 7.28 0 00-1.67-1.49zm2.47 2.07c-.08.47-.19.65-.08.91a3.23 3.23 0 01.08.94s.76.22 1 .07.4 0 .32-.47a2.61 2.61 0 00-1.32-1.45zm6.82 32.58H132.6v1.23h18.48a.61.61 0 00.61-.61.61.61 0 00-.61-.62zm-9.9 2.36h-8.58V71h8.58a.62.62 0 000-1.23zm-24.87-2.36h16.29v1.23h-16.29a.61.61 0 01-.62-.61.62.62 0 01.62-.62zM132.6 71h-6.75a.62.62 0 110-1.23h6.75m1.91-4.62a1.64 1.64 0 11-1.64-1.64 1.64 1.64 0 011.64 1.64zm8.31 1.85l3.79-.15s.62.05.62-.41-1.59-1.23-2-1.23a6.18 6.18 0 00-1.8.82c-.56.25-2 .97-.61.97z"/><path class="cls-1" d="M146.15 63.41c-1.17 1-1.84 1.64-2.51 1.74a4.38 4.38 0 00-1.79.88 4.05 4.05 0 01-1.85.82.77.77 0 01-.82-.87c0-.57 1-1.9 1.59-2.93a11.26 11.26 0 001.64-4c.36-1.9.72-5.28 1.49-6.82s2.41-4 2.41-4V47h3.74a28 28 0 011.44 4.82 21.63 21.63 0 01-1 4.41 14.23 14.23 0 00-.72 3.59 17.78 17.78 0 01-.31 1.95c0 .56.72 4 .72 4s1 .36 1 .72-.67.46-1 .46-1.23.2-1.23-.72-.61-5.33-.61-6.36a3.19 3.19 0 00-.26-1.74 1.27 1.27 0 01.26-1.23 3.22 3.22 0 00.51-1.69c0-.72 0-3.08-.46-3.08S147.9 55 147.9 55s-.57 1-.77 1.49 0 .64-.41 1.23c-.93 1.28-3.08 2.92-3.08 3.49 0 .25 2.62-.93 3-.93s.61.72.61 1.18a4.66 4.66 0 01-1.1 1.95zm-1.48-21.74c.05-.26.25-.26.46-.26s.61.1.77-.15a15.92 15.92 0 00-.26 1.79c0 .46-.15.87-.62 1a2.46 2.46 0 00-.82.36 5.56 5.56 0 01.21-1.49 8.25 8.25 0 00.26-1.25zm.61 3.02a3.23 3.23 0 01-.15 1.18c-.21.57-.62 1.34-.67 1.64s-.26.52-.61.36-.77.31-.77.31a19 19 0 01.56-1.9c.26-.61.26-1.07.56-1.18s.8.11 1.08-.41zm1.18 0l-.05 1.39a13.89 13.89 0 002.26.05 18.94 18.94 0 002.46-.36c.3-.15.51-1-.26-1.08s-4.41 0-4.41 0z"/><path class="cls-1" d="M143.28 37.26c0-.22 1.33.05 1.85.15a2.52 2.52 0 001.38 0 1.7 1.7 0 011.34-.1 7.12 7.12 0 012 1.33 1.76 1.76 0 00.92.92 1.34 1.34 0 011.13 1.29c.15 1 .25 2.92-.11 2.92-.77 0-.82-3.13-1.89-3.13-.83 0-.36.51-.21 1.28a6.86 6.86 0 010 1.9l-2.61.1a9.43 9.43 0 01-.21-1.74 1.18 1.18 0 00-.36-1.08c-.31-.31 0-1.69 0-1.69a.52.52 0 00.57-.1.55.55 0 00-.16-.82c-.31-.21-.87-.26-1 0s0 1 1.33 1.07l-.25 2.31a4.6 4.6 0 00-1-1.07 10.49 10.49 0 00-1.75-1.24.92.92 0 01-.82-.71c-.1-.46.05-.46.26-.52s.67.42.92.36.11-.51-.2-.61-.77 0-.93-.26a.58.58 0 01-.2-.56zm-23.38 3.59s.41.15.77.25.56.36.66 1 .62 1.18.21 1.33a.9.9 0 01-1.18-.36 2.7 2.7 0 01-.46-2.22zm.82 3.33a1.25 1.25 0 00.82.31c.41-.05.61.31.72.77s.25 2.05.25 2.05a2.61 2.61 0 01-1-.62 3.61 3.61 0 00-.67-.61s-.53-1.33-.12-1.9zm-1.03-.1s-1 .1-1.74.1-3.54-.1-3.54-.1v-.87s-.36-.52.41-.57 2 .16 2.36.16l2.56.05zm-3.95.77a21.69 21.69 0 01-.3 2.15 13.09 13.09 0 00-.47 3 4.08 4.08 0 001.39 2.92s.1.92-.36 1.28-2 1.23-2.21 2a13.29 13.29 0 000 2.82 6.13 6.13 0 00.47 2.46c.36.46.77.82 1.12.82s.57-.41.57-.77-.82-1-.82-1-.21-1.85-.21-2.51a2.23 2.23 0 012-2.42c1 0 1.32 1.79 1.64 3.54.51 2.81.87 6.11.87 6.11s-1.33 1.38-.92 1.53a1.67 1.67 0 001.49.06c.56-.31.51-1.18.51-1.65a13.34 13.34 0 01-.1-1.94 7.57 7.57 0 00-.16-2.11 6.11 6.11 0 01.21-2.05c.15-.66.56-2.2.31-2.56a24.93 24.93 0 01-1.69-4.53c-.11-.83-.16-2.11-.16-2.11s0-.46.41-.46.57 1.28.67 1.8.67 2.56.82 2.92.67.36 1.54.46 2.56.36 2.56.36a3.12 3.12 0 00-.15-1.59 25.21 25.21 0 01-.92-3.18l-2.62-2.1a13.12 13.12 0 01-2.23-3.3 25.68 25.68 0 01-3.26.05zm.26-3.23c-.27-.1 0-1.23 0-1.59s-.16-1-.51-1.08-.72-.1-1 .46-.72 2-1.74 2.21l.72-3a1.11 1.11 0 01.92-1 8.18 8.18 0 002.46-.41 5.1 5.1 0 011.74-.52c.52-.05 1.34 1 2.16 1s1.69-.21 1.69.51-1 .72-1 .72a1 1 0 00.81.16s0 .66-.66.66h-1.39l-1.07-1.13s.56.06.56-.36-1.54-1-1.54-.41.46.88 1.7.67l.77 1a2.07 2.07 0 01-1.59.72s-.11.57-.31.67.1.51-.21.67a2.85 2.85 0 01-2.51.05zm16.6 2.3a18 18 0 00-8.08 1.76 2.13 2.13 0 01-.31-1.2 25.42 25.42 0 018.39-1.91v-.45s-.57.05-.57-.76.53-.7.53-1.66c0-.27.07-.5-1-.5a4 4 0 00-1.78.18 3.2 3.2 0 01-1.08.4c-.28 0-.63-.51-.63-1a.7.7 0 01.73-.73c.3 0 .5.43 1.73.43.8 0 1.89-.1 1.89-.1a4 4 0 00-.08-.83c-.08-.26 0-.48-.25-.58a.71.71 0 01-.58-.81c0-.65.57-.62 1-.62v-2.42a11.6 11.6 0 00-7.76 3.57 8.35 8.35 0 00-1.75 5.68 15 15 0 00.86 4.4 45.25 45.25 0 012 7.23 39.71 39.71 0 01.45 5.36 4 4 0 00.76 2.86 3.12 3.12 0 002.74 1.28 17.05 17.05 0 003.49-.9l-.2-5.05c-.41 0-.41-.6-.41-1.15a5 5 0 00-.32-1.64 5.35 5.35 0 00-.58-1.28c-.18-.13-.48-.21-.48-.48s.37-.32 1.38-.32V47.3h-1a11 11 0 00-.68 1.3c-.15.43-.56 1.82-.58 2s0 .45-.18.45-.15-.35-.32-.83-.83-1.89-1-2.31-.68-1.24-.5-1.44.55-.1.75.08.28.17 1 .17a2 2 0 001.13-.2c.27-.15.68-.3.68.05a5.76 5.76 0 01-.41 1.19l1.18.81v-4.65z"/><path class="cls-1" d="M131.52 33.85s.61-.73 1.08-.73a10.94 10.94 0 017.07 2.26 8.52 8.52 0 013.39 6.41 21 21 0 01-1.06 6.63 31.88 31.88 0 00-1.63 7.27c-.08 2.13.05 4.92-.86 6.11a3.65 3.65 0 01-3.16 1.66 6.18 6.18 0 01-3.37-1l-.15-4.93c.6 0 .47-.19.6-.71.18-.7.43-2.08.53-2.51a1.55 1.55 0 01.43-.93 1 1 0 00.45-.55c.07-.25-.38-.23-.66-.18a9.92 9.92 0 01-1.56 0c-.45 0-.3-3.7-.3-3.7l3.2.05c.4 1.15.25 1.91.63 1.93s.3-.83.6-1.63a9.74 9.74 0 011.08-2.14c.28-.32.25-.93-.2-.9s-.91.48-1.43.48-1.16-.28-1.54-.28-.43.17-.1.6a4.14 4.14 0 011 2.54l-3.44-.15v-5.3l.5-.26a24.67 24.67 0 014 .18 14.7 14.7 0 014.75 1.38s.33-.35.07-1.25a16.23 16.23 0 00-5.5-1.54 32.67 32.67 0 00-3.35-.12l-.62-.1.62-.35a.94.94 0 00.41.05c.33 0 .93-.26.93-.76s-.71-.78-.71-1.51.16-.78 1-.78h2c.35 0 .53.33 1 .33s.83-.08.83-.73a.86.86 0 00-1-1c-.63 0-.45.43-1.11.43a13.27 13.27 0 00-2.21.13c-.42.1-.42 0-.45-.31s-.25-.83-.05-1a1.4 1.4 0 00.48-.93c0-.4-.46-.57-1.14-.57s-1.05-1.59-1.05-1.59zM30.61 41v2.87h1.33a.93.93 0 00.67-.21 1.35 1.35 0 00.28-.79h.2v2.46h-.2a1.37 1.37 0 00-.11-.62.76.76 0 00-.29-.3 1.15 1.15 0 00-.55-.1h-1.33v2.29a2.3 2.3 0 00.07.73.47.47 0 00.23.23 1 1 0 00.49.13h.26v.2h-3.12v-.2h.26a.76.76 0 00.65-.26 1.61 1.61 0 00.13-.83v-4.76a2.26 2.26 0 00-.07-.73.55.55 0 00-.22-.24 1 1 0 00-.49-.12h-.26v-.2H34l.07 1.6h-.18a2.21 2.21 0 00-.33-.75 1 1 0 00-.45-.34 2.3 2.3 0 00-.84-.11zm10.86-.61a3.28 3.28 0 012.46 1.07 3.74 3.74 0 011 2.69 3.83 3.83 0 01-1 2.76 3.5 3.5 0 01-5.06 0 3.83 3.83 0 01-1-2.76A3.67 3.67 0 0139 41.34a3.45 3.45 0 012.47-.95zm-.1.39a1.94 1.94 0 00-1.57.72 4.09 4.09 0 00-.74 2.64 4.33 4.33 0 00.77 2.75 1.88 1.88 0 001.55.73 2.15 2.15 0 001.7-.8 4 4 0 00.66-2.53 4.4 4.4 0 00-.74-2.78 2 2 0 00-1.63-.73zm6.85-.23h2L54.64 46v-4.18a1.47 1.47 0 00-.15-.85.79.79 0 00-.63-.22h-.25v-.2h2.54v.2h-.26a.72.72 0 00-.65.28 1.59 1.59 0 00-.12.79V48h-.2l-4.79-5.87v4.48a1.64 1.64 0 00.14.85.82.82 0 00.63.22h.26v.2h-2.54v-.2h.25a.74.74 0 00.66-.28 1.62 1.62 0 00.12-.79V41.5a3.72 3.72 0 00-.48-.49 1.81 1.81 0 00-.48-.22 1.89 1.89 0 00-.47 0zm11.25 7.29v-.2h.27a.73.73 0 00.65-.29 1.7 1.7 0 00.12-.8v-4.71a1.53 1.53 0 00-.15-.86.77.77 0 00-.62-.23h-.27v-.2h3a6.37 6.37 0 012.48.37 2.93 2.93 0 011.37 1.24 3.75 3.75 0 01.52 2 3.67 3.67 0 01-.92 2.54 4.07 4.07 0 01-3.16 1.14zm2.07-.53a5.57 5.57 0 001.14.15 2.74 2.74 0 002.07-.88 3.85 3.85 0 000-4.75 2.77 2.77 0 00-2.11-.83 4.72 4.72 0 00-1.1.15zM72.49 41v2.87h1.6a1.35 1.35 0 00.83-.18 1.25 1.25 0 00.32-.87h.19v2.54h-.19a2.37 2.37 0 00-.16-.69.67.67 0 00-.31-.29 1.68 1.68 0 00-.68-.11h-1.6v2.4a2.2 2.2 0 000 .59.35.35 0 00.15.17.94.94 0 00.41.06h1.23a3.25 3.25 0 00.9-.09 1.36 1.36 0 00.54-.33 4.28 4.28 0 00.68-1h.22L76 47.84h-5.58v-.2h.25a1 1 0 00.49-.12.49.49 0 00.23-.26 2.66 2.66 0 00.06-.71v-4.73a1.64 1.64 0 00-.13-.86.86.86 0 00-.65-.21h-.25v-.2H76l.08 1.6h-.18a2.69 2.69 0 00-.25-.79.8.8 0 00-.41-.33 2.49 2.49 0 00-.75-.08zM75 38l-1.58 1.85h-.18l.59-1.85zm113.66 3v2.87h1.6a1.33 1.33 0 00.83-.18 1.21 1.21 0 00.32-.87h.19v2.54h-.19a2.93 2.93 0 00-.15-.69.7.7 0 00-.32-.29 1.68 1.68 0 00-.68-.11h-1.6v2.4a2.2 2.2 0 000 .59.35.35 0 00.15.17.94.94 0 00.41.06h1.23a3.21 3.21 0 00.9-.09 1.3 1.3 0 00.54-.33 4.28 4.28 0 00.68-1h.22l-.63 1.83h-5.61v-.2h.25a1 1 0 00.49-.12.45.45 0 00.23-.26 2.53 2.53 0 00.07-.71v-4.79a1.61 1.61 0 00-.14-.86.86.86 0 00-.65-.21h-.25v-.2h5.61l.08 1.6h-.21a2.42 2.42 0 00-.25-.79.78.78 0 00-.4-.33 2.62 2.62 0 00-.76-.08zm5.92-.45h2L201 46v-4.18a1.47 1.47 0 00-.15-.85.79.79 0 00-.63-.22H200v-.2h2.54v.2h-.26a.74.74 0 00-.66.28 1.77 1.77 0 00-.11.79V48h-.2l-4.79-5.87v4.48a1.54 1.54 0 00.14.85.82.82 0 00.63.22h.26v.2H195v-.2h.25a.74.74 0 00.66-.28 1.62 1.62 0 00.12-.79V41.5a3.72 3.72 0 00-.48-.49 1.81 1.81 0 00-.48-.22 1.93 1.93 0 00-.48 0zm15.42.72l1.77-.87h.23v6.16a3.5 3.5 0 000 .76.37.37 0 00.21.23 1.58 1.58 0 00.66.09v.2h-2.74v-.2a1.87 1.87 0 00.67-.08.53.53 0 00.21-.21 2.88 2.88 0 00.06-.79v-3.94a5.18 5.18 0 00-.06-1 .36.36 0 00-.14-.25.31.31 0 00-.23-.08 1.42 1.42 0 00-.56.16zm8 2.9a4.75 4.75 0 01-1.13-1.17 1.72 1.72 0 01-.25-.89 1.62 1.62 0 01.55-1.23 2 2 0 011.45-.51 2.08 2.08 0 011.43.48 1.45 1.45 0 01.53 1.09 1.47 1.47 0 01-.29.84 4.22 4.22 0 01-1.21 1 6.62 6.62 0 011.26 1.22 1.93 1.93 0 01.41 1.16 1.73 1.73 0 01-.59 1.31 2.18 2.18 0 01-1.54.54 2 2 0 01-1.62-.65 1.64 1.64 0 01-.46-1.13 1.72 1.72 0 01.32-1 4.51 4.51 0 011.14-1.06zm.25.2a2.66 2.66 0 00-.67.82 2.24 2.24 0 00-.21 1 1.56 1.56 0 00.38 1.11 1.23 1.23 0 001 .41 1.28 1.28 0 00.93-.32 1.08 1.08 0 00.35-.8 1.27 1.27 0 00-.2-.69 8 8 0 00-1.59-1.53zm.59-.77a4.13 4.13 0 00.82-.92 1.7 1.7 0 00.17-.76 1.23 1.23 0 00-.32-.89 1.18 1.18 0 00-.87-.32 1.28 1.28 0 00-.89.32 1 1 0 00-.34.74 1.14 1.14 0 00.14.56 1.85 1.85 0 00.41.53zm4.74-1.66a3 3 0 01.79-1.14 1.79 1.79 0 011.18-.4 1.62 1.62 0 011.34.57 1.38 1.38 0 01.36.91 2.27 2.27 0 01-1 1.64 2.24 2.24 0 011 .75 2 2 0 01.34 1.15 2.42 2.42 0 01-.6 1.64 2.86 2.86 0 01-2.27.9 2 2 0 01-1-.18.5.5 0 01-.26-.39.35.35 0 01.13-.28.4.4 0 01.3-.11.84.84 0 01.27 0 4 4 0 01.42.19 3 3 0 00.44.21 1.42 1.42 0 00.42.06 1.3 1.3 0 001-.43 1.4 1.4 0 00.4-1 1.9 1.9 0 00-.19-.83 1.35 1.35 0 00-.3-.45 2.35 2.35 0 00-1.45-.57h-.17v-.16a2.32 2.32 0 00.85-.31 1.71 1.71 0 00.62-.6 1.73 1.73 0 00.19-.78 1.18 1.18 0 00-.35-.89 1.17 1.17 0 00-.86-.34 1.6 1.6 0 00-1.39.89zm8.71 2.23a4.75 4.75 0 01-1.12-1.17 1.72 1.72 0 01-.25-.89 1.65 1.65 0 01.54-1.23 2.36 2.36 0 012.89 0 1.45 1.45 0 01.53 1.09 1.47 1.47 0 01-.29.84 4.22 4.22 0 01-1.21 1 6.62 6.62 0 011.26 1.19 1.93 1.93 0 01.41 1.16 1.73 1.73 0 01-.59 1.31 2.18 2.18 0 01-1.54.54 2 2 0 01-1.62-.65 1.64 1.64 0 01-.46-1.13 1.72 1.72 0 01.32-1 4.51 4.51 0 011.13-1.06zm.25.2a2.66 2.66 0 00-.67.82 2.24 2.24 0 00-.21 1 1.56 1.56 0 00.38 1.11 1.23 1.23 0 001 .41 1.3 1.3 0 00.93-.32 1.08 1.08 0 00.35-.8 1.27 1.27 0 00-.2-.69 8.28 8.28 0 00-1.58-1.53zm.59-.77a4.13 4.13 0 00.82-.92 1.7 1.7 0 00.17-.76 1.23 1.23 0 00-.32-.89 1.18 1.18 0 00-.87-.32 1.28 1.28 0 00-.93.29 1 1 0 00-.34.74 1.14 1.14 0 00.14.56 1.69 1.69 0 00.41.53zM79.31 222.57h-4.37l-.76 1.78a2.71 2.71 0 00-.28 1 .57.57 0 00.24.45 2.18 2.18 0 001.06.26v.31h-3.55V226a2 2 0 00.91-.33 5.12 5.12 0 00.94-1.62l4-9.26h.31l3.92 9.37a4.24 4.24 0 00.86 1.46 1.81 1.81 0 001.08.38v.31h-4.49V226a1.74 1.74 0 00.91-.23.58.58 0 00.23-.46 3.43 3.43 0 00-.33-1.15zm-.25-.61l-1.9-4.55-2 4.55zm13.85-6.89h3.93v.32h-.22a1.67 1.67 0 00-.63.19 2.31 2.31 0 00-.75.54 7.21 7.21 0 00-.84 1.17l-2.72 4.25v2.85a2.16 2.16 0 00.24 1.29 1.3 1.3 0 001 .35h.37v.31h-4.81V226h.4a1.15 1.15 0 001-.44 2.35 2.35 0 00.19-1.2v-2.65L87 217a11.16 11.16 0 00-.74-1 2.82 2.82 0 00-.81-.49 1.07 1.07 0 00-.48-.08v-.32h4.8v.32h-.25a1.48 1.48 0 00-.72.18.58.58 0 00-.33.54 2.61 2.61 0 00.51 1.08l2.34 3.63 2.22-3.47a2.56 2.56 0 00.49-1.16.76.76 0 00-.12-.42.79.79 0 00-.34-.28 1.65 1.65 0 00-.67-.1zm5.51 6.83h4.3v1.25h-4.3zm17.81-6.22v4.44h2a1.44 1.44 0 001-.31 2.12 2.12 0 00.44-1.24h.31v3.82h-.31a2.48 2.48 0 00-.17-1 1.11 1.11 0 00-.45-.46 1.9 1.9 0 00-.85-.15h-2v3.53a3.77 3.77 0 00.11 1.13.73.73 0 00.34.36 1.6 1.6 0 00.76.2h.4v.31H113V226h.4a1.21 1.21 0 001-.41 2.59 2.59 0 00.2-1.28v-7.27a3.77 3.77 0 00-.11-1.13.78.78 0 00-.34-.36 1.56 1.56 0 00-.76-.19H113v-.32h8.37l.11 2.47h-.29a3.64 3.64 0 00-.51-1.16 1.66 1.66 0 00-.7-.53 3.76 3.76 0 00-1.3-.17zm20.02 10.66h-3l-3.81-5.27h-1.18v3.27a2.34 2.34 0 00.23 1.32 1.18 1.18 0 00.94.37h.44v.31h-4.81V226h.42a1.12 1.12 0 001-.47 2.55 2.55 0 00.18-1.22v-7.27a2.34 2.34 0 00-.23-1.32 1.24 1.24 0 00-1-.36h-.42v-.32h4.1a10 10 0 012.64.26 3.09 3.09 0 011.45 1 2.54 2.54 0 01.59 1.67 2.64 2.64 0 01-.68 1.81 3.81 3.81 0 01-2.1 1.08l2.33 3.22a6 6 0 001.37 1.48 3.59 3.59 0 001.5.47zm-8-5.78h.46a3.62 3.62 0 002.4-.7 2.27 2.27 0 00.81-1.79 2.37 2.37 0 00-.65-1.72 2.33 2.33 0 00-1.73-.66 7.49 7.49 0 00-1.29.15zm18.18 2.01h-4.37l-.76 1.78a2.78 2.78 0 00-.29 1 .58.58 0 00.25.45 2.11 2.11 0 001.06.26v.31h-3.56V226a2 2 0 00.91-.33 4.76 4.76 0 00.94-1.62l4-9.26h.3l3.93 9.37a4.27 4.27 0 00.85 1.46 1.81 1.81 0 001.08.38v.31h-4.44V226a1.71 1.71 0 00.91-.23.55.55 0 00.23-.46 3.43 3.43 0 00-.33-1.15zm-.26-.61l-1.9-4.55-2 4.55zm7.08-6.89h3l6.89 8.45V217a2.2 2.2 0 00-.23-1.3 1.25 1.25 0 00-1-.34h-.39v-.32h3.95v.32h-.4a1.18 1.18 0 00-1 .43 2.52 2.52 0 00-.18 1.21v9.49h-.3l-7.42-9.07v6.94a2.26 2.26 0 00.23 1.29 1.27 1.27 0 001 .35h.4v.31h-3.95V226h.39a1.16 1.16 0 001-.44 2.35 2.35 0 00.19-1.2v-7.83a4.8 4.8 0 00-.75-.76 2.72 2.72 0 00-.74-.34 2.65 2.65 0 00-.73-.07zm25.29-.25l.25 3.83h-.25a4.86 4.86 0 00-1.46-2.48 3.6 3.6 0 00-2.29-.75 3.57 3.57 0 00-3.45 2.38 8.17 8.17 0 00-.52 3.09 6.7 6.7 0 00.49 2.65 3.71 3.71 0 001.47 1.72 4.21 4.21 0 002.24.59 3.91 3.91 0 001.93-.46 6.57 6.57 0 001.84-1.86l.25.17a5.82 5.82 0 01-2 2.19 4.93 4.93 0 01-2.68.7 5.07 5.07 0 01-4.33-2.08 5.93 5.93 0 01-1.14-3.63 6.48 6.48 0 01.75-3.09 5.49 5.49 0 012.08-2.19 5.57 5.57 0 012.89-.78 5.26 5.26 0 012.4.6 1.28 1.28 0 00.49.18.56.56 0 00.39-.15 1.25 1.25 0 00.31-.63zm7.19.86v4.46h2.48a2 2 0 001.29-.3 1.83 1.83 0 00.48-1.34h.31v3.92H190a4.71 4.71 0 00-.23-1 1 1 0 00-.49-.46 2.56 2.56 0 00-1-.16h-2.48v3.71a3.24 3.24 0 00.07.92.5.5 0 00.23.25 1.31 1.31 0 00.63.1h1.92a5.67 5.67 0 001.39-.13 2.19 2.19 0 00.83-.53 6.33 6.33 0 001-1.56h.33l-1 2.83h-8.68V226h.39a1.57 1.57 0 00.76-.2.65.65 0 00.36-.4 4 4 0 00.1-1.09V217a2.47 2.47 0 00-.22-1.32 1.33 1.33 0 00-1-.32h-.39v-.32h8.7l.11 2.47H191a3.74 3.74 0 00-.39-1.22 1.26 1.26 0 00-.62-.51 3.61 3.61 0 00-1.18-.13z"/></g></svg>