<svg xmlns="http://www.w3.org/2000/svg" viewBox="0 0 360.64 356.18"><defs><style>.cls-12{fill:none}.cls-12,.cls-3,.cls-4,.cls-6,.cls-7{stroke:#1d1d1b}.cls-2,.cls-3,.cls-4,.cls-6,.cls-7{fill:#1d1d1b}.cls-3,.cls-4,.cls-6{stroke-width:.3px}.cls-7{stroke-width:.28px}.cls-12{stroke-width:.32px}</style></defs><g id="Laag_1" data-name="Laag 1"><circle cx="179.08" cy="180.06" r="103.1" transform="rotate(-82.19 179.076 180.052)" stroke-width="4" stroke="#1d1d1b" fill="none"/><path class="cls-2" d="M289.55 69.22c-.68 1.14-2 1.66-3.13 2.25l-6.8 1.91c-3.72.14-7.32-.51-11.08.23-.85.37-1.78 1-1.89 1.94v.69c-1 2.06-2.25 4.44-4.41 5.52a11.12 11.12 0 01-6.65.32c-4.43-.09-6.57 4.43-10.23 6.24-2.53 1.42-5.25 2.75-8.3 2.73-.69 0-1.57 0-2-.4-.47.24-.83-.42-1.31-.37.76-2.43 1.11-5 2.58-7.22.92-.57 1.63.64 2.51.66 3.79 1.61 7.63-.41 10.27-2.72 2.13-2.45 5.61-2 8.56-2a5.61 5.61 0 005.6-3.17c.34-.53 0-1 .35-1.51 1.81-2.82 5.58-3.46 8.66-3.06a20.74 20.74 0 0011-.22 21.92 21.92 0 005.39-2.27c.33.01.57.28.88.45zM233.3 83.64c-1 3.73-2.46 7.39-3.5 11-1 3.43-2.32 6.79-3.38 10.23l-2.51-.65c.9-2.93 2.42-5.63 3.44-8.47a28.52 28.52 0 002.23-5.61c1-2.25 1.24-4.73 2.1-7.07.63-.62 1.63-.42 1.62.57zm-45.73 10.2c11.58 4 23.39 7.47 35.11 11 .87 2-.91 3.92-1.32 5.92-1.36 3.37-2.44 6.61-3.6 10l-.69 2.13c-1.29 4.15-3.5 7.89-4.59 12-9.33-1-19.33-1.85-28.93.61-.6-.15-1.25.31-1.68-.14.41-.83 1.49-.83 2.12-1.48a28.41 28.41 0 0012.43-15.49 30.54 30.54 0 001.44-12.12 11.52 11.52 0 00-4.64-8.71c-2.08-1.28-4.56-1.54-6.72-2.52-.64-.65.24-1.71 1.07-1.2z"/><path class="cls-2" d="M193.17 119.36a.9.9 0 01.11 1.17c-2.5 5-6.65 9.94-11.41 12.74l-2.67 1.92a85.52 85.52 0 01-8.77-1.36c-.47-.84.86-1.35 1.09-2.06a17.16 17.16 0 002.3-10.23 16.94 16.94 0 00-3.57-7.83c-1.05-.69-2.17-1.08-3.2-1.67.06-.4.22-.81.8-.86 8.23 2.88 16.6 6.33 25.32 8.18zM234 107.94c4.42 1.07 8.79 2.63 13.2 3.6l4.14 1.19c.32.26.17.77-.1 1.09l-.37.23c-2.2-.49-4.43-1.16-6.56-1.85-.64.45 0 1.67-.2 2.08a13.59 13.59 0 00.95 3.84c2.3 6.86.07 13.55-2.84 19.32-2.76 3.11-5.31 7.47-9.51 7.66-.74-.52-.12-1.27-.38-1.93-1-3.15-4.39-5-7.39-5.61l-9.12-1.91c2.29-8.27 5.66-16.44 8.14-24.72.53-1.72 1.36-3.37 1.9-5a58.22 58.22 0 018.14 2.01zm-3.48 8.37l-.07.31zm-16.38 8.88l-.17.31zm-47.39 9.18c3.07.31 6 1.51 9.1 1.82 11.28 1.9 22.81 3.3 33.92 5.52.24.46-.13.79-.28 1.3-2.36 5.32-3.51 10.93-5.76 16.35-.56 2.51-1.92 4.79-2.76 7.32l-.87.18c-4.11-.8-8.38-1.39-12.42-2.49-.79-.12-.61.84-.86 1.26 3.56 1.34 5.57 5 5.91 8.69.48 7.42-2 15.13-8.85 19.09-1.4.82-2.81-.62-4.26-.39-8.31-1.69-16.39-4-25.34-3.07-3.1.48-6.46.3-9.58.58l-6.3-1.28.27-.22c5.14.31 8.88-2.79 12.91-4.93 8.55-6.38 15.52-16 17.44-26.06 1.08-5.41 2.33-11 .83-16.69l-1.49-4.35c-3.47-1.45-7.34-1.78-10.91-3.22a2.38 2.38 0 01.37-1.41c3.07.28 5.93 1.49 8.93 2z"/><path class="cls-2" d="M167.12 138.46c1.76 4.16 1 9 .85 13.48-.14.6-.85.38-1.07.1-5.72-2.42-11.77-4-17.47-6.15-.21-.18 0-.6.25-.52a13.52 13.52 0 004.56.47 18 18 0 009.35-4.1 11.59 11.59 0 003.23-3.35zm-25.86 6.12c6.55 1.85 12.76 5.21 19.32 7.16 2.34.77 4.41 1.95 6.82 2.51l.13.39c-1.35 5.62-2.6 11.24-5.88 16.16-4.48 5.72-9.79 11-15.77 14.32a58 58 0 01-10.8 3.35l-3.79-.63c5-3.21 7.83-8.88 10.43-13.73 1.9-5 4.1-9.91 3.46-15.75-.2-4.3-.85-8.17-2.73-11.53-1.92-1.6-4.27-1.48-6.32-2.47a1.22 1.22 0 01-.3-1.15l.36-.33a30.21 30.21 0 015.07 1.7zM249 148.31c.42.26 1.1.1.87.81-.17.31 0 .78-.42.82l-8.53-.88c-.53.64.67.82.43 1.43a24.48 24.48 0 012.45 6.36c1.58 7.52 3.53 14.9 3.47 22.77.22 6.66-.76 13-4.18 18.66a9.46 9.46 0 01-3.11 4.6c-.44.54-.66 1.34-1.33 1.6l-2 2.54c-1.78 1-3 2.74-4.45 3.95 1.11.29 2.4.47 3.52.86a1.07 1.07 0 01-.1 1.09 51.68 51.68 0 01-8.65-1.17c-3.47-.27-6.71-1.35-10-2l.81-1.84c6.23.41 11.11-3.09 14.37-8.2 2.27-5.32 4-11.37 2.52-17.43-.42-2.41-.54-4.86-2-6.69.3.07.38-.13.46-.34l4.08.51.37-1.31c-3.35-1.17-7.11-1.41-10.62-2.17l-7.33-1.78c1.57-4.27 3.36-8.36 4.62-12.7a1.67 1.67 0 00-1.8-.43c-1.82 3.81-3.32 7.68-5 11.57l-.3 1c-4.29-.69-8.68-1.46-13-2.15l-.35-.65c3.08-8.15 6.16-16.29 9-24.41l.38-.24c11.82 2.33 23.82 4.38 35.82 5.82zm-23.24-1.49l.3.07z"/><path class="cls-2" d="M202.94 169.94c3.5.66 7.37 1.19 10.77 1.76l2.29.3c-3.43 9.65-7.38 19.05-11.21 28.65a78.11 78.11 0 00-23.53-1.57 1.48 1.48 0 01-1.32-.47c.68-1.15 2.14-1.28 3.14-2.16 4-2.72 8.56-6.29 10.27-11.16a22.59 22.59 0 000-16.5c-.32-.27-.67-.83-.1-1.08 3.02 1.29 6.54 1.15 9.69 2.23zm2.82-2.42h.19zm7.97 1.23l.12.19zm-74.16 7.62l-.26.42zm89.63-1.87c1.5.35 1.58 2.31 2.19 3.53 1.91 4.84 1.77 10.65.74 15.56a17.88 17.88 0 01-7.91 11.14c-1.5.82-4 1.54-5.32 1 3.79-6.93 5.75-14.38 7-22.16.37-1.31 2.87-1.94 1.92-3.71l-.73-.43c-4.49 3.46-8.87 7.1-13.85 9.63-.28.12-.4-.16-.42-.36.85-2.43 1.7-5 2.65-7.41 1.12-2.86 2.22-5.81 3.43-8.67 3.4.65 6.73 1.52 10.3 1.88zm-87.99 16.55c4.72 1 9.17 2.4 13.88 3.44 6.61 1.35 13.14 2.92 19.67 4.48 3.71.83 7.53 1.76 11.42 2.38.51.25 1.62.54 1.12 1.47-1.12 2.76-1.22 6-3.68 8.1-5.3 4.32-10.66 9-15.63 13.82-1.92 1.46-3.51 3.47-5.54 4.83l.48-.14c-3.67 2.89-7.23 5.87-10.76 9.15a.64.64 0 01-.73-.52c3.15-7.37 6.51-14.65 10.27-21.78 1.46-2.39 2-5.1 3.24-7.57.37-.23.71-.75 1.14-.4 1 1.68.27 4 .45 6 .19 3.12-.22 6.11.16 9.22l1.42-1.61c0-3.73-.09-7.36-.13-11.09.08-2.36-.26-4.89-.08-7.26a45.21 45.21 0 01-5.41 4.23c-7.34 5.59-14.06 12.69-21.49 18.39-3.81 3.49-8 6.33-11.65 10-2 1.76-4 3.9-6.32 5.1a5.28 5.28 0 01-1.11-1.47c3-5.18 3.19-11.2 2-17.48a26.7 26.7 0 00-7.78-13 15.06 15.06 0 00-12.1-2.32l-2.31.51a15.19 15.19 0 01-1.34-2.82c0-.5.63-.55 1-.69 7.72-.51 15-1.87 22.77-2.39 10.51-1.16 21.42-2.17 32.07-3.84.18-.21.27-.32.14-.6-3.12-.89-6.49-1.17-9.55-2.36-9.23-2.1-18.33-4.9-27.64-6.79-.51-.25-1.13-.59-1.1-1.27a1 1 0 01.4-.92c7.57 1.78 15.09 3.35 22.72 5.2zm135.89-18.11l-.21-.08.19-.02.02.1zm-43.6 4.51l.09-.01.03.29-.1.01-.02-.29z"/><path class="cls-2" d="M131.37 191.86c2.32.67 4.73 1.24 7.06 2 1.59.25 3.12.8 4.7.95a.47.47 0 01.23.37c-1.47 1-3.86.75-5.62.81a60.17 60.17 0 00-18.6 2.89c-3.17.79-6 2.32-9 3.19-.49 0-1 0-1.22-.48-.21-1.15 1.26-1.29 2-1.75 4.86-2.71 10.07-4.76 14.59-8 1-.4 2.11-1.58 3.18-.69zm92.54-7.54c-.21 4.15-1.53 8-2.84 11.86-2 5.19-4.34 10.51-8.16 14.9-2.45 3.27-5.13 6.07-7.37 9.52-1.72 1.63-2.42 3.66-4 5.48 2.15-.11 3.77-.75 6.06-.37a10.81 10.81 0 018 7.62 25.46 25.46 0 01.4 6.67l-.09.11c-1-.49-.66-1.8-1.39-2.33-.38-1.93-2-3.06-3.26-4.41-3.06-1.2-6-2.3-9.58-1.68a67.07 67.07 0 00-6.66 1.4c.77-1.25.83-2.73 1.81-3.9 2.52-6.71 5.65-13.29 7.86-20.17 2.26-4.34 3.3-9.05 5.56-13.29.45-1.51 1.08-3.24 2.71-3.69 3.68-2.69 7.3-5 10.78-7.67zm-17.85 6.75l-.09.11zm25.94-1.7l-.07.3zm-29.15 15.95c-2.77 8.31-6 16.47-9.42 24.64-.47.24 0 1.28-.78 1.06-.81-2.29-1.43-4.78-2.14-7.17a103.65 103.65 0 01-3.1-12.29c.7-3.12 2.19-6.1 3.19-9.14 4.13 1.09 8.15 2.1 12.25 2.9zm-43.06 10.35c-3.29 6.89-7.31 13.45-10.81 20.25l-2.46 4.16a84.49 84.49 0 00-14 1.49 48.12 48.12 0 00-5.38 1.38c-.5-.06-1.2-.19-1.44-.75l.06-.4c4.65-3.87 9.22-7.63 13.75-11.78 7.59-6.1 14.73-12.85 21.8-19.3l.55.64zm26.56-.77c1.15 6.08 2.3 12.16 2.87 18.4a13.92 13.92 0 00-1.68 1l-.77.07c-2.51 1.6-5.38 2.36-7.55 4.43-.87.17-1.36 1.3-2.46 1.11 3-7.15 5.85-14.39 8.22-21.69a15.67 15.67 0 011.05-3.63zm-3.8.44c-.26 1.41-1.14 2.47-1.2 3.95-2 5.78-4.56 11.32-6.38 17.19-1 2-1.16 5.51-3.9 5.66-.71-.23-1.57.05-2-.5-.29-4.2.33-8.18-.25-12.35-.61.84-2.4 1.69-2.27 3.15a43.07 43.07 0 01-.75 8.91 41.34 41.34 0 00-10.13-1.23c-.13-.28-.82-.32-.57-.83 2.86-2 4.94-5 7.93-6.72 1.72-1.63 3.54-3.17 5.26-4.71 2.23-2.47 5-4.49 7.22-7 2.19-1.88 4.18-4.81 6.83-5.84z"/><path class="cls-2" d="M227.57 217.68c4.58-1.5 11-5.43 15.69-1.34 1.46.84 2.92 1.79 4.76 1.52 1.07-.19 2-1.27 3-1 .17.77-.68 1.15-1.14 1.48-3.68 1.72-7.54.3-11-.56-4.52-.07-7.49 3-11.16 4.66a21.21 21.21 0 01-8.57.79c-2.88-.32-5.64-1.44-8.67-1.26-1 .09-2.41.51-3.24 0 .35-1.5 2-1.95 2.85-3.21 1.49-1.9 3.06-4.11 4.67-5.83 1.53-.44 2.94 1 4.19 1.77 2.37 2.3 5.24 3.59 8.62 2.98zm-65.04 9.63l-.36.33zm25.2-.56l-.12-.28.11.19.01.09zM117 233.86a14.21 14.21 0 004.15 4.53 2.43 2.43 0 01-.84 1.55 45.28 45.28 0 0018.14 9.14 35.61 35.61 0 004.93.23c.45.65.11 1.17 0 1.77-.61.94-1.67.06-2.52.43-4.52-1-9.23-2.09-13.38-4.46a4.91 4.91 0 00-2.24 4.43c-.21 2 1.15 2.94 1.87 4.35 1.86 3.16 5.61 3.31 8.63 4.12a21 21 0 007.45-.2c2.39-.71 4.62 0 6.88.05 4.31.88 8.55 2.06 12.94 2.84a19 19 0 004.66-.63l.3.08a35.48 35.48 0 007.53-4.63l.21.08c2.75-2 6.32-2.84 9.44-4.11l8.15-1.43c4.09-.37 8.53-.19 12.2 1.34.67.82 2.34.86 2.07 2.16-.88 2.15-2.51 3.67-4 5.38l-2.38 2a12.65 12.65 0 00-7.43 2.45 10.93 10.93 0 01-6.36.3c-1.46-1-2.74-3.09-4.9-2-1.25.31-2.56 1-3.9.36-2-.41.53-3.88-2.2-2.55-4.65 2.79-9.75 7.19-15.68 4.69-3.38-.48-5.66-3.9-9.13-4.17a21.67 21.67 0 00-11.35 1.53c-2.51.53-4.43-.08-6.63-.46-4.66-.46-7.57-4.32-11.58-6.31a7 7 0 01-2.6-.44 21.14 21.14 0 00-7.76 1c-.9 1-2.43 1.41-2.68 2.9-.28.23-.86.28-1-.1-.77-1 .34-1.7.56-2.51 1.37-1.11 2.53-2.39 4.37-2.66a8.88 8.88 0 012.8-.55c-.81-2.38-1.5-5.66.77-7.64 1-.78 1.47-2.2 2.7-2.7l-1.37-2c-1.38-1.15-4-1.89-3.92-4.16-.3-1.15.91-1.85 1.22-2.76.54-.43 1.01-1.75 1.88-1.24zm31.18-.22l-.08.2z"/><path class="cls-2" d="M202.51 234.63c.42.35.67-.16 1.07-.1a13.71 13.71 0 018.72 4c1.45 2.91 5 5 3.76 8.79-1.46 2.3-5.13 1.95-6.26 4.61a.68.68 0 01-.61.84c-.86.28-1.07-.88-.93-1.58a5.42 5.42 0 014.35-3.94c.71.23.55-.45 1-.78a15.49 15.49 0 00-5.47-6.08 21.06 21.06 0 00-10.09-1.82c-.31-.17-.92-.31-1.18 0-2.18-.2-4.17.58-6.32.77-3 .57-5.44 1.69-8.22 2.43-2.31.51-3.79 2.61-6 3.31-1.42 1.6-3.63 2.1-5.18 3.42-2.58.83-4.77 2.6-7.61 2.76A38.87 38.87 0 01151 253c-.63-.43-1.58-.14-1.85-.91s.5-.93.34-1.6c.37-1.41.94-2.64 1.21-3.94 1-.39 2.18.19 3.36.18 3.07.31 6.14-.57 9.14-1 2.35-.12 4.29-1.38 6.17-2.33.72.42 2.7-.55 2.45 1-1.65 1.33-3.69 1.62-5.58 2.38a40.85 40.85 0 01-12.91 2.22c-.43-.35-.69 0-1.18 0l-.71 1.93a36.67 36.67 0 0015.85-2.93c3.53-1.11 6.2-3.12 9.14-5.26.69-.06.82-.67 1.38-1a90.54 90.54 0 0112.89-5.22c3.39-1.52 7.79-1.81 11.81-1.89zm-29.21 2.89l.11.08zm-20.54 5.32h.39zM138 246.28c2.43.75 5.54.47 8.16 0 .34.46.55-.45.88 0-.23 1.79-1.06 3.44-1.08 5.31-.35.43-.89 0-1.37 0-.81-1.3.23-2.77.12-4a19.83 19.83 0 01-10.71-1.54.58.58 0 01.11-.9c1.38.07 2.55.95 3.89 1.13z"/><path class="cls-2" d="M198 241.33c1 2.66-.51 5.16-1.07 7.66a9.06 9.06 0 00-3.36-.27 51.33 51.33 0 01-1.3-6.67l.14-.6a52.54 52.54 0 015.59-.12zm-8.71 1.3l1.37 6.35a6.27 6.27 0 01-3.21 1.38c-1-1.67-2-3.45-3.22-5.11v-1.18c1.45-.23 2.62-1.41 4.14-1.95a1.28 1.28 0 01.92.51zm13.51-.56c1.87 0 3.06 1.29 4.77 1.72l.33.37c-1.21 1.77-1.57 4.27-3.48 5.91-1.62-.53-2.85-1.11-4.41-1l-.17-.77a34.57 34.57 0 012-6.47c.26.11.61.66.96.24zm-21.6 4.44A19.45 19.45 0 01183 251c-3.18 1.77-6.72 2.78-9.67 4.92a48.23 48.23 0 01-6 2.22c-1-.5-1.43-1.74-2.19-2.55-.26-1.75 1.76-1.15 2.68-1.72a58.85 58.85 0 007.8-4c1.77-1 3.41-2.38 5.08-3.51zm-33.87 7.74l.22 3.42c-1.35.32-3-.22-4.35-.28L143 254c.7-1 1.59.14 2.38.17s1.19.35 1.95.08zm6.78 1.05c-.15.5.44.55.48.94a7.36 7.36 0 01.33 2.52 7.69 7.69 0 01-4.55-.27 7.22 7.22 0 00-.46-2.9l.15-.51c1.36-.08 2.71.64 4.05.22zm6.89.44c.19 1.06 1.16 2 .78 3.17-1.45.23-2.67-.15-4 .37-.59-1-.51-2.31-1.19-3.23l.05-.6c1.35-.22 2.56-.92 4-.56zm62.54 5.64c1.49 1.24 3.09 2.66 5 2.79 2.36 1.06 4.27-.6 6.27-1.27.16-.41.63-.65.95-.38.57.83-.65 1.53-1.07 2.26a16.79 16.79 0 01-6.48 2.17 17.5 17.5 0 01-4.42-1.07c-.67.16-1.52-.45-2-.7-1.65-1.91-4.44-2.34-6.77-2-2 0-3.34 1.1-5.18 1.36-2.53 1.32-5.22 3-8.32 2.44a2.71 2.71 0 01-2.06-1c-.15-.57.53-.64.58-1.13 1.76-.17 3.8.73 5.37-.4 3.35-.9 5.31-4.22 8.56-5.21 2.37-.9 5.08-1.35 7.25-.17.78.49 2.03 1.26 2.32 2.31z"/><path class="cls-3" d="M70.46 127.65c1.66-2.61 1.14-4.22-2.35-6.42L44.07 106c-3.49-2.21-5.16-2-6.81.62l-1.65-1 13.86-21.93 10.78 3.61-.07 1.54c-5.88-.31-12 1.13-14.58 5.28-2 3.23-.55 4.18 3.14 6.51l9.72 6.15.46-.73c2.3-3.63 2.47-5.77-1.79-10.19l.9-1.41 14.41 9.11-.9 1.42c-5.65-2.2-8-1.08-10.23 2.48l-.5.8 10.52 6.66c2.89 1.83 5 2.84 6.61.26 2.85-4.51 1.91-10.75-.84-16.45l1.32-.54 7.58 8.59-13.89 21.91zm17.05-25.94c2.23-2.14 2.12-3.82-.74-6.81L67.14 74.33c-2.85-3-4.53-3.18-6.77-1L59 71.88l11.16-10.63 1.35 1.4c-2.24 2.14-2.12 3.82.73 6.81L91.88 90c2.44 2.56 3.53 3.64 5.83 1.44 3.83-3.65 3.76-10.19 2.5-16.25l1.18-.31 6.18 10.33-18.72 17.9zM121.25 74c3-1.12 3.57-2.72 2-6.57L112.55 41c-1.56-3.85-3.09-4.67-6.11-3.56l-.73-1.81 14.56-5.41A16.49 16.49 0 01128 29c6.53.8 13.11 5.89 17 15.63 3.63 9 2.28 17.18-1.74 21.65a16 16 0 01-6.74 4.15L122 75.85zm8.64-9.72c1.66 4.12 2.15 5.33 5.84 4 5.23-1.94 7.56-7.23 1.44-22.36-5.47-13.54-10.76-15.56-16.45-13.45-3.22 1.2-2.55 2.85-1.15 6.32zM152 42.51c-1-12.53 4.42-23.49 14.62-24.19s17.41 8 18.43 21c.92 11.88-4.43 23.43-14.95 24.15-9.95.73-17.1-8.01-18.1-20.96zm7.92-1.07c1.15 14.76 4.83 20.13 9.77 19.79 8.33-.57 8-12.91 7.43-20.91C176 25.13 172 20.26 167.1 20.59c-5.26.41-8.27 6.6-7.16 20.85zM213 55.41c.73 4.26 1.41 8.14 4.95 9.24l-.4 1.91-10.39-2.19c-.4-1.65-.54-3.49-.79-5.23l-1-7.74c-1-8-2.47-9-4.24-9.33L198.44 55c-.85 4-.06 5.54 3 6.18l-.41 1.9-15.06-3.17.4-1.91c3 .64 4.35-.41 5.2-4.45l5.86-27.83c.85-4 .06-5.53-3-6.17l.4-1.9 18.1 3.8c6.23 1.32 9.08 6.74 7.8 12.86-1.34 6.35-6 8.49-10.31 8.68 1.05 1.49 1.29 3.65 1.61 5.71zm-10.47-15.88c6.95 1.46 9.71-1.22 11-7.34 1.22-5.83-.78-8.42-5.28-9.37-2.78-.58-3.21.83-3.9 4.12l-2.62 12.42zm46.1 32.09c-1 4.22-2 7.15 1.26 9l-.83 1.74-12.75-6.81.83-1.74c2.38 1.14 3.25.74 4-.84a16 16 0 001-3.28l1.66-6.92-9.26-4.94-2.39 2.89a21.28 21.28 0 00-2.84 4 4.16 4.16 0 001.41 5.65l-.83 1.73-9.64-5.1.83-1.73c4 .43 6-1.81 9.22-5.53l20.18-23.6 6.49.36zm.26-30.47l-12.41 14.59 8 4.25zm.89 42.56c2.34 2.09 4.05 1.86 6.9-1.18l19.64-21c2.85-3 2.94-4.73.6-6.82l1.35-1.44 11.29 10.13a15.21 15.21 0 014.44 6.11c2.11 6 .31 13.87-6.9 21.57-6.64 7.1-14.76 9.59-20.6 8.12a15.62 15.62 0 01-6.74-4l-11.29-10.1zm12.67 3.1c-3.06 3.26-3.95 4.22-1.1 6.78 4.06 3.62 9.93 3.28 21.13-8.69 10-10.71 9.58-16.15 5.17-20.1-2.5-2.23-3.73-.93-6.29 1.82zM21.69 186c.36 3.08 1.69 4 5.55 3.56l26.58-3.06c3.86-.44 5-1.65 4.59-4.72l1.82-.21 1.71 14.86a16 16 0 01-.65 7.44c-2.18 5.83-8.28 10.6-18 11.72-9 1-16.19-2.33-19.37-7.2a16.18 16.18 0 01-2.3-7.31l-1.71-14.87zm7 10.5c-4.14.47-5.35.61-4.92 4.37.61 5.34 4.93 8.87 20.09 7.13 13.57-1.56 16.58-5.94 15.91-11.75-.37-3.29-2-3.1-5.5-2.7z"/><path class="cls-4" d="M30 227.2c1.15 2.81 2.68 3.35 6.29 1.93l24.83-9.73c3.61-1.41 4.35-2.84 3.2-5.65l1.7-.67 9.62 23.59-8.64 6.24-1.12-.91c3.41-4.37 5.56-9.94 3.74-14.4-1.42-3.48-3-2.87-6.78-1.38l-10 3.94.32.78c1.59 3.91 3.17 5.29 8.92 4.58l.62 1.53-14.89 5.83-.63-1.52c4.78-3.1 5.15-5.56 3.58-9.39l-.35-.86-10.91 4.22c-3 1.17-4.9 2.19-3.77 5 2 4.85 7.36 7.78 13.29 9l-.29 1.34-10.73.78-9.63-23.59z"/><path d="M72.86 284.6c-2.82 2.29-3 3.75-1.13 5.88l-1.33 1.08L60.91 281l1.33-1.08c1.91 2.13 3.46 2.15 6.28-.14l21.1-17.16-.05-.06-24.74 9.91-.95-1.06 11.95-22.65v-.06L59.39 262c-6.44 5.23-7 6.16-5 9.09L53 272.16l-6.7-7.5 1.33-1.08c3 2.05 3.86 2.14 10.34-3.13l15.51-12.61c3-2.46 2.91-3.9 1.13-5.89l1.39-1.08 7.76 8.68-8.31 15.33 16.9-5.73 7.55 8.45-1.33 1.08c-2.11-2-3.22-2.35-6.28.13z" stroke-width=".28" fill="#1d1d1b" stroke="#1d1d1b"/><path class="cls-6" d="M137.82 322.7c-.28 4-.53 7.71 2.57 9.64l-.82 1.61-9.31-4.71c0-1.6.28-3.29.44-4.93l.86-7.23c.92-7.44-.28-8.72-1.87-9.53l-5.52 10.94c-1.73 3.42-1.32 5 1.39 6.35l-.81 1.61-13.51-6.83.82-1.62c2.71 1.38 4.2.78 5.92-2.64l11.89-23.54c1.72-3.42 1.32-5-1.39-6.34l.81-1.61 16.22 8.2c5.59 2.83 7.05 8.47 4.43 13.65-2.71 5.37-7.65 6.06-11.72 5.11.66 1.61.4 3.63.22 5.56zm-6.25-17.08c6.22 3.15 9.44 1.47 12.06-3.71 2.49-4.93 1.19-7.8-2.85-9.84-2.49-1.26-3.22-.1-4.63 2.69l-5.3 10.5z"/><path class="cls-7" d="M174.15 328.63c.29 4 .27 6.85 3.78 7.54l-.26 1.77-13.74-2.28.26-1.77c2.52.31 3.21-.29 3.45-1.89a14.17 14.17 0 000-3.19l-.48-6.56-10-1.65-1.36 3.23a19 19 0 00-1.45 4.37 3.8 3.8 0 002.94 4.55l-.26 1.77-10.41-1.73.26-1.77c3.84-.79 5-3.34 6.88-7.53l11.75-26.59 6.08-1.57zm-8.63-26.85l-7.2 16.43 8.58 1.42z"/><path d="M300.39 255.06c8.55 5 12.28 4.26 14.53.31 3-5.31-.27-9.35-7.21-13.27L291 232.69c-3.33-1.88-4.9-1.55-6.4 1.09l-1.57-.89 5.13-9 1.58.88c-1.51 2.64-1 4.15 2.35 6l17.07 9.63c8.28 4.67 11.07 9.92 7 17.06-4.15 7.3-10.5 8.51-17.87 4.35l-18.08-10.19c-3.33-1.88-4.89-1.55-6.4 1.09l-1.57-.89 7.47-13.12 1.57.89c-1.5 2.64-1 4.14 2.36 6z" stroke-width=".29" fill="#1d1d1b" stroke="#1d1d1b"/><path class="cls-4" d="M80.69 300.48c2.45 1.81 4 1.46 6.38-1.62l16.14-21.24c2.35-3.08 2.23-4.68-.21-6.49l1.1-1.45 20.5 15.13-4.12 9.82-1.49-.2c.64-5.52-.42-11.39-4.3-14.25-3-2.23-4-.91-6.51 2.35l-6.53 8.59.68.5c3.4 2.51 5.47 2.87 10-.73l1.32 1-9.65 12.72-1.33-1c2.46-5.13 1.5-7.42-1.83-9.88l-.75-.56-7.09 9.32c-1.94 2.56-3 4.43-.63 6.21 4.22 3.11 10.34 2.81 16 .76l.45 1.29-8.78 6.32-20.5-15.14z"/><path d="M208.76 323.49c2.13 3.54 4.08 6.76 7.72 6.51l.28 1.84-10.31 1.66a50.44 50.44 0 01-2.52-4.38l-3.53-6.56c-3.61-6.77-5.33-7.12-7.08-6.83l1.91 12.46c.59 3.9 1.83 4.95 4.84 4.47l.28 1.83-14.95 2.42-.29-1.83c3-.49 3.87-1.89 3.27-5.78l-4.12-26.82c-.6-3.89-1.83-5-4.84-4.46l-.28-1.84 18-2.91c6.18-1 10.67 2.84 11.57 8.74.94 6.12-2.66 9.67-6.52 11.32 1.47 1 2.44 2.8 3.43 4.52zm-15-10.51c6.89-1.11 8.52-4.46 7.61-10.35-.86-5.62-3.59-7.23-8.06-6.51-2.76.45-2.67 1.86-2.18 5l1.83 12z" stroke-width=".3" fill="#1d1d1b" stroke="#1d1d1b"/><path class="cls-7" d="M241.78 314.15c2.16 3.38 3.5 5.9 6.92 4.84l.61 1.68-13.17 4.54-.61-1.68c2.36-.93 2.68-1.79 2.13-3.31a14.31 14.31 0 00-1.53-2.8l-3.54-5.54-9.57 3.3.35 3.49a18.76 18.76 0 00.81 4.53 3.77 3.77 0 004.74 2.6l.62 1.68-10 3.44-.61-1.67c3-2.53 2.83-5.33 2.46-9.91l-2.33-29 4.6-4.28zm-20.38-19.49l1.5 17.87 8.22-2.83z"/><path class="cls-6" d="M290.16 278c3.71 1.59 7.11 3 9.95.73l1.26 1.29-7.51 7.27c-1.5-.53-3-1.35-4.5-2l-6.56-3.17c-6.73-3.3-8.34-2.59-9.61-1.35l8.53 8.79c2.67 2.75 4.26 2.88 6.45.76l1.26 1.3-10.88 10.48-1.25-1.3c2.18-2.12 2.11-3.71-.56-6.46l-18.36-18.93c-2.67-2.75-4.26-2.88-6.45-.76l-1.26-1.3 13.06-12.65c4.5-4.35 10.31-3.88 14.35.28 4.19 4.32 3.22 9.22 1 12.75 1.74-.09 3.56.81 5.33 1.61zm-18.18.32c5-4.85 4.47-8.44.43-12.61-3.84-4-7-3.67-10.23-.52-2 1.94-1.14 3 1 5.25l8.19 8.44z"/><path d="M328.05 195.2c3.73.76 5.07 0 5.55-2.82l1.75.35-2.35 14.05-1.76-.35c.48-2.83-.53-4-4.26-4.79L299 196v.08l24.41 13-.24 1.41-26.36 5v.07l21.69 4.36c8.52 1.71 9.65 1.57 10.72-1.83l1.76.35-1.69 9.93-1.76-.35c-.32-3.63-.8-4.34-9.38-6.06l-20.52-4.12c-4-.8-5.1.19-5.55 2.82l-1.75-.35 2-11.5 18-3.18-15.83-9.53 1.9-11.18 1.76.35c-.22 2.88.2 4 4.25 4.79z" stroke-width=".29" fill="#1d1d1b" stroke="#1d1d1b"/><path d="M358.9 178.09c0 97.39-79.95 176.35-178.58 176.35S1.74 275.48 1.74 178.09 81.69 1.74 180.32 1.74 358.9 80.69 358.9 178.09z" stroke-width="3.48" stroke="#1d1d1b" fill="none"/><path class="cls-3" d="M289.26 94.49c10.25-7.28 22.43-8.29 28.27.1s2.06 19.06-8.57 26.62c-9.72 6.91-22.37 8.25-28.4-.4-5.72-8.2-1.88-18.81 8.7-26.32zm5 6.24c-12.08 8.58-14.79 14.5-12 18.56 4.77 6.85 15.22.26 21.76-4.39 12.42-8.82 14.56-14.73 11.75-18.75-2.97-4.33-9.87-3.7-21.51 4.58z"/><path class="cls-2" d="M39.6 144.6a6.5 6.5 0 106.75 6.5 6.62 6.62 0 00-6.75-6.5zm-3.39 8.83l-.78-1.26s-.63-2.92 1-3.5c0 0 1.66 0 2.09 3.64l.39 2.68s-1.39 1.01-2.7-1.56zm5.3 2.14s-.68-.39-.68-1.75L40 149.2s3.16.39 3.36 4.38c-.05 0-.54 2.42-1.85 1.99z"/><path class="cls-12" d="M39.6 144.6a6.5 6.5 0 106.75 6.5 6.62 6.62 0 00-6.75-6.5zm-3.39 8.83l-.78-1.26s-.63-2.92 1-3.5c0 0 1.66 0 2.09 3.64l.39 2.68s-1.39 1.01-2.7-1.56zm5.3 2.14s-.68-.39-.68-1.75L40 149.2s3.16.39 3.36 4.38c-.05 0-.54 2.42-1.85 1.99z"/><path class="cls-2" d="M320.19 150.62a6.5 6.5 0 106.75 6.5 6.62 6.62 0 00-6.75-6.5zm-3.56 9s-2-2.58-.16-4.7c0 0 2-1.17 2.43 3l.16 3.37a2.06 2.06 0 01-2.43-1.67zm6.89 1.18a1.26 1.26 0 01-1.8.94 16.3 16.3 0 00-.55-2.28c-.78-.94-.86-4.07-.86-4.07 1.41-.63 2.74 2 2.74 2a3.68 3.68 0 01.47 3.41z"/><path class="cls-12" d="M320.19 150.62a6.5 6.5 0 106.75 6.5 6.62 6.62 0 00-6.75-6.5zm-3.56 9s-2-2.58-.16-4.7c0 0 2-1.17 2.43 3l.16 3.37a2.06 2.06 0 01-2.43-1.67zm6.89 1.18a1.26 1.26 0 01-1.8.94 16.3 16.3 0 00-.55-2.28c-.78-.94-.86-4.07-.86-4.07 1.41-.63 2.74 2 2.74 2a3.68 3.68 0 01.47 3.41z"/></g></svg>