<svg xmlns="http://www.w3.org/2000/svg" viewBox="0 0 340.16 198.57"><defs><style>.cls-2,.cls-4{fill:#a48241}.cls-4{fill-rule:evenodd}</style></defs><g id="Livello_1"><path d="M241.31 140.53L246 149h-15.15l7.58-13.59zm-11.85-16.8v.15l3.56 3.54-19.59 35.14-3.57 3.54v.15h15.86v-.15l-2.44-3.54 2.73-4.87h24.86l2.71 4.87-2.42 3.54v.15H267v-.15l-3.57-3.54-19.59-35.14 3.56-3.54v-.15zm-92.99 8.59a5 5 0 014.09 7.81 5 5 0 01-3.58 2.11h-21.41v-9.92zm-.37-8.59h-32.81v.15l3.57 3.54v35.14l-3.58 3.54v.15h15.87v-.15l-3.58-3.54v-11.73h13.77l9.89 13.28-.63 2.14h14.92v-.15l-4.7-3.54-9-12.11a12 12 0 001.78-.6 13.34 13.34 0 004-2.53 13.58 13.58 0 00-6.69-23.39 14.24 14.24 0 00-2.46-.22h-.36zm154.42 8.59h12.21a5 5 0 013.1 8.87 5.14 5.14 0 01-2.59 1.05h-21.41v-9.92zm12-8.6h-33v.15l3.58 3.54v35.14l-3.57 3.54v.15h15.87v-.15l-3.58-3.54v-11.72h13.76l9.9 13.28-.63 2.14h14.92v-.15l-4.71-3.54-9-12.11a13.63 13.63 0 009.94-10.24 13.58 13.58 0 00-13.25-16.5zm-128.23 8.6H192a5 5 0 01.51 9.92h-21.4v-9.92zm17.32-8.59H158.8v.15l3.57 3.54v35.14l-3.58 3.54v.15h15.86v-.15l-3.57-3.54v-11.73h13.76l9.88 13.28-.61 2.14H209v-.15l-4.71-3.54-9-12.11a13.58 13.58 0 00-3.29-26.74h-.36zm144.55 0h-11.87v.15l3.57 3.55v35.13l-3.57 3.54v.15h15.86v-.15l-3.57-3.54v-35.14l3.57-3.54v-.15zm-295.5 0H0v.15l3.56 3.54v35.14L0 166.1v.15h15.87v-.15l-3.57-3.54v-14.33h19.48l5.1 2 .12-.08-3.52-12h-.15l-1.14 1.48H12.3v-7.36h27.85l5.21 2.05.12-.08L42 122.43h-.15zm52.09-1.3h-.14l-1.15 1.34H50.79v.15l3.57 3.54v35.14l-3.57 3.54v.15h41.94L97 155.06l-.12-.09-5.91 2.69H63.08v-9.43h19.39l5.2 2.05.12-.08-3.52-12h-.15L83 139.64H63.08v-7.36h27.86l5.21 2.05.11-.08z" fill="#1d1d1b"/><path class="cls-2" d="M191.76 68a16 16 0 00-3.88-1.17c-.67-.16-1.63-.39-2.71-.68a36.45 36.45 0 01-5.93-2.07 12.16 12.16 0 01-2.2-1.51.59.59 0 00-.5-.17.6.6 0 00-.4.18c-.29-1.51-.58-4.31-.69-5.83l.36-.34 2.93-2.75v-2.15a23 23 0 01-2.35 2.59v-1.88a.5.5 0 00-.51-.49.49.49 0 00-.49.49V55c-.4.36-.8.73-1.2 1.08v-4.71a.51.51 0 00-1 0V57c-.4.35-.81.7-1.18 1v-7.65a.5.5 0 10-1 0v8.47c-.54.45-.95.78-1.17.94v-9.82s-.47.29-1.22.65v7.14a.5.5 0 01-1 0V51c-.36.16-.75.32-1.15.46v4.41a.51.51 0 01-1 0v-4.04c-.38.11-.77.2-1.14.27v1.79a.51.51 0 01-.51.5.52.52 0 01-.51-.5v-1.67a3.05 3.05 0 01-2.37-.71v2.19l2.87 2.7.42.4a57.48 57.48 0 01-.8 5.77.67.67 0 00-.37-.14.73.73 0 00-.52.22c-1.8 2.06-8.33 3.63-10.8 4.22a15.87 15.87 0 00-3.89 1.13c-4.69 2.62-5.62 9.89 1.06 13.06s2.78 1.34 3.45 3.77a5.61 5.61 0 01.22 1.64c0 .13 3.15-5.72-2-7.87.18.07 3.19-1.92.8-3.93a2.62 2.62 0 01-2.29 1.65H149c-.63 0-2.28-.73-1.57-3.94.13-.67 1.14-3.1 3.47-3.27 2.07 0 3 1.55 3.45 2.93v29.19a5.23 5.23 0 005.6 4.72h6.77a1.63 1.63 0 011.28.45l1.8 1.6 1.82-1.54a1.63 1.63 0 011.28-.45h6.77a5.23 5.23 0 005.61-4.72V72.1c.43-1.39 1.37-2.95 3.45-2.95 2.33.17 3.34 2.6 3.46 3.27.72 3.21-.93 3.89-1.56 3.94h-.16a2.62 2.62 0 01-2.29-1.65c-2.39 2 .62 4 .8 3.93-5.11 2.15-2 8-2 7.87a6 6 0 01.22-1.64c.67-2.43 3.45-3.77 3.45-3.77 6.73-3.17 5.8-10.44 1.11-13.1zm-34.38 1.11a18.27 18.27 0 00-2.94-1.61c3.34-.9 6.74-2 8.51-3.48.3.38.74.92 1.28 1.53-1.23 1.5-5.13 3-6.85 3.6zm8.48-3.75a3.46 3.46 0 001-2.36c.16-1.14.31-2.4.43-3.34l2.52 2.36 4-3.74a24.59 24.59 0 001 5.91 23.44 23.44 0 01-5 4.48 20.51 20.51 0 01-3.95-3.27zm19.21 2.21a14.8 14.8 0 00-3.58 2.16h-11a26.41 26.41 0 006.22-5.73 15.75 15.75 0 001.84 1.19 25 25 0 006.52 2.42z"/><path class="cls-2" d="M149.12 84.24c-9.05-5.59-5.85-12.32-5.85-12.32a8.17 8.17 0 00-2.61 4.82c-.5 2.61.93 5.25.68 6.5a4 4 0 01-1.19 2.13 2 2 0 003.16-.38 5.25 5.25 0 01-.69 4.11c2.52.75 3.57-1.94 3.57-1.94 4.42 2.44.95 8.07.91 8.06.87 0 4-1.9 4.75-5.71.68-3.34-2.73-5.27-2.73-5.27zm41.38 0c9.05-5.59 5.85-12.32 5.85-12.32a8.22 8.22 0 012.65 4.82c.5 2.61-.93 5.25-.68 6.5a4 4 0 001.19 2.13 2 2 0 01-3.16-.38 5.25 5.25 0 00.65 4.11c-2.52.75-3.57-1.94-3.57-1.94-4.42 2.44-1 8.07-.91 8.06-.87 0-4-1.9-4.75-5.71-.68-3.34 2.73-5.27 2.73-5.27z"/><path class="cls-2" d="M190.49 84.24c9-5.59 5.85-12.32 5.85-12.32a8.22 8.22 0 012.66 4.82c.5 2.61-.93 5.25-.69 6.5a4.06 4.06 0 001.2 2.13 2 2 0 01-3.21-.37 5.32 5.32 0 00.7 4.1c-2.51.75-3.56-1.94-3.56-1.94-4.43 2.44-.95 8.07-.92 8.06-.86 0-4-1.9-4.74-5.71-.7-3.34 2.71-5.27 2.71-5.27z"/><path d="M183.67 100.86a3.88 3.88 0 01-4.22 3.43h-6.62a2.82 2.82 0 00-2.07.74l-1 .81-1-.81a2.81 2.81 0 00-2.07-.74h-6.63a3.88 3.88 0 01-4.21-3.43V71.53h27.74z" fill="#c21632"/><path class="cls-2" d="M189.89 18.46l-.1-.07a3.87 3.87 0 01.24 2.5 3.57 3.57 0 01-4.37 2.72 3.5 3.5 0 01-1.67-1 3.72 3.72 0 001.32 2.26 3.6 3.6 0 005.16-.94 4 4 0 00-.58-5.47zm-16-5.66a3.35 3.35 0 001.91-1.55 3.84 3.84 0 00-1.38-5.11 3.48 3.48 0 00-4.93 1.15v.1a3.29 3.29 0 012.27-.5 3.61 3.61 0 012.91 4.11 3.7 3.7 0 01-.76 1.8zm.16-9a5.27 5.27 0 012.64 6.78c-.06.14-.14.27-.21.42a6.27 6.27 0 002-2.67 6.16 6.16 0 00-3.09-7.91 5.42 5.42 0 00-5.28.63 4.36 4.36 0 00-1.33 4 4.71 4.71 0 015.29-1.23zm-12.31 18.88a13.21 13.21 0 00-3.74-5.05 4.77 4.77 0 00-5.24-.62 3.39 3.39 0 00-1.63 3.14 5.51 5.51 0 00.21 1.22 7.72 7.72 0 01.18-1.18 2.64 2.64 0 011.74-2 3.56 3.56 0 013.4 1.13 16 16 0 012.82 4.5c1.69 3.65 3.15 7.22 4.62 9.6a9.73 9.73 0 002.9 3.45 13.84 13.84 0 01-1.78-4 80.56 80.56 0 00-3.48-10.19zm9.57-9.08a9.72 9.72 0 00-1.64-3.09c-1.16-1.8-2.42-3.35-2.37-6.76 0 0-2.8 3.14.87 9.83a19.1 19.1 0 012.14 7.09c.12 1.21.18 2.43.18 3.64-.05-.34-.1-.69-.17-1-.53-4.24-4-8.21-4.83-12.51a7.16 7.16 0 01-.15-1.46 13 13 0 00.16 4.8c1.23 5.68 3.74 7 3.92 21.41 0 0 .15-.39.36-1.1.9-3.08 3.82-13.95 1.53-20.85zm-4.73 10.09a17.72 17.72 0 00-1.67-4.87c-1.87-3.63-5.19-6-9.06-5.42-1.74.26-3.77 1.17-4.37 2.9.09 0 .29-.22.29-.22a6.43 6.43 0 015.17-1.2c5.35.82 7 8.5 7 8.5.08.31.15.63.22.95a66.59 66.59 0 002.31 8.41 24.23 24.23 0 001.5 3.36l-.27-3.66a61.76 61.76 0 00-1.12-8.75zm19.84-5.47a2.57 2.57 0 011.73 2 8.18 8.18 0 01.2 1.18 7.63 7.63 0 00.21-1.22 3.38 3.38 0 00-1.64-3.18 4.75 4.75 0 00-5.23.62 13.33 13.33 0 00-3.69 5.06 83.9 83.9 0 00-3.5 10.21 14.37 14.37 0 01-1.77 4 9.83 9.83 0 002.89-3.42 101.22 101.22 0 004.63-9.6 16.72 16.72 0 012.81-4.5 3.58 3.58 0 013.36-1.15zm-10.87 6.1c.07-.32.15-.64.22-.95s1.63-7.68 7-8.5a6.46 6.46 0 015.18 1.2s.2.22.28.22c-.59-1.73-2.63-2.64-4.37-2.9-3.86-.54-7.19 1.79-9.05 5.42a17.72 17.72 0 00-1.67 4.87 61.76 61.76 0 00-1.1 8.74l-.27 3.66a22.83 22.83 0 001.5-3.36 68.33 68.33 0 002.28-8.4z"/><path class="cls-2" d="M154.39 24.88a3.72 3.72 0 001.31-2.26 3.52 3.52 0 01-1.67 1 3.58 3.58 0 01-4.36-2.72 3.83 3.83 0 01.23-2.51l-.09.07a4 4 0 00-.58 5.45 3.61 3.61 0 005.16.97z"/><path class="cls-4" d="M166.54 81s-2.22-1.22-2-2.32a1.57 1.57 0 01.3-.55.83.83 0 00-.22-1.18s.36-.87-.55-.85c0 0 .34.38 0 .66a1.14 1.14 0 00-.58.42s-.12-.7-.73-.71h-.35c-.13 0-.81-.43-1.07.17a.4.4 0 01.24 0 .5.5 0 01.32.46 2.5 2.5 0 00-.06 1.09.7.7 0 00-.94.55.67.67 0 00-.62.94s.32-.49.76-.2a.61.61 0 01.1.14c.13.21.36.59.66.64l.58.08c.13 0-.39.4 0 .78.11.12.1-.23.37-.19s.63.39 1.31 1.12 1.07 1.48 1.65 1.61a3.09 3.09 0 01.83-2.66z"/><path class="cls-4" d="M171.15 74.71s-1.24 0-1.43-.1-.2-.27 0-.51a1.49 1.49 0 011.08-.26c2.9.32 4-.14 4-.14a1.42 1.42 0 01-.41 1.22s1.46.38 1.58 3.79c0 .8-.32 2.23.51 3.19a.93.93 0 01-1 .09 10.6 10.6 0 01-.94 2c-.69 1.17-1 2.42-.18 2.67.12 0-.1.17-.55.06a1.94 1.94 0 01-.47-.18 1.73 1.73 0 01-.59-2.19c.56-1.52 1.14-1.71 1.06-3.27a8.26 8.26 0 01-2.15 3.31s-1.22 1-1.17 2a2.47 2.47 0 00.15.81c0 .07 0 0 0 0a2.55 2.55 0 01-1-2.48 3.58 3.58 0 01.58-1.31c.64-.89 1.64-1.73 1.77-3.53a6.33 6.33 0 01-1.65 2.19c-1.13.94-2.11 1.35-2.44 2.24 0 0-.91-1 .38-2.76a3.25 3.25 0 00-1.69 1.84h-.07s-.86-1.67 1.65-2.84c1.72-.82 1.66-1.49 1.66-1.49a4.19 4.19 0 01-2.34.59 4.86 4.86 0 01-.6.06v-.09a1.53 1.53 0 00.8-.74c.14-.48.13-.88.47-.88a4 4 0 01.54.07 1.18 1.18 0 00-1-.29c-.68.1-1.16 0-1.57-1 0 0-.17-.36-.38-.33s.06-.21.26-.21c0 0 .67-.25 1.65.91 0 0 .08.13.62.22s.92.09 1.34.68a1.26 1.26 0 00.43 0 2.34 2.34 0 00-.29-1 1 1 0 00-1-.5l-.1.24a.44.44 0 000 .26s0 .11-.13.05a.73.73 0 01-.53-.63.76.76 0 01-.62-.73c0-.64-.1-.72.05-.9s.13 0 .48 0a7.72 7.72 0 011.09-.04c.22 0 .44.32.67.45a1.65 1.65 0 001.48-.54z"/><path class="cls-4" d="M172.86 86.7a1.2 1.2 0 01-.76-.91 2.62 2.62 0 010-1 2.54 2.54 0 00-.92 3s.12.19-.13.16a3 3 0 01-1.7-4.41v-.1c0-.1-.1 0-.1 0a3.73 3.73 0 00-1.25 1.65c-.17.61-.94-.7-.91-1.46a28.79 28.79 0 01-4.15 1.69c-.54 0-.46-.72-.48-.93 0 0-.13-.6-.91-.36a.91.91 0 00-1.33 0 1 1 0 01.48.14c.11.12.07.16 0 .31a.88.88 0 000 .58l.09.25s-.74 0-.91.4-.2.42-.23.42a.72.72 0 00-.54.84c.37-.29.51-.2.56-.17s0 0 .1.11a.82.82 0 00.5.28.77.77 0 00-.13.86.8.8 0 00-.07 1.06s.12-.45.41-.46a2 2 0 001.42-.37c.54-.44.49-.37.49-.37s.08.92.94.71c0 0-.42-.27 0-.47s.49-.29.53-.74a1.17 1.17 0 000-.34 2.59 2.59 0 011.34-.07c.89.1 1 .16 1.3-.12s.29-.26.29-.26a3.76 3.76 0 001.6 2.06 4.62 4.62 0 011.41 1.65 3.65 3.65 0 01.29 1.18 6.54 6.54 0 00.92-1.56s.58.57-.61 2.22-.85 3 .14 3.72a5.44 5.44 0 003.45 1c.38 0 .41.22.45.52a4 4 0 01-.87 2.23s-.4.63-1.21-.09-1.21-.33-1.42 0c-.06.08-.21 0-.41.09a.85.85 0 00-.67.68s.48-.22.67 0a1 1 0 00-.74.87.89.89 0 00-.65 1s.22-.35.53-.28a1.64 1.64 0 001.29 0s-.37.61 0 1c0 0 .21-.54.69-.47a2.64 2.64 0 002.09-.3 4.63 4.63 0 00.64-.53 1.13 1.13 0 001.09.31c.19 0-.13-.24-.06-.41a1.6 1.6 0 00.2-1.34 13.22 13.22 0 00.67-1.48 9.6 9.6 0 00.66-2.52s.12-.41-.15-.58-.35 0-.66 0c-.94 0-1.88-.43-1.61-1.51s.31-1 .31-1a1.9 1.9 0 002.35-.77c.75-1.28-.28-3.24-.34-3.37a7.48 7.48 0 01-.7-3.34 3.34 3.34 0 01.41-1.6c.65-1.09 1.75-.8 1.78.28a2.92 2.92 0 01-.66 1.4 2.82 2.82 0 00-.25.44 2.24 2.24 0 00-.17 1.18c.12 0 .36-.31.56-.5a.52.52 0 01.23-.13s-.62 3.16 2.18 2.81c0 0 .1-.09-.08-.11a1.16 1.16 0 01-.37-1.74 5.3 5.3 0 00.83-2.36 3 3 0 00-.61-2s-2.12-2.72-4.21 0a5 5 0 00-.59 3.88 12.44 12.44 0 00.78 2.24c.32.82.45 1.23.45 1.23s.36 1.13-.62 1.34a.92.92 0 01-.92-.48 2.79 2.79 0 01-.2-.72 8 8 0 00-1.17-2 5 5 0 01-.65-2.06z"/><path class="cls-4" d="M169.67 92.23a2.79 2.79 0 00-.63 2.19 1.77 1.77 0 01.05.32s-1-.23-1.13.57a10.84 10.84 0 000 1.89c-.06.23-.14.83-1 .64a16.48 16.48 0 01-1.86-.78 2.38 2.38 0 00-1-.21s-.13 0-.24.17-.2.4-.91.37c0 0-.28.27 0 .47s-.18.09-.29 0a.87.87 0 01-.41-1s-.22.12-.4.2a1 1 0 01-.63-.06c-.13-.06-.35 0-.41.3s-.11.31-.11.31-.57-.31-.13-1.1a.68.68 0 01.26-1 1.4 1.4 0 01-.55-.69c-.08-.22-.7 0-.7.25a.8.8 0 01-.13-.45.7.7 0 01.65-.68s.1-.58.73-.61a1.74 1.74 0 011.27.56 1 1 0 00-.18-.39.82.82 0 01.09-1c.25-.17.35-.17.23-.36a.85.85 0 00-.43-.31c-.07 0 0-.18.5-.09a.94.94 0 01.69.6.77.77 0 01.73.73 2.29 2.29 0 01-.26 1 .64.64 0 00.13.47 2.12 2.12 0 001.7.82c1.15.11.88-.76.73-1s-1.5-2.69-.73-3.79a1.72 1.72 0 01.73-.68 2.55 2.55 0 013.26 1.34 2.64 2.64 0 01.38 1z"/><path class="cls-2" d="M169.82 41.57c-.13.16-6.09 6.8-9.93 7.78 0 0-.52.77 0 1.16 2.74 2.05 9.87-3.22 9.94-3.28s7.2 5.33 10 3.28c.52-.39 0-1.16 0-1.16q-.28-.08-.57-.18V49a10 10 0 00-5.43-9.26.49.49 0 00.31-.29.57.57 0 00-.28-.76 10.48 10.48 0 00-7.8-.12.56.56 0 00-.3.75.56.56 0 00.31.31 9.75 9.75 0 00-5.6 8.05c3.41-1.48 9.33-7.41 9.33-7.41 4.46 0 7.75 3.42 8 8.17-3.66-2.07-7.86-6.75-7.98-6.87zm-16.55 8.15c-6.09 6.14-8.6 2.49-8.56 2.47.34 1.66 2.66 3 6.56.39a18.44 18.44 0 005.85-7.06c-.42-1.38-1.59-1.52-3-1.66a1.88 1.88 0 01-1.67-1.23c-.76 2.92 1.32 3.74 1.32 3.71-1.92 2.36-3.77 1.18-3.77 1.18-.06 2.15 3.27 2.2 3.27 2.2z"/><path class="cls-2" d="M137.69 46.92c.4 0 1.17.35 1.17 1.93s0 7.78 5.1 9a4.92 4.92 0 01-3.15-4.52 6.73 6.73 0 013.32-5.76c1.11-.76 3.06-1.64 3.06-3.36a2 2 0 00-.95-1.71 1.94 1.94 0 01-.78 2.58s0-1.13-1.47-1.88a2.36 2.36 0 00-2.29.25 1.36 1.36 0 011.49 1.38c0 1.2-1.86 1.32-1.86 1.32a3.45 3.45 0 00-2.55-1.38c-1.6 0-3 1.73-2.31 3.17a1.26 1.26 0 011.22-1.02z"/><path class="cls-2" d="M147 61.23c3.56-1.71 3.93-3.42 3.93-3.42-5.41 4.84-10.7.11-10.73 0-1.27 3.74 2 4.21 2 4.21-10.22 4-4.25 12.55-4.21 12.52-2.13-8.69 5.44-11.61 9.01-13.31z"/><path class="cls-2" d="M157.3 49l-3.16 3.21s-3.32 3.5-7 3.5-4.09-5.09-1-5.09a1.37 1.37 0 011.21 1.61 2.26 2.26 0 001-2 1.8 1.8 0 00-1.35-1.66 3.72 3.72 0 00.76-.41 4.22 4.22 0 002.17-4.16 3 3 0 00-.26-1 3.13 3.13 0 00-3.67-1.81s2.55.8 2.55 3.12a3.14 3.14 0 01-1.78 2.74c-.44.28-4.52 2.49-4.52 5.82s2.55 4.35 5 4.35a11.54 11.54 0 005.55-1.66s.51 4.44-6 7.64-7.46 6-7.21 8.72c0 0-.41-3.88 6.47-6.14a19.37 19.37 0 004.66-2 7.21 7.21 0 003-7.11 4.05 4.05 0 011 5.21s4.37-.59 2.22-5.61a2 2 0 002.83-.65s-4.3-1.06-2.47-6.62zm29.11.72c6.09 6.14 8.6 2.49 8.56 2.47-.34 1.66-2.66 3-6.56.39a18.33 18.33 0 01-5.85-7.06c.42-1.38 1.59-1.52 2.95-1.66a1.88 1.88 0 001.67-1.23c.76 2.92-1.32 3.74-1.32 3.71 1.92 2.36 3.77 1.18 3.77 1.18.11 2.15-3.22 2.2-3.22 2.2z"/><path class="cls-2" d="M202 46.92c-.4 0-1.17.35-1.17 1.93s0 7.78-5.1 9a4.92 4.92 0 003.15-4.52 6.73 6.73 0 00-3.32-5.76c-1.11-.76-3.06-1.64-3.06-3.36a2 2 0 01.95-1.71 1.94 1.94 0 00.79 2.58s-.06-1.13 1.46-1.88a2.38 2.38 0 012.3.25 1.37 1.37 0 00-1.5 1.38c0 1.2 1.86 1.32 1.86 1.32a3.45 3.45 0 012.55-1.38c1.6 0 3 1.73 2.31 3.17a1.26 1.26 0 00-1.22-1.02z"/><path class="cls-2" d="M192.69 61.23c-3.56-1.71-3.93-3.42-3.93-3.42 5.41 4.84 10.7.11 10.73 0 1.27 3.74-2 4.21-2 4.21 10.22 4 4.25 12.55 4.21 12.52 2.12-8.69-5.44-11.61-9.01-13.31z"/><path class="cls-2" d="M182.38 49l3.16 3.21s3.32 3.5 7 3.5 4.1-5.09 1-5.09a1.37 1.37 0 00-1.21 1.61 2.26 2.26 0 01-1-2 1.8 1.8 0 011.34-1.68 3.72 3.72 0 01-.76-.41 4.19 4.19 0 01-2.16-4.14 3 3 0 01.26-1 3.13 3.13 0 013.72-1.78s-2.55.8-2.55 3.12a3.14 3.14 0 001.82 2.71c.45.28 4.52 2.49 4.52 5.82s-2.55 4.35-4.95 4.35a11.54 11.54 0 01-5.57-1.66s-.51 4.44 6 7.64 7.46 6 7.22 8.72c0 0 .4-3.88-6.48-6.14a19.37 19.37 0 01-4.66-2 7.21 7.21 0 01-3-7.11 4.05 4.05 0 00-1 5.21s-4.37-.59-2.22-5.61a2 2 0 01-2.83-.65s4.18-1.06 2.35-6.62z"/><path d="M84.94 188.27h-5.6v10H77.4v-10h-5.59v-1.75h13.13zm20.4 9.96h-2.26l-3.16-4.46H94v4.46h-1.93v-11.71h9.23a4.06 4.06 0 012.89 1 3.49 3.49 0 011 2.69 3.33 3.33 0 01-.85 2.39 3.68 3.68 0 01-2.19 1.07zM101 192c1.5 0 2.25-.6 2.25-1.81s-.81-1.94-2.43-1.94H94V192zm24.47 6.23h-12.25v-11.71H125v1.75h-9.86v3H122V193h-6.85v3.46h10.31zm21.07 0h-2.42l-8.94-9.6v9.6h-1.93v-11.71h2.41l8.94 9.61v-9.61h1.94zm20.25-9.96h-5.59v10h-1.94v-10h-5.59v-1.75h13.12zm21.55 4.09A5.55 5.55 0 01186 197a9.3 9.3 0 01-10.31 0 5.52 5.52 0 01-2.36-4.64 5.61 5.61 0 012.39-4.63 8.32 8.32 0 015.14-1.58 8.23 8.23 0 015.13 1.58 5.61 5.61 0 012.35 4.63zm-2 0a3.94 3.94 0 00-1.75-3.33 6.15 6.15 0 00-3.73-1.09 6.08 6.08 0 00-4 1.25 4.12 4.12 0 000 6.38 6.13 6.13 0 004 1.22 6.05 6.05 0 004-1.23 3.93 3.93 0 001.46-3.2zm23.66 5.87h-1.94v-9.76l-1.87.81v-1.69a5.07 5.07 0 001.87-1.07H210zm17.62-6.4a6.19 6.19 0 01-4.9 2.07 6.7 6.7 0 01-3.87-1 3 3 0 01-1.43-2.64 3.3 3.3 0 011.5-2.84 8.17 8.17 0 019 .6 5.7 5.7 0 011.83 4.43 5.56 5.56 0 01-1.94 4.36 6.62 6.62 0 01-4.54 1.63 7.17 7.17 0 01-5.26-2l1.31-1.26a4.72 4.72 0 003.82 1.47 5.27 5.27 0 002-.35 4.12 4.12 0 001.92-1.52 4 4 0 00.72-2.31 1.74 1.74 0 00-.16-.64zm-.44-1.82c-.78-1.29-2.22-1.93-4.3-1.93a4.81 4.81 0 00-2.54.56 1.66 1.66 0 00-.93 1.47 1.75 1.75 0 00.9 1.53 4.58 4.58 0 002.5.58 5 5 0 004.37-2.22zm22.53 2.38a5.73 5.73 0 01-1.81 4.25 6 6 0 01-4.34 1.77 5.93 5.93 0 01-4.32-1.75 5.81 5.81 0 01-1.82-4.27 5.75 5.75 0 011.84-4.26 6.23 6.23 0 018.62 0 5.78 5.78 0 011.83 4.26zm-2 0a4.15 4.15 0 00-1.17-3.06 4.4 4.4 0 00-6 0 4.59 4.59 0 000 6.12 4.36 4.36 0 006 0 4.19 4.19 0 001.21-3.05zm20.64 5.84h-11.89q.19-4.35 4.87-5.81l2.12-.58a8.55 8.55 0 001.66-.62A1.41 1.41 0 00266 190a1.51 1.51 0 00-.83-1.34 4.46 4.46 0 00-2.32-.51 7.16 7.16 0 00-4.58 1.65l-1.23-1.3a9.29 9.29 0 015.84-2.1 6.3 6.3 0 013.77 1.06 3.17 3.17 0 011.45 2.67c0 1.55-1 2.61-3.08 3.2-.77.17-1.89.47-3.38.89a4.52 4.52 0 00-2.83 2.31h9.59z" fill="#776e64"/></g></svg>