<svg xmlns="http://www.w3.org/2000/svg" viewBox="0 0 183.63 101.99"><defs><style>.cls-1{fill-rule:evenodd}.cls-2{fill:none;stroke:#b26628;stroke-miterlimit:10}.cls-5{fill:#fff}</style></defs><g id="Calque_1" data-name="Calque 1"><path class="cls-1" d="M74.63 79.26c.07-1.71.21-2 1.23-2.18.62-.12 1.26-.12 1.9-.18a18.57 18.57 0 003.69-.36 8.15 8.15 0 00.32-1.54V62.79a5.11 5.11 0 00-.08-1 1.43 1.43 0 00-1.48-1.27h-4.79a1.21 1.21 0 01-1.07-1.09 1.32 1.32 0 011-1.22 7.59 7.59 0 011.43-.11h24.44a6.55 6.55 0 013.17.89c5.28 2.81 6.94 10.62 3.26 15.88-2 2.9-4.6 4.55-8.2 4.53H76.93c-.72-.04-1.43-.1-2.3-.14zm13.48-2.64a32.66 32.66 0 0010.36-.4 2.55 2.55 0 00.89-.32 9.16 9.16 0 003.64-4.67 8.39 8.39 0 00-1.86-8.05 5.91 5.91 0 00-3.4-2.18 37.14 37.14 0 00-9.06-.34 1.86 1.86 0 00-.6.29 113.71 113.71 0 00.03 15.67zm-56.47-7.73v6.76a4.71 4.71 0 01-2.37 1.84A25.63 25.63 0 0122 79.66c-1.1.17-2.22.24-3.32.46-4 .81-7.77-.18-11.57-1.06a9 9 0 01-2.6-1.2 6.3 6.3 0 01-2-1.68C0 72.52-.93 68.64 1.09 64.43a9.05 9.05 0 014.08-4.25c4.73-2.4 9.69-3.66 15-2.36 1.39.34 2.8.63 4.21.88a6.64 6.64 0 005.1-1c.22.41.55.73.56 1.07.05 1.91.06 3.83 0 5.75a1.11 1.11 0 01-1.87.87 4.54 4.54 0 01-1-1 10.52 10.52 0 00-4.74-3.48 11.8 11.8 0 00-8.19-.35c-3.36.91-5.65 3-6.24 6.54s.36 6.83 3.54 9.06A10 10 0 0017 78a15 15 0 005.44-.64 1.78 1.78 0 001.37-1.75c0-.88.06-1.76 0-2.63-.09-1.73-.93-2.56-2.72-2.7-.79-.07-1.59 0-2.38-.14a.84.84 0 01-.55-.62 1 1 0 01.5-.68 2.1 2.1 0 01.94-.11h11a6 6 0 011.04.16zm114.54 9.84a4 4 0 01-.91.3h-30.83c-.11-.43-.39-.92-.27-1.27a1.73 1.73 0 011-.87 6.45 6.45 0 011.66-.17c1-.08 2.07-.12 3.11-.23 1.47-.17 1.8-.54 1.86-1.94V63.07a7.85 7.85 0 000-1.19 1.56 1.56 0 00-1.59-1.48c-1.2-.06-2.4 0-3.6 0-.56 0-1.12 0-1.67-.06a1 1 0 01-.89-1 .88.88 0 01.84-1 15.73 15.73 0 011.68-.07h26.13a4 4 0 012.45.36 39 39 0 01.1 5.59c-1.58-.82-2.05-2.2-3-3.07a123.73 123.73 0 00-14.19 0 14.73 14.73 0 00-.23 5.44 15.06 15.06 0 006-.11 2 2 0 001.62-1.57 4.2 4.2 0 01.53-1.32.94.94 0 011.41-.41 43.77 43.77 0 010 9.84 3.29 3.29 0 01-1.07-.23 1.79 1.79 0 01-.79-.87c-.61-2.07-2-2.46-3.92-2a23.38 23.38 0 01-2.38.23c-.31 0-.62.12-.9.17a10.63 10.63 0 00-.25 5.91 6.89 6.89 0 003.24.54h8.87c2.6 0 3.49-.75 4.22-3.32a6.94 6.94 0 01.26-.92 1 1 0 011.17-.62c.48.07.63.46.63.88a32.29 32.29 0 01-.29 5.94zM54.62 57.49c3.18.06 5.94.25 8.55 1.48a13.6 13.6 0 016.43 7.12 6.72 6.72 0 01.27 4.47 12.27 12.27 0 01-3.73 6.3 12.61 12.61 0 01-5.84 3 24.44 24.44 0 01-10.63 0c-4.7-1-7.5-4-9.22-8.18a7.74 7.74 0 01.64-7.12 12.93 12.93 0 0111-6.93zM63 68.88a10.61 10.61 0 00-.17-2.11 11.12 11.12 0 00-1.28-3.31c-1.18-1.69-3-2.48-5-3.12a6.3 6.3 0 00-4.41.46A7.33 7.33 0 0047 68.13a22 22 0 00.22 3.34c.56 4.45 4.53 7.61 9.6 6.57a7.61 7.61 0 005.92-7c.1-.7.16-1.41.26-2.16zm120.63-10.43v6.24a1.31 1.31 0 01-.23.66.49.49 0 01-.38.25.92.92 0 01-.63-.24 3.09 3.09 0 01-.3-.87c-.21-.68-.37-1.39-.64-2a1.82 1.82 0 00-1.26-1 31.15 31.15 0 00-8.94-.23 14.28 14.28 0 00-.19 1.55 95.4 95.4 0 00.29 13.74 8.1 8.1 0 001.29.35c1.27.12 2.55.16 3.82.29a7.15 7.15 0 011.84.43.76.76 0 01.44 1 1.2 1.2 0 01-.69.55 2.72 2.72 0 01-.95.07h-18.72a.93.93 0 01-.94-.58.94.94 0 01.63-1.13 15.1 15.1 0 012.12-.34c1.5-.15 3-.26 4.56-.39a5.59 5.59 0 00.34-1.24V62.37a7.38 7.38 0 00-.14-1c-.26-.11-.55-.34-.83-.33-2.39.1-4.78.27-7.17.34a2.69 2.69 0 00-2.74 2.49 6.86 6.86 0 01-.3 1.39 1.1 1.1 0 01-.75.44c-.15 0-.38-.25-.52-.42a.87.87 0 01-.11-.46v-6.2a6.15 6.15 0 011.38-.34c1.28-.05 2.56 0 3.84 0h24c.54-.01 1.09.09 1.88.17z"/><path class="cls-2" d="M91.84 20.5l-3.82 2.65 1.76-4.29-3.64-2.71h4.23l1.53-4.48 1.53 4.48h4.23l-3.65 2.71 1.77 4.29-3.94-2.65z"/><path d="M108.33.88H75.8s-.39 28.87 0 30 .79 6.39 10.6 6.39c0 0 2.19-.12 5.66 3.11 3.48-3.23 5.67-3.11 5.67-3.11 9.81 0 10.21-5.3 10.6-6.39s0-30 0-30" fill="none"/><path d="M108.33.88H75.8s-.39 28.87 0 30 .79 6.39 10.6 6.39c0 0 2.19-.12 5.66 3.11 3.48-3.23 5.67-3.11 5.67-3.11 9.81 0 10.21-5.3 10.6-6.39s0-30 0-30z" stroke-width="1.75" stroke="#b26628" stroke-miterlimit="10" fill="none"/><path class="cls-5" d="M98.3 5.48c.08.69 3 .7 3 .7h-.18s2.88 0 3-.7l-1.12 8.2a5.09 5.09 0 01-3.6 0l-1-8.22c.08-.15.5-.59 2.83-.7 2.33.11 2.76.55 2.84.7L103 13.68a5.09 5.09 0 01-3.6 0"/><path class="cls-2" d="M98.56 4.86c.09.72 3.08.73 3.08.73h-.19s3 0 3.08-.73l-1.13 8.53a5.24 5.24 0 01-3.75 0l-1.09-8.55a.15.15 0 010-.06c.08-.15.52-.62 3-.72 2.43.1 2.88.57 3 .72a.15.15 0 010 .06l-1.1 8.55a5.21 5.21 0 01-3.74 0"/><path class="cls-5" d="M80.3 5.5c.08.69 3 .7 3 .7h-.18s2.88 0 3-.7l-1.09 8.2a5.09 5.09 0 01-3.6 0l-1-8.22v-.05c.08-.15.51-.59 2.84-.7 2.33.11 2.76.55 2.84.7a.18.18 0 010 .05L85 13.7a5.06 5.06 0 01-3.59 0"/><path class="cls-2" d="M80.3 5.5c.08.69 3 .7 3 .7h-.18s2.88 0 3-.7l-1.09 8.2a5.09 5.09 0 01-3.6 0l-1-8.22v-.05c.08-.15.51-.59 2.84-.7 2.33.11 2.76.55 2.84.7a.18.18 0 010 .05L85 13.7a5.06 5.06 0 01-3.59 0"/><path class="cls-5" d="M89.07 27.57c.08.69 3 .7 3 .7h-.18s2.88 0 3-.7l-1.09 8.2a5.06 5.06 0 01-3.59 0l-1.05-8.22a.28.28 0 010-.05c.08-.15.51-.59 2.84-.7 2.33.11 2.75.55 2.83.7a.16.16 0 010 .05l-1 8.22a5.08 5.08 0 01-3.6 0"/><path class="cls-2" d="M89 26.41c.08.71 3.08.72 3.08.72h-.19s3 0 3.08-.72l-1.14 8.53a5.28 5.28 0 01-3.74 0L89 26.38a.18.18 0 010-.05c.08-.16.53-.62 3-.73 2.43.11 2.87.57 3 .73a.18.18 0 010 .05l-1.09 8.56a5.3 5.3 0 01-3.75 0"/></g><path class="cls-1" d="M51.24 96.53h-.59c-.2.88.07 1.76-.12 2.62a2.06 2.06 0 01-1.49.07c.08-.34.3-.59.25-.93a5.27 5.27 0 010-.89v-3a1 1 0 00-.29-.94c-.21-.18 0-.51.25-.53s.54 0 .81 0h2.16a1.31 1.31 0 011.28.84 2.93 2.93 0 01.23.78 1.3 1.3 0 01-.45 1.33l-.46.42c.07.15.11.29.18.41.25.4.5.8.76 1.19a3 3 0 00.85.92.23.23 0 01.09.32c0 .07-.16.11-.24.15a.37.37 0 01-.15 0c-1.27 0-1 .12-1.66-.86-.48-.6-.95-1.23-1.41-1.9zm-.6-2.53a6 6 0 000 1.75h.7a4 4 0 00.59-.08.86.86 0 00.59-1.26 4.13 4.13 0 00-.34-.54 4.55 4.55 0 00-1.54.13zm24.75 5.39c-.36.1-.64.18-.93.24a.27.27 0 01-.32-.23 3.81 3.81 0 010-.59v-1.26a2.83 2.83 0 00-.08-1 8.85 8.85 0 00-2.62 0 5.6 5.6 0 000 1.53 8.14 8.14 0 010 1.48 1.67 1.67 0 01-1 .06 16.55 16.55 0 01-.06-2.22v-4.48a1.15 1.15 0 011 .13c.19.83-.07 1.72.2 2.59.82 0 1.6 0 2.4-.09.26-.84 0-1.68.25-2.48l.42-.14c.49-.11.76.1.77.6v3.27zM58.5 93a4 4 0 011.66.32 2.4 2.4 0 011.53 1.78 3.39 3.39 0 01-.79 3.38 3.82 3.82 0 01-2.14 1.08 2.61 2.61 0 01-2.17-.56 5.71 5.71 0 01-1-.82 2.77 2.77 0 01-.56-2.65A3.13 3.13 0 0158.28 93zm1.89 3.42v-.75a2.79 2.79 0 00-.51-1.45 1.67 1.67 0 00-1.32-.71 1.81 1.81 0 00-1.94 1.29 4.61 4.61 0 00.18 3.33 1.33 1.33 0 001.21.84 2.09 2.09 0 002.17-1.25 4.24 4.24 0 00.21-1.35zm-15.94 3.02a2.08 2.08 0 01-1 .06l-.66-1.25a3.52 3.52 0 00-.35-.56.57.57 0 00-.37-.2h-1.95l-.49.93c-.17.33-.35.66-.54 1a.3.3 0 01-.25.11c-.09-.06-.21-.18-.21-.27a1.07 1.07 0 01.12-.49c.68-1.35 1.2-2.76 1.8-4.15A4.44 4.44 0 0041 92.8a1.25 1.25 0 011 .68 5.29 5.29 0 01.25.54c.57 1.51 1.39 2.9 2 4.38a1.21 1.21 0 01.2 1.04zM40.6 96.5a1.26 1.26 0 001.11.1c.13-.33-.06-.59-.18-.84s-.12-.34-.39-.31a2.74 2.74 0 00-.54 1.05zm-13.4 2.94a2.09 2.09 0 01-1 .06c-.23-.42-.44-.84-.67-1.25a2.88 2.88 0 00-.34-.56.59.59 0 00-.38-.2h-1.95c-.17.33-.32.63-.48.93s-.35.66-.55 1a.28.28 0 01-.24.11c-.1-.06-.21-.18-.21-.27a1 1 0 01.12-.49c.68-1.35 1.2-2.76 1.79-4.15a4.62 4.62 0 00.49-1.78 1.23 1.23 0 011 .68c.08.18.19.35.26.54.56 1.51 1.38 2.9 2 4.38a1.24 1.24 0 01.16 1zm-3.85-2.94a1.26 1.26 0 001.11.1c.12-.33-.07-.59-.18-.84s-.13-.34-.39-.31a2.74 2.74 0 00-.54 1.05zm42.79 3.21a3.46 3.46 0 01-3.3-2.49 3.57 3.57 0 01.35-2.44 2.87 2.87 0 011.48-1.39 4.55 4.55 0 012.74-.39 2.19 2.19 0 011.27.73 1.21 1.21 0 01.2.3.47.47 0 01-.08.61.6.6 0 01-.63-.06 2.15 2.15 0 01-.18-.24 2.14 2.14 0 00-2.85-.49 2 2 0 00-.83 1.2 3.46 3.46 0 00.57 3 1.78 1.78 0 001.47.74A2.06 2.06 0 0068.2 98a.52.52 0 01.64-.23c.17.06.27.3.15.42-.81.81-1.64 1.62-2.85 1.52zm15.1-6.84c.09.26.11.48-.06.62a.9.9 0 01-.46.19H78.6a5 5 0 000 2 3.58 3.58 0 00.87 0h1c.36 0 .26.22.15.39a.5.5 0 01-.44.23h-1.6a9.57 9.57 0 000 1.93 2 2 0 001 .19h1.34a.92.92 0 01.67.25.36.36 0 01.07.26.35.35 0 01-.18.22.49.49 0 01-.22 0H77c-.15-.23 0-.37.12-.47a.94.94 0 00.27-.74V93.7a.89.89 0 00-.24-.67c-.15-.15 0-.39.21-.43h3.56zm14.34.84a15.71 15.71 0 000 2.05h1.89a.29.29 0 01.21.16.3.3 0 01-.06.26.74.74 0 01-.38.2h-.81a1.63 1.63 0 00-.73.07 4.62 4.62 0 000 1.93 1.75 1.75 0 00.91.17H98a.89.89 0 01.66.28.28.28 0 01-.09.44.92.92 0 01-.29 0h-4.11a.44.44 0 01-.15-.05c-.06-.23.12-.36.25-.5a.76.76 0 00.19-.54v-4.33a.72.72 0 00-.21-.53c-.18-.2 0-.43.21-.47h3.74a.42.42 0 01.15.44.38.38 0 01-.32.36 4.68 4.68 0 01-.74 0c-.55.06-1.09.06-1.71.06zm-11.09 4.8c.53 0 1 .06 1.42.07s.84 0 1.26 0a3.35 3.35 0 01.54.12c-.07.23-.12.41-.19.59a.41.41 0 01-.36.22h-3.87a.51.51 0 01-.44-.22.25.25 0 01.1-.42 1.65 1.65 0 01.32-.08v-5.64a.51.51 0 011-.07 6.13 6.13 0 01.11 1v3.64c.12.19.11.44.11.79zm-49.24-.01c.43 0 .84.07 1.26.08s.89 0 1.34 0a2.72 2.72 0 01.45.1.7.7 0 01-.1.61.42.42 0 01-.36.22h-3.79a.55.55 0 01-.52-.23c-.12-.17-.1-.32.1-.41a2.64 2.64 0 01.37-.13v-5.59a.46.46 0 01.46-.48.46.46 0 01.54.39 13.31 13.31 0 01.12 1.55v3.56a1.66 1.66 0 00.13.33zm53.65.26v-5.57a.45.45 0 01.4-.46.47.47 0 01.59.33 3.47 3.47 0 01.1.73c0 1.28 0 2.57.08 3.86v.83a3.76 3.76 0 001.27.16h1.41a3.28 3.28 0 01.52.13c-.07.21-.11.37-.16.53a.44.44 0 01-.41.27H89c-.23 0-.45 0-.59-.23a.25.25 0 01.13-.41 2.83 2.83 0 01.36-.17zm66.73-3.28a9.5 9.5 0 00.83.66 1.3 1.3 0 01.62 1.21 4.71 4.71 0 01-.08 1.05 1.11 1.11 0 01-.29.53 4.22 4.22 0 01-2 1.2 2.38 2.38 0 01-.88.06 7.15 7.15 0 01-1.3-.27 1.64 1.64 0 01-1.2-2.4 2.92 2.92 0 011-1.35l.78-.65c-1.09-.56-1-1.57-1.12-2.5 0-.12.09-.27.18-.38a3.55 3.55 0 011.15-.8.63.63 0 01.43 0c.53.08 1 .18 1.57.29a1.8 1.8 0 011.28 1 1.55 1.55 0 01-.19 1.67 8.56 8.56 0 01-.78.68zm-1.55.51a3 3 0 00-1.66 1.55 1.16 1.16 0 00.31 1.51 1.76 1.76 0 001.72.41 1.43 1.43 0 00.76-2.5c-.35-.34-.75-.65-1.13-.96zm1.47-2.34c0-.63-.12-.8-.62-.93a2.76 2.76 0 00-.69-.11 1.21 1.21 0 00-1.1.62c-.22.35-.06.66.15 1 .1.14.17.31.27.45a1.05 1.05 0 001.28.21 1.48 1.48 0 00.71-1.24zm4.09 1.86c-1.11-.55-1-1.55-1.13-2.44a.62.62 0 01.15-.39 3.47 3.47 0 011.22-.86.6.6 0 01.35 0c.58.11 1.16.21 1.73.35a1.83 1.83 0 011.19 1 1.54 1.54 0 01-.24 1.66 6.67 6.67 0 01-.65.67l.84.69a1.63 1.63 0 01.38.36 2.37 2.37 0 01-.28 2.45 4.4 4.4 0 01-1.55 1 2.67 2.67 0 01-1.65.11c-.23-.07-.48-.07-.7-.14a6.93 6.93 0 01-1-.42 1.22 1.22 0 01-.6-1.12 2.67 2.67 0 011-2.11c.3-.25.56-.48.94-.81zm1.11.52a1.74 1.74 0 00-1.11.66 4.72 4.72 0 00-.64.94 1.07 1.07 0 00.22 1.3 1.81 1.81 0 001.85.53 1.43 1.43 0 00.76-2.5c-.35-.35-.75-.65-1.08-.96zm.25-3.43a1.49 1.49 0 00-1.07.42.75.75 0 00-.17.89 4.87 4.87 0 00.46.75 1 1 0 001.19.23 1.58 1.58 0 00.8-1.47.65.65 0 00-.56-.68c-.28-.07-.54-.11-.65-.14zm-15.08.47a2.47 2.47 0 011.56-.06c.63.21 1.37-.06 2 .41 0 .24-.06.46-.09.68a.89.89 0 01-.26.13 5.32 5.32 0 01-.79 0c-.27 0-.53-.09-.79-.07a11.73 11.73 0 00-1.19.17c0 .18 0 .34-.06.53.15.07.27.14.4.19l1.81.72a1.09 1.09 0 01.23.14 3.54 3.54 0 011 2.38 2.11 2.11 0 01-.76 1.73 12 12 0 01-1.42 1 7.39 7.39 0 01-1.91.68 4.36 4.36 0 01-.87.19 1.42 1.42 0 01-.5 0 .23.23 0 01-.05-.37 1.82 1.82 0 01.31-.16 3.09 3.09 0 01.59-.18 5.88 5.88 0 002.8-1.44.77.77 0 00.18-.18c.43-.56.36-2.19-.55-2.58a4.34 4.34 0 00-1.73-.31c-.48 0-.64-.09-.63-.52a8.7 8.7 0 01.72-3.08zm-4.54 5.37v-3.53c0-.65 0-.64-.65-.61a4.3 4.3 0 01-.62 0c-.07 0-.13-.09-.22-.15a1 1 0 01.8-.48c.56-.11 1.08-.54 1.73-.23a2.14 2.14 0 01.06.35v3.64a2.58 2.58 0 00.34 1.75c-.05 0-.09.09-.13.09h-2.4c-.13 0-.26-.06-.24-.19a.32.32 0 01.21-.23 3.61 3.61 0 001.12-.41zM102.77 93c1.88-.21 3.79-.51 5.57.38a3 3 0 01.31 5.22 3.57 3.57 0 01-2.65.88c-.72-.07-1.45 0-2.17 0-.19 0-.38-.18-.57-.27a2.61 2.61 0 00.24-.43 1.53 1.53 0 00.13-.51v-4c0-.43 0-.79-.56-.82-.11 0-.21-.13-.31-.2zm2 5.5h2.49a1.24 1.24 0 00.74-.36 2.72 2.72 0 00.29-3.12 3 3 0 00-3.14-1.62.56.56 0 00-.36.4c-.06 1.5-.05 3.05-.05 4.67zm17.44-5.75h1.33v4.24a1.6 1.6 0 00.74 1.66 2.29 2.29 0 002.21-.06 1.64 1.64 0 00.65-1.58v-4.35h.76v4.31a2.07 2.07 0 01-1.7 2.45c-1.14.33-2.39.42-3.23-.71a3.8 3.8 0 01-.65-1.55 13.63 13.63 0 010-1.92c-.04-.83-.07-1.64-.11-2.49zm11.55-.37a2.09 2.09 0 012 1.18 1.62 1.62 0 01-.07.61c-.2-.09-.51-.14-.59-.3a1.35 1.35 0 00-1.48-.78 1.22 1.22 0 00-.88.5 1.07 1.07 0 00.29 1 16.87 16.87 0 002.13 1.38c.89.51 1.27 1.1 1.11 1.86a2.43 2.43 0 01-3.65 1.27 5.29 5.29 0 01-.89-1.24c-.06-.1 0-.29.06-.44.15 0 .35 0 .44.09a2.86 2.86 0 01.46.58 1.56 1.56 0 002.06.63c.67-.29.77-.88.19-1.32s-1.4-1-2.13-1.4c-1.17-.71-1.52-1.65-.92-2.68a2.26 2.26 0 011.87-.94zm-20.89 4.07a1.59 1.59 0 00-.08.22c-.13 2.06-.15 1.87 1.61 1.9a4.6 4.6 0 011 .06c.15 0 .26.26.39.4-.15.1-.31.28-.47.28h-4.16c.79-1.7.28-3.44.42-5.14a1.57 1.57 0 00-.12-.78c-.33-.58 0-.64.44-.65h3c.19 0 .37.2.56.31-.19.17-.37.46-.58.49a8.64 8.64 0 01-1.61.05c-.43 0-.61.18-.61.58v1.53h1.61c.16 0 .31.17.47.26-.15.12-.29.33-.45.35-.41.11-.92.11-1.42.14zm5.21 0v2.82h-1.54a5.77 5.77 0 00.28-2.81v-2.79a5.76 5.76 0 00-.15-.79 6.44 6.44 0 011.06-.15A17.11 17.11 0 01120 93a1.88 1.88 0 011.4 1.94 1.86 1.86 0 01-1.81 1.55zm0-.63c.77 0 1.63.26 2.06-.54a1.79 1.79 0 000-1.45c-.42-.75-1.24-.65-2-.59zm12.3 3.46h-1.22c.46-1.53.14-3.06.23-4.56v-1.18c0-.86.06-.9 1-.67v6.41zM26.67 92.9c-.16 0-.45.22-.58.13a13.64 13.64 0 01-1.93-1.44c-.1-.11 0-.62.18-.7.37-.2 2.39 1.4 2.33 2.01z" id="Calque_2" data-name="Calque 2"/></svg>