<svg xmlns="http://www.w3.org/2000/svg" viewBox="0 0 453.66 327.05"><defs><style>.cls-1{fill:#1d1d1b}.cls-2{fill:#c49c53}</style></defs><path class="cls-1" d="M140.51 109.78h.11-.11z"/><path class="cls-2" d="M303.45 169.23v-22.62c0-20.15-7.1-27.2-19.9-33.13a14.09 14.09 0 00-2.3-.86L274.1 110l-1.63-.21 8.78-3.31a15.25 15.25 0 002.3-.87c12.8-5.93 19.9-13 19.9-33.12V49.82c.05 0-.05-13.45 7.4-16.66 0 0 .16-.27-.55-.27a69 69 0 00-9.88.62 14.47 14.47 0 00-7.79 3.58c-5 4.33-5.5 10.09-5.5 13.71v30.79s-.11 7.54-4.07 10.51c0 0 .56-3 .49-3V58.59c.07.06.19-14.74.19-14.74-14.85-5.58-33.7-9-55.34-9-2.33 0-4.63.07-6.92.14v7.5c2.28-.12 4.57-.22 6.92-.22a133.59 133.59 0 0130.86 3.52l1.56.35c9.78 2.37 13.28 9.32 13.28 18.64v20.64c0 12.51-9.27 19.78-19.12 19.78h-67.52c-4.13 0-7.68-2.75-7.68-7.85V60.83A15 15 0 01188 48.91c.48-.18 1-.34 1.49-.5v-9.75a124.92 124.92 0 00-19.18 5.48v60.68a7.45 7.45 0 01-3.8-6.32V48.83A14.77 14.77 0 00161 37.22a15 15 0 00-7.79-3.59 68.78 68.78 0 00-9.88-.62 21 21 0 00-2.84.37l.42.06c9.21 3.28 9.23 16.49 9.28 16.5V93a18.58 18.58 0 01-9.59 16.79c.54.19 9.59 4.93 9.59 15.65v44c-.05 0-.07 13.22-9.28 16.5l-.42.06a19.54 19.54 0 002.84.37 68.78 68.78 0 009.88-.62 15.38 15.38 0 007.79-3.58c4.52-3.65 5.5-9.74 5.5-12.84V120a8 8 0 013.8-6.33v61.29a125.22 125.22 0 0019.18 5.49v-9.76c-.5-.16-1-.32-1.49-.5a14.71 14.71 0 01-8.23-11.92v-36.59a7.37 7.37 0 017.68-7.83H255c10.08 0 19.12 8.19 19.12 18.15v22.27c0 9.71-5.63 17.51-13.74 18.76-.21 0-1.1.23-1.1.23a133.61 133.61 0 01-30.86 3.51c-2.34 0-4.64-.09-6.92-.22V184c2.29.09 4.58.16 6.92.16 21.64 0 40.49-3.41 55.34-9 0 0-.12-14.8-.19-14.75v-30.48c.07.06-.36-5.69-.36-5.69 3.35 1.68 3.94 13.22 3.94 13.22v32.88a14.72 14.72 0 005.5 11.62 17.58 17.58 0 007.79 3.59 42.66 42.66 0 009.16.64c.71 0 2.5-.31 2.5-.31-9.22-3.27-8.58-16.63-8.63-16.65m-60.11 18.04q-3.87.3-7.84.43c0 6.47.08 11.18.24 12.38 1.13 9.09 9.83 10.88 9.83 10.88a13 13 0 01-2.15-5.87c-.05-.7-.07-7.9-.08-17.82"/><path class="cls-2" d="M260.67 201.56v-16.4q-6.56 1.17-13.51 1.82v15.69s.67 7.55 4.57 11.62a11.22 11.22 0 006.46 3.59 46.7 46.7 0 008.21.61 13.6 13.6 0 002.36-.36l-.36-.06c-7.64-3.28-7.65-16.49-7.69-16.51m-50.48-100h7.61V13.85c0-5.19-9.83-6.3-9.83-6.3a12.93 12.93 0 012.16 5.87c.08 1.2.08 44 .07 88.14m-17.09-84.62v84.62h13.45l-.13-85.46s-.23-8.43-4.34-11.89c-2-1.73-4-3.19-6.46-3.59a47.61 47.61 0 00-8.21-.62 12.73 12.73 0 00-2.36.37l.36.06c7.65 3.27 7.65 16.48 7.69 16.5m67.52 16.96V16.94s-.79-13.23 6.85-16.5l.36-.06a12.86 12.86 0 00-2.36-.38 47.68 47.68 0 00-8.21.61c-2.48.4-3.73 1.61-5.62 3.59-3.9 4.08-4.57 11.62-4.57 11.62v16.25c4.62.43 9.13 1 13.5 1.81m-17.26-2.09c0-10.22 0-17.67.08-18.37a13 13 0 012.15-5.87s-8.7 1.79-9.83 10.87c-.16 1.24-.23 6.18-.24 12.93 2.65.1 5.26.24 7.84.44m17.25 112.5c0-24.57-28.34-26.42-28.34-26.42a21.55 21.55 0 013.49 11.13c0 8.44-.17 27.61-.23 44 2.64-.15 5.26-.36 7.83-.66v-35.49c0-3.66-.37-10.41-1.45-11.15 1.39.37 5 6.58 5.16 12.82.09 3.7.09 17.78.07 33.42a104.15 104.15 0 0011.18-2.14c.1 0 1.16-.26 1.42-.3a8.06 8.06 0 00.88-.2v-24.48a1.76 1.76 0 01-.06-.53m-28.29-43.24s28.34-1.86 28.34-26.42a1.76 1.76 0 01.06-.53V49.88c-.23-.06-.46-.13-.7-.18l-1.51-.34a104.27 104.27 0 00-11.27-2.17c0 15.59 0 29.59-.07 33.28-.15 6.24-3.77 12.45-5.16 12.82 1.08-.74 1.46-7.48 1.45-11.15V46.79c-2.57-.3-5.19-.52-7.83-.66.07 16.33.23 35.41.23 43.82a21.56 21.56 0 01-3.49 11.1m-39.17 16.45v84.06s0 13.23-7.69 16.5l-.36.07a13.6 13.6 0 002.36.36 47.61 47.61 0 008.21-.61c2.48-.4 4.41-1.85 6.46-3.59 4.11-3.46 4.34-11.89 4.34-11.89l.13-84.9zm24.69 55.21V117.5h-7.61c0 43.92 0 86.39-.07 87.59A12.93 12.93 0 01208 211s9.83-1.12 9.83-6.31v-17.36z"/><path class="cls-1" d="M31.1 284.21h-1c-4.09-.12-6.61-2.79-9.46-6.27L9.53 264.65l9.37-11.11c1.6-1.88 2.41-3 2.41-4a2.48 2.48 0 00-1-2.2l.07-.47h9.66l-14.53 15.95 7.49 8.54c5.34 6.24 9.27 10.26 13.15 11.95l-.29.53a27.81 27.81 0 01-4.76.37m-31-.44l-.1-.47a5.11 5.11 0 002.32-4.88v-26.19A5.11 5.11 0 000 247.35l.11-.47h10.54l.11.47a5.11 5.11 0 00-2.32 4.88v26.19a5.11 5.11 0 002.32 4.88l-.11.47zm45.09 1.37a6.93 6.93 0 01-2.68-.56l.24-.55c4.65 0 7.57-5.39 7.69-5.61l4.19-7.88-.47-.32a9.77 9.77 0 01-3.43-3.75l-9.28-15.39a8 8 0 00-4.16-3.65l.27-.41h9.37l10.3 18.73 6.47-12.87a7.24 7.24 0 00.82-3.33 2.57 2.57 0 00-1.25-2.21l.08-.46H72l-14.6 28.81c-4.46 8.47-9.12 9.45-12.25 9.45m31.93-1.37l-.08-.47a5.11 5.11 0 002.32-4.88v-26.19a5.13 5.13 0 00-2.21-4.81l.28-.54H102a12.94 12.94 0 002.14-.16v6.41a9.24 9.24 0 00-6.27-2.57H85.41v10.84l1.77-.1c2-.12 4.54-.26 6-.26 9.74 0 15.33 4 15.33 11 0 7.6-6.21 11.79-17.48 11.79zm13.37-18.65c-1.34 0-3.19.12-4.46.22h-.58v13.84l.54.07a43.87 43.87 0 005.63.38c3 0 10-.76 10-7.8 0-4.54-3.66-6.75-11.17-6.75m53.34 18.69l-.06-.43a2.42 2.42 0 001.3-3.69l-4.51-9.82h-16l-3.74 8.2c-.81 1.79-1.23 3.66 1 5.27l-.1.47h-10.26l-.09-.46c2.73-1.69 3.85-3.81 5-6.38l12.21-27.29a2.55 2.55 0 00.21-1.91 2.23 2.23 0 00-1.1-1.2l.06-.44h.78a33.18 33.18 0 014.57.2c2.4.44 4.28 2.11 5.59 5 3.12 6.83 12.35 26.95 12.35 26.95.78 1.67 1.95 4.17 4.77 5.26l.08.32zm-17.65-17.66h12.73l-6.4-14.26zm63.96 17.66l-.11-.47a5 5 0 002.33-4.88v-12.67h-22.87v12.67a5 5 0 002.35 4.9l-.07.45h-10.82l-.08-.4c2.49-1.17 2.49-3.61 2.49-4.95v-26.19a5 5 0 00-2.33-4.88l.09-.47h10.72v.43a5 5 0 00-2.38 4.92v9.12h22.87v-9.12a5 5 0 00-2.38-4.92v-.43h10.84l-.07.38a4.69 4.69 0 00-2.28 4.66v26.5c0 2.41 1 4.21 2.8 5v.35zm201.94 0l-.1-.47a5 5 0 002.33-4.88v-12.67h-22.85v12.67a5 5 0 002.35 4.9l-.08.45h-10.81l-.08-.4c2.49-1.17 2.49-3.61 2.49-4.95v-26.19a5 5 0 00-2.33-4.88l.09-.47h10.72v.43a5 5 0 00-2.38 4.92v9.12h22.87v-9.12a5 5 0 00-2.39-4.92v-.43h10.85l-.07.38a4.66 4.66 0 00-2.27 4.66v26.5c0 2.41 1 4.21 2.79 5l-.06.35zm-183.06 0l.08-.37a5.13 5.13 0 002.46-5v-26.17a5.11 5.11 0 00-2.32-4.88l.11-.47h10.54l.11.47a5.11 5.11 0 00-2.32 4.88v8.69l.68-.05c2.28-.17 5.15-.37 7.1-.37 9.74 0 15.32 4.09 15.32 11.22 0 7.77-6.2 12-17.47 12zm13.7-19.07c-1.12 0-2.75.1-4.47.26l-.57.05v14.1l.54.08a44.49 44.49 0 005.63.38c6.47 0 10-2.8 10-7.9 0-4.62-3.76-7-11.17-7m25.64.97l3.54-3.95a1.8 1.8 0 011.44-.54H269l-3.53 4a1.8 1.8 0 01-1.44.54zm27.59 18.13l-.1-.47a5.12 5.12 0 002.31-4.88v-26.19a5.17 5.17 0 00-2.69-5.13l-.17-.1v-.12l17.79-.26c7 0 11.65 3.35 11.65 8.33a7.42 7.42 0 01-4.15 6.59l-1.35.76 1.49.4c4.9 1.27 7.94 4.94 7.94 9.54 0 3.47-1.7 11.53-17.47 11.53zm14.56-18.65c-1.06 0-3.19 0-5.64.17h-.58v13.88l.55.07c2.22.26 5.44.39 6.92.39 3 0 10-.68 10-7.07 0-1.75-.81-7.48-11.28-7.48m-.25-14.41c-1.11 0-4.1.11-5.41.25l-.56.06v10.52l4.87.05a11.08 11.08 0 006.67-1.81 4.93 4.93 0 002.09-4c0-3.18-2.86-5.08-7.66-5.08m54.34 33.11v-.44a5 5 0 002.36-4.91V254l-21.18 27.74c-1.28 1.69-3.74 2-5.58 2h-4.88l.13-.34a5.05 5.05 0 002.51-5v-26.17a5 5 0 00-2.46-5l-.06-.37h11.17l-.07.38a5 5 0 00-2.45 5v24.44l20.16-26.44a8.77 8.77 0 016.33-3.35h4.77l.07.46a5 5 0 00-2.34 4.89v26.19a5 5 0 002.37 4.91v.44zm86.32.78c-15.72 0-22.89-10-22.89-19.23s7.17-19.23 22.89-19.23 22.89 10 22.89 19.23-7.16 19.23-22.89 19.23m.12-33.94c-7.76 0-16.11 4.34-16.11 13.88 0 9.16 6.53 15.55 15.87 15.55 7.76 0 16.11-4.34 16.11-13.87 0-9.16-6.52-15.56-15.87-15.56m-238.29 72.5a3.51 3.51 0 001.73 3.43H187a3.51 3.51 0 001.73-3.43v-15.66h-4.64c2.53-.93 6.37-2.81 8.49-6.37zM209.89 302c-6.86 0-10.25 4.53-10.25 8.78 0 4.42 3.43 7.54 8.67 7.54 3 0 6.2-1.28 7.5-2.92-1.36 4.51-5.55 8-11.12 9.46l-1.77 2.16c10-1.13 17.71-7.3 17.71-14.8 0-5.73-4.33-10.22-10.74-10.22zm.07 13.71c-4.22 0-6-2.77-6-5.72 0-3.84 2.9-5.18 5.62-5.18 3.92 0 6.71 2.78 6.71 7.34-.55 2.24-3.71 3.59-6.29 3.59zm49.49 11.34c6.87 0 10.26-4.52 10.26-8.77 0-4.42-3.43-7.54-8.67-7.54-3 0-6.21 1.27-7.51 2.92 1.37-4.51 5.55-8 11.13-9.47l1.77-2.16c-10 1.14-17.71 7.3-17.71 14.81 0 5.76 4.33 10.21 10.73 10.21zm-.07-13.7c4.22 0 6 2.77 6 5.72 0 3.84-2.9 5.17-5.61 5.17-3.93 0-6.71-2.77-6.71-7.33.54-2.21 3.71-3.56 6.32-3.56zm-17.72-10.8v4.25a10.62 10.62 0 00-6.15-1.44c-1.55 0-3.77.17-4.83.24l-.33 6a16.41 16.41 0 014-.48c6.79 0 9.61 3.8 9.61 7.34 0 4.35-3.65 8.56-11.87 8.56a28.18 28.18 0 01-5.2-.55l-1.81-3.73a15.87 15.87 0 006.79 1.47c5.24 0 7.76-2.64 7.76-5.31s-2.22-5-6.94-5a17.45 17.45 0 00-6.37 1.23l.8-12.64zm-112.74 19.86c-4.67 0-7.35-2.65-7.35-5.62 0-3.41 3.06-5.94 7.4-5.94 4.77 0 7.22 2.78 7.22 5.82 0 3.33-3.09 5.74-7.27 5.74zm.21-.66c2.35 0 4.25-1.42 4.25-4.78 0-2.52-1.4-5.45-4.69-5.45-2.06 0-4.31 1.22-4.31 4.78 0 2.31 1.22 5.45 4.75 5.45zm22.44-7.75c-.35-1-1.28-2.44-4-2.44s-5.26 1.51-5.26 4.93a5.15 5.15 0 005.4 5.3 4.49 4.49 0 004.32-2.49.48.48 0 01.62.06 5.64 5.64 0 01-1 2.54c-.24 0-.49.1-.72.15a14.88 14.88 0 01-3.23.4 11.18 11.18 0 01-5.28-1.11 5.08 5.08 0 01-2.93-4.6 5.17 5.17 0 012.6-4.43 11.26 11.26 0 015.7-1.42 19.48 19.48 0 013.57.37l.58.1c0 .38.08 1.37.29 2.61a.65.65 0 01-.66.03zm7.79 3.28v2.46c0 1.77.19 1.8 1.16 1.91l.62.06a.3.3 0 010 .48h-5.53c-.17-.06-.19-.36 0-.48h.29c1-.12 1.16-.17 1.16-1.94v-6.21c0-1.78-.19-1.83-1.16-1.92l-.46-.05a.33.33 0 01.05-.49c.91 0 1.88.05 2.79.05s1.83 0 2.64-.05a.32.32 0 010 .49l-.36.05c-1 .13-1.16.14-1.16 1.92v2c0 .46.06.5 1.12.5h4.83c1.06 0 1.12 0 1.12-.5v-2c0-1.78-.19-1.83-1.16-1.92l-.45-.05a.31.31 0 010-.49c.95 0 1.88.05 2.79.05s1.84 0 2.66-.05a.31.31 0 010 .49l-.37.05c-1 .13-1.16.14-1.16 1.92v6.21c0 1.77.2 1.82 1.16 1.92h.46c.14.12.12.42-.05.48h-5.53a.3.3 0 010-.48h.45c1-.1 1.16-.15 1.16-1.92v-2.46c0-.44-.06-.48-1.12-.48h-4.83c-1.06-.03-1.12.01-1.12.45zm16.12 2.89a1.13 1.13 0 11-1.36 1.11 1.22 1.22 0 011.36-1.11zm111.75 1.48l.62.06c.14.12.12.42 0 .48h-5.54a.3.3 0 010-.48h.28c1-.12 1.16-.17 1.16-1.94v-6.21c0-1.78-.19-1.84-1.16-1.94h-.32a.31.31 0 010-.49c.79 0 1.76.05 2.66.05h3.95c1.32 0 2.52 0 2.79-.05.08.28.2 1.6.33 2.33-.08.13-.5.16-.67.06-.32-1-.64-1.37-1.29-1.52a8.68 8.68 0 00-1.66-.15H287c-.89 0-.89 0-.89 1v7c-.04 1.66.15 1.69 1.12 1.8zm15.77.76c-4.67 0-7.35-2.65-7.35-5.62 0-3.41 3.05-5.94 7.39-5.94 4.78 0 7.24 2.78 7.24 5.82-.03 3.33-3.13 5.74-7.28 5.74zm.21-.66c2.35 0 4.26-1.42 4.26-4.78 0-2.52-1.41-5.45-4.7-5.45-2.06 0-4.31 1.22-4.31 4.78-.03 2.31 1.19 5.45 4.72 5.45zm11.17.8a4.11 4.11 0 00-1.31 2.12c-.15.09-.57.06-.65-.07.06-.7.29-2.87.37-3.15a3.15 3.15 0 001.82-.86c.9-.9 1.79-2.84 1.79-7 0-1.89-.08-1.94-1.29-2.06h-.33c-.13-.06-.09-.37 0-.42.88 0 1.34.05 2.18.05h6.8c1 0 1.84 0 2.66-.05a.31.31 0 010 .49l-.36.05c-1 .13-1.16.14-1.16 1.92v6.55a1.4 1.4 0 001.5 1.37c.09.28.31 2.45.38 3.15-.08.13-.5.16-.67.07a4 4 0 00-1.29-2.12 3.81 3.81 0 00-2.11-.4h-6.3a3.84 3.84 0 00-2.03.36zm8.2-9.78c0-.94 0-1-.89-1h-3.1c-1 0-1.11.3-1.11 2.15 0 6-2 7.22-2.44 7.54h6.65c.89 0 .89 0 .89-1z"/></svg>