<svg xmlns="http://www.w3.org/2000/svg" viewBox="0 0 595.28 158.74"><g id="Livello_1"><path fill="#0a447a" d="M0 0h595.28v158.74H0z"/><path id="Planeta" d="M324.11 108.66c.83.08 1.14-60.37.11-70.54-.7-4.17-7.43-3.33-9.18-3.33s-1-1.34-1-1.34c8.33-.12 18.34.61 25.15-.12 0 0 1.48.31.58 1.21s-6.89-.55-7.34 4.11c-2.1 21.4-.77 83-.77 84.69-.12 2.37-.8 4.12-2.32 2.89-6.44-5.24-59.35-62.42-66.07-72 0 0 .07 58.17.17 64 0 4.25 2.58 4.86 9.43 5.45 1.32.4 1.85 1.58.22 1.44a133.6 133.6 0 00-28-.09c-1-.32-1-1.19.34-1.41 4.14-.48 9.35-.8 9.78-4.54 1-6.69 1.17-81.56.67-86.14 0-.9.86-1.29 1.74-.13 9.94 12.94 58.38 66.72 66.55 75.83zM42.31 33.33a100 100 0 01-13.18-1.14c-1.25.28-.91 1.36.35 1.76A37.86 37.86 0 0137 35.84c3 1.7 2.38 5.16 2.69 9.31 0 0 .4 68.36-.48 74.55 0 0-1.48 4.31-9.08 4.16-1.24.53-.85.39-.85.91a25 25 0 008.07.21c9.43-1.82 13.67 1.14 21.69-.33.38-.55.49-.64-.63-1-2.81-.37-6.87.15-9.51-3.48-1.13-7.57-1.13-80.5.9-81.73 3.27-1.61 28.61-2.85 28.72 19.81.12 26.61-21.18 24.64-26.66 23.4a2.45 2.45 0 001 1.66c10.6 2 34.5-2.91 34.31-27.31 0-16.07-12.51-20.13-17.08-21.43-9.28-2.29-17.45-.5-27.77-1.23zm358.4 0s-10.52 1.23-46.9-.1c-2.15.15-1.6.87-.75 1.47 2.56.12 5-.14 7.29.88s3.66 3.58 3.79 5.69c0 0 0 54.18-.87 77.47-.18 4.53-7.48 5-11.06 5.36-.22.5-.43 1 .55 1.19a153.55 153.55 0 0118.48-.71c2.62.36 28.34.56 31.73 1 1.83.28 3.62-14.63 3.62-18.26l-.51-.44c-.64 1.23-2.11 12.58-8.72 12.19-1.66.33-16.53 1-21.91-.36a4.79 4.79 0 01-3.11-4.46c-.23-10.86.11-36.18.11-36.18l21.3.13c3.92.62 2.35 4.19 2.93 6.73l.58.22c1.5-3.09 1.32-12.88.74-12.69-3.74 1.85-25.66.85-25.66.85s-.56-34.55.93-35c5.08-.61 18.2.25 21.42.25 5.56-.13 4.53 6.46 4.66 9.22 1.6-1 1.36-14.45 1.36-14.45zm87.42.35c-23.7 1.9-55.81 1.14-72-.52.07 1.34-2.15 9.79-2.62 14.12.07.77.47 1.65 1.46.35.78-1.19 1.16-5.5 3.49-6.51 3.65-2 25.89-1.16 29.16-.65.76 7.68.76 70.56-.11 77.23-.63 4.15-3.11 5.19-8.94 6.46-2 .49-2.47 1.71.21 1.57s8.73-.89 13.23-.89c4.49.16 8.73.53 14.61.44.48-.1 1.59-.74-.55-1.42-6.59-.52-8.4-1.84-8.91-5.16-.63-3.07-.33-74.95-.06-78.23 5.31 0 17.43-.36 20.75-.17s7.22 2.34 8 6c.62 2.79 1.78 1.48 1.61.33-1.36-9 .63-12.93.63-12.93zm-363.36 0a69 69 0 00-14.28.26c-6.59-.66-12.77-.47-15 0l.39.88c8-.33 11 3.18 10.86 5.8.06 7.41.76 62-.58 78.33-1 5-4.32 4.79-9.78 5.65-1 .12-1.84 1.22-.35 1 17.93-2 51 .46 51.52-.63.79-1.82 2.74-17.67 2.34-19.21s-.86 0-.86 0c-.45 5.76-1.74 13-7.6 13-3.21.33-19.59.46-21-.11-3.52-1-4.2-3.69-4.5-6.86-2.11-21.31-.9-65.63-.1-71.72.77-5.9 5.65-5.45 8.71-5.55l.2-.77zM520 54.4l11.33 31.22h-22.81L520 54.4zm1.49-21.17s-31.07 82.25-31.58 83.49c-1.63 4.45-4.92 6.27-12.49 7.29-.87.49-1.1 1-.38 1.13 6.35-.49 11.13-1.66 23.57-.49 1.24-.15 1.36-.55.35-1.05-4.07-.12-5.84-1.76-4.84-4.92.8-2.63 9.71-24.47 11.21-28.95H533s11.47 32.45 13 35.33c0 0 14.07.55 20.66.18.64-1 .22-1.54-1-1.54-3.38.12-10.45-1.15-11.59-3.76-7.58-16.83-30.58-78.4-32.59-86.71zM195.22 54.4l11.33 31.22h-22.78l11.45-31.22zm1.47-21.17s-26.15 72.17-31.61 83.49c-2 5.44-5.2 6.24-12.8 7.25-.85.51-1.12 1-.36 1.14 6.35-.51 11.79-2.18 24.93-.19 1.25-.15 1.35-.72.34-1.22-4.08-.11-6.72-1.14-5.73-4.34.78-2.59 7.7-21.79 11.08-29.63h25.73S220.64 125 222 125a183.23 183.23 0 0119.89.26c.64-1 .27-1.54-1-1.54-3.36.12-10.44-1.15-11.55-3.76-7.61-16.83-30.59-80-32.63-86.71z" fill="#fff"/></g></svg>