<svg xmlns="http://www.w3.org/2000/svg" viewBox="0 0 297.51 187.77"><defs><style>.cls-2{fill:#dcb541}</style></defs><g id="Livello_1"><path d="M107.23 130q-8.52-6.79-22.76-6.8A36.85 36.85 0 0070 125.84a27.89 27.89 0 00-11 7.48 14.36 14.36 0 00-3.93 10 14.75 14.75 0 004 10 27.77 27.77 0 0011 7.39 39.09 39.09 0 0015.05 2.63 38.18 38.18 0 0014.88-2.62 27.54 27.54 0 0010.94-7.43 14.27 14.27 0 003.89-9.95q-.05-7.45-7.6-13.34zm-9.61 26.74c-3.09 3.37-7.31 5-12.64 5s-9.35-1.67-12.49-5-4.68-7.82-4.68-13.38q0-10.07 6.69-15.28c2.77-2.17 6.43-3.24 11-3.24a16.74 16.74 0 017.19 1.64 15.39 15.39 0 017.08 6.52 20.06 20.06 0 012.52 10.11q0 8.58-4.67 13.61zm176.2-32.8v1.64q6.31 0 9 3.17 1.6 1.82 1.61 5.67v17.33l-33.59-27.81h-19.93v1.64h.65a14.32 14.32 0 017 1.42 4.26 4.26 0 012.29 4.36v20.9c0 2.68-.41 4.52-1.23 5.49A7.86 7.86 0 01236 160a17.59 17.59 0 01-5.92.94v1.69H254v-1.69q-6.41 0-9.23-3.12c-1.07-1.22-1.6-3.1-1.6-5.67v-22.97l41.3 33.43h2.25v-28.33q0-4 1.16-5.49a8.69 8.69 0 013.79-2.27 17 17 0 015.88-1v-1.64zM39 157.8q-4.63 3.12-11.9 3.12H11.7l18.83-18.76 15.64-16.66v-1.58H3.56V137h2q2.84-11.52 18.76-11.51H34.6l-15.7 16.67L0 160.85v1.76h48.28v-13.48h-2.77A16.62 16.62 0 0139 157.8zm152.55-32.24h5.23a5.08 5.08 0 012.83.74 3.73 3.73 0 011.61 2 12.2 12.2 0 01.58 2.07 9.76 9.76 0 01.2 1.63v22.49a7.28 7.28 0 01-1.43 4.54 4.46 4.46 0 01-3.74 1.87h-5.23v1.69h31.19v-1.69h-5.22c-3.41 0-5.1-2.14-5.1-6.41V132a7.54 7.54 0 011.38-4.56 4.33 4.33 0 013.72-1.9h5.22v-1.64h-31.23zm-30.88 0q6.33 0 9 3.17 1.6 1.82 1.6 5.67v17.33l-33.6-27.81h-19.89v1.64h.65a14.28 14.28 0 017 1.42 4.3 4.3 0 012.31 4.36v20.9c0 2.68-.43 4.52-1.25 5.49a7.81 7.81 0 01-3.67 2.25 17.57 17.57 0 01-5.93.94v1.69h23.93v-1.69q-6.41 0-9.24-3.12c-1.06-1.22-1.61-3.1-1.61-5.67v-22.95l41.31 33.43h2.26v-28.33q0-4 1.15-5.49a8.75 8.75 0 013.79-2.27 17.17 17.17 0 015.89-1v-1.64h-23.7z" fill="#1d1d1b"/><path class="cls-2" d="M116.84 110l-5.71-8.47h-1.53v9.86h1.57v-7.13l4.8 7.13h1.74l4.8-7.13v7.13h1.57v-9.86h-1.54zm-55.66 1.39h1.57v-4.24h10v-1.35h-10v-2.92h10v-1.35H61.18zm76.51 0h1.57v-9.86h-1.57zm-48.61-9.86l-6.64 9.86h1.79l1.23-1.8h9l1.24 1.8h1.79l-6.64-9.86zm-2.73 6.71l3.59-5.32 3.59 5.32zm69-4.73a9.33 9.33 0 014-.63 12.8 12.8 0 012.82.24 3.66 3.66 0 012.26 1.34l1.43-.58c-1.05-1.57-3.21-2.35-6.51-2.35a10.45 10.45 0 00-5.09 1 4.75 4.75 0 000 7.87 10.55 10.55 0 005.09 1 11.1 11.1 0 004.93-.9v.9h1.57v-5.6h-6.58v1.35h5v1.53a4.08 4.08 0 01-2.25 1.18 8.45 8.45 0 01-1.16.15c-.44 0-1 .06-1.52.06a9.49 9.49 0 01-4-.63 3.48 3.48 0 010-5.93zm48.15 7.88h1.56v-9.86h-1.56zm22.1-9.86h-1.75l-6.63 9.86h1.79l1.24-1.8h9l1.24 1.8h1.8zm-4.46 6.71l3.58-5.32 3.59 5.32zM181 101.53h-1.57v9.86H191v-1.32h-10zm77.3 81.55c-2.91 0-10.17 0-19.57-.57a96.92 96.92 0 01-9.8-.91 3 3 0 00-1.65 0c-2.3.55-4.15 1-5.92 1.29-.94.18-1 .2-1 .3s.07.12 1 .31c1.77.33 3.62.73 5.92 1.29a3.18 3.18 0 001.65 0 95.9 95.9 0 019.8-.92c9.4-.57 16.66-.56 19.57-.56 1.11 0 1.11-.23 0-.23zm-160.91-5.76h-6.51v10.28h6.83a5.75 5.75 0 003.84-1.36 4.73 4.73 0 001.66-3.67c0-3.18-2.21-5.25-5.82-5.25zm.46 8.73h-5.27v-7.18h5a3.54 3.54 0 013.83 3.66 3.38 3.38 0 01-3.56 3.52zm17.15-8.73l-5.44 10.28h1.86l1.2-2.3h6.91l1.19 2.3h1.86l-5.43-10.28zm-1.55 6.43l2.63-5 2.61 5zm-35.23-.86c-1.78-.33-3.63-.74-5.93-1.29a3 3 0 00-1.65 0 96.61 96.61 0 01-9.79.91c-9.4.58-16.67.57-19.58.57-1.11 0-1.11.23 0 .23 2.91 0 10.18 0 19.58.56a95.59 95.59 0 019.79.92 3.18 3.18 0 001.65 0c2.3-.56 4.15-1 5.93-1.29.94-.18 1-.21 1-.31s-.06-.11-1-.3zM188.55 184c1-.33 2-.5 3-.79 1.83-.51 2.71-1.36 2.71-2.79 0-1.88-1.86-3.27-4.58-3.27a8.09 8.09 0 00-5.13 1.83l1.08 1.14a6.16 6.16 0 014-1.43c1.77 0 2.77.66 2.77 1.61a1.21 1.21 0 01-.74 1.11 21.59 21.59 0 01-3.32 1.05c-2.8.88-4.16 2.5-4.28 5.1h10.44v-1.55h-8.42a3.82 3.82 0 012.47-2.01zm-14-1.84a2.28 2.28 0 001.82-2.13c0-1.76-1.72-2.86-4.8-2.86s-4.76 1.1-4.76 2.86a2.28 2.28 0 001.82 2.13c-1.65.46-2.53 1.41-2.53 2.53 0 1.88 1.93 3 5.49 3s5.48-1.16 5.48-3c0-1.08-.87-2.03-2.52-2.49zm-6-2.11c0-.91 1-1.36 3.08-1.36s3.07.45 3.07 1.36-1 1.49-3.07 1.49-3.12-.54-3.12-1.45zm3.08 6.12c-2.45 0-3.71-.58-3.71-1.62s1.24-1.63 3.71-1.63 3.71.55 3.71 1.63-1.29 1.66-3.75 1.66zm-39.77-8.89h-1.7v10.32h9.64v-1.55h-7.94zm69.78.94v1.47l1.64-.71v8.58H205v-10.24h-1.69a4.64 4.64 0 01-1.71.94zm-47 0v1.47l1.65-.71v8.58H158v-10.24h-1.69a4.64 4.64 0 01-1.71.94zM61.66 81.8h.44c0-.64.53-2.82-.31-2.9-.04.92-.09 1.88-.13 2.9zm-3.77-7.87a4.35 4.35 0 002.11-.24 2.93 2.93 0 01-.2-.32c-.69.09-1.29.15-1.93.24-.01.14 0 .22.02.32zm1.41-1.3c-.38-.09-.48 0-.62.34.41.03.48.03.62-.34zm-1.7 2a2.8 2.8 0 002.45-.33c-.21-.46-2.21 0-2.57.23.04.13.08.15.12.14zm-1.68 3.27c-.25-.63-2.12 0-2.38.4a8.48 8.48 0 002.38-.36zm-2.2-.9l-.1.11a2.71 2.71 0 01.22.29c.61-.21 1.21-.24 1.79-.45-.32-.6-1.44-.06-1.91 0zm4.12 7.24c.18-.54-.15-1-.19-1.59a1.74 1.74 0 01-.36.16c0 .37 0 .69.08 1s.14.43.47.43zm1.79-7c-.15.13-.24.23-.35.33a.67.67 0 00.51.45c.08-.12.17-.24.26-.39-.15-.15-.28-.27-.42-.41zm-1.54 1.27c-.31-.12-.41 0-.49.32.4-.03.4-.03.49-.34zm1.19-1.57c-.12-.07-.14 0-.14 0a2.86 2.86 0 00-1.48.11v.31l1.34-.17zm.14 1.66c0-.55-.21-.67-.65-.5-.19.37.33.83.65.48zm.39 4.7a.58.58 0 00-.61 0s.09-.1-.06 0 0 .18 0 .29.18.07.29.11c.1-.16.34-.15.38-.42zm-.25-3.57h-.44a1.75 1.75 0 00.29 1.44c.39-.52.08-.97.15-1.46zm-2.19 4.12c0-.33 0 .33 0 0zm5.05-8.31c.07-.53-.07-.89-.4-1a.79.79 0 00.4.98zm-1.21-.26c.14.34.24.95.7.6-.11-.27-.21-.55-.3-.81-.24-.07-.36-.02-.4.19zm-.61.72c.07.23.19.37.49.29v-.46c-.32 0-.32 0-.49.17zm.23 3a6.83 6.83 0 000 2.59H61a5.67 5.67 0 00.19-2.59zm-4.18 8.27l.17.3c1.48-.39 3.74.12 4.7-1.34a1.15 1.15 0 00-.94.34c-1.11.73-2.69.49-3.93.72zm0-4.54l-.11.07c-.09.44.16.84.18 1.29h.33a1.31 1.31 0 00-.41-1.34zm2.23-5.12a1.13 1.13 0 00-1.07.08c.11.63.92.4 1.06-.06zM54 74.82v.4h.48v-.4zM48.3 85l.5-.16c-.07-.28-.11-.51-.15-.72h-.13c-.12.09-.24.21-.37.33zm2.28-3.51zm-3.22 3.24l.29.14c.1-.13.2-.23.3-.37-.08-.17-.06-.38-.25-.44h-.09c-.09 0-.09.06 0 .06a.5.5 0 00-.25.59zm2.13-1.35l.44-.12c-.25-.33-.46-.59-.67-.84 0-.05-.14 0-.29-.06.03.47.34.64.52 1zm-.23-1c.21.25 0-.05 0 0zm-1.21 1.21v-.25c-.32-.15-.42-.11-.51.06l-.08.12c.22.16.45.22.59.09zm28.76-16.5c-.12-.58.1.59 0 0zm-6.71-2.5c.12.44.07.23 0 0 .67 2.51 4.42 3.37 8.38 4.72A7.3 7.3 0 0082 70.53c-.56-1.25-6.43-2.12-4.4-4.66l.47-.12a1.06 1.06 0 00.17 1.14l.38.18c1.24-.28 1.3-.85.89-1.61a1.65 1.65 0 00-2.72 1.65 3.05 3.05 0 00.66 1.35c-2.74-1.35-8.62-2.45-6.22-5.93l.77-.23a1.67 1.67 0 00.39 1.77l.63.25c1.92-.57 1.94-1.49 1.23-2.65-2.18-1.8-4.79.43-4.14 2.9-.11-.22-.11-.43-.01.02zm-23.36 20c-.07 0-.19-.07 0 0l.19-.1c0-.23 0-.45-.08-.71h-.38a.55.55 0 00.27.8zm-1.83-1.09v.42l.37-.11c-.06-.23-.12-.37-.37-.31zm1 0a3.06 3.06 0 01-.32.26l.27.47c.42-.23.36-.38.05-.71zm2.6-.78l-.25.23c.09.26.18.47.44.55 0 0 0 .06.14.06s0-.15 0-.15a.64.64 0 00-.33-.67zM50.34 84c-.09.07-.22.14-.32.21 0 .33.68 1.16 1 1.07a2.26 2.26 0 00-.55-1.18c0 .07.09.15 0-.06-.01-.04-.05-.04-.13-.04zm.66-2.45c.16.28.29.47.64.43 0-.11 0-.24.05-.36-.15-.15-.3-.28-.48-.44zm-.83 0c.35.54.55.66.91.47a5.43 5.43 0 00-.51-.55c-.14-.12-.31-.11-.39.08zm-1 3.43h.34c.07-.14.15-.25.22-.37-.08-.2-.15-.37-.25-.64a5.45 5.45 0 00-.44.39c.08.25.12.43.17.64zM54 76.4c.27-.07 1.31-.14 1.17-.65a2 2 0 00-1.45.39 2.64 2.64 0 00.28.26zM49.55 82s.76 1 .92.45l-.78-.7a2.18 2.18 0 00-.14.25zm2.94 2.82c-.35.29-.14.65-.18 1h.43c-.06-.38.17-.75-.25-.99zm-.14-1.66c-.19.35-.19.35-.1.7l.39.25c0-.12.1-.2.14-.3-.14-.19-.26-.38-.43-.64zm-1 2.21l.3.23.39-.58-.49-.2c-.03.18-.09.38-.16.56zm-.09-1.64c-.2.6-.11.78.41.88a1.11 1.11 0 00-.13-.84zm1-3.25c-.3.11-.3.11-.52.43a2.56 2.56 0 01.11.24c.36 0 .47-.22.43-.49.04 0 .05-.04-.01-.17zm10.36 7.93c-2.62-.28-5.32-.8-8-.83a20.66 20.66 0 01-6.86-1.79c-1.74-.67-2.64-.78-1.8-.3 3.27 1.93 7.2 1.54 9.79 4.55.11-.07.22-.14.39-.23a9.4 9.4 0 00-1.26-1.54c2.54-.21 5 .81 7.62.72a.46.46 0 00.1-.5s.09.02.03-.07zm28.46-4.08c.36.72 0-.18 0 0zM79 78.54c0-.15.61-1.11.53-1.29-1.33-.3-2.9 2.37-3.14 3.35a3.93 3.93 0 002.34 4.4 2.18 2.18 0 00.25-.22l-.51-.63c-.07-1.11 1-1.88 1-3 0-.85-.71-1.71-.53-2.54zm10.61 5.92a5.9 5.9 0 00.37 1.83l.33-.21c-.09-.58-.18-1.1-.26-1.66a3.13 3.13 0 01-.48.04zm1.52-.71c-.41.07-.41.07-.42.54.22.49.09 2.16.67 2.3a3.36 3.36 0 00-.25-2.25zm1-.8c-.52.44.11 4 .72 4a6.12 6.12 0 00-.37-2.79 1.64 1.64 0 00-.37-1.16zm1.65 8.88c.06.07.12.13.23.27l.16-.37c-.17-.12-.3-.03-.41.1zm-1.3-7.66c.29.59 0-.5 0 0zm-29.83-9.58c-.06-.22.06.21 0 0zm19.78 10.66c-2 1.06-4.27 1.28-6.42 2v.49c1.13.65 6.19-1.12 7-2l-.28-.42zM63.06 75.08a1.23 1.23 0 00-.19-1.08.45.45 0 00-.22.6c.06.2.09.45.41.48zm9.18 13c-.81-.78-4.73-.09-5.33.57.52.74 4.62-.2 5.49-.4-.06-.19-.13-.2-.16-.16zm10.1-.92c-1.09-.32-4.79 2.84-4.24 4.12l.28.07c.55-.49.82-1.61 1.4-2.23.76-.8 2-1 2.71-1.94-.16-.11-.18-.06-.15-.01zm15.48-.39c.15-.06.29-.1.47-.19-.35-.74-.08-1.48-.4-2.13s-.07-1.4-.36-2c-.75.14.05 3.78.29 4.33zM74.9 85.56c-.05-.1-.09-.16 0 0zm20.52 4.06c-.19.36 1 2.24 1.34 2.14a3.92 3.92 0 00-.85-1.52 1.11 1.11 0 00-.49-.62zm1.47-2.79a14.69 14.69 0 01-.33-2.29 16.43 16.43 0 01-.34-2.23c-.75.15-.14 4.4.32 4.75zm-1 3.41c.3.27-.11-.29 0 0zm.27-1.15c-.23.36 1 2.36 1.44 2.53a.53.53 0 01.11-.14 20.25 20.25 0 00-1.33-2.07s.03-.03-.2-.32zm1.27.46c.44.55 0-.1 0 0zm-3.73-6.3c0 .08 0 0-.16-.64-.55.4.09 4.14.64 4.67l.25-.14a29.65 29.65 0 00-.71-3.89zm3.17 5.43l-.17.1c.25.48 1.25 2.75 1.76 2.48a13.38 13.38 0 00-1-1.71c-.13-.22-.31-.75-.57-.87zm-2.57 2.4c.24.32.31.7.62 1l.16-.2-.52-.88a1.83 1.83 0 00-.24.08zm.84-.43c.37.33 0-.1 0 0zm-.58-8.19c.07.89.21 4.9 1.17 4.8a25.86 25.86 0 00-.53-3.19c-.06-.4 0-1.32-.33-1.66zm.44 7.85c-.22.14-.22.14-.13.41s.55 1.21.93 1.16a2.18 2.18 0 00-.67-1.23zm.19-6.24c.32 1.11 0-.2 0 0zm-41.61-5.28c0 .13 0 .25.05.43.47-.07 2.15-.18 2.32-.66-.06 0-.11-.11-.14-.1zM57 80.14l-.27.22c.31.51.83.58 1.19.85.16-.08.26-.16.18-.37-.42-.1-.62-.42-1-.62a.622.622 0 00-.1-.08zm.56-4.52a6.5 6.5 0 002.44-.36c.05-.48-1.91-.13-2.42 0h-.12c-.12 0 .01.23.05.36zm2.54 5.64a.79.79 0 00.2 0 2 2 0 000-1.62s0-.12-.09-.24c-.29.38-.38 1.72-.16 1.86zm-3.77-.07c.11.26.21.44.5.4.11-.35.09-.41-.34-.59zm-.53 2.16a1.21 1.21 0 00.22.92h.33c-.06-.43-.11-.8-.19-1.29zm0-.7c-.27-.65-.45-.78-.82-.55a.74.74 0 00.51.65c.04.06.15.07.23-.1zm-.31.1c-.28-.12.12.06 0 0zm3.23-3.37l.14-.06a.78.78 0 00-.42-.59A3.5 3.5 0 0058 79c.31.4.42.49.64.38zm-.72.92c.15-.28-.14-1.13-.53-.79-.01.49.05.62.53.79zm.53 3.89l.26-.23a1.51 1.51 0 00-.3-1.09 2.11 2.11 0 01-.41.12c.28.32.12.76.34 1.07-.05-.06-.09-.06.14.13zm1.95-7.72c-.28-.12-.31.1-.43.27.1.11.18.22.28.34.08-.08.08-.11.06-.11a.66.66 0 00.12-.5zm-2.19 4.08a.38.38 0 010 .1l.37.11c0-.22 0-.31-.17-.33s-.1.08-.17.12zm-5.24 2.59c.29.54.29.54.59.74.22-.41-.09-.68-.23-1.07zm2.73-4.68zm-1.56 4l-.32.26.5.74.47-.17c-.21-.29-.21-.68-.62-.84zm3.24-6a6.93 6.93 0 002.37-.25c-.13-.17-.23-.26-.28-.33-.31-.01-2.21-.01-2.06.53zm-1.7 3a4.17 4.17 0 00-2.12.46c.14.31.33.39.69.27a3.89 3.89 0 011.43-.38zM63 79l-.29-.09c-.2.46-.41 2.6 0 3 .12-.06.13-.08.11-.11.5-.46.23-2.28.18-2.8zm-9.41 6l-.33-.05c-.14.68-.09 1 .23 1.14a1.14 1.14 0 00.11-.92s.05-.11.02-.24zm.41-2.55V82c-.37-.08-.38-.07-.51.34zm.9 3a3.6 3.6 0 00.16.39c.13-.09.19-.15.31-.24-.16-.19-.25-.3-.51-.15zm-1-3.69c.35 0 .67.09.94-.34a1 1 0 00-.84 0h-.12c-.12 0 0 .23 0 .34zm.1 3.32c0 .34-.13.69.11 1 .34-.19.3-.5.39-.83-.09-.09-.16-.19-.25-.29zm1.15-1.63c-.09.09-.2.17-.3.26.07.3.24.31.45.27.14-.32.14-.32-.13-.53zM54.47 81c.2-.36.92-.1 1-.58-.45-.25-1.07.06-1.48.31A.27.27 0 0054 81zM75 85.63v-.07c-.65-1-1.6-2.1-1.74-3.35-.13-1.1.56-1.74.73-2.71-1.93 0-2.48 4.08-2.2 5.37.21 1.13 1.79 4.7 3.21 4.76a3.57 3.57 0 000-4c.09.25.25.5 0 0zM203.25 71.2a1.07 1.07 0 00-.14-.38l-1.58-1.89h-.11l-.12.32c.12.34 1.39 2.2 1.95 1.95zm-1-7.79c-.34.08-.1.78.16.8.14-.19.09-.4-.09-.66-.02-.01-.03-.04-.11-.14zm-.3.76c-.11.21-.11.22.1.43.12-.18.08-.32-.14-.43zm1.24 3.36l.11.12zm-1.39-2.84a1 1 0 00-.22.36c.08.08.16.14.23.22a.47.47 0 00.06-.64c-.1.02-.11.05-.11.06zm2.43 5.92a14.87 14.87 0 00-2.23-2.55s0-.06-.16-.12l-.06.38c.69.86 1.33 1.67 2 2.47.22.09.34-.01.41-.18zm-1.4-6.76c.19-.29-.08-.85-.14-1.14h-.23v.48c.08.18.03.53.33.66zm-1.78 8l.36-.05v-.16c-.19-.26-.72-1.5-1.19-1.1-.01.58.65.75.78 1.33zm2.07-1.09c-.42-.44-.12-.12-.04.02zm-2.81 1.44a2.09 2.09 0 00.28-.17c-.25-.33-.32-.79-.89-.88-.14.61.41.71.57 1.07zm2.11-.74a.53.53 0 00-.07-.2l-.09-.12L201 69.6c-.48.61.76 2.32 1.38 1.88zm-.16-.32l.09.12c-.35-.32-.22-.21-.13-.1zm2.44-9.2c0 .44.35.79.35 1.29h.31c0-.38-.57-2.6-1-2.5 0 .44.33.79.36 1.22-.07-.11-.07-.19-.06.05zm.53 7.92a18.35 18.35 0 00-1.93-2.23c.05.06.06.08-.11-.12a2.12 2.12 0 00-.43-.72 4.4 4.4 0 00-.39.29c.19.48 2.32 3.52 2.82 2.8zm1.42-7c.54-.2-.47-2.46-.67-3l-.19.06c-.09.28.19.77.27 1a14.26 14.26 0 00.55 2zm-.76.07h.25c.16-.32-.66-2.83-1.12-2.7a9.24 9.24 0 01.43 1.32 8.87 8.87 0 01.4 1.45zm.78-2.84a18.25 18.25 0 00.65 2.35h.18c.16-.44-.5-2.69-.93-2.76.03.47.05.52.06.47zm-7.51 8.29c-.14 0-.42.06 0 0a7.42 7.42 0 011 0v-.46c-.49 0-3.68.26-3.69.79a11.11 11.11 0 002.65-.27zm5.28-5.1h.18c.21-.44-.48-1.85-.63-2.28l-.22.18c.25.66.36 1.34.64 2zM206 61c0-.12.13.7 0 0zm0 8.06c-.28-.42-.37-.51-.36-.47-.68-.9-1.43-1.71-2.07-2.65l-.38.26a20.5 20.5 0 002.49 2.94zm.72-1.21c-.78-.93-1.5-1.77-2.25-2.68-.76.62 1.45 2.4 2 2.93zM208 65.1c.14-.2.13-.42-.12-.81a.39.39 0 00-.56.17 1 1 0 00.61.77c.07-.06.07-.1.07-.13zm-.34.68c-.08-.24-.11-.26-.12-.22a8.63 8.63 0 00-.82-1.09l-.41.12c.33.43.64.79.95 1.19zm-1 .09c0-.07-.16-.2 0 0a12 12 0 00-1.1-1.15l-.31.18c0 .58 1.34 1.68 1.79 1.91a.79.79 0 00-.41-.94zm-2-3.91c-.01.1 0 .24 0 .04zm3.71-1.96c-.05-.1 0 .49 0 0zm.48 1.32c.28-.24-.25-1.14-.26-1.47s-.13-.24-.39-.17a2.55 2.55 0 01.17.32 2.16 2.16 0 00.48 1.36zM197.16 75h.1c.07-.26 0-.45-.21-.55-.3.05-.17.49.11.55zm10.41-14.64c-.14-.28 0 .4 0 0zm-10 10.46c.43-.08 1.76-.07 2-.62a7.1 7.1 0 00-2.5.31c.19.33.29.36.55.31zm12-10c0-.41-.21-.71-.29-1.11l-.25.09c.1.34.19.65.3 1zM208.12 62c.33-.2-.29-2.32-.69-2.43a1.13 1.13 0 00.14.78 4 4 0 00.55 1.65zm35 22.55l.18.1c.24-.11.12-.08.05 0a.55.55 0 00.22-.72 2.56 2.56 0 00-.37 0c-.01.14-.04.36-.07.59zm-32.93-24.78c-.15 0-.25 0-.29.16s0 0-.05.08l.38.12c-.02-.13-.03-.26-.04-.36zm3.1 7.34c-.1.59.12-.58 0 0zm-4.46-2.93v-.13l-.42.19c.11.12.16.21.24.3a.29.29 0 00.18-.36zm2.62 2.89l.39-.18a1 1 0 00.16-1.14l.48.12c2 2.54-3.84 3.41-4.4 4.66a7.27 7.27 0 003.52-1.2c4-1.35 7.69-2.21 8.39-4.71-.06.22-.11.4 0 0s.06-.26 0 0c.63-2.46-2-4.66-4.14-2.87-.72 1.16-.69 2.08 1.23 2.65l.64-.25a1.71 1.71 0 00.38-1.77l.73.23c2.4 3.48-3.48 4.58-6.22 5.93a3.07 3.07 0 00.67-1.35 1.65 1.65 0 00-2.73-1.65c-.4.68-.33 1.25.9 1.53zm-13.13-3.28a3.32 3.32 0 00-1.54.1c.32.32 1.47.6 1.54-.1zm-.62 7.82a2.73 2.73 0 001.32-.36c-.19-.47-1.61-.11-1.79.26.16 0 .31.13.42.11zm1.18-6.6l.3-.37a5.75 5.75 0 00-2.73.33c.02.7 2.08.11 2.43.03zm.84 4a9.61 9.61 0 00-3 .55c.05.33.31.25.47.23a8.71 8.71 0 002.7-.55 1.53 1.53 0 00-.17-.24zm-.6-.6zm-2.77-2c.45.3 3.12-.08 3.29-.65 0 0 .06 0 0-.09-.43-.22-3.22.33-3.29.76zm3.22 1a2.12 2.12 0 00.38-.13c0-.31 0-.31-.28-.49a8.4 8.4 0 01-2.81.54c-.37-.1-.46-.06-.51.41a25.1 25.1 0 003.22-.34zm-2.07-4.33c-.17-.1-.32-.27-.55-.07 0 .34 0 .34.53.39 0-.11.02-.22.02-.33zm.2 9.76a.82.82 0 00.57-.54s.06 0 .07-.16a.86.86 0 00-.7.12c.01.17.03.36.06.57zm.27 1.6c-.16-.46-.23-.52-.59-.48 0 .15.05.28.09.43zm.85-1.25c0-.13.05-.26.06-.39l-.29-.21c-.38.1-.22.5.13.56-.01.01.01.03.1.03zm-.3.5c-.2-.2-.44-.59-.73-.26.17.15.33.3.54.52zm1-1.05c0-.14.06-.27.09-.41-.17-.13-.31-.26-.5-.4-.09.08-.19.15-.27.23.34.47.34.47.71.57zM91.08 71.25a2.7 2.7 0 001.32.36c-.11 0-.28 0 0 0a1.24 1.24 0 00.43-.11c-.13-.36-1.57-.72-1.75-.25zm-4.78-.46c.66-.8 1.3-1.61 2-2.47 0-.06 0-.2-.07-.38-.12.06-.16.1-.16.12a14.87 14.87 0 00-2.16 2.55c.09.17.18.27.39.18zm2-6.16a.48.48 0 000 .64l.23-.22a1 1 0 00-.21-.36s.01-.04-.04-.06zm-.39-1.22c-.08.1-.09.13-.08.14-.17.26-.22.47-.08.66.25-.02.48-.72.14-.8zm.2 1.19c.21-.21.21-.22.09-.43-.2.11-.26.25-.11.43zm-1.9-1.12a2.44 2.44 0 00.5-1.9c-.39.22-.5 1-.56 1.46-.05.12-.15.28.04.44zm1.26-.77c-.07.29-.33.85-.14 1.14.3-.13.25-.48.4-.67v-.48zm-3.66 1.88l-.41-.12a7.69 7.69 0 00-.81 1.09l-.13.22h.41c.3-.4.59-.78.92-1.19zM86.13 63c0-.23 0 .12 0 0zm-1.24 1.84l-.29-.18a10 10 0 00-1.11 1.15c.13-.18 0 0 0 0a.77.77 0 00-.36.92c.41-.17 1.78-1.27 1.76-1.85zm2 1.33c-.16-.11-.25-.18-.39-.26-.63.94-1.38 1.75-2.06 2.65 0 0-.08.05-.36.47l.32.08a20.5 20.5 0 002.49-2.9zm-1.28-1l-2.26 2.68.28.25c.53-.52 2.74-2.3 1.98-2.92zm2.16 1.92l-.39-.29a2.53 2.53 0 00-.44.72 21.51 21.51 0 00-2 2.35c.47.73 2.6-2.31 2.83-2.77zm-5-2.64a.39.39 0 00-.56-.17c-.26.39-.26.61-.12.81 0 0 0 .07.06.13a1 1 0 00.64-.76zM81.73 60c0-.1.09-.2.16-.32-.25-.07-.25-.07-.39.17s-.54 1.23-.25 1.47a2.22 2.22 0 00.48-1.32zm0 0c0 .49 0-.1 0 0zm.27 2a3.77 3.77 0 00.56-1.65 1.13 1.13 0 00.14-.78c-.43.08-1.06 2.2-.7 2.43zm.56-1.65c0 .4.14-.28 0 0zm-1.26 3.86a.29.29 0 00.19.36c.07-.09.13-.18.23-.3-.15-.08-.26-.12-.41-.19-.06.06-.06.08-.04.1zm4.26-.82h.14l.06-.09c.27-.65.39-1.33.64-2l-.22-.18c-.18.39-.88 1.8-.65 2.24zm-4.46-3.61l-.25-.09c-.08.4-.32.7-.3 1.11h.24c.12-.37.21-.68.31-1.02zM84 63h.26a8.81 8.81 0 01.42-1.35 10.69 10.69 0 01.43-1.32c-.45-.14-1.27 2.37-1.11 2.67zm1.09.23c0-.5.35-.85.35-1.29 0-.43.34-.78.36-1.22-.45-.1-1 2.12-1 2.5zm-1-2.24c-.13.7 0-.12 0 0zm-.58 1.91a15.9 15.9 0 00.57-1.9c.08-.23.36-.72.27-1h-.18c-.17.46-1.17 2.72-.67 2.92zm-.87-.41h.19a16.4 16.4 0 00.65-2.35c0 .05 0 0 .09-.4-.43.08-1.09 2.33-.94 2.77zm6.91 9.54l.29.17c.16-.36.7-.46.61-1-.58.06-.65.52-.91.85zM90 68.4a7.48 7.48 0 01.95 0c.45.07.17 0 0 0a11 11 0 002.68.29c0-.53-3.2-.8-3.69-.79.06.2.06.33.06.5zm.14-1.13a2.12 2.12 0 00.38.13 24.89 24.89 0 003.23.33c-.07-.47-.15-.51-.53-.41a8.34 8.34 0 01-2.8-.54c-.27.22-.27.22-.27.49zm.27-1.58v.09c.17.57 2.84 1 3.29.65-.02-.43-2.81-.98-3.28-.74zm.12 6.94c.38-.1.38-.1.69-.58a3.23 3.23 0 00-.27-.23l-.5.4c.04.14.06.27.09.41zm-1.93-3.74c-.54.65-1.09 1.28-1.63 1.93a1.07 1.07 0 00-.13.38c.55.25 1.83-1.61 2-2 0-.1-.08-.21-.11-.32zm2.31-4.25l.3.37c.35.07 2.41.66 2.43 0a5.75 5.75 0 00-2.72-.37zm.46 8.5c.34-.06.5-.46.12-.56-.07 0-.17.14-.28.21l.06.39c.1 0 .12-.02.11-.04zm112.06-9.87a3.37 3.37 0 01-.31-1.13h-.32c.12.4.13 1.2.49 1.5.2-.13.21-.25.15-.37zM93.14 63c-.22-.2-.38 0-.54.07v.32c.51-.05.51-.05.54-.39zM204 63c-.05-.42-.16-1.24-.55-1.46a2.44 2.44 0 00.5 1.9c.15-.12.05-.28.05-.44zm-117.21.6c.37-.3.38-1.1.5-1.5h-.32a3.37 3.37 0 01-.31 1.13c-.06.16-.05.28.13.37zm5 .19c.07.7 1.21.42 1.53.1a3.27 3.27 0 00-1.54-.1zm1.3 6.68a7.16 7.16 0 00-2.5-.31c.18.55 1.52.54 2 .62.09 0 .06 0 0 0 .2.05.3.02.49-.31zM204 63c0 .12 0-.23 0 0zM87.79 71.28l.06-.08c.15-.12.24-.31-.06.08zm.95.38v.16l.36.05c.13-.58.79-.75.84-1.31-.49-.4-1.02.84-1.2 1.1zm-.89-.46l-.06.08a.39.39 0 00-.06.2c.6.44 1.86-1.27 1.4-1.88zm-.85-.38c.54-.65-.08.1 0 0zm6.4-1.23a9.63 9.63 0 00-3-.55 1.64 1.64 0 01-.16.23 8.83 8.83 0 002.71.55c.12.02.38.1.43-.23zm-1 3.24c0-.21 0-.4.06-.58a.86.86 0 00-.7-.12c0 .13 0 .16.07.16a.84.84 0 00.57.54zm.32 1.17c-.36 0-.44 0-.59.48l.49-.05c.04-.2.07-.33.1-.43zm.22 1c.28 0 .41-.46.11-.54-.25.1-.29.29-.22.55.09-.01.11-.01.11-.01zm-.64-1.54c-.29-.33-.52.06-.72.26l.18.26c.24-.26.38-.41.54-.56zM80.2 59.93c0-.11-.14-.15-.3-.16a3 3 0 010 .36l.38-.12c-.05-.1-.07-.1-.08-.08zm154.49 22.82zm1.89 3.25c.32-.19.36-.46.22-1.14l-.32.05v.17a1.18 1.18 0 00.1.92zm4-4a2.07 2.07 0 01-.15-.25l-.78.7c.14.55.94-.45.91-.45zm-.48 2.2c-.11-.07-.23-.14-.32-.21s-.12 0-.12 0c-.15.21-.09.13 0 .06a2.26 2.26 0 00-.55 1.18c.29.14.95-.69.97-1.02zm-4.22-1.76c-.43.16-.43.53-.67.83l.47.17.5-.74zm.79.36c-.13.39-.44.66-.23 1.07.32-.2.32-.2.6-.74zm3.27-1.26a.23.23 0 00-.4-.08 5.5 5.5 0 00-.54.54c.36.21.58.09.92-.45zm-1.13 2.19h-.27a1.11 1.11 0 00-.13.84c.5-.05.59-.23.38-.83zm-.09 1.64c-.06-.18-.12-.34-.2-.55L238 85l.39.58zm-.35-4.46c-.23-.32-.23-.32-.52-.43-.06.13 0 .17 0 .18 0 .27.06.47.43.49a1.28 1.28 0 01.07-.23zm-.61 2.25c-.16.26-.28.45-.42.65 0 .1.08.18.14.3.14-.1.28-.18.4-.25a.7.7 0 00-.14-.69zm1.78-1.7zm-.63-.29c-.19.16-.33.29-.49.44v.36c.34 0 .48-.15.64-.43a3 3 0 01-.17-.36zm-1.1 4.67c0-.37.17-.73-.18-1-.43.24-.19.61-.25 1zm-2.21-.59c.08.33 0 .64.39.83.24-.32.1-.67.11-1l-.26-.11zm-5.46-11.57a4.37 4.37 0 002.09.24v-.32c-.63-.09-1.23-.15-1.93-.24a1.91 1.91 0 01-.18.33zm1.3-.72c-.15-.39-.23-.43-.63-.34.12.38.19.38.61.38zm3.78 9.13c-.37-.23-.55-.1-.82.55.07.17.18.16.31.1a.76.76 0 00.49-.64zM229.5 76c-.18-.2-.18-.2-.49-.17v.46c.3.11.42-.03.49-.29zm3-1.36s.07 0 .12-.1c-.36-.26-2.37-.69-2.57-.23a2.8 2.8 0 002.45.36zm.23 9.16c0 .33 0-.33 0 0zm.55 3.76l.17-.3c-1.25-.23-2.82 0-3.93-.7a1.15 1.15 0 00-.94-.34c.96 1.49 3.22.98 4.7 1.37zm-4.84-5.79c0-1-.1-2-.13-2.93-.84.08-.31 2.26-.31 2.9zm6.25 1c.19-.1.06-.05 0-.02zm-6.62-8.26c-.33.14-.47.5-.4 1a.78.78 0 00.4-1.02zm.83.77a.27.27 0 00-.41-.21l-.29.81c.45.33.55-.28.7-.62zm.18 6.35h.15a7 7 0 00.05-2.59h-.38a6 6 0 00.18 2.57zm-31.45 2.56a6.4 6.4 0 00-.37 2.79c.63-.06 1.25-3.57.73-4a1.73 1.73 0 00-.36 1.19zm17.54 1.42c.12-.21.08-.15 0-.02zm-.06.11c-.12.19-.22.37 0 0zm-3.74-.72a4 4 0 002.39-4.35c-.25-1-1.82-3.65-3.15-3.35-.08.18.49 1.14.53 1.3.18.83-.54 1.69-.53 2.54 0 1.13 1.09 1.9 1 3l-.51.63a1.57 1.57 0 00.27.23zm-4 .35l-.28.42c.8.87 5.85 2.64 7 2v-.49c-2.15-.69-4.4-.91-6.42-2zm-27.24 1.29zm37.72 1.5s-.1 0-.16.17c.86.2 5 1.14 5.48.4-.59-.71-4.5-1.4-5.31-.62zm-1.65-8.64c.19 1 .87 1.61.74 2.71-.14 1.25-1.08 2.3-1.73 3.34l-.06.08a.25.25 0 010 .07 3.58 3.58 0 000 4c1.43-.06 3-3.66 3.3-4.76.24-1.36-.31-5.43-2.25-5.44zm16.25 3.15c0 .58-.37 1-.2 1.59.34 0 .45-.08.48-.41s.05-.65.07-1a2 2 0 01-.35-.18zm-24.69 4.52s0-.1-.15 0c.74 1 1.95 1.14 2.71 1.94.58.62.86 1.74 1.41 2.23l.26-.07c.55-1.27-3.14-4.42-4.23-4.1zM199 84.34c0-.18-.37.72 0 0zm41.32.32l.23.37h.33c.05-.19.09-.37.13-.57-.11-.1-.23-.22-.45-.39-.09.22-.14.39-.23.59zm-40.24-.24c-.09.56-.18 1.08-.26 1.66l.34.21a6.53 6.53 0 00.36-1.83 3.13 3.13 0 01-.43-.04zm-1.08-.67v.59a3.36 3.36 0 00-.26 2.25c.59-.14.46-1.81.69-2.3-.01-.47-.01-.47-.43-.54zm42.25-.17c.12 0 .14 0 .13-.06.26-.08.36-.29.45-.55l-.25-.23a.64.64 0 00-.33.69s-.05.03.01.15zm.69.82c-.13-.12-.25-.24-.37-.33h-.13c0 .21-.09.44-.15.72l.5.16zm.69-.86c0-.09 0-.12-.07-.12-.1-.17-.2-.21-.52-.06v.25c.13.13.38.07.6-.07zm-1.8-1.14c-.22.25-.42.51-.68.84.19 0 .3.08.45.12.18-.33.54-.53.52-1-.12 0-.25-.01-.28.04zm0 0c0-.05-.22.25 0 0zm1.9 2.31c.07-.29 0-.51-.21-.64.05 0 .06 0 0-.06s-.1 0-.09 0c-.19.06-.17.27-.26.44l.31.37zm-40.9.55c-.22-.1-.39-.16-.55 0a.24.24 0 00-.1.11l.46.45c.09-.27.14-.41.2-.56zm3.69-7.91zm-4.47 12c.27-.13 0 0 0 0zm15.57-10.94c-5.47-3.45-14.13-2.64-19.15-1.75a55.93 55.93 0 0123.14-7 13.58 13.58 0 002.85 1.34c.09-.1.17-.2.27-.33-.69-.44-1.41-.84-2.14-1.22 1.56-.14 4.08 0 4.14-.06 2.2.15 11.38 2.83 15.81 8.62.61.78 1.13 1.6 1.83 2.39.23-.72-.83-1.76-1.15-2.32C239.2 73 229.13 68.5 225 68.5c.8-.3 1.56-.6 1.85-1.51-.54-.17-1.46.85-1.93 1.06a9.48 9.48 0 01-1.92.66 27.86 27.86 0 01-3.44.23 72.44 72.44 0 00-8.67 1.39c-5.53 1.15-10.58 3.72-15.47 6.43-4.21-3-2.24-20.16 5-20.16a2 2 0 011 .31c.06.14.15.32.23.49-1.92-.65-2.25 3.69.62 2 1.3-1.53-.23-3.72-1.85-3.72-8.72 0-10.45 18.82-5.86 21.69-5.82.33-13.55 5.28-15.11 8.57-1 2-.61 4.71 1.54 5.76s3.75-.89 3.75-2.75c-.88-1.16-2.12-2-3.18-.5-.12 1.48 1.34 1.77 2.15.7 1.11.37-1.11 2.42-2.29 1.74a3.06 3.06 0 01-1.26-4.26c.61-2 8.74-8 15-8.55 3.16 1.47 6.59 6.29 10 7.21.15-.43-1.13-1.56-2.78-2.81 3.58-.25 5.12 5.1 1.47 6.1a3.35 3.35 0 00-2.1-.4.73.73 0 00-.26 0 2.15 2.15 0 00-.88 3.21c1.41 1 2.57.54 3.69-.5.26-.51 0-1.09.17-1.62 3.88-2.48 2-8.93-2.87-7.42-2.28-1.71-4.9-3.49-5.36-4.07.71-.58 4.44-1.08 8.62-1a8.58 8.58 0 01.69.62s-.08-.09 0 0 .05.08 0 0c.51.65.17 1.76.31 2.5a6.31 6.31 0 001.64 2.92c2.51-1.67.77-5.07-1.5-6a29.07 29.07 0 018.43 1.31c2.76 1 5.61 3 6.75 5.84.67 1.73.78 3.29 2.53 4.38 1 .63 2.23.87 3.24 1.57h.28c.33-1.72-2.6-4.84-3.74-6a37.94 37.94 0 00-6.86-5.55zm-14.46 12.9c.21-.09.41-.19.61-.26.35-.56.35-.56.36-.82-.32-.18-.87.26-1.25.18-.06 0-.15-.12-.23-.2v-.54c.08-.41.63-.18.7-.62l-.47-.16-.82.42h-.05c1.86-2.95 4.43 2.45 1.15 2zm-22.74-5.41c.23-.51-.22.45 0 0zm20.16-8.23c1.67 1.41 1.29 3.46 4 3.39 0-.62-.5-2.7-1.1-3.12s-2.27-1.07-2.9-.27zm30.7 5.61c0 .27.29.26.43.38l.28-.11a2.36 2.36 0 000-.29c-.16-.12-.11-.06-.06 0a.6.6 0 00-.65.02zm-4.49-3.51a.37.37 0 00-.39.35s0-.07 0 0c0 .38-.27 1 .21 1.28l.3-.2a4.13 4.13 0 00-.12-1.43zm-3.9-2.68c-1.69.13-3.32.78-5 1 2.41 3.3 6.75 1.22 9.4-.3a11.2 11.2 0 00-4.4-.7zm14.34 4.67a1.67 1.67 0 010-.32c-.13-.06-.15-.06-.14 0a1 1 0 00-.82 0c.28.41.6.36.96.32zm-11.77-1c.08.06.16.13.32.24.08-.2.16-.31.22-.45-.37-.08-.37-.08-.54.22zm-3-8.07c-.32.07-.42.33-.39.71 0-.07-.07 0 0 .23l.35-.13c-.06-.27.22-.5.01-.8zm.87-.15c-.65 0-.61 1-.54 1.48a1.69 1.69 0 01.35 0c-.14-.54.38-.94.16-1.47zm-1.86.46c-.22-.15-.22-.15-.54.16.3.18.34.17.51-.16zM97.89 84.46zm137.33-.75l-.29-.26c-.28.21-.28.21-.14.53.21.02.37.02.43-.27zm.88-2.71a.27.27 0 00.05-.27c-.4-.25-1-.56-1.47-.31 0 .48.74.22.95.58zm-.86 4.49c-.26-.15-.35 0-.48.15.13.09.19.15.33.24.05-.19.1-.31.15-.43zm.9-3.41v.41l.5-.07c-.12-.42-.13-.42-.5-.42zm-17.66-8.71a2.19 2.19 0 00.35-.7c-2.93-.73-4.63 1.82-6.76 3.21.92.66 2.18.32 3.22.41a5.24 5.24 0 003.13-2.81c-.05.07-.09.16.06-.15zm23.81 12.43a20.66 20.66 0 01-6.86 1.79c-2.65 0-5.35.55-8 .83-.06.09 0 .09 0 .08a.46.46 0 00.1.5c2.57.09 5.08-.93 7.62-.72a8.43 8.43 0 00-1.25 1.54l.39.23c2.57-3 6.51-2.62 9.78-4.55.85-.5-.07-.37-1.78.3zm-14.92-6.93a2 2 0 00-.3.09c0 .56-.29 2.38.21 2.85l.11.11c.37-.45.17-2.59-.02-3.05zm-20.93-3.76c2 .8 4-.37 5.21-1.78a2.81 2.81 0 00.19-.41c-2.3.42-3.72.41-5.4 2.19zm5.21-1.78zm33.17 10.48l.37.11v-.42c-.19-.06-.31.08-.37.31zm-.58.44c.08-.14.15-.26.26-.47a3.05 3.05 0 01-.31-.26c-.31.33-.38.48.05.73zm-17.57-2.64a16.27 16.27 0 00-.07-2.33h-.11c-.03 0-.2.18-.2.27a1.14 1.14 0 000 .19 8.14 8.14 0 00.06 2 2 2 0 01.32-.13zm-2.84-9.23a1.12 1.12 0 00-.17.41c-.09.71-.39 1.36-.47 2.06l.14.05c.26-.34 1.17-2.22.5-2.52zm-.18.45c-.05.47 0 .13 0 0zm2.81.57c-.15.54-.29 1-.43 1.6.08.06.15.14.22.19.35-.23.53-1.34.56-1.77a1.94 1.94 0 01-.35-.02zm-2 1.48a7 7 0 00.63-2.22c-.26-.16-.26-.16-.48 0a10.11 10.11 0 00-.45 2.48.29.29 0 01.1 0c.08-.14.18-.14.21-.26zm1.18-.44l.33-1.31a.4.4 0 00-.29-.11 4.73 4.73 0 00-.53 1.94c.36.15.44-.32.5-.52zm-3-.13a1.75 1.75 0 00.46-1.85 3.46 3.46 0 00-.48 1.85zm9.44 6c.52-.17.58-.27.53-.79-.41-.35-.69.48-.55.78zm.39-3V77a2.94 2.94 0 00-1.5-.11s0-.05-.13 0c.08.1.19.2.25.27zm-.16.39a1.13 1.13 0 00-1.07-.08c.13.47.93.7 1.05.09zm1.14 2.65c-.09-.07-.18-.13-.28-.22s-.13.06-.11.08c-.37.2-.57.52-1 .62-.08.21 0 .29.17.37.36-.26.88-.33 1.2-.84zm-2.92-4.53c-.06.07-.14.16-.27.33a6.93 6.93 0 002.37.25c.12-.53-1.77-.53-2.12-.57zm1.27 4.72c-.08 0-.15-.13-.21-.12s-.22.11-.17.33l.37-.11a.38.38 0 01-.01-.09zm4.64-.73a4.13 4.13 0 00-2.11-.46v.35a3.89 3.89 0 011.43.38c.33.13.53.05.66-.26zm-5.09-1.74c-.44-.17-.62 0-.65.5.3.36.81-.1.63-.49zm-33.7 6.09c0-.5-.29.59 0 0zm34-1.3a1.42 1.42 0 00-.29 1.09 2.73 2.73 0 00.25.23c.24-.17.18-.18.1-.12.23-.32.06-.76.35-1.08a2.11 2.11 0 01-.48-.11zm-.6-3.16h-.44c.06.49-.25.94.16 1.44.33-.44.23-.93.23-1.43zm1.52-.9c-.08-.37-.18-.44-.49-.32.03.32.03.32.42.33zm-2.38-3.55a6.55 6.55 0 002.47.36c0-.13 0-.21.07-.31s-.11 0-.12 0c-.61-.17-2.53-.52-2.49-.04zm1.63 3.47a.77.77 0 00-.43.59c.17.1.17.09.13.06.23.11.33 0 .64-.42zm3.18-3c-.14.51.9.58 1.17.65l.28-.26a2 2 0 00-1.52-.36zm.78-.93c0 .14 0 .24-.05.4h.49v-.4zm-1.53 3.12a8.42 8.42 0 002.38.4c-.33-.41-2.21-1-2.45-.37zm.28-1c.58.21 1.19.24 1.79.45l.23-.29c0-.06-.07-.1-.1-.11-.26-.06 0 0 0 0-.54-.07-1.66-.61-1.99.04zm2 2.27c0-.18 0-.3.05-.43l-2.22-.33c-.05 0-.1.06-.16.1.13.48 1.8.63 2.27.7zM230.3 78a.68.68 0 00.52-.45l-.35-.33-.42.39c.08.15.18.27.25.39zm4 .46c.72.1-.05 0 0 0zm-4.71-2a.76.76 0 00.08.5l.07.11.27-.34c-.12-.16-.14-.38-.42-.26zm.27 3.13a1.94 1.94 0 000 1.62.79.79 0 00.2 0c.22-.14.13-1.48-.1-1.9-.14.18-.14.25-.1.29zm4.5 3.75L234 83c-.07.49-.13.86-.2 1.29h.34a1.3 1.3 0 00.22-.94zm-.78-.53l-.13-.07a1.35 1.35 0 00-.4 1.32h.34c.02-.4.27-.8.19-1.24zm.24-1.63l-.16-.19c-.43.18-.45.24-.34.59.28.05.39-.13.5-.39zM227.24 74a1.2 1.2 0 00-.2 1.09c.31 0 .34-.24.39-.45 0 0 .06-.18 0 0a.45.45 0 00-.19-.64zM65.83 75.11h.1a10.59 10.59 0 00-.44-2.48c-.24-.12-.24-.12-.49 0-.12.49.46 1.7.62 2.22a.62.62 0 00.21.26zm-2.23 4.12h-.11a17.9 17.9 0 00-.06 2.33 1.77 1.77 0 01.32 0 8.27 8.27 0 00.06-2.16c0 .01-.13-.08-.21-.17zm1.5 1.33c.06.14.13.25.23.45l.3-.24c-.16-.3-.16-.3-.53-.21zm-.79-.79a3.52 3.52 0 00-.1 1.44l.29.2c.47-.24.23-.9.2-1.28a.38.38 0 00-.39-.36zm19.35-4.66c-1.69-1.78-3.11-1.77-5.4-2.19a2.81 2.81 0 00.19.41c.51.57.12.13 0 0 1.27 1.42 3.24 2.58 5.21 1.78zm-20.38-1.69c0 .43.22 1.54.57 1.77.07 0 .14-.13.22-.19-.15-.55-.29-1.06-.42-1.6a2.12 2.12 0 01-.37.02zm3.74-1a1.73 1.73 0 00.46 1.85 3.46 3.46 0 00-.48-1.81zm44.57 14.15c0 .1-.1.19-.14.28a.45.45 0 00.61-.13.07.07 0 00-.07 0c-.11-.09-.25-.07-.4-.11zM66.27 72.38c-.67.3.24 2.18.51 2.55l.13-.05c-.07-.7-.38-1.36-.46-2.06 0 .14.06.52 0 0a1.12 1.12 0 00-.18-.44zM68.33 74c.08-.47.12-1.51-.53-1.48-.23.53.26.93.2 1.44a1.66 1.66 0 01.33.04zm.73-.62c0-.38-.07-.64-.39-.71-.22.29.07.53 0 .81.12 0 .22.09.36.13.09-.25.06-.27.03-.2zm1.14-.24c-.32-.31-.32-.31-.55-.16.18.35.21.36.55.19zm4.6 3.08c1-.09 2.31.25 3.22-.41-2.11-1.39-3.82-3.94-6.76-3.21a2 2 0 00.37.7c.19.4.06.14 0 0a5.3 5.3 0 003.17 2.95zm-11 3.25c0 .7 0-.09 0 0zm52.9 10.34c.09-.07-.64.31 0 0zm.89-.54c-.29 0-.68.4-.89.54a19.58 19.58 0 00-1.7 1.07c.36.48 2.26-1.1 2.68-1.43a1.45 1.45 0 00-.09-.18zm-.49-.64a13.84 13.84 0 01-1.17.77c-.42.22-.71.63-1.18.78a1.48 1.48 0 010 .26c.39.06 2.59-1.44 2.35-1.81zm-.59-.56c-.42.14-.67.56-1.09.68-.21.06-.12 0 0 0-.42.14-.65.55-1.13.69a3 3 0 00.11.29c.34-.1 2.34-1.24 2.11-1.66zm1.55 1.93c-.35.17-.42.21-.38.2a19.09 19.09 0 00-2.06 1.28.65.65 0 010 .17c.5-.02 2.48-1.27 2.44-1.65zm-.28 1.16c.23-.23-.38.1 0 0zm-3.52-2.76c.38-.16 1.07-.48 1.19-.92a2.53 2.53 0 00-1.71 1c.21.14.33 0 .46-.07zm-.17-1.55a4.57 4.57 0 01-.48.1c-.13.2-.47.25-.52.57.33.11.79-.31 1.06-.44-.02-.08-.03-.18-.06-.27zm-.75 0c-.16-.29-.77.12-.72.37.22.09.42 0 .62-.25.01-.04.03-.06.1-.17zm2.5.89c-.57.41-1.19.71-1.74 1.14l-.08.07a1.09 1.09 0 010 .17c.48.08 1.65-1 2-1.24zm-3.68-.75c.21.1.34 0 .39-.21-.25-.1-.25-.1-.39.16zm2.67.4v-.31c-.36.22-1.12.45-1.3.88.13.16.24.13.34 0a3.26 3.26 0 01.96-.62zM103 88.83h-.08a.46.46 0 00.5.39v-.32c0-.11-.23-.09-.42-.07zm-3.37-3.24c0 .21 0 .48.39.57a4 4 0 00-.59-3.16c-.41.62 0 1.89.24 2.53-.09-.24-.02 0 0 .06zm.55 2.56a3.56 3.56 0 01.65 1c0 .13.13.2.32.13 0-.47-.56-1-.78-1.37a2.34 2.34 0 00-.15.24zM64.94 75a4.74 4.74 0 00-.54-2 .41.41 0 00-.28.11l.33 1.31c.06.22.14.69.49.58zM101 85.88c.33-.67-.24-1.86-.36-2.53l-.43.27a5.93 5.93 0 01.38 1.87v-.12.13c.01.23.11.4.41.38zm.65-1.93l-.32.17c.1.48.11 1.47.6 1.77.35-.42 0-.87.11-1.25-.1-.23-.22-.43-.36-.64zm-.57 4l-.14.17c.17.25.42.82.76.87.1-.32-.19-.51-.22-.74zm-.89 1.82c-.3-.64-.73-1.17-1-1.81h-.28c.22.41.81 1.86 1.28 2a.64.64 0 01.1-.14c-.07-.03-.08-.03-.07 0zm96.16-6.57a26.91 26.91 0 00-.72 3.89l.23.14c.56-.53 1.2-4.27.64-4.67-.15.66-.16.77-.12.69zm-94.59 5.07v.15c.08.29.21.47.44.51.24-.17-.13-.81-.41-.61zm-4.16 0c-.4.25.93 2.54 1.27 2.64l.14-.21c-.34-.36-.42-.85-.71-1.23a10.17 10.17 0 01-.67-1.15zm1.61-2v-.14c-.06-1.14-.38-2.22-.5-3.36l-.43-.11c.08.74.09 3.29.72 3.77zm-.17 2.87zm.58-1.14c-.09.43.4 1 .66 1.34v.06c.1.1.13.29.37.25A2.46 2.46 0 0099.62 88zm11.06-2.08c.22.45-.24-.51 0 0zM89 89.31s-.27-.13 0 0zm13.5-.7c-.06.22 0 .35.26.35.02-.29.02-.3-.22-.35zm-14.24-3.35c0 .15.11.29.19.55l.46-.45-.08-.11c-.18-.15-.36-.09-.57.01zm-15-7.18c-1.72-.21-3.33-.86-5-1a11 11 0 00-4.35.69c2.57 1.53 6.92 3.61 9.33.31zm17.27-.41c-.63-.8-2.25-.19-2.92.27s-1.1 2.5-1.1 3.12c2.72.07 2.34-1.98 4-3.39zm5.07-.34c4.58-2.87 2.85-21.69-5.88-21.69-1.61 0-3.14 2.19-1.85 3.72 2.88 1.73 2.54-2.61.62-2 .08-.17.17-.35.23-.49a2 2 0 011-.31c7.27 0 9.23 17.2 5 20.16-4.9-2.71-10-5.28-15.48-6.43a72.44 72.44 0 00-8.67-1.39 28 28 0 01-3.44-.23 9.56 9.56 0 01-1.93-.66c-.45-.21-1.38-1.23-1.92-1.06.29.91 1.05 1.21 1.84 1.51C61 68.5 50.9 73 47.88 78.11c-.32.56-1.39 1.6-1.15 2.32.7-.79 1.22-1.61 1.83-2.39 4.43-5.79 13.61-8.47 15.81-8.62.06.08 2.57-.08 4.14.06-.73.38-1.45.78-2.14 1.22l.26.33a13.41 13.41 0 002.85-1.45 56 56 0 0123.14 7c-5-.89-13.68-1.7-19.16 1.75a37.87 37.87 0 00-6.84 5.49c-1.15 1.16-4.07 4.28-3.75 6h.28c1-.7 2.2-.94 3.25-1.57 1.74-1.09 1.86-2.65 2.53-4.38 1.14-2.83 4-4.83 6.74-5.84a29.25 29.25 0 018.44-1.31c-2.28 1-4 4.36-1.5 6a6.42 6.42 0 001.65-2.92c.12-.74-.21-1.85.3-2.5-.06.07-.11.13 0 0s0-.06 0 0a6.81 6.81 0 01.67-.62c4.19 0 7.92.46 8.62 1-.46.58-3.07 2.36-5.35 4.07-4.82-1.5-6.75 4.94-2.87 7.42.17.53-.09 1.11.17 1.62 1.12 1 2.27 1.5 3.68.5a2.15 2.15 0 00-.87-3.21.73.73 0 00-.26 0 3.38 3.38 0 00-2.11.4c-3.65-1-2.09-6.35 1.48-6.1-1.65 1.25-2.93 2.38-2.78 2.81 3.4-.92 6.83-5.74 10-7.21 6.28.53 14.41 6.54 15 8.55a3.07 3.07 0 01-1.26 4.26c-1.19.68-3.4-1.37-2.28-1.74.8 1.07 2.26.78 2.15-.7-1.08-1.45-2.31-.66-3.19.5 0 1.86 1.68 3.75 3.74 2.75s2.54-3.73 1.55-5.76c-1.53-3.23-9.26-8.18-15.07-8.51zm-6.5 11.94h-.06l-.82-.42-.46.16c0 .44.61.21.69.62v.54c-.08.08-.17.15-.23.2-.38.08-.93-.36-1.26-.18 0 .26 0 .26.36.82.2.07.41.17.62.26-3.28.49-.72-4.91 1.16-2zm29.4 1.49a1.14 1.14 0 00-.72.36 3.84 3.84 0 00-1.43 1c.3.23 2.16-.93 2.15-1.36zm-16-5.93a.53.53 0 000 .26c0 .5 0 .85.37 1 .32-.19.13-1.39-.37-1.26zm1.5 1.69a.76.76 0 00.49.71c.06-.16.12-.33.17-.49-.21-.15-.35-.45-.69-.42-.04.13-.03.18.03.2zm-19.44-9.15zm18.9 8.35c-.24.31-.17.54.18.69.15-.41.15-.41-.18-.69zm-5.07 2.35c-.38.28.92 2.17 1.18 2.43l.23-.21c-.38-.34-.41-.83-.73-1.13s-.36-.78-.68-1.09zm92.54-.07c-.32.64-.75 1.17-1.05 1.81v.08l.1.14c.47-.13 1.06-1.58 1.28-2-.19-.03-.26-.03-.33-.03zm-.45 0a2.48 2.48 0 00-1.09 1.65c.25 0 .29-.15.39-.25s0-.07 0 0c.28-.4.79-.98.7-1.4zm1.79-1.2c.25-.55 1-4.19.3-4.37-.3.65 0 1.41-.36 2l-.07.15s0-.08.07-.14c-.31.65-.06 1.39-.41 2.12zm-1.6-3.8a4 4 0 00-.64 3.15c.37-.09.35-.36.39-.57s.1-.29 0 0c.23-.68.66-1.95.25-2.58zm.21 3.14v.14a2.12 2.12 0 00.23.16c.63-.48.65-3 .72-3.77-.22.06-.32.07-.44.11-.14 1.15-.45 2.22-.51 3.37zm.84 1.92c-.33.31-.37.8-.7 1.09-.16.15-.08.08 0 0-.32.3-.35.78-.72 1.12l.23.21c.26-.24 1.56-2.13 1.19-2.41zm-3.91.91c.24 0 .37-.22.45-.51l.06-.15c-.32-.19-.66.45-.51.69zm.32-3.09c.49-.3.5-1.29.61-1.77l-.31-.17-.4.69c.09.37-.24.84.1 1.26zm4.34 2.43a8.05 8.05 0 01-.71 1.2c-.28.38-.36.87-.71 1.23a1.59 1.59 0 01.15.21c.35-.09 1.66-2.38 1.27-2.63zm-2.77-.43c-.22.35-.83.9-.79 1.37.18.07.28 0 .32-.13a3.35 3.35 0 01.65-1zm.17-4.27c-.14-.07-.24-.15-.46-.27-.11.67-.67 1.86-.34 2.53.32 0 .44-.15.41-.38 0-.46 0-.13 0 0a6 6 0 01.39-1.87zm-2.27 1.21c-.54-.13-.7 1.07-.33 1.3.33-.19.41-.54.34-1 .04-.03.05-.12-.01-.29zM189 88l-.4.3c0 .23-.32.42-.22.74.35-.05.59-.62.76-.87zm5.95 2.65c0-.1-.38.33 0 0zm-2.3-1.1c.06-.1-.43.55 0 0zm2.43.76l-.13.34a2.05 2.05 0 00-.66 1.23c.36.05.67-.94.92-1.16.07-.27.07-.27-.14-.41zm-.19-6.24c0-.2-.32 1.11 0 0zm1.11 7.66c0 .1.08.19.17.37a1.37 1.37 0 01.23-.27c-.18-.13-.26-.22-.4-.1zm-.94.1a1.25 1.25 0 00.14.2c.32-.25.39-.63.62-1a1.71 1.71 0 00-.23-.13c-.22.35-.4.63-.59.93zm.51-9.37h-.31c-.33.34-.28 1.26-.33 1.66a30.39 30.39 0 00-.54 3.19c.91.05 1.06-3.96 1.13-4.85zm-1.64-.15a18.15 18.15 0 01-.33 2.23 16 16 0 01-.34 2.29l.34.23c.4-.35 1.03-4.6.28-4.75zm.79 7.31a1.06 1.06 0 00-.48.62 3.79 3.79 0 00-.85 1.52c.32.1 1.48-1.76 1.28-2.14zm-1.46-.94c-.27.12-.45.65-.57.87a14.64 14.64 0 00-1 1.71c.52.27 1.53-2 1.76-2.48zm1 1.56c.1-.29-.3.27 0 0zm-.27-1.15c-.23.29-.25.34-.22.32a18.6 18.6 0 00-1.32 2.07l.11.14c.36-.17 1.59-2.17 1.36-2.53zm-21.42.18a1.5 1.5 0 00-.09.18c.42.33 2.31 1.91 2.67 1.43a19.58 19.58 0 00-1.69-1.07c-.27-.14-.67-.55-.96-.54zm-.19 1.85a1.12 1.12 0 00-.71-.36c0 .43 1.86 1.59 2.14 1.34a3.76 3.76 0 00-1.5-.98zm0 0c.38.1-.23-.23 0 0zm1.08-1.31c.64.31-.09-.07 0 0zm-55.12 2c.09-.08-.47.13 0 0zm53.55 0c.47.13-.08-.08 0 0zM172 90c0 .42 2 1.67 2.42 1.65v-.17a17.63 17.63 0 00-2.06-1.28s.03-.07-.36-.2zm-.22 1.85l-.27-.25c-.14.23-.14.23.07.42s1 .84 1.33.65a2.06 2.06 0 00-1.09-.86zm-53.27-.25c-.1.1-.19.17-.28.25a2.08 2.08 0 00-1.12.82c.3.19 1-.56 1.33-.65s.24-.23.11-.46zm.13.78c-.28.2-.56.37-.84.56a1.49 1.49 0 000 .25c.4-.1.63-.4 1-.59a1.18 1.18 0 00-.12-.26zm52.62.9c-.12 0-.19.11-.23.25a1.67 1.67 0 01.33.13v-.39c0-.1-.08-.04-.06-.03zm-.05-.68c.35.19.57.49 1 .59v-.25l-.85-.56a1.77 1.77 0 00-.11.18zm-52.45.68h-.09c-.09 0 0 .2 0 .39a1.71 1.71 0 01.34-.13c-.01-.19-.08-.28-.21-.3zM173 88.63c-.24.39 2 1.87 2.31 1.81v-.26c-.48-.15-.76-.56-1.18-.78a11.24 11.24 0 01-1.13-.77zm5.11-1.91a.08.08 0 00-.08 0 .47.47 0 00.63.13c0-.09-.11-.18-.16-.28s-.28.06-.39.15zm-.56 0c0 .23.18.31.4.21-.15-.25-.15-.25-.4-.2zM187.3 89c.23 0 .32-.13.26-.35-.24.01-.24.02-.26.35zm-10.55-2.2c.07.11.1.13.12.12.18.23.38.34.61.25.04-.25-.56-.66-.73-.37zm9.88-1.08c-.32.23-.32.24-.17.69.36-.15.41-.41.17-.69zm0 3.19v.32a.46.46 0 00.51-.39h-.08c-.01 0-.28.06-.4.07zm-1-1.68a.74.74 0 00.5-.71v-.2c-.33 0-.48.27-.7.42.09.16.15.33.2.49zm-10.95 1.52c-.42-.12-.67-.54-1.09-.68-.23.42 1.77 1.56 2.12 1.67a3 3 0 00.11-.29c-.48-.14-.71-.55-1.13-.69.1.03.19.05-.01-.01zm-.42-1.06l-.23.14c.37.28 1.54 1.32 2 1.24a.52.52 0 010-.17l-.08-.07c-.51-.43-1.12-.73-1.69-1.14zm1.06-.66v.31a3.38 3.38 0 011 .6.2.2 0 00.34 0c-.22-.46-.98-.69-1.34-.94zm-.67.41c.12.46.88.79 1.25 1-.13-.06 0 0 0 0s.25.21.45.07a2.53 2.53 0 00-1.7-1.07zm1.84-.53c-.16 0-.31 0-.49-.1V87c.27.13.73.55 1.06.44-.06-.28-.44-.33-.57-.53z"/><path d="M181.23 44.67a36.18 36.18 0 11-36.18-36.18 36.19 36.19 0 0136.18 36.18z" fill="#937147"/><path class="cls-2" d="M145.05 89.34a44.67 44.67 0 1144.66-44.67 44.72 44.72 0 01-44.66 44.67zm0-87.5a42.83 42.83 0 1042.82 42.83 42.88 42.88 0 00-42.82-42.83z"/><path class="cls-2" d="M134.38 67.61a.37.37 0 01-.19-.07c-.21-.08-.24-.15-.28-.53a1.22 1.22 0 00-.43-1 .41.41 0 00-.29-.1h-.11a1.55 1.55 0 00-.92 1.06 1 1 0 01-.15.31.58.58 0 01-.35.11.33.33 0 01-.35-.44 3.75 3.75 0 01.62-1.79 1 1 0 01.85-.38h.12a.75.75 0 00.14.57.55.55 0 00.44.18h.26a.39.39 0 00.27-.17.87.87 0 01.91-.47h1.02a1.86 1.86 0 001.43-.52c1.46-.43 2-1.76 2.48-2.84a9 9 0 01.55-1.17L141 59a26.63 26.63 0 001.69-4.89l.14.13a1.78 1.78 0 01.66 1.66.45.45 0 00.06.24.79.79 0 00.68.41 1.55 1.55 0 00.75-.28.74.74 0 01.24-.15l.18-.09a4.62 4.62 0 001.68-4.15 3.28 3.28 0 00-.34-1.36h.24a1.1 1.1 0 00.31 0 1.64 1.64 0 01.69-.12 4 4 0 01.58 0 1 1 0 00-.67.64 2.68 2.68 0 00.36 2.89c.49.81.76 1.33.32 2.06a7.59 7.59 0 00-1.1 2.28.55.55 0 01-.14-.13 1 1 0 00-.8-.43.43.43 0 00-.31.14c-.75.82-.43 2-.22 2.75a1.22 1.22 0 01-.67.14h-.1s-.07 0-.2-.11h-.11a1.08 1.08 0 00-.46-.12c-.15 0-.53.06-.7.63a.5.5 0 000 .32 2.17 2.17 0 01.25 1.94h-.26a1.71 1.71 0 00-.43-.06 1 1 0 00-.72.29 2.61 2.61 0 00-.82 1.34 2.34 2.34 0 01-.35.77 2.52 2.52 0 01-2.11 1.58 13.43 13.43 0 01-1.59.1 5.47 5.47 0 01-1.14-.08v-.8a.47.47 0 00-.47-.41c-.67 0-.77.72-.81 1v.09a1.27 1.27 0 01-.93.39zm-4.59-.21c-1.89-.05-4-.28-5.25-2a6.58 6.58 0 01-.94-3l-.09-.49c-.23-1.11-.4-2.25-.57-3.36-.2-1.35-.45-2.91-.81-4.41a2.22 2.22 0 011.16-1c.28-.17.51-.31.73-.47a2 2 0 001.31-.66.37.37 0 00.09-.39.42.42 0 00-.28-.3 1.36 1.36 0 00-.5-.09 2.34 2.34 0 00-.38 0h-.16c-.11-.08-.15-.22-.21-.47a2.08 2.08 0 00-.21-.61.41.41 0 00-.36-.23h-.1a.44.44 0 00-.29.26 3.91 3.91 0 00-.19 1.14c0 .53 0 .57-.26.65h-.15a1.29 1.29 0 01-.62-.34 2.48 2.48 0 00-.66-.42h-.13a.47.47 0 00-.22.07.39.39 0 00-.21.33 1.26 1.26 0 00.7 1.17c.13.09.32.22.33.27a.3.3 0 010 .11.77.77 0 01-.65.24 2.17 2.17 0 01-.41 0h-.08a.38.38 0 00-.17 0 .67.67 0 00-.38.42.55.55 0 000 .26.4.4 0 01-.24-.09c-.19-.12-.23-.28-.29-.59v-.15c-.05-.18 0-.32.37-.67s.82-.89.41-1.61a.7.7 0 01.07-.58 1 1 0 01.76-.52l.7.22h.1a.47.47 0 00.34-.16 2.63 2.63 0 011.25-1 1.92 1.92 0 011.06.38.52.52 0 00.28.1h.07l.14-.06a2.77 2.77 0 011.19-.23 9 9 0 011.67.22l.35.06a8.31 8.31 0 001.55.19 2.9 2.9 0 002.57-1.59 3.21 3.21 0 00.41-.85 4.42 4.42 0 01.23-.52 2.84 2.84 0 01-.12 1.84.42.42 0 000 .42 1.19 1.19 0 001.06.55 3.21 3.21 0 001-.17 3.1 3.1 0 01.44-.09h.07l.11-.07a5.51 5.51 0 001.92-1.75l.3.18a4.88 4.88 0 00.82.46l.4.15h.1a6.75 6.75 0 013 1.72.48.48 0 00.34.14h.12a2.56 2.56 0 001.28-2l.1-.35a1.32 1.32 0 000-.56.31.31 0 000-.11 7.58 7.58 0 001.38.18 1.73 1.73 0 001.59-.77.43.43 0 000-.44.36.36 0 00-.36-.22 6 6 0 01-3.79-1.27.42.42 0 00-.27-.09.42.42 0 00-.44.45v.71a9.08 9.08 0 010 2l-1-.47-.12-.05a8.43 8.43 0 01-3.75-2.67.45.45 0 00-.36-.2h-.09a.43.43 0 00-.33.4 5.83 5.83 0 01-.44 2.08 2.45 2.45 0 01-1.24 1 2.71 2.71 0 010-.29 2.24 2.24 0 00-.06-.75 4 4 0 00-1.19-2.56.49.49 0 00-.38-.15.89.89 0 00-.86.8 1 1 0 01-.12.24 2.09 2.09 0 01-.69.61 10 10 0 00-.33-1.48 4.47 4.47 0 01-.2-2.38 9.56 9.56 0 01.35-1.07l.09-.26a9.09 9.09 0 00.66-2.29.45.45 0 00-.44-.49.43.43 0 00-.27.1 6.76 6.76 0 00-.87.76 3.68 3.68 0 01-1.57 1.06.46.46 0 00-.28.19.5.5 0 00-.05.35.9.9 0 00.87.81 5.54 5.54 0 00.05 3.23 5.53 5.53 0 01.19 2.58.42.42 0 00.06.33 1.11 1.11 0 00.84.57.51.51 0 00.21 0h.07a1.89 1.89 0 01-1.16.53 1.7 1.7 0 01-.42.06 2.81 2.81 0 01-1.18-.34 1.12 1.12 0 00.31-.59 10.74 10.74 0 000-2.46v-.17a11.25 11.25 0 010-2 .43.43 0 00-.34-.49 7.21 7.21 0 00-.74-.13 4.1 4.1 0 01-1.18-.3 4.3 4.3 0 001.5-2.79 5 5 0 011.19-2.9.37.37 0 00.13-.28.41.41 0 00-.11-.31.94.94 0 00-.79-.32h-.69a1.21 1.21 0 01-.46-.31l.2-.13a1.79 1.79 0 00.62-.54 11.64 11.64 0 001-1.64 5.64 5.64 0 011.83-2.27.46.46 0 00.2-.41.44.44 0 00-.27-.36.9.9 0 00-.42-.09 2.43 2.43 0 00-.55.08 1.17 1.17 0 01-.35.06.88.88 0 01-.49-.26 1 1 0 00.67-.25 8.4 8.4 0 002.47-2.39 9 9 0 011.91-2.06.44.44 0 00.17-.47 1.12 1.12 0 00-.86-.72c-.18-.06-.28-.09-.32-.14l-.09-.09a1.13 1.13 0 01-.41-.53 1.65 1.65 0 00.75.23.93.93 0 00.29-.05 6.08 6.08 0 003.42-1.69l.22-.18c.24-.19.48-.37.73-.54a.47.47 0 00.18-.4.42.42 0 00-.22-.35l-.31-.18a3 3 0 011.48-.73 3.31 3.31 0 01.94-.13 6.16 6.16 0 013 1 6.07 6.07 0 00-1.16-.09h-2.07a.41.41 0 00-.34.16.43.43 0 00-.09.36 8.68 8.68 0 01-.09 2.39v.1c-.06.43-.11.8-.13 1.14-.23.93-1.09 1.16-2.09 1.41a6 6 0 00-1.43.5c-1.62.56-2.3 1.86-3 3.11a7.29 7.29 0 01-1.44 2.13.43.43 0 00-.08.55.43.43 0 00.38.22h.09a5.21 5.21 0 002.34-2.06c.75-1 1.36-1.79 2.41-1.82-.24.46-.46.93-.68 1.42-.7 1.57-1.37 3.06-3 3.4a.42.42 0 00-.36.43.44.44 0 00.37.43 3.61 3.61 0 00.59 0 4.8 4.8 0 003.18-1.64h.1a3.64 3.64 0 01-.32 1.07l-.71.87a.51.51 0 000 .53 1.94 1.94 0 001.55.65 7.32 7.32 0 001.71-.29 2 2 0 00.44-.18l.16-.07a2.34 2.34 0 01.35-.18c1.22 2.2 3.71 2.2 5.9 2.2h.84a5.53 5.53 0 011.18 1 3.36 3.36 0 002.41 1.37 2.66 2.66 0 00.39 0 1.56 1.56 0 00.46-.09h.15c0 .4-.17.75-.67 1.22a.49.49 0 00-.16.33.53.53 0 00.19.34 1.53 1.53 0 001 .34h.15a1.79 1.79 0 01-.25.6 1.21 1.21 0 01-.25.16 1.2 1.2 0 00-.82.8.46.46 0 00.16.45 6.43 6.43 0 011.33 1.42l.07.09c.25.32.5.65.8 1a2.56 2.56 0 01-.92.1H151l-1.42-.31h-.08a.42.42 0 00-.27.07c-.62.45-.31 1.11-.14 1.46a1.27 1.27 0 01.15.35 4.93 4.93 0 001.22 1.52 1.28 1.28 0 00-.24.11 4.05 4.05 0 01-.61 0 8.91 8.91 0 01-1-.06 8.15 8.15 0 00-1.12-.08 4 4 0 00-.91.09 3 3 0 01-1.61-.41.46.46 0 00-.23-.06.42.42 0 00-.27.09.44.44 0 00-.14.48l.37.91c.56 1.3 1.14 2.64.45 3.89a.56.56 0 00-.09.13 2.17 2.17 0 01-.23.3 4.89 4.89 0 00-1.44-1.4 4 4 0 01-1.35-1.37.43.43 0 00-.39-.26h-.11a.45.45 0 00-.29.49 5.47 5.47 0 01-.39 3.72c-.09.1-.2.24-.31.38l-.08.11a5.29 5.29 0 01-.61.71 1.56 1.56 0 00-.14-.78 1.16 1.16 0 01-.17-.44 1.73 1.73 0 00-.5-1 .44.44 0 00-.29-.11.48.48 0 00-.28.1 6 6 0 00-.51.5 4.43 4.43 0 01-.69.65 9.66 9.66 0 01-1.41-3.58.44.44 0 00-.43-.36.46.46 0 00-.43.48 66.62 66.62 0 00.74 6.67l.12 1c.15 1.09.3 2.2.41 3.3a1 1 0 000 .2V63c-.06.46-.11.52-.22.54h-.1a2.06 2.06 0 01-.26 0h-.07a8.28 8.28 0 00-.21-3.67l-.05-.26a14.28 14.28 0 01-.25-1.48c-.15-.78-.27-1.55-.4-2.31-.19-1.19-.4-2.45-.69-3.62a.46.46 0 00-.46-.33l-9.88 1.44a.38.38 0 00-.27.14.44.44 0 00-.1.33 58.06 58.06 0 001.41 9.79 4.26 4.26 0 003.59 3 4.19 4.19 0 001.06.11h.77a2 2 0 01-.36.72zm7.63-24.49a.84.84 0 01.23.46c.14.4.32.9.95 1h.1a3.14 3.14 0 001.83-2.19 1 1 0 00.1-.68 9.56 9.56 0 012.66 2.28.45.45 0 00.36.18.43.43 0 00.19 0 3.09 3.09 0 001.53-2.62 1.29 1.29 0 00.47.11h.26a1.44 1.44 0 001.62-1 .43.43 0 00-.08-.38.4.4 0 00-.34-.17 3.52 3.52 0 01-2-1 4.76 4.76 0 00-2-1.08.44.44 0 00-.44.24.4.4 0 00.08.49c1 1.07 1.25 2.05.83 2.9a1.91 1.91 0 01-.1.23 6 6 0 00-2.15-1.41 4.63 4.63 0 01-2.09-1.45.44.44 0 00-.35-.17.5.5 0 00-.24.06.44.44 0 00-.19.29.48.48 0 00.09.37 2.54 2.54 0 01.15 2.34l-.09.17a12.29 12.29 0 00-1.09-.88c-1.08-.85-2.11-1.64-2-3a.44.44 0 00-.28-.45h-.12a.45.45 0 00-.36.18 2.67 2.67 0 00-.31.73c-.15.48-.23.73-.48.87a.89.89 0 00-.18.07h-.07a8.69 8.69 0 00-.08-1.77v-.13a5.54 5.54 0 01.07-2.5.49.49 0 000-.37.47.47 0 00-.37-.2h-.37a.42.42 0 00-.41.3 8.49 8.49 0 00-.28 2.67 5.57 5.57 0 01-.54 3.05.44.44 0 00.06.58 1.37 1.37 0 00.93.34 2.91 2.91 0 001-.23l.27-.07a2.87 2.87 0 00.59-.38l.25-.18zm12.25 24.4a.52.52 0 01-.3-.18 1.24 1.24 0 00-.83-.48 1 1 0 00-.68.34.92.92 0 01-.51.25.18.18 0 01-.11 0c-.23-.16-.3-.42-.25-1a2.36 2.36 0 011.4-1.73h.13v.12a.43.43 0 00.22.44.31.31 0 00.21.06.44.44 0 00.27-.09l.36-.24a2.51 2.51 0 011.38-.59h.4a.63.63 0 00-.19.58.66.66 0 00.34.45.48.48 0 00.22.07 1 1 0 00.81-.49c.11-.17.13-.19.17-.2a2.64 2.64 0 011-.19 6.72 6.72 0 011.75.33h.17a7.3 7.3 0 002.07.38 3.75 3.75 0 001.12-.16h.08l.08-.1a.89.89 0 00.29-1.17 7.5 7.5 0 00-3.61-2.48l-.25-.11a13 13 0 01-1.35-.66 2.91 2.91 0 01-1.5-2.6 6.26 6.26 0 013.38-4.19 3.18 3.18 0 011-.14 7.7 7.7 0 011.5.19h.14a10 10 0 001.67.2 4.71 4.71 0 001-.11 1.29 1.29 0 00.68-.74 1.22 1.22 0 00-.09-1 1.17 1.17 0 00-.91-.6.66.66 0 00-.38.1.75.75 0 00-.42.63c-.42 0-.86-.07-1.29-.13h-.18a14.9 14.9 0 00-1.76-.14 4 4 0 00-3.14 1.2 15.67 15.67 0 00-2.54 2.87l-.09.1h-.08a2.35 2.35 0 01-.35 0 .59.59 0 010-.13 1.23 1.23 0 000-.89 3.34 3.34 0 00-.86-1.69c-.75-1-1-1.41-.41-2a.44.44 0 00.11-.34.41.41 0 00-.19-.32 1.28 1.28 0 00-.26-.17 4.34 4.34 0 00.71.06 2.45 2.45 0 001.08-.21 3.41 3.41 0 002-1.5.38.38 0 000-.39 1.2 1.2 0 00-.85-.69.73.73 0 01-.3-.14v-.06h-.06a4.41 4.41 0 01-.43-.35h.19a3.31 3.31 0 002.82-1.39.39.39 0 00.08-.24 1.34 1.34 0 00-.71-1.13c.73.35 1.44.64 2.13.92l1.63.67.33.12c2.43.8 4.94 1.62 6.77 3.8a6.52 6.52 0 011.79 3 6.24 6.24 0 002.26 3.43 4.45 4.45 0 002 .46 5.07 5.07 0 003.43-1.34c1.92-1.86 2.6-4.83 1.86-8.14a4.7 4.7 0 00-2.09-2.66 3 3 0 00-1.22-.28 1.82 1.82 0 00-1 .25 2 2 0 00-1 1.55 2.09 2.09 0 001.19 2.11.91.91 0 00.65.25 1.47 1.47 0 00.78-.28l.2-.12a2.58 2.58 0 01-.15 1 1.19 1.19 0 01-1 .51H172a.44.44 0 00-.39.19 1.14 1.14 0 000 1.11.91.91 0 01.1.33 2.57 2.57 0 01-1.27 2.31h-.17a3.93 3.93 0 01-.7.11.75.75 0 01-.23 0 .35.35 0 01.05-.08 3.52 3.52 0 00.75-1.76 1.36 1.36 0 010-.35 1.28 1.28 0 00-.24-1 .38.38 0 00-.32-.15h-.11a.43.43 0 00-.32.32 3.82 3.82 0 00-.08.39c-.15.62-.27 1.14-.72 1.38a1.62 1.62 0 01-.38 0 1.1 1.1 0 01-.31 0 .34.34 0 01-.17-.28 3.06 3.06 0 00.46-2.53v-.38c-.13-1.62.05-4.54 2.6-5.84a3.37 3.37 0 011.66-.39 4.14 4.14 0 012.29.66 6.72 6.72 0 011.92 2 9.39 9.39 0 01-.34 9.33 7.57 7.57 0 01-6.84 3.48 13.48 13.48 0 01-1.61-.1h-.09a2.69 2.69 0 00-1.7 1.48c-.35.59-.62 1.06-1.2 1.28a1.61 1.61 0 00-1.09 1.12 1.71 1.71 0 00.64 1.55 9.63 9.63 0 00.92.79 5.31 5.31 0 011.42 1.48.69.69 0 01-.42.63l-1.4.24h-10.95a2 2 0 00-.61.12 2.35 2.35 0 01-.53.1.39.39 0 01-.25-.07 1.15 1.15 0 00-1-.66.89.89 0 00-.68.31 1.47 1.47 0 01-1.02.42zm-4.81 0h-.34a.81.81 0 01-.41-.59 2 2 0 011.14-2 1.88 1.88 0 01.68-.22 1 1 0 00-.17.35 5.17 5.17 0 00-.49 2.14v.2a.7.7 0 01-.41.1zm-18-2.73c-.29-.37-.45-.59-.37-.82l2.37-4.18a.41.41 0 00-.1-.55l-4.21-3.77a2.72 2.72 0 01-.08-.77h.34l4.08 3.51a.48.48 0 00.28.11h.08a.35.35 0 00.23-.14 24 24 0 002.7-4.34l.16-.3a.34.34 0 01.12-.11c.06 0 .1 0 .16.53a3.86 3.86 0 00.1.49l-.13.47-2.23 3.86a.44.44 0 00.1.55l3.59 3.54a1 1 0 01-.21.69l-.09-.09-3.5-3.06a.53.53 0 00-.28-.1h-.09a.41.41 0 00-.27.16l-.45.63a25.68 25.68 0 00-2.31 3.71zm3.71-.5a.78.78 0 01-.21 0 1 1 0 01-.48-.52.64.64 0 01.33-.64h.3c.2 0 .43.05.49.2v.18c0 .22.08.43 0 .53a.56.56 0 01-.46.32zm24.31-1.13c-2.2-.15-4.26-.31-5.37-2.1a3.48 3.48 0 01-.14-2.81 1.35 1.35 0 01.46.13 2.76 2.76 0 00.79.19 1.2 1.2 0 010 .34 1.86 1.86 0 00.13.83c.24 1.87 1.91 2.54 3.26 3.07l.16.07zm-28.57-2.76h-.25c-.06 0-.2-.19-.2-.64a.52.52 0 01.35-.43h.08a.64.64 0 01.58.4c0 .08 0 .19-.1.41v.08a.46.46 0 01-.42.21zM133 59a.58.58 0 01-.18 0c-.11 0-.21-.18-.3-.31l-.05-.07a.77.77 0 01.18-.54.46.46 0 01.32-.12.39.39 0 01.36.16.88.88 0 010 .7.37.37 0 01-.33.18zm-4-3.4a.93.93 0 01-.54-.46.86.86 0 01.21-.77.64.64 0 011 .13 1.12 1.12 0 010 .81c-.07.14-.17.17-.49.25zm-4.07-8a5.76 5.76 0 01-3.12-.9 1.77 1.77 0 01.6-.2 2 2 0 00.63-.2.44.44 0 00.24-.42.46.46 0 00-.34-.39 8.55 8.55 0 01-5-3.76h1.27a5.27 5.27 0 01.56.15 3.1 3.1 0 001 .22 1.84 1.84 0 00.33 0 .44.44 0 00.16-.79 11.42 11.42 0 01-4.87-7 2.44 2.44 0 000-.43 1.73 1.73 0 010-.65 5.71 5.71 0 012.34 1.82 9.14 9.14 0 001.93 1.77.4.4 0 00.55-.09.45.45 0 000-.55 15.4 15.4 0 01-2.75-6.93v-.7a4.15 4.15 0 01.45-2.29 1.86 1.86 0 01.66.63 11.77 11.77 0 01.52 1.08 15 15 0 002.19 3.78.44.44 0 00.33.15.4.4 0 00.22-.06.41.41 0 00.18-.55c-.91-2.52-1.47-6.34 0-8.78l.11-.11a7.34 7.34 0 011 3.06l.07.36a13 13 0 00.34 1.5.46.46 0 00.45.3.45.45 0 00.4-.47 11.62 11.62 0 012.52-8 1 1 0 01.65-.4s.07 0 .09.18a11.67 11.67 0 01-.18 4 11.49 11.49 0 00-.08 4.75.31.31 0 01-.14.07.45.45 0 00-.2.11.23.23 0 00-.15-.06h-.33a.79.79 0 00-.77.54v.13a3.4 3.4 0 00.81 2.26l-.1.2a8.15 8.15 0 01-1.27 2 1.78 1.78 0 01-.38-.51l-.16-.27a18.73 18.73 0 01-1.46-3.4L124 28a.43.43 0 00-.45-.29.42.42 0 00-.4.41 10.4 10.4 0 001.85 6 .92.92 0 00-.09 1.2 3.43 3.43 0 001.22 1.08l.3.18-.06.23a2.3 2.3 0 01-.22.6 14.24 14.24 0 01-4.41-4.25.44.44 0 00-.36-.18h-.11a.42.42 0 00-.26.53c.61 2.69 3.26 4.89 4.8 6a1.79 1.79 0 00-.11.21l-.07.14c-.06.17-.18.34-.7.37a10.9 10.9 0 01-3.89-1.78l-.61-.38a.41.41 0 00-.23-.07.46.46 0 00-.22.06.44.44 0 00-.21.42c0 .71.66 1.19 1.16 1.57a3.56 3.56 0 01.42.36 6.92 6.92 0 001.51.93l.11.06a4.33 4.33 0 011.75 1.32 3.84 3.84 0 002.11.85 11.62 11.62 0 01-1.37.08 16.36 16.36 0 01-2.83-.29.46.46 0 00-.46.28.41.41 0 00.16.51 8.28 8.28 0 004.5 1.31 2.37 2.37 0 010 1.36 2.21 2.21 0 01-1.77.84zm39.57-1.71a9.43 9.43 0 011-.59 4.27 4.27 0 001.69-1.3.44.44 0 000-.51.46.46 0 00-.35-.16h-.13l-.68.32a16 16 0 01-5 1.71 16.25 16.25 0 006.33-5.54.47.47 0 00-.09-.56.45.45 0 00-.6 0 27.41 27.41 0 01-6.94 4.82 3.33 3.33 0 01-1.51.46 1.33 1.33 0 01-.45-.07l.26-.11a2.15 2.15 0 00.61-.38c1.32-.86 4.6-3.28 5.84-6.5a.42.42 0 00-.17-.52.44.44 0 00-.24-.07.4.4 0 00-.31.13c-.54.49-1.08 1.07-1.59 1.61a21.67 21.67 0 01-2.48 2.41l-.37.27a12.37 12.37 0 01-3.39 2.08 2.43 2.43 0 01-.69-.11 19.94 19.94 0 007.11-9.82v-.26a1.78 1.78 0 00-.1-1.44.51.51 0 00-.41-.18.44.44 0 00-.38.3 17.65 17.65 0 01-8.2 10.16 1.48 1.48 0 01-.75-.48.55.55 0 01.32-.32 14.5 14.5 0 006.54-12.87.43.43 0 00-.28-.38L159 28h-.11a.4.4 0 00-.33.17 3.1 3.1 0 00-.66 2 6.52 6.52 0 01-.13.89 14.79 14.79 0 01-5.45 8.34 1.81 1.81 0 00-.23 0h-.1a3.93 3.93 0 00.06-.48v-.12a1.87 1.87 0 01.11-.5c3.25-2.72 5-6.63 5-11.56a21.83 21.83 0 00-.67-4.09v-.18a28 28 0 01-.56-3.06l.19.06a8 8 0 013.54 5 8.44 8.44 0 01.41 3.38v1.83a.42.42 0 00.35.39c.27 0 .45-.12.49-.31a21.71 21.71 0 00.7-2.74 12.49 12.49 0 01.77-2.74c1.84 2.12 2 5.55.41 10.19a.44.44 0 00.2.52.59.59 0 00.22.05.43.43 0 00.33-.15 12.38 12.38 0 002-4.07c.18-.51.35-1 .53-1.5a.73.73 0 00.09-.11l.09-.11a4 4 0 01.28-.37 5.49 5.49 0 01.65 2.44v.17a12.87 12.87 0 01-1.74 6.41.45.45 0 000 .47.71.71 0 00.54.3.82.82 0 00.66-.48l.09-.11.23-.34.37-.58a6.38 6.38 0 011.81-2.15 7.4 7.4 0 01-2.39 6.39.44.44 0 00-.05.56.43.43 0 00.36.2h.06l.14-.06a10.32 10.32 0 001.3-.8l.12-.08a8.08 8.08 0 011.5-.85 1.2 1.2 0 000 .23c-.79 2.68-3.29 4.63-5.84 5.5zm-16.74-10.34a1.69 1.69 0 00-.52-.44 7.24 7.24 0 00-3.11-.53c-1.42 0-2.76-.07-3.52-1.17a1.83 1.83 0 010-.33 1.27 1.27 0 00-.51-1.23h-.2a.51.51 0 00-.32.12 2.81 2.81 0 01-2 1 4.14 4.14 0 01.79-1.81.39.39 0 00.11-.27c0-.18-.07-.77-.91-.77h-.6a1.35 1.35 0 01.22-.5 4.45 4.45 0 00.27-.53 3.31 3.31 0 011.14-1.16l.39-.28a.44.44 0 00.19-.37.77.77 0 00-.82-.75 1.18 1.18 0 00-.27 0h-.17a9.92 9.92 0 001.19-.8l.09-.06a8 8 0 01.93-.63.42.42 0 00.21-.48 8.31 8.31 0 010-2.39c.05-.37.09-.7.11-1h.53c.33 0 .66-.06 1-.06 1 0 1.53.27 1.8.92a1.69 1.69 0 01.12.47v.12a1.66 1.66 0 00.93 1.43h.15a.48.48 0 00.27-.09.4.4 0 00.17-.42l-.05-.35c-.19-1.26-.43-2.82-2-3.3l-.28-.11c.48-.07.73-.43.73-1.08v-.1l.51.33h.14a6.84 6.84 0 013.89 2.47 1.76 1.76 0 01-.36 1.7.4.4 0 000 .49 2.69 2.69 0 00.89.82c.68.47.86.67.71 1.11a.42.42 0 00.14.47 9.93 9.93 0 001.93 1.24l.56.3a.17.17 0 01.06.08.65.65 0 01-.23.16l-.09-.1a1.42 1.42 0 00-.86-.43.76.76 0 00-.5.19.45.45 0 00-.13.51 2.19 2.19 0 00.67.8 1.26 1.26 0 01.19.16c-.1.53-.53.83-1.07 1.21a9.1 9.1 0 00-.78.61c-.19-1.18-1.46-2-2.2-2.39a1.45 1.45 0 00-.56-.12 2.2 2.2 0 00-1.07.36 4 4 0 00-1.66 4.34V33a2.22 2.22 0 002 1 9.54 9.54 0 001.3-.13 7.1 7.1 0 011.15-.14h.17c0 .08 0 .19-.23.55l-.05.08a1.9 1.9 0 00-.35 1.07 2.77 2.77 0 01-.05.29zm-2-9.31s.12.09.24.24a2.65 2.65 0 00.41.45h.18a1.27 1.27 0 00.26 0 1.61 1.61 0 001.26-.88 2 2 0 01.43-.46.47.47 0 00.2-.46c-.17-1-.58-1.18-.89-1.18a.71.71 0 00-.38.13.41.41 0 00-.17.32c0 .27-.16.35-.77.46a1.83 1.83 0 00-1.23.58.39.39 0 000 .49.46.46 0 00.4.21zm-3.5-4.63a.84.84 0 00-.73.43.41.41 0 00.07.55c.26.25.19.61 0 1.16l-.06.17a.42.42 0 000 .37.78.78 0 00.7.49 1.27 1.27 0 00.71-.3 1.24 1.24 0 01.39-.24h.06a.45.45 0 00.3-.15.82.82 0 00.05-1.05l-.08-.13a.33.33 0 000-.16s-.58-1.14-1.37-1.14zm9 11.75a4.06 4.06 0 01-2.25-1.06 6.46 6.46 0 00-2.15-1.19 5.43 5.43 0 012.18.8 5.65 5.65 0 002.52.88 2.58 2.58 0 001.44-.39 1.31 1.31 0 01-.68.71 2.34 2.34 0 01-1.01.25z"/><path class="cls-2" d="M145.05 7.4a37.28 37.28 0 1037.27 37.27A37.31 37.31 0 00145.05 7.4zm0 72.7a35.43 35.43 0 1135.43-35.43 35.47 35.47 0 01-35.43 35.43z"/></g></svg>